G04 start of page 2 for group 10 layer_idx 1 *
G04 Title: (unknown), bottom_copper *
G04 Creator: pcb-rnd 2.3.0 *
G04 CreationDate: 2021-05-03 18:52:41 UTC *
G04 For:  *
G04 Format: Gerber/RS-274X *
G04 PCB-Dimensions: 500000 500000 *
G04 PCB-Coordinate-Origin: lower left *
%MOIN*%
%FSLAX25Y25*%
%LNBOTTOM_COPPER_NONE_10*%
%ADD21C,0.0394*%
%ADD20C,0.0430*%
%ADD19C,0.0800*%
%ADD18C,0.0850*%
%ADD17C,0.0001*%
G54D17*G36*
X239500Y342000D02*Y219500D01*
X237000Y217000D01*
X229594D01*
Y217850D01*
X233502D01*
X233600Y217842D01*
X233992Y217873D01*
X233992Y217873D01*
X234375Y217965D01*
X234738Y218116D01*
X235074Y218321D01*
X235373Y218577D01*
X235629Y218876D01*
X235834Y219212D01*
X235985Y219575D01*
X236077Y219958D01*
X236108Y220350D01*
X236100Y220448D01*
Y228252D01*
X236108Y228350D01*
X236077Y228742D01*
X236077Y228742D01*
X235985Y229125D01*
X235834Y229488D01*
X235629Y229824D01*
X235373Y230123D01*
X235074Y230379D01*
X234865Y230507D01*
X234875Y230518D01*
X235409Y231390D01*
X235801Y232335D01*
X236040Y233330D01*
X236100Y234350D01*
X236040Y235370D01*
X235801Y236365D01*
X235409Y237310D01*
X234875Y238182D01*
X234210Y238960D01*
X233432Y239625D01*
X232560Y240159D01*
X231615Y240551D01*
X230620Y240790D01*
X229600Y240870D01*
X229594Y240870D01*
Y351906D01*
X239500Y342000D01*
G37*
G36*
X229594Y351906D02*Y240870D01*
X228580Y240790D01*
X227585Y240551D01*
X226640Y240159D01*
X225768Y239625D01*
X224990Y238960D01*
X224325Y238182D01*
X223791Y237310D01*
X223399Y236365D01*
X223160Y235370D01*
X223080Y234350D01*
X223160Y233330D01*
X223399Y232335D01*
X223791Y231390D01*
X224325Y230518D01*
X224335Y230507D01*
X224126Y230379D01*
X223827Y230123D01*
X223571Y229824D01*
X223366Y229488D01*
X223215Y229125D01*
X223123Y228742D01*
X223092Y228350D01*
X223100Y228252D01*
Y220448D01*
X223092Y220350D01*
X223123Y219958D01*
X223123Y219958D01*
X223215Y219575D01*
X223366Y219212D01*
X223571Y218876D01*
X223827Y218577D01*
X224126Y218321D01*
X224462Y218116D01*
X224825Y217965D01*
X225208Y217873D01*
X225600Y217842D01*
X225698Y217850D01*
X229594D01*
Y217000D01*
X223000D01*
X204722Y235278D01*
Y341508D01*
X204803Y341515D01*
X204994Y341562D01*
X205176Y341638D01*
X205343Y341742D01*
X205492Y341870D01*
X205619Y342020D01*
X205721Y342189D01*
X205792Y342372D01*
X205948Y342925D01*
X206049Y343490D01*
X206100Y344063D01*
Y344637D01*
X206049Y345210D01*
X205948Y345775D01*
X205798Y346330D01*
X205725Y346513D01*
X205622Y346682D01*
X205495Y346833D01*
X205345Y346961D01*
X205178Y347065D01*
X204996Y347142D01*
X204804Y347189D01*
X204722Y347196D01*
Y376778D01*
X229594Y351906D01*
G37*
G36*
X204722Y376778D02*Y347196D01*
X204607Y347205D01*
X204410Y347191D01*
X204218Y347146D01*
X204036Y347071D01*
X203867Y346969D01*
X203716Y346841D01*
X203587Y346692D01*
X203483Y346524D01*
X203407Y346342D01*
X203360Y346151D01*
X203343Y345954D01*
X203358Y345757D01*
X203407Y345566D01*
X203503Y345226D01*
X203565Y344879D01*
X203596Y344527D01*
Y344173D01*
X203565Y343821D01*
X203503Y343474D01*
X203410Y343133D01*
X203362Y342942D01*
X203347Y342746D01*
X203364Y342550D01*
X203410Y342359D01*
X203487Y342178D01*
X203590Y342010D01*
X203719Y341861D01*
X203869Y341734D01*
X204037Y341632D01*
X204219Y341558D01*
X204411Y341513D01*
X204607Y341499D01*
X204722Y341508D01*
Y235278D01*
X202000Y238000D01*
Y319000D01*
X199602Y321398D01*
Y337850D01*
X199887D01*
X200460Y337901D01*
X201025Y338002D01*
X201580Y338152D01*
X201763Y338225D01*
X201932Y338328D01*
X202083Y338455D01*
X202211Y338605D01*
X202315Y338772D01*
X202392Y338954D01*
X202439Y339146D01*
X202455Y339343D01*
X202441Y339540D01*
X202396Y339732D01*
X202321Y339914D01*
X202219Y340083D01*
X202091Y340234D01*
X201942Y340363D01*
X201774Y340467D01*
X201592Y340543D01*
X201401Y340590D01*
X201204Y340607D01*
X201007Y340592D01*
X200816Y340543D01*
X200476Y340447D01*
X200129Y340385D01*
X199777Y340354D01*
X199602D01*
Y348346D01*
X199777D01*
X200129Y348315D01*
X200476Y348253D01*
X200817Y348160D01*
X201008Y348112D01*
X201204Y348097D01*
X201400Y348114D01*
X201591Y348160D01*
X201772Y348237D01*
X201940Y348340D01*
X202089Y348469D01*
X202216Y348619D01*
X202318Y348787D01*
X202392Y348969D01*
X202437Y349161D01*
X202451Y349357D01*
X202435Y349553D01*
X202388Y349744D01*
X202312Y349926D01*
X202208Y350093D01*
X202080Y350242D01*
X201930Y350369D01*
X201761Y350471D01*
X201578Y350542D01*
X201025Y350698D01*
X200460Y350799D01*
X199887Y350850D01*
X199602D01*
Y381898D01*
X204722Y376778D01*
G37*
G36*
X192500Y424000D02*X195500Y421000D01*
Y386000D01*
X199602Y381898D01*
Y350850D01*
X199313D01*
X198740Y350799D01*
X198175Y350698D01*
X197620Y350548D01*
X197437Y350475D01*
X197268Y350372D01*
X197117Y350245D01*
X196989Y350095D01*
X196885Y349928D01*
X196808Y349746D01*
X196761Y349554D01*
X196745Y349357D01*
X196759Y349160D01*
X196804Y348968D01*
X196879Y348786D01*
X196981Y348617D01*
X197109Y348466D01*
X197258Y348337D01*
X197426Y348233D01*
X197608Y348157D01*
X197799Y348110D01*
X197996Y348093D01*
X198193Y348108D01*
X198384Y348157D01*
X198724Y348253D01*
X199071Y348315D01*
X199423Y348346D01*
X199602D01*
Y340354D01*
X199423D01*
X199071Y340385D01*
X198724Y340447D01*
X198383Y340540D01*
X198192Y340588D01*
X197996Y340603D01*
X197800Y340586D01*
X197609Y340540D01*
X197428Y340463D01*
X197260Y340360D01*
X197111Y340231D01*
X196984Y340081D01*
X196882Y339913D01*
X196808Y339731D01*
X196763Y339539D01*
X196749Y339343D01*
X196765Y339147D01*
X196812Y338956D01*
X196888Y338774D01*
X196992Y338607D01*
X197120Y338458D01*
X197270Y338331D01*
X197439Y338229D01*
X197622Y338158D01*
X198175Y338002D01*
X198740Y337901D01*
X199313Y337850D01*
X199602D01*
Y321398D01*
X189600Y331400D01*
Y337850D01*
X193502D01*
X193600Y337842D01*
X193992Y337873D01*
X193992Y337873D01*
X194375Y337965D01*
X194738Y338116D01*
X195074Y338321D01*
X195373Y338577D01*
X195629Y338876D01*
X195834Y339212D01*
X195985Y339575D01*
X196077Y339958D01*
X196108Y340350D01*
X196100Y340448D01*
Y348252D01*
X196108Y348350D01*
X196077Y348742D01*
X196077Y348742D01*
X195985Y349125D01*
X195834Y349488D01*
X195629Y349824D01*
X195373Y350123D01*
X195074Y350379D01*
X194738Y350584D01*
X194375Y350735D01*
X193992Y350827D01*
X193600Y350858D01*
X193502Y350850D01*
X189600D01*
Y424000D01*
X192500D01*
G37*
G36*
X189600D02*Y350850D01*
X185698D01*
X185600Y350858D01*
X185208Y350827D01*
X185208Y350827D01*
X184825Y350735D01*
X184462Y350584D01*
X184126Y350379D01*
X183827Y350123D01*
X183571Y349824D01*
X183366Y349488D01*
X183215Y349125D01*
X183123Y348742D01*
X183092Y348350D01*
X183100Y348252D01*
Y340448D01*
X183092Y340350D01*
X183123Y339958D01*
X183123Y339958D01*
X183215Y339575D01*
X183366Y339212D01*
X183571Y338876D01*
X183827Y338577D01*
X184126Y338321D01*
X184462Y338116D01*
X184825Y337965D01*
X185208Y337873D01*
X185600Y337842D01*
X185698Y337850D01*
X189600D01*
Y331400D01*
X179842Y341158D01*
Y369734D01*
X179850Y369734D01*
X180674Y369799D01*
X181477Y369992D01*
X182241Y370308D01*
X182945Y370740D01*
X183574Y371276D01*
X184110Y371905D01*
X184542Y372609D01*
X184858Y373373D01*
X185051Y374176D01*
X185100Y375000D01*
X185051Y375824D01*
X184858Y376627D01*
X184542Y377391D01*
X184110Y378095D01*
X183574Y378724D01*
X182945Y379260D01*
X182241Y379692D01*
X181498Y380000D01*
X182241Y380308D01*
X182945Y380740D01*
X183574Y381276D01*
X184110Y381905D01*
X184542Y382609D01*
X184858Y383373D01*
X185051Y384176D01*
X185100Y385000D01*
X185051Y385824D01*
X184858Y386627D01*
X184542Y387391D01*
X184110Y388095D01*
X183574Y388724D01*
X182945Y389260D01*
X182241Y389692D01*
X181860Y389850D01*
X183961D01*
X184000Y389847D01*
X184157Y389859D01*
X184157Y389859D01*
X184310Y389896D01*
X184455Y389956D01*
X184590Y390038D01*
X184709Y390141D01*
X184812Y390260D01*
X184894Y390395D01*
X184954Y390540D01*
X184991Y390693D01*
X185003Y390850D01*
X185000Y390889D01*
Y399111D01*
X185003Y399150D01*
X184991Y399307D01*
X184991Y399307D01*
X184954Y399460D01*
X184894Y399605D01*
X184812Y399740D01*
X184709Y399859D01*
X184590Y399962D01*
X184455Y400044D01*
X184310Y400104D01*
X184157Y400141D01*
X184000Y400153D01*
X183961Y400150D01*
X179842D01*
Y409734D01*
X179850Y409734D01*
X180674Y409799D01*
X181477Y409992D01*
X182241Y410308D01*
X182945Y410740D01*
X183574Y411276D01*
X184110Y411905D01*
X184542Y412609D01*
X184858Y413373D01*
X185051Y414176D01*
X185100Y415000D01*
X185051Y415824D01*
X184858Y416627D01*
X184542Y417391D01*
X184110Y418095D01*
X183574Y418724D01*
X182945Y419260D01*
X182241Y419692D01*
X181477Y420008D01*
X180674Y420201D01*
X179850Y420266D01*
X179842Y420266D01*
Y424000D01*
X189600D01*
G37*
G36*
X179842D02*Y420266D01*
X179026Y420201D01*
X178223Y420008D01*
X177459Y419692D01*
X176755Y419260D01*
X176126Y418724D01*
X175590Y418095D01*
X175158Y417391D01*
X174842Y416627D01*
X174649Y415824D01*
X174584Y415000D01*
X174649Y414176D01*
X174842Y413373D01*
X175158Y412609D01*
X175590Y411905D01*
X176126Y411276D01*
X176755Y410740D01*
X177459Y410308D01*
X178223Y409992D01*
X179026Y409799D01*
X179842Y409734D01*
Y400150D01*
X175739D01*
X175700Y400153D01*
X175543Y400141D01*
X175543Y400141D01*
X175390Y400104D01*
X175245Y400044D01*
X175110Y399962D01*
X174991Y399859D01*
X174888Y399740D01*
X174806Y399605D01*
X174746Y399460D01*
X174709Y399307D01*
X174697Y399150D01*
X174700Y399111D01*
Y390889D01*
X174697Y390850D01*
X174709Y390693D01*
X174709Y390693D01*
X174746Y390540D01*
X174806Y390395D01*
X174888Y390260D01*
X174991Y390141D01*
X175110Y390038D01*
X175245Y389956D01*
X175390Y389896D01*
X175543Y389859D01*
X175700Y389847D01*
X175739Y389850D01*
X177840D01*
X177459Y389692D01*
X176755Y389260D01*
X176126Y388724D01*
X175590Y388095D01*
X175158Y387391D01*
X174842Y386627D01*
X174649Y385824D01*
X174584Y385000D01*
X174649Y384176D01*
X174842Y383373D01*
X175158Y382609D01*
X175590Y381905D01*
X176126Y381276D01*
X176755Y380740D01*
X177459Y380308D01*
X178202Y380000D01*
X177459Y379692D01*
X176755Y379260D01*
X176126Y378724D01*
X175590Y378095D01*
X175158Y377391D01*
X174842Y376627D01*
X174649Y375824D01*
X174584Y375000D01*
X174649Y374176D01*
X174842Y373373D01*
X175158Y372609D01*
X175590Y371905D01*
X176126Y371276D01*
X176755Y370740D01*
X177459Y370308D01*
X178223Y369992D01*
X179026Y369799D01*
X179842Y369734D01*
Y341158D01*
X164500Y356500D01*
Y420500D01*
X168000Y424000D01*
X179842D01*
G37*
G54D18*X179850Y385000D03*
G54D17*G36*
X184000Y390850D02*Y399150D01*
X175700D01*
Y390850D01*
X184000D01*
G37*
G54D18*X179850Y415000D03*
Y375000D03*
G54D17*G36*
X185600Y348350D02*X193600D01*
Y340350D01*
X185600D01*
Y348350D01*
G37*
G54D19*X199600Y344350D03*
G54D17*G36*
X225600Y220350D02*Y228350D01*
X233600D01*
Y220350D01*
X225600D01*
G37*
G54D19*X229600Y234350D03*
G54D20*G54D21*M02*
