G04 start of page 2 for group 17 layer_idx 16 *
G04 Title: (unknown), bot_assy *
G04 Creator: pcb-rnd 2.3.0 *
G04 CreationDate: 2021-05-03 18:52:42 UTC *
G04 For:  *
G04 Format: Gerber/RS-274X *
G04 PCB-Dimensions: 500000 500000 *
G04 PCB-Coordinate-Origin: lower left *
%MOIN*%
%FSLAX25Y25*%
%LNBOTTOM_DOC_ASSY_17*%
%ADD46C,0.0100*%
G54D46*X219400Y452300D02*Y430300D01*
X199800Y452300D02*X219400D01*
X199800D02*Y430300D01*
X159900Y452300D02*Y430300D01*
X140300Y452300D02*X159900D01*
X140300D02*Y430300D01*
X211850Y395000D02*Y375000D01*
X207350Y394750D02*Y375000D01*
X207600Y395000D02*X207350Y394750D01*
X219600Y395000D02*Y428300D01*
X321350Y373100D02*Y432600D01*
X262850Y373100D02*X321350D01*
X262850Y432600D02*Y373100D01*
X199600Y395000D02*X219600D01*
X152350D02*Y375000D01*
X147850Y394750D02*Y375000D01*
X148100Y395000D02*X147850Y394750D01*
X140100Y395000D02*X160100D01*
X140100Y428300D02*Y395000D01*
X138100Y430300D02*Y428300D01*
X162100Y430200D02*X138100D01*
Y428200D02*X162100D01*
X40850Y375100D02*X99450D01*
X40850Y432600D02*Y375100D01*
X199600Y428300D02*Y395000D01*
X160100D02*Y428300D01*
X162100Y428200D02*Y430200D01*
X174600Y289350D02*Y299350D01*
X194600Y289350D02*X174600D01*
X194600Y299350D02*Y289350D01*
X174600Y299350D02*X194600D01*
X204600Y289350D02*Y299350D01*
Y349350D02*X184600D01*
X204600Y339350D02*Y349350D01*
Y339600D02*Y339350D01*
X204350D02*X204600Y339600D01*
X184600Y339350D02*X204350D01*
X184600Y349350D02*Y339350D01*
X99450Y375100D02*Y432600D01*
X95505Y314927D02*X92850Y334500D01*
X114600Y299350D02*Y319350D01*
X124600D02*Y299350D01*
X114600Y319350D02*X124600D01*
X104232Y136181D02*Y209015D01*
X124600Y299350D02*X114600D01*
X103600Y276850D02*X143600D01*
X103600Y236850D02*Y276850D01*
X143600Y236850D02*X103600D01*
X143600Y276850D02*Y236850D01*
X45177Y136181D02*X104232D01*
X45177Y209015D02*Y136181D01*
X67505Y314927D02*X64850Y334500D01*
X47695Y314927D02*X50350Y334500D01*
X75695Y314927D02*X78350Y334500D01*
X104232Y209015D02*X45177D01*
X221600Y430300D02*X197600D01*
Y428300D02*X221600D01*
X197600Y430300D02*Y428300D01*
X321350Y432600D02*X262850D01*
X99450D02*X40850D01*
X221600Y428300D02*Y430300D01*
X247773Y271523D02*X247773Y271522D01*
X219427Y271523D02*X247773D01*
X224600Y299350D02*Y289350D01*
X219427Y243177D02*Y271523D01*
X247773Y243177D02*X219427D01*
X224600Y289350D02*X204600D01*
X247773Y271523D02*Y243177D01*
X224600Y219350D02*X234600D01*
Y239350D01*
X224600D01*
Y219350D01*
X204600Y299350D02*X224600D01*
X274600Y309350D02*Y289350D01*
X284600D01*
Y309350D02*X274600D01*
X284600Y289350D02*Y309350D01*
X294600Y329350D02*Y339350D01*
X274600Y329350D02*X294600D01*
X274600Y339350D02*Y329350D01*
X294600Y339350D02*X274600D01*
X211850Y375000D02*G75*G02X207350Y375000I-2250J0D01*G01*
X152350D02*G75*G02X147850Y375000I-2250J0D01*G01*
X50350Y334500D02*G75*G03X64750Y334500I7200J0D01*G01*
G75*G03X50350Y334500I-7200J0D01*G01*
X47695Y314927D02*G75*G03X67495Y314927I9900J0D01*G01*
G75*G03X47695Y315001I-9900J0D01*G01*
X78350Y334500D02*G75*G03X92750Y334500I7200J0D01*G01*
G75*G03X78350Y334500I-7200J0D01*G01*
X75695Y314927D02*G75*G03X95495Y314927I9900J0D01*G01*
G75*G03X75695Y315001I-9900J0D01*G01*
M02*
