G04 start of page 2 for group 12 layer_idx 7 *
G04 Title: (unknown), bottom_silk *
G04 Creator: pcb-rnd 2.3.0 *
G04 CreationDate: 2021-05-03 18:52:41 UTC *
G04 For:  *
G04 Format: Gerber/RS-274X *
G04 PCB-Dimensions: 500000 500000 *
G04 PCB-Coordinate-Origin: lower left *
%MOIN*%
%FSLAX25Y25*%
%LNBOTTOM_SILK_NONE_12*%
%ADD37C,0.0070*%
%ADD36C,0.0100*%
G54D36*X234600Y219350D02*X224600D01*
X234600D02*Y239350D01*
X224600D02*Y219350D01*
Y239350D02*X234600D01*
X229600Y219350D02*X232100Y214350D01*
X229600Y219350D02*X227100Y214350D01*
X232100D02*X227100D01*
X184600Y339350D02*Y349350D01*
Y344350D02*X179600Y341850D01*
X184600Y344350D02*X179600Y346850D01*
Y341850D02*Y346850D01*
X184600Y339350D02*X204600D01*
Y349350D02*X184600D01*
X204600D02*Y339350D01*
G54D37*X236600Y218550D02*Y219850D01*
X237300Y217850D02*X236600Y218550D01*
X239900Y217850D02*X237300D01*
X239900D02*X240600Y218550D01*
Y219850D01*
X240100Y221050D02*X237100D01*
X240100D02*X240600Y221550D01*
Y222550D01*
X240100Y223050D01*
X237100D01*
X236600Y222550D02*X237100Y223050D01*
X236600Y221550D02*Y222550D01*
X237100Y221050D02*X236600Y221550D01*
X240600Y224250D02*X236600D01*
X240600D02*X236600Y226750D01*
X240600D02*X236600D01*
X240600Y227950D02*X236600D01*
X240600D02*X236600Y230450D01*
X240600D02*X236600D01*
X240100Y231650D02*X240600Y232150D01*
Y233650D01*
X240100Y234150D01*
X239100D01*
X236600Y231650D02*X239100Y234150D01*
X236600Y231650D02*Y234150D01*
X240100Y235350D02*X240600Y235850D01*
Y237350D01*
X240100Y237850D01*
X239100D01*
X236600Y235350D02*X239100Y237850D01*
X236600Y235350D02*Y237850D01*
X239800Y239050D02*X240600Y239850D01*
X236600D01*
Y239050D02*Y240550D01*
X183800Y337350D02*X185100D01*
X183100Y336650D02*X183800Y337350D01*
X183100Y334050D02*Y336650D01*
Y334050D02*X183800Y333350D01*
X185100D01*
X186300Y333850D02*Y336850D01*
Y333850D02*X186800Y333350D01*
X187800D01*
X188300Y333850D01*
Y336850D01*
X187800Y337350D02*X188300Y336850D01*
X186800Y337350D02*X187800D01*
X186300Y336850D02*X186800Y337350D01*
X189500Y333350D02*Y337350D01*
Y333350D02*X192000Y337350D01*
Y333350D02*Y337350D01*
X193200Y333350D02*Y337350D01*
Y333350D02*X195700Y337350D01*
Y333350D02*Y337350D01*
X196900Y333850D02*X197400Y333350D01*
X198900D01*
X199400Y333850D01*
Y334850D01*
X196900Y337350D02*X199400Y334850D01*
X196900Y337350D02*X199400D01*
X202100Y333350D02*X202600Y333850D01*
X201100Y333350D02*X202100D01*
X200600Y333850D02*X201100Y333350D01*
X200600Y333850D02*Y336850D01*
X201100Y337350D01*
X202100Y335150D02*X202600Y335650D01*
X200600Y335150D02*X202100D01*
X201100Y337350D02*X202100D01*
X202600Y336850D01*
Y335650D02*Y336850D01*
X203800Y335850D02*X205800Y333350D01*
X203800Y335850D02*X206300D01*
X205800Y333350D02*Y337350D01*
M02*
