G04 start of page 2 for group 18 layer_idx 17 *
G04 Title: (unknown), fab *
G04 Creator: pcb-rnd 2.3.0 *
G04 CreationDate: 2021-05-03 18:52:42 UTC *
G04 For:  *
G04 Format: Gerber/RS-274X *
G04 PCB-Dimensions: 500000 500000 *
G04 PCB-Coordinate-Origin: lower left *
%MOIN*%
%FSLAX25Y25*%
%LNTOP_DOC_FAB_18*%
%ADD50C,0.0100*%
%ADD49C,0.0075*%
%ADD48C,0.0060*%
%ADD47C,0.0080*%
G54D47*X179850Y386600D02*Y383400D01*
X178250Y385000D02*X181450D01*
X179850Y396600D02*Y393400D01*
X178250Y395000D02*X181450D01*
X179850Y416600D02*Y413400D01*
X178250Y415000D02*X181450D01*
X179850Y376600D02*Y373400D01*
X178250Y375000D02*X181450D01*
X15000Y542850D02*Y539650D01*
X13400Y541250D02*X16600D01*
G54D48*X135000Y543500D02*X136500Y540500D01*
X138000Y543500D01*
X136500Y540500D02*Y537500D01*
X139800Y540800D02*X142050D01*
X139800Y537500D02*X142800D01*
X139800Y543500D02*Y537500D01*
Y543500D02*X142800D01*
X147600D02*X148350Y542750D01*
X145350Y543500D02*X147600D01*
X144600Y542750D02*X145350Y543500D01*
X144600Y542750D02*Y541250D01*
X145350Y540500D01*
X147600D01*
X148350Y539750D01*
Y538250D01*
X147600Y537500D02*X148350Y538250D01*
X145350Y537500D02*X147600D01*
X144600Y538250D02*X145350Y537500D01*
X98000Y539750D02*X101000Y543500D01*
X98000Y539750D02*X101750D01*
X101000Y543500D02*Y537500D01*
X45000Y538250D02*X45750Y537500D01*
X45000Y542750D02*Y538250D01*
Y542750D02*X45750Y543500D01*
X47250D01*
X48000Y542750D01*
Y538250D01*
X47250Y537500D02*X48000Y538250D01*
X45750Y537500D02*X47250D01*
X45000Y539000D02*X48000Y542000D01*
X49800Y537500D02*X50550D01*
X52350Y538250D02*X53100Y537500D01*
X52350Y542750D02*Y538250D01*
Y542750D02*X53100Y543500D01*
X54600D01*
X55350Y542750D01*
Y538250D01*
X54600Y537500D02*X55350Y538250D01*
X53100Y537500D02*X54600D01*
X52350Y539000D02*X55350Y542000D01*
X57150Y539750D02*X60150Y543500D01*
X57150Y539750D02*X60900D01*
X60150Y543500D02*Y537500D01*
X62700Y542750D02*X63450Y543500D01*
X64950D01*
X65700Y542750D01*
X64950Y537500D02*X65700Y538250D01*
X63450Y537500D02*X64950D01*
X62700Y538250D02*X63450Y537500D01*
Y540800D02*X64950D01*
X65700Y542750D02*Y541550D01*
Y540050D02*Y538250D01*
Y540050D02*X64950Y540800D01*
X65700Y541550D02*X64950Y540800D01*
X189600Y344350D02*Y342750D01*
Y344350D02*X190987Y345150D01*
X189600Y344350D02*X188213Y345150D01*
X199600Y344350D02*Y342750D01*
Y344350D02*X200987Y345150D01*
X199600Y344350D02*X198213Y345150D01*
X229600Y224350D02*Y222750D01*
Y224350D02*X230987Y225150D01*
X229600Y224350D02*X228213Y225150D01*
X229600Y234350D02*Y232750D01*
Y234350D02*X230987Y235150D01*
X229600Y234350D02*X228213Y235150D01*
X15000Y556250D02*Y554650D01*
Y556250D02*X16387Y557050D01*
X15000Y556250D02*X13613Y557050D01*
X135000Y558500D02*X136500Y555500D01*
X138000Y558500D01*
X136500Y555500D02*Y552500D01*
X139800Y555800D02*X142050D01*
X139800Y552500D02*X142800D01*
X139800Y558500D02*Y552500D01*
Y558500D02*X142800D01*
X147600D02*X148350Y557750D01*
X145350Y558500D02*X147600D01*
X144600Y557750D02*X145350Y558500D01*
X144600Y557750D02*Y556250D01*
X145350Y555500D01*
X147600D01*
X148350Y554750D01*
Y553250D01*
X147600Y552500D02*X148350Y553250D01*
X145350Y552500D02*X147600D01*
X144600Y553250D02*X145350Y552500D01*
X98000Y554750D02*X101000Y558500D01*
X98000Y554750D02*X101750D01*
X101000Y558500D02*Y552500D01*
X45000Y553250D02*X45750Y552500D01*
X45000Y557750D02*Y553250D01*
Y557750D02*X45750Y558500D01*
X47250D01*
X48000Y557750D01*
Y553250D01*
X47250Y552500D02*X48000Y553250D01*
X45750Y552500D02*X47250D01*
X45000Y554000D02*X48000Y557000D01*
X49800Y552500D02*X50550D01*
X52350Y553250D02*X53100Y552500D01*
X52350Y557750D02*Y553250D01*
Y557750D02*X53100Y558500D01*
X54600D01*
X55350Y557750D01*
Y553250D01*
X54600Y552500D02*X55350Y553250D01*
X53100Y552500D02*X54600D01*
X52350Y554000D02*X55350Y557000D01*
X57150Y557750D02*X57900Y558500D01*
X59400D01*
X60150Y557750D01*
X59400Y552500D02*X60150Y553250D01*
X57900Y552500D02*X59400D01*
X57150Y553250D02*X57900Y552500D01*
Y555800D02*X59400D01*
X60150Y557750D02*Y556550D01*
Y555050D02*Y553250D01*
Y555050D02*X59400Y555800D01*
X60150Y556550D02*X59400Y555800D01*
X62700Y552500D02*X64950Y555500D01*
Y557750D02*Y555500D01*
X64200Y558500D02*X64950Y557750D01*
X62700Y558500D02*X64200D01*
X61950Y557750D02*X62700Y558500D01*
X61950Y557750D02*Y556250D01*
X62700Y555500D01*
X64950D01*
X3000Y573500D02*X3750Y572750D01*
X750Y573500D02*X3000D01*
X0Y572750D02*X750Y573500D01*
X0Y572750D02*Y571250D01*
X750Y570500D01*
X3000D01*
X3750Y569750D01*
Y568250D01*
X3000Y567500D02*X3750Y568250D01*
X750Y567500D02*X3000D01*
X0Y568250D02*X750Y567500D01*
X5550Y570500D02*Y568250D01*
X6300Y567500D01*
X8550Y570500D02*Y566000D01*
X7800Y565250D02*X8550Y566000D01*
X6300Y565250D02*X7800D01*
X5550Y566000D02*X6300Y565250D01*
Y567500D02*X7800D01*
X8550Y568250D01*
X11100Y569750D02*Y567500D01*
Y569750D02*X11850Y570500D01*
X12600D01*
X13350Y569750D01*
Y567500D01*
Y569750D02*X14100Y570500D01*
X14850D01*
X15600Y569750D01*
Y567500D01*
X10350Y570500D02*X11100Y569750D01*
X17400Y573500D02*Y567500D01*
Y568250D02*X18150Y567500D01*
X19650D01*
X20400Y568250D01*
Y569750D02*Y568250D01*
X19650Y570500D02*X20400Y569750D01*
X18150Y570500D02*X19650D01*
X17400Y569750D02*X18150Y570500D01*
X22200Y569750D02*Y568250D01*
Y569750D02*X22950Y570500D01*
X24450D01*
X25200Y569750D01*
Y568250D01*
X24450Y567500D02*X25200Y568250D01*
X22950Y567500D02*X24450D01*
X22200Y568250D02*X22950Y567500D01*
X27000Y573500D02*Y568250D01*
X27750Y567500D01*
X0Y565750D02*X29250D01*
X41750Y573500D02*Y567500D01*
X43700Y573500D02*X44750Y572450D01*
Y568550D01*
X43700Y567500D02*X44750Y568550D01*
X41000Y567500D02*X43700D01*
X41000Y573500D02*X43700D01*
G54D49*X46550Y572000D02*Y571850D01*
G54D48*Y569750D02*Y567500D01*
X50300Y570500D02*X51050Y569750D01*
X48800Y570500D02*X50300D01*
X48050Y569750D02*X48800Y570500D01*
X48050Y569750D02*Y568250D01*
X48800Y567500D01*
X51050Y570500D02*Y568250D01*
X51800Y567500D01*
X48800D02*X50300D01*
X51050Y568250D01*
X54350Y569750D02*Y567500D01*
Y569750D02*X55100Y570500D01*
X55850D01*
X56600Y569750D01*
Y567500D01*
Y569750D02*X57350Y570500D01*
X58100D01*
X58850Y569750D01*
Y567500D01*
X53600Y570500D02*X54350Y569750D01*
X60650Y567500D02*X61400D01*
X65900Y568250D02*X66650Y567500D01*
X65900Y572750D02*X66650Y573500D01*
X65900Y572750D02*Y568250D01*
X68450Y573500D02*X69950D01*
X69200D02*Y567500D01*
X68450D02*X69950D01*
X72500Y569750D02*Y567500D01*
Y569750D02*X73250Y570500D01*
X74000D01*
X74750Y569750D01*
Y567500D01*
X71750Y570500D02*X72500Y569750D01*
X77300Y570500D02*X79550D01*
X76550Y569750D02*X77300Y570500D01*
X76550Y569750D02*Y568250D01*
X77300Y567500D01*
X79550D01*
X81350Y573500D02*Y567500D01*
Y569750D02*X82100Y570500D01*
X83600D01*
X84350Y569750D01*
Y567500D01*
X86150Y573500D02*X86900Y572750D01*
Y568250D01*
X86150Y567500D02*X86900Y568250D01*
X41000Y565750D02*X88700D01*
X96050Y567500D02*X98000D01*
X95000Y568550D02*X96050Y567500D01*
X95000Y572450D02*Y568550D01*
Y572450D02*X96050Y573500D01*
X98000D01*
X99800Y569750D02*Y568250D01*
Y569750D02*X100550Y570500D01*
X102050D01*
X102800Y569750D01*
Y568250D01*
X102050Y567500D02*X102800Y568250D01*
X100550Y567500D02*X102050D01*
X99800Y568250D02*X100550Y567500D01*
X104600Y570500D02*Y568250D01*
X105350Y567500D01*
X106850D01*
X107600Y568250D01*
Y570500D02*Y568250D01*
X110150Y569750D02*Y567500D01*
Y569750D02*X110900Y570500D01*
X111650D01*
X112400Y569750D01*
Y567500D01*
X109400Y570500D02*X110150Y569750D01*
X114950Y573500D02*Y568250D01*
X115700Y567500D01*
X114200Y571250D02*X115700D01*
X95000Y565750D02*X117200D01*
X130750Y573500D02*Y567500D01*
X130000Y573500D02*X133000D01*
X133750Y572750D01*
Y571250D01*
X133000Y570500D02*X133750Y571250D01*
X130750Y570500D02*X133000D01*
X135550Y573500D02*Y568250D01*
X136300Y567500D01*
X140050Y570500D02*X140800Y569750D01*
X138550Y570500D02*X140050D01*
X137800Y569750D02*X138550Y570500D01*
X137800Y569750D02*Y568250D01*
X138550Y567500D01*
X140800Y570500D02*Y568250D01*
X141550Y567500D01*
X138550D02*X140050D01*
X140800Y568250D01*
X144100Y573500D02*Y568250D01*
X144850Y567500D01*
X143350Y571250D02*X144850D01*
X147100Y567500D02*X149350D01*
X146350Y568250D02*X147100Y567500D01*
X146350Y569750D02*Y568250D01*
Y569750D02*X147100Y570500D01*
X148600D01*
X149350Y569750D01*
X146350Y569000D02*X149350D01*
Y569750D01*
X154150Y573500D02*Y567500D01*
X153400D02*X154150Y568250D01*
X151900Y567500D02*X153400D01*
X151150Y568250D02*X151900Y567500D01*
X151150Y569750D02*Y568250D01*
Y569750D02*X151900Y570500D01*
X153400D01*
X154150Y569750D01*
X157450Y570500D02*Y569750D01*
Y568250D02*Y567500D01*
X155950Y572750D02*Y572000D01*
Y572750D02*X156700Y573500D01*
X158200D01*
X158950Y572750D01*
Y572000D01*
X157450Y570500D02*X158950Y572000D01*
X130000Y565750D02*X160750D01*
X0Y588500D02*X3000D01*
X1500D02*Y582500D01*
X4800Y588500D02*Y582500D01*
Y584750D02*X5550Y585500D01*
X7050D01*
X7800Y584750D01*
Y582500D01*
X10350D02*X12600D01*
X9600Y583250D02*X10350Y582500D01*
X9600Y584750D02*Y583250D01*
Y584750D02*X10350Y585500D01*
X11850D01*
X12600Y584750D01*
X9600Y584000D02*X12600D01*
Y584750D01*
X15150D02*Y582500D01*
Y584750D02*X15900Y585500D01*
X17400D01*
X14400D02*X15150Y584750D01*
X19950Y582500D02*X22200D01*
X19200Y583250D02*X19950Y582500D01*
X19200Y584750D02*Y583250D01*
Y584750D02*X19950Y585500D01*
X21450D01*
X22200Y584750D01*
X19200Y584000D02*X22200D01*
Y584750D01*
X28950Y585500D02*X29700Y584750D01*
X27450Y585500D02*X28950D01*
X26700Y584750D02*X27450Y585500D01*
X26700Y584750D02*Y583250D01*
X27450Y582500D01*
X29700Y585500D02*Y583250D01*
X30450Y582500D01*
X27450D02*X28950D01*
X29700Y583250D01*
X33000Y584750D02*Y582500D01*
Y584750D02*X33750Y585500D01*
X35250D01*
X32250D02*X33000Y584750D01*
X37800Y582500D02*X40050D01*
X37050Y583250D02*X37800Y582500D01*
X37050Y584750D02*Y583250D01*
Y584750D02*X37800Y585500D01*
X39300D01*
X40050Y584750D01*
X37050Y584000D02*X40050D01*
Y584750D01*
X44550Y587750D02*X45300Y588500D01*
X47550D01*
X48300Y587750D01*
Y586250D01*
X44550Y582500D02*X48300Y586250D01*
X44550Y582500D02*X48300D01*
X55800Y588500D02*Y582500D01*
X55050D02*X55800Y583250D01*
X53550Y582500D02*X55050D01*
X52800Y583250D02*X53550Y582500D01*
X52800Y584750D02*Y583250D01*
Y584750D02*X53550Y585500D01*
X55050D01*
X55800Y584750D01*
G54D49*X57600Y587000D02*Y586850D01*
G54D48*Y584750D02*Y582500D01*
X59850Y587750D02*Y582500D01*
Y587750D02*X60600Y588500D01*
X61350D01*
X59100Y585500D02*X60600D01*
X63600Y587750D02*Y582500D01*
Y587750D02*X64350Y588500D01*
X65100D01*
X62850Y585500D02*X64350D01*
X67350Y582500D02*X69600D01*
X66600Y583250D02*X67350Y582500D01*
X66600Y584750D02*Y583250D01*
Y584750D02*X67350Y585500D01*
X68850D01*
X69600Y584750D01*
X66600Y584000D02*X69600D01*
Y584750D01*
X72150D02*Y582500D01*
Y584750D02*X72900Y585500D01*
X74400D01*
X71400D02*X72150Y584750D01*
X76950Y582500D02*X79200D01*
X76200Y583250D02*X76950Y582500D01*
X76200Y584750D02*Y583250D01*
Y584750D02*X76950Y585500D01*
X78450D01*
X79200Y584750D01*
X76200Y584000D02*X79200D01*
Y584750D01*
X81750D02*Y582500D01*
Y584750D02*X82500Y585500D01*
X83250D01*
X84000Y584750D01*
Y582500D01*
X81000Y585500D02*X81750Y584750D01*
X86550Y588500D02*Y583250D01*
X87300Y582500D01*
X85800Y586250D02*X87300D01*
X94500Y588500D02*Y582500D01*
X93750D02*X94500Y583250D01*
X92250Y582500D02*X93750D01*
X91500Y583250D02*X92250Y582500D01*
X91500Y584750D02*Y583250D01*
Y584750D02*X92250Y585500D01*
X93750D01*
X94500Y584750D01*
X97050D02*Y582500D01*
Y584750D02*X97800Y585500D01*
X99300D01*
X96300D02*X97050Y584750D01*
G54D49*X101100Y587000D02*Y586850D01*
G54D48*Y584750D02*Y582500D01*
X102600Y588500D02*Y583250D01*
X103350Y582500D01*
X104850Y588500D02*Y583250D01*
X105600Y582500D01*
X110550D02*X112800D01*
X113550Y583250D01*
X112800Y584000D02*X113550Y583250D01*
X110550Y584000D02*X112800D01*
X109800Y584750D02*X110550Y584000D01*
X109800Y584750D02*X110550Y585500D01*
X112800D01*
X113550Y584750D01*
X109800Y583250D02*X110550Y582500D01*
G54D49*X115350Y587000D02*Y586850D01*
G54D48*Y584750D02*Y582500D01*
X116850Y585500D02*X119850D01*
X116850Y582500D02*X119850Y585500D01*
X116850Y582500D02*X119850D01*
X122400D02*X124650D01*
X121650Y583250D02*X122400Y582500D01*
X121650Y584750D02*Y583250D01*
Y584750D02*X122400Y585500D01*
X123900D01*
X124650Y584750D01*
X121650Y584000D02*X124650D01*
Y584750D01*
X127200Y582500D02*X129450D01*
X130200Y583250D01*
X129450Y584000D02*X130200Y583250D01*
X127200Y584000D02*X129450D01*
X126450Y584750D02*X127200Y584000D01*
X126450Y584750D02*X127200Y585500D01*
X129450D01*
X130200Y584750D01*
X126450Y583250D02*X127200Y582500D01*
X134700Y585500D02*Y583250D01*
X135450Y582500D01*
X136950D01*
X137700Y583250D01*
Y585500D02*Y583250D01*
X140250Y582500D02*X142500D01*
X143250Y583250D01*
X142500Y584000D02*X143250Y583250D01*
X140250Y584000D02*X142500D01*
X139500Y584750D02*X140250Y584000D01*
X139500Y584750D02*X140250Y585500D01*
X142500D01*
X143250Y584750D01*
X139500Y583250D02*X140250Y582500D01*
X145800D02*X148050D01*
X145050Y583250D02*X145800Y582500D01*
X145050Y584750D02*Y583250D01*
Y584750D02*X145800Y585500D01*
X147300D01*
X148050Y584750D01*
X145050Y584000D02*X148050D01*
Y584750D01*
X152850Y588500D02*Y582500D01*
X152100D02*X152850Y583250D01*
X150600Y582500D02*X152100D01*
X149850Y583250D02*X150600Y582500D01*
X149850Y584750D02*Y583250D01*
Y584750D02*X150600Y585500D01*
X152100D01*
X152850Y584750D01*
G54D49*X157350Y587000D02*Y586850D01*
G54D48*Y584750D02*Y582500D01*
X159600Y584750D02*Y582500D01*
Y584750D02*X160350Y585500D01*
X161100D01*
X161850Y584750D01*
Y582500D01*
X158850Y585500D02*X159600Y584750D01*
X167100Y588500D02*Y583250D01*
X167850Y582500D01*
X166350Y586250D02*X167850D01*
X169350Y588500D02*Y582500D01*
Y584750D02*X170100Y585500D01*
X171600D01*
X172350Y584750D01*
Y582500D01*
G54D49*X174150Y587000D02*Y586850D01*
G54D48*Y584750D02*Y582500D01*
X176400D02*X178650D01*
X179400Y583250D01*
X178650Y584000D02*X179400Y583250D01*
X176400Y584000D02*X178650D01*
X175650Y584750D02*X176400Y584000D01*
X175650Y584750D02*X176400Y585500D01*
X178650D01*
X179400Y584750D01*
X175650Y583250D02*X176400Y582500D01*
X183900Y588500D02*Y583250D01*
X184650Y582500D01*
X188400Y585500D02*X189150Y584750D01*
X186900Y585500D02*X188400D01*
X186150Y584750D02*X186900Y585500D01*
X186150Y584750D02*Y583250D01*
X186900Y582500D01*
X189150Y585500D02*Y583250D01*
X189900Y582500D01*
X186900D02*X188400D01*
X189150Y583250D01*
X191700Y585500D02*Y583250D01*
X192450Y582500D01*
X194700Y585500D02*Y581000D01*
X193950Y580250D02*X194700Y581000D01*
X192450Y580250D02*X193950D01*
X191700Y581000D02*X192450Y580250D01*
Y582500D02*X193950D01*
X194700Y583250D01*
X196500Y584750D02*Y583250D01*
Y584750D02*X197250Y585500D01*
X198750D01*
X199500Y584750D01*
Y583250D01*
X198750Y582500D02*X199500Y583250D01*
X197250Y582500D02*X198750D01*
X196500Y583250D02*X197250Y582500D01*
X201300Y585500D02*Y583250D01*
X202050Y582500D01*
X203550D01*
X204300Y583250D01*
Y585500D02*Y583250D01*
X206850Y588500D02*Y583250D01*
X207600Y582500D01*
X206100Y586250D02*X207600D01*
X209100Y581000D02*X210600Y582500D01*
X215100Y583250D02*X215850Y582500D01*
X215100Y584450D02*Y583250D01*
Y584450D02*X216150Y585500D01*
X217050D01*
X218100Y584450D01*
Y583250D01*
X217350Y582500D02*X218100Y583250D01*
X215850Y582500D02*X217350D01*
X215100Y586550D02*X216150Y585500D01*
X215100Y587750D02*Y586550D01*
Y587750D02*X215850Y588500D01*
X217350D01*
X218100Y587750D01*
Y586550D01*
X217050Y585500D02*X218100Y586550D01*
X222600Y588500D02*Y582500D01*
Y584750D02*X223350Y585500D01*
X224850D01*
X225600Y584750D01*
Y582500D01*
X227400Y584750D02*Y583250D01*
Y584750D02*X228150Y585500D01*
X229650D01*
X230400Y584750D01*
Y583250D01*
X229650Y582500D02*X230400Y583250D01*
X228150Y582500D02*X229650D01*
X227400Y583250D02*X228150Y582500D01*
X232200Y588500D02*Y583250D01*
X232950Y582500D01*
X235200D02*X237450D01*
X234450Y583250D02*X235200Y582500D01*
X234450Y584750D02*Y583250D01*
Y584750D02*X235200Y585500D01*
X236700D01*
X237450Y584750D01*
X234450Y584000D02*X237450D01*
Y584750D01*
X240000Y582500D02*X242250D01*
X243000Y583250D01*
X242250Y584000D02*X243000Y583250D01*
X240000Y584000D02*X242250D01*
X239250Y584750D02*X240000Y584000D01*
X239250Y584750D02*X240000Y585500D01*
X242250D01*
X243000Y584750D01*
X239250Y583250D02*X240000Y582500D01*
X248250Y588500D02*Y583250D01*
X249000Y582500D01*
X247500Y586250D02*X249000D01*
X250500Y584750D02*Y583250D01*
Y584750D02*X251250Y585500D01*
X252750D01*
X253500Y584750D01*
Y583250D01*
X252750Y582500D02*X253500Y583250D01*
X251250Y582500D02*X252750D01*
X250500Y583250D02*X251250Y582500D01*
X256050Y588500D02*Y583250D01*
X256800Y582500D01*
X255300Y586250D02*X256800D01*
X260550Y585500D02*X261300Y584750D01*
X259050Y585500D02*X260550D01*
X258300Y584750D02*X259050Y585500D01*
X258300Y584750D02*Y583250D01*
X259050Y582500D01*
X261300Y585500D02*Y583250D01*
X262050Y582500D01*
X259050D02*X260550D01*
X261300Y583250D01*
X263850Y588500D02*Y583250D01*
X264600Y582500D01*
G54D50*X165600Y430350D02*X193650D01*
X194000Y318000D02*X158600Y353400D01*
Y423350D02*X165600Y430350D01*
X201000Y388500D02*X245100Y344400D01*
X194000Y237500D02*X220400Y211100D01*
X245100Y216100D02*X240100Y211100D01*
X220400D02*X240100D01*
X158600Y353400D02*Y423350D01*
X194000Y237500D02*Y318000D01*
X245100Y344400D02*Y216100D01*
X193650Y430350D02*X201000Y423000D01*
Y388500D01*
G54D48*X163675Y-9500D02*X166675D01*
X167425Y-8750D01*
Y-6950D02*Y-8750D01*
X166675Y-6200D02*X167425Y-6950D01*
X164425Y-6200D02*X166675D01*
X164425Y-3500D02*Y-9500D01*
X163675Y-3500D02*X166675D01*
X167425Y-4250D01*
Y-5450D01*
X166675Y-6200D02*X167425Y-5450D01*
X169225Y-7250D02*Y-8750D01*
Y-7250D02*X169975Y-6500D01*
X171475D01*
X172225Y-7250D01*
Y-8750D01*
X171475Y-9500D02*X172225Y-8750D01*
X169975Y-9500D02*X171475D01*
X169225Y-8750D02*X169975Y-9500D01*
X176275Y-6500D02*X177025Y-7250D01*
X174775Y-6500D02*X176275D01*
X174025Y-7250D02*X174775Y-6500D01*
X174025Y-7250D02*Y-8750D01*
X174775Y-9500D01*
X177025Y-6500D02*Y-8750D01*
X177775Y-9500D01*
X174775D02*X176275D01*
X177025Y-8750D01*
X180325Y-7250D02*Y-9500D01*
Y-7250D02*X181075Y-6500D01*
X182575D01*
X179575D02*X180325Y-7250D01*
X187375Y-3500D02*Y-9500D01*
X186625D02*X187375Y-8750D01*
X185125Y-9500D02*X186625D01*
X184375Y-8750D02*X185125Y-9500D01*
X184375Y-7250D02*Y-8750D01*
Y-7250D02*X185125Y-6500D01*
X186625D01*
X187375Y-7250D01*
X191875D02*Y-8750D01*
Y-7250D02*X192625Y-6500D01*
X194125D01*
X194875Y-7250D01*
Y-8750D01*
X194125Y-9500D02*X194875Y-8750D01*
X192625Y-9500D02*X194125D01*
X191875Y-8750D02*X192625Y-9500D01*
X196675Y-6500D02*Y-8750D01*
X197425Y-9500D01*
X198925D01*
X199675Y-8750D01*
Y-6500D02*Y-8750D01*
X202225Y-3500D02*Y-8750D01*
X202975Y-9500D01*
X201475Y-5750D02*X202975D01*
X204475Y-3500D02*Y-8750D01*
X205225Y-9500D01*
G54D49*X206725Y-5000D02*Y-5150D01*
G54D48*Y-7250D02*Y-9500D01*
X208975Y-7250D02*Y-9500D01*
Y-7250D02*X209725Y-6500D01*
X210475D01*
X211225Y-7250D01*
Y-9500D01*
X208225Y-6500D02*X208975Y-7250D01*
X213775Y-9500D02*X216025D01*
X213025Y-8750D02*X213775Y-9500D01*
X213025Y-7250D02*Y-8750D01*
Y-7250D02*X213775Y-6500D01*
X215275D01*
X216025Y-7250D01*
X213025Y-8000D02*X216025D01*
Y-7250D01*
G54D49*X220525Y-5000D02*Y-5150D01*
G54D48*Y-7250D02*Y-9500D01*
X222775D02*X225025D01*
X225775Y-8750D01*
X225025Y-8000D02*X225775Y-8750D01*
X222775Y-8000D02*X225025D01*
X222025Y-7250D02*X222775Y-8000D01*
X222025Y-7250D02*X222775Y-6500D01*
X225025D01*
X225775Y-7250D01*
X222025Y-8750D02*X222775Y-9500D01*
X231025Y-3500D02*Y-8750D01*
X231775Y-9500D01*
X230275Y-5750D02*X231775D01*
X233275Y-3500D02*Y-9500D01*
Y-7250D02*X234025Y-6500D01*
X235525D01*
X236275Y-7250D01*
Y-9500D01*
X238825D02*X241075D01*
X238075Y-8750D02*X238825Y-9500D01*
X238075Y-7250D02*Y-8750D01*
Y-7250D02*X238825Y-6500D01*
X240325D01*
X241075Y-7250D01*
X238075Y-8000D02*X241075D01*
Y-7250D01*
X246325Y-6500D02*X248575D01*
X245575Y-7250D02*X246325Y-6500D01*
X245575Y-7250D02*Y-8750D01*
X246325Y-9500D01*
X248575D01*
X251125D02*X253375D01*
X250375Y-8750D02*X251125Y-9500D01*
X250375Y-7250D02*Y-8750D01*
Y-7250D02*X251125Y-6500D01*
X252625D01*
X253375Y-7250D01*
X250375Y-8000D02*X253375D01*
Y-7250D01*
X255925D02*Y-9500D01*
Y-7250D02*X256675Y-6500D01*
X257425D01*
X258175Y-7250D01*
Y-9500D01*
X255175Y-6500D02*X255925Y-7250D01*
X260725Y-3500D02*Y-8750D01*
X261475Y-9500D01*
X259975Y-5750D02*X261475D01*
X263725Y-9500D02*X265975D01*
X262975Y-8750D02*X263725Y-9500D01*
X262975Y-7250D02*Y-8750D01*
Y-7250D02*X263725Y-6500D01*
X265225D01*
X265975Y-7250D01*
X262975Y-8000D02*X265975D01*
Y-7250D01*
X268525D02*Y-9500D01*
Y-7250D02*X269275Y-6500D01*
X270775D01*
X267775D02*X268525Y-7250D01*
X272575Y-3500D02*Y-8750D01*
X273325Y-9500D01*
G54D49*X274825Y-5000D02*Y-5150D01*
G54D48*Y-7250D02*Y-9500D01*
X277075Y-7250D02*Y-9500D01*
Y-7250D02*X277825Y-6500D01*
X278575D01*
X279325Y-7250D01*
Y-9500D01*
X276325Y-6500D02*X277075Y-7250D01*
X281875Y-9500D02*X284125D01*
X281125Y-8750D02*X281875Y-9500D01*
X281125Y-7250D02*Y-8750D01*
Y-7250D02*X281875Y-6500D01*
X283375D01*
X284125Y-7250D01*
X281125Y-8000D02*X284125D01*
Y-7250D01*
X288625D02*Y-8750D01*
Y-7250D02*X289375Y-6500D01*
X290875D01*
X291625Y-7250D01*
Y-8750D01*
X290875Y-9500D02*X291625Y-8750D01*
X289375Y-9500D02*X290875D01*
X288625Y-8750D02*X289375Y-9500D01*
X294175Y-4250D02*Y-9500D01*
Y-4250D02*X294925Y-3500D01*
X295675D01*
X293425Y-6500D02*X294925D01*
X300625Y-3500D02*Y-8750D01*
X301375Y-9500D01*
X299875Y-5750D02*X301375D01*
X302875Y-3500D02*Y-9500D01*
Y-7250D02*X303625Y-6500D01*
X305125D01*
X305875Y-7250D01*
Y-9500D01*
G54D49*X307675Y-5000D02*Y-5150D01*
G54D48*Y-7250D02*Y-9500D01*
X309925D02*X312175D01*
X312925Y-8750D01*
X312175Y-8000D02*X312925Y-8750D01*
X309925Y-8000D02*X312175D01*
X309175Y-7250D02*X309925Y-8000D01*
X309175Y-7250D02*X309925Y-6500D01*
X312175D01*
X312925Y-7250D01*
X309175Y-8750D02*X309925Y-9500D01*
X318175Y-7250D02*Y-11750D01*
X317425Y-6500D02*X318175Y-7250D01*
X318925Y-6500D01*
X320425D01*
X321175Y-7250D01*
Y-8750D01*
X320425Y-9500D02*X321175Y-8750D01*
X318925Y-9500D02*X320425D01*
X318175Y-8750D02*X318925Y-9500D01*
X325225Y-6500D02*X325975Y-7250D01*
X323725Y-6500D02*X325225D01*
X322975Y-7250D02*X323725Y-6500D01*
X322975Y-7250D02*Y-8750D01*
X323725Y-9500D01*
X325975Y-6500D02*Y-8750D01*
X326725Y-9500D01*
X323725D02*X325225D01*
X325975Y-8750D01*
X329275Y-3500D02*Y-8750D01*
X330025Y-9500D01*
X328525Y-5750D02*X330025D01*
X331525Y-3500D02*Y-9500D01*
Y-7250D02*X332275Y-6500D01*
X333775D01*
X334525Y-7250D01*
Y-9500D01*
X200750Y528500D02*Y522500D01*
X202700Y528500D02*X203750Y527450D01*
Y523550D01*
X202700Y522500D02*X203750Y523550D01*
X200000Y522500D02*X202700D01*
X200000Y528500D02*X202700D01*
X207800Y525500D02*X208550Y524750D01*
X206300Y525500D02*X207800D01*
X205550Y524750D02*X206300Y525500D01*
X205550Y524750D02*Y523250D01*
X206300Y522500D01*
X208550Y525500D02*Y523250D01*
X209300Y522500D01*
X206300D02*X207800D01*
X208550Y523250D01*
X211850Y528500D02*Y523250D01*
X212600Y522500D01*
X211100Y526250D02*X212600D01*
X214850Y522500D02*X217100D01*
X214100Y523250D02*X214850Y522500D01*
X214100Y524750D02*Y523250D01*
Y524750D02*X214850Y525500D01*
X216350D01*
X217100Y524750D01*
X214100Y524000D02*X217100D01*
Y524750D01*
X218900Y526250D02*X219650D01*
X218900Y524750D02*X219650D01*
X224150Y527750D02*X224900Y528500D01*
X227150D01*
X227900Y527750D01*
Y526250D01*
X224150Y522500D02*X227900Y526250D01*
X224150Y522500D02*X227900D01*
X229700Y523250D02*X230450Y522500D01*
X229700Y527750D02*Y523250D01*
Y527750D02*X230450Y528500D01*
X231950D01*
X232700Y527750D01*
Y523250D01*
X231950Y522500D02*X232700Y523250D01*
X230450Y522500D02*X231950D01*
X229700Y524000D02*X232700Y527000D01*
X234500Y527750D02*X235250Y528500D01*
X237500D01*
X238250Y527750D01*
Y526250D01*
X234500Y522500D02*X238250Y526250D01*
X234500Y522500D02*X238250D01*
X240050Y527300D02*X241250Y528500D01*
Y522500D01*
X240050D02*X242300D01*
X244100Y525500D02*X247100D01*
X248900Y523250D02*X249650Y522500D01*
X248900Y527750D02*Y523250D01*
Y527750D02*X249650Y528500D01*
X251150D01*
X251900Y527750D01*
Y523250D01*
X251150Y522500D02*X251900Y523250D01*
X249650Y522500D02*X251150D01*
X248900Y524000D02*X251900Y527000D01*
X253700Y528500D02*X256700D01*
X253700D02*Y525500D01*
X254450Y526250D01*
X255950D01*
X256700Y525500D01*
Y523250D01*
X255950Y522500D02*X256700Y523250D01*
X254450Y522500D02*X255950D01*
X253700Y523250D02*X254450Y522500D01*
X258500Y525500D02*X261500D01*
X263300Y523250D02*X264050Y522500D01*
X263300Y527750D02*Y523250D01*
Y527750D02*X264050Y528500D01*
X265550D01*
X266300Y527750D01*
Y523250D01*
X265550Y522500D02*X266300Y523250D01*
X264050Y522500D02*X265550D01*
X263300Y524000D02*X266300Y527000D01*
X268100Y527750D02*X268850Y528500D01*
X270350D01*
X271100Y527750D01*
X270350Y522500D02*X271100Y523250D01*
X268850Y522500D02*X270350D01*
X268100Y523250D02*X268850Y522500D01*
Y525800D02*X270350D01*
X271100Y527750D02*Y526550D01*
Y525050D02*Y523250D01*
Y525050D02*X270350Y525800D01*
X271100Y526550D02*X270350Y525800D01*
X275600Y527300D02*X276800Y528500D01*
Y522500D01*
X275600D02*X277850D01*
X279650Y523250D02*X280400Y522500D01*
X279650Y524450D02*Y523250D01*
Y524450D02*X280700Y525500D01*
X281600D01*
X282650Y524450D01*
Y523250D01*
X281900Y522500D02*X282650Y523250D01*
X280400Y522500D02*X281900D01*
X279650Y526550D02*X280700Y525500D01*
X279650Y527750D02*Y526550D01*
Y527750D02*X280400Y528500D01*
X281900D01*
X282650Y527750D01*
Y526550D01*
X281600Y525500D02*X282650Y526550D01*
X284450Y526250D02*X285200D01*
X284450Y524750D02*X285200D01*
X287000Y528500D02*X290000D01*
X287000D02*Y525500D01*
X287750Y526250D01*
X289250D01*
X290000Y525500D01*
Y523250D01*
X289250Y522500D02*X290000Y523250D01*
X287750Y522500D02*X289250D01*
X287000Y523250D02*X287750Y522500D01*
X291800Y527750D02*X292550Y528500D01*
X294800D01*
X295550Y527750D01*
Y526250D01*
X291800Y522500D02*X295550Y526250D01*
X291800Y522500D02*X295550D01*
X297350Y526250D02*X298100D01*
X297350Y524750D02*X298100D01*
X299900D02*X302900Y528500D01*
X299900Y524750D02*X303650D01*
X302900Y528500D02*Y522500D01*
X305450Y527750D02*X306200Y528500D01*
X308450D01*
X309200Y527750D01*
Y526250D01*
X305450Y522500D02*X309200Y526250D01*
X305450Y522500D02*X309200D01*
X313700Y528500D02*Y523250D01*
X314450Y522500D01*
X315950D01*
X316700Y523250D01*
Y528500D02*Y523250D01*
X318500Y528500D02*X321500D01*
X320000D02*Y522500D01*
X324350D02*X326300D01*
X323300Y523550D02*X324350Y522500D01*
X323300Y527450D02*Y523550D01*
Y527450D02*X324350Y528500D01*
X326300D01*
X200000Y542000D02*Y537500D01*
Y542000D02*X201050Y543500D01*
X202700D01*
X203750Y542000D01*
Y537500D01*
X200000Y540500D02*X203750D01*
X205550D02*Y538250D01*
X206300Y537500D01*
X207800D01*
X208550Y538250D01*
Y540500D02*Y538250D01*
X211100Y543500D02*Y538250D01*
X211850Y537500D01*
X210350Y541250D02*X211850D01*
X213350Y543500D02*Y537500D01*
Y539750D02*X214100Y540500D01*
X215600D01*
X216350Y539750D01*
Y537500D01*
X218150Y539750D02*Y538250D01*
Y539750D02*X218900Y540500D01*
X220400D01*
X221150Y539750D01*
Y538250D01*
X220400Y537500D02*X221150Y538250D01*
X218900Y537500D02*X220400D01*
X218150Y538250D02*X218900Y537500D01*
X223700Y539750D02*Y537500D01*
Y539750D02*X224450Y540500D01*
X225950D01*
X222950D02*X223700Y539750D01*
X227750Y541250D02*X228500D01*
X227750Y539750D02*X228500D01*
X200000Y558500D02*X203000D01*
X201500D02*Y552500D01*
G54D49*X204800Y557000D02*Y556850D01*
G54D48*Y554750D02*Y552500D01*
X207050Y558500D02*Y553250D01*
X207800Y552500D01*
X206300Y556250D02*X207800D01*
X209300Y558500D02*Y553250D01*
X210050Y552500D01*
X212300D02*X214550D01*
X211550Y553250D02*X212300Y552500D01*
X211550Y554750D02*Y553250D01*
Y554750D02*X212300Y555500D01*
X213800D01*
X214550Y554750D01*
X211550Y554000D02*X214550D01*
Y554750D01*
X216350Y556250D02*X217100D01*
X216350Y554750D02*X217100D01*
X221600Y553250D02*X222350Y552500D01*
X221600Y557750D02*X222350Y558500D01*
X221600Y557750D02*Y553250D01*
X224150Y555500D02*Y553250D01*
X224900Y552500D01*
X226400D01*
X227150Y553250D01*
Y555500D02*Y553250D01*
X229700Y554750D02*Y552500D01*
Y554750D02*X230450Y555500D01*
X231200D01*
X231950Y554750D01*
Y552500D01*
X228950Y555500D02*X229700Y554750D01*
X233750Y558500D02*Y552500D01*
Y554750D02*X236000Y552500D01*
X233750Y554750D02*X235250Y556250D01*
X238550Y554750D02*Y552500D01*
Y554750D02*X239300Y555500D01*
X240050D01*
X240800Y554750D01*
Y552500D01*
X237800Y555500D02*X238550Y554750D01*
X242600D02*Y553250D01*
Y554750D02*X243350Y555500D01*
X244850D01*
X245600Y554750D01*
Y553250D01*
X244850Y552500D02*X245600Y553250D01*
X243350Y552500D02*X244850D01*
X242600Y553250D02*X243350Y552500D01*
X247400Y555500D02*Y553250D01*
X248150Y552500D01*
X248900D01*
X249650Y553250D01*
Y555500D02*Y553250D01*
X250400Y552500D01*
X251150D01*
X251900Y553250D01*
Y555500D02*Y553250D01*
X254450Y554750D02*Y552500D01*
Y554750D02*X255200Y555500D01*
X255950D01*
X256700Y554750D01*
Y552500D01*
X253700Y555500D02*X254450Y554750D01*
X258500Y558500D02*X259250Y557750D01*
Y553250D01*
X258500Y552500D02*X259250Y553250D01*
X263750Y555500D02*X266750D01*
X271250Y558500D02*Y552500D01*
Y558500D02*X274250D01*
X271250Y555800D02*X273500D01*
X278300Y555500D02*X279050Y554750D01*
X276800Y555500D02*X278300D01*
X276050Y554750D02*X276800Y555500D01*
X276050Y554750D02*Y553250D01*
X276800Y552500D01*
X279050Y555500D02*Y553250D01*
X279800Y552500D01*
X276800D02*X278300D01*
X279050Y553250D01*
X281600Y558500D02*Y552500D01*
Y553250D02*X282350Y552500D01*
X283850D01*
X284600Y553250D01*
Y554750D02*Y553250D01*
X283850Y555500D02*X284600Y554750D01*
X282350Y555500D02*X283850D01*
X281600Y554750D02*X282350Y555500D01*
X287150Y554750D02*Y552500D01*
Y554750D02*X287900Y555500D01*
X289400D01*
X286400D02*X287150Y554750D01*
G54D49*X291200Y557000D02*Y556850D01*
G54D48*Y554750D02*Y552500D01*
X293450Y555500D02*X295700D01*
X292700Y554750D02*X293450Y555500D01*
X292700Y554750D02*Y553250D01*
X293450Y552500D01*
X295700D01*
X299750Y555500D02*X300500Y554750D01*
X298250Y555500D02*X299750D01*
X297500Y554750D02*X298250Y555500D01*
X297500Y554750D02*Y553250D01*
X298250Y552500D01*
X300500Y555500D02*Y553250D01*
X301250Y552500D01*
X298250D02*X299750D01*
X300500Y553250D01*
X303800Y558500D02*Y553250D01*
X304550Y552500D01*
X303050Y556250D02*X304550D01*
G54D49*X306050Y557000D02*Y556850D01*
G54D48*Y554750D02*Y552500D01*
X307550Y554750D02*Y553250D01*
Y554750D02*X308300Y555500D01*
X309800D01*
X310550Y554750D01*
Y553250D01*
X309800Y552500D02*X310550Y553250D01*
X308300Y552500D02*X309800D01*
X307550Y553250D02*X308300Y552500D01*
X313100Y554750D02*Y552500D01*
Y554750D02*X313850Y555500D01*
X314600D01*
X315350Y554750D01*
Y552500D01*
X312350Y555500D02*X313100Y554750D01*
X320600Y558500D02*Y552500D01*
X322550Y558500D02*X323600Y557450D01*
Y553550D01*
X322550Y552500D02*X323600Y553550D01*
X319850Y552500D02*X322550D01*
X319850Y558500D02*X322550D01*
X326150Y554750D02*Y552500D01*
Y554750D02*X326900Y555500D01*
X328400D01*
X325400D02*X326150Y554750D01*
X332450Y555500D02*X333200Y554750D01*
X330950Y555500D02*X332450D01*
X330200Y554750D02*X330950Y555500D01*
X330200Y554750D02*Y553250D01*
X330950Y552500D01*
X333200Y555500D02*Y553250D01*
X333950Y552500D01*
X330950D02*X332450D01*
X333200Y553250D01*
X335750Y555500D02*Y553250D01*
X336500Y552500D01*
X337250D01*
X338000Y553250D01*
Y555500D02*Y553250D01*
X338750Y552500D01*
X339500D01*
X340250Y553250D01*
Y555500D02*Y553250D01*
G54D49*X342050Y557000D02*Y556850D01*
G54D48*Y554750D02*Y552500D01*
X344300Y554750D02*Y552500D01*
Y554750D02*X345050Y555500D01*
X345800D01*
X346550Y554750D01*
Y552500D01*
X343550Y555500D02*X344300Y554750D01*
X350600Y555500D02*X351350Y554750D01*
X349100Y555500D02*X350600D01*
X348350Y554750D02*X349100Y555500D01*
X348350Y554750D02*Y553250D01*
X349100Y552500D01*
X350600D01*
X351350Y553250D01*
X348350Y551000D02*X349100Y550250D01*
X350600D01*
X351350Y551000D01*
Y555500D02*Y551000D01*
M02*
