G04 start of page 2 for group 2 layer_idx 10 *
G04 Title: (unknown), top_mask *
G04 Creator: pcb-rnd 2.3.0 *
G04 CreationDate: 2021-05-03 18:52:41 UTC *
G04 For:  *
G04 Format: Gerber/RS-274X *
G04 PCB-Dimensions: 500000 500000 *
G04 PCB-Coordinate-Origin: lower left *
%MOIN*%
%FSLAX25Y25*%
%LNTOP_MASK_NONE_2*%
%ADD40C,0.0860*%
%ADD39C,0.0001*%
%ADD38C,0.0900*%
G54D38*X179850Y385000D03*
G54D39*G36*
X184300Y390550D02*Y399450D01*
X175400D01*
Y390550D01*
X184300D01*
G37*
G54D38*X179850Y415000D03*
Y375000D03*
G54D39*G36*
X185300Y348650D02*X193900D01*
Y340050D01*
X185300D01*
Y348650D01*
G37*
G54D40*X199600Y344350D03*
G54D39*G36*
X225300Y220050D02*Y228650D01*
X233900D01*
Y220050D01*
X225300D01*
G37*
G54D40*X229600Y234350D03*
G54D39*G36*
X225359Y248752D02*X219641D01*
Y242248D01*
X225359D01*
Y248752D01*
G37*
G36*
X232445D02*X226727D01*
Y242248D01*
X232445D01*
Y248752D01*
G37*
G36*
X218359Y261752D02*X212641D01*
Y255248D01*
X218359D01*
Y261752D01*
G37*
G36*
X225445D02*X219727D01*
Y255248D01*
X225445D01*
Y261752D01*
G37*
M02*
