G04 start of page 2 for group 1 layer_idx 8 *
G04 Title: (unknown), top_silk *
G04 Creator: pcb-rnd 2.3.2 *
G04 CreationDate: 2021-05-11 20:53:27 UTC *
G04 For:  *
G04 Format: Gerber/RS-274X *
G04 PCB-Dimensions: 455000 500000 *
G04 PCB-Coordinate-Origin: lower left *
%MOIN*%
%FSLAX25Y25*%
%LNTOP_SILK_NONE_1*%
%ADD20C,0.0070*%
%ADD19C,0.0100*%
G54D19*X417000Y296500D02*X358000D01*
X220000Y268000D02*Y225000D01*
X97000Y268000D02*X220000D01*
X197819D02*X97000D01*
X120048Y230500D02*X130048Y240500D01*
Y230500D02*X120048Y240500D01*
X247000Y198000D02*X250000D01*
X249500Y141500D02*X246940D01*
X249500Y125250D02*Y157750D01*
X272500Y289500D02*Y33500D01*
X417500Y296500D02*X414000Y293000D01*
X417500Y296500D02*X414000Y300000D01*
X385700Y152300D02*Y130700D01*
X370000Y146500D02*Y136500D01*
X365000Y141500D02*X375000D01*
X309000Y33500D02*Y289500D01*
X427000D02*Y33500D01*
X309000D01*
X250000Y85000D02*Y198000D01*
X309000Y289500D02*X427000D01*
X40500D02*X272500D01*
X195000Y193000D02*X185000Y203000D01*
X249500Y157750D02*X216000D01*
Y125250D02*X249500D01*
X185000Y193000D02*X195000Y203000D01*
X120048Y155500D02*X130048Y165500D01*
Y155500D02*X120048Y165500D01*
X97000Y55000D02*Y97000D01*
Y55000D02*X220000D01*
X216000Y157750D02*Y125250D01*
X272500Y33500D02*X40500D01*
X63000Y124000D02*Y237000D01*
X67000D02*X63000D01*
X70000Y124000D02*X63000D01*
X40500Y289500D02*Y33500D01*
X220000Y225000D02*G75*G03X247000Y198000I27000J0D01*G01*
X70000Y124000D02*G75*G02X97000Y97000I0J-27000D01*G01*
X211150Y198000D02*G75*G02X168850Y198000I-21150J0D01*G01*
G75*G02X211150Y198000I21150J0D01*G01*
X146198Y235500D02*G75*G02X103898Y235500I-21150J0D01*G01*
G75*G02X146198Y235500I21150J0D01*G01*
Y160500D02*G75*G02X103898Y160500I-21150J0D01*G01*
G75*G02X146198Y160500I21150J0D01*G01*
X220000Y55000D02*G75*G02X250000Y85000I30000J0D01*G01*
X370000Y160600D02*G75*G02X370000Y122400I0J-19100D01*G01*
G75*G02X370000Y160600I0J19100D01*G01*
X97000Y267000D02*G75*G02X67000Y237000I-30000J0D01*G01*
X97250Y77000D02*G75*G03X140750Y77000I21750J0D01*G01*
G75*G03X97250Y77000I-21750J0D01*G01*
X136750Y107000D02*G75*G03X180250Y107000I21750J0D01*G01*
G75*G03X136750Y107000I-21750J0D01*G01*
X176250Y77000D02*G75*G03X219750Y77000I21750J0D01*G01*
G75*G03X176250Y77000I-21750J0D01*G01*
G54D20*X159500Y201000D02*X159000Y200500D01*
X159500Y202500D02*Y201000D01*
X159000Y203000D02*X159500Y202500D01*
X159000Y203000D02*X156000D01*
X155500Y202500D01*
Y201000D01*
X156000Y200500D01*
X157000D02*X156000D01*
X157500Y201000D02*X157000Y200500D01*
X157500Y202000D02*Y201000D01*
X159500Y199300D02*X155500D01*
X159500D02*X155500Y196800D01*
X159500D02*X155500D01*
X159500Y195100D02*X155500D01*
X159500Y193800D02*X158800Y193100D01*
X156200D01*
X155500Y193800D02*X156200Y193100D01*
X155500Y195600D02*Y193800D01*
X159500Y195600D02*Y193800D01*
X92500Y236500D02*Y234500D01*
X92000Y160500D02*X94000D01*
X93000Y161500D02*Y159500D01*
X384500Y305000D02*Y301500D01*
X385000Y301000D01*
X386000D01*
X386500Y301500D01*
Y305000D02*Y301500D01*
X388200Y305000D02*Y301000D01*
X387700Y305000D02*X389700D01*
X390200Y304500D01*
Y303500D01*
X389700Y303000D02*X390200Y303500D01*
X388200Y303000D02*X389700D01*
X118000Y108100D02*X120000D01*
X119000Y109100D02*Y107100D01*
X198000D02*Y109100D01*
X160500Y75200D02*X160000Y74700D01*
X160500Y76700D02*Y75200D01*
X160000Y77200D02*X160500Y76700D01*
X160000Y77200D02*X157000D01*
X156500Y76700D01*
Y75200D01*
X157000Y74700D01*
X158000D02*X157000D01*
X158500Y75200D02*X158000Y74700D01*
X158500Y76200D02*Y75200D01*
X160500Y73500D02*X156500D01*
X160500D02*X156500Y71000D01*
X160500D02*X156500D01*
X160500Y69300D02*X156500D01*
X160500Y68000D02*X159800Y67300D01*
X157200D01*
X156500Y68000D02*X157200Y67300D01*
X156500Y69800D02*Y68000D01*
X160500Y69800D02*Y68000D01*
M02*
