G04 start of page 2 for group 3 layer_idx 0 *
G04 Title: (unknown), top_copper *
G04 Creator: pcb-rnd 2.3.0 *
G04 CreationDate: 2021-04-07 01:17:26 UTC *
G04 For:  *
G04 Format: Gerber/RS-274X *
G04 PCB-Dimensions: 525000 770000 *
G04 PCB-Coordinate-Origin: lower left *
%MOIN*%
%FSLAX25Y25*%
%LNTOP_COPPER_NONE_3*%
%ADD20C,0.0400*%
%ADD19C,0.1160*%
%ADD18C,0.0846*%
%ADD17C,0.2500*%
%ADD16C,0.0001*%
%ADD15C,0.2700*%
%ADD14C,0.2028*%
%ADD13C,0.2805*%
%ADD12C,0.0800*%
%ADD11C,0.0100*%
G54D11*X58500Y234500D02*X181500D01*
X24500Y90500D02*Y203500D01*
X31500Y90500D02*X24500D01*
X58500Y234500D02*Y233500D01*
X28500Y203500D02*X24500D01*
X181500Y234500D02*Y191500D01*
Y21500D02*X58500D01*
Y63500D02*Y21500D01*
X211500Y51500D02*Y164500D01*
X208500D02*X211500D01*
X283500Y92000D02*Y205000D01*
X290500Y92000D02*X283500D01*
X287500Y205000D02*X283500D01*
X356500Y551000D02*X479500D01*
X322500Y407000D02*Y520000D01*
X329500Y407000D02*X322500D01*
X356500Y551000D02*Y550000D01*
X326500Y520000D02*X322500D01*
X479500Y551000D02*Y508000D01*
Y338000D02*X356500D01*
Y380000D02*Y338000D01*
X509500Y368000D02*Y481000D01*
X506500D02*X509500D01*
X317500Y236000D02*X440500D01*
X317500D02*Y235000D01*
X440500Y236000D02*Y193000D01*
G54D12*X402500Y184500D02*X385000Y202000D01*
X351500D01*
G54D11*X470500Y53000D02*Y166000D01*
X467500D02*X470500D01*
G54D12*X402500Y102000D02*Y184500D01*
G54D11*X440500Y23000D02*X317500D01*
Y65000D02*Y23000D01*
G54D12*X402500Y92000D02*X389000D01*
X351500Y129500D01*
Y57000D02*X377500D01*
X402500Y82000D01*
G54D11*X31500Y90500D02*G75*G02X58500Y63500I0J-27000D01*G01*
Y233500D02*G75*G02X28500Y203500I-30000J0D01*G01*
X181500Y191500D02*G75*G03X208500Y164500I27000J0D01*G01*
X317500Y235000D02*G75*G02X287500Y205000I-30000J0D01*G01*
X181500Y21500D02*G75*G02X211500Y51500I30000J0D01*G01*
X290500Y92000D02*G75*G02X317500Y65000I0J-27000D01*G01*
X440500Y23000D02*G75*G02X470500Y53000I30000J0D01*G01*
X440500Y193000D02*G75*G03X467500Y166000I27000J0D01*G01*
X329500Y407000D02*G75*G02X356500Y380000I0J-27000D01*G01*
X479500Y338000D02*G75*G02X509500Y368000I30000J0D01*G01*
X479500Y508000D02*G75*G03X506500Y481000I27000J0D01*G01*
X356500Y550000D02*G75*G02X326500Y520000I-30000J0D01*G01*
G54D13*X72500Y670000D03*
X147500D03*
X222500D03*
G54D14*X220500Y291000D03*
X92500Y55500D03*
Y200500D03*
Y128000D03*
G54D15*X321000Y93000D03*
G54D16*G36*
X406500Y106000D02*Y98000D01*
X398500D01*
Y106000D01*
X406500D01*
G37*
G54D12*X402500Y92000D03*
Y82000D03*
G54D15*X382000Y165500D03*
G54D14*X78500Y287000D03*
X351500Y202000D03*
Y129500D03*
Y57000D03*
G54D17*G54D18*G54D19*G54D20*G54D19*G54D18*M02*
