G04 start of page 2 for group 12 layer_idx 7 *
G04 Title: (unknown), bottom_silk *
G04 Creator: pcb-rnd 2.3.0 *
G04 CreationDate: 2021-04-07 01:17:26 UTC *
G04 For:  *
G04 Format: Gerber/RS-274X *
G04 PCB-Dimensions: 525000 770000 *
G04 PCB-Coordinate-Origin: lower left *
%MOIN*%
%FSLAX25Y25*%
%LNBOTTOM_SILK_NONE_12*%
%ADD52C,0.0070*%
%ADD51C,0.0100*%
G54D51*X390300Y107000D02*Y77000D01*
X396300Y102000D02*X390300D01*
Y107000D02*X415300D01*
Y77000D01*
X396300Y102000D02*Y82000D01*
X390300D01*
Y77000D02*X415300D01*
G54D52*X388500Y105300D02*Y104000D01*
X387800Y106000D02*X388500Y105300D01*
X385200Y106000D02*X387800D01*
X385200D02*X384500Y105300D01*
Y104000D01*
X385000Y102800D02*X388000D01*
X385000D02*X384500Y102300D01*
Y101300D01*
X385000Y100800D01*
X388000D01*
X388500Y101300D02*X388000Y100800D01*
X388500Y102300D02*Y101300D01*
X388000Y102800D02*X388500Y102300D01*
X384500Y99600D02*X388500D01*
X384500D02*X388500Y97100D01*
X384500D02*X388500D01*
X384500Y95900D02*X388500D01*
X384500D02*X388500Y93400D01*
X384500D02*X388500D01*
X385000Y92200D02*X384500Y91700D01*
Y90200D01*
X385000Y89700D01*
X386000D01*
X388500Y92200D02*X386000Y89700D01*
X388500Y92200D02*Y89700D01*
X388000Y88500D02*X388500Y88000D01*
X385000Y88500D02*X388000D01*
X385000D02*X384500Y88000D01*
Y87000D01*
X385000Y86500D01*
X388000D01*
X388500Y87000D02*X388000Y86500D01*
X388500Y88000D02*Y87000D01*
X387500Y88500D02*X385500Y86500D01*
X388000Y85300D02*X388500Y84800D01*
X385000Y85300D02*X388000D01*
X385000D02*X384500Y84800D01*
Y83800D01*
X385000Y83300D01*
X388000D01*
X388500Y83800D02*X388000Y83300D01*
X388500Y84800D02*Y83800D01*
X387500Y85300D02*X385500Y83300D01*
M02*
