G04 start of page 2 for group 16 layer_idx 15 *
G04 Title: (unknown), top_assy *
G04 Creator: pcb-rnd 2.3.0 *
G04 CreationDate: 2021-04-09 19:11:40 UTC *
G04 For:  *
G04 Format: Gerber/RS-274X *
G04 PCB-Dimensions: 525000 770000 *
G04 PCB-Coordinate-Origin: lower left *
%MOIN*%
%FSLAX25Y25*%
%LNTOP_DOC_ASSY_16*%
%ADD36C,0.0100*%
G54D36*X67000Y507000D02*X63000D01*
X31500Y736500D02*X281500D01*
X31500Y596500D02*Y736500D01*
X97000Y537000D02*Y538000D01*
X281500Y736500D02*Y596500D01*
X31500D01*
Y716500D02*X281500D01*
X40500Y559500D02*X272500D01*
X67000Y507000D02*X63000D01*
X97000Y538000D02*X220000D01*
X63000Y394000D02*Y507000D01*
X195000Y463000D02*X185000Y473000D01*
Y463000D02*X195000Y473000D01*
X130048Y425500D02*X120048Y435500D01*
Y425500D02*X130048Y435500D01*
Y500500D02*X120048Y510500D01*
Y500500D02*X130048Y510500D01*
X249500Y395250D02*Y427750D01*
X216000D01*
Y395250D02*X249500D01*
Y411500D02*X246940D01*
X216000Y427750D02*Y395250D01*
X220000Y538000D02*Y495000D01*
X197819Y538000D02*X97000D01*
X63000Y507000D02*Y394000D01*
X70000D02*X63000D01*
X97000Y325000D02*X220000D01*
X40500Y559500D02*Y303500D01*
X70000Y394000D02*X63000D01*
X97000Y325000D02*Y367000D01*
X247000Y468000D02*X250000D01*
X272500Y559500D02*Y303500D01*
X250000Y355000D02*Y468000D01*
X272500Y303500D02*X40500D01*
X70000Y394000D02*G75*G02X97000Y367000I0J-27000D01*G01*
Y537000D02*G75*G02X67000Y507000I-30000J0D01*G01*
X146198Y505500D02*G75*G02X103898Y505500I-21150J0D01*G01*
G75*G02X146198Y505500I21150J0D01*G01*
X97000Y537000D02*G75*G02X67000Y507000I-30000J0D01*G01*
X211150Y468000D02*G75*G02X168850Y468000I-21150J0D01*G01*
G75*G02X211150Y468000I21150J0D01*G01*
X146198Y430500D02*G75*G02X103898Y430500I-21150J0D01*G01*
G75*G02X146198Y430500I21150J0D01*G01*
X70000Y394000D02*G75*G02X97000Y367000I0J-27000D01*G01*
X104500Y372000D02*G75*G02X134500Y372000I15000J0D01*G01*
G75*G02X104500Y372000I-15000J0D01*G01*
X141500D02*G75*G02X171500Y372000I15000J0D01*G01*
G75*G02X141500Y372000I-15000J0D01*G01*
X178500D02*G75*G02X208500Y372000I15000J0D01*G01*
G75*G02X178500Y372000I-15000J0D01*G01*
X220000Y325000D02*G75*G02X250000Y355000I30000J0D01*G01*
X220000Y495000D02*G75*G03X247000Y468000I27000J0D01*G01*
M02*
