G04 start of page 2 for group 1 layer_idx 8 *
G04 Title: (unknown), top_silk *
G04 Creator: pcb-rnd 2.3.0 *
G04 CreationDate: 2021-04-09 19:11:39 UTC *
G04 For:  *
G04 Format: Gerber/RS-274X *
G04 PCB-Dimensions: 525000 770000 *
G04 PCB-Coordinate-Origin: lower left *
%MOIN*%
%FSLAX25Y25*%
%LNTOP_SILK_NONE_1*%
%ADD29C,0.0070*%
%ADD28C,0.0100*%
G54D28*X104500Y372000D02*G75*G02X134500Y372000I15000J0D01*G01*
G75*G02X104500Y372000I-15000J0D01*G01*
X141500D02*G75*G02X171500Y372000I15000J0D01*G01*
G75*G02X141500Y372000I-15000J0D01*G01*
X178500D02*G75*G02X208500Y372000I15000J0D01*G01*
G75*G02X178500Y372000I-15000J0D01*G01*
G54D29*X112700Y355500D02*Y354000D01*
X110500Y355500D02*Y353500D01*
X114500Y355500D02*X110500D01*
X114500D02*Y353500D01*
X112500Y352300D02*X110500Y351300D01*
X112500Y350300D02*X110500Y351300D01*
X112500Y347600D02*X112000Y347100D01*
X112500Y348600D02*Y347600D01*
X112000Y349100D02*X112500Y348600D01*
X112000Y349100D02*X111000D01*
X110500Y348600D01*
X112500Y347100D02*X111000D01*
X110500Y346600D01*
Y348600D02*Y347600D01*
X111000Y347100D01*
X112000Y344900D02*X110500D01*
X112000D02*X112500Y344400D01*
Y343900D01*
X112000Y343400D01*
X110500D01*
X112500Y345400D02*X112000Y344900D01*
X114500Y340400D02*X110500D01*
X114500D02*Y338400D01*
X112700Y340400D02*Y338900D01*
X112000Y337200D02*X111000D01*
X112000D02*X112500Y336700D01*
Y335700D01*
X112000Y335200D01*
X111000D01*
X110500Y335700D02*X111000Y335200D01*
X110500Y336700D02*Y335700D01*
X111000Y337200D02*X110500Y336700D01*
Y333500D02*Y332000D01*
X111000Y331500D01*
X111500Y332000D02*X111000Y331500D01*
X111500Y333500D02*Y332000D01*
X112000Y334000D02*X111500Y333500D01*
X112000Y334000D02*X112500Y333500D01*
Y332000D01*
X112000Y331500D01*
X111000Y334000D02*X110500Y333500D01*
Y329800D02*Y328300D01*
X111000Y327800D01*
X111500Y328300D02*X111000Y327800D01*
X111500Y329800D02*Y328300D01*
X112000Y330300D02*X111500Y329800D01*
X112000Y330300D02*X112500Y329800D01*
Y328300D01*
X112000Y327800D01*
X111000Y330300D02*X110500Y329800D01*
X120000Y355500D02*X120500Y355000D01*
Y353500D01*
X120000Y353000D01*
X119000D01*
X116500Y355500D02*X119000Y353000D01*
X116500Y355500D02*Y353000D01*
X117000Y351800D02*X116500Y351300D01*
X120000Y351800D02*X117000D01*
X120000D02*X120500Y351300D01*
Y350300D01*
X120000Y349800D01*
X117000D01*
X116500Y350300D02*X117000Y349800D01*
X116500Y351300D02*Y350300D01*
X117500Y351800D02*X119500Y349800D01*
X120000Y348600D02*X120500Y348100D01*
Y346600D01*
X120000Y346100D01*
X119000D01*
X116500Y348600D02*X119000Y346100D01*
X116500Y348600D02*Y346100D01*
X119700Y344900D02*X120500Y344100D01*
X116500D01*
Y344900D02*Y343400D01*
Y342200D02*Y341700D01*
X117000Y340500D02*X116500Y340000D01*
X120000Y340500D02*X117000D01*
X120000D02*X120500Y340000D01*
Y339000D01*
X120000Y338500D01*
X117000D01*
X116500Y339000D02*X117000Y338500D01*
X116500Y340000D02*Y339000D01*
X117500Y340500D02*X119500Y338500D01*
X118000Y337300D02*X120500Y335300D01*
X118000Y337300D02*Y334800D01*
X120500Y335300D02*X116500D01*
Y333600D02*Y333100D01*
X117000Y331900D02*X116500Y331400D01*
X120000Y331900D02*X117000D01*
X120000D02*X120500Y331400D01*
Y330400D01*
X120000Y329900D01*
X117000D01*
X116500Y330400D02*X117000Y329900D01*
X116500Y331400D02*Y330400D01*
X117500Y331900D02*X119500Y329900D01*
X116500Y328200D02*X118500Y326700D01*
X120000D02*X118500D01*
X120500Y327200D02*X120000Y326700D01*
X120500Y328200D02*Y327200D01*
X120000Y328700D02*X120500Y328200D01*
X120000Y328700D02*X119000D01*
X118500Y328200D01*
Y326700D01*
X197000Y355500D02*X194000D01*
X197000D02*X198000Y354800D01*
Y353700D01*
X197000Y353000D01*
X194000D01*
X196000Y355500D02*Y353000D01*
X198000Y349800D02*X194000D01*
Y350300D02*X194500Y349800D01*
X194000Y351300D02*Y350300D01*
X194500Y351800D02*X194000Y351300D01*
X195500Y351800D02*X194500D01*
X195500D02*X196000Y351300D01*
Y350300D01*
X195500Y349800D01*
X196000Y347100D02*X195500Y346600D01*
X196000Y348100D02*Y347100D01*
X195500Y348600D02*X196000Y348100D01*
X195500Y348600D02*X194500D01*
X194000Y348100D01*
X196000Y346600D02*X194500D01*
X194000Y346100D01*
Y348100D02*Y347100D01*
X194500Y346600D01*
X195500Y344400D02*X192500D01*
X196000Y344900D02*X195500Y344400D01*
X196000Y343900D01*
Y342900D01*
X195500Y342400D01*
X194500D01*
X194000Y342900D02*X194500Y342400D01*
X194000Y343900D02*Y342900D01*
X194500Y344400D02*X194000Y343900D01*
X198000Y340700D02*X194500D01*
X194000Y340200D01*
X196500Y341200D02*Y340200D01*
X194000Y338700D02*Y337200D01*
X194500Y339200D02*X194000Y338700D01*
X195500Y339200D02*X194500D01*
X195500D02*X196000Y338700D01*
Y337700D01*
X195500Y337200D01*
X195000Y339200D02*Y337200D01*
X195500D01*
Y335500D02*X194000D01*
X195500D02*X196000Y335000D01*
Y334000D01*
Y336000D02*X195500Y335500D01*
X113500Y392000D02*Y388000D01*
X113000Y392000D02*X115000D01*
X115500Y391500D01*
Y390500D01*
X115000Y390000D02*X115500Y390500D01*
X113500Y390000D02*X115000D01*
X116700Y392000D02*Y388000D01*
X118700D01*
X119900Y392000D02*Y388500D01*
X120400Y388000D01*
X121400D01*
X121900Y388500D01*
Y392000D02*Y388500D01*
X125100Y392000D02*X125600Y391500D01*
X123600Y392000D02*X125100D01*
X123100Y391500D02*X123600Y392000D01*
X123100Y391500D02*Y390500D01*
X123600Y390000D01*
X125100D01*
X125600Y389500D01*
Y388500D01*
X125100Y388000D02*X125600Y388500D01*
X123600Y388000D02*X125100D01*
X123100Y388500D02*X123600Y388000D01*
X204000Y353500D02*X203500Y353000D01*
X204000Y355000D02*Y353500D01*
X203500Y355500D02*X204000Y355000D01*
X203500Y355500D02*X202500D01*
X202000Y355000D01*
Y353500D01*
X201500Y353000D01*
X200500D01*
X200000Y353500D02*X200500Y353000D01*
X200000Y355000D02*Y353500D01*
X200500Y355500D02*X200000Y355000D01*
X202000Y350300D02*X201500Y349800D01*
X202000Y351300D02*Y350300D01*
X201500Y351800D02*X202000Y351300D01*
X201500Y351800D02*X200500D01*
X200000Y351300D01*
X202000Y349800D02*X200500D01*
X200000Y349300D01*
Y351300D02*Y350300D01*
X200500Y349800D01*
X203500Y347600D02*X200000D01*
X203500D02*X204000Y347100D01*
Y346600D01*
X202000Y348100D02*Y347100D01*
X200000Y345100D02*Y343600D01*
X200500Y345600D02*X200000Y345100D01*
X201500Y345600D02*X200500D01*
X201500D02*X202000Y345100D01*
Y344100D01*
X201500Y343600D01*
X201000Y345600D02*Y343600D01*
X201500D01*
X204000Y342400D02*X200500D01*
X200000Y341900D01*
Y340400D02*Y338900D01*
X200500Y340900D02*X200000Y340400D01*
X201500Y340900D02*X200500D01*
X201500D02*X202000Y340400D01*
Y339400D01*
X201500Y338900D01*
X201000Y340900D02*Y338900D01*
X201500D01*
X202000Y336200D02*X201500Y335700D01*
X202000Y337200D02*Y336200D01*
X201500Y337700D02*X202000Y337200D01*
X201500Y337700D02*X200500D01*
X200000Y337200D01*
X202000Y335700D02*X200500D01*
X200000Y335200D01*
Y337200D02*Y336200D01*
X200500Y335700D01*
X204000Y332000D02*X200000D01*
Y332500D02*X200500Y332000D01*
X200000Y333500D02*Y332500D01*
X200500Y334000D02*X200000Y333500D01*
X201500Y334000D02*X200500D01*
X201500D02*X202000Y333500D01*
Y332500D01*
X201500Y332000D01*
X214200Y355500D02*Y354000D01*
X212000Y355500D02*Y353500D01*
X216000Y355500D02*X212000D01*
X216000D02*Y353500D01*
Y351800D02*X212000D01*
X216000Y352300D02*Y350300D01*
X215500Y349800D01*
X214500D01*
X214000Y350300D02*X214500Y349800D01*
X214000Y351800D02*Y350300D01*
X216000Y348600D02*X212000D01*
Y346600D01*
X206000Y355500D02*Y353500D01*
X206500Y353000D01*
X207700D02*X206500D01*
X208200Y353500D02*X207700Y353000D01*
X208200Y355000D02*Y353500D01*
X210000Y355000D02*X206000D01*
X210000Y355500D02*Y353500D01*
X209500Y353000D01*
X208700D01*
X208200Y353500D02*X208700Y353000D01*
X209000Y351800D02*X208900D01*
X207500D02*X206000D01*
X207500Y350800D02*X206500D01*
X207500D02*X208000Y350300D01*
Y349300D01*
X207500Y348800D01*
X206500D01*
X206000Y349300D02*X206500Y348800D01*
X206000Y350300D02*Y349300D01*
X206500Y350800D02*X206000Y350300D01*
X209000Y347600D02*X206000D01*
X209000D02*X210000Y346900D01*
Y345800D01*
X209000Y345100D01*
X206000D01*
X208000Y347600D02*Y345100D01*
X207500Y343400D02*X206000D01*
X207500D02*X208000Y342900D01*
Y342400D01*
X207500Y341900D01*
X206000D01*
X207500D02*X208000Y341400D01*
Y340900D01*
X207500Y340400D01*
X206000D01*
X208000Y343900D02*X207500Y343400D01*
Y338700D02*X204500D01*
X208000Y339200D02*X207500Y338700D01*
X208000Y338200D01*
Y337200D01*
X207500Y336700D01*
X206500D01*
X206000Y337200D02*X206500Y336700D01*
X206000Y338200D02*Y337200D01*
X206500Y338700D02*X206000Y338200D01*
X145200Y389000D02*X146500D01*
X144500Y389700D02*X145200Y389000D01*
X144500Y392300D02*Y389700D01*
Y392300D02*X145200Y393000D01*
X146500D01*
X147700D02*Y389000D01*
X150200Y393000D02*Y389000D01*
X147700Y391000D02*X150200D01*
X151400Y392000D02*Y389000D01*
Y392000D02*X152100Y393000D01*
X153200D01*
X153900Y392000D01*
Y389000D01*
X151400Y391000D02*X153900D01*
X157100Y393000D02*X157600Y392500D01*
X155600Y393000D02*X157100D01*
X155100Y392500D02*X155600Y393000D01*
X155100Y392500D02*Y391500D01*
X155600Y391000D01*
X157100D01*
X157600Y390500D01*
Y389500D01*
X157100Y389000D02*X157600Y389500D01*
X155600Y389000D02*X157100D01*
X155100Y389500D02*X155600Y389000D01*
X160800Y393000D02*X161300Y392500D01*
X159300Y393000D02*X160800D01*
X158800Y392500D02*X159300Y393000D01*
X158800Y392500D02*Y391500D01*
X159300Y391000D01*
X160800D01*
X161300Y390500D01*
Y389500D01*
X160800Y389000D02*X161300Y389500D01*
X159300Y389000D02*X160800D01*
X158800Y389500D02*X159300Y389000D01*
X162500Y393000D02*X163500D01*
X163000D02*Y389000D01*
X162500D02*X163500D01*
X166700Y393000D02*X167200Y392500D01*
X165200Y393000D02*X166700D01*
X164700Y392500D02*X165200Y393000D01*
X164700Y392500D02*Y391500D01*
X165200Y391000D01*
X166700D01*
X167200Y390500D01*
Y389500D01*
X166700Y389000D02*X167200Y389500D01*
X165200Y389000D02*X166700D01*
X164700Y389500D02*X165200Y389000D01*
X185500Y392000D02*Y388000D01*
Y392000D02*X187000Y390000D01*
X188500Y392000D01*
Y388000D01*
X189700Y392000D02*X190700D01*
X190200D02*Y388000D01*
X189700D02*X190700D01*
X191900Y392000D02*Y388000D01*
Y392000D02*X194400Y388000D01*
Y392000D02*Y388000D01*
X195600Y392000D02*Y388500D01*
X196100Y388000D01*
X197100D01*
X197600Y388500D01*
Y392000D02*Y388500D01*
X200800Y392000D02*X201300Y391500D01*
X199300Y392000D02*X200800D01*
X198800Y391500D02*X199300Y392000D01*
X198800Y391500D02*Y390500D01*
X199300Y390000D01*
X200800D01*
X201300Y389500D01*
Y388500D01*
X200800Y388000D02*X201300Y388500D01*
X199300Y388000D02*X200800D01*
X198800Y388500D02*X199300Y388000D01*
M02*
