G04 start of page 2 for group 18 layer_idx 17 *
G04 Title: (unknown), fab *
G04 Creator: pcb-rnd 2.3.0 *
G04 CreationDate: 2021-04-09 17:13:12 UTC *
G04 For:  *
G04 Format: Gerber/RS-274X *
G04 PCB-Dimensions: 525000 770000 *
G04 PCB-Coordinate-Origin: lower left *
%MOIN*%
%FSLAX25Y25*%
%LNTOP_DOC_FAB_18*%
%ADD39C,0.0100*%
%ADD38C,0.0075*%
%ADD37C,0.0060*%
%ADD36C,0.0080*%
G54D36*X175000Y343600D02*Y340400D01*
X173400Y342000D02*X176600D01*
X138000Y343600D02*Y340400D01*
X136400Y342000D02*X139600D01*
X15000Y812850D02*Y809650D01*
X13400Y811250D02*X16600D01*
G54D37*X135000Y813500D02*X136500Y810500D01*
X138000Y813500D01*
X136500Y810500D02*Y807500D01*
X139800Y810800D02*X142050D01*
X139800Y807500D02*X142800D01*
X139800Y813500D02*Y807500D01*
Y813500D02*X142800D01*
X147600D02*X148350Y812750D01*
X145350Y813500D02*X147600D01*
X144600Y812750D02*X145350Y813500D01*
X144600Y812750D02*Y811250D01*
X145350Y810500D01*
X147600D01*
X148350Y809750D01*
Y808250D01*
X147600Y807500D02*X148350Y808250D01*
X145350Y807500D02*X147600D01*
X144600Y808250D02*X145350Y807500D01*
X98000Y812750D02*X98750Y813500D01*
X101000D01*
X101750Y812750D01*
Y811250D01*
X98000Y807500D02*X101750Y811250D01*
X98000Y807500D02*X101750D01*
X45000Y808250D02*X45750Y807500D01*
X45000Y812750D02*Y808250D01*
Y812750D02*X45750Y813500D01*
X47250D01*
X48000Y812750D01*
Y808250D01*
X47250Y807500D02*X48000Y808250D01*
X45750Y807500D02*X47250D01*
X45000Y809000D02*X48000Y812000D01*
X49800Y807500D02*X50550D01*
X52350Y812300D02*X53550Y813500D01*
Y807500D01*
X52350D02*X54600D01*
X56400Y812300D02*X57600Y813500D01*
Y807500D01*
X56400D02*X58650D01*
X62700Y813500D02*X63450Y812750D01*
X61200Y813500D02*X62700D01*
X60450Y812750D02*X61200Y813500D01*
X60450Y812750D02*Y808250D01*
X61200Y807500D01*
X62700Y810800D02*X63450Y810050D01*
X60450Y810800D02*X62700D01*
X61200Y807500D02*X62700D01*
X63450Y808250D01*
Y810050D02*Y808250D01*
X119500Y372000D02*Y370400D01*
Y372000D02*X120887Y372800D01*
X119500Y372000D02*X118113Y372800D01*
X156500Y372000D02*Y370400D01*
Y372000D02*X157887Y372800D01*
X156500Y372000D02*X155113Y372800D01*
X193500Y372000D02*Y370400D01*
Y372000D02*X194887Y372800D01*
X193500Y372000D02*X192113Y372800D01*
X15000Y826250D02*Y824650D01*
Y826250D02*X16387Y827050D01*
X15000Y826250D02*X13613Y827050D01*
X135000Y828500D02*X136500Y825500D01*
X138000Y828500D01*
X136500Y825500D02*Y822500D01*
X139800Y825800D02*X142050D01*
X139800Y822500D02*X142800D01*
X139800Y828500D02*Y822500D01*
Y828500D02*X142800D01*
X147600D02*X148350Y827750D01*
X145350Y828500D02*X147600D01*
X144600Y827750D02*X145350Y828500D01*
X144600Y827750D02*Y826250D01*
X145350Y825500D01*
X147600D01*
X148350Y824750D01*
Y823250D01*
X147600Y822500D02*X148350Y823250D01*
X145350Y822500D02*X147600D01*
X144600Y823250D02*X145350Y822500D01*
X98000Y827750D02*X98750Y828500D01*
X100250D01*
X101000Y827750D01*
X100250Y822500D02*X101000Y823250D01*
X98750Y822500D02*X100250D01*
X98000Y823250D02*X98750Y822500D01*
Y825800D02*X100250D01*
X101000Y827750D02*Y826550D01*
Y825050D02*Y823250D01*
Y825050D02*X100250Y825800D01*
X101000Y826550D02*X100250Y825800D01*
X45000Y823250D02*X45750Y822500D01*
X45000Y827750D02*Y823250D01*
Y827750D02*X45750Y828500D01*
X47250D01*
X48000Y827750D01*
Y823250D01*
X47250Y822500D02*X48000Y823250D01*
X45750Y822500D02*X47250D01*
X45000Y824000D02*X48000Y827000D01*
X49800Y822500D02*X50550D01*
X52350Y823250D02*X53100Y822500D01*
X52350Y827750D02*Y823250D01*
Y827750D02*X53100Y828500D01*
X54600D01*
X55350Y827750D01*
Y823250D01*
X54600Y822500D02*X55350Y823250D01*
X53100Y822500D02*X54600D01*
X52350Y824000D02*X55350Y827000D01*
X57150Y823250D02*X57900Y822500D01*
X57150Y824450D02*Y823250D01*
Y824450D02*X58200Y825500D01*
X59100D01*
X60150Y824450D01*
Y823250D01*
X59400Y822500D02*X60150Y823250D01*
X57900Y822500D02*X59400D01*
X57150Y826550D02*X58200Y825500D01*
X57150Y827750D02*Y826550D01*
Y827750D02*X57900Y828500D01*
X59400D01*
X60150Y827750D01*
Y826550D01*
X59100Y825500D02*X60150Y826550D01*
X61950Y828500D02*X64950D01*
X61950D02*Y825500D01*
X62700Y826250D01*
X64200D01*
X64950Y825500D01*
Y823250D01*
X64200Y822500D02*X64950Y823250D01*
X62700Y822500D02*X64200D01*
X61950Y823250D02*X62700Y822500D01*
X3000Y843500D02*X3750Y842750D01*
X750Y843500D02*X3000D01*
X0Y842750D02*X750Y843500D01*
X0Y842750D02*Y841250D01*
X750Y840500D01*
X3000D01*
X3750Y839750D01*
Y838250D01*
X3000Y837500D02*X3750Y838250D01*
X750Y837500D02*X3000D01*
X0Y838250D02*X750Y837500D01*
X5550Y840500D02*Y838250D01*
X6300Y837500D01*
X8550Y840500D02*Y836000D01*
X7800Y835250D02*X8550Y836000D01*
X6300Y835250D02*X7800D01*
X5550Y836000D02*X6300Y835250D01*
Y837500D02*X7800D01*
X8550Y838250D01*
X11100Y839750D02*Y837500D01*
Y839750D02*X11850Y840500D01*
X12600D01*
X13350Y839750D01*
Y837500D01*
Y839750D02*X14100Y840500D01*
X14850D01*
X15600Y839750D01*
Y837500D01*
X10350Y840500D02*X11100Y839750D01*
X17400Y843500D02*Y837500D01*
Y838250D02*X18150Y837500D01*
X19650D01*
X20400Y838250D01*
Y839750D02*Y838250D01*
X19650Y840500D02*X20400Y839750D01*
X18150Y840500D02*X19650D01*
X17400Y839750D02*X18150Y840500D01*
X22200Y839750D02*Y838250D01*
Y839750D02*X22950Y840500D01*
X24450D01*
X25200Y839750D01*
Y838250D01*
X24450Y837500D02*X25200Y838250D01*
X22950Y837500D02*X24450D01*
X22200Y838250D02*X22950Y837500D01*
X27000Y843500D02*Y838250D01*
X27750Y837500D01*
X0Y835750D02*X29250D01*
X41750Y843500D02*Y837500D01*
X43700Y843500D02*X44750Y842450D01*
Y838550D01*
X43700Y837500D02*X44750Y838550D01*
X41000Y837500D02*X43700D01*
X41000Y843500D02*X43700D01*
G54D38*X46550Y842000D02*Y841850D01*
G54D37*Y839750D02*Y837500D01*
X50300Y840500D02*X51050Y839750D01*
X48800Y840500D02*X50300D01*
X48050Y839750D02*X48800Y840500D01*
X48050Y839750D02*Y838250D01*
X48800Y837500D01*
X51050Y840500D02*Y838250D01*
X51800Y837500D01*
X48800D02*X50300D01*
X51050Y838250D01*
X54350Y839750D02*Y837500D01*
Y839750D02*X55100Y840500D01*
X55850D01*
X56600Y839750D01*
Y837500D01*
Y839750D02*X57350Y840500D01*
X58100D01*
X58850Y839750D01*
Y837500D01*
X53600Y840500D02*X54350Y839750D01*
X60650Y837500D02*X61400D01*
X65900Y838250D02*X66650Y837500D01*
X65900Y842750D02*X66650Y843500D01*
X65900Y842750D02*Y838250D01*
X68450Y843500D02*X69950D01*
X69200D02*Y837500D01*
X68450D02*X69950D01*
X72500Y839750D02*Y837500D01*
Y839750D02*X73250Y840500D01*
X74000D01*
X74750Y839750D01*
Y837500D01*
X71750Y840500D02*X72500Y839750D01*
X77300Y840500D02*X79550D01*
X76550Y839750D02*X77300Y840500D01*
X76550Y839750D02*Y838250D01*
X77300Y837500D01*
X79550D01*
X81350Y843500D02*Y837500D01*
Y839750D02*X82100Y840500D01*
X83600D01*
X84350Y839750D01*
Y837500D01*
X86150Y843500D02*X86900Y842750D01*
Y838250D01*
X86150Y837500D02*X86900Y838250D01*
X41000Y835750D02*X88700D01*
X96050Y837500D02*X98000D01*
X95000Y838550D02*X96050Y837500D01*
X95000Y842450D02*Y838550D01*
Y842450D02*X96050Y843500D01*
X98000D01*
X99800Y839750D02*Y838250D01*
Y839750D02*X100550Y840500D01*
X102050D01*
X102800Y839750D01*
Y838250D01*
X102050Y837500D02*X102800Y838250D01*
X100550Y837500D02*X102050D01*
X99800Y838250D02*X100550Y837500D01*
X104600Y840500D02*Y838250D01*
X105350Y837500D01*
X106850D01*
X107600Y838250D01*
Y840500D02*Y838250D01*
X110150Y839750D02*Y837500D01*
Y839750D02*X110900Y840500D01*
X111650D01*
X112400Y839750D01*
Y837500D01*
X109400Y840500D02*X110150Y839750D01*
X114950Y843500D02*Y838250D01*
X115700Y837500D01*
X114200Y841250D02*X115700D01*
X95000Y835750D02*X117200D01*
X130750Y843500D02*Y837500D01*
X130000Y843500D02*X133000D01*
X133750Y842750D01*
Y841250D01*
X133000Y840500D02*X133750Y841250D01*
X130750Y840500D02*X133000D01*
X135550Y843500D02*Y838250D01*
X136300Y837500D01*
X140050Y840500D02*X140800Y839750D01*
X138550Y840500D02*X140050D01*
X137800Y839750D02*X138550Y840500D01*
X137800Y839750D02*Y838250D01*
X138550Y837500D01*
X140800Y840500D02*Y838250D01*
X141550Y837500D01*
X138550D02*X140050D01*
X140800Y838250D01*
X144100Y843500D02*Y838250D01*
X144850Y837500D01*
X143350Y841250D02*X144850D01*
X147100Y837500D02*X149350D01*
X146350Y838250D02*X147100Y837500D01*
X146350Y839750D02*Y838250D01*
Y839750D02*X147100Y840500D01*
X148600D01*
X149350Y839750D01*
X146350Y839000D02*X149350D01*
Y839750D01*
X154150Y843500D02*Y837500D01*
X153400D02*X154150Y838250D01*
X151900Y837500D02*X153400D01*
X151150Y838250D02*X151900Y837500D01*
X151150Y839750D02*Y838250D01*
Y839750D02*X151900Y840500D01*
X153400D01*
X154150Y839750D01*
X157450Y840500D02*Y839750D01*
Y838250D02*Y837500D01*
X155950Y842750D02*Y842000D01*
Y842750D02*X156700Y843500D01*
X158200D01*
X158950Y842750D01*
Y842000D01*
X157450Y840500D02*X158950Y842000D01*
X130000Y835750D02*X160750D01*
X0Y858500D02*X3000D01*
X1500D02*Y852500D01*
X4800Y858500D02*Y852500D01*
Y854750D02*X5550Y855500D01*
X7050D01*
X7800Y854750D01*
Y852500D01*
X10350D02*X12600D01*
X9600Y853250D02*X10350Y852500D01*
X9600Y854750D02*Y853250D01*
Y854750D02*X10350Y855500D01*
X11850D01*
X12600Y854750D01*
X9600Y854000D02*X12600D01*
Y854750D01*
X15150D02*Y852500D01*
Y854750D02*X15900Y855500D01*
X17400D01*
X14400D02*X15150Y854750D01*
X19950Y852500D02*X22200D01*
X19200Y853250D02*X19950Y852500D01*
X19200Y854750D02*Y853250D01*
Y854750D02*X19950Y855500D01*
X21450D01*
X22200Y854750D01*
X19200Y854000D02*X22200D01*
Y854750D01*
X28950Y855500D02*X29700Y854750D01*
X27450Y855500D02*X28950D01*
X26700Y854750D02*X27450Y855500D01*
X26700Y854750D02*Y853250D01*
X27450Y852500D01*
X29700Y855500D02*Y853250D01*
X30450Y852500D01*
X27450D02*X28950D01*
X29700Y853250D01*
X33000Y854750D02*Y852500D01*
Y854750D02*X33750Y855500D01*
X35250D01*
X32250D02*X33000Y854750D01*
X37800Y852500D02*X40050D01*
X37050Y853250D02*X37800Y852500D01*
X37050Y854750D02*Y853250D01*
Y854750D02*X37800Y855500D01*
X39300D01*
X40050Y854750D01*
X37050Y854000D02*X40050D01*
Y854750D01*
X44550Y857750D02*X45300Y858500D01*
X47550D01*
X48300Y857750D01*
Y856250D01*
X44550Y852500D02*X48300Y856250D01*
X44550Y852500D02*X48300D01*
X55800Y858500D02*Y852500D01*
X55050D02*X55800Y853250D01*
X53550Y852500D02*X55050D01*
X52800Y853250D02*X53550Y852500D01*
X52800Y854750D02*Y853250D01*
Y854750D02*X53550Y855500D01*
X55050D01*
X55800Y854750D01*
G54D38*X57600Y857000D02*Y856850D01*
G54D37*Y854750D02*Y852500D01*
X59850Y857750D02*Y852500D01*
Y857750D02*X60600Y858500D01*
X61350D01*
X59100Y855500D02*X60600D01*
X63600Y857750D02*Y852500D01*
Y857750D02*X64350Y858500D01*
X65100D01*
X62850Y855500D02*X64350D01*
X67350Y852500D02*X69600D01*
X66600Y853250D02*X67350Y852500D01*
X66600Y854750D02*Y853250D01*
Y854750D02*X67350Y855500D01*
X68850D01*
X69600Y854750D01*
X66600Y854000D02*X69600D01*
Y854750D01*
X72150D02*Y852500D01*
Y854750D02*X72900Y855500D01*
X74400D01*
X71400D02*X72150Y854750D01*
X76950Y852500D02*X79200D01*
X76200Y853250D02*X76950Y852500D01*
X76200Y854750D02*Y853250D01*
Y854750D02*X76950Y855500D01*
X78450D01*
X79200Y854750D01*
X76200Y854000D02*X79200D01*
Y854750D01*
X81750D02*Y852500D01*
Y854750D02*X82500Y855500D01*
X83250D01*
X84000Y854750D01*
Y852500D01*
X81000Y855500D02*X81750Y854750D01*
X86550Y858500D02*Y853250D01*
X87300Y852500D01*
X85800Y856250D02*X87300D01*
X94500Y858500D02*Y852500D01*
X93750D02*X94500Y853250D01*
X92250Y852500D02*X93750D01*
X91500Y853250D02*X92250Y852500D01*
X91500Y854750D02*Y853250D01*
Y854750D02*X92250Y855500D01*
X93750D01*
X94500Y854750D01*
X97050D02*Y852500D01*
Y854750D02*X97800Y855500D01*
X99300D01*
X96300D02*X97050Y854750D01*
G54D38*X101100Y857000D02*Y856850D01*
G54D37*Y854750D02*Y852500D01*
X102600Y858500D02*Y853250D01*
X103350Y852500D01*
X104850Y858500D02*Y853250D01*
X105600Y852500D01*
X110550D02*X112800D01*
X113550Y853250D01*
X112800Y854000D02*X113550Y853250D01*
X110550Y854000D02*X112800D01*
X109800Y854750D02*X110550Y854000D01*
X109800Y854750D02*X110550Y855500D01*
X112800D01*
X113550Y854750D01*
X109800Y853250D02*X110550Y852500D01*
G54D38*X115350Y857000D02*Y856850D01*
G54D37*Y854750D02*Y852500D01*
X116850Y855500D02*X119850D01*
X116850Y852500D02*X119850Y855500D01*
X116850Y852500D02*X119850D01*
X122400D02*X124650D01*
X121650Y853250D02*X122400Y852500D01*
X121650Y854750D02*Y853250D01*
Y854750D02*X122400Y855500D01*
X123900D01*
X124650Y854750D01*
X121650Y854000D02*X124650D01*
Y854750D01*
X127200Y852500D02*X129450D01*
X130200Y853250D01*
X129450Y854000D02*X130200Y853250D01*
X127200Y854000D02*X129450D01*
X126450Y854750D02*X127200Y854000D01*
X126450Y854750D02*X127200Y855500D01*
X129450D01*
X130200Y854750D01*
X126450Y853250D02*X127200Y852500D01*
X134700Y855500D02*Y853250D01*
X135450Y852500D01*
X136950D01*
X137700Y853250D01*
Y855500D02*Y853250D01*
X140250Y852500D02*X142500D01*
X143250Y853250D01*
X142500Y854000D02*X143250Y853250D01*
X140250Y854000D02*X142500D01*
X139500Y854750D02*X140250Y854000D01*
X139500Y854750D02*X140250Y855500D01*
X142500D01*
X143250Y854750D01*
X139500Y853250D02*X140250Y852500D01*
X145800D02*X148050D01*
X145050Y853250D02*X145800Y852500D01*
X145050Y854750D02*Y853250D01*
Y854750D02*X145800Y855500D01*
X147300D01*
X148050Y854750D01*
X145050Y854000D02*X148050D01*
Y854750D01*
X152850Y858500D02*Y852500D01*
X152100D02*X152850Y853250D01*
X150600Y852500D02*X152100D01*
X149850Y853250D02*X150600Y852500D01*
X149850Y854750D02*Y853250D01*
Y854750D02*X150600Y855500D01*
X152100D01*
X152850Y854750D01*
G54D38*X157350Y857000D02*Y856850D01*
G54D37*Y854750D02*Y852500D01*
X159600Y854750D02*Y852500D01*
Y854750D02*X160350Y855500D01*
X161100D01*
X161850Y854750D01*
Y852500D01*
X158850Y855500D02*X159600Y854750D01*
X167100Y858500D02*Y853250D01*
X167850Y852500D01*
X166350Y856250D02*X167850D01*
X169350Y858500D02*Y852500D01*
Y854750D02*X170100Y855500D01*
X171600D01*
X172350Y854750D01*
Y852500D01*
G54D38*X174150Y857000D02*Y856850D01*
G54D37*Y854750D02*Y852500D01*
X176400D02*X178650D01*
X179400Y853250D01*
X178650Y854000D02*X179400Y853250D01*
X176400Y854000D02*X178650D01*
X175650Y854750D02*X176400Y854000D01*
X175650Y854750D02*X176400Y855500D01*
X178650D01*
X179400Y854750D01*
X175650Y853250D02*X176400Y852500D01*
X183900Y858500D02*Y853250D01*
X184650Y852500D01*
X188400Y855500D02*X189150Y854750D01*
X186900Y855500D02*X188400D01*
X186150Y854750D02*X186900Y855500D01*
X186150Y854750D02*Y853250D01*
X186900Y852500D01*
X189150Y855500D02*Y853250D01*
X189900Y852500D01*
X186900D02*X188400D01*
X189150Y853250D01*
X191700Y855500D02*Y853250D01*
X192450Y852500D01*
X194700Y855500D02*Y851000D01*
X193950Y850250D02*X194700Y851000D01*
X192450Y850250D02*X193950D01*
X191700Y851000D02*X192450Y850250D01*
Y852500D02*X193950D01*
X194700Y853250D01*
X196500Y854750D02*Y853250D01*
Y854750D02*X197250Y855500D01*
X198750D01*
X199500Y854750D01*
Y853250D01*
X198750Y852500D02*X199500Y853250D01*
X197250Y852500D02*X198750D01*
X196500Y853250D02*X197250Y852500D01*
X201300Y855500D02*Y853250D01*
X202050Y852500D01*
X203550D01*
X204300Y853250D01*
Y855500D02*Y853250D01*
X206850Y858500D02*Y853250D01*
X207600Y852500D01*
X206100Y856250D02*X207600D01*
X209100Y851000D02*X210600Y852500D01*
X215100Y858500D02*X218100D01*
X215100D02*Y855500D01*
X215850Y856250D01*
X217350D01*
X218100Y855500D01*
Y853250D01*
X217350Y852500D02*X218100Y853250D01*
X215850Y852500D02*X217350D01*
X215100Y853250D02*X215850Y852500D01*
X222600Y858500D02*Y852500D01*
Y854750D02*X223350Y855500D01*
X224850D01*
X225600Y854750D01*
Y852500D01*
X227400Y854750D02*Y853250D01*
Y854750D02*X228150Y855500D01*
X229650D01*
X230400Y854750D01*
Y853250D01*
X229650Y852500D02*X230400Y853250D01*
X228150Y852500D02*X229650D01*
X227400Y853250D02*X228150Y852500D01*
X232200Y858500D02*Y853250D01*
X232950Y852500D01*
X235200D02*X237450D01*
X234450Y853250D02*X235200Y852500D01*
X234450Y854750D02*Y853250D01*
Y854750D02*X235200Y855500D01*
X236700D01*
X237450Y854750D01*
X234450Y854000D02*X237450D01*
Y854750D01*
X240000Y852500D02*X242250D01*
X243000Y853250D01*
X242250Y854000D02*X243000Y853250D01*
X240000Y854000D02*X242250D01*
X239250Y854750D02*X240000Y854000D01*
X239250Y854750D02*X240000Y855500D01*
X242250D01*
X243000Y854750D01*
X239250Y853250D02*X240000Y852500D01*
X248250Y858500D02*Y853250D01*
X249000Y852500D01*
X247500Y856250D02*X249000D01*
X250500Y854750D02*Y853250D01*
Y854750D02*X251250Y855500D01*
X252750D01*
X253500Y854750D01*
Y853250D01*
X252750Y852500D02*X253500Y853250D01*
X251250Y852500D02*X252750D01*
X250500Y853250D02*X251250Y852500D01*
X256050Y858500D02*Y853250D01*
X256800Y852500D01*
X255300Y856250D02*X256800D01*
X260550Y855500D02*X261300Y854750D01*
X259050Y855500D02*X260550D01*
X258300Y854750D02*X259050Y855500D01*
X258300Y854750D02*Y853250D01*
X259050Y852500D01*
X261300Y855500D02*Y853250D01*
X262050Y852500D01*
X259050D02*X260550D01*
X261300Y853250D01*
X263850Y858500D02*Y853250D01*
X264600Y852500D01*
G54D39*X97000Y344500D02*Y374500D01*
X116500Y394000D02*X200500D01*
X220000Y374500D02*Y344500D01*
X116500Y325000D02*X200500D01*
Y394000D02*G75*G02X220000Y374500I0J-19500D01*G01*
X97000D02*G75*G02X116500Y394000I19500J0D01*G01*
Y325000D02*G75*G02X97000Y344500I0J19500D01*G01*
X220000D02*G75*G02X200500Y325000I-19500J0D01*G01*
G54D37*X176175Y-9500D02*X179175D01*
X179925Y-8750D01*
Y-6950D02*Y-8750D01*
X179175Y-6200D02*X179925Y-6950D01*
X176925Y-6200D02*X179175D01*
X176925Y-3500D02*Y-9500D01*
X176175Y-3500D02*X179175D01*
X179925Y-4250D01*
Y-5450D01*
X179175Y-6200D02*X179925Y-5450D01*
X181725Y-7250D02*Y-8750D01*
Y-7250D02*X182475Y-6500D01*
X183975D01*
X184725Y-7250D01*
Y-8750D01*
X183975Y-9500D02*X184725Y-8750D01*
X182475Y-9500D02*X183975D01*
X181725Y-8750D02*X182475Y-9500D01*
X188775Y-6500D02*X189525Y-7250D01*
X187275Y-6500D02*X188775D01*
X186525Y-7250D02*X187275Y-6500D01*
X186525Y-7250D02*Y-8750D01*
X187275Y-9500D01*
X189525Y-6500D02*Y-8750D01*
X190275Y-9500D01*
X187275D02*X188775D01*
X189525Y-8750D01*
X192825Y-7250D02*Y-9500D01*
Y-7250D02*X193575Y-6500D01*
X195075D01*
X192075D02*X192825Y-7250D01*
X199875Y-3500D02*Y-9500D01*
X199125D02*X199875Y-8750D01*
X197625Y-9500D02*X199125D01*
X196875Y-8750D02*X197625Y-9500D01*
X196875Y-7250D02*Y-8750D01*
Y-7250D02*X197625Y-6500D01*
X199125D01*
X199875Y-7250D01*
X204375D02*Y-8750D01*
Y-7250D02*X205125Y-6500D01*
X206625D01*
X207375Y-7250D01*
Y-8750D01*
X206625Y-9500D02*X207375Y-8750D01*
X205125Y-9500D02*X206625D01*
X204375Y-8750D02*X205125Y-9500D01*
X209175Y-6500D02*Y-8750D01*
X209925Y-9500D01*
X211425D01*
X212175Y-8750D01*
Y-6500D02*Y-8750D01*
X214725Y-3500D02*Y-8750D01*
X215475Y-9500D01*
X213975Y-5750D02*X215475D01*
X216975Y-3500D02*Y-8750D01*
X217725Y-9500D01*
G54D38*X219225Y-5000D02*Y-5150D01*
G54D37*Y-7250D02*Y-9500D01*
X221475Y-7250D02*Y-9500D01*
Y-7250D02*X222225Y-6500D01*
X222975D01*
X223725Y-7250D01*
Y-9500D01*
X220725Y-6500D02*X221475Y-7250D01*
X226275Y-9500D02*X228525D01*
X225525Y-8750D02*X226275Y-9500D01*
X225525Y-7250D02*Y-8750D01*
Y-7250D02*X226275Y-6500D01*
X227775D01*
X228525Y-7250D01*
X225525Y-8000D02*X228525D01*
Y-7250D01*
G54D38*X233025Y-5000D02*Y-5150D01*
G54D37*Y-7250D02*Y-9500D01*
X235275D02*X237525D01*
X238275Y-8750D01*
X237525Y-8000D02*X238275Y-8750D01*
X235275Y-8000D02*X237525D01*
X234525Y-7250D02*X235275Y-8000D01*
X234525Y-7250D02*X235275Y-6500D01*
X237525D01*
X238275Y-7250D01*
X234525Y-8750D02*X235275Y-9500D01*
X243525Y-3500D02*Y-8750D01*
X244275Y-9500D01*
X242775Y-5750D02*X244275D01*
X245775Y-3500D02*Y-9500D01*
Y-7250D02*X246525Y-6500D01*
X248025D01*
X248775Y-7250D01*
Y-9500D01*
X251325D02*X253575D01*
X250575Y-8750D02*X251325Y-9500D01*
X250575Y-7250D02*Y-8750D01*
Y-7250D02*X251325Y-6500D01*
X252825D01*
X253575Y-7250D01*
X250575Y-8000D02*X253575D01*
Y-7250D01*
X258825Y-6500D02*X261075D01*
X258075Y-7250D02*X258825Y-6500D01*
X258075Y-7250D02*Y-8750D01*
X258825Y-9500D01*
X261075D01*
X263625D02*X265875D01*
X262875Y-8750D02*X263625Y-9500D01*
X262875Y-7250D02*Y-8750D01*
Y-7250D02*X263625Y-6500D01*
X265125D01*
X265875Y-7250D01*
X262875Y-8000D02*X265875D01*
Y-7250D01*
X268425D02*Y-9500D01*
Y-7250D02*X269175Y-6500D01*
X269925D01*
X270675Y-7250D01*
Y-9500D01*
X267675Y-6500D02*X268425Y-7250D01*
X273225Y-3500D02*Y-8750D01*
X273975Y-9500D01*
X272475Y-5750D02*X273975D01*
X276225Y-9500D02*X278475D01*
X275475Y-8750D02*X276225Y-9500D01*
X275475Y-7250D02*Y-8750D01*
Y-7250D02*X276225Y-6500D01*
X277725D01*
X278475Y-7250D01*
X275475Y-8000D02*X278475D01*
Y-7250D01*
X281025D02*Y-9500D01*
Y-7250D02*X281775Y-6500D01*
X283275D01*
X280275D02*X281025Y-7250D01*
X285075Y-3500D02*Y-8750D01*
X285825Y-9500D01*
G54D38*X287325Y-5000D02*Y-5150D01*
G54D37*Y-7250D02*Y-9500D01*
X289575Y-7250D02*Y-9500D01*
Y-7250D02*X290325Y-6500D01*
X291075D01*
X291825Y-7250D01*
Y-9500D01*
X288825Y-6500D02*X289575Y-7250D01*
X294375Y-9500D02*X296625D01*
X293625Y-8750D02*X294375Y-9500D01*
X293625Y-7250D02*Y-8750D01*
Y-7250D02*X294375Y-6500D01*
X295875D01*
X296625Y-7250D01*
X293625Y-8000D02*X296625D01*
Y-7250D01*
X301125D02*Y-8750D01*
Y-7250D02*X301875Y-6500D01*
X303375D01*
X304125Y-7250D01*
Y-8750D01*
X303375Y-9500D02*X304125Y-8750D01*
X301875Y-9500D02*X303375D01*
X301125Y-8750D02*X301875Y-9500D01*
X306675Y-4250D02*Y-9500D01*
Y-4250D02*X307425Y-3500D01*
X308175D01*
X305925Y-6500D02*X307425D01*
X313125Y-3500D02*Y-8750D01*
X313875Y-9500D01*
X312375Y-5750D02*X313875D01*
X315375Y-3500D02*Y-9500D01*
Y-7250D02*X316125Y-6500D01*
X317625D01*
X318375Y-7250D01*
Y-9500D01*
G54D38*X320175Y-5000D02*Y-5150D01*
G54D37*Y-7250D02*Y-9500D01*
X322425D02*X324675D01*
X325425Y-8750D01*
X324675Y-8000D02*X325425Y-8750D01*
X322425Y-8000D02*X324675D01*
X321675Y-7250D02*X322425Y-8000D01*
X321675Y-7250D02*X322425Y-6500D01*
X324675D01*
X325425Y-7250D01*
X321675Y-8750D02*X322425Y-9500D01*
X330675Y-7250D02*Y-11750D01*
X329925Y-6500D02*X330675Y-7250D01*
X331425Y-6500D01*
X332925D01*
X333675Y-7250D01*
Y-8750D01*
X332925Y-9500D02*X333675Y-8750D01*
X331425Y-9500D02*X332925D01*
X330675Y-8750D02*X331425Y-9500D01*
X337725Y-6500D02*X338475Y-7250D01*
X336225Y-6500D02*X337725D01*
X335475Y-7250D02*X336225Y-6500D01*
X335475Y-7250D02*Y-8750D01*
X336225Y-9500D01*
X338475Y-6500D02*Y-8750D01*
X339225Y-9500D01*
X336225D02*X337725D01*
X338475Y-8750D01*
X341775Y-3500D02*Y-8750D01*
X342525Y-9500D01*
X341025Y-5750D02*X342525D01*
X344025Y-3500D02*Y-9500D01*
Y-7250D02*X344775Y-6500D01*
X346275D01*
X347025Y-7250D01*
Y-9500D01*
X200750Y798500D02*Y792500D01*
X202700Y798500D02*X203750Y797450D01*
Y793550D01*
X202700Y792500D02*X203750Y793550D01*
X200000Y792500D02*X202700D01*
X200000Y798500D02*X202700D01*
X207800Y795500D02*X208550Y794750D01*
X206300Y795500D02*X207800D01*
X205550Y794750D02*X206300Y795500D01*
X205550Y794750D02*Y793250D01*
X206300Y792500D01*
X208550Y795500D02*Y793250D01*
X209300Y792500D01*
X206300D02*X207800D01*
X208550Y793250D01*
X211850Y798500D02*Y793250D01*
X212600Y792500D01*
X211100Y796250D02*X212600D01*
X214850Y792500D02*X217100D01*
X214100Y793250D02*X214850Y792500D01*
X214100Y794750D02*Y793250D01*
Y794750D02*X214850Y795500D01*
X216350D01*
X217100Y794750D01*
X214100Y794000D02*X217100D01*
Y794750D01*
X218900Y796250D02*X219650D01*
X218900Y794750D02*X219650D01*
X224150Y797750D02*X224900Y798500D01*
X227150D01*
X227900Y797750D01*
Y796250D01*
X224150Y792500D02*X227900Y796250D01*
X224150Y792500D02*X227900D01*
X229700Y793250D02*X230450Y792500D01*
X229700Y797750D02*Y793250D01*
Y797750D02*X230450Y798500D01*
X231950D01*
X232700Y797750D01*
Y793250D01*
X231950Y792500D02*X232700Y793250D01*
X230450Y792500D02*X231950D01*
X229700Y794000D02*X232700Y797000D01*
X234500Y797750D02*X235250Y798500D01*
X237500D01*
X238250Y797750D01*
Y796250D01*
X234500Y792500D02*X238250Y796250D01*
X234500Y792500D02*X238250D01*
X240050Y797300D02*X241250Y798500D01*
Y792500D01*
X240050D02*X242300D01*
X244100Y795500D02*X247100D01*
X248900Y793250D02*X249650Y792500D01*
X248900Y797750D02*Y793250D01*
Y797750D02*X249650Y798500D01*
X251150D01*
X251900Y797750D01*
Y793250D01*
X251150Y792500D02*X251900Y793250D01*
X249650Y792500D02*X251150D01*
X248900Y794000D02*X251900Y797000D01*
X253700Y794750D02*X256700Y798500D01*
X253700Y794750D02*X257450D01*
X256700Y798500D02*Y792500D01*
X259250Y795500D02*X262250D01*
X264050Y793250D02*X264800Y792500D01*
X264050Y797750D02*Y793250D01*
Y797750D02*X264800Y798500D01*
X266300D01*
X267050Y797750D01*
Y793250D01*
X266300Y792500D02*X267050Y793250D01*
X264800Y792500D02*X266300D01*
X264050Y794000D02*X267050Y797000D01*
X269600Y792500D02*X271850Y795500D01*
Y797750D02*Y795500D01*
X271100Y798500D02*X271850Y797750D01*
X269600Y798500D02*X271100D01*
X268850Y797750D02*X269600Y798500D01*
X268850Y797750D02*Y796250D01*
X269600Y795500D01*
X271850D01*
X276350Y797300D02*X277550Y798500D01*
Y792500D01*
X276350D02*X278600D01*
X281150D02*X284150Y798500D01*
X280400D02*X284150D01*
X285950Y796250D02*X286700D01*
X285950Y794750D02*X286700D01*
X288500Y797300D02*X289700Y798500D01*
Y792500D01*
X288500D02*X290750D01*
X292550Y797750D02*X293300Y798500D01*
X294800D01*
X295550Y797750D01*
X294800Y792500D02*X295550Y793250D01*
X293300Y792500D02*X294800D01*
X292550Y793250D02*X293300Y792500D01*
Y795800D02*X294800D01*
X295550Y797750D02*Y796550D01*
Y795050D02*Y793250D01*
Y795050D02*X294800Y795800D01*
X295550Y796550D02*X294800Y795800D01*
X297350Y796250D02*X298100D01*
X297350Y794750D02*X298100D01*
X299900Y797300D02*X301100Y798500D01*
Y792500D01*
X299900D02*X302150D01*
X303950Y797750D02*X304700Y798500D01*
X306950D01*
X307700Y797750D01*
Y796250D01*
X303950Y792500D02*X307700Y796250D01*
X303950Y792500D02*X307700D01*
X312200Y798500D02*Y793250D01*
X312950Y792500D01*
X314450D01*
X315200Y793250D01*
Y798500D02*Y793250D01*
X317000Y798500D02*X320000D01*
X318500D02*Y792500D01*
X322850D02*X324800D01*
X321800Y793550D02*X322850Y792500D01*
X321800Y797450D02*Y793550D01*
Y797450D02*X322850Y798500D01*
X324800D01*
X200000Y812000D02*Y807500D01*
Y812000D02*X201050Y813500D01*
X202700D01*
X203750Y812000D01*
Y807500D01*
X200000Y810500D02*X203750D01*
X205550D02*Y808250D01*
X206300Y807500D01*
X207800D01*
X208550Y808250D01*
Y810500D02*Y808250D01*
X211100Y813500D02*Y808250D01*
X211850Y807500D01*
X210350Y811250D02*X211850D01*
X213350Y813500D02*Y807500D01*
Y809750D02*X214100Y810500D01*
X215600D01*
X216350Y809750D01*
Y807500D01*
X218150Y809750D02*Y808250D01*
Y809750D02*X218900Y810500D01*
X220400D01*
X221150Y809750D01*
Y808250D01*
X220400Y807500D02*X221150Y808250D01*
X218900Y807500D02*X220400D01*
X218150Y808250D02*X218900Y807500D01*
X223700Y809750D02*Y807500D01*
Y809750D02*X224450Y810500D01*
X225950D01*
X222950D02*X223700Y809750D01*
X227750Y811250D02*X228500D01*
X227750Y809750D02*X228500D01*
X200000Y828500D02*X203000D01*
X201500D02*Y822500D01*
G54D38*X204800Y827000D02*Y826850D01*
G54D37*Y824750D02*Y822500D01*
X207050Y828500D02*Y823250D01*
X207800Y822500D01*
X206300Y826250D02*X207800D01*
X209300Y828500D02*Y823250D01*
X210050Y822500D01*
X212300D02*X214550D01*
X211550Y823250D02*X212300Y822500D01*
X211550Y824750D02*Y823250D01*
Y824750D02*X212300Y825500D01*
X213800D01*
X214550Y824750D01*
X211550Y824000D02*X214550D01*
Y824750D01*
X216350Y826250D02*X217100D01*
X216350Y824750D02*X217100D01*
X221600Y823250D02*X222350Y822500D01*
X221600Y827750D02*X222350Y828500D01*
X221600Y827750D02*Y823250D01*
X224150Y825500D02*Y823250D01*
X224900Y822500D01*
X226400D01*
X227150Y823250D01*
Y825500D02*Y823250D01*
X229700Y824750D02*Y822500D01*
Y824750D02*X230450Y825500D01*
X231200D01*
X231950Y824750D01*
Y822500D01*
X228950Y825500D02*X229700Y824750D01*
X233750Y828500D02*Y822500D01*
Y824750D02*X236000Y822500D01*
X233750Y824750D02*X235250Y826250D01*
X238550Y824750D02*Y822500D01*
Y824750D02*X239300Y825500D01*
X240050D01*
X240800Y824750D01*
Y822500D01*
X237800Y825500D02*X238550Y824750D01*
X242600D02*Y823250D01*
Y824750D02*X243350Y825500D01*
X244850D01*
X245600Y824750D01*
Y823250D01*
X244850Y822500D02*X245600Y823250D01*
X243350Y822500D02*X244850D01*
X242600Y823250D02*X243350Y822500D01*
X247400Y825500D02*Y823250D01*
X248150Y822500D01*
X248900D01*
X249650Y823250D01*
Y825500D02*Y823250D01*
X250400Y822500D01*
X251150D01*
X251900Y823250D01*
Y825500D02*Y823250D01*
X254450Y824750D02*Y822500D01*
Y824750D02*X255200Y825500D01*
X255950D01*
X256700Y824750D01*
Y822500D01*
X253700Y825500D02*X254450Y824750D01*
X258500Y828500D02*X259250Y827750D01*
Y823250D01*
X258500Y822500D02*X259250Y823250D01*
X263750Y825500D02*X266750D01*
X271250Y828500D02*Y822500D01*
Y828500D02*X274250D01*
X271250Y825800D02*X273500D01*
X278300Y825500D02*X279050Y824750D01*
X276800Y825500D02*X278300D01*
X276050Y824750D02*X276800Y825500D01*
X276050Y824750D02*Y823250D01*
X276800Y822500D01*
X279050Y825500D02*Y823250D01*
X279800Y822500D01*
X276800D02*X278300D01*
X279050Y823250D01*
X281600Y828500D02*Y822500D01*
Y823250D02*X282350Y822500D01*
X283850D01*
X284600Y823250D01*
Y824750D02*Y823250D01*
X283850Y825500D02*X284600Y824750D01*
X282350Y825500D02*X283850D01*
X281600Y824750D02*X282350Y825500D01*
X287150Y824750D02*Y822500D01*
Y824750D02*X287900Y825500D01*
X289400D01*
X286400D02*X287150Y824750D01*
G54D38*X291200Y827000D02*Y826850D01*
G54D37*Y824750D02*Y822500D01*
X293450Y825500D02*X295700D01*
X292700Y824750D02*X293450Y825500D01*
X292700Y824750D02*Y823250D01*
X293450Y822500D01*
X295700D01*
X299750Y825500D02*X300500Y824750D01*
X298250Y825500D02*X299750D01*
X297500Y824750D02*X298250Y825500D01*
X297500Y824750D02*Y823250D01*
X298250Y822500D01*
X300500Y825500D02*Y823250D01*
X301250Y822500D01*
X298250D02*X299750D01*
X300500Y823250D01*
X303800Y828500D02*Y823250D01*
X304550Y822500D01*
X303050Y826250D02*X304550D01*
G54D38*X306050Y827000D02*Y826850D01*
G54D37*Y824750D02*Y822500D01*
X307550Y824750D02*Y823250D01*
Y824750D02*X308300Y825500D01*
X309800D01*
X310550Y824750D01*
Y823250D01*
X309800Y822500D02*X310550Y823250D01*
X308300Y822500D02*X309800D01*
X307550Y823250D02*X308300Y822500D01*
X313100Y824750D02*Y822500D01*
Y824750D02*X313850Y825500D01*
X314600D01*
X315350Y824750D01*
Y822500D01*
X312350Y825500D02*X313100Y824750D01*
X320600Y828500D02*Y822500D01*
X322550Y828500D02*X323600Y827450D01*
Y823550D01*
X322550Y822500D02*X323600Y823550D01*
X319850Y822500D02*X322550D01*
X319850Y828500D02*X322550D01*
X326150Y824750D02*Y822500D01*
Y824750D02*X326900Y825500D01*
X328400D01*
X325400D02*X326150Y824750D01*
X332450Y825500D02*X333200Y824750D01*
X330950Y825500D02*X332450D01*
X330200Y824750D02*X330950Y825500D01*
X330200Y824750D02*Y823250D01*
X330950Y822500D01*
X333200Y825500D02*Y823250D01*
X333950Y822500D01*
X330950D02*X332450D01*
X333200Y823250D01*
X335750Y825500D02*Y823250D01*
X336500Y822500D01*
X337250D01*
X338000Y823250D01*
Y825500D02*Y823250D01*
X338750Y822500D01*
X339500D01*
X340250Y823250D01*
Y825500D02*Y823250D01*
G54D38*X342050Y827000D02*Y826850D01*
G54D37*Y824750D02*Y822500D01*
X344300Y824750D02*Y822500D01*
Y824750D02*X345050Y825500D01*
X345800D01*
X346550Y824750D01*
Y822500D01*
X343550Y825500D02*X344300Y824750D01*
X350600Y825500D02*X351350Y824750D01*
X349100Y825500D02*X350600D01*
X348350Y824750D02*X349100Y825500D01*
X348350Y824750D02*Y823250D01*
X349100Y822500D01*
X350600D01*
X351350Y823250D01*
X348350Y821000D02*X349100Y820250D01*
X350600D01*
X351350Y821000D01*
Y825500D02*Y821000D01*
M02*
