G04 start of page 2 for group 12 layer_idx 7 *
G04 Title: (unknown), bottom_silk *
G04 Creator: pcb-rnd 2.3.0 *
G04 CreationDate: 2021-04-09 19:11:39 UTC *
G04 For:  *
G04 Format: Gerber/RS-274X *
G04 PCB-Dimensions: 525000 770000 *
G04 PCB-Coordinate-Origin: lower left *
%MOIN*%
%FSLAX25Y25*%
%LNBOTTOM_SILK_NONE_12*%
%ADD30C,0.0070*%
G54D30*X111500Y353500D02*X112000Y353000D01*
X111500Y355000D02*Y353500D01*
X112000Y355500D02*X111500Y355000D01*
X112000Y355500D02*X113000D01*
X113500Y355000D01*
Y353500D01*
X114000Y353000D01*
X115000D01*
X115500Y353500D02*X115000Y353000D01*
X115500Y355000D02*Y353500D01*
X115000Y355500D02*X115500Y355000D01*
X113500Y350300D02*X114000Y349800D01*
X113500Y351300D02*Y350300D01*
X114000Y351800D02*X113500Y351300D01*
X114000Y351800D02*X115000D01*
X115500Y351300D01*
X113500Y349800D02*X115000D01*
X115500Y349300D01*
Y351300D02*Y350300D01*
X115000Y349800D01*
X112000Y347600D02*X115500D01*
X112000D02*X111500Y347100D01*
Y346600D01*
X113500Y348100D02*Y347100D01*
X115500Y345100D02*Y343600D01*
X115000Y345600D02*X115500Y345100D01*
X114000Y345600D02*X115000D01*
X114000D02*X113500Y345100D01*
Y344100D01*
X114000Y343600D01*
X114500Y345600D02*Y343600D01*
X114000D01*
X111500Y342400D02*X115000D01*
X115500Y341900D01*
Y340400D02*Y338900D01*
X115000Y340900D02*X115500Y340400D01*
X114000Y340900D02*X115000D01*
X114000D02*X113500Y340400D01*
Y339400D01*
X114000Y338900D01*
X114500Y340900D02*Y338900D01*
X114000D01*
X113500Y336200D02*X114000Y335700D01*
X113500Y337200D02*Y336200D01*
X114000Y337700D02*X113500Y337200D01*
X114000Y337700D02*X115000D01*
X115500Y337200D01*
X113500Y335700D02*X115000D01*
X115500Y335200D01*
Y337200D02*Y336200D01*
X115000Y335700D01*
X111500Y332000D02*X115500D01*
Y332500D02*X115000Y332000D01*
X115500Y333500D02*Y332500D01*
X115000Y334000D02*X115500Y333500D01*
X114000Y334000D02*X115000D01*
X114000D02*X113500Y333500D01*
Y332500D01*
X114000Y332000D01*
X118500Y355500D02*X121500D01*
X118500D02*X117500Y354800D01*
Y353700D01*
X118500Y353000D01*
X121500D01*
X119500Y355500D02*Y353000D01*
X117500Y349800D02*X121500D01*
Y350300D02*X121000Y349800D01*
X121500Y351300D02*Y350300D01*
X121000Y351800D02*X121500Y351300D01*
X120000Y351800D02*X121000D01*
X120000D02*X119500Y351300D01*
Y350300D01*
X120000Y349800D01*
X119500Y347100D02*X120000Y346600D01*
X119500Y348100D02*Y347100D01*
X120000Y348600D02*X119500Y348100D01*
X120000Y348600D02*X121000D01*
X121500Y348100D01*
X119500Y346600D02*X121000D01*
X121500Y346100D01*
Y348100D02*Y347100D01*
X121000Y346600D01*
X120000Y344400D02*X123000D01*
X119500Y344900D02*X120000Y344400D01*
X119500Y343900D01*
Y342900D01*
X120000Y342400D01*
X121000D01*
X121500Y342900D02*X121000Y342400D01*
X121500Y343900D02*Y342900D01*
X121000Y344400D02*X121500Y343900D01*
X117500Y340700D02*X121000D01*
X121500Y340200D01*
X119000Y341200D02*Y340200D01*
X121500Y338700D02*Y337200D01*
X121000Y339200D02*X121500Y338700D01*
X120000Y339200D02*X121000D01*
X120000D02*X119500Y338700D01*
Y337700D01*
X120000Y337200D01*
X120500Y339200D02*Y337200D01*
X120000D01*
Y335500D02*X121500D01*
X120000D02*X119500Y335000D01*
Y334000D01*
Y336000D02*X120000Y335500D01*
X101300Y355500D02*Y354000D01*
X103500Y355500D02*Y353500D01*
X99500Y355500D02*X103500D01*
X99500D02*Y353500D01*
Y351800D02*X103500D01*
X99500Y352300D02*Y350300D01*
X100000Y349800D01*
X101000D01*
X101500Y350300D02*X101000Y349800D01*
X101500Y351800D02*Y350300D01*
X99500Y348600D02*X103500D01*
Y346600D01*
X109500Y355500D02*Y353500D01*
X109000Y353000D01*
X107800D02*X109000D01*
X107300Y353500D02*X107800Y353000D01*
X107300Y355000D02*Y353500D01*
X105500Y355000D02*X109500D01*
X105500Y355500D02*Y353500D01*
X106000Y353000D01*
X106800D01*
X107300Y353500D02*X106800Y353000D01*
X106500Y351800D02*X106600D01*
X108000D02*X109500D01*
X108000Y350800D02*X109000D01*
X108000D02*X107500Y350300D01*
Y349300D01*
X108000Y348800D01*
X109000D01*
X109500Y349300D02*X109000Y348800D01*
X109500Y350300D02*Y349300D01*
X109000Y350800D02*X109500Y350300D01*
X106500Y347600D02*X109500D01*
X106500D02*X105500Y346900D01*
Y345800D01*
X106500Y345100D01*
X109500D01*
X107500Y347600D02*Y345100D01*
X108000Y343400D02*X109500D01*
X108000D02*X107500Y342900D01*
Y342400D01*
X108000Y341900D01*
X109500D01*
X108000D02*X107500Y341400D01*
Y340900D01*
X108000Y340400D01*
X109500D01*
X107500Y343900D02*X108000Y343400D01*
Y338700D02*X111000D01*
X107500Y339200D02*X108000Y338700D01*
X107500Y338200D01*
Y337200D01*
X108000Y336700D01*
X109000D01*
X109500Y337200D02*X109000Y336700D01*
X109500Y338200D02*Y337200D01*
X109000Y338700D02*X109500Y338200D01*
X200800Y357500D02*Y356000D01*
X203000Y357500D02*Y355500D01*
X199000Y357500D02*X203000D01*
X199000D02*Y355500D01*
X201000Y354300D02*X203000Y353300D01*
X201000Y352300D02*X203000Y353300D01*
X201000Y349600D02*X201500Y349100D01*
X201000Y350600D02*Y349600D01*
X201500Y351100D02*X201000Y350600D01*
X201500Y351100D02*X202500D01*
X203000Y350600D01*
X201000Y349100D02*X202500D01*
X203000Y348600D01*
Y350600D02*Y349600D01*
X202500Y349100D01*
X201500Y346900D02*X203000D01*
X201500D02*X201000Y346400D01*
Y345900D01*
X201500Y345400D01*
X203000D01*
X201000Y347400D02*X201500Y346900D01*
X199000Y342400D02*X203000D01*
X199000D02*Y340400D01*
X200800Y342400D02*Y340900D01*
X201500Y339200D02*X202500D01*
X201500D02*X201000Y338700D01*
Y337700D01*
X201500Y337200D01*
X202500D01*
X203000Y337700D02*X202500Y337200D01*
X203000Y338700D02*Y337700D01*
X202500Y339200D02*X203000Y338700D01*
Y335500D02*Y334000D01*
X202500Y333500D01*
X202000Y334000D02*X202500Y333500D01*
X202000Y335500D02*Y334000D01*
X201500Y336000D02*X202000Y335500D01*
X201500Y336000D02*X201000Y335500D01*
Y334000D01*
X201500Y333500D01*
X202500Y336000D02*X203000Y335500D01*
Y331800D02*Y330300D01*
X202500Y329800D01*
X202000Y330300D02*X202500Y329800D01*
X202000Y331800D02*Y330300D01*
X201500Y332300D02*X202000Y331800D01*
X201500Y332300D02*X201000Y331800D01*
Y330300D01*
X201500Y329800D01*
X202500Y332300D02*X203000Y331800D01*
X193500Y357500D02*X193000Y357000D01*
Y355500D01*
X193500Y355000D01*
X194500D01*
X197000Y357500D02*X194500Y355000D01*
X197000Y357500D02*Y355000D01*
X196500Y353800D02*X197000Y353300D01*
X193500Y353800D02*X196500D01*
X193500D02*X193000Y353300D01*
Y352300D01*
X193500Y351800D01*
X196500D01*
X197000Y352300D02*X196500Y351800D01*
X197000Y353300D02*Y352300D01*
X196000Y353800D02*X194000Y351800D01*
X193500Y350600D02*X193000Y350100D01*
Y348600D01*
X193500Y348100D01*
X194500D01*
X197000Y350600D02*X194500Y348100D01*
X197000Y350600D02*Y348100D01*
X193800Y346900D02*X193000Y346100D01*
X197000D01*
Y346900D02*Y345400D01*
Y344200D02*Y343700D01*
X196500Y342500D02*X197000Y342000D01*
X193500Y342500D02*X196500D01*
X193500D02*X193000Y342000D01*
Y341000D01*
X193500Y340500D01*
X196500D01*
X197000Y341000D02*X196500Y340500D01*
X197000Y342000D02*Y341000D01*
X196000Y342500D02*X194000Y340500D01*
X195500Y339300D02*X193000Y337300D01*
X195500Y339300D02*Y336800D01*
X193000Y337300D02*X197000D01*
Y335600D02*Y335100D01*
X196500Y333900D02*X197000Y333400D01*
X193500Y333900D02*X196500D01*
X193500D02*X193000Y333400D01*
Y332400D01*
X193500Y331900D01*
X196500D01*
X197000Y332400D02*X196500Y331900D01*
X197000Y333400D02*Y332400D01*
X196000Y333900D02*X194000Y331900D01*
X197000Y330200D02*X195000Y328700D01*
X193500D02*X195000D01*
X193000Y329200D02*X193500Y328700D01*
X193000Y330200D02*Y329200D01*
X193500Y330700D02*X193000Y330200D01*
X193500Y330700D02*X194500D01*
X195000Y330200D01*
Y328700D01*
M02*
