G04 start of page 2 for group 2 layer_idx 10 *
G04 Title: (unknown), top_mask *
G04 Creator: pcb-rnd 2.3.2 *
G04 CreationDate: 2021-05-12 18:23:49 UTC *
G04 For:  *
G04 Format: Gerber/RS-274X *
G04 PCB-Dimensions: 500000 500000 *
G04 PCB-Coordinate-Origin: lower left *
%MOIN*%
%FSLAX25Y25*%
%LNTOP_MASK_NONE_2*%
%ADD66C,0.0900*%
%ADD65C,0.0846*%
%ADD64C,0.0001*%
%ADD63C,0.0860*%
G54D63*X175000Y292500D03*
G54D64*G36*
X140700Y258200D02*Y266800D01*
X149300D01*
Y258200D01*
X140700D01*
G37*
G54D63*X145000Y272500D03*
G54D64*G36*
X170700Y278200D02*Y286800D01*
X179300D01*
Y278200D01*
X170700D01*
G37*
G36*
X190460Y290764D02*Y285046D01*
X198540D01*
Y290764D01*
X190460D01*
G37*
G36*
Y278954D02*Y273236D01*
X198540D01*
Y278954D01*
X190460D01*
G37*
G36*
X171832Y252024D02*Y246306D01*
X178336D01*
Y252024D01*
X171832D01*
G37*
G36*
X157705Y244816D02*Y239098D01*
X164209D01*
Y244816D01*
X157705D01*
G37*
G36*
Y251902D02*Y246184D01*
X164209D01*
Y251902D01*
X157705D01*
G37*
G36*
X171832Y244938D02*Y239220D01*
X178336D01*
Y244938D01*
X171832D01*
G37*
G36*
X170773Y231252D02*X165055D01*
Y224748D01*
X170773D01*
Y231252D01*
G37*
G36*
X177859D02*X172141D01*
Y224748D01*
X177859D01*
Y231252D01*
G37*
G36*
X184420Y255237D02*Y246763D01*
X192894D01*
Y255237D01*
X184420D01*
G37*
G36*
X150700Y178200D02*Y186800D01*
X159300D01*
Y178200D01*
X150700D01*
G37*
G54D63*X155000Y192500D03*
G54D65*X208343Y251000D03*
G54D64*G36*
X232000Y292500D02*X222500D01*
Y295500D01*
X232000D01*
Y292500D01*
G37*
G36*
Y287500D02*X222500D01*
Y290500D01*
X232000D01*
Y287500D01*
G37*
G36*
X218316Y276252D02*X212598D01*
Y269748D01*
X218316D01*
Y276252D01*
G37*
G36*
X225402D02*X219684D01*
Y269748D01*
X225402D01*
Y276252D01*
G37*
G54D65*X243843Y251000D03*
G54D64*G36*
X260700Y276800D02*X269300D01*
Y268200D01*
X260700D01*
Y276800D01*
G37*
G54D63*X275000Y272500D03*
G54D64*G36*
X219920Y255237D02*Y246763D01*
X228394D01*
Y255237D01*
X219920D01*
G37*
G36*
X202000Y305500D02*X211500D01*
Y302500D01*
X202000D01*
Y305500D01*
G37*
G36*
X146200Y315800D02*X154800D01*
Y307200D01*
X146200D01*
Y315800D01*
G37*
G54D63*X160343Y311500D03*
G54D64*G36*
X232000Y302500D02*X222500D01*
Y305500D01*
X232000D01*
Y302500D01*
G37*
G36*
Y297500D02*X222500D01*
Y300500D01*
X232000D01*
Y297500D01*
G37*
G36*
X264200Y295700D02*Y304300D01*
X272800D01*
Y295700D01*
X264200D01*
G37*
G54D63*X268500Y309843D03*
G54D64*G36*
X240460Y301859D02*Y296141D01*
X248540D01*
Y301859D01*
X240460D01*
G37*
G36*
Y313669D02*Y307951D01*
X248540D01*
Y313669D01*
X240460D01*
G37*
G54D66*X204251Y327350D03*
Y337350D03*
G54D64*G36*
X208701Y342900D02*Y351800D01*
X199801D01*
Y342900D01*
X208701D01*
G37*
G54D66*X204251Y367350D03*
G54D64*G36*
X202000Y300500D02*X211500D01*
Y297500D01*
X202000D01*
Y300500D01*
G37*
G36*
Y295500D02*X211500D01*
Y292500D01*
X202000D01*
Y295500D01*
G37*
G36*
Y290500D02*X211500D01*
Y287500D01*
X202000D01*
Y290500D01*
G37*
M02*
