G04 start of page 2 for group 11 layer_idx 11 *
G04 Title: (unknown), bottom_mask *
G04 Creator: pcb-rnd 2.3.2 *
G04 CreationDate: 2021-05-12 18:23:50 UTC *
G04 For:  *
G04 Format: Gerber/RS-274X *
G04 PCB-Dimensions: 500000 500000 *
G04 PCB-Coordinate-Origin: lower left *
%MOIN*%
%FSLAX25Y25*%
%LNBOTTOM_MASK_NONE_11*%
%ADD70C,0.0900*%
%ADD69C,0.0846*%
%ADD68C,0.0001*%
%ADD67C,0.0860*%
G54D67*X175000Y292500D03*
G54D68*G36*
X140700Y258200D02*Y266800D01*
X149300D01*
Y258200D01*
X140700D01*
G37*
G54D67*X145000Y272500D03*
G54D68*G36*
X170700Y278200D02*Y286800D01*
X179300D01*
Y278200D01*
X170700D01*
G37*
G36*
X184420Y255237D02*Y246763D01*
X192894D01*
Y255237D01*
X184420D01*
G37*
G36*
X150700Y178200D02*Y186800D01*
X159300D01*
Y178200D01*
X150700D01*
G37*
G54D67*X155000Y192500D03*
G54D69*X208343Y251000D03*
X243843D03*
G54D68*G36*
X260700Y276800D02*X269300D01*
Y268200D01*
X260700D01*
Y276800D01*
G37*
G54D67*X275000Y272500D03*
G54D68*G36*
X219920Y255237D02*Y246763D01*
X228394D01*
Y255237D01*
X219920D01*
G37*
G36*
X146200Y315800D02*X154800D01*
Y307200D01*
X146200D01*
Y315800D01*
G37*
G54D67*X160343Y311500D03*
G54D68*G36*
X264200Y295700D02*Y304300D01*
X272800D01*
Y295700D01*
X264200D01*
G37*
G54D67*X268500Y309843D03*
G54D70*X204251Y327350D03*
Y337350D03*
G54D68*G36*
X208701Y342900D02*Y351800D01*
X199801D01*
Y342900D01*
X208701D01*
G37*
G54D70*X204251Y367350D03*
M02*
