M48
INCH
T15C0.043
T14C0.028
T13C0.030
T12C0.039
T11C0.032
%
T14
G05
X015050Y031150
X016034Y031150
X026850Y030000
X026850Y030984
T13
X018866Y025100
X020834Y025100
X024384Y025100
X022416Y025100
T11
X009450Y029250
X019450Y029900
X015850Y022800
X031650Y029250
T12
X017500Y029250
X014500Y026250
X014500Y027250
X017500Y028250
X015500Y018250
X015500Y019250
X026500Y027250
X027500Y027250
T15
X020425Y032735
X020425Y033735
X020425Y034735
X020425Y036735
M30
