G04 start of page 2 for group 1 layer_idx 8 *
G04 Title: (unknown), top_silk *
G04 Creator: pcb-rnd 2.3.2 *
G04 CreationDate: 2021-05-12 18:23:49 UTC *
G04 For:  *
G04 Format: Gerber/RS-274X *
G04 PCB-Dimensions: 500000 500000 *
G04 PCB-Coordinate-Origin: lower left *
%MOIN*%
%FSLAX25Y25*%
%LNTOP_SILK_NONE_1*%
%ADD62C,0.0070*%
%ADD61C,0.0217*%
%ADD60C,0.0394*%
%ADD59C,0.0080*%
%ADD58C,0.0250*%
%ADD57C,0.0100*%
G54D57*X170000Y277500D02*Y297500D01*
X180000D02*Y277500D01*
Y297500D02*X170000D01*
X175000Y277500D02*X172500Y272500D01*
X175000Y277500D02*X177500Y272500D01*
X172500D02*X177500D01*
X192251Y382650D02*X216251D01*
X194251Y380650D02*Y347350D01*
X216251Y382650D02*Y380650D01*
X192251Y382650D02*Y380650D01*
X216251D01*
X201000Y306500D02*Y286500D01*
Y306500D02*X214500D01*
X194251Y347350D02*X214251D01*
G54D58*X204251D02*Y327350D01*
G54D57*X184327Y265173D02*X212673D01*
G54D59*X190760Y279638D02*Y284362D01*
X198240Y279638D02*Y284362D01*
G54D57*X194451Y404650D02*X214051D01*
X194451Y401650D02*X214051Y397750D01*
X194451Y404650D02*X214051Y400750D01*
Y403750D02*X209251Y404650D01*
X194451Y398650D02*X214051Y394750D01*
X194451Y395650D02*X214051Y391750D01*
X194451Y392650D02*X214051Y388750D01*
X194451Y389650D02*X214051Y385750D01*
X194451Y386650D02*X214051Y382750D01*
Y404650D02*Y382650D01*
X209251Y404650D02*Y420951D01*
X209250Y420952D01*
X194451Y404650D02*Y382650D01*
X199251Y421050D02*Y404650D01*
X194451Y383650D02*X199251Y382650D01*
X169823Y311500D02*X173823D01*
X137020D02*X141020D01*
X139020Y313500D02*Y309500D01*
G54D60*X152321Y305594D02*X146820D01*
X152321Y317406D02*X146820D01*
X152321Y303626D02*X148577D01*
X152321Y319374D02*X148577D01*
X152321Y301657D02*X151961D01*
X152321Y321343D02*X151961D01*
G54D59*X172329Y245229D02*Y246015D01*
X177839Y245229D02*Y246015D01*
X158202Y245107D02*Y245893D01*
X163712Y245107D02*Y245893D01*
G54D57*X184327Y236827D02*Y265173D01*
G54D61*X194563Y251000D02*X196531D01*
Y254150D02*Y247850D01*
G54D57*X212673Y265173D02*Y236827D01*
G54D61*X200469Y251000D02*X202437D01*
X200469Y254150D02*Y247850D01*
G54D57*X212673Y236827D02*X184327D01*
X160000Y197500D02*X150000D01*
G54D59*X171064Y230755D02*X171850D01*
X171064Y225245D02*X171850D01*
G54D57*X150000Y177500D02*X160000D01*
X150000D02*Y197500D01*
X160000D02*Y177500D01*
X155000D02*X152500Y172500D01*
X155000Y177500D02*X157500Y172500D01*
X152500D02*X157500D01*
X140000Y257500D02*X150000D01*
X140000D02*Y277500D01*
X150000D02*X140000D01*
X170000D02*X180000D01*
X150000D02*Y257500D01*
X145000D02*X142500Y252500D01*
X145000Y257500D02*X147500Y252500D01*
X142500D02*X147500D01*
X219827Y265173D02*X248173D01*
X233000Y286500D02*X201000D01*
X255000Y275000D02*Y270000D01*
G54D59*X218607Y275755D02*X219393D01*
X218607Y270245D02*X219393D01*
G54D57*X260000Y277500D02*Y267500D01*
Y272500D02*X255000Y275000D01*
X260000Y272500D02*X255000Y270000D01*
X260000Y277500D02*X280000D01*
Y267500D02*X260000D01*
X280000D02*Y277500D01*
X266500Y288520D02*X270500D01*
X268500Y319323D02*Y323323D01*
G54D60*X274406Y301821D02*Y296320D01*
X262594Y301821D02*Y296320D01*
X276374Y301821D02*Y298077D01*
X260626Y301821D02*Y298077D01*
G54D57*X248173Y265173D02*Y236827D01*
X268500Y286520D02*Y290520D01*
G54D60*X278343Y301821D02*Y301461D01*
X258657Y301821D02*Y301461D01*
G54D59*X248240Y302543D02*Y307267D01*
G54D57*X248173Y236827D02*X219827D01*
G54D61*X230063Y251000D02*X232031D01*
Y254150D02*Y247850D01*
G54D57*X233000Y286500D02*Y306500D01*
X219500D02*X233000D01*
X219827Y236827D02*Y265173D01*
G54D61*X235969Y251000D02*X237937D01*
X235969Y254150D02*Y247850D01*
G54D59*X240760Y302543D02*Y307267D01*
G54D57*X214251Y380650D02*Y347350D01*
X214500Y306500D02*G75*G03X219500Y306500I2500J0D01*G01*
X143020Y311500D02*G75*G03X167823Y311500I12402J0D01*G01*
G75*G03X143020Y311500I-12402J0D01*G01*
X268500Y292520D02*G75*G03X268500Y317323I0J12402D01*G01*
G75*G03X268500Y292520I0J-12402D01*G01*
X209250Y420952D02*G75*G03X199252Y421148I-4999J98D01*G01*
X199252Y421148D02*G75*G03X199251Y421050I4999J-98D01*G01*
G54D62*X193444Y267260D02*X194744D01*
X192744Y267960D02*X193444Y267260D01*
X192744Y270560D02*Y267960D01*
Y270560D02*X193444Y271260D01*
X194744D01*
X195944Y267760D02*X196444Y267260D01*
X195944Y268560D02*Y267760D01*
Y268560D02*X196644Y269260D01*
X197244D01*
X197944Y268560D01*
Y267760D01*
X197444Y267260D02*X197944Y267760D01*
X196444Y267260D02*X197444D01*
X195944Y269960D02*X196644Y269260D01*
X195944Y270760D02*Y269960D01*
Y270760D02*X196444Y271260D01*
X197444D01*
X197944Y270760D01*
Y269960D01*
X197244Y269260D02*X197944Y269960D01*
X199144Y267760D02*X199644Y267260D01*
X199144Y270760D02*Y267760D01*
Y270760D02*X199644Y271260D01*
X200644D01*
X201144Y270760D01*
Y267760D01*
X200644Y267260D02*X201144Y267760D01*
X199644Y267260D02*X200644D01*
X199144Y268260D02*X201144Y270260D01*
X202344Y270760D02*X202844Y271260D01*
X204344D01*
X204844Y270760D01*
Y269760D01*
X202344Y267260D02*X204844Y269760D01*
X202344Y267260D02*X204844D01*
X211500Y312500D02*Y309000D01*
X212000Y308500D01*
X213000D01*
X213500Y309000D01*
Y312500D02*Y309000D01*
X214700D02*X215200Y308500D01*
X214700Y309800D02*Y309000D01*
Y309800D02*X215400Y310500D01*
X216000D01*
X216700Y309800D01*
Y309000D01*
X216200Y308500D02*X216700Y309000D01*
X215200Y308500D02*X216200D01*
X214700Y311200D02*X215400Y310500D01*
X214700Y312000D02*Y311200D01*
Y312000D02*X215200Y312500D01*
X216200D01*
X216700Y312000D01*
Y311200D01*
X216000Y310500D02*X216700Y311200D01*
X217900Y309000D02*X218400Y308500D01*
X217900Y312000D02*Y309000D01*
Y312000D02*X218400Y312500D01*
X219400D01*
X219900Y312000D01*
Y309000D01*
X219400Y308500D02*X219900Y309000D01*
X218400Y308500D02*X219400D01*
X217900Y309500D02*X219900Y311500D01*
X221100Y311700D02*X221900Y312500D01*
Y308500D01*
X221100D02*X222600D01*
X212850Y281650D02*X214850D01*
X215350Y281150D01*
Y280150D01*
X214850Y279650D02*X215350Y280150D01*
X213350Y279650D02*X214850D01*
X213350Y281650D02*Y277650D01*
X214150Y279650D02*X215350Y277650D01*
X216550Y278150D02*X217050Y277650D01*
X216550Y278950D02*Y278150D01*
Y278950D02*X217250Y279650D01*
X217850D01*
X218550Y278950D01*
Y278150D01*
X218050Y277650D02*X218550Y278150D01*
X217050Y277650D02*X218050D01*
X216550Y280350D02*X217250Y279650D01*
X216550Y281150D02*Y280350D01*
Y281150D02*X217050Y281650D01*
X218050D01*
X218550Y281150D01*
Y280350D01*
X217850Y279650D02*X218550Y280350D01*
X219750Y278150D02*X220250Y277650D01*
X219750Y281150D02*Y278150D01*
Y281150D02*X220250Y281650D01*
X221250D01*
X221750Y281150D01*
Y278150D01*
X221250Y277650D02*X221750Y278150D01*
X220250Y277650D02*X221250D01*
X219750Y278650D02*X221750Y280650D01*
X222950Y281150D02*X223450Y281650D01*
X224950D01*
X225450Y281150D01*
Y280150D01*
X222950Y277650D02*X225450Y280150D01*
X222950Y277650D02*X225450D01*
X239746Y299874D02*Y301174D01*
X239046Y299174D02*X239746Y299874D01*
X236446Y299174D02*X239046D01*
X236446D02*X235746Y299874D01*
Y301174D01*
X239246Y302374D02*X239746Y302874D01*
X238446Y302374D02*X239246D01*
X238446D02*X237746Y303074D01*
Y303674D01*
X238446Y304374D01*
X239246D01*
X239746Y303874D02*X239246Y304374D01*
X239746Y302874D02*Y303874D01*
X237046Y302374D02*X237746Y303074D01*
X236246Y302374D02*X237046D01*
X236246D02*X235746Y302874D01*
Y303874D01*
X236246Y304374D01*
X237046D01*
X237746Y303674D02*X237046Y304374D01*
X235746Y305574D02*Y307574D01*
Y305574D02*X237746D01*
X237246Y306074D01*
Y307074D01*
X237746Y307574D01*
X239246D01*
X239746Y307074D02*X239246Y307574D01*
X239746Y306074D02*Y307074D01*
X239246Y305574D02*X239746Y306074D01*
X239246Y308774D02*X239746Y309274D01*
X236246Y308774D02*X239246D01*
X236246D02*X235746Y309274D01*
Y310274D01*
X236246Y310774D01*
X239246D01*
X239746Y310274D02*X239246Y310774D01*
X239746Y309274D02*Y310274D01*
X238746Y308774D02*X236746Y310774D01*
X170000Y213700D02*X171500D01*
X170000Y211500D02*X172000D01*
X170000Y215500D02*Y211500D01*
Y215500D02*X172000D01*
X174700Y213500D02*X175200Y213000D01*
X173700Y213500D02*X174700D01*
X173200Y213000D02*X173700Y213500D01*
X173200Y213000D02*Y212000D01*
X173700Y211500D01*
X175200Y213500D02*Y212000D01*
X175700Y211500D01*
X173700D02*X174700D01*
X175200Y212000D01*
X177400Y215500D02*Y212000D01*
X177900Y211500D01*
X176900Y214000D02*X177900D01*
X178900Y213000D02*Y212000D01*
Y213000D02*X179400Y213500D01*
X180400D01*
X180900Y213000D01*
Y212000D01*
X180400Y211500D02*X180900Y212000D01*
X179400Y211500D02*X180400D01*
X178900Y212000D02*X179400Y211500D01*
X182600Y213000D02*Y211500D01*
Y213000D02*X183100Y213500D01*
X183600D01*
X184100Y213000D01*
Y211500D01*
X182100Y213500D02*X182600Y213000D01*
X187600Y215500D02*Y211500D01*
X187100Y215500D02*X189100D01*
X189600Y215000D01*
Y214000D01*
X189100Y213500D02*X189600Y214000D01*
X187600Y213500D02*X189100D01*
X191300Y211500D02*X192800D01*
X190800Y212000D02*X191300Y211500D01*
X190800Y213000D02*Y212000D01*
Y213000D02*X191300Y213500D01*
X192300D01*
X192800Y213000D01*
X190800Y212500D02*X192800D01*
Y213000D01*
X195500Y213500D02*X196000Y213000D01*
X194500Y213500D02*X195500D01*
X194000Y213000D02*X194500Y213500D01*
X194000Y213000D02*Y212000D01*
X194500Y211500D01*
X196000Y213500D02*Y212000D01*
X196500Y211500D01*
X194500D02*X195500D01*
X196000Y212000D01*
X197700Y215500D02*Y211500D01*
Y212000D02*X198200Y211500D01*
X199200D01*
X199700Y212000D01*
Y213000D02*Y212000D01*
X199200Y213500D02*X199700Y213000D01*
X198200Y213500D02*X199200D01*
X197700Y213000D02*X198200Y213500D01*
X200900Y213000D02*Y212000D01*
Y213000D02*X201400Y213500D01*
X202400D01*
X202900Y213000D01*
Y212000D01*
X202400Y211500D02*X202900Y212000D01*
X201400Y211500D02*X202400D01*
X200900Y212000D02*X201400Y211500D01*
X206100Y215500D02*Y211500D01*
X205600D02*X206100Y212000D01*
X204600Y211500D02*X205600D01*
X204100Y212000D02*X204600Y211500D01*
X204100Y213000D02*Y212000D01*
Y213000D02*X204600Y213500D01*
X205600D01*
X206100Y213000D01*
X207300Y213500D02*Y212000D01*
X207800Y211500D01*
X209300Y213500D02*Y210500D01*
X208800Y210000D02*X209300Y210500D01*
X207800Y210000D02*X208800D01*
X207300Y210500D02*X207800Y210000D01*
Y211500D02*X208800D01*
X209300Y212000D01*
X212300Y215500D02*Y211500D01*
X214300D01*
X217000Y213500D02*X217500Y213000D01*
X216000Y213500D02*X217000D01*
X215500Y213000D02*X216000Y213500D01*
X215500Y213000D02*Y212000D01*
X216000Y211500D01*
X217500Y213500D02*Y212000D01*
X218000Y211500D01*
X216000D02*X217000D01*
X217500Y212000D01*
X219200Y215500D02*Y211500D01*
Y212000D02*X219700Y211500D01*
X220700D01*
X221200Y212000D01*
Y213000D02*Y212000D01*
X220700Y213500D02*X221200Y213000D01*
X219700Y213500D02*X220700D01*
X219200Y213000D02*X219700Y213500D01*
X169500Y197500D02*X171500D01*
X172000Y198000D01*
Y199200D02*Y198000D01*
X171500Y199700D02*X172000Y199200D01*
X170000Y199700D02*X171500D01*
X170000Y201500D02*Y197500D01*
X169500Y201500D02*X171500D01*
X172000Y201000D01*
Y200200D01*
X171500Y199700D02*X172000Y200200D01*
X173200Y199500D02*Y198000D01*
X173700Y197500D01*
X175200Y199500D02*Y196500D01*
X174700Y196000D02*X175200Y196500D01*
X173700Y196000D02*X174700D01*
X173200Y196500D02*X173700Y196000D01*
Y197500D02*X174700D01*
X175200Y198000D01*
X178200Y199700D02*X179700D01*
X178200Y197500D02*X180200D01*
X178200Y201500D02*Y197500D01*
Y201500D02*X180200D01*
X181400Y199500D02*X182400Y197500D01*
X183400Y199500D02*X182400Y197500D01*
X186100Y199500D02*X186600Y199000D01*
X185100Y199500D02*X186100D01*
X184600Y199000D02*X185100Y199500D01*
X184600Y199000D02*Y198000D01*
X185100Y197500D01*
X186600Y199500D02*Y198000D01*
X187100Y197500D01*
X185100D02*X186100D01*
X186600Y198000D01*
X188800Y199000D02*Y197500D01*
Y199000D02*X189300Y199500D01*
X189800D01*
X190300Y199000D01*
Y197500D01*
X188300Y199500D02*X188800Y199000D01*
X193300Y201500D02*Y197500D01*
Y201500D02*X195300D01*
X193300Y199700D02*X194800D01*
X196500Y199000D02*Y198000D01*
Y199000D02*X197000Y199500D01*
X198000D01*
X198500Y199000D01*
Y198000D01*
X198000Y197500D02*X198500Y198000D01*
X197000Y197500D02*X198000D01*
X196500Y198000D02*X197000Y197500D01*
X200200D02*X201700D01*
X202200Y198000D01*
X201700Y198500D02*X202200Y198000D01*
X200200Y198500D02*X201700D01*
X199700Y199000D02*X200200Y198500D01*
X199700Y199000D02*X200200Y199500D01*
X201700D01*
X202200Y199000D01*
X199700Y198000D02*X200200Y197500D01*
X203900D02*X205400D01*
X205900Y198000D01*
X205400Y198500D02*X205900Y198000D01*
X203900Y198500D02*X205400D01*
X203400Y199000D02*X203900Y198500D01*
X203400Y199000D02*X203900Y199500D01*
X205400D01*
X205900Y199000D01*
X203400Y198000D02*X203900Y197500D01*
X228944Y267260D02*X230244D01*
X228244Y267960D02*X228944Y267260D01*
X228244Y270560D02*Y267960D01*
Y270560D02*X228944Y271260D01*
X230244D01*
X231444Y267760D02*X231944Y267260D01*
X231444Y268560D02*Y267760D01*
Y268560D02*X232144Y269260D01*
X232744D01*
X233444Y268560D01*
Y267760D01*
X232944Y267260D02*X233444Y267760D01*
X231944Y267260D02*X232944D01*
X231444Y269960D02*X232144Y269260D01*
X231444Y270760D02*Y269960D01*
Y270760D02*X231944Y271260D01*
X232944D01*
X233444Y270760D01*
Y269960D01*
X232744Y269260D02*X233444Y269960D01*
X234644Y267760D02*X235144Y267260D01*
X234644Y270760D02*Y267760D01*
Y270760D02*X235144Y271260D01*
X236144D01*
X236644Y270760D01*
Y267760D01*
X236144Y267260D02*X236644Y267760D01*
X235144Y267260D02*X236144D01*
X234644Y268260D02*X236644Y270260D01*
X237844Y270460D02*X238644Y271260D01*
Y267260D01*
X237844D02*X239344D01*
X190246Y278440D02*Y279740D01*
X189546Y277740D02*X190246Y278440D01*
X186946Y277740D02*X189546D01*
X186946D02*X186246Y278440D01*
Y279740D01*
X189746Y280940D02*X190246Y281440D01*
X188946Y280940D02*X189746D01*
X188946D02*X188246Y281640D01*
Y282240D01*
X188946Y282940D01*
X189746D01*
X190246Y282440D02*X189746Y282940D01*
X190246Y281440D02*Y282440D01*
X187546Y280940D02*X188246Y281640D01*
X186746Y280940D02*X187546D01*
X186746D02*X186246Y281440D01*
Y282440D01*
X186746Y282940D01*
X187546D01*
X188246Y282240D02*X187546Y282940D01*
X186246Y284140D02*Y286140D01*
Y284140D02*X188246D01*
X187746Y284640D01*
Y285640D01*
X188246Y286140D01*
X189746D01*
X190246Y285640D02*X189746Y286140D01*
X190246Y284640D02*Y285640D01*
X189746Y284140D02*X190246Y284640D01*
X187046Y287340D02*X186246Y288140D01*
X190246D01*
Y287340D02*Y288840D01*
X166307Y239264D02*Y241264D01*
X166807Y241764D01*
X167807D01*
X168307Y241264D02*X167807Y241764D01*
X168307Y239764D02*Y241264D01*
X166307Y239764D02*X170307D01*
X168307Y240564D02*X170307Y241764D01*
X169807Y242964D02*X170307Y243464D01*
X169007Y242964D02*X169807D01*
X169007D02*X168307Y243664D01*
Y244264D01*
X169007Y244964D01*
X169807D01*
X170307Y244464D02*X169807Y244964D01*
X170307Y243464D02*Y244464D01*
X167607Y242964D02*X168307Y243664D01*
X166807Y242964D02*X167607D01*
X166807D02*X166307Y243464D01*
Y244464D01*
X166807Y244964D01*
X167607D01*
X168307Y244264D02*X167607Y244964D01*
X169807Y246164D02*X170307Y246664D01*
X166807Y246164D02*X169807D01*
X166807D02*X166307Y246664D01*
Y247664D01*
X166807Y248164D01*
X169807D01*
X170307Y247664D02*X169807Y248164D01*
X170307Y246664D02*Y247664D01*
X169307Y246164D02*X167307Y248164D01*
X166807Y249364D02*X166307Y249864D01*
Y250864D01*
X166807Y251364D01*
X170307Y250864D02*X169807Y251364D01*
X170307Y249864D02*Y250864D01*
X169807Y249364D02*X170307Y249864D01*
X168107D02*Y250864D01*
X166807Y251364D02*X167607D01*
X168607D02*X169807D01*
X168607D02*X168107Y250864D01*
X167607Y251364D02*X168107Y250864D01*
X165307Y236650D02*X167307D01*
X167807Y236150D01*
Y235150D01*
X167307Y234650D02*X167807Y235150D01*
X165807Y234650D02*X167307D01*
X165807Y236650D02*Y232650D01*
X166607Y234650D02*X167807Y232650D01*
X169007Y233150D02*X169507Y232650D01*
X169007Y233950D02*Y233150D01*
Y233950D02*X169707Y234650D01*
X170307D01*
X171007Y233950D01*
Y233150D01*
X170507Y232650D02*X171007Y233150D01*
X169507Y232650D02*X170507D01*
X169007Y235350D02*X169707Y234650D01*
X169007Y236150D02*Y235350D01*
Y236150D02*X169507Y236650D01*
X170507D01*
X171007Y236150D01*
Y235350D01*
X170307Y234650D02*X171007Y235350D01*
X172207Y233150D02*X172707Y232650D01*
X172207Y236150D02*Y233150D01*
Y236150D02*X172707Y236650D01*
X173707D01*
X174207Y236150D01*
Y233150D01*
X173707Y232650D02*X174207Y233150D01*
X172707Y232650D02*X173707D01*
X172207Y233650D02*X174207Y235650D01*
X175407Y235850D02*X176207Y236650D01*
Y232650D01*
X175407D02*X176907D01*
X211651Y345450D02*X212151Y344950D01*
X210151Y345450D02*X211651D01*
X209651Y344950D02*X210151Y345450D01*
X209651Y344950D02*Y343950D01*
X210151Y343450D01*
X211651D01*
X212151Y342950D01*
Y341950D01*
X211651Y341450D02*X212151Y341950D01*
X210151Y341450D02*X211651D01*
X209651Y341950D02*X210151Y341450D01*
X213351Y341950D02*X213851Y341450D01*
X213351Y342750D02*Y341950D01*
Y342750D02*X214051Y343450D01*
X214651D01*
X215351Y342750D01*
Y341950D01*
X214851Y341450D02*X215351Y341950D01*
X213851Y341450D02*X214851D01*
X213351Y344150D02*X214051Y343450D01*
X213351Y344950D02*Y344150D01*
Y344950D02*X213851Y345450D01*
X214851D01*
X215351Y344950D01*
Y344150D01*
X214651Y343450D02*X215351Y344150D01*
X216551Y341950D02*X217051Y341450D01*
X216551Y344950D02*Y341950D01*
Y344950D02*X217051Y345450D01*
X218051D01*
X218551Y344950D01*
Y341950D01*
X218051Y341450D02*X218551Y341950D01*
X217051Y341450D02*X218051D01*
X216551Y342450D02*X218551Y344450D01*
X219751Y344650D02*X220551Y345450D01*
Y341450D01*
X219751D02*X221251D01*
X170000Y194000D02*X170500Y194500D01*
X172000D01*
X172500Y194000D01*
Y193000D01*
X170000Y190500D02*X172500Y193000D01*
X170000Y190500D02*X172500D01*
X173700Y191000D02*X174200Y190500D01*
X173700Y194000D02*Y191000D01*
Y194000D02*X174200Y194500D01*
X175200D01*
X175700Y194000D01*
Y191000D01*
X175200Y190500D02*X175700Y191000D01*
X174200Y190500D02*X175200D01*
X173700Y191500D02*X175700Y193500D01*
X176900Y194000D02*X177400Y194500D01*
X178900D01*
X179400Y194000D01*
Y193000D01*
X176900Y190500D02*X179400Y193000D01*
X176900Y190500D02*X179400D01*
X180600Y193700D02*X181400Y194500D01*
Y190500D01*
X180600D02*X182100D01*
X183300D02*X183800D01*
X185000Y191000D02*X185500Y190500D01*
X185000Y194000D02*Y191000D01*
Y194000D02*X185500Y194500D01*
X186500D01*
X187000Y194000D01*
Y191000D01*
X186500Y190500D02*X187000Y191000D01*
X185500Y190500D02*X186500D01*
X185000Y191500D02*X187000Y193500D01*
X188200Y194500D02*X190200D01*
X188200D02*Y192500D01*
X188700Y193000D01*
X189700D01*
X190200Y192500D01*
Y191000D01*
X189700Y190500D02*X190200Y191000D01*
X188700Y190500D02*X189700D01*
X188200Y191000D02*X188700Y190500D01*
X191400D02*X191900D01*
X193100Y191000D02*X193600Y190500D01*
X193100Y194000D02*Y191000D01*
Y194000D02*X193600Y194500D01*
X194600D01*
X195100Y194000D01*
Y191000D01*
X194600Y190500D02*X195100Y191000D01*
X193600Y190500D02*X194600D01*
X193100Y191500D02*X195100Y193500D01*
X196800Y190500D02*X198800Y194500D01*
X196300D02*X198800D01*
X169500Y204500D02*X171500D01*
X172000Y205000D01*
Y206200D02*Y205000D01*
X171500Y206700D02*X172000Y206200D01*
X170000Y206700D02*X171500D01*
X170000Y208500D02*Y204500D01*
X169500Y208500D02*X171500D01*
X172000Y208000D01*
Y207200D01*
X171500Y206700D02*X172000Y207200D01*
X173200Y207500D02*Y207400D01*
Y206000D02*Y204500D01*
X174200Y206000D02*Y205000D01*
Y206000D02*X174700Y206500D01*
X175700D01*
X176200Y206000D01*
Y205000D01*
X175700Y204500D02*X176200Y205000D01*
X174700Y204500D02*X175700D01*
X174200Y205000D02*X174700Y204500D01*
X177400Y207500D02*Y204500D01*
Y207500D02*X178100Y208500D01*
X179200D01*
X179900Y207500D01*
Y204500D01*
X177400Y206500D02*X179900D01*
X181600Y206000D02*Y204500D01*
Y206000D02*X182100Y206500D01*
X182600D01*
X183100Y206000D01*
Y204500D01*
Y206000D02*X183600Y206500D01*
X184100D01*
X184600Y206000D01*
Y204500D01*
X181100Y206500D02*X181600Y206000D01*
X186300D02*Y203000D01*
X185800Y206500D02*X186300Y206000D01*
X186800Y206500D01*
X187800D01*
X188300Y206000D01*
Y205000D01*
X187800Y204500D02*X188300Y205000D01*
X186800Y204500D02*X187800D01*
X186300Y205000D02*X186800Y204500D01*
X191300Y208500D02*Y207500D01*
X192300Y208500D02*Y207500D01*
X194200Y204500D02*X195500D01*
X193500Y205200D02*X194200Y204500D01*
X193500Y207800D02*Y205200D01*
Y207800D02*X194200Y208500D01*
X195500D01*
X196700D02*Y204500D01*
Y206000D02*X197200Y206500D01*
X198200D01*
X198700Y206000D01*
Y204500D01*
X200400D02*X201900D01*
X199900Y205000D02*X200400Y204500D01*
X199900Y206000D02*Y205000D01*
Y206000D02*X200400Y206500D01*
X201400D01*
X201900Y206000D01*
X199900Y205500D02*X201900D01*
Y206000D01*
X204600Y206500D02*X205100Y206000D01*
X203600Y206500D02*X204600D01*
X203100Y206000D02*X203600Y206500D01*
X203100Y206000D02*Y205000D01*
X203600Y204500D01*
X205100Y206500D02*Y205000D01*
X205600Y204500D01*
X203600D02*X204600D01*
X205100Y205000D01*
X207300Y206000D02*Y203000D01*
X206800Y206500D02*X207300Y206000D01*
X207800Y206500D01*
X208800D01*
X209300Y206000D01*
Y205000D01*
X208800Y204500D02*X209300Y205000D01*
X207800Y204500D02*X208800D01*
X207300Y205000D02*X207800Y204500D01*
X210500Y208500D02*Y207500D01*
X211500Y208500D02*Y207500D01*
X214500Y208000D02*Y205000D01*
Y208000D02*X215000Y208500D01*
X216000D01*
X216500Y208000D01*
Y205000D01*
X216000Y204500D02*X216500Y205000D01*
X215000Y204500D02*X216000D01*
X214500Y205000D02*X215000Y204500D01*
X218200Y206000D02*Y203000D01*
X217700Y206500D02*X218200Y206000D01*
X218700Y206500D01*
X219700D01*
X220200Y206000D01*
Y205000D01*
X219700Y204500D02*X220200Y205000D01*
X218700Y204500D02*X219700D01*
X218200Y205000D02*X218700Y204500D01*
X221900Y208500D02*Y205000D01*
X222400Y204500D01*
X221400Y207000D02*X222400D01*
X223400Y207500D02*Y207400D01*
Y206000D02*Y204500D01*
X224400Y206000D02*Y205000D01*
Y206000D02*X224900Y206500D01*
X225900D01*
X226400Y206000D01*
Y205000D01*
X225900Y204500D02*X226400Y205000D01*
X224900Y204500D02*X225900D01*
X224400Y205000D02*X224900Y204500D01*
X228100Y206000D02*Y204500D01*
Y206000D02*X228600Y206500D01*
X229100D01*
X229600Y206000D01*
Y204500D01*
X227600Y206500D02*X228100Y206000D01*
X230800Y207000D02*X231300D01*
X230800Y206000D02*X231300D01*
X234300Y208500D02*Y204500D01*
Y208500D02*X236800Y204500D01*
Y208500D02*Y204500D01*
X238000Y206000D02*Y205000D01*
Y206000D02*X238500Y206500D01*
X239500D01*
X240000Y206000D01*
Y205000D01*
X239500Y204500D02*X240000Y205000D01*
X238500Y204500D02*X239500D01*
X238000Y205000D02*X238500Y204500D01*
X241700Y208500D02*Y205000D01*
X242200Y204500D01*
X241200Y207000D02*X242200D01*
X243700Y206500D02*X245200D01*
X243200Y206000D02*X243700Y206500D01*
X243200Y206000D02*Y205000D01*
X243700Y204500D01*
X245200D01*
X246400Y208500D02*Y204500D01*
Y206000D02*X246900Y206500D01*
X247900D01*
X248400Y206000D01*
Y204500D01*
X251400Y208500D02*Y204500D01*
Y208500D02*X253400D01*
X251400Y206700D02*X252900D01*
X254600Y207500D02*Y207400D01*
Y206000D02*Y204500D01*
X255600Y208500D02*Y205000D01*
X256100Y204500D01*
X257600Y208500D02*Y205000D01*
X258100Y204500D01*
X257100Y207000D02*X258100D01*
X259600Y204500D02*X261100D01*
X259100Y205000D02*X259600Y204500D01*
X259100Y206000D02*Y205000D01*
Y206000D02*X259600Y206500D01*
X260600D01*
X261100Y206000D01*
X259100Y205500D02*X261100D01*
Y206000D01*
X262800D02*Y204500D01*
Y206000D02*X263300Y206500D01*
X264300D01*
X262300D02*X262800Y206000D01*
X259200Y279500D02*X260500D01*
X258500Y280200D02*X259200Y279500D01*
X258500Y282800D02*Y280200D01*
Y282800D02*X259200Y283500D01*
X260500D01*
X261700Y283000D02*Y280000D01*
Y283000D02*X262200Y283500D01*
X263200D01*
X263700Y283000D01*
Y280000D01*
X263200Y279500D02*X263700Y280000D01*
X262200Y279500D02*X263200D01*
X261700Y280000D02*X262200Y279500D01*
X264900Y283500D02*Y279500D01*
Y283500D02*X267400Y279500D01*
Y283500D02*Y279500D01*
X268600Y283500D02*Y279500D01*
Y283500D02*X271100Y279500D01*
Y283500D02*Y279500D01*
X272300Y280000D02*X272800Y279500D01*
X272300Y280800D02*Y280000D01*
Y280800D02*X273000Y281500D01*
X273600D01*
X274300Y280800D01*
Y280000D01*
X273800Y279500D02*X274300Y280000D01*
X272800Y279500D02*X273800D01*
X272300Y282200D02*X273000Y281500D01*
X272300Y283000D02*Y282200D01*
Y283000D02*X272800Y283500D01*
X273800D01*
X274300Y283000D01*
Y282200D01*
X273600Y281500D02*X274300Y282200D01*
X277000Y283500D02*X277500Y283000D01*
X276000Y283500D02*X277000D01*
X275500Y283000D02*X276000Y283500D01*
X275500Y283000D02*Y280000D01*
X276000Y279500D01*
X277000Y281700D02*X277500Y281200D01*
X275500Y281700D02*X277000D01*
X276000Y279500D02*X277000D01*
X277500Y280000D01*
Y281200D02*Y280000D01*
X278700Y283000D02*X279200Y283500D01*
X280700D01*
X281200Y283000D01*
Y282000D01*
X278700Y279500D02*X281200Y282000D01*
X278700Y279500D02*X281200D01*
X253890Y299855D02*Y301155D01*
X253190Y299155D02*X253890Y299855D01*
X250590Y299155D02*X253190D01*
X250590D02*X249890Y299855D01*
Y301155D01*
X253390Y302355D02*X253890Y302855D01*
X252590Y302355D02*X253390D01*
X252590D02*X251890Y303055D01*
Y303655D01*
X252590Y304355D01*
X253390D01*
X253890Y303855D02*X253390Y304355D01*
X253890Y302855D02*Y303855D01*
X251190Y302355D02*X251890Y303055D01*
X250390Y302355D02*X251190D01*
X250390D02*X249890Y302855D01*
Y303855D01*
X250390Y304355D01*
X251190D01*
X251890Y303655D02*X251190Y304355D01*
X249890Y305555D02*Y307555D01*
Y305555D02*X251890D01*
X251390Y306055D01*
Y307055D01*
X251890Y307555D01*
X253390D01*
X253890Y307055D02*X253390Y307555D01*
X253890Y306055D02*Y307055D01*
X253390Y305555D02*X253890Y306055D01*
X250390Y308755D02*X249890Y309255D01*
Y310255D01*
X250390Y310755D01*
X253890Y310255D02*X253390Y310755D01*
X253890Y309255D02*Y310255D01*
X253390Y308755D02*X253890Y309255D01*
X251690D02*Y310255D01*
X250390Y310755D02*X251190D01*
X252190D02*X253390D01*
X252190D02*X251690Y310255D01*
X251190Y310755D02*X251690Y310255D01*
X148000Y177700D02*Y179000D01*
X147300Y177000D02*X148000Y177700D01*
X144700Y177000D02*X147300D01*
X144700D02*X144000Y177700D01*
Y179000D01*
X144500Y180200D02*X147500D01*
X144500D02*X144000Y180700D01*
Y181700D01*
X144500Y182200D01*
X147500D01*
X148000Y181700D02*X147500Y182200D01*
X148000Y180700D02*Y181700D01*
X147500Y180200D02*X148000Y180700D01*
X144000Y183400D02*X148000D01*
X144000D02*X148000Y185900D01*
X144000D02*X148000D01*
X144000Y187100D02*X148000D01*
X144000D02*X148000Y189600D01*
X144000D02*X148000D01*
X147500Y190800D02*X148000Y191300D01*
X146700Y190800D02*X147500D01*
X146700D02*X146000Y191500D01*
Y192100D01*
X146700Y192800D01*
X147500D01*
X148000Y192300D02*X147500Y192800D01*
X148000Y191300D02*Y192300D01*
X145300Y190800D02*X146000Y191500D01*
X144500Y190800D02*X145300D01*
X144500D02*X144000Y191300D01*
Y192300D01*
X144500Y192800D01*
X145300D01*
X146000Y192100D02*X145300Y192800D01*
X144800Y194000D02*X144000Y194800D01*
X148000D01*
Y194000D02*Y195500D01*
X144800Y196700D02*X144000Y197500D01*
X148000D01*
Y196700D02*Y198200D01*
X168000Y277200D02*Y278500D01*
X167300Y276500D02*X168000Y277200D01*
X164700Y276500D02*X167300D01*
X164700D02*X164000Y277200D01*
Y278500D01*
X164500Y279700D02*X167500D01*
X164500D02*X164000Y280200D01*
Y281200D01*
X164500Y281700D01*
X167500D01*
X168000Y281200D02*X167500Y281700D01*
X168000Y280200D02*Y281200D01*
X167500Y279700D02*X168000Y280200D01*
X164000Y282900D02*X168000D01*
X164000D02*X168000Y285400D01*
X164000D02*X168000D01*
X164000Y286600D02*X168000D01*
X164000D02*X168000Y289100D01*
X164000D02*X168000D01*
X167500Y290300D02*X168000Y290800D01*
X166700Y290300D02*X167500D01*
X166700D02*X166000Y291000D01*
Y291600D01*
X166700Y292300D01*
X167500D01*
X168000Y291800D02*X167500Y292300D01*
X168000Y290800D02*Y291800D01*
X165300Y290300D02*X166000Y291000D01*
X164500Y290300D02*X165300D01*
X164500D02*X164000Y290800D01*
Y291800D01*
X164500Y292300D01*
X165300D01*
X166000Y291600D02*X165300Y292300D01*
X166500Y293500D02*X164000Y295500D01*
X166500Y293500D02*Y296000D01*
X164000Y295500D02*X168000D01*
X164800Y297200D02*X164000Y298000D01*
X168000D01*
Y297200D02*Y298700D01*
X150653Y326000D02*X151953D01*
X149953Y326700D02*X150653Y326000D01*
X149953Y329300D02*Y326700D01*
Y329300D02*X150653Y330000D01*
X151953D01*
X153153Y326500D02*X153653Y326000D01*
X153153Y327300D02*Y326500D01*
Y327300D02*X153853Y328000D01*
X154453D01*
X155153Y327300D01*
Y326500D01*
X154653Y326000D02*X155153Y326500D01*
X153653Y326000D02*X154653D01*
X153153Y328700D02*X153853Y328000D01*
X153153Y329500D02*Y328700D01*
Y329500D02*X153653Y330000D01*
X154653D01*
X155153Y329500D01*
Y328700D01*
X154453Y328000D02*X155153Y328700D01*
X156353Y330000D02*X158353D01*
X156353D02*Y328000D01*
X156853Y328500D01*
X157853D01*
X158353Y328000D01*
Y326500D01*
X157853Y326000D02*X158353Y326500D01*
X156853Y326000D02*X157853D01*
X156353Y326500D02*X156853Y326000D01*
X159553Y329500D02*X160053Y330000D01*
X161553D01*
X162053Y329500D01*
Y328500D01*
X159553Y326000D02*X162053Y328500D01*
X159553Y326000D02*X162053D01*
X152307Y239350D02*Y241350D01*
X152807Y241850D01*
X153807D01*
X154307Y241350D02*X153807Y241850D01*
X154307Y239850D02*Y241350D01*
X152307Y239850D02*X156307D01*
X154307Y240650D02*X156307Y241850D01*
X155807Y243050D02*X156307Y243550D01*
X155007Y243050D02*X155807D01*
X155007D02*X154307Y243750D01*
Y244350D01*
X155007Y245050D01*
X155807D01*
X156307Y244550D02*X155807Y245050D01*
X156307Y243550D02*Y244550D01*
X153607Y243050D02*X154307Y243750D01*
X152807Y243050D02*X153607D01*
X152807D02*X152307Y243550D01*
Y244550D01*
X152807Y245050D01*
X153607D01*
X154307Y244350D02*X153607Y245050D01*
X155807Y246250D02*X156307Y246750D01*
X152807Y246250D02*X155807D01*
X152807D02*X152307Y246750D01*
Y247750D01*
X152807Y248250D01*
X155807D01*
X156307Y247750D02*X155807Y248250D01*
X156307Y246750D02*Y247750D01*
X155307Y246250D02*X153307Y248250D01*
X155807Y249450D02*X156307Y249950D01*
X152807Y249450D02*X155807D01*
X152807D02*X152307Y249950D01*
Y250950D01*
X152807Y251450D01*
X155807D01*
X156307Y250950D02*X155807Y251450D01*
X156307Y249950D02*Y250950D01*
X155307Y249450D02*X153307Y251450D01*
X138000Y257200D02*Y258500D01*
X137300Y256500D02*X138000Y257200D01*
X134700Y256500D02*X137300D01*
X134700D02*X134000Y257200D01*
Y258500D01*
X134500Y259700D02*X137500D01*
X134500D02*X134000Y260200D01*
Y261200D01*
X134500Y261700D01*
X137500D01*
X138000Y261200D02*X137500Y261700D01*
X138000Y260200D02*Y261200D01*
X137500Y259700D02*X138000Y260200D01*
X134000Y262900D02*X138000D01*
X134000D02*X138000Y265400D01*
X134000D02*X138000D01*
X134000Y266600D02*X138000D01*
X134000D02*X138000Y269100D01*
X134000D02*X138000D01*
X137500Y270300D02*X138000Y270800D01*
X136700Y270300D02*X137500D01*
X136700D02*X136000Y271000D01*
Y271600D01*
X136700Y272300D01*
X137500D01*
X138000Y271800D02*X137500Y272300D01*
X138000Y270800D02*Y271800D01*
X135300Y270300D02*X136000Y271000D01*
X134500Y270300D02*X135300D01*
X134500D02*X134000Y270800D01*
Y271800D01*
X134500Y272300D01*
X135300D01*
X136000Y271600D02*X135300Y272300D01*
X134000Y275000D02*X134500Y275500D01*
X134000Y274000D02*Y275000D01*
X134500Y273500D02*X134000Y274000D01*
X134500Y273500D02*X137500D01*
X138000Y274000D01*
X135800Y275000D02*X136300Y275500D01*
X135800Y273500D02*Y275000D01*
X138000Y274000D02*Y275000D01*
X137500Y275500D01*
X136300D02*X137500D01*
X134500Y276700D02*X134000Y277200D01*
Y278200D01*
X134500Y278700D01*
X138000Y278200D02*X137500Y278700D01*
X138000Y277200D02*Y278200D01*
X137500Y276700D02*X138000Y277200D01*
X135800D02*Y278200D01*
X134500Y278700D02*X135300D01*
X136300D02*X137500D01*
X136300D02*X135800Y278200D01*
X135300Y278700D02*X135800Y278200D01*
M02*
