M48
INCH
T20C0.042
T19C0.037
T18C0.028
T17C0.060
T16C0.030
T15C0.026
T14C0.039
T13C0.020
T12C0.035
T11C0.079
%
T13
G05
X010500Y032400
X022850Y028150
X021750Y028150
X017550Y027550
X016150Y027550
T15
X012800Y030350
X010500Y026931
X010500Y028900
X012800Y028381
T18
X031298Y027965
X032282Y027965
X034118Y026465
X035102Y026465
X034116Y029700
X035100Y029700
T16
X020766Y029300
X022734Y029300
T12
X015300Y034950
X015300Y036450
X011979Y034800
X011349Y035800
X010719Y034800
X033550Y035150
X032550Y035150
X018519Y025469
X023831Y027590
X020000Y031300
X016850Y023300
X018200Y023300
X024550Y021800
X018169Y019819
T19
X015550Y025450
X015550Y019544
T14
X019800Y037200
X019800Y036200
X019800Y035200
X022800Y037200
X022800Y036200
X026700Y037200
X026700Y035700
X022800Y035200
X019800Y034200
X022800Y034200
X028300Y038050
T20
X030500Y022850
X029500Y022850
X028500Y022850
X027500Y022850
X026500Y022850
X035967Y022843
X034967Y022843
X033967Y022843
X032967Y022843
X031967Y022843
T17
X026200Y030950
X026200Y029100
X029300Y025150
X013300Y018650
T11
X009349Y037300
X013349Y037300
X031550Y037150
X035550Y037150
M30
