G04 start of page 2 for group 2 layer_idx 13 *
G04 Title: (unknown), top_mask *
G04 Creator: pcb-rnd 2.2.1 *
G04 CreationDate: 2020-06-04 19:14:55 UTC *
G04 For:  *
G04 Format: Gerber/RS-274X *
G04 PCB-Dimensions: 500000 500000 *
G04 PCB-Coordinate-Origin: lower left *
%MOIN*%
%FSLAX25Y25*%
%LNTOP_MASK_NONE_2*%
%ADD80C,0.1083*%
%ADD79C,0.0660*%
%ADD78C,0.0759*%
%ADD77C,0.1639*%
%ADD76C,0.0630*%
%ADD75C,0.0886*%
%ADD74C,0.1678*%
%ADD73C,0.0846*%
%ADD72C,0.0890*%
%ADD71C,0.0860*%
%ADD70C,0.0001*%
G54D70*G36*
X365500Y308000D02*X367000Y306500D01*
Y301000D01*
X365500Y299500D01*
X346500D01*
X345000Y301000D01*
Y306500D01*
X346500Y308000D01*
X365500D01*
G37*
G54D71*X152000Y232000D03*
G54D70*G36*
X117316Y246007D02*X111598D01*
Y237927D01*
X117316D01*
Y246007D01*
G37*
G36*
X129126D02*X123408D01*
Y237927D01*
X129126D01*
Y246007D01*
G37*
G54D71*X182000Y242000D03*
Y232000D03*
Y222000D03*
G54D70*G36*
X210626Y236007D02*X204908D01*
Y227927D01*
X210626D01*
Y236007D01*
G37*
G36*
X222436D02*X216718D01*
Y227927D01*
X222436D01*
Y236007D01*
G37*
G36*
X210626Y221007D02*X204908D01*
Y212927D01*
X210626D01*
Y221007D01*
G37*
G36*
X222436D02*X216718D01*
Y212927D01*
X222436D01*
Y221007D01*
G37*
G54D71*X152000Y222000D03*
X182000Y212000D03*
G54D70*G36*
X117316Y231007D02*X111598D01*
Y222927D01*
X117316D01*
Y231007D01*
G37*
G36*
Y216007D02*X111598D01*
Y207927D01*
X117316D01*
Y216007D01*
G37*
G36*
X129126Y231007D02*X123408D01*
Y222927D01*
X129126D01*
Y231007D01*
G37*
G36*
Y216007D02*X123408D01*
Y207927D01*
X129126D01*
Y216007D01*
G37*
G36*
X209748Y352316D02*Y346598D01*
X216252D01*
Y352316D01*
X209748D01*
G37*
G36*
Y359402D02*Y353684D01*
X216252D01*
Y359402D01*
X209748D01*
G37*
G36*
X204316Y338252D02*X198598D01*
Y331748D01*
X204316D01*
Y338252D01*
G37*
G36*
X211402D02*X205684D01*
Y331748D01*
X211402D01*
Y338252D01*
G37*
G36*
X214954Y316040D02*X209236D01*
Y307960D01*
X214954D01*
Y316040D01*
G37*
G36*
X226764D02*X221046D01*
Y307960D01*
X226764D01*
Y316040D01*
G37*
G36*
X214859Y299040D02*X209141D01*
Y290960D01*
X214859D01*
Y299040D01*
G37*
G36*
X226669D02*X220951D01*
Y290960D01*
X226669D01*
Y299040D01*
G37*
G54D72*X253000Y347500D03*
G54D70*G36*
X232748Y352316D02*Y346598D01*
X239252D01*
Y352316D01*
X232748D01*
G37*
G36*
X259816Y313752D02*X254098D01*
Y307248D01*
X259816D01*
Y313752D01*
G37*
G36*
Y326752D02*X254098D01*
Y320248D01*
X259816D01*
Y326752D01*
G37*
G36*
X266902D02*X261184D01*
Y320248D01*
X266902D01*
Y326752D01*
G37*
G36*
X283000Y320500D02*Y311000D01*
X280000D01*
Y320500D01*
X283000D01*
G37*
G36*
X239960Y312359D02*Y306641D01*
X248040D01*
Y312359D01*
X239960D01*
G37*
G36*
X266902Y313752D02*X261184D01*
Y307248D01*
X266902D01*
Y313752D01*
G37*
G36*
X277460Y333454D02*Y327736D01*
X285540D01*
Y333454D01*
X277460D01*
G37*
G36*
Y345264D02*Y339546D01*
X285540D01*
Y345264D01*
X277460D01*
G37*
G36*
X275000Y290500D02*Y300000D01*
X278000D01*
Y290500D01*
X275000D01*
G37*
G36*
X278000Y320500D02*Y311000D01*
X275000D01*
Y320500D01*
X278000D01*
G37*
G36*
X280000Y290500D02*Y300000D01*
X283000D01*
Y290500D01*
X280000D01*
G37*
G36*
X285000D02*Y300000D01*
X288000D01*
Y290500D01*
X285000D01*
G37*
G36*
X288000Y320500D02*Y311000D01*
X285000D01*
Y320500D01*
X288000D01*
G37*
G36*
X239960Y300549D02*Y294831D01*
X248040D01*
Y300549D01*
X239960D01*
G37*
G36*
X259816Y300252D02*X254098D01*
Y293748D01*
X259816D01*
Y300252D01*
G37*
G36*
X266902D02*X261184D01*
Y293748D01*
X266902D01*
Y300252D01*
G37*
G54D72*X253000Y357500D03*
G54D70*G36*
X232748Y359402D02*Y353684D01*
X239252D01*
Y359402D01*
X232748D01*
G37*
G54D72*X253000Y367500D03*
Y387500D03*
X193500Y357500D03*
Y367500D03*
Y387500D03*
Y347500D03*
G54D70*G36*
X184500Y321500D02*Y312000D01*
X181500D01*
Y321500D01*
X184500D01*
G37*
G36*
X186500Y291500D02*Y301000D01*
X189500D01*
Y291500D01*
X186500D01*
G37*
G36*
X189500Y321500D02*Y312000D01*
X186500D01*
Y321500D01*
X189500D01*
G37*
G36*
X191500Y291500D02*Y301000D01*
X194500D01*
Y291500D01*
X191500D01*
G37*
G36*
X194500Y321500D02*Y312000D01*
X191500D01*
Y321500D01*
X194500D01*
G37*
G36*
X188748Y277773D02*Y272055D01*
X195252D01*
Y277773D01*
X188748D01*
G37*
G36*
Y284859D02*Y279141D01*
X195252D01*
Y284859D01*
X188748D01*
G37*
G36*
X181500Y291500D02*Y301000D01*
X184500D01*
Y291500D01*
X181500D01*
G37*
G36*
X196500D02*Y301000D01*
X199500D01*
Y291500D01*
X196500D01*
G37*
G36*
X199500Y321500D02*Y312000D01*
X196500D01*
Y321500D01*
X199500D01*
G37*
G36*
X308480Y236480D02*Y226980D01*
X305480D01*
Y236480D01*
X308480D01*
G37*
G36*
X313480D02*Y226980D01*
X310480D01*
Y236480D01*
X313480D01*
G37*
G36*
X294460Y275454D02*Y269736D01*
X302540D01*
Y275454D01*
X294460D01*
G37*
G36*
X310480Y206480D02*Y215980D01*
X313480D01*
Y206480D01*
X310480D01*
G37*
G36*
X318480Y236480D02*Y226980D01*
X315480D01*
Y236480D01*
X318480D01*
G37*
G36*
X323480D02*Y226980D01*
X320480D01*
Y236480D01*
X323480D01*
G37*
G36*
X305480Y206480D02*Y215980D01*
X308480D01*
Y206480D01*
X305480D01*
G37*
G36*
X315480D02*Y215980D01*
X318480D01*
Y206480D01*
X315480D01*
G37*
G36*
X320480D02*Y215980D01*
X323480D01*
Y206480D01*
X320480D01*
G37*
G54D73*X278480Y231823D03*
G54D70*G36*
X270815Y250036D02*Y240964D01*
X286185D01*
Y250036D01*
X270815D01*
G37*
G36*
X274243Y207901D02*X282717D01*
Y216375D01*
X274243D01*
Y207901D01*
G37*
G36*
X314859Y250040D02*X309141D01*
Y241960D01*
X314859D01*
Y250040D01*
G37*
G36*
X326669D02*X320951D01*
Y241960D01*
X326669D01*
Y250040D01*
G37*
G36*
X294228Y198382D02*Y192664D01*
X300732D01*
Y198382D01*
X294228D01*
G37*
G36*
X327940Y204340D02*Y198622D01*
X336020D01*
Y204340D01*
X327940D01*
G37*
G36*
X308228Y198382D02*Y192664D01*
X314732D01*
Y198382D01*
X308228D01*
G37*
G36*
X294228Y191296D02*Y185578D01*
X300732D01*
Y191296D01*
X294228D01*
G37*
G36*
X327940Y192530D02*Y186812D01*
X336020D01*
Y192530D01*
X327940D01*
G37*
G36*
X308228Y191296D02*Y185578D01*
X314732D01*
Y191296D01*
X308228D01*
G37*
G36*
X191315Y201536D02*Y192464D01*
X206685D01*
Y201536D01*
X191315D01*
G37*
G36*
X334940Y218434D02*Y212716D01*
X343020D01*
Y218434D01*
X334940D01*
G37*
G36*
Y230245D02*Y224526D01*
X343020D01*
Y230245D01*
X334940D01*
G37*
G54D74*X315500Y371500D03*
G54D75*X325500Y351500D03*
G54D70*G36*
X289700Y375700D02*Y384300D01*
X298300D01*
Y375700D01*
X289700D01*
G37*
G36*
X290000Y290500D02*Y300000D01*
X293000D01*
Y290500D01*
X290000D01*
G37*
G36*
X293000Y320500D02*Y311000D01*
X290000D01*
Y320500D01*
X293000D01*
G37*
G36*
X294460Y287264D02*Y281546D01*
X302540D01*
Y287264D01*
X294460D01*
G37*
G36*
X323859Y327040D02*X318141D01*
Y318960D01*
X323859D01*
Y327040D01*
G37*
G36*
X335669D02*X329951D01*
Y318960D01*
X335669D01*
Y327040D01*
G37*
G36*
X342815Y327536D02*Y318464D01*
X358185D01*
Y327536D01*
X342815D01*
G37*
G54D74*X355500Y371500D03*
G54D70*G36*
X331071Y355929D02*Y347071D01*
X339929D01*
Y355929D01*
X331071D01*
G37*
G36*
X120315Y322536D02*Y313464D01*
X135685D01*
Y322536D01*
X120315D01*
G37*
G36*
X97315Y312036D02*Y302964D01*
X112685D01*
Y312036D01*
X97315D01*
G37*
G54D76*X105000Y289000D03*
X128000Y303500D03*
G54D70*G36*
X101846Y266161D02*X108154D01*
Y272469D01*
X101846D01*
Y266161D01*
G37*
G36*
X124846Y280661D02*X131154D01*
Y286969D01*
X124846D01*
Y280661D01*
G37*
G54D77*X93540Y373000D03*
X133540D03*
G54D78*X107240Y348000D03*
G54D70*G36*
X116045Y351795D02*Y344205D01*
X123635D01*
Y351795D01*
X116045D01*
G37*
G54D78*X113540Y358000D03*
G54D70*G36*
X166316Y329752D02*X160598D01*
Y323248D01*
X166316D01*
Y329752D01*
G37*
G36*
X166359Y315252D02*X160641D01*
Y308748D01*
X166359D01*
Y315252D01*
G37*
G36*
X163721Y262007D02*X158003D01*
Y253927D01*
X163721D01*
Y262007D01*
G37*
G36*
X147700Y246300D02*X156300D01*
Y237700D01*
X147700D01*
Y246300D01*
G37*
G54D71*X152000Y212000D03*
G54D70*G36*
X173402Y329752D02*X167684D01*
Y323248D01*
X173402D01*
Y329752D01*
G37*
G36*
X173445Y315252D02*X167727D01*
Y308748D01*
X173445D01*
Y315252D01*
G37*
G36*
X175531Y262007D02*X169813D01*
Y253927D01*
X175531D01*
Y262007D01*
G37*
G36*
X117316Y201007D02*X111598D01*
Y192927D01*
X117316D01*
Y201007D01*
G37*
G36*
X129126D02*X123408D01*
Y192927D01*
X129126D01*
Y201007D01*
G37*
G36*
X137221Y198007D02*X131503D01*
Y189927D01*
X137221D01*
Y198007D01*
G37*
G36*
X149031D02*X143313D01*
Y189927D01*
X149031D01*
Y198007D01*
G37*
G54D79*X336500Y155000D03*
X326500D03*
X316500D03*
G54D70*G36*
X359800Y151700D02*X353200D01*
Y158300D01*
X359800D01*
Y151700D01*
G37*
G54D79*X346500Y155000D03*
G54D70*G36*
X305126Y151770D02*X298526D01*
Y158370D01*
X305126D01*
Y151770D01*
G37*
G54D79*X291826Y155070D03*
X281826D03*
X271826D03*
X261826D03*
G54D70*G36*
X221684Y158370D02*X230284D01*
Y149770D01*
X221684D01*
Y158370D01*
G37*
G54D71*X235826Y154070D03*
G54D70*G36*
X221706Y126020D02*X230306D01*
Y117420D01*
X221706D01*
Y126020D01*
G37*
G54D71*X235849Y121720D03*
G54D80*X155506Y172276D03*
G54D70*G36*
X150093Y107807D02*X160920D01*
Y118634D01*
X150093D01*
Y107807D01*
G37*
G36*
X194621Y110756D02*Y101685D01*
X209991D01*
Y110756D01*
X194621D01*
G37*
G36*
X170141Y126606D02*Y117535D01*
X185511D01*
Y126606D01*
X170141D01*
G37*
G36*
X194621Y166756D02*Y157685D01*
X209991D01*
Y166756D01*
X194621D01*
G37*
G36*
X193506Y141020D02*X202106D01*
Y132420D01*
X193506D01*
Y141020D01*
G37*
G54D71*X207649Y136720D03*
M02*
