G04 start of page 2 for group 2 layer_idx 8 *
G04 Title: (unknown), top_mask *
G04 Creator: pcb-rnd 2.2.4 *
G04 CreationDate: 2020-10-19 18:12:02 UTC *
G04 For:  *
G04 Format: Gerber/RS-274X *
G04 PCB-Dimensions: 500000 500000 *
G04 PCB-Coordinate-Origin: lower left *
%MOIN*%
%FSLAX25Y25*%
%LNTOP_MASK_NONE_2*%
%ADD74C,0.0660*%
%ADD73C,0.1083*%
%ADD72C,0.0846*%
%ADD71C,0.0630*%
%ADD70C,0.0886*%
%ADD69C,0.1678*%
%ADD68C,0.0860*%
%ADD67C,0.0759*%
%ADD66C,0.0001*%
%ADD65C,0.1639*%
G54D65*X93490Y373000D03*
X133490D03*
G54D66*G36*
X115995Y351795D02*Y344205D01*
X123585D01*
Y351795D01*
X115995D01*
G37*
G54D67*X113490Y358000D03*
X107190Y348000D03*
G54D66*G36*
X166549Y353540D02*X160831D01*
Y345460D01*
X166549D01*
Y353540D01*
G37*
G36*
Y368540D02*X160831D01*
Y360460D01*
X166549D01*
Y368540D01*
G37*
G36*
X178359D02*X172641D01*
Y360460D01*
X178359D01*
Y368540D01*
G37*
G36*
X193700Y376300D02*X202300D01*
Y367700D01*
X193700D01*
Y376300D01*
G37*
G36*
X184248Y362816D02*Y357098D01*
X190752D01*
Y362816D01*
X184248D01*
G37*
G36*
Y369902D02*Y364184D01*
X190752D01*
Y369902D01*
X184248D01*
G37*
G36*
X178359Y353540D02*X172641D01*
Y345460D01*
X178359D01*
Y353540D01*
G37*
G54D68*X198000Y362000D03*
Y352000D03*
G54D66*G36*
X184248Y356902D02*Y351184D01*
X190752D01*
Y356902D01*
X184248D01*
G37*
G54D68*X228000Y372000D03*
Y362000D03*
G54D66*G36*
X247954Y376040D02*X242236D01*
Y367960D01*
X247954D01*
Y376040D01*
G37*
G36*
Y361040D02*X242236D01*
Y352960D01*
X247954D01*
Y361040D01*
G37*
G36*
X259764Y376040D02*X254046D01*
Y367960D01*
X259764D01*
Y376040D01*
G37*
G36*
Y361040D02*X254046D01*
Y352960D01*
X259764D01*
Y361040D01*
G37*
G54D68*X228000Y352000D03*
X198000Y342000D03*
X228000D03*
G54D66*G36*
X184248Y349816D02*Y344098D01*
X190752D01*
Y349816D01*
X184248D01*
G37*
G36*
X240359Y346040D02*X234641D01*
Y337960D01*
X240359D01*
Y346040D01*
G37*
G36*
X252169D02*X246451D01*
Y337960D01*
X252169D01*
Y346040D01*
G37*
G36*
X120315Y322536D02*Y313464D01*
X135685D01*
Y322536D01*
X120315D01*
G37*
G36*
X208960Y330764D02*Y325046D01*
X217040D01*
Y330764D01*
X208960D01*
G37*
G36*
X158834Y324016D02*Y314944D01*
X174204D01*
Y324016D01*
X158834D01*
G37*
G36*
X223960Y318954D02*Y313236D01*
X232040D01*
Y318954D01*
X223960D01*
G37*
G36*
Y330764D02*Y325046D01*
X232040D01*
Y330764D01*
X223960D01*
G37*
G36*
X208960Y318954D02*Y313236D01*
X217040D01*
Y318954D01*
X208960D01*
G37*
G36*
X240454Y326040D02*X234736D01*
Y317960D01*
X240454D01*
Y326040D01*
G37*
G36*
X252264D02*X246546D01*
Y317960D01*
X252264D01*
Y326040D01*
G37*
G36*
X97315Y312036D02*Y302964D01*
X112685D01*
Y312036D01*
X97315D01*
G37*
G36*
X278700Y376200D02*Y384800D01*
X287300D01*
Y376200D01*
X278700D01*
G37*
G54D69*X315500Y371500D03*
X355500D03*
G54D66*G36*
X331071Y355929D02*Y347071D01*
X339929D01*
Y355929D01*
X331071D01*
G37*
G54D70*X325500Y351500D03*
G54D71*X128000Y303500D03*
G54D66*G36*
X186816Y281752D02*X181098D01*
Y275248D01*
X186816D01*
Y281752D01*
G37*
G36*
X193902D02*X188184D01*
Y275248D01*
X193902D01*
Y281752D01*
G37*
G36*
X186816Y267752D02*X181098D01*
Y261248D01*
X186816D01*
Y267752D01*
G37*
G36*
X193902D02*X188184D01*
Y261248D01*
X193902D01*
Y267752D01*
G37*
G36*
X244960Y278764D02*Y273046D01*
X253040D01*
Y278764D01*
X244960D01*
G37*
G36*
X202000Y270500D02*X211500D01*
Y267500D01*
X202000D01*
Y270500D01*
G37*
G36*
X203420Y297237D02*Y288763D01*
X211894D01*
Y297237D01*
X203420D01*
G37*
G36*
X232000Y267500D02*X222500D01*
Y270500D01*
X232000D01*
Y267500D01*
G37*
G36*
X244960Y266954D02*Y261236D01*
X253040D01*
Y266954D01*
X244960D01*
G37*
G36*
X202000Y265500D02*X211500D01*
Y262500D01*
X202000D01*
Y265500D01*
G37*
G36*
Y260500D02*X211500D01*
Y257500D01*
X202000D01*
Y260500D01*
G37*
G36*
Y255500D02*X211500D01*
Y252500D01*
X202000D01*
Y255500D01*
G37*
G36*
X232000Y262500D02*X222500D01*
Y265500D01*
X232000D01*
Y262500D01*
G37*
G36*
Y257500D02*X222500D01*
Y260500D01*
X232000D01*
Y257500D01*
G37*
G36*
Y252500D02*X222500D01*
Y255500D01*
X232000D01*
Y252500D01*
G37*
G54D72*X227343Y293000D03*
G54D66*G36*
X285315Y269536D02*Y260464D01*
X300685D01*
Y269536D01*
X285315D01*
G37*
G36*
X307859Y326540D02*X302141D01*
Y318460D01*
X307859D01*
Y326540D01*
G37*
G36*
X342815Y327536D02*Y318464D01*
X358185D01*
Y327536D01*
X342815D01*
G37*
G36*
X319669Y326540D02*X313951D01*
Y318460D01*
X319669D01*
Y326540D01*
G37*
G36*
X308680Y283950D02*X317280D01*
Y275350D01*
X308680D01*
Y283950D01*
G37*
G54D68*X322823Y279650D03*
G54D66*G36*
X309795Y309686D02*Y300614D01*
X325165D01*
Y309686D01*
X309795D01*
G37*
G36*
Y253686D02*Y244614D01*
X325165D01*
Y253686D01*
X309795D01*
G37*
G36*
X336880Y268950D02*X345480D01*
Y260350D01*
X336880D01*
Y268950D01*
G37*
G54D68*X351023Y264650D03*
G54D66*G36*
X336857Y301300D02*X345457D01*
Y292700D01*
X336857D01*
Y301300D01*
G37*
G54D68*X351000Y297000D03*
G54D66*G36*
X101846Y266161D02*X108154D01*
Y272469D01*
X101846D01*
Y266161D01*
G37*
G54D71*X105000Y289000D03*
G54D66*G36*
X124846Y280661D02*X131154D01*
Y286969D01*
X124846D01*
Y280661D01*
G37*
G54D73*X155500Y254500D03*
G54D66*G36*
X197248Y225402D02*Y219684D01*
X203752D01*
Y225402D01*
X197248D01*
G37*
G36*
X182816Y218752D02*X177098D01*
Y212248D01*
X182816D01*
Y218752D01*
G37*
G36*
X189902D02*X184184D01*
Y212248D01*
X189902D01*
Y218752D01*
G37*
G36*
X197248Y218316D02*Y212598D01*
X203752D01*
Y218316D01*
X197248D01*
G37*
G36*
X211248D02*Y212598D01*
X217752D01*
Y218316D01*
X211248D01*
G37*
G36*
Y225402D02*Y219684D01*
X217752D01*
Y225402D01*
X211248D01*
G37*
G36*
X188049Y248040D02*X182331D01*
Y239960D01*
X188049D01*
Y248040D01*
G37*
G36*
X199859D02*X194141D01*
Y239960D01*
X199859D01*
Y248040D01*
G37*
G36*
X213954Y241040D02*X208236D01*
Y232960D01*
X213954D01*
Y241040D01*
G37*
G36*
X225764D02*X220046D01*
Y232960D01*
X225764D01*
Y241040D01*
G37*
G36*
X241460Y200454D02*Y194736D01*
X249540D01*
Y200454D01*
X241460D01*
G37*
G36*
Y212264D02*Y206546D01*
X249540D01*
Y212264D01*
X241460D01*
G37*
G36*
X232334Y241516D02*Y232445D01*
X247704D01*
Y241516D01*
X232334D01*
G37*
G54D74*X305000Y228500D03*
X295000D03*
X285000D03*
X275000D03*
G54D66*G36*
X268300Y225200D02*X261700D01*
Y231800D01*
X268300D01*
Y225200D01*
G37*
G54D74*X359674Y228430D03*
X349674D03*
X339674D03*
X329674D03*
G54D66*G36*
X322974Y225130D02*X316374D01*
Y231730D01*
X322974D01*
Y225130D01*
G37*
G36*
X184549Y191540D02*X178831D01*
Y183460D01*
X184549D01*
Y191540D01*
G37*
G36*
X150087Y190031D02*X160913D01*
Y200858D01*
X150087D01*
Y190031D01*
G37*
G36*
X202000Y199000D02*X211500D01*
Y196000D01*
X202000D01*
Y199000D01*
G37*
G36*
Y194000D02*X211500D01*
Y191000D01*
X202000D01*
Y194000D01*
G37*
G36*
Y189000D02*X211500D01*
Y186000D01*
X202000D01*
Y189000D01*
G37*
G36*
X196359Y191540D02*X190641D01*
Y183460D01*
X196359D01*
Y191540D01*
G37*
G36*
X202000Y204000D02*X211500D01*
Y201000D01*
X202000D01*
Y204000D01*
G37*
G36*
X232000Y201000D02*X222500D01*
Y204000D01*
X232000D01*
Y201000D01*
G37*
G36*
Y196000D02*X222500D01*
Y199000D01*
X232000D01*
Y196000D01*
G37*
G36*
Y191000D02*X222500D01*
Y194000D01*
X232000D01*
Y191000D01*
G37*
G36*
Y186000D02*X222500D01*
Y189000D01*
X232000D01*
Y186000D01*
G37*
M02*
