G04 start of page 2 for group -1 layer_idx 268435460 *
G04 Title: (unknown), <virtual group> *
G04 Creator: pcb-rnd 2.2.2 *
G04 CreationDate: 2020-09-08 21:13:47 UTC *
G04 For:  *
G04 Format: Gerber/RS-274X *
G04 PCB-Dimensions: 500000 500000 *
G04 PCB-Coordinate-Origin: lower left *
%MOIN*%
%FSLAX25Y25*%
%LNBOTTOM_VIRTUAL_ASSY_NONE*%
%ADD149C,0.0070*%
%ADD148C,0.0197*%
%ADD147C,0.0080*%
%ADD146C,0.0430*%
%ADD145C,0.0276*%
%ADD144C,0.0374*%
%ADD143C,0.0256*%
%ADD142C,0.0790*%
%ADD141C,0.0420*%
%ADD140C,0.0295*%
%ADD139C,0.0200*%
%ADD138C,0.0394*%
%ADD137C,0.0350*%
%ADD136C,0.0830*%
%ADD135C,0.0689*%
%ADD134C,0.1000*%
%ADD133C,0.0984*%
%ADD132C,0.0571*%
%ADD131C,0.1580*%
%ADD130C,0.0600*%
%ADD129C,0.0787*%
%ADD128C,0.0400*%
%ADD127C,0.0866*%
%ADD126C,0.0800*%
%ADD125C,0.0001*%
%ADD124C,0.0700*%
G54D124*X103767Y226967D03*
Y241967D03*
G54D125*G36*
X148000Y246000D02*X156000D01*
Y238000D01*
X148000D01*
Y246000D01*
G37*
G54D126*X152000Y232000D03*
X182000Y242000D03*
Y232000D03*
Y222000D03*
G54D127*X230267Y231967D03*
Y216967D03*
G54D125*G36*
X165527Y230431D02*Y225313D01*
X173007D01*
Y230431D01*
X165527D01*
G37*
G54D126*X152000Y222000D03*
Y212000D03*
X182000D03*
G54D125*G36*
X165527Y218621D02*Y213503D01*
X173007D01*
Y218621D01*
X165527D01*
G37*
G54D124*X281500Y351000D03*
G54D128*X298000Y308500D03*
X312500Y323000D03*
G54D124*X284000Y278500D03*
X334000Y246000D03*
G54D129*X278480Y231823D03*
G54D125*G36*
X274543Y208201D02*X282417D01*
Y216075D01*
X274543D01*
Y208201D01*
G37*
G54D124*X321290Y189670D03*
G54D125*G36*
X331563Y355437D02*Y347563D01*
X339437D01*
Y355437D01*
X331563D01*
G37*
G54D129*X325500Y351500D03*
G54D130*X338000Y155000D03*
X328000D03*
G54D126*X333000Y304500D03*
G54D130*X348000Y155000D03*
X318000D03*
G54D125*G36*
X311000Y152000D02*X305000D01*
Y158000D01*
X311000D01*
Y152000D01*
G37*
G54D130*X296000Y155000D03*
X286000D03*
X276000D03*
X266000D03*
G54D125*G36*
X319000Y308500D02*X327000D01*
Y300500D01*
X319000D01*
Y308500D01*
G37*
G54D131*X315500Y371500D03*
G54D125*G36*
X290000Y376000D02*Y384000D01*
X298000D01*
Y376000D01*
X290000D01*
G37*
G54D131*X355500Y371500D03*
G54D132*X105000Y289000D03*
X128000Y303500D03*
G54D125*G36*
X149000Y290500D02*Y298500D01*
X157000D01*
Y290500D01*
X149000D01*
G37*
G54D126*X153000Y304500D03*
G54D124*X103767Y211967D03*
G54D125*G36*
X102146Y266461D02*X107854D01*
Y272169D01*
X102146D01*
Y266461D01*
G37*
G36*
X125146Y280961D02*X130854D01*
Y286669D01*
X125146D01*
Y280961D01*
G37*
G36*
X109760Y370654D02*Y365536D01*
X117240D01*
Y370654D01*
X109760D01*
G37*
G54D124*X107240Y348000D03*
G54D125*G36*
X116340Y351500D02*Y344500D01*
X123340D01*
Y351500D01*
X116340D01*
G37*
G54D124*X113540Y358000D03*
G54D125*G36*
X109760Y382464D02*Y377346D01*
X117240D01*
Y382464D01*
X109760D01*
G37*
G54D131*X93540Y373000D03*
X133540D03*
G54D124*X103767Y196967D03*
G54D125*G36*
X129223Y123968D02*Y136961D01*
X143790D01*
Y123968D01*
X129223D01*
G37*
G36*
Y147590D02*Y160583D01*
X143790D01*
Y147590D01*
X129223D01*
G37*
G54D133*X155506Y172276D03*
G54D134*X120500Y91500D03*
X177826Y108570D03*
G54D125*G36*
X150585Y108299D02*X160428D01*
Y118142D01*
X150585D01*
Y108299D01*
G37*
G36*
X222539Y157515D02*X229429D01*
Y150626D01*
X222539D01*
Y157515D01*
G37*
G54D135*X235826Y154070D03*
G54D125*G36*
X259000Y152000D02*X253000D01*
Y158000D01*
X259000D01*
Y152000D01*
G37*
G36*
X194362Y140165D02*X201251D01*
Y133276D01*
X194362D01*
Y140165D01*
G37*
G54D135*X207649Y136720D03*
G54D125*G36*
X222562Y125165D02*X229451D01*
Y118276D01*
X222562D01*
Y125165D01*
G37*
G54D135*X235849Y121720D03*
G54D124*X230500Y303500D03*
X221000Y342000D03*
Y327000D03*
X236500Y197000D03*
G54D125*G36*
X219000Y268500D02*X227000D01*
Y260500D01*
X219000D01*
Y268500D01*
G37*
G54D126*X233000Y264500D03*
G54D124*X272000Y197000D03*
X243000Y187000D03*
X262500D03*
G54D128*X206500Y288000D03*
G54D136*X193500Y347500D03*
X253000D03*
Y357500D03*
X193500D03*
Y367500D03*
Y387500D03*
X253000Y367500D03*
Y387500D03*
G54D125*G36*
X249000Y268500D02*X257000D01*
Y260500D01*
X249000D01*
Y268500D01*
G37*
G54D126*X263000Y264500D03*
G54D137*G54D138*G54D137*G54D139*G54D137*G54D140*G54D137*G54D141*G54D138*G54D141*G54D138*G54D142*G54D138*G54D142*G54D143*G54D138*G54D137*G54D143*G54D137*G54D142*G54D137*G54D144*G54D130*G54D144*G54D145*G54D141*G54D145*G54D137*G54D138*G54D137*G54D139*G54D146*G54D138*G54D147*X117240Y371638D02*Y376362D01*
X109760Y371638D02*Y376362D01*
G54D148*X143790Y139323D02*Y145228D01*
X129223Y139323D02*Y145228D01*
G54D147*X173007Y219605D02*Y224329D01*
X165527Y219605D02*Y224329D01*
G54D149*X365500Y288200D02*X364000D01*
X365500Y286000D02*X363500D01*
X365500Y290000D02*Y286000D01*
Y290000D02*X363500D01*
X360800Y288000D02*X360300Y287500D01*
X361800Y288000D02*X360800D01*
X362300Y287500D02*X361800Y288000D01*
X362300Y287500D02*Y286500D01*
X361800Y286000D01*
X360300Y288000D02*Y286500D01*
X359800Y286000D01*
X361800D02*X360800D01*
X360300Y286500D01*
X358100Y290000D02*Y286500D01*
X357600Y286000D01*
X358600Y288500D02*X357600D01*
X356600Y287500D02*Y286500D01*
Y287500D02*X356100Y288000D01*
X355100D01*
X354600Y287500D01*
Y286500D01*
X355100Y286000D02*X354600Y286500D01*
X356100Y286000D02*X355100D01*
X356600Y286500D02*X356100Y286000D01*
X352900Y287500D02*Y286000D01*
Y287500D02*X352400Y288000D01*
X351900D01*
X351400Y287500D01*
Y286000D01*
X353400Y288000D02*X352900Y287500D01*
X347900Y290000D02*Y286000D01*
X348400Y290000D02*X346400D01*
X345900Y289500D01*
Y288500D01*
X346400Y288000D02*X345900Y288500D01*
X347900Y288000D02*X346400D01*
X344200Y286000D02*X342700D01*
X344700Y286500D02*X344200Y286000D01*
X344700Y287500D02*Y286500D01*
Y287500D02*X344200Y288000D01*
X343200D01*
X342700Y287500D01*
X344700Y287000D02*X342700D01*
Y287500D01*
X340000Y288000D02*X339500Y287500D01*
X341000Y288000D02*X340000D01*
X341500Y287500D02*X341000Y288000D01*
X341500Y287500D02*Y286500D01*
X341000Y286000D01*
X339500Y288000D02*Y286500D01*
X339000Y286000D01*
X341000D02*X340000D01*
X339500Y286500D01*
X337800Y290000D02*Y286000D01*
Y286500D02*X337300Y286000D01*
X336300D01*
X335800Y286500D01*
Y287500D02*Y286500D01*
X336300Y288000D02*X335800Y287500D01*
X337300Y288000D02*X336300D01*
X337800Y287500D02*X337300Y288000D01*
X334600Y287500D02*Y286500D01*
Y287500D02*X334100Y288000D01*
X333100D01*
X332600Y287500D01*
Y286500D01*
X333100Y286000D02*X332600Y286500D01*
X334100Y286000D02*X333100D01*
X334600Y286500D02*X334100Y286000D01*
X329400Y290000D02*Y286000D01*
X329900D02*X329400Y286500D01*
X330900Y286000D02*X329900D01*
X331400Y286500D02*X330900Y286000D01*
X331400Y287500D02*Y286500D01*
Y287500D02*X330900Y288000D01*
X329900D01*
X329400Y287500D01*
X328200Y288000D02*Y286500D01*
X327700Y286000D01*
X326200Y288000D02*Y285000D01*
X326700Y284500D02*X326200Y285000D01*
X327700Y284500D02*X326700D01*
X328200Y285000D02*X327700Y284500D01*
Y286000D02*X326700D01*
X326200Y286500D01*
X323200Y290000D02*Y286000D01*
X321200D01*
X318500Y288000D02*X318000Y287500D01*
X319500Y288000D02*X318500D01*
X320000Y287500D02*X319500Y288000D01*
X320000Y287500D02*Y286500D01*
X319500Y286000D01*
X318000Y288000D02*Y286500D01*
X317500Y286000D01*
X319500D02*X318500D01*
X318000Y286500D01*
X316300Y290000D02*Y286000D01*
Y286500D02*X315800Y286000D01*
X314800D01*
X314300Y286500D01*
Y287500D02*Y286500D01*
X314800Y288000D02*X314300Y287500D01*
X315800Y288000D02*X314800D01*
X316300Y287500D02*X315800Y288000D01*
X98150Y378550D02*Y379850D01*
X98850Y377850D02*X98150Y378550D01*
X101450Y377850D02*X98850D01*
X101450D02*X102150Y378550D01*
Y379850D01*
Y381050D02*Y383050D01*
Y381050D02*X100150D01*
X100650Y381550D01*
Y382550D01*
X100150Y383050D01*
X98650D01*
X98150Y382550D02*X98650Y383050D01*
X98150Y381550D02*Y382550D01*
X98650Y381050D02*X98150Y381550D01*
X98650Y384250D02*X98150Y384750D01*
X101650Y384250D02*X98650D01*
X101650D02*X102150Y384750D01*
Y385750D01*
X101650Y386250D01*
X98650D01*
X98150Y385750D02*X98650Y386250D01*
X98150Y384750D02*Y385750D01*
X99150Y384250D02*X101150Y386250D01*
X120255Y146626D02*Y148626D01*
X119755Y149126D01*
X118755D01*
X118255Y148626D02*X118755Y149126D01*
X118255Y147126D02*Y148626D01*
X120255Y147126D02*X116255D01*
X118255Y147926D02*X116255Y149126D01*
X117755Y150326D02*X120255Y152326D01*
X117755Y150326D02*Y152826D01*
X120255Y152326D02*X116255D01*
X117755Y154026D02*X120255Y156026D01*
X117755Y154026D02*Y156526D01*
X120255Y156026D02*X116255D01*
X153917Y227517D02*Y228817D01*
X154617Y226817D02*X153917Y227517D01*
X157217Y226817D02*X154617D01*
X157217D02*X157917Y227517D01*
Y228817D01*
X155417Y230017D02*X157917Y232017D01*
X155417Y230017D02*Y232517D01*
X157917Y232017D02*X153917D01*
X157917Y235217D02*X157417Y235717D01*
X157917Y234217D02*Y235217D01*
X157417Y233717D02*X157917Y234217D01*
X157417Y233717D02*X154417D01*
X153917Y234217D01*
X156117Y235217D02*X155617Y235717D01*
X156117Y233717D02*Y235217D01*
X153917Y234217D02*Y235217D01*
X154417Y235717D01*
X155617D02*X154417D01*
X365500Y273000D02*X363500D01*
X363000Y273500D01*
Y274700D02*Y273500D01*
X363500Y275200D02*X363000Y274700D01*
X365000Y275200D02*X363500D01*
X365000Y277000D02*Y273000D01*
X365500Y277000D02*X363500D01*
X363000Y276500D01*
Y275700D01*
X363500Y275200D02*X363000Y275700D01*
X361800Y275000D02*Y273500D01*
X361300Y273000D01*
X359800Y275000D02*Y272000D01*
X360300Y271500D02*X359800Y272000D01*
X361300Y271500D02*X360300D01*
X361800Y272000D02*X361300Y271500D01*
Y273000D02*X360300D01*
X359800Y273500D01*
X356800Y275200D02*X355300D01*
X356800Y273000D02*X354800D01*
X356800Y277000D02*Y273000D01*
Y277000D02*X354800D01*
X353600Y275000D02*X352600Y273000D01*
X351600Y275000D02*X352600Y273000D01*
X348900Y275000D02*X348400Y274500D01*
X349900Y275000D02*X348900D01*
X350400Y274500D02*X349900Y275000D01*
X350400Y274500D02*Y273500D01*
X349900Y273000D01*
X348400Y275000D02*Y273500D01*
X347900Y273000D01*
X349900D02*X348900D01*
X348400Y273500D01*
X346200Y274500D02*Y273000D01*
Y274500D02*X345700Y275000D01*
X345200D01*
X344700Y274500D01*
Y273000D01*
X346700Y275000D02*X346200Y274500D01*
X341700Y277000D02*Y273000D01*
Y277000D02*X339700D01*
X341700Y275200D02*X340200D01*
X338500Y274500D02*Y273500D01*
Y274500D02*X338000Y275000D01*
X337000D01*
X336500Y274500D01*
Y273500D01*
X337000Y273000D02*X336500Y273500D01*
X338000Y273000D02*X337000D01*
X338500Y273500D02*X338000Y273000D01*
X334800D02*X333300D01*
X332800Y273500D01*
X333300Y274000D02*X332800Y273500D01*
X334800Y274000D02*X333300D01*
X335300Y274500D02*X334800Y274000D01*
X335300Y274500D02*X334800Y275000D01*
X333300D01*
X332800Y274500D01*
X335300Y273500D02*X334800Y273000D01*
X331100D02*X329600D01*
X329100Y273500D01*
X329600Y274000D02*X329100Y273500D01*
X331100Y274000D02*X329600D01*
X331600Y274500D02*X331100Y274000D01*
X331600Y274500D02*X331100Y275000D01*
X329600D01*
X329100Y274500D01*
X331600Y273500D02*X331100Y273000D01*
X365500Y283500D02*Y279500D01*
Y283500D02*X364000Y281500D01*
X362500Y283500D01*
Y279500D01*
X361300Y281000D02*Y280000D01*
Y281000D02*X360800Y281500D01*
X359800D01*
X359300Y281000D01*
Y280000D01*
X359800Y279500D02*X359300Y280000D01*
X360800Y279500D02*X359800D01*
X361300Y280000D02*X360800Y279500D01*
X356100Y283500D02*Y279500D01*
X356600D02*X356100Y280000D01*
X357600Y279500D02*X356600D01*
X358100Y280000D02*X357600Y279500D01*
X358100Y281000D02*Y280000D01*
Y281000D02*X357600Y281500D01*
X356600D01*
X356100Y281000D01*
X354400Y279500D02*X352900D01*
X354900Y280000D02*X354400Y279500D01*
X354900Y281000D02*Y280000D01*
Y281000D02*X354400Y281500D01*
X353400D01*
X352900Y281000D01*
X354900Y280500D02*X352900D01*
Y281000D01*
X351700Y283500D02*Y280000D01*
X351200Y279500D01*
X350200Y282000D02*X349700D01*
X350200Y281000D02*X349700D01*
X346700Y279500D02*X344700D01*
X344200Y280000D01*
Y281200D02*Y280000D01*
X344700Y281700D02*X344200Y281200D01*
X346200Y281700D02*X344700D01*
X346200Y283500D02*Y279500D01*
X346700Y283500D02*X344700D01*
X344200Y283000D01*
Y282200D01*
X344700Y281700D02*X344200Y282200D01*
X343000Y282500D02*Y282400D01*
Y281000D02*Y279500D01*
X342000Y281000D02*Y280000D01*
Y281000D02*X341500Y281500D01*
X340500D01*
X340000Y281000D01*
Y280000D01*
X340500Y279500D02*X340000Y280000D01*
X341500Y279500D02*X340500D01*
X342000Y280000D02*X341500Y279500D01*
X338800Y282500D02*Y279500D01*
Y282500D02*X338100Y283500D01*
X337000D01*
X336300Y282500D01*
Y279500D01*
X338800Y281500D02*X336300D01*
X334600Y281000D02*Y279500D01*
Y281000D02*X334100Y281500D01*
X333600D01*
X333100Y281000D01*
Y279500D01*
Y281000D02*X332600Y281500D01*
X332100D01*
X331600Y281000D01*
Y279500D01*
X335100Y281500D02*X334600Y281000D01*
X329900D02*Y278000D01*
X330400Y281500D02*X329900Y281000D01*
X329400Y281500D01*
X328400D01*
X327900Y281000D01*
Y280000D01*
X328400Y279500D02*X327900Y280000D01*
X329400Y279500D02*X328400D01*
X329900Y280000D02*X329400Y279500D01*
X324900Y283500D02*Y282500D01*
X323900Y283500D02*Y282500D01*
X322200Y283000D02*Y279500D01*
Y283000D02*X321700Y283500D01*
X321200D01*
X322700Y281500D02*X321700D01*
X318700D02*X318200Y281000D01*
X319700Y281500D02*X318700D01*
X320200Y281000D02*X319700Y281500D01*
X320200Y281000D02*Y280000D01*
X319700Y279500D01*
X318200Y281500D02*Y280000D01*
X317700Y279500D01*
X319700D02*X318700D01*
X318200Y280000D01*
X316000Y281000D02*Y279500D01*
Y281000D02*X315500Y281500D01*
X315000D01*
X314500Y281000D01*
Y279500D01*
X316500Y281500D02*X316000Y281000D01*
X312800Y281500D02*X311300D01*
X313300Y281000D02*X312800Y281500D01*
X313300Y281000D02*Y280000D01*
X312800Y279500D01*
X311300D01*
X310100Y281500D02*Y280000D01*
X309600Y279500D01*
X308100Y281500D02*Y278500D01*
X308600Y278000D02*X308100Y278500D01*
X309600Y278000D02*X308600D01*
X310100Y278500D02*X309600Y278000D01*
Y279500D02*X308600D01*
X308100Y280000D01*
X306900Y283500D02*Y282500D01*
X305900Y283500D02*Y282500D01*
X365500Y270000D02*X365000Y270500D01*
X363500D01*
X363000Y270000D01*
Y269000D01*
X365500Y266500D02*X363000Y269000D01*
X365500Y266500D02*X363000D01*
X361800Y267000D02*X361300Y266500D01*
X361800Y270000D02*Y267000D01*
Y270000D02*X361300Y270500D01*
X360300D01*
X359800Y270000D01*
Y267000D01*
X360300Y266500D02*X359800Y267000D01*
X361300Y266500D02*X360300D01*
X361800Y267500D02*X359800Y269500D01*
X358600Y270000D02*X358100Y270500D01*
X356600D01*
X356100Y270000D01*
Y269000D01*
X358600Y266500D02*X356100Y269000D01*
X358600Y266500D02*X356100D01*
X354900Y267000D02*X354400Y266500D01*
X354900Y270000D02*Y267000D01*
Y270000D02*X354400Y270500D01*
X353400D01*
X352900Y270000D01*
Y267000D01*
X353400Y266500D02*X352900Y267000D01*
X354400Y266500D02*X353400D01*
X354900Y267500D02*X352900Y269500D01*
X351700Y266500D02*X351200D01*
X350000Y267000D02*X349500Y266500D01*
X350000Y270000D02*Y267000D01*
Y270000D02*X349500Y270500D01*
X348500D01*
X348000Y270000D01*
Y267000D01*
X348500Y266500D02*X348000Y267000D01*
X349500Y266500D02*X348500D01*
X350000Y267500D02*X348000Y269500D01*
X345300Y270500D02*X344800Y270000D01*
X346300Y270500D02*X345300D01*
X346800Y270000D02*X346300Y270500D01*
X346800Y270000D02*Y267000D01*
X346300Y266500D01*
X345300Y268700D02*X344800Y268200D01*
X346800Y268700D02*X345300D01*
X346300Y266500D02*X345300D01*
X344800Y267000D01*
Y268200D02*Y267000D01*
X343600Y266500D02*X343100D01*
X341900Y267000D02*X341400Y266500D01*
X341900Y270000D02*Y267000D01*
Y270000D02*X341400Y270500D01*
X340400D01*
X339900Y270000D01*
Y267000D01*
X340400Y266500D02*X339900Y267000D01*
X341400Y266500D02*X340400D01*
X341900Y267500D02*X339900Y269500D01*
X338700Y270000D02*X338200Y270500D01*
X336700D01*
X336200Y270000D01*
Y269000D01*
X338700Y266500D02*X336200Y269000D01*
X338700Y266500D02*X336200D01*
M02*
