G04 start of page 2 for group 10 layer_idx 5 *
G04 Title: (unknown), bottom_silk *
G04 Creator: pcb-rnd 2.2.4 *
G04 CreationDate: 2020-10-19 18:12:02 UTC *
G04 For:  *
G04 Format: Gerber/RS-274X *
G04 PCB-Dimensions: 500000 500000 *
G04 PCB-Coordinate-Origin: lower left *
%MOIN*%
%FSLAX25Y25*%
%LNBOTTOM_SILK_NONE_10*%
%ADD64C,0.0070*%
%ADD63C,0.0080*%
%ADD62C,0.0197*%
G54D62*X143783Y221547D02*Y227453D01*
X129217Y221547D02*Y227453D01*
G54D63*X117240Y371638D02*Y376362D01*
X109760Y371638D02*Y376362D01*
G54D64*X271000Y391200D02*X269500D01*
X271000Y389000D02*X269000D01*
X271000Y393000D02*Y389000D01*
Y393000D02*X269000D01*
X266300Y391000D02*X265800Y390500D01*
X267300Y391000D02*X266300D01*
X267800Y390500D02*X267300Y391000D01*
X267800Y390500D02*Y389500D01*
X267300Y389000D01*
X265800Y391000D02*Y389500D01*
X265300Y389000D01*
X267300D02*X266300D01*
X265800Y389500D01*
X263600Y393000D02*Y389500D01*
X263100Y389000D01*
X264100Y391500D02*X263100D01*
X262100Y390500D02*Y389500D01*
Y390500D02*X261600Y391000D01*
X260600D01*
X260100Y390500D01*
Y389500D01*
X260600Y389000D02*X260100Y389500D01*
X261600Y389000D02*X260600D01*
X262100Y389500D02*X261600Y389000D01*
X258400Y390500D02*Y389000D01*
Y390500D02*X257900Y391000D01*
X257400D01*
X256900Y390500D01*
Y389000D01*
X258900Y391000D02*X258400Y390500D01*
X253400Y393000D02*Y389000D01*
X253900Y393000D02*X251900D01*
X251400Y392500D01*
Y391500D01*
X251900Y391000D02*X251400Y391500D01*
X253400Y391000D02*X251900D01*
X249700Y389000D02*X248200D01*
X250200Y389500D02*X249700Y389000D01*
X250200Y390500D02*Y389500D01*
Y390500D02*X249700Y391000D01*
X248700D01*
X248200Y390500D01*
X250200Y390000D02*X248200D01*
Y390500D01*
X245500Y391000D02*X245000Y390500D01*
X246500Y391000D02*X245500D01*
X247000Y390500D02*X246500Y391000D01*
X247000Y390500D02*Y389500D01*
X246500Y389000D01*
X245000Y391000D02*Y389500D01*
X244500Y389000D01*
X246500D02*X245500D01*
X245000Y389500D01*
X243300Y393000D02*Y389000D01*
Y389500D02*X242800Y389000D01*
X241800D01*
X241300Y389500D01*
Y390500D02*Y389500D01*
X241800Y391000D02*X241300Y390500D01*
X242800Y391000D02*X241800D01*
X243300Y390500D02*X242800Y391000D01*
X240100Y390500D02*Y389500D01*
Y390500D02*X239600Y391000D01*
X238600D01*
X238100Y390500D01*
Y389500D01*
X238600Y389000D02*X238100Y389500D01*
X239600Y389000D02*X238600D01*
X240100Y389500D02*X239600Y389000D01*
X234900Y393000D02*Y389000D01*
X235400D02*X234900Y389500D01*
X236400Y389000D02*X235400D01*
X236900Y389500D02*X236400Y389000D01*
X236900Y390500D02*Y389500D01*
Y390500D02*X236400Y391000D01*
X235400D01*
X234900Y390500D01*
X233700Y391000D02*Y389500D01*
X233200Y389000D01*
X231700Y391000D02*Y388000D01*
X232200Y387500D02*X231700Y388000D01*
X233200Y387500D02*X232200D01*
X233700Y388000D02*X233200Y387500D01*
Y389000D02*X232200D01*
X231700Y389500D01*
X228700Y393000D02*Y389000D01*
X226700D01*
X224000Y391000D02*X223500Y390500D01*
X225000Y391000D02*X224000D01*
X225500Y390500D02*X225000Y391000D01*
X225500Y390500D02*Y389500D01*
X225000Y389000D01*
X223500Y391000D02*Y389500D01*
X223000Y389000D01*
X225000D02*X224000D01*
X223500Y389500D01*
X221800Y393000D02*Y389000D01*
Y389500D02*X221300Y389000D01*
X220300D01*
X219800Y389500D01*
Y390500D02*Y389500D01*
X220300Y391000D02*X219800Y390500D01*
X221300Y391000D02*X220300D01*
X221800Y390500D02*X221300Y391000D01*
X271000Y376000D02*X269000D01*
X268500Y376500D01*
Y377700D02*Y376500D01*
X269000Y378200D02*X268500Y377700D01*
X270500Y378200D02*X269000D01*
X270500Y380000D02*Y376000D01*
X271000Y380000D02*X269000D01*
X268500Y379500D01*
Y378700D01*
X269000Y378200D02*X268500Y378700D01*
X267300Y378000D02*Y376500D01*
X266800Y376000D01*
X265300Y378000D02*Y375000D01*
X265800Y374500D02*X265300Y375000D01*
X266800Y374500D02*X265800D01*
X267300Y375000D02*X266800Y374500D01*
Y376000D02*X265800D01*
X265300Y376500D01*
X262300Y378200D02*X260800D01*
X262300Y376000D02*X260300D01*
X262300Y380000D02*Y376000D01*
Y380000D02*X260300D01*
X259100Y378000D02*X258100Y376000D01*
X257100Y378000D02*X258100Y376000D01*
X254400Y378000D02*X253900Y377500D01*
X255400Y378000D02*X254400D01*
X255900Y377500D02*X255400Y378000D01*
X255900Y377500D02*Y376500D01*
X255400Y376000D01*
X253900Y378000D02*Y376500D01*
X253400Y376000D01*
X255400D02*X254400D01*
X253900Y376500D01*
X251700Y377500D02*Y376000D01*
Y377500D02*X251200Y378000D01*
X250700D01*
X250200Y377500D01*
Y376000D01*
X252200Y378000D02*X251700Y377500D01*
X247200Y380000D02*Y376000D01*
Y380000D02*X245200D01*
X247200Y378200D02*X245700D01*
X244000Y377500D02*Y376500D01*
Y377500D02*X243500Y378000D01*
X242500D01*
X242000Y377500D01*
Y376500D01*
X242500Y376000D02*X242000Y376500D01*
X243500Y376000D02*X242500D01*
X244000Y376500D02*X243500Y376000D01*
X240300D02*X238800D01*
X238300Y376500D01*
X238800Y377000D02*X238300Y376500D01*
X240300Y377000D02*X238800D01*
X240800Y377500D02*X240300Y377000D01*
X240800Y377500D02*X240300Y378000D01*
X238800D01*
X238300Y377500D01*
X240800Y376500D02*X240300Y376000D01*
X236600D02*X235100D01*
X234600Y376500D01*
X235100Y377000D02*X234600Y376500D01*
X236600Y377000D02*X235100D01*
X237100Y377500D02*X236600Y377000D01*
X237100Y377500D02*X236600Y378000D01*
X235100D01*
X234600Y377500D01*
X237100Y376500D02*X236600Y376000D01*
X271000Y373000D02*X270500Y373500D01*
X269000D01*
X268500Y373000D01*
Y372000D01*
X271000Y369500D02*X268500Y372000D01*
X271000Y369500D02*X268500D01*
X267300Y370000D02*X266800Y369500D01*
X267300Y373000D02*Y370000D01*
Y373000D02*X266800Y373500D01*
X265800D01*
X265300Y373000D01*
Y370000D01*
X265800Y369500D02*X265300Y370000D01*
X266800Y369500D02*X265800D01*
X267300Y370500D02*X265300Y372500D01*
X264100Y373000D02*X263600Y373500D01*
X262100D01*
X261600Y373000D01*
Y372000D01*
X264100Y369500D02*X261600Y372000D01*
X264100Y369500D02*X261600D01*
X260400Y370000D02*X259900Y369500D01*
X260400Y373000D02*Y370000D01*
Y373000D02*X259900Y373500D01*
X258900D01*
X258400Y373000D01*
Y370000D01*
X258900Y369500D02*X258400Y370000D01*
X259900Y369500D02*X258900D01*
X260400Y370500D02*X258400Y372500D01*
X257200Y369500D02*X256700D01*
X255500Y372700D02*X254700Y373500D01*
Y369500D01*
X255500D02*X254000D01*
X252800Y370000D02*X252300Y369500D01*
X252800Y373000D02*Y370000D01*
Y373000D02*X252300Y373500D01*
X251300D01*
X250800Y373000D01*
Y370000D01*
X251300Y369500D02*X250800Y370000D01*
X252300Y369500D02*X251300D01*
X252800Y370500D02*X250800Y372500D01*
X249600Y369500D02*X249100D01*
X247900Y372700D02*X247100Y373500D01*
Y369500D01*
X247900D02*X246400D01*
X244700D02*X243200Y371500D01*
Y373000D02*Y371500D01*
X243700Y373500D02*X243200Y373000D01*
X244700Y373500D02*X243700D01*
X245200Y373000D02*X244700Y373500D01*
X245200Y373000D02*Y372000D01*
X244700Y371500D01*
X243200D01*
X271000Y386500D02*Y382500D01*
Y386500D02*X269500Y384500D01*
X268000Y386500D01*
Y382500D01*
X266800Y384000D02*Y383000D01*
Y384000D02*X266300Y384500D01*
X265300D01*
X264800Y384000D01*
Y383000D01*
X265300Y382500D02*X264800Y383000D01*
X266300Y382500D02*X265300D01*
X266800Y383000D02*X266300Y382500D01*
X261600Y386500D02*Y382500D01*
X262100D02*X261600Y383000D01*
X263100Y382500D02*X262100D01*
X263600Y383000D02*X263100Y382500D01*
X263600Y384000D02*Y383000D01*
Y384000D02*X263100Y384500D01*
X262100D01*
X261600Y384000D01*
X259900Y382500D02*X258400D01*
X260400Y383000D02*X259900Y382500D01*
X260400Y384000D02*Y383000D01*
Y384000D02*X259900Y384500D01*
X258900D01*
X258400Y384000D01*
X260400Y383500D02*X258400D01*
Y384000D01*
X257200Y386500D02*Y383000D01*
X256700Y382500D01*
X255700Y385000D02*X255200D01*
X255700Y384000D02*X255200D01*
X252200Y382500D02*X250200D01*
X249700Y383000D01*
Y384200D02*Y383000D01*
X250200Y384700D02*X249700Y384200D01*
X251700Y384700D02*X250200D01*
X251700Y386500D02*Y382500D01*
X252200Y386500D02*X250200D01*
X249700Y386000D01*
Y385200D01*
X250200Y384700D02*X249700Y385200D01*
X248500Y385500D02*Y385400D01*
Y384000D02*Y382500D01*
X247500Y384000D02*Y383000D01*
Y384000D02*X247000Y384500D01*
X246000D01*
X245500Y384000D01*
Y383000D01*
X246000Y382500D02*X245500Y383000D01*
X247000Y382500D02*X246000D01*
X247500Y383000D02*X247000Y382500D01*
X244300Y385500D02*Y382500D01*
Y385500D02*X243600Y386500D01*
X242500D01*
X241800Y385500D01*
Y382500D01*
X244300Y384500D02*X241800D01*
X240100Y384000D02*Y382500D01*
Y384000D02*X239600Y384500D01*
X239100D01*
X238600Y384000D01*
Y382500D01*
Y384000D02*X238100Y384500D01*
X237600D01*
X237100Y384000D01*
Y382500D01*
X240600Y384500D02*X240100Y384000D01*
X235400D02*Y381000D01*
X235900Y384500D02*X235400Y384000D01*
X234900Y384500D01*
X233900D01*
X233400Y384000D01*
Y383000D01*
X233900Y382500D02*X233400Y383000D01*
X234900Y382500D02*X233900D01*
X235400Y383000D02*X234900Y382500D01*
X230400Y386500D02*Y385500D01*
X229400Y386500D02*Y385500D01*
X227700Y384500D02*X226200D01*
X228200Y384000D02*X227700Y384500D01*
X228200Y384000D02*Y383000D01*
X227700Y382500D01*
X226200D01*
X225000Y386500D02*Y382500D01*
Y384000D02*X224500Y384500D01*
X223500D01*
X223000Y384000D01*
Y382500D01*
X221300D02*X219800D01*
X221800Y383000D02*X221300Y382500D01*
X221800Y384000D02*Y383000D01*
Y384000D02*X221300Y384500D01*
X220300D01*
X219800Y384000D01*
X221800Y383500D02*X219800D01*
Y384000D01*
X217100Y384500D02*X216600Y384000D01*
X218100Y384500D02*X217100D01*
X218600Y384000D02*X218100Y384500D01*
X218600Y384000D02*Y383000D01*
X218100Y382500D01*
X216600Y384500D02*Y383000D01*
X216100Y382500D01*
X218100D02*X217100D01*
X216600Y383000D01*
X214400Y384000D02*Y381000D01*
X214900Y384500D02*X214400Y384000D01*
X213900Y384500D01*
X212900D01*
X212400Y384000D01*
Y383000D01*
X212900Y382500D02*X212400Y383000D01*
X213900Y382500D02*X212900D01*
X214400Y383000D02*X213900Y382500D01*
X211200Y386500D02*Y385500D01*
X210200Y386500D02*Y385500D01*
X120248Y228850D02*Y230850D01*
X119748Y231350D01*
X118748D01*
X118248Y230850D02*X118748Y231350D01*
X118248Y229350D02*Y230850D01*
X120248Y229350D02*X116248D01*
X118248Y230150D02*X116248Y231350D01*
X117748Y232550D02*X120248Y234550D01*
X117748Y232550D02*Y235050D01*
X120248Y234550D02*X116248D01*
X117748Y236250D02*X120248Y238250D01*
X117748Y236250D02*Y238750D01*
X120248Y238250D02*X116248D01*
X118650Y370050D02*Y371350D01*
X119350Y369350D02*X118650Y370050D01*
X121950Y369350D02*X119350D01*
X121950D02*X122650Y370050D01*
Y371350D01*
Y372550D02*Y374550D01*
Y372550D02*X120650D01*
X121150Y373050D01*
Y374050D01*
X120650Y374550D01*
X119150D01*
X118650Y374050D02*X119150Y374550D01*
X118650Y373050D02*Y374050D01*
X119150Y372550D02*X118650Y373050D01*
X119150Y375750D02*X118650Y376250D01*
X122150Y375750D02*X119150D01*
X122150D02*X122650Y376250D01*
Y377250D01*
X122150Y377750D01*
X119150D01*
X118650Y377250D02*X119150Y377750D01*
X118650Y376250D02*Y377250D01*
X119650Y375750D02*X121650Y377750D01*
M02*
