G04 start of page 2 for group -1 layer_idx 268435459 *
G04 Title: (unknown), <virtual group> *
G04 Creator: pcb-rnd 2.3.0 *
G04 CreationDate: 2021-04-06 18:34:35 UTC *
G04 For:  *
G04 Format: Gerber/RS-274X *
G04 PCB-Dimensions: 500000 500000 *
G04 PCB-Coordinate-Origin: lower left *
%MOIN*%
%FSLAX25Y25*%
%LNTOP_VIRTUAL_ASSY_NONE*%
%ADD134C,0.0070*%
%ADD133C,0.0394*%
%ADD132C,0.0250*%
%ADD131C,0.0217*%
%ADD130C,0.0150*%
%ADD129C,0.0080*%
%ADD128C,0.0100*%
%ADD127C,0.0790*%
%ADD126C,0.0200*%
%ADD125C,0.0640*%
%ADD124C,0.0256*%
%ADD123C,0.0420*%
%ADD122C,0.0276*%
%ADD121C,0.0374*%
%ADD120C,0.0295*%
%ADD119C,0.0394*%
%ADD118C,0.0430*%
%ADD117C,0.0350*%
%ADD116C,0.1580*%
%ADD115C,0.1040*%
%ADD114C,0.0400*%
%ADD113C,0.0571*%
%ADD112C,0.0600*%
%ADD111C,0.0689*%
%ADD110C,0.1000*%
%ADD109C,0.0866*%
%ADD108C,0.0984*%
%ADD107C,0.0787*%
%ADD106C,0.0800*%
%ADD105C,0.0850*%
%ADD104C,0.0001*%
%ADD103C,0.0700*%
G54D103*X281500Y351000D03*
G54D104*G36*
X277500Y320000D02*Y311500D01*
X275500D01*
Y320000D01*
X277500D01*
G37*
G36*
X259516Y313452D02*X254398D01*
Y307548D01*
X259516D01*
Y313452D01*
G37*
G36*
Y326452D02*X254398D01*
Y320548D01*
X259516D01*
Y326452D01*
G37*
G36*
X266602D02*X261484D01*
Y320548D01*
X266602D01*
Y326452D01*
G37*
G54D105*X253000Y347500D03*
G54D103*X241000Y294500D03*
G54D104*G36*
X266602Y313452D02*X261484D01*
Y307548D01*
X266602D01*
Y313452D01*
G37*
G36*
X259516Y299952D02*X254398D01*
Y294048D01*
X259516D01*
Y299952D01*
G37*
G54D106*X243000Y314500D03*
G54D104*G36*
X275500Y291000D02*Y299500D01*
X277500D01*
Y291000D01*
X275500D01*
G37*
G36*
X282500Y320000D02*Y311500D01*
X280500D01*
Y320000D01*
X282500D01*
G37*
G36*
X266602Y299952D02*X261484D01*
Y294048D01*
X266602D01*
Y299952D01*
G37*
G36*
X277760Y333154D02*Y328036D01*
X285240D01*
Y333154D01*
X277760D01*
G37*
G36*
Y344964D02*Y339846D01*
X285240D01*
Y344964D01*
X277760D01*
G37*
G36*
X242602Y337452D02*X237484D01*
Y331548D01*
X242602D01*
Y337452D01*
G37*
G36*
X249000Y268500D02*X257000D01*
Y260500D01*
X249000D01*
Y268500D01*
G37*
G54D106*X263000Y264500D03*
G54D107*X278480Y231823D03*
G54D104*G36*
X280500Y291000D02*Y299500D01*
X282500D01*
Y291000D01*
X280500D01*
G37*
G36*
X285500D02*Y299500D01*
X287500D01*
Y291000D01*
X285500D01*
G37*
G36*
X235369Y298240D02*X230251D01*
Y290760D01*
X235369D01*
Y298240D01*
G37*
G36*
X287500Y320000D02*Y311500D01*
X285500D01*
Y320000D01*
X287500D01*
G37*
G36*
X290500Y291000D02*Y299500D01*
X292500D01*
Y291000D01*
X290500D01*
G37*
G36*
X292500Y320000D02*Y311500D01*
X290500D01*
Y320000D01*
X292500D01*
G37*
G54D103*X236500Y197000D03*
X272000D03*
G54D104*G36*
X274543Y208201D02*X282417D01*
Y216075D01*
X274543D01*
Y208201D01*
G37*
G54D103*X126500Y189500D03*
G54D108*X155506Y172276D03*
G54D109*X217190Y189000D03*
G54D104*G36*
X195121Y166256D02*Y158185D01*
X209491D01*
Y166256D01*
X195121D01*
G37*
G36*
X197249Y192740D02*X192131D01*
Y185260D01*
X197249D01*
Y192740D01*
G37*
G36*
X209059D02*X203941D01*
Y185260D01*
X209059D01*
Y192740D01*
G37*
G36*
X177654D02*X172536D01*
Y185260D01*
X177654D01*
Y192740D01*
G37*
G36*
X189464D02*X184346D01*
Y185260D01*
X189464D01*
Y192740D01*
G37*
G36*
X177654Y177740D02*X172536D01*
Y170260D01*
X177654D01*
Y177740D01*
G37*
G36*
X189464D02*X184346D01*
Y170260D01*
X189464D01*
Y177740D01*
G37*
G54D110*X120500Y91500D03*
X177826Y108570D03*
G54D104*G36*
X150585Y108299D02*X160428D01*
Y118142D01*
X150585D01*
Y108299D01*
G37*
G36*
X170641Y126106D02*Y118035D01*
X185011D01*
Y126106D01*
X170641D01*
G37*
G36*
X195121Y110256D02*Y102185D01*
X209491D01*
Y110256D01*
X195121D01*
G37*
G36*
X194362Y140165D02*X201251D01*
Y133276D01*
X194362D01*
Y140165D01*
G37*
G54D111*X207649Y136720D03*
G54D104*G36*
X222539Y157515D02*X229429D01*
Y150626D01*
X222539D01*
Y157515D01*
G37*
G54D111*X235826Y154070D03*
G54D104*G36*
X222562Y125165D02*X229451D01*
Y118276D01*
X222562D01*
Y125165D01*
G37*
G54D111*X235849Y121720D03*
G54D103*X321290Y189670D03*
X243000Y187000D03*
X262500D03*
G54D104*G36*
X294528Y190996D02*Y185878D01*
X300432D01*
Y190996D01*
X294528D01*
G37*
G36*
X308528D02*Y185878D01*
X314432D01*
Y190996D01*
X308528D01*
G37*
G36*
X294528Y198082D02*Y192964D01*
X300432D01*
Y198082D01*
X294528D01*
G37*
G54D112*X296000Y155000D03*
X286000D03*
X276000D03*
X266000D03*
G54D104*G36*
X259000Y152000D02*X253000D01*
Y158000D01*
X259000D01*
Y152000D01*
G37*
G36*
X328240Y192230D02*Y187112D01*
X335720D01*
Y192230D01*
X328240D01*
G37*
G54D112*X348000Y155000D03*
X338000D03*
X328000D03*
X318000D03*
G54D104*G36*
X311000Y152000D02*X305000D01*
Y158000D01*
X311000D01*
Y152000D01*
G37*
G36*
X328240Y204040D02*Y198922D01*
X335720D01*
Y204040D01*
X328240D01*
G37*
G36*
X197249Y207740D02*X192131D01*
Y200260D01*
X197249D01*
Y207740D01*
G37*
G36*
X209059D02*X203941D01*
Y200260D01*
X209059D01*
Y207740D01*
G37*
G36*
X122760Y202749D02*Y197631D01*
X130240D01*
Y202749D01*
X122760D01*
G37*
G36*
X308528Y198082D02*Y192964D01*
X314432D01*
Y198082D01*
X308528D01*
G37*
G54D103*X128500Y262000D03*
G54D104*G36*
X137016Y235952D02*X131898D01*
Y230048D01*
X137016D01*
Y235952D01*
G37*
G36*
X113646Y243146D02*X119354D01*
Y248854D01*
X113646D01*
Y243146D01*
G37*
G54D113*X116500Y265685D03*
G54D104*G36*
X148000Y246000D02*X156000D01*
Y238000D01*
X148000D01*
Y246000D01*
G37*
G54D106*X152000Y232000D03*
G54D104*G36*
X144102Y235952D02*X138984D01*
Y230048D01*
X144102D01*
Y235952D01*
G37*
G54D113*X102500Y233000D03*
G54D104*G36*
X134260Y248654D02*Y243536D01*
X141740D01*
Y248654D01*
X134260D01*
G37*
G36*
Y260464D02*Y255346D01*
X141740D01*
Y260464D01*
X134260D01*
G37*
G36*
X185048Y284602D02*Y279484D01*
X190952D01*
Y284602D01*
X185048D01*
G37*
G54D106*X182000Y242000D03*
Y232000D03*
G54D104*G36*
X195559Y245740D02*X190441D01*
Y238260D01*
X195559D01*
Y245740D01*
G37*
G36*
Y260740D02*X190441D01*
Y253260D01*
X195559D01*
Y260740D01*
G37*
G36*
X159000Y270500D02*Y278500D01*
X167000D01*
Y270500D01*
X159000D01*
G37*
G54D106*X163000Y284500D03*
G54D104*G36*
X95800Y279800D02*X106200D01*
Y290200D01*
X95800D01*
Y279800D01*
G37*
G36*
X123800D02*X134200D01*
Y290200D01*
X123800D01*
Y279800D01*
G37*
G36*
X185048Y277516D02*Y272398D01*
X190952D01*
Y277516D01*
X185048D01*
G37*
G36*
X198048D02*Y272398D01*
X203952D01*
Y277516D01*
X198048D01*
G37*
G36*
Y284602D02*Y279484D01*
X203952D01*
Y284602D01*
X198048D01*
G37*
G36*
X219000Y268500D02*X227000D01*
Y260500D01*
X219000D01*
Y268500D01*
G37*
G54D103*X284000Y278500D03*
G54D104*G36*
X294760Y275154D02*Y270036D01*
X302240D01*
Y275154D01*
X294760D01*
G37*
G36*
Y286964D02*Y281846D01*
X302240D01*
Y286964D01*
X294760D01*
G37*
G54D106*X233000Y264500D03*
G54D104*G36*
X207369Y260740D02*X202251D01*
Y253260D01*
X207369D01*
Y260740D01*
G37*
G54D106*X152000Y222000D03*
G54D104*G36*
X137016Y223452D02*X131898D01*
Y217548D01*
X137016D01*
Y223452D01*
G37*
G36*
X144102D02*X138984D01*
Y217548D01*
X144102D01*
Y223452D01*
G37*
G54D106*X182000Y222000D03*
G54D104*G36*
X229334Y236016D02*Y227945D01*
X243704D01*
Y236016D01*
X229334D01*
G37*
G36*
X206834Y226016D02*Y217945D01*
X221204D01*
Y226016D01*
X206834D01*
G37*
G36*
X207369Y245740D02*X202251D01*
Y238260D01*
X207369D01*
Y245740D01*
G37*
G54D106*X152000Y212000D03*
G54D104*G36*
X122760Y214559D02*Y209441D01*
X130240D01*
Y214559D01*
X122760D01*
G37*
G36*
X99646Y210461D02*X105354D01*
Y216169D01*
X99646D01*
Y210461D01*
G37*
G54D106*X182000Y212000D03*
G54D114*X312500Y323000D03*
G54D104*G36*
X323559Y326740D02*X318441D01*
Y319260D01*
X323559D01*
Y326740D01*
G37*
G36*
X335369D02*X330251D01*
Y319260D01*
X335369D01*
Y326740D01*
G37*
G36*
X319000Y308500D02*X327000D01*
Y300500D01*
X319000D01*
Y308500D01*
G37*
G54D103*X331500Y244000D03*
G54D104*G36*
X343315Y327036D02*Y318964D01*
X357685D01*
Y327036D01*
X343315D01*
G37*
G36*
X335240Y218134D02*Y213016D01*
X342720D01*
Y218134D01*
X335240D01*
G37*
G36*
Y229945D02*Y224826D01*
X342720D01*
Y229945D01*
X335240D01*
G37*
G54D106*X333000Y304500D03*
G54D104*G36*
X305980Y206980D02*Y215480D01*
X307980D01*
Y206980D01*
X305980D01*
G37*
G36*
X307980Y235980D02*Y227480D01*
X305980D01*
Y235980D01*
X307980D01*
G37*
G36*
X314154Y247740D02*X309036D01*
Y240260D01*
X314154D01*
Y247740D01*
G37*
G36*
X310980Y206980D02*Y215480D01*
X312980D01*
Y206980D01*
X310980D01*
G37*
G36*
X315980D02*Y215480D01*
X317980D01*
Y206980D01*
X315980D01*
G37*
G36*
X320980D02*Y215480D01*
X322980D01*
Y206980D01*
X320980D01*
G37*
G36*
X312980Y235980D02*Y227480D01*
X310980D01*
Y235980D01*
X312980D01*
G37*
G36*
X317980D02*Y227480D01*
X315980D01*
Y235980D01*
X317980D01*
G37*
G36*
X322980D02*Y227480D01*
X320980D01*
Y235980D01*
X322980D01*
G37*
G36*
X325964Y247740D02*X320846D01*
Y240260D01*
X325964D01*
Y247740D01*
G37*
G36*
X319000Y260500D02*Y268500D01*
X327000D01*
Y260500D01*
X319000D01*
G37*
G54D106*X323000Y274500D03*
G54D104*G36*
X120334Y325516D02*Y317444D01*
X134704D01*
Y325516D01*
X120334D01*
G37*
G36*
X116340Y351500D02*Y344500D01*
X123340D01*
Y351500D01*
X116340D01*
G37*
G54D115*X129000Y304685D03*
G54D103*X158190Y300810D03*
G54D104*G36*
X182000Y292000D02*Y300500D01*
X184000D01*
Y292000D01*
X182000D01*
G37*
G36*
X184000Y321000D02*Y312500D01*
X182000D01*
Y321000D01*
X184000D01*
G37*
G36*
X160749Y315145D02*X155631D01*
Y307665D01*
X160749D01*
Y315145D01*
G37*
G36*
X172559D02*X167441D01*
Y307665D01*
X172559D01*
Y315145D01*
G37*
G36*
X187000Y292000D02*Y300500D01*
X189000D01*
Y292000D01*
X187000D01*
G37*
G36*
X189000Y321000D02*Y312500D01*
X187000D01*
Y321000D01*
X189000D01*
G37*
G36*
X194000D02*Y312500D01*
X192000D01*
Y321000D01*
X194000D01*
G37*
G36*
X192000Y292000D02*Y300500D01*
X194000D01*
Y292000D01*
X192000D01*
G37*
G36*
X197000D02*Y300500D01*
X199000D01*
Y292000D01*
X197000D01*
G37*
G36*
X199000Y321000D02*Y312500D01*
X197000D01*
Y321000D01*
X199000D01*
G37*
G36*
X202548Y331016D02*Y325898D01*
X208452D01*
Y331016D01*
X202548D01*
G37*
G54D114*X297500Y308000D03*
G54D116*X315500Y371500D03*
G54D104*G36*
X235516Y337452D02*X230398D01*
Y331548D01*
X235516D01*
Y337452D01*
G37*
G54D105*X253000Y357500D03*
G54D104*G36*
X257150Y363350D02*Y371650D01*
X248850D01*
Y363350D01*
X257150D01*
G37*
G36*
X202548Y338102D02*Y332984D01*
X208452D01*
Y338102D01*
X202548D01*
G37*
G36*
X207760Y308869D02*Y303751D01*
X215240D01*
Y308869D01*
X207760D01*
G37*
G36*
X229000Y318500D02*X237000D01*
Y310500D01*
X229000D01*
Y318500D01*
G37*
G36*
X190048Y331016D02*Y325898D01*
X195952D01*
Y331016D01*
X190048D01*
G37*
G36*
Y338102D02*Y332984D01*
X195952D01*
Y338102D01*
X190048D01*
G37*
G54D105*X253000Y387500D03*
X193500Y347500D03*
Y357500D03*
G54D104*G36*
X197650Y363350D02*Y371650D01*
X189350D01*
Y363350D01*
X197650D01*
G37*
G54D105*X193500Y387500D03*
G54D104*G36*
X176430Y343952D02*X171312D01*
Y338048D01*
X176430D01*
Y343952D01*
G37*
G36*
X183516D02*X178398D01*
Y338048D01*
X183516D01*
Y343952D01*
G37*
G36*
X176473Y331452D02*X171355D01*
Y325548D01*
X176473D01*
Y331452D01*
G37*
G36*
X183559D02*X178441D01*
Y325548D01*
X183559D01*
Y331452D01*
G37*
G54D116*X355500Y371500D03*
G54D104*G36*
X331563Y355437D02*Y347563D01*
X339437D01*
Y355437D01*
X331563D01*
G37*
G54D107*X325500Y351500D03*
G54D116*X93540Y373000D03*
X133540D03*
G54D104*G36*
X160000Y384000D02*X168000D01*
Y376000D01*
X160000D01*
Y384000D01*
G37*
G54D103*X107240Y348000D03*
G54D104*G36*
X96815Y325536D02*Y317464D01*
X111185D01*
Y325536D01*
X96815D01*
G37*
G54D115*X101000Y304685D03*
G54D103*X113540Y358000D03*
X221000Y342000D03*
Y327000D03*
G54D104*G36*
X207760Y297059D02*Y291941D01*
X215240D01*
Y297059D01*
X207760D01*
G37*
G36*
X223559Y298240D02*X218441D01*
Y290760D01*
X223559D01*
Y298240D01*
G37*
G54D114*X206500Y288000D03*
G54D109*X215500Y249500D03*
X217190Y204000D03*
G54D117*G54D118*G54D117*G54D119*G54D120*G54D117*G54D120*G54D117*G54D121*G54D119*G54D112*G54D121*G54D122*G54D117*G54D123*G54D117*G54D124*G54D119*G54D124*G54D119*G54D125*G54D119*G54D117*G54D119*G54D124*G54D119*G54D126*G54D119*G54D117*G54D119*G54D117*G54D125*G54D117*G54D126*G54D127*G54D118*G54D119*G54D118*G54D127*G54D117*G54D127*G54D119*G54D117*G54D125*G54D117*G54D126*G54D119*G54D128*X118563Y327287D02*X136476D01*
X294000Y321500D02*X274000D01*
X200500Y322500D02*X180500D01*
G54D129*X260107Y326255D02*X260893D01*
X177064Y325745D02*X177850D01*
X324543Y326740D02*X329267D01*
X324543Y319260D02*X329267D01*
G54D128*X341544Y317193D02*Y328807D01*
G54D129*X260107Y320745D02*X260893D01*
G54D128*X228000Y319500D02*X248000D01*
G54D130*X310500Y402500D02*Y436400D01*
Y435000D02*X360500Y430000D01*
X310500Y436400D02*X360500D01*
X310500Y405000D02*X335500Y402500D01*
X310500Y430000D02*X360500Y425000D01*
X310500Y432500D02*X360500Y427500D01*
X321400Y436400D02*X360500Y432500D01*
X346000Y436400D02*X360500Y435000D01*
X310500Y422500D02*X360500Y417500D01*
X310500Y425000D02*X360500Y420000D01*
X310500Y427500D02*X360500Y422500D01*
X310500Y412500D02*X360500Y407500D01*
X310500Y415000D02*X360500Y410000D01*
X310500Y420000D02*X360500Y415000D01*
Y436400D02*Y402500D01*
X310500Y407500D02*X360500Y402500D01*
X310500Y410000D02*X360500Y405000D01*
X310500Y417500D02*X360500Y412500D01*
X364500Y343500D02*Y402500D01*
X306500D01*
Y343500D01*
G54D128*X318000Y309500D02*Y299500D01*
Y309500D02*X338000D01*
Y299500D02*X318000D01*
X338000D02*Y309500D01*
X341544Y328807D02*X359456D01*
Y317193D01*
X341544D01*
X318000Y304500D02*X313000Y307000D01*
X318000Y304500D02*X313000Y302000D01*
Y307000D02*Y302000D01*
X318000Y259500D02*X328000D01*
X318000D02*Y279500D01*
X328000D02*Y259500D01*
Y279500D02*X318000D01*
X323000Y259500D02*X320500Y254500D01*
X323000Y259500D02*X325500Y254500D01*
X320500D02*X325500D01*
G54D129*X342720Y219118D02*Y223843D01*
G54D128*X353000Y144500D02*Y132000D01*
X348000D01*
G54D114*Y136600D02*Y138800D01*
Y146500D02*Y155000D01*
G54D128*Y132000D02*Y112300D01*
G54D114*Y118600D02*Y120800D01*
Y127600D02*Y129800D01*
Y110800D02*Y107600D01*
G54D130*X349250Y110600D02*Y131700D01*
G54D128*X303000Y132000D02*Y144500D01*
Y132000D02*X308000D01*
X311500D02*X314500D01*
G54D114*X308000Y136600D02*Y138800D01*
G54D128*X341500Y132000D02*X344500D01*
X321500D02*X324500D01*
X331500D02*X334500D01*
G54D114*X328000Y136600D02*Y138800D01*
X318000Y136600D02*Y138800D01*
G54D128*X353000Y144500D02*X303000D01*
X301000D02*Y132000D01*
G54D114*X296000Y136600D02*Y138800D01*
X286000Y136600D02*Y138800D01*
G54D128*X308000Y112300D02*Y132000D01*
G54D114*X318000Y118600D02*Y120800D01*
X308000Y118600D02*Y120800D01*
Y127600D02*Y129800D01*
X318000Y127600D02*Y129800D01*
X338000Y118600D02*Y120800D01*
G54D128*X334500Y112300D02*X348000D01*
G54D114*X328000Y118600D02*Y120800D01*
Y127600D02*Y129800D01*
G54D128*X308000Y112300D02*X348000D01*
X282500D02*X296000D01*
G54D114*X286000Y118600D02*Y120800D01*
Y127600D02*Y129800D01*
X296000Y127600D02*Y129800D01*
G54D128*Y132000D02*Y112300D01*
G54D114*Y118600D02*Y120800D01*
X286000Y110800D02*Y107600D01*
X296000Y110800D02*Y107600D01*
G54D130*X297250Y110600D02*Y131700D01*
G54D128*X301000Y132000D02*X296000D01*
X289500D02*X292500D01*
G54D114*X338000Y127600D02*Y129800D01*
Y110800D02*Y107600D01*
X328000Y110800D02*Y107600D01*
X318000Y110800D02*Y107600D01*
X308000Y110800D02*Y107600D01*
G54D130*X306750Y110300D02*Y131700D01*
G54D114*X318000Y146500D02*Y155000D01*
X308000Y146500D02*Y155000D01*
X296000Y146500D02*Y155000D01*
X286000Y146500D02*Y155000D01*
X338000Y136600D02*Y138800D01*
Y146500D02*Y155000D01*
X328000Y146500D02*Y155000D01*
G54D130*X354500Y436400D02*Y483500D01*
X316500D01*
Y436400D01*
G54D128*X304480Y223980D02*Y237480D01*
G54D129*X315138Y247740D02*X319862D01*
X315138Y240260D02*X319862D01*
X335240Y219118D02*Y223843D01*
G54D128*X304480Y205480D02*X324480D01*
X304480D02*Y218980D01*
X324480Y237480D02*X304480D01*
X294000Y321500D02*Y289500D01*
G54D129*X294760Y276138D02*Y280862D01*
X302240Y276138D02*Y280862D01*
X300235Y191588D02*Y192374D01*
X314235Y191588D02*Y192374D01*
G54D128*X324480Y237480D02*Y205480D01*
X264307Y207807D02*Y236154D01*
X292653D01*
G54D131*X278480Y223949D02*Y225918D01*
X275330Y223949D02*X281630D01*
X275330Y220012D02*X281630D01*
G54D128*X292653Y236154D02*Y207807D01*
G54D131*X278480Y218043D02*Y220012D01*
G54D128*X274000Y289500D02*X294000D01*
X274000D02*Y303000D01*
Y308000D02*Y321500D01*
G54D129*X277760Y334138D02*Y338862D01*
X285240Y334138D02*Y338862D01*
X260107Y313255D02*X260893D01*
X260107Y307745D02*X260893D01*
X260107Y299755D02*X260893D01*
X260107Y294245D02*X260893D01*
G54D128*X248000Y269500D02*X268000D01*
Y259500D02*X248000D01*
X268000D02*Y269500D01*
X248000Y309500D02*Y319500D01*
X243000Y400800D02*Y367500D01*
X248000Y441200D02*Y424800D01*
X243200Y403800D02*X248000Y402800D01*
X243000Y367500D02*X263000D01*
G54D132*X253000D02*Y347500D01*
G54D128*X263000Y400800D02*Y367500D01*
X243200Y424800D02*X262800D01*
X243200D02*Y402800D01*
Y424800D02*X262800Y420900D01*
Y423900D02*X258000Y424800D01*
X243200Y412800D02*X262800Y408900D01*
X243200Y409800D02*X262800Y405900D01*
X243200Y406800D02*X262800Y402900D01*
X241000Y402800D02*Y400800D01*
X243200Y421800D02*X262800Y417900D01*
X243200Y418800D02*X262800Y414900D01*
X243200Y415800D02*X262800Y411900D01*
X241000Y402800D02*X265000D01*
X262800Y424800D02*Y402800D01*
X265000D02*Y400800D01*
X241000D02*X265000D01*
X258000Y424800D02*Y441101D01*
X257999Y441102D01*
G54D129*X294725Y191588D02*Y192374D01*
G54D128*X292653Y207807D02*X264307D01*
G54D114*X276000Y146500D02*Y155000D01*
X266000Y146500D02*Y155000D01*
G54D128*X259500Y132000D02*X262500D01*
G54D114*X276000Y136600D02*Y138800D01*
X266000Y136600D02*Y138800D01*
G54D128*X301000Y144500D02*X251000D01*
X269500Y132000D02*X272500D01*
G54D114*X266000Y127600D02*Y129800D01*
X276000Y127600D02*Y129800D01*
G54D128*X279500Y132000D02*X282500D01*
G54D114*X276000Y118600D02*Y120800D01*
X266000Y118600D02*Y120800D01*
X276000Y110800D02*Y107600D01*
X266000Y110800D02*Y107600D01*
G54D128*X256000Y112300D02*X296000D01*
G54D129*X328240Y193214D02*Y197938D01*
X335720Y193214D02*Y197938D01*
X308725Y191588D02*Y192374D01*
G54D128*X136476Y327287D02*Y315673D01*
X180500Y309000D02*Y322500D01*
G54D129*X190245Y331607D02*Y332393D01*
X177064Y331255D02*X177850D01*
X161733Y315145D02*X166457D01*
X236107Y331745D02*X236893D01*
X195755Y331607D02*Y332393D01*
X202745Y331607D02*Y332393D01*
X208255Y331607D02*Y332393D01*
G54D128*X180500Y290500D02*X200500D01*
X180500D02*Y304000D01*
G54D129*X207760Y298043D02*Y302767D01*
X215240Y298043D02*Y302767D01*
X224543Y298240D02*X229267D01*
X224543Y290760D02*X229267D01*
G54D128*X228000Y319500D02*Y309500D01*
Y314500D02*X223000Y317000D01*
X228000Y314500D02*X223000Y312000D01*
Y317000D02*Y312000D01*
X248000Y309500D02*X228000D01*
G54D129*X161733Y307665D02*X166457D01*
X185245Y278107D02*Y278893D01*
X190755Y278107D02*Y278893D01*
G54D128*X200500Y322500D02*Y290500D01*
G54D129*X198245Y278107D02*Y278893D01*
X203755Y278107D02*Y278893D01*
G54D128*X187000Y207000D02*X147000D01*
G54D129*X198233Y200260D02*X202957D01*
X198233Y192740D02*X202957D01*
X178638D02*X183362D01*
G54D128*X193350Y168027D02*X211263D01*
Y156413D01*
X193350D02*Y168027D01*
G54D129*X198233Y185260D02*X202957D01*
X178638D02*X183362D01*
X178638Y177740D02*X183362D01*
X178638Y170260D02*X183362D01*
G54D128*X212504Y154070D02*X216504D01*
X214504Y156070D02*Y152070D01*
X211263Y156413D02*X193350D01*
X245307Y154070D02*X249307D01*
G54D133*X227805Y148165D02*X222304D01*
X227805Y159976D02*X222304D01*
X227805Y146196D02*X224061D01*
G54D114*X256000Y146500D02*Y155000D01*
G54D133*X227805Y161944D02*X224061D01*
X227805Y144228D02*X227445D01*
G54D128*X212526Y121720D02*X216526D01*
G54D133*X227827Y127626D02*X222327D01*
X227827Y129594D02*X224083D01*
X227827Y131563D02*X227467D01*
G54D128*X217129Y136720D02*X221129D01*
X214526Y123720D02*Y119720D01*
G54D133*X227827Y115815D02*X222327D01*
X227827Y113846D02*X224083D01*
G54D128*X245329Y121720D02*X249329D01*
X256000Y112300D02*Y132000D01*
X251000D02*Y144500D01*
Y132000D02*X256000D01*
G54D114*Y118600D02*Y120800D01*
Y127600D02*Y129800D01*
Y136600D02*Y138800D01*
G54D130*X254750Y110300D02*Y131700D01*
G54D133*X227827Y111878D02*X227467D01*
G54D114*X256000Y110800D02*Y107600D01*
G54D128*X184326Y136720D02*X188326D01*
X168870Y127877D02*X186783D01*
Y116263D02*X168870D01*
Y127877D01*
X186326Y138720D02*Y134720D01*
X186783Y127877D02*Y116263D01*
G54D133*X199627Y130815D02*X194127D01*
X199627Y142626D02*X194127D01*
X199627Y128846D02*X195883D01*
X199627Y144594D02*X195883D01*
X199627Y126878D02*X199267D01*
X199627Y146563D02*X199267D01*
X227805Y163913D02*X227445D01*
G54D128*X187000Y207000D02*Y247000D01*
X193350Y112027D02*X211263D01*
X205063Y216173D02*Y227787D01*
G54D129*X196543Y245740D02*X201267D01*
X196543Y238260D02*X201267D01*
X198233Y207740D02*X202957D01*
G54D128*X211263Y112027D02*Y100413D01*
X193350D01*
Y112027D01*
X158000Y269500D02*Y289500D01*
X168000D02*Y269500D01*
Y289500D02*X158000D01*
X163000Y269500D02*X165500Y264500D01*
X160500D02*X165500D01*
X147000Y247000D02*X162000D01*
G54D129*X137607Y235755D02*X138393D01*
G54D128*X163000Y269500D02*X160500Y264500D01*
G54D129*X141740Y249638D02*Y254362D01*
X137607Y223255D02*X138393D01*
X137607Y217745D02*X138393D01*
X137607Y230245D02*X138393D01*
G54D128*X172000Y247000D02*X187000D01*
X218000Y264500D02*X213000Y262000D01*
Y267000D02*Y262000D01*
G54D129*X196543Y260740D02*X201267D01*
X196543Y253260D02*X201267D01*
G54D128*X218000Y269500D02*Y259500D01*
X238000D02*X218000D01*
Y264500D02*X213000Y267000D01*
X158000Y269500D02*X168000D01*
X243000Y267000D02*Y262000D01*
X218000Y269500D02*X238000D01*
Y259500D02*Y269500D01*
X248000D02*Y259500D01*
Y264500D02*X243000Y267000D01*
X248000Y264500D02*X243000Y262000D01*
X227563Y237787D02*X245476D01*
Y226173D01*
X227563D01*
Y237787D01*
X205063Y227787D02*X222976D01*
Y216173D01*
X205063D01*
G54D130*X88290Y436500D02*Y402500D01*
Y436500D02*X138790D01*
X88290Y435000D02*X138790Y430000D01*
X88290Y404500D02*X108490Y402500D01*
X138790Y433500D02*X107490Y436500D01*
X88290Y410500D02*X138790Y405500D01*
X88290Y407500D02*X138790Y402500D01*
X88290Y419500D02*X138790Y414500D01*
X88290Y416500D02*X138790Y411500D01*
X88290Y413500D02*X138790Y408500D01*
X88290Y428500D02*X138790Y423500D01*
X88290Y425500D02*X138790Y420500D01*
X88290Y422500D02*X138790Y417500D01*
X84490Y402500D02*X142590D01*
X138790Y436500D02*Y402500D01*
X88290Y431500D02*X138790Y426500D01*
X84490Y402500D02*Y345500D01*
X142590D02*X84490D01*
G54D128*X95044Y327307D02*X112956D01*
Y315693D02*X95044D01*
Y327307D01*
G54D130*X142590Y402500D02*Y345500D01*
G54D128*X159000Y385000D02*Y375000D01*
Y385000D02*X169000D01*
Y375000D02*Y385000D01*
Y375000D01*
X136476Y315673D02*X118563D01*
X169000Y375000D02*X159000D01*
X169000D01*
X112956Y327307D02*Y315693D01*
X203500Y400800D02*Y367500D01*
X203300Y424800D02*Y402800D01*
G54D132*X193500Y367500D02*Y347500D01*
G54D128*X203300Y423900D02*X198500Y424800D01*
X181500Y402800D02*X205500D01*
Y400800D01*
X181500Y402800D02*Y400800D01*
X205500D01*
X183500D02*Y367500D01*
X183700Y424800D02*Y402800D01*
X188500Y441200D02*Y424800D01*
X198500D02*Y441101D01*
X198499Y441102D01*
X183700Y424800D02*X203300D01*
X183700Y421800D02*X203300Y417900D01*
X183700Y424800D02*X203300Y420900D01*
X183700Y418800D02*X203300Y414900D01*
X183700Y415800D02*X203300Y411900D01*
X183700Y412800D02*X203300Y408900D01*
X183700Y409800D02*X203300Y405900D01*
X183700Y406800D02*X203300Y402900D01*
X183700Y403800D02*X188500Y402800D01*
G54D130*X91740Y485500D02*Y436500D01*
Y485500D02*X135340D01*
Y436500D01*
G54D128*X118563Y315673D02*Y327287D01*
G54D126*X101000Y292874D02*Y296811D01*
X129000Y292874D02*Y296811D01*
G54D128*X111579Y241669D02*Y270016D01*
X121421D01*
X116500Y256827D02*Y261157D01*
X121421Y270016D02*Y241669D01*
X116500Y250528D02*Y254858D01*
X114138D02*X118862D01*
X114138Y256827D02*X118862D01*
X147000Y247000D02*Y207000D01*
G54D129*X122760Y203733D02*Y208457D01*
G54D128*X121421Y241669D02*X111579D01*
G54D129*X134260Y249638D02*Y254362D01*
G54D128*X97579Y208984D02*Y237331D01*
X102500Y217843D02*Y222173D01*
X100138D02*X104862D01*
X102500Y224142D02*Y228472D01*
X100138Y224142D02*X104862D01*
X97579Y237331D02*X107421D01*
Y208984D01*
X97579D01*
X88577Y179165D02*X143695D01*
Y176213D01*
G54D129*X130240Y203733D02*Y208457D01*
G54D128*X88577Y106331D02*Y179165D01*
X112199Y140779D02*X120073D01*
X112199Y144716D02*X120073D01*
X116136D02*Y172276D01*
X143695Y106331D02*X88577D01*
X143695D02*Y109283D01*
Y168339D02*Y117157D01*
X116136Y140779D02*Y113220D01*
X149601Y172276D02*X116136D01*
X145664Y106331D02*X147632D01*
X149601Y113220D02*X116136D01*
X147632Y106331D02*Y108299D01*
Y125031D02*Y127984D01*
Y118142D02*Y121094D01*
Y164401D02*Y167354D01*
Y157512D02*Y160464D01*
Y150622D02*Y153575D01*
X145664Y179165D02*X147632D01*
Y177197D02*Y179165D01*
Y131921D02*Y134874D01*
Y138811D02*Y140779D01*
Y144716D02*Y146685D01*
G54D130*X306500Y343500D02*X364500D01*
G54D129*X236107Y337255D02*X236893D01*
X177021Y343755D02*X177807D01*
X177021Y338245D02*X177807D01*
G54D128*X183500Y367500D02*X203500D01*
X180500Y304000D02*G75*G03X180500Y309000I0J2500D01*G01*
X143695Y176213D02*G75*G02X143695Y168339I0J-3937D01*G01*
X162000Y247000D02*G75*G03X172000Y247000I5000J0D01*G01*
X304480Y218980D02*G75*G03X304480Y223980I0J2500D01*G01*
X274000Y303000D02*G75*G03X274000Y308000I0J2500D01*G01*
X143695Y117157D02*G75*G02X143695Y109283I0J-3937D01*G01*
X218504Y154070D02*G75*G03X243307Y154070I12402J0D01*G01*
G75*G03X218504Y154070I-12402J0D01*G01*
X218526Y121720D02*G75*G03X243329Y121720I12402J0D01*G01*
G75*G03X218526Y121720I-12402J0D01*G01*
X190326Y136720D02*G75*G03X215129Y136720I12402J0D01*G01*
G75*G03X190326Y136720I-12402J0D01*G01*
X257999Y441102D02*G75*G03X248001Y441298I-4999J98D01*G01*
X248001Y441298D02*G75*G03X248000Y441200I4999J-98D01*G01*
X198499Y441102D02*G75*G03X188501Y441298I-4999J98D01*G01*
X188501Y441298D02*G75*G03X188500Y441200I4999J-98D01*G01*
X101000Y275157D02*G75*G03X101000Y294843I0J9843D01*G01*
G75*G03X101000Y275157I0J-9843D01*G01*
X129000D02*G75*G03X129000Y294843I0J9843D01*G01*
G75*G03X129000Y275157I0J-9843D01*G01*
G54D134*X230000Y244000D02*X230500Y243500D01*
X228500Y244000D02*X230000D01*
X228000Y243500D02*X228500Y244000D01*
X228000Y243500D02*Y242500D01*
X228500Y242000D01*
X230000D01*
X230500Y241500D01*
Y240500D01*
X230000Y240000D02*X230500Y240500D01*
X228500Y240000D02*X230000D01*
X228000Y240500D02*X228500Y240000D01*
X231700Y244000D02*Y240000D01*
Y244000D02*X233200Y242000D01*
X234700Y244000D01*
Y240000D01*
X235900Y243000D02*Y240000D01*
Y243000D02*X236600Y244000D01*
X237700D01*
X238400Y243000D01*
Y240000D01*
X235900Y242000D02*X238400D01*
X239600Y244000D02*Y240000D01*
X241600D01*
X242800Y244000D02*Y240000D01*
X244800D01*
X219700Y271000D02*X221000D01*
X219000Y271700D02*X219700Y271000D01*
X219000Y274300D02*Y271700D01*
Y274300D02*X219700Y275000D01*
X221000D01*
X222200Y274500D02*Y271500D01*
Y274500D02*X222700Y275000D01*
X223700D01*
X224200Y274500D01*
Y271500D01*
X223700Y271000D02*X224200Y271500D01*
X222700Y271000D02*X223700D01*
X222200Y271500D02*X222700Y271000D01*
X225400Y275000D02*Y271000D01*
Y275000D02*X227900Y271000D01*
Y275000D02*Y271000D01*
X229100Y275000D02*Y271000D01*
Y275000D02*X231600Y271000D01*
Y275000D02*Y271000D01*
X234300Y275000D02*X234800Y274500D01*
X233300Y275000D02*X234300D01*
X232800Y274500D02*X233300Y275000D01*
X232800Y274500D02*Y271500D01*
X233300Y271000D01*
X234300Y273200D02*X234800Y272700D01*
X232800Y273200D02*X234300D01*
X233300Y271000D02*X234300D01*
X234800Y271500D01*
Y272700D02*Y271500D01*
X236000D02*X236500Y271000D01*
X236000Y274500D02*Y271500D01*
Y274500D02*X236500Y275000D01*
X237500D01*
X238000Y274500D01*
Y271500D01*
X237500Y271000D02*X238000Y271500D01*
X236500Y271000D02*X237500D01*
X236000Y272000D02*X238000Y274000D01*
X231776Y249492D02*X233776D01*
X232776D02*Y245492D01*
X235476Y249492D02*Y245492D01*
X234976Y249492D02*X236976D01*
X237476Y248992D01*
Y247992D01*
X236976Y247492D02*X237476Y247992D01*
X235476Y247492D02*X236976D01*
X238676Y248692D02*X239476Y249492D01*
Y245492D01*
X238676D02*X240176D01*
X204826Y172070D02*X206826D01*
X208026Y174070D02*X209026Y170070D01*
X210026Y174070D01*
X205000Y233000D02*Y230000D01*
Y233000D02*X205500Y233500D01*
X206500D01*
X207000Y233000D01*
Y230000D01*
X206500Y229500D02*X207000Y230000D01*
X205500Y229500D02*X206500D01*
X205000Y230000D02*X205500Y229500D01*
X208200Y233500D02*Y229500D01*
Y233500D02*X210200D01*
X208200Y231700D02*X209700D01*
X211400Y233500D02*Y229500D01*
Y233500D02*X213400D01*
X211400Y231700D02*X212900D01*
X216600Y233500D02*X217100Y233000D01*
X215100Y233500D02*X216600D01*
X214600Y233000D02*X215100Y233500D01*
X214600Y233000D02*Y232000D01*
X215100Y231500D01*
X216600D01*
X217100Y231000D01*
Y230000D01*
X216600Y229500D02*X217100Y230000D01*
X215100Y229500D02*X216600D01*
X214600Y230000D02*X215100Y229500D01*
X218300Y231700D02*X219800D01*
X218300Y229500D02*X220300D01*
X218300Y233500D02*Y229500D01*
Y233500D02*X220300D01*
X221500D02*X223500D01*
X222500D02*Y229500D01*
X227137Y168070D02*X228437D01*
X226437Y168770D02*X227137Y168070D01*
X226437Y171370D02*Y168770D01*
Y171370D02*X227137Y172070D01*
X228437D01*
X229637Y171270D02*X230437Y172070D01*
Y168070D01*
X229637D02*X231137D01*
X232337Y171570D02*X232837Y172070D01*
X233837D01*
X234337Y171570D01*
X233837Y168070D02*X234337Y168570D01*
X232837Y168070D02*X233837D01*
X232337Y168570D02*X232837Y168070D01*
Y170270D02*X233837D01*
X234337Y171570D02*Y170770D01*
Y169770D02*Y168570D01*
Y169770D02*X233837Y170270D01*
X234337Y170770D02*X233837Y170270D01*
X208776Y238992D02*X210776D01*
X209776D02*Y234992D01*
X212476Y238992D02*Y234992D01*
X211976Y238992D02*X213976D01*
X214476Y238492D01*
Y237492D01*
X213976Y236992D02*X214476Y237492D01*
X212476Y236992D02*X213976D01*
X215676Y238492D02*X216176Y238992D01*
X217676D01*
X218176Y238492D01*
Y237492D01*
X215676Y234992D02*X218176Y237492D01*
X215676Y234992D02*X218176D01*
X223455Y299650D02*X224755D01*
X222755Y300350D02*X223455Y299650D01*
X222755Y302950D02*Y300350D01*
Y302950D02*X223455Y303650D01*
X224755D01*
X227455D02*X227955Y303150D01*
X226455Y303650D02*X227455D01*
X225955Y303150D02*X226455Y303650D01*
X225955Y303150D02*Y300150D01*
X226455Y299650D01*
X227455Y301850D02*X227955Y301350D01*
X225955Y301850D02*X227455D01*
X226455Y299650D02*X227455D01*
X227955Y300150D01*
Y301350D02*Y300150D01*
X229155Y301150D02*X231155Y303650D01*
X229155Y301150D02*X231655D01*
X231155Y303650D02*Y299650D01*
X352500Y334500D02*Y331500D01*
Y334500D02*X353000Y335000D01*
X354000D01*
X354500Y334500D01*
Y331500D01*
X354000Y331000D02*X354500Y331500D01*
X353000Y331000D02*X354000D01*
X352500Y331500D02*X353000Y331000D01*
X355700Y335000D02*Y331500D01*
X356200Y331000D01*
X357200D01*
X357700Y331500D01*
Y335000D02*Y331500D01*
X358900Y335000D02*X360900D01*
X359900D02*Y331000D01*
X322255Y332650D02*X324255D01*
X324755Y332150D01*
Y331150D01*
X324255Y330650D02*X324755Y331150D01*
X322755Y330650D02*X324255D01*
X322755Y332650D02*Y328650D01*
X323555Y330650D02*X324755Y328650D01*
X325955Y331850D02*X326755Y332650D01*
Y328650D01*
X325955D02*X327455D01*
X328655Y332150D02*X329155Y332650D01*
X330655D01*
X331155Y332150D01*
Y331150D01*
X328655Y328650D02*X331155Y331150D01*
X328655Y328650D02*X331155D01*
X319700Y311000D02*X321000D01*
X319000Y311700D02*X319700Y311000D01*
X319000Y314300D02*Y311700D01*
Y314300D02*X319700Y315000D01*
X321000D01*
X322200Y314500D02*Y311500D01*
Y314500D02*X322700Y315000D01*
X323700D01*
X324200Y314500D01*
Y311500D01*
X323700Y311000D02*X324200Y311500D01*
X322700Y311000D02*X323700D01*
X322200Y311500D02*X322700Y311000D01*
X325400Y315000D02*Y311000D01*
Y315000D02*X327900Y311000D01*
Y315000D02*Y311000D01*
X329100Y315000D02*Y311000D01*
Y315000D02*X331600Y311000D01*
Y315000D02*Y311000D01*
X334300Y315000D02*X334800Y314500D01*
X333300Y315000D02*X334300D01*
X332800Y314500D02*X333300Y315000D01*
X332800Y314500D02*Y311500D01*
X333300Y311000D01*
X334300Y313200D02*X334800Y312700D01*
X332800Y313200D02*X334300D01*
X333300Y311000D02*X334300D01*
X334800Y311500D01*
Y312700D02*Y311500D01*
X336000Y314200D02*X336800Y315000D01*
Y311000D01*
X336000D02*X337500D01*
X364000Y242500D02*X364500Y243000D01*
X364000Y241500D02*Y242500D01*
X364500Y241000D02*X364000Y241500D01*
X364500Y241000D02*X365500D01*
X366000Y241500D01*
X364000Y243000D02*X365500D01*
X366000Y243500D01*
Y241500D02*Y242500D01*
X365500Y243000D01*
X362000Y245200D02*X365500D01*
X366000Y245700D01*
X363500Y244700D02*Y245700D01*
X362000Y248500D02*X366000D01*
X364500D02*X364000Y249000D01*
Y250000D01*
X364500Y250500D01*
X366000D01*
X364500Y251700D02*X365500D01*
X364500D02*X364000Y252200D01*
Y253200D01*
X364500Y253700D01*
X365500D01*
X366000Y253200D02*X365500Y253700D01*
X366000Y252200D02*Y253200D01*
X365500Y251700D02*X366000Y252200D01*
X364500Y255400D02*X366000D01*
X364500D02*X364000Y255900D01*
Y256400D01*
X364500Y256900D01*
X366000D01*
X364500D02*X364000Y257400D01*
Y257900D01*
X364500Y258400D01*
X366000D01*
X364000Y254900D02*X364500Y255400D01*
X366000Y260100D02*Y261600D01*
X365500Y259600D02*X366000Y260100D01*
X364500Y259600D02*X365500D01*
X364500D02*X364000Y260100D01*
Y261100D01*
X364500Y261600D01*
X365000Y259600D02*Y261600D01*
X364500D01*
X366000Y262800D02*Y263300D01*
X362000Y266300D02*X366000D01*
X362000Y268800D02*X366000D01*
X364000Y266300D02*Y268800D01*
Y271500D02*X364500Y272000D01*
X364000Y270500D02*Y271500D01*
X364500Y270000D02*X364000Y270500D01*
X364500Y270000D02*X365500D01*
X366000Y270500D01*
X364000Y272000D02*X365500D01*
X366000Y272500D01*
Y270500D02*Y271500D01*
X365500Y272000D01*
X364500Y274200D02*X366000D01*
X364500D02*X364000Y274700D01*
Y275200D01*
X364500Y275700D01*
X366000D01*
X364000Y273700D02*X364500Y274200D01*
X364000Y278400D02*X364500Y278900D01*
X364000Y277400D02*Y278400D01*
X364500Y276900D02*X364000Y277400D01*
X364500Y276900D02*X365500D01*
X366000Y277400D01*
Y278400D01*
X365500Y278900D01*
X367000Y276900D02*X367500Y277400D01*
Y278400D01*
X367000Y278900D01*
X364000D02*X367000D01*
X363000Y281900D02*X363100D01*
X364500D02*X366000D01*
X364500Y283400D02*X366000D01*
X364500D02*X364000Y283900D01*
Y284400D01*
X364500Y284900D01*
X366000D01*
X364000Y282900D02*X364500Y283400D01*
X362000Y288400D02*X365500D01*
X366000Y288900D01*
X363500Y287900D02*Y288900D01*
X362000Y289900D02*X366000D01*
X364500D02*X364000Y290400D01*
Y291400D01*
X364500Y291900D01*
X366000D01*
Y293600D02*Y295100D01*
X365500Y293100D02*X366000Y293600D01*
X364500Y293100D02*X365500D01*
X364500D02*X364000Y293600D01*
Y294600D01*
X364500Y295100D01*
X365000Y293100D02*Y295100D01*
X364500D01*
Y296800D02*X366000D01*
X364500D02*X364000Y297300D01*
Y298300D01*
Y296300D02*X364500Y296800D01*
X366000Y300000D02*Y301500D01*
X365500Y299500D02*X366000Y300000D01*
X364500Y299500D02*X365500D01*
X364500D02*X364000Y300000D01*
Y301000D01*
X364500Y301500D01*
X365000Y299500D02*Y301500D01*
X364500D01*
X366000Y302700D02*Y303200D01*
X364000Y306200D02*Y308200D01*
X363800Y311200D02*Y312700D01*
X366000Y311200D02*Y313200D01*
X362000Y311200D02*X366000D01*
X362000D02*Y313200D01*
X363800Y314400D02*Y315900D01*
X366000Y314400D02*Y316400D01*
X362000Y314400D02*X366000D01*
X362000D02*Y316400D01*
Y317600D02*X366000D01*
X362000D02*Y319600D01*
X363800Y317600D02*Y319100D01*
X355000Y247000D02*X359000D01*
X355000Y248300D02*X355700Y249000D01*
X358300D01*
X359000Y248300D02*X358300Y249000D01*
X359000Y246500D02*Y248300D01*
X355000Y246500D02*Y248300D01*
X359000Y250700D02*Y252200D01*
X358500Y250200D02*X359000Y250700D01*
X357500Y250200D02*X358500D01*
X357500D02*X357000Y250700D01*
Y251700D01*
X357500Y252200D01*
X358000Y250200D02*Y252200D01*
X357500D01*
X359000Y253900D02*Y255400D01*
X358500Y255900D01*
X358000Y255400D02*X358500Y255900D01*
X358000Y253900D02*Y255400D01*
X357500Y253400D02*X358000Y253900D01*
X357500Y253400D02*X357000Y253900D01*
Y255400D01*
X357500Y255900D01*
X358500Y253400D02*X359000Y253900D01*
X356000Y257100D02*X356100D01*
X357500D02*X359000D01*
X357000Y259600D02*X357500Y260100D01*
X357000Y258600D02*Y259600D01*
X357500Y258100D02*X357000Y258600D01*
X357500Y258100D02*X358500D01*
X359000Y258600D01*
Y259600D01*
X358500Y260100D01*
X360000Y258100D02*X360500Y258600D01*
Y259600D01*
X360000Y260100D01*
X357000D02*X360000D01*
X357500Y261800D02*X359000D01*
X357500D02*X357000Y262300D01*
Y262800D01*
X357500Y263300D01*
X359000D01*
X357000Y261300D02*X357500Y261800D01*
X359000Y265000D02*Y266500D01*
X358500Y264500D02*X359000Y265000D01*
X357500Y264500D02*X358500D01*
X357500D02*X357000Y265000D01*
Y266000D01*
X357500Y266500D01*
X358000Y264500D02*Y266500D01*
X357500D01*
X355000Y269700D02*X359000D01*
Y269200D02*X358500Y269700D01*
X359000Y268200D02*Y269200D01*
X358500Y267700D02*X359000Y268200D01*
X357500Y267700D02*X358500D01*
X357500D02*X357000Y268200D01*
Y269200D01*
X357500Y269700D01*
X355000Y274700D02*X359000D01*
Y274200D02*X358500Y274700D01*
X359000Y273200D02*Y274200D01*
X358500Y272700D02*X359000Y273200D01*
X357500Y272700D02*X358500D01*
X357500D02*X357000Y273200D01*
Y274200D01*
X357500Y274700D01*
X357000Y275900D02*X358500D01*
X359000Y276400D01*
Y277400D01*
X358500Y277900D01*
X357000D02*X358500D01*
X357500Y279600D02*X359000D01*
X357500D02*X357000Y280100D01*
Y281100D01*
Y279100D02*X357500Y279600D01*
X356000Y282300D02*X356100D01*
X357500D02*X359000D01*
X357500Y283800D02*X359000D01*
X357500D02*X357000Y284300D01*
Y284800D01*
X357500Y285300D01*
X359000D01*
X357000Y283300D02*X357500Y283800D01*
X357000Y288000D02*X357500Y288500D01*
X357000Y287000D02*Y288000D01*
X357500Y286500D02*X357000Y287000D01*
X357500Y286500D02*X358500D01*
X359000Y287000D01*
Y288000D01*
X358500Y288500D01*
X360000Y286500D02*X360500Y287000D01*
Y288000D01*
X360000Y288500D01*
X357000D02*X360000D01*
X359000Y292200D02*Y293500D01*
X358300Y291500D02*X359000Y292200D01*
X355700Y291500D02*X358300D01*
X355700D02*X355000Y292200D01*
Y293500D01*
X355500Y294700D02*X358500D01*
X355500D02*X355000Y295200D01*
Y296200D01*
X355500Y296700D01*
X358500D01*
X359000Y296200D02*X358500Y296700D01*
X359000Y295200D02*Y296200D01*
X358500Y294700D02*X359000Y295200D01*
X355000Y297900D02*X359000Y298900D01*
X355000Y299900D01*
Y301100D02*Y302100D01*
Y301600D02*X359000D01*
Y301100D02*Y302100D01*
X355000Y303800D02*X359000D01*
X355000Y305100D02*X355700Y305800D01*
X358300D01*
X359000Y305100D02*X358300Y305800D01*
X359000Y303300D02*Y305100D01*
X355000Y303300D02*Y305100D01*
X357000Y307000D02*Y309000D01*
X355800Y310200D02*X355000Y311000D01*
X359000D01*
Y310200D02*Y311700D01*
Y313400D02*X357000Y314900D01*
X355500D02*X357000D01*
X355000Y314400D02*X355500Y314900D01*
X355000Y313400D02*Y314400D01*
X355500Y312900D02*X355000Y313400D01*
X355500Y312900D02*X356500D01*
X357000Y313400D01*
Y314900D01*
X313649Y249222D02*X314949D01*
X312949Y249922D02*X313649Y249222D01*
X312949Y252522D02*Y249922D01*
Y252522D02*X313649Y253222D01*
X314949D01*
X316149Y252722D02*X316649Y253222D01*
X318149D01*
X318649Y252722D01*
Y251722D01*
X316149Y249222D02*X318649Y251722D01*
X316149Y249222D02*X318649D01*
X319849Y252422D02*X320649Y253222D01*
Y249222D01*
X319849D02*X321349D01*
X316500Y260700D02*Y262000D01*
X315800Y260000D02*X316500Y260700D01*
X313200Y260000D02*X315800D01*
X313200D02*X312500Y260700D01*
Y262000D01*
X313000Y263200D02*X316000D01*
X313000D02*X312500Y263700D01*
Y264700D01*
X313000Y265200D01*
X316000D01*
X316500Y264700D02*X316000Y265200D01*
X316500Y263700D02*Y264700D01*
X316000Y263200D02*X316500Y263700D01*
X312500Y266400D02*X316500D01*
X312500D02*X316500Y268900D01*
X312500D02*X316500D01*
X312500Y270100D02*X316500D01*
X312500D02*X316500Y272600D01*
X312500D02*X316500D01*
X312500Y275300D02*X313000Y275800D01*
X312500Y274300D02*Y275300D01*
X313000Y273800D02*X312500Y274300D01*
X313000Y273800D02*X316000D01*
X316500Y274300D01*
X314300Y275300D02*X314800Y275800D01*
X314300Y273800D02*Y275300D01*
X316500Y274300D02*Y275300D01*
X316000Y275800D01*
X314800D02*X316000D01*
X313000Y277000D02*X312500Y277500D01*
Y279000D01*
X313000Y279500D01*
X314000D01*
X316500Y277000D02*X314000Y279500D01*
X316500Y277000D02*Y279500D01*
X339756Y335012D02*X341756D01*
X340756D02*Y331012D01*
X343457Y335012D02*Y331012D01*
X342957Y335012D02*X344957D01*
X345457Y334512D01*
Y333512D01*
X344957Y333012D02*X345457Y333512D01*
X343457Y333012D02*X344957D01*
X347157Y331012D02*X348657Y333012D01*
Y334512D02*Y333012D01*
X348157Y335012D02*X348657Y334512D01*
X347157Y335012D02*X348157D01*
X346657Y334512D02*X347157Y335012D01*
X346657Y334512D02*Y333512D01*
X347157Y333012D01*
X348657D01*
X232190Y342998D02*X234190D01*
X234690Y342498D01*
Y341498D01*
X234190Y340998D02*X234690Y341498D01*
X232690Y340998D02*X234190D01*
X232690Y342998D02*Y338998D01*
X233490Y340998D02*X234690Y338998D01*
X235890Y342198D02*X236690Y342998D01*
Y338998D01*
X235890D02*X237390D01*
X238590Y342198D02*X239390Y342998D01*
Y338998D01*
X238590D02*X240090D01*
X228700Y321000D02*X230000D01*
X228000Y321700D02*X228700Y321000D01*
X228000Y324300D02*Y321700D01*
Y324300D02*X228700Y325000D01*
X230000D01*
X231200Y324500D02*Y321500D01*
Y324500D02*X231700Y325000D01*
X232700D01*
X233200Y324500D01*
Y321500D01*
X232700Y321000D02*X233200Y321500D01*
X231700Y321000D02*X232700D01*
X231200Y321500D02*X231700Y321000D01*
X234400Y325000D02*Y321000D01*
Y325000D02*X236900Y321000D01*
Y325000D02*Y321000D01*
X238100Y325000D02*Y321000D01*
Y325000D02*X240600Y321000D01*
Y325000D02*Y321000D01*
X243300Y325000D02*X243800Y324500D01*
X242300Y325000D02*X243300D01*
X241800Y324500D02*X242300Y325000D01*
X241800Y324500D02*Y321500D01*
X242300Y321000D01*
X243300Y323200D02*X243800Y322700D01*
X241800Y323200D02*X243300D01*
X242300Y321000D02*X243300D01*
X243800Y321500D01*
Y322700D02*Y321500D01*
X245000Y322500D02*X247000Y325000D01*
X245000Y322500D02*X247500D01*
X247000Y325000D02*Y321000D01*
X255850Y319150D02*X257850D01*
X258350Y318650D01*
Y317650D01*
X257850Y317150D02*X258350Y317650D01*
X256350Y317150D02*X257850D01*
X256350Y319150D02*Y315150D01*
X257150Y317150D02*X258350Y315150D01*
X259550Y318350D02*X260350Y319150D01*
Y315150D01*
X259550D02*X261050D01*
X262250Y315650D02*X262750Y315150D01*
X262250Y318650D02*Y315650D01*
Y318650D02*X262750Y319150D01*
X263750D01*
X264250Y318650D01*
Y315650D01*
X263750Y315150D02*X264250Y315650D01*
X262750Y315150D02*X263750D01*
X262250Y316150D02*X264250Y318150D01*
X257397Y301566D02*X258697D01*
X256697Y302266D02*X257397Y301566D01*
X256697Y304866D02*Y302266D01*
Y304866D02*X257397Y305566D01*
X258697D01*
X259897Y304766D02*X260697Y305566D01*
Y301566D01*
X259897D02*X261397D01*
X262597Y302066D02*X263097Y301566D01*
X262597Y305066D02*Y302066D01*
Y305066D02*X263097Y305566D01*
X264097D01*
X264597Y305066D01*
Y302066D01*
X264097Y301566D02*X264597Y302066D01*
X263097Y301566D02*X264097D01*
X262597Y302566D02*X264597Y304566D01*
X257424Y327989D02*X258724D01*
X256724Y328689D02*X257424Y327989D01*
X256724Y331289D02*Y328689D01*
Y331289D02*X257424Y331989D01*
X258724D01*
X259924Y331189D02*X260724Y331989D01*
Y327989D01*
X259924D02*X261424D01*
X262624Y331989D02*X264624D01*
X262624D02*Y329989D01*
X263124Y330489D01*
X264124D01*
X264624Y329989D01*
Y328489D01*
X264124Y327989D02*X264624Y328489D01*
X263124Y327989D02*X264124D01*
X262624Y328489D02*X263124Y327989D01*
X275850Y333050D02*Y334350D01*
X275150Y332350D02*X275850Y333050D01*
X272550Y332350D02*X275150D01*
X272550D02*X271850Y333050D01*
Y334350D01*
X272650Y335550D02*X271850Y336350D01*
X275850D01*
Y335550D02*Y337050D01*
X272650Y338250D02*X271850Y339050D01*
X275850D01*
Y338250D02*Y339750D01*
X307700Y337000D02*X309000D01*
X307000Y337700D02*X307700Y337000D01*
X307000Y340300D02*Y337700D01*
Y340300D02*X307700Y341000D01*
X309000D01*
X310200Y340500D02*Y337500D01*
Y340500D02*X310700Y341000D01*
X311700D01*
X312200Y340500D01*
Y337500D01*
X311700Y337000D02*X312200Y337500D01*
X310700Y337000D02*X311700D01*
X310200Y337500D02*X310700Y337000D01*
X313400Y341000D02*Y337000D01*
Y341000D02*X315900Y337000D01*
Y341000D02*Y337000D01*
X317100Y341000D02*Y337000D01*
Y341000D02*X319600Y337000D01*
Y341000D02*Y337000D01*
X320800Y340200D02*X321600Y341000D01*
Y337000D01*
X320800D02*X322300D01*
X323500Y337500D02*X324000Y337000D01*
X323500Y340500D02*Y337500D01*
Y340500D02*X324000Y341000D01*
X325000D01*
X325500Y340500D01*
Y337500D01*
X325000Y337000D02*X325500Y337500D01*
X324000Y337000D02*X325000D01*
X323500Y338000D02*X325500Y340000D01*
X268500Y301500D02*X272000D01*
X272500Y302000D01*
Y303000D01*
X272000Y303500D01*
X268500D02*X272000D01*
X269300Y304700D02*X268500Y305500D01*
X272500D01*
Y304700D02*Y306200D01*
X272000Y307400D02*X272500Y307900D01*
X269000Y307400D02*X272000D01*
X269000D02*X268500Y307900D01*
Y308900D01*
X269000Y309400D01*
X272000D01*
X272500Y308900D02*X272000Y309400D01*
X272500Y307900D02*Y308900D01*
X271500Y307400D02*X269500Y309400D01*
X292850Y275050D02*Y276350D01*
X292150Y274350D02*X292850Y275050D01*
X289550Y274350D02*X292150D01*
X289550D02*X288850Y275050D01*
Y276350D01*
X289650Y277550D02*X288850Y278350D01*
X292850D01*
Y277550D02*Y279050D01*
X289350Y280250D02*X288850Y280750D01*
Y282250D01*
X289350Y282750D01*
X290350D01*
X292850Y280250D02*X290350Y282750D01*
X292850Y280250D02*Y282750D01*
X249200Y271000D02*X250500D01*
X248500Y271700D02*X249200Y271000D01*
X248500Y274300D02*Y271700D01*
Y274300D02*X249200Y275000D01*
X250500D01*
X251700Y274500D02*Y271500D01*
Y274500D02*X252200Y275000D01*
X253200D01*
X253700Y274500D01*
Y271500D01*
X253200Y271000D02*X253700Y271500D01*
X252200Y271000D02*X253200D01*
X251700Y271500D02*X252200Y271000D01*
X254900Y275000D02*Y271000D01*
Y275000D02*X257400Y271000D01*
Y275000D02*Y271000D01*
X258600Y275000D02*Y271000D01*
Y275000D02*X261100Y271000D01*
Y275000D02*Y271000D01*
X263800Y275000D02*X264300Y274500D01*
X262800Y275000D02*X263800D01*
X262300Y274500D02*X262800Y275000D01*
X262300Y274500D02*Y271500D01*
X262800Y271000D01*
X263800Y273200D02*X264300Y272700D01*
X262300Y273200D02*X263800D01*
X262800Y271000D02*X263800D01*
X264300Y271500D01*
Y272700D02*Y271500D01*
X265500Y274500D02*X266000Y275000D01*
X267000D01*
X267500Y274500D01*
X267000Y271000D02*X267500Y271500D01*
X266000Y271000D02*X267000D01*
X265500Y271500D02*X266000Y271000D01*
Y273200D02*X267000D01*
X267500Y274500D02*Y273700D01*
Y272700D02*Y271500D01*
Y272700D02*X267000Y273200D01*
X267500Y273700D02*X267000Y273200D01*
X288851Y187275D02*Y189275D01*
X289351Y189775D01*
X290351D01*
X290851Y189275D02*X290351Y189775D01*
X290851Y187775D02*Y189275D01*
X288851Y187775D02*X292851D01*
X290851Y188575D02*X292851Y189775D01*
X289351Y190975D02*X288851Y191475D01*
Y192975D01*
X289351Y193475D01*
X290351D01*
X292851Y190975D02*X290351Y193475D01*
X292851Y190975D02*Y193475D01*
X289651Y194675D02*X288851Y195475D01*
X292851D01*
Y194675D02*Y196175D01*
X302924Y187091D02*Y189091D01*
X303424Y189591D01*
X304424D01*
X304924Y189091D02*X304424Y189591D01*
X304924Y187591D02*Y189091D01*
X302924Y187591D02*X306924D01*
X304924Y188391D02*X306924Y189591D01*
X303424Y190791D02*X302924Y191291D01*
Y192791D01*
X303424Y193291D01*
X304424D01*
X306924Y190791D02*X304424Y193291D01*
X306924Y190791D02*Y193291D01*
X306424Y194491D02*X306924Y194991D01*
X303424Y194491D02*X306424D01*
X303424D02*X302924Y194991D01*
Y195991D01*
X303424Y196491D01*
X306424D01*
X306924Y195991D02*X306424Y196491D01*
X306924Y194991D02*Y195991D01*
X305924Y194491D02*X303924Y196491D01*
X298480Y216980D02*X301980D01*
X302480Y217480D01*
Y218480D01*
X301980Y218980D01*
X298480D02*X301980D01*
X298980Y220181D02*X298480Y220681D01*
Y222181D01*
X298980Y222681D01*
X299980D01*
X302480Y220181D02*X299980Y222681D01*
X302480Y220181D02*Y222681D01*
X301980Y223881D02*X302480Y224381D01*
X298980Y223881D02*X301980D01*
X298980D02*X298480Y224381D01*
Y225381D01*
X298980Y225881D01*
X301980D01*
X302480Y225381D02*X301980Y225881D01*
X302480Y224381D02*Y225381D01*
X301480Y223881D02*X299480Y225881D01*
X262720Y217925D02*Y219225D01*
X262020Y217225D02*X262720Y217925D01*
X259420Y217225D02*X262020D01*
X259420D02*X258720Y217925D01*
Y219225D01*
X259220Y220425D02*X258720Y220925D01*
Y222425D01*
X259220Y222925D01*
X260220D01*
X262720Y220425D02*X260220Y222925D01*
X262720Y220425D02*Y222925D01*
X262220Y224125D02*X262720Y224625D01*
X259220Y224125D02*X262220D01*
X259220D02*X258720Y224625D01*
Y225625D01*
X259220Y226125D01*
X262220D01*
X262720Y225625D02*X262220Y226125D01*
X262720Y224625D02*Y225625D01*
X261720Y224125D02*X259720Y226125D01*
X326830Y191626D02*Y192926D01*
X326130Y190926D02*X326830Y191626D01*
X323530Y190926D02*X326130D01*
X323530D02*X322830Y191626D01*
Y192926D01*
X323330Y194126D02*X322830Y194626D01*
Y196126D01*
X323330Y196626D01*
X324330D01*
X326830Y194126D02*X324330Y196626D01*
X326830Y194126D02*Y196626D01*
X323330Y197826D02*X322830Y198326D01*
Y199826D01*
X323330Y200326D01*
X324330D01*
X326830Y197826D02*X324330Y200326D01*
X326830Y197826D02*Y200326D01*
X333830Y217530D02*Y218830D01*
X333130Y216830D02*X333830Y217530D01*
X330530Y216830D02*X333130D01*
X330530D02*X329830Y217530D01*
Y218830D01*
X330330Y220031D02*X329830Y220531D01*
Y222031D01*
X330330Y222531D01*
X331330D01*
X333830Y220031D02*X331330Y222531D01*
X333830Y220031D02*Y222531D01*
X330330Y223731D02*X329830Y224231D01*
Y225231D01*
X330330Y225731D01*
X333830Y225231D02*X333330Y225731D01*
X333830Y224231D02*Y225231D01*
X333330Y223731D02*X333830Y224231D01*
X331630D02*Y225231D01*
X330330Y225731D02*X331130D01*
X332130D02*X333330D01*
X332130D02*X331630Y225231D01*
X331130Y225731D02*X331630Y225231D01*
X153700Y387500D02*X155000D01*
X153000Y388200D02*X153700Y387500D01*
X153000Y390800D02*Y388200D01*
Y390800D02*X153700Y391500D01*
X155000D01*
X156200D02*Y387500D01*
X158700Y391500D02*Y387500D01*
X156200Y389500D02*X158700D01*
X159900Y390500D02*Y387500D01*
Y390500D02*X160600Y391500D01*
X161700D01*
X162400Y390500D01*
Y387500D01*
X159900Y389500D02*X162400D01*
X165600Y391500D02*X166100Y391000D01*
X164100Y391500D02*X165600D01*
X163600Y391000D02*X164100Y391500D01*
X163600Y391000D02*Y390000D01*
X164100Y389500D01*
X165600D01*
X166100Y389000D01*
Y388000D01*
X165600Y387500D02*X166100Y388000D01*
X164100Y387500D02*X165600D01*
X163600Y388000D02*X164100Y387500D01*
X169300Y391500D02*X169800Y391000D01*
X167800Y391500D02*X169300D01*
X167300Y391000D02*X167800Y391500D01*
X167300Y391000D02*Y390000D01*
X167800Y389500D01*
X169300D01*
X169800Y389000D01*
Y388000D01*
X169300Y387500D02*X169800Y388000D01*
X167800Y387500D02*X169300D01*
X167300Y388000D02*X167800Y387500D01*
X171000Y391500D02*X172000D01*
X171500D02*Y387500D01*
X171000D02*X172000D01*
X175200Y391500D02*X175700Y391000D01*
X173700Y391500D02*X175200D01*
X173200Y391000D02*X173700Y391500D01*
X173200Y391000D02*Y390000D01*
X173700Y389500D01*
X175200D01*
X175700Y389000D01*
Y388000D01*
X175200Y387500D02*X175700Y388000D01*
X173700Y387500D02*X175200D01*
X173200Y388000D02*X173700Y387500D01*
X122776Y333492D02*X124776D01*
X123776D02*Y329492D01*
X126476Y333492D02*Y329492D01*
X125976Y333492D02*X127976D01*
X128476Y332992D01*
Y331992D01*
X127976Y331492D02*X128476Y331992D01*
X126476Y331492D02*X127976D01*
X129676Y330992D02*X131676Y333492D01*
X129676Y330992D02*X132176D01*
X131676Y333492D02*Y329492D01*
X175000Y302500D02*X178500D01*
X179000Y303000D01*
Y304000D01*
X178500Y304500D01*
X175000D02*X178500D01*
X175000Y307200D02*X175500Y307700D01*
X175000Y306200D02*Y307200D01*
X175500Y305700D02*X175000Y306200D01*
X175500Y305700D02*X178500D01*
X179000Y306200D01*
X176800Y307200D02*X177300Y307700D01*
X176800Y305700D02*Y307200D01*
X179000Y306200D02*Y307200D01*
X178500Y307700D01*
X177300D02*X178500D01*
Y308900D02*X179000Y309400D01*
X175500Y308900D02*X178500D01*
X175500D02*X175000Y309400D01*
Y310400D01*
X175500Y310900D01*
X178500D01*
X179000Y310400D02*X178500Y310900D01*
X179000Y309400D02*Y310400D01*
X178000Y308900D02*X176000Y310900D01*
X173842Y345122D02*X175142D01*
X173142Y345822D02*X173842Y345122D01*
X173142Y348422D02*Y345822D01*
Y348422D02*X173842Y349122D01*
X175142D01*
X177842D02*X178342Y348622D01*
X176842Y349122D02*X177842D01*
X176342Y348622D02*X176842Y349122D01*
X176342Y348622D02*Y345622D01*
X176842Y345122D01*
X177842Y347322D02*X178342Y346822D01*
X176342Y347322D02*X177842D01*
X176842Y345122D02*X177842D01*
X178342Y345622D01*
Y346822D02*Y345622D01*
X179542Y348622D02*X180042Y349122D01*
X181542D01*
X182042Y348622D01*
Y347622D01*
X179542Y345122D02*X182042Y347622D01*
X179542Y345122D02*X182042D01*
X172807Y336650D02*X174807D01*
X175307Y336150D01*
Y335150D01*
X174807Y334650D02*X175307Y335150D01*
X173307Y334650D02*X174807D01*
X173307Y336650D02*Y332650D01*
X174107Y334650D02*X175307Y332650D01*
X178007Y336650D02*X178507Y336150D01*
X177007Y336650D02*X178007D01*
X176507Y336150D02*X177007Y336650D01*
X176507Y336150D02*Y333150D01*
X177007Y332650D01*
X178007Y334850D02*X178507Y334350D01*
X176507Y334850D02*X178007D01*
X177007Y332650D02*X178007D01*
X178507Y333150D01*
Y334350D02*Y333150D01*
X179707Y334150D02*X181707Y336650D01*
X179707Y334150D02*X182207D01*
X181707Y336650D02*Y332650D01*
X160614Y316735D02*X161914D01*
X159914Y317435D02*X160614Y316735D01*
X159914Y320035D02*Y317435D01*
Y320035D02*X160614Y320735D01*
X161914D01*
X164614D02*X165114Y320235D01*
X163614Y320735D02*X164614D01*
X163114Y320235D02*X163614Y320735D01*
X163114Y320235D02*Y317235D01*
X163614Y316735D01*
X164614Y318935D02*X165114Y318435D01*
X163114Y318935D02*X164614D01*
X163614Y316735D02*X164614D01*
X165114Y317235D01*
Y318435D02*Y317235D01*
X166314Y320235D02*X166814Y320735D01*
X167814D01*
X168314Y320235D01*
X167814Y316735D02*X168314Y317235D01*
X166814Y316735D02*X167814D01*
X166314Y317235D02*X166814Y316735D01*
Y318935D02*X167814D01*
X168314Y320235D02*Y319435D01*
Y318435D02*Y317235D01*
Y318435D02*X167814Y318935D01*
X168314Y319435D02*X167814Y318935D01*
X180015Y273773D02*Y275773D01*
X180515Y276273D01*
X181515D01*
X182015Y275773D02*X181515Y276273D01*
X182015Y274273D02*Y275773D01*
X180015Y274273D02*X184015D01*
X182015Y275073D02*X184015Y276273D01*
X180015Y278973D02*X180515Y279473D01*
X180015Y277973D02*Y278973D01*
X180515Y277473D02*X180015Y277973D01*
X180515Y277473D02*X183515D01*
X184015Y277973D01*
X181815Y278973D02*X182315Y279473D01*
X181815Y277473D02*Y278973D01*
X184015Y277973D02*Y278973D01*
X183515Y279473D01*
X182315D02*X183515D01*
X180815Y280673D02*X180015Y281473D01*
X184015D01*
Y280673D02*Y282173D01*
X162500Y253000D02*Y249500D01*
X163000Y249000D01*
X164000D01*
X164500Y249500D01*
Y253000D02*Y249500D01*
X165700Y250500D02*X167700Y253000D01*
X165700Y250500D02*X168200D01*
X167700Y253000D02*Y249000D01*
X169400Y249500D02*X169900Y249000D01*
X169400Y252500D02*Y249500D01*
Y252500D02*X169900Y253000D01*
X170900D01*
X171400Y252500D01*
Y249500D01*
X170900Y249000D02*X171400Y249500D01*
X169900Y249000D02*X170900D01*
X169400Y250000D02*X171400Y252000D01*
X133583Y228683D02*X135583D01*
X136083Y228183D01*
Y227183D01*
X135583Y226683D02*X136083Y227183D01*
X134083Y226683D02*X135583D01*
X134083Y228683D02*Y224683D01*
X134883Y226683D02*X136083Y224683D01*
X137283Y226183D02*X139283Y228683D01*
X137283Y226183D02*X139783D01*
X139283Y228683D02*Y224683D01*
X140983Y227883D02*X141783Y228683D01*
Y224683D01*
X140983D02*X142483D01*
X133350Y241150D02*X135350D01*
X135850Y240650D01*
Y239650D01*
X135350Y239150D02*X135850Y239650D01*
X133850Y239150D02*X135350D01*
X133850Y241150D02*Y237150D01*
X134650Y239150D02*X135850Y237150D01*
X137050Y238650D02*X139050Y241150D01*
X137050Y238650D02*X139550D01*
X139050Y241150D02*Y237150D01*
X140750Y241150D02*X142750D01*
X140750D02*Y239150D01*
X141250Y239650D01*
X142250D01*
X142750Y239150D01*
Y237650D01*
X142250Y237150D02*X142750Y237650D01*
X141250Y237150D02*X142250D01*
X140750Y237650D02*X141250Y237150D01*
X128350Y246850D02*Y248850D01*
X128850Y249350D01*
X129850D01*
X130350Y248850D02*X129850Y249350D01*
X130350Y247350D02*Y248850D01*
X128350Y247350D02*X132350D01*
X130350Y248150D02*X132350Y249350D01*
X130850Y250550D02*X128350Y252550D01*
X130850Y250550D02*Y253050D01*
X128350Y252550D02*X132350D01*
X128850Y254250D02*X128350Y254750D01*
Y256250D01*
X128850Y256750D01*
X129850D01*
X132350Y254250D02*X129850Y256750D01*
X132350Y254250D02*Y256750D01*
X174826Y134070D02*X175326Y133570D01*
X173326Y134070D02*X174826D01*
X172826Y133570D02*X173326Y134070D01*
X172826Y133570D02*Y130570D01*
X173326Y130070D01*
X174826D01*
X175326Y130570D01*
Y131570D02*Y130570D01*
X174826Y132070D02*X175326Y131570D01*
X173826Y132070D02*X174826D01*
X176526Y134070D02*Y130070D01*
Y134070D02*X179026Y130070D01*
Y134070D02*Y130070D01*
X180726Y134070D02*Y130070D01*
X182026Y134070D02*X182726Y133370D01*
Y130770D01*
X182026Y130070D02*X182726Y130770D01*
X180226Y130070D02*X182026D01*
X180226Y134070D02*X182026D01*
X154601Y140495D02*Y141795D01*
X153901Y139795D02*X154601Y140495D01*
X151301Y139795D02*X153901D01*
X151301D02*X150601Y140495D01*
Y141795D01*
X153101Y142995D02*X150601Y144995D01*
X153101Y142995D02*Y145495D01*
X150601Y144995D02*X154601D01*
Y147195D02*X152601Y148695D01*
X151101D02*X152601D01*
X150601Y148195D02*X151101Y148695D01*
X150601Y147195D02*Y148195D01*
X151101Y146695D02*X150601Y147195D01*
X151101Y146695D02*X152101D01*
X152601Y147195D01*
Y148695D01*
X173083Y139582D02*X175083D01*
X174083D02*Y135582D01*
X176783Y139582D02*Y135582D01*
X176283Y139582D02*X178283D01*
X178783Y139082D01*
Y138082D01*
X178283Y137582D02*X178783Y138082D01*
X176783Y137582D02*X178283D01*
X180483Y135582D02*X182483Y139582D01*
X179983D02*X182483D01*
X177050Y194650D02*X178350D01*
X176350Y195350D02*X177050Y194650D01*
X176350Y197950D02*Y195350D01*
Y197950D02*X177050Y198650D01*
X178350D01*
X179550Y196150D02*X181550Y198650D01*
X179550Y196150D02*X182050D01*
X181550Y198650D02*Y194650D01*
X183750D02*X185750Y198650D01*
X183250D02*X185750D01*
X177050Y179150D02*X178350D01*
X176350Y179850D02*X177050Y179150D01*
X176350Y182450D02*Y179850D01*
Y182450D02*X177050Y183150D01*
X178350D01*
X179550Y180650D02*X181550Y183150D01*
X179550Y180650D02*X182050D01*
X181550Y183150D02*Y179150D01*
X184750Y183150D02*X185250Y182650D01*
X183750Y183150D02*X184750D01*
X183250Y182650D02*X183750Y183150D01*
X183250Y182650D02*Y179650D01*
X183750Y179150D01*
X184750Y181350D02*X185250Y180850D01*
X183250Y181350D02*X184750D01*
X183750Y179150D02*X184750D01*
X185250Y179650D01*
Y180850D02*Y179650D01*
X116850Y200945D02*Y202945D01*
X117350Y203445D01*
X118350D01*
X118850Y202945D02*X118350Y203445D01*
X118850Y201445D02*Y202945D01*
X116850Y201445D02*X120850D01*
X118850Y202245D02*X120850Y203445D01*
X119350Y204645D02*X116850Y206645D01*
X119350Y204645D02*Y207145D01*
X116850Y206645D02*X120850D01*
X117350Y208345D02*X116850Y208845D01*
Y209845D01*
X117350Y210345D01*
X120850Y209845D02*X120350Y210345D01*
X120850Y208845D02*Y209845D01*
X120350Y208345D02*X120850Y208845D01*
X118650D02*Y209845D01*
X117350Y210345D02*X118150D01*
X119150D02*X120350D01*
X119150D02*X118650Y209845D01*
X118150Y210345D02*X118650Y209845D01*
X155500Y270700D02*Y272000D01*
X154800Y270000D02*X155500Y270700D01*
X152200Y270000D02*X154800D01*
X152200D02*X151500Y270700D01*
Y272000D01*
X152000Y273200D02*X155000D01*
X152000D02*X151500Y273700D01*
Y274700D01*
X152000Y275200D01*
X155000D01*
X155500Y274700D02*X155000Y275200D01*
X155500Y273700D02*Y274700D01*
X155000Y273200D02*X155500Y273700D01*
X151500Y276400D02*X155500D01*
X151500D02*X155500Y278900D01*
X151500D02*X155500D01*
X151500Y280100D02*X155500D01*
X151500D02*X155500Y282600D01*
X151500D02*X155500D01*
X154000Y283800D02*X151500Y285800D01*
X154000Y283800D02*Y286300D01*
X151500Y285800D02*X155500D01*
X152300Y287500D02*X151500Y288300D01*
X155500D01*
Y287500D02*Y289000D01*
X192563Y174232D02*X194563D01*
X193563D02*Y170232D01*
X196263Y174232D02*Y170232D01*
X195763Y174232D02*X197763D01*
X198263Y173732D01*
Y172732D01*
X197763Y172232D02*X198263Y172732D01*
X196263Y172232D02*X197763D01*
X199463Y170732D02*X199963Y170232D01*
X199463Y171532D02*Y170732D01*
Y171532D02*X200163Y172232D01*
X200763D01*
X201463Y171532D01*
Y170732D01*
X200963Y170232D02*X201463Y170732D01*
X199963Y170232D02*X200963D01*
X199463Y172932D02*X200163Y172232D01*
X199463Y173732D02*Y172932D01*
Y173732D02*X199963Y174232D01*
X200963D01*
X201463Y173732D01*
Y172932D01*
X200763Y172232D02*X201463Y172932D01*
X196645Y209650D02*X197945D01*
X195945Y210350D02*X196645Y209650D01*
X195945Y212950D02*Y210350D01*
Y212950D02*X196645Y213650D01*
X197945D01*
X199145Y211150D02*X201145Y213650D01*
X199145Y211150D02*X201645D01*
X201145Y213650D02*Y209650D01*
X202845Y213650D02*X204845D01*
X202845D02*Y211650D01*
X203345Y212150D01*
X204345D01*
X204845Y211650D01*
Y210150D01*
X204345Y209650D02*X204845Y210150D01*
X203345Y209650D02*X204345D01*
X202845Y210150D02*X203345Y209650D01*
X196645Y194650D02*X197945D01*
X195945Y195350D02*X196645Y194650D01*
X195945Y197950D02*Y195350D01*
Y197950D02*X196645Y198650D01*
X197945D01*
X199145Y196150D02*X201145Y198650D01*
X199145Y196150D02*X201645D01*
X201145Y198650D02*Y194650D01*
X202845Y198150D02*X203345Y198650D01*
X204345D01*
X204845Y198150D01*
X204345Y194650D02*X204845Y195150D01*
X203345Y194650D02*X204345D01*
X202845Y195150D02*X203345Y194650D01*
Y196850D02*X204345D01*
X204845Y198150D02*Y197350D01*
Y196350D02*Y195150D01*
Y196350D02*X204345Y196850D01*
X204845Y197350D02*X204345Y196850D01*
X198959Y150720D02*X200259D01*
X198259Y151420D02*X198959Y150720D01*
X198259Y154020D02*Y151420D01*
Y154020D02*X198959Y154720D01*
X200259D01*
X201459Y152220D02*X203459Y154720D01*
X201459Y152220D02*X203959D01*
X203459Y154720D02*Y150720D01*
X205159Y151220D02*X205659Y150720D01*
X205159Y152020D02*Y151220D01*
Y152020D02*X205859Y152720D01*
X206459D01*
X207159Y152020D01*
Y151220D01*
X206659Y150720D02*X207159Y151220D01*
X205659Y150720D02*X206659D01*
X205159Y153420D02*X205859Y152720D01*
X205159Y154220D02*Y153420D01*
Y154220D02*X205659Y154720D01*
X206659D01*
X207159Y154220D01*
Y153420D01*
X206459Y152720D02*X207159Y153420D01*
X188633Y328355D02*Y329655D01*
X187933Y327655D02*X188633Y328355D01*
X185333Y327655D02*X187933D01*
X185333D02*X184633Y328355D01*
Y329655D01*
Y332355D02*X185133Y332855D01*
X184633Y331355D02*Y332355D01*
X185133Y330855D02*X184633Y331355D01*
X185133Y330855D02*X188133D01*
X188633Y331355D01*
X186433Y332355D02*X186933Y332855D01*
X186433Y330855D02*Y332355D01*
X188633Y331355D02*Y332355D01*
X188133Y332855D01*
X186933D02*X188133D01*
X185433Y334055D02*X184633Y334855D01*
X188633D01*
Y334055D02*Y335555D01*
X197116Y327437D02*Y329437D01*
X197616Y329937D01*
X198616D01*
X199116Y329437D02*X198616Y329937D01*
X199116Y327937D02*Y329437D01*
X197116Y327937D02*X201116D01*
X199116Y328737D02*X201116Y329937D01*
X197116Y332637D02*X197616Y333137D01*
X197116Y331637D02*Y332637D01*
X197616Y331137D02*X197116Y331637D01*
X197616Y331137D02*X200616D01*
X201116Y331637D01*
X198916Y332637D02*X199416Y333137D01*
X198916Y331137D02*Y332637D01*
X201116Y331637D02*Y332637D01*
X200616Y333137D01*
X199416D02*X200616D01*
X197616Y334337D02*X197116Y334837D01*
Y335837D01*
X197616Y336337D01*
X201116Y335837D02*X200616Y336337D01*
X201116Y334837D02*Y335837D01*
X200616Y334337D02*X201116Y334837D01*
X198916D02*Y335837D01*
X197616Y336337D02*X198416D01*
X199416D02*X200616D01*
X199416D02*X198916Y335837D01*
X198416Y336337D02*X198916Y335837D01*
X192504Y273482D02*Y275482D01*
X193004Y275982D01*
X194004D01*
X194504Y275482D02*X194004Y275982D01*
X194504Y273982D02*Y275482D01*
X192504Y273982D02*X196504D01*
X194504Y274782D02*X196504Y275982D01*
X192504Y278682D02*X193004Y279182D01*
X192504Y277682D02*Y278682D01*
X193004Y277182D02*X192504Y277682D01*
X193004Y277182D02*X196004D01*
X196504Y277682D01*
X194304Y278682D02*X194804Y279182D01*
X194304Y277182D02*Y278682D01*
X196504Y277682D02*Y278682D01*
X196004Y279182D01*
X194804D02*X196004D01*
X192504Y280382D02*Y282382D01*
Y280382D02*X194504D01*
X194004Y280882D01*
Y281882D01*
X194504Y282382D01*
X196004D01*
X196504Y281882D02*X196004Y282382D01*
X196504Y280882D02*Y281882D01*
X196004Y280382D02*X196504Y280882D01*
X194955Y247650D02*X196255D01*
X194255Y248350D02*X194955Y247650D01*
X194255Y250950D02*Y248350D01*
Y250950D02*X194955Y251650D01*
X196255D01*
X197455Y249150D02*X199455Y251650D01*
X197455Y249150D02*X199955D01*
X199455Y251650D02*Y247650D01*
X201155Y251150D02*X201655Y251650D01*
X203155D01*
X203655Y251150D01*
Y250150D01*
X201155Y247650D02*X203655Y250150D01*
X201155Y247650D02*X203655D01*
X194955Y262650D02*X196255D01*
X194255Y263350D02*X194955Y262650D01*
X194255Y265950D02*Y263350D01*
Y265950D02*X194955Y266650D01*
X196255D01*
X197455Y264150D02*X199455Y266650D01*
X197455Y264150D02*X199955D01*
X199455Y266650D02*Y262650D01*
X201155Y264150D02*X203155Y266650D01*
X201155Y264150D02*X203655D01*
X203155Y266650D02*Y262650D01*
X206350Y296955D02*Y298255D01*
X205650Y296255D02*X206350Y296955D01*
X203050Y296255D02*X205650D01*
X203050D02*X202350Y296955D01*
Y298255D01*
Y300955D02*X202850Y301455D01*
X202350Y299955D02*Y300955D01*
X202850Y299455D02*X202350Y299955D01*
X202850Y299455D02*X205850D01*
X206350Y299955D01*
X204150Y300955D02*X204650Y301455D01*
X204150Y299455D02*Y300955D01*
X206350Y299955D02*Y300955D01*
X205850Y301455D01*
X204650D02*X205850D01*
X202350Y302655D02*Y304655D01*
Y302655D02*X204350D01*
X203850Y303155D01*
Y304155D01*
X204350Y304655D01*
X205850D01*
X206350Y304155D02*X205850Y304655D01*
X206350Y303155D02*Y304155D01*
X205850Y302655D02*X206350Y303155D01*
X200900Y365600D02*X201400Y365100D01*
X199400Y365600D02*X200900D01*
X198900Y365100D02*X199400Y365600D01*
X198900Y365100D02*Y364100D01*
X199400Y363600D01*
X200900D01*
X201400Y363100D01*
Y362100D01*
X200900Y361600D02*X201400Y362100D01*
X199400Y361600D02*X200900D01*
X198900Y362100D02*X199400Y361600D01*
X204100Y365600D02*X204600Y365100D01*
X203100Y365600D02*X204100D01*
X202600Y365100D02*X203100Y365600D01*
X202600Y365100D02*Y362100D01*
X203100Y361600D01*
X204100Y363800D02*X204600Y363300D01*
X202600Y363800D02*X204100D01*
X203100Y361600D02*X204100D01*
X204600Y362100D01*
Y363300D02*Y362100D01*
X205800D02*X206300Y361600D01*
X205800Y365100D02*Y362100D01*
Y365100D02*X206300Y365600D01*
X207300D01*
X207800Y365100D01*
Y362100D01*
X207300Y361600D02*X207800Y362100D01*
X206300Y361600D02*X207300D01*
X205800Y362600D02*X207800Y364600D01*
X199326Y116070D02*X201326D01*
X200326Y117070D02*Y115070D01*
X202526Y118070D02*X203526Y114070D01*
X204526Y118070D01*
X185500Y94000D02*Y90000D01*
Y94000D02*X187000Y92000D01*
X188500Y94000D01*
Y90000D01*
X189700Y91500D02*Y90500D01*
Y91500D02*X190200Y92000D01*
X191200D01*
X191700Y91500D01*
Y90500D01*
X191200Y90000D02*X191700Y90500D01*
X190200Y90000D02*X191200D01*
X189700Y90500D02*X190200Y90000D01*
X194900Y94000D02*Y90000D01*
X194400D02*X194900Y90500D01*
X193400Y90000D02*X194400D01*
X192900Y90500D02*X193400Y90000D01*
X192900Y91500D02*Y90500D01*
Y91500D02*X193400Y92000D01*
X194400D01*
X194900Y91500D01*
X196600Y90000D02*X198100D01*
X196100Y90500D02*X196600Y90000D01*
X196100Y91500D02*Y90500D01*
Y91500D02*X196600Y92000D01*
X197600D01*
X198100Y91500D01*
X196100Y91000D02*X198100D01*
Y91500D01*
X199300Y94000D02*Y90500D01*
X199800Y90000D01*
X200800Y92500D02*X201300D01*
X200800Y91500D02*X201300D01*
X204300Y90000D02*X206300D01*
X206800Y90500D01*
Y91700D02*Y90500D01*
X206300Y92200D02*X206800Y91700D01*
X204800Y92200D02*X206300D01*
X204800Y94000D02*Y90000D01*
X204300Y94000D02*X206300D01*
X206800Y93500D01*
Y92700D01*
X206300Y92200D02*X206800Y92700D01*
X208000Y93000D02*Y92900D01*
Y91500D02*Y90000D01*
X209000Y91500D02*Y90500D01*
Y91500D02*X209500Y92000D01*
X210500D01*
X211000Y91500D01*
Y90500D01*
X210500Y90000D02*X211000Y90500D01*
X209500Y90000D02*X210500D01*
X209000Y90500D02*X209500Y90000D01*
X212200Y93000D02*Y90000D01*
Y93000D02*X212900Y94000D01*
X214000D01*
X214700Y93000D01*
Y90000D01*
X212200Y92000D02*X214700D01*
X216400Y91500D02*Y90000D01*
Y91500D02*X216900Y92000D01*
X217400D01*
X217900Y91500D01*
Y90000D01*
Y91500D02*X218400Y92000D01*
X218900D01*
X219400Y91500D01*
Y90000D01*
X215900Y92000D02*X216400Y91500D01*
X221100D02*Y88500D01*
X220600Y92000D02*X221100Y91500D01*
X221600Y92000D01*
X222600D01*
X223100Y91500D01*
Y90500D01*
X222600Y90000D02*X223100Y90500D01*
X221600Y90000D02*X222600D01*
X221100Y90500D02*X221600Y90000D01*
X130500Y92200D02*X132000D01*
X130500Y90000D02*X132500D01*
X130500Y94000D02*Y90000D01*
Y94000D02*X132500D01*
X135200Y92000D02*X135700Y91500D01*
X134200Y92000D02*X135200D01*
X133700Y91500D02*X134200Y92000D01*
X133700Y91500D02*Y90500D01*
X134200Y90000D01*
X135700Y92000D02*Y90500D01*
X136200Y90000D01*
X134200D02*X135200D01*
X135700Y90500D01*
X137900Y94000D02*Y90500D01*
X138400Y90000D01*
X137400Y92500D02*X138400D01*
X139400Y91500D02*Y90500D01*
Y91500D02*X139900Y92000D01*
X140900D01*
X141400Y91500D01*
Y90500D01*
X140900Y90000D02*X141400Y90500D01*
X139900Y90000D02*X140900D01*
X139400Y90500D02*X139900Y90000D01*
X143100Y91500D02*Y90000D01*
Y91500D02*X143600Y92000D01*
X144100D01*
X144600Y91500D01*
Y90000D01*
X142600Y92000D02*X143100Y91500D01*
X148100Y94000D02*Y90000D01*
X147600Y94000D02*X149600D01*
X150100Y93500D01*
Y92500D01*
X149600Y92000D02*X150100Y92500D01*
X148100Y92000D02*X149600D01*
X151800Y90000D02*X153300D01*
X151300Y90500D02*X151800Y90000D01*
X151300Y91500D02*Y90500D01*
Y91500D02*X151800Y92000D01*
X152800D01*
X153300Y91500D01*
X151300Y91000D02*X153300D01*
Y91500D01*
X156000Y92000D02*X156500Y91500D01*
X155000Y92000D02*X156000D01*
X154500Y91500D02*X155000Y92000D01*
X154500Y91500D02*Y90500D01*
X155000Y90000D01*
X156500Y92000D02*Y90500D01*
X157000Y90000D01*
X155000D02*X156000D01*
X156500Y90500D01*
X158200Y94000D02*Y90000D01*
Y90500D02*X158700Y90000D01*
X159700D01*
X160200Y90500D01*
Y91500D02*Y90500D01*
X159700Y92000D02*X160200Y91500D01*
X158700Y92000D02*X159700D01*
X158200Y91500D02*X158700Y92000D01*
X161400Y91500D02*Y90500D01*
Y91500D02*X161900Y92000D01*
X162900D01*
X163400Y91500D01*
Y90500D01*
X162900Y90000D02*X163400Y90500D01*
X161900Y90000D02*X162900D01*
X161400Y90500D02*X161900Y90000D01*
X166600Y94000D02*Y90000D01*
X166100D02*X166600Y90500D01*
X165100Y90000D02*X166100D01*
X164600Y90500D02*X165100Y90000D01*
X164600Y91500D02*Y90500D01*
Y91500D02*X165100Y92000D01*
X166100D01*
X166600Y91500D01*
X167800Y92000D02*Y90500D01*
X168300Y90000D01*
X169800Y92000D02*Y89000D01*
X169300Y88500D02*X169800Y89000D01*
X168300Y88500D02*X169300D01*
X167800Y89000D02*X168300Y88500D01*
Y90000D02*X169300D01*
X169800Y90500D01*
X172800Y94000D02*Y90000D01*
X174800D01*
X177500Y92000D02*X178000Y91500D01*
X176500Y92000D02*X177500D01*
X176000Y91500D02*X176500Y92000D01*
X176000Y91500D02*Y90500D01*
X176500Y90000D01*
X178000Y92000D02*Y90500D01*
X178500Y90000D01*
X176500D02*X177500D01*
X178000Y90500D01*
X179700Y94000D02*Y90000D01*
Y90500D02*X180200Y90000D01*
X181200D01*
X181700Y90500D01*
Y91500D02*Y90500D01*
X181200Y92000D02*X181700Y91500D01*
X180200Y92000D02*X181200D01*
X179700Y91500D02*X180200Y92000D01*
X197563Y123232D02*X199563D01*
X198563D02*Y119232D01*
X201263Y123232D02*Y119232D01*
X200763Y123232D02*X202763D01*
X203263Y122732D01*
Y121732D01*
X202763Y121232D02*X203263Y121732D01*
X201263Y121232D02*X202763D01*
X205963Y123232D02*X206463Y122732D01*
X204963Y123232D02*X205963D01*
X204463Y122732D02*X204963Y123232D01*
X204463Y122732D02*Y119732D01*
X204963Y119232D01*
X205963Y121432D02*X206463Y120932D01*
X204463Y121432D02*X205963D01*
X204963Y119232D02*X205963D01*
X206463Y119732D01*
Y120932D02*Y119732D01*
X264500Y370500D02*X268500D01*
Y372500D01*
X265000Y373700D02*X268000D01*
X265000D02*X264500Y374200D01*
Y375200D01*
X265000Y375700D01*
X268000D01*
X268500Y375200D02*X268000Y375700D01*
X268500Y374200D02*Y375200D01*
X268000Y373700D02*X268500Y374200D01*
X264500Y376900D02*X266500D01*
X268500Y377400D01*
X266500Y378400D01*
X268500Y379400D01*
X266500Y379900D01*
X264500D01*
Y383400D02*X268500D01*
X264500Y382900D02*Y384900D01*
X265000Y385400D01*
X266000D01*
X266500Y384900D02*X266000Y385400D01*
X266500Y383400D02*Y384900D01*
X265500Y386600D02*X268500D01*
X265500D02*X264500Y387300D01*
Y388400D01*
X265500Y389100D01*
X268500D01*
X266500Y386600D02*Y389100D01*
X264500Y392300D02*X265000Y392800D01*
X264500Y390800D02*Y392300D01*
X265000Y390300D02*X264500Y390800D01*
X265000Y390300D02*X266000D01*
X266500Y390800D01*
Y392300D01*
X267000Y392800D01*
X268000D01*
X268500Y392300D02*X268000Y392800D01*
X268500Y390800D02*Y392300D01*
X268000Y390300D02*X268500Y390800D01*
X264500Y396000D02*X265000Y396500D01*
X264500Y394500D02*Y396000D01*
X265000Y394000D02*X264500Y394500D01*
X265000Y394000D02*X266000D01*
X266500Y394500D01*
Y396000D01*
X267000Y396500D01*
X268000D01*
X268500Y396000D02*X268000Y396500D01*
X268500Y394500D02*Y396000D01*
X268000Y394000D02*X268500Y394500D01*
X260400Y365600D02*X260900Y365100D01*
X258900Y365600D02*X260400D01*
X258400Y365100D02*X258900Y365600D01*
X258400Y365100D02*Y364100D01*
X258900Y363600D01*
X260400D01*
X260900Y363100D01*
Y362100D01*
X260400Y361600D02*X260900Y362100D01*
X258900Y361600D02*X260400D01*
X258400Y362100D02*X258900Y361600D01*
X262100Y364800D02*X262900Y365600D01*
Y361600D01*
X262100D02*X263600D01*
X264800Y362100D02*X265300Y361600D01*
X264800Y365100D02*Y362100D01*
Y365100D02*X265300Y365600D01*
X266300D01*
X266800Y365100D01*
Y362100D01*
X266300Y361600D02*X266800Y362100D01*
X265300Y361600D02*X266300D01*
X264800Y362600D02*X266800Y364600D01*
X205000Y386000D02*X205500Y386500D01*
X205000Y384500D02*Y386000D01*
X205500Y384000D02*X205000Y384500D01*
X205500Y384000D02*X208500D01*
X209000Y384500D01*
Y386000D01*
X208500Y386500D01*
X207500D02*X208500D01*
X207000Y386000D02*X207500Y386500D01*
X207000Y385000D02*Y386000D01*
X206000Y387700D02*X209000D01*
X206000D02*X205000Y388400D01*
Y389500D01*
X206000Y390200D01*
X209000D01*
X207000Y387700D02*Y390200D01*
X205000Y391400D02*Y392400D01*
Y391900D02*X209000D01*
Y391400D02*Y392400D01*
X205000Y393600D02*X209000D01*
X205000D02*X209000Y396100D01*
X205000D02*X209000D01*
X86240Y339000D02*X87540D01*
X85540Y339700D02*X86240Y339000D01*
X85540Y342300D02*Y339700D01*
Y342300D02*X86240Y343000D01*
X87540D01*
X88740Y342500D02*Y339500D01*
Y342500D02*X89240Y343000D01*
X90240D01*
X90740Y342500D01*
Y339500D01*
X90240Y339000D02*X90740Y339500D01*
X89240Y339000D02*X90240D01*
X88740Y339500D02*X89240Y339000D01*
X91940Y343000D02*Y339000D01*
Y343000D02*X94440Y339000D01*
Y343000D02*Y339000D01*
X95640Y343000D02*Y339000D01*
Y343000D02*X98140Y339000D01*
Y343000D02*Y339000D01*
X99340Y340500D02*X101340Y343000D01*
X99340Y340500D02*X101840D01*
X101340Y343000D02*Y339000D01*
X103040Y339500D02*X103540Y339000D01*
X103040Y342500D02*Y339500D01*
Y342500D02*X103540Y343000D01*
X104540D01*
X105040Y342500D01*
Y339500D01*
X104540Y339000D02*X105040Y339500D01*
X103540Y339000D02*X104540D01*
X103040Y340000D02*X105040Y342000D01*
X157200Y393000D02*X158500D01*
X156500Y393700D02*X157200Y393000D01*
X156500Y396300D02*Y393700D01*
Y396300D02*X157200Y397000D01*
X158500D01*
X159700Y396500D02*Y393500D01*
Y396500D02*X160200Y397000D01*
X161200D01*
X161700Y396500D01*
Y393500D01*
X161200Y393000D02*X161700Y393500D01*
X160200Y393000D02*X161200D01*
X159700Y393500D02*X160200Y393000D01*
X162900Y397000D02*Y393000D01*
Y397000D02*X165400Y393000D01*
Y397000D02*Y393000D01*
X166600Y397000D02*Y393000D01*
Y397000D02*X169100Y393000D01*
Y397000D02*Y393000D01*
X170300Y397000D02*X172300D01*
X170300D02*Y395000D01*
X170800Y395500D01*
X171800D01*
X172300Y395000D01*
Y393500D01*
X171800Y393000D02*X172300Y393500D01*
X170800Y393000D02*X171800D01*
X170300Y393500D02*X170800Y393000D01*
X99256Y333512D02*X101256D01*
X100256D02*Y329512D01*
X102957Y333512D02*Y329512D01*
X102457Y333512D02*X104457D01*
X104957Y333012D01*
Y332012D01*
X104457Y331512D02*X104957Y332012D01*
X102957Y331512D02*X104457D01*
X106157Y333512D02*X108157D01*
X106157D02*Y331512D01*
X106657Y332012D01*
X107657D01*
X108157Y331512D01*
Y330012D01*
X107657Y329512D02*X108157Y330012D01*
X106657Y329512D02*X107657D01*
X106157Y330012D02*X106657Y329512D01*
X85268Y280547D02*X89268D01*
Y282547D01*
X87768Y283747D02*X85268Y285747D01*
X87768Y283747D02*Y286247D01*
X85268Y285747D02*X89268D01*
X86068Y287447D02*X85268Y288247D01*
X89268D01*
Y287447D02*Y288947D01*
X113268Y280547D02*X117268D01*
Y282547D01*
X115768Y283747D02*X113268Y285747D01*
X115768Y283747D02*Y286247D01*
X113268Y285747D02*X117268D01*
X116768Y287447D02*X117268Y287947D01*
X113768Y287447D02*X116768D01*
X113768D02*X113268Y287947D01*
Y288947D01*
X113768Y289447D01*
X116768D01*
X117268Y288947D02*X116768Y289447D01*
X117268Y287947D02*Y288947D01*
X116268Y287447D02*X114268Y289447D01*
X109295Y253983D02*Y255283D01*
X108595Y253283D02*X109295Y253983D01*
X105995Y253283D02*X108595D01*
X105995D02*X105295Y253983D01*
Y255283D01*
X107795Y256483D02*X105295Y258483D01*
X107795Y256483D02*Y258983D01*
X105295Y258483D02*X109295D01*
X108795Y260183D02*X109295Y260683D01*
X105795Y260183D02*X108795D01*
X105795D02*X105295Y260683D01*
Y261683D01*
X105795Y262183D01*
X108795D01*
X109295Y261683D02*X108795Y262183D01*
X109295Y260683D02*Y261683D01*
X108295Y260183D02*X106295Y262183D01*
X95295Y221298D02*Y222598D01*
X94595Y220598D02*X95295Y221298D01*
X91995Y220598D02*X94595D01*
X91995D02*X91295Y221298D01*
Y222598D01*
X93795Y223798D02*X91295Y225798D01*
X93795Y223798D02*Y226298D01*
X91295Y225798D02*X95295D01*
X92095Y227498D02*X91295Y228298D01*
X95295D01*
Y227498D02*Y228998D01*
X350000Y167200D02*Y168500D01*
X349300Y166500D02*X350000Y167200D01*
X346700Y166500D02*X349300D01*
X346700D02*X346000Y167200D01*
Y168500D01*
Y169700D02*X350000D01*
X346000Y172200D02*X350000D01*
X348000Y169700D02*Y172200D01*
X347000Y173400D02*X350000D01*
X347000D02*X346000Y174100D01*
Y175200D01*
X347000Y175900D01*
X350000D01*
X348000Y173400D02*Y175900D01*
X346000Y179100D02*X346500Y179600D01*
X346000Y177600D02*Y179100D01*
X346500Y177100D02*X346000Y177600D01*
X346500Y177100D02*X347500D01*
X348000Y177600D01*
Y179100D01*
X348500Y179600D01*
X349500D01*
X350000Y179100D02*X349500Y179600D01*
X350000Y177600D02*Y179100D01*
X349500Y177100D02*X350000Y177600D01*
X346000Y182800D02*X346500Y183300D01*
X346000Y181300D02*Y182800D01*
X346500Y180800D02*X346000Y181300D01*
X346500Y180800D02*X347500D01*
X348000Y181300D01*
Y182800D01*
X348500Y183300D01*
X349500D01*
X350000Y182800D02*X349500Y183300D01*
X350000Y181300D02*Y182800D01*
X349500Y180800D02*X350000Y181300D01*
X346000Y184500D02*Y185500D01*
Y185000D02*X350000D01*
Y184500D02*Y185500D01*
X346000Y188700D02*X346500Y189200D01*
X346000Y187200D02*Y188700D01*
X346500Y186700D02*X346000Y187200D01*
X346500Y186700D02*X347500D01*
X348000Y187200D01*
Y188700D01*
X348500Y189200D01*
X349500D01*
X350000Y188700D02*X349500Y189200D01*
X350000Y187200D02*Y188700D01*
X349500Y186700D02*X350000Y187200D01*
X338000Y166500D02*Y168500D01*
X336800Y169700D02*X336000Y170500D01*
X340000D01*
Y169700D02*Y171200D01*
X336000Y172400D02*Y174400D01*
Y172400D02*X338000D01*
X337500Y172900D01*
Y173900D01*
X338000Y174400D01*
X339500D01*
X340000Y173900D02*X339500Y174400D01*
X340000Y172900D02*Y173900D01*
X339500Y172400D02*X340000Y172900D01*
X336000Y175600D02*X340000Y176600D01*
X336000Y177600D01*
X326000Y168500D02*X326500Y169000D01*
X326000Y167000D02*Y168500D01*
X326500Y166500D02*X326000Y167000D01*
X326500Y166500D02*X329500D01*
X330000Y167000D01*
Y168500D01*
X329500Y169000D01*
X328500D02*X329500D01*
X328000Y168500D02*X328500Y169000D01*
X328000Y167500D02*Y168500D01*
X326000Y170200D02*X330000D01*
X326000D02*X330000Y172700D01*
X326000D02*X330000D01*
X326000Y174400D02*X330000D01*
X326000Y175700D02*X326700Y176400D01*
X329300D01*
X330000Y175700D02*X329300Y176400D01*
X330000Y173900D02*Y175700D01*
X326000Y173900D02*Y175700D01*
X316000Y168500D02*X316500Y169000D01*
X316000Y167000D02*Y168500D01*
X316500Y166500D02*X316000Y167000D01*
X316500Y166500D02*X319500D01*
X320000Y167000D01*
Y168500D01*
X319500Y169000D01*
X318500D02*X319500D01*
X318000Y168500D02*X318500Y169000D01*
X318000Y167500D02*Y168500D01*
X316000Y170200D02*X320000D01*
X316000D02*X320000Y172700D01*
X316000D02*X320000D01*
X316000Y174400D02*X320000D01*
X316000Y175700D02*X316700Y176400D01*
X319300D01*
X320000Y175700D02*X319300Y176400D01*
X320000Y173900D02*Y175700D01*
X316000Y173900D02*Y175700D01*
X308000Y166500D02*Y168500D01*
X307000Y167500D02*X309000D01*
X306800Y169700D02*X306000Y170500D01*
X310000D01*
Y169700D02*Y171200D01*
X306000Y172400D02*Y174400D01*
Y172400D02*X308000D01*
X307500Y172900D01*
Y173900D01*
X308000Y174400D01*
X309500D01*
X310000Y173900D02*X309500Y174400D01*
X310000Y172900D02*Y173900D01*
X309500Y172400D02*X310000Y172900D01*
X306000Y175600D02*X310000Y176600D01*
X306000Y177600D01*
X249000Y89500D02*X251000D01*
X251500Y90000D01*
Y91200D02*Y90000D01*
X251000Y91700D02*X251500Y91200D01*
X249500Y91700D02*X251000D01*
X249500Y93500D02*Y89500D01*
X249000Y93500D02*X251000D01*
X251500Y93000D01*
Y92200D01*
X251000Y91700D02*X251500Y92200D01*
X252700Y91500D02*Y90000D01*
X253200Y89500D01*
X254700Y91500D02*Y88500D01*
X254200Y88000D02*X254700Y88500D01*
X253200Y88000D02*X254200D01*
X252700Y88500D02*X253200Y88000D01*
Y89500D02*X254200D01*
X254700Y90000D01*
X257700Y91700D02*X259200D01*
X257700Y89500D02*X259700D01*
X257700Y93500D02*Y89500D01*
Y93500D02*X259700D01*
X260900Y91500D02*X261900Y89500D01*
X262900Y91500D02*X261900Y89500D01*
X265600Y91500D02*X266100Y91000D01*
X264600Y91500D02*X265600D01*
X264100Y91000D02*X264600Y91500D01*
X264100Y91000D02*Y90000D01*
X264600Y89500D01*
X266100Y91500D02*Y90000D01*
X266600Y89500D01*
X264600D02*X265600D01*
X266100Y90000D01*
X268300Y91000D02*Y89500D01*
Y91000D02*X268800Y91500D01*
X269300D01*
X269800Y91000D01*
Y89500D01*
X267800Y91500D02*X268300Y91000D01*
X272800Y93500D02*Y89500D01*
Y93500D02*X274800D01*
X272800Y91700D02*X274300D01*
X276000Y91000D02*Y90000D01*
Y91000D02*X276500Y91500D01*
X277500D01*
X278000Y91000D01*
Y90000D01*
X277500Y89500D02*X278000Y90000D01*
X276500Y89500D02*X277500D01*
X276000Y90000D02*X276500Y89500D01*
X279700D02*X281200D01*
X281700Y90000D01*
X281200Y90500D02*X281700Y90000D01*
X279700Y90500D02*X281200D01*
X279200Y91000D02*X279700Y90500D01*
X279200Y91000D02*X279700Y91500D01*
X281200D01*
X281700Y91000D01*
X279200Y90000D02*X279700Y89500D01*
X283400D02*X284900D01*
X285400Y90000D01*
X284900Y90500D02*X285400Y90000D01*
X283400Y90500D02*X284900D01*
X282900Y91000D02*X283400Y90500D01*
X282900Y91000D02*X283400Y91500D01*
X284900D01*
X285400Y91000D01*
X282900Y90000D02*X283400Y89500D01*
X290000Y93000D02*X290500Y93500D01*
X292000D01*
X292500Y93000D01*
Y92000D01*
X290000Y89500D02*X292500Y92000D01*
X290000Y89500D02*X292500D01*
X293700Y90000D02*X294200Y89500D01*
X293700Y93000D02*Y90000D01*
Y93000D02*X294200Y93500D01*
X295200D01*
X295700Y93000D01*
Y90000D01*
X295200Y89500D02*X295700Y90000D01*
X294200Y89500D02*X295200D01*
X293700Y90500D02*X295700Y92500D01*
X296900Y93000D02*X297400Y93500D01*
X298900D01*
X299400Y93000D01*
Y92000D01*
X296900Y89500D02*X299400Y92000D01*
X296900Y89500D02*X299400D01*
X300600Y92700D02*X301400Y93500D01*
Y89500D01*
X300600D02*X302100D01*
X303300D02*X303800D01*
X305000Y90000D02*X305500Y89500D01*
X305000Y93000D02*Y90000D01*
Y93000D02*X305500Y93500D01*
X306500D01*
X307000Y93000D01*
Y90000D01*
X306500Y89500D02*X307000Y90000D01*
X305500Y89500D02*X306500D01*
X305000Y90500D02*X307000Y92500D01*
X308200Y93000D02*X308700Y93500D01*
X309700D01*
X310200Y93000D01*
X309700Y89500D02*X310200Y90000D01*
X308700Y89500D02*X309700D01*
X308200Y90000D02*X308700Y89500D01*
Y91700D02*X309700D01*
X310200Y93000D02*Y92200D01*
Y91200D02*Y90000D01*
Y91200D02*X309700Y91700D01*
X310200Y92200D02*X309700Y91700D01*
X311400Y89500D02*X311900D01*
X313100Y93000D02*X313600Y93500D01*
X315100D01*
X315600Y93000D01*
Y92000D01*
X313100Y89500D02*X315600Y92000D01*
X313100Y89500D02*X315600D01*
X316800Y93500D02*X318800D01*
X316800D02*Y91500D01*
X317300Y92000D01*
X318300D01*
X318800Y91500D01*
Y90000D01*
X318300Y89500D02*X318800Y90000D01*
X317300Y89500D02*X318300D01*
X316800Y90000D02*X317300Y89500D01*
X227159Y135720D02*X228459D01*
X226459Y136420D02*X227159Y135720D01*
X226459Y139020D02*Y136420D01*
Y139020D02*X227159Y139720D01*
X228459D01*
X229659Y138920D02*X230459Y139720D01*
Y135720D01*
X229659D02*X231159D01*
X232359Y137220D02*X234359Y139720D01*
X232359Y137220D02*X234859D01*
X234359Y139720D02*Y135720D01*
X335300Y165000D02*X334000D01*
X336000Y164300D02*X335300Y165000D01*
X336000Y161700D02*Y164300D01*
Y161700D02*X335300Y161000D01*
X334000D01*
X332800Y161500D02*Y164500D01*
Y161500D02*X332300Y161000D01*
X331300D01*
X330800Y161500D01*
Y164500D01*
X331300Y165000D02*X330800Y164500D01*
X332300Y165000D02*X331300D01*
X332800Y164500D02*X332300Y165000D01*
X329600Y161000D02*Y165000D01*
Y161000D02*X327100Y165000D01*
Y161000D02*Y165000D01*
X325900Y161000D02*Y165000D01*
Y161000D02*X323400Y165000D01*
Y161000D02*Y165000D01*
X322200Y163500D02*X320200Y161000D01*
X322200Y163500D02*X319700D01*
X320200Y161000D02*Y165000D01*
X283300D02*X282000D01*
X284000Y164300D02*X283300Y165000D01*
X284000Y161700D02*Y164300D01*
Y161700D02*X283300Y161000D01*
X282000D01*
X280800Y161500D02*Y164500D01*
Y161500D02*X280300Y161000D01*
X279300D01*
X278800Y161500D01*
Y164500D01*
X279300Y165000D02*X278800Y164500D01*
X280300Y165000D02*X279300D01*
X280800Y164500D02*X280300Y165000D01*
X277600Y161000D02*Y165000D01*
Y161000D02*X275100Y165000D01*
Y161000D02*Y165000D01*
X273900Y161000D02*Y165000D01*
Y161000D02*X271400Y165000D01*
Y161000D02*Y165000D01*
X270200Y161800D02*X269400Y161000D01*
Y165000D01*
X270200D02*X268700D01*
M02*
