G04 start of page 2 for group -1 layer_idx 268435460 *
G04 Title: (unknown), <virtual group> *
G04 Creator: pcb-rnd 2.3.2 *
G04 CreationDate: 2021-05-12 18:20:23 UTC *
G04 For:  *
G04 Format: Gerber/RS-274X *
G04 PCB-Dimensions: 500000 500000 *
G04 PCB-Coordinate-Origin: lower left *
%MOIN*%
%FSLAX25Y25*%
%LNBOTTOM_VIRTUAL_ASSY_NONE*%
%ADD149C,0.0070*%
%ADD148C,0.0080*%
%ADD147C,0.0197*%
%ADD146C,0.0420*%
%ADD145C,0.0256*%
%ADD144C,0.0640*%
%ADD143C,0.0374*%
%ADD142C,0.0276*%
%ADD141C,0.0295*%
%ADD140C,0.0200*%
%ADD139C,0.0790*%
%ADD138C,0.0394*%
%ADD137C,0.0350*%
%ADD136C,0.0600*%
%ADD135C,0.0984*%
%ADD134C,0.0571*%
%ADD133C,0.1040*%
%ADD132C,0.0689*%
%ADD131C,0.1000*%
%ADD130C,0.0400*%
%ADD129C,0.0787*%
%ADD128C,0.1580*%
%ADD127C,0.0866*%
%ADD126C,0.0800*%
%ADD125C,0.0001*%
%ADD124C,0.0700*%
G54D124*X153000Y349500D03*
Y364500D03*
G54D125*G36*
X194000Y376000D02*X202000D01*
Y368000D01*
X194000D01*
Y376000D01*
G37*
G54D126*X198000Y362000D03*
Y352000D03*
X228000Y372000D03*
Y362000D03*
G54D127*X267000Y372000D03*
Y357000D03*
G54D126*X228000Y352000D03*
X198000Y342000D03*
X228000D03*
G54D125*G36*
X279000Y376500D02*Y384500D01*
X287000D01*
Y376500D01*
X279000D01*
G37*
G36*
X280000Y345000D02*Y353000D01*
X288000D01*
Y345000D01*
X280000D01*
G37*
G54D126*X284000Y359000D03*
G54D125*G36*
X109760Y370654D02*Y365536D01*
X117240D01*
Y370654D01*
X109760D01*
G37*
G54D128*X93505Y373000D03*
X133505D03*
G54D125*G36*
X109760Y382464D02*Y377346D01*
X117240D01*
Y382464D01*
X109760D01*
G37*
G54D124*X107205Y348000D03*
G54D125*G36*
X116305Y351500D02*Y344500D01*
X123305D01*
Y351500D01*
X116305D01*
G37*
G54D124*X113505Y358000D03*
G54D128*X315500Y371500D03*
X355500D03*
G54D125*G36*
X331563Y355437D02*Y347563D01*
X339437D01*
Y355437D01*
X331563D01*
G37*
G54D129*X325500Y351500D03*
G54D124*X196500Y324500D03*
G54D125*G36*
X190000Y295000D02*Y303000D01*
X198000D01*
Y295000D01*
X190000D01*
G37*
G54D126*X194000Y309000D03*
G54D124*X189500Y255500D03*
G54D130*X228500Y281500D03*
X217500D03*
G54D129*X227343Y293000D03*
G54D125*G36*
X203720Y296937D02*Y289063D01*
X211594D01*
Y296937D01*
X203720D01*
G37*
G54D131*X262000Y307000D03*
G54D124*X238310Y275905D03*
G54D131*X262000Y289000D03*
X293000Y251500D03*
G54D125*G36*
X280000Y293000D02*X288000D01*
Y285000D01*
X280000D01*
Y293000D01*
G37*
G54D126*X294000Y289000D03*
G54D124*X178000Y324500D03*
G54D125*G36*
X160000Y275000D02*Y283000D01*
X168000D01*
Y275000D01*
X160000D01*
G37*
G54D126*X164000Y289000D03*
G54D125*G36*
X309535Y283095D02*X316425D01*
Y276205D01*
X309535D01*
Y283095D01*
G37*
G54D132*X322823Y279650D03*
G54D125*G36*
X337713Y300445D02*X344602D01*
Y293555D01*
X337713D01*
Y300445D01*
G37*
G54D132*X351000Y297000D03*
G54D125*G36*
X337735Y268095D02*X344625D01*
Y261205D01*
X337735D01*
Y268095D01*
G37*
G54D132*X351023Y264650D03*
G54D124*X245500Y218000D03*
G54D126*X174000Y209000D03*
G54D124*Y187500D03*
G54D125*G36*
X170000Y195000D02*Y203000D01*
X178000D01*
Y195000D01*
X170000D01*
G37*
G36*
X150579Y190524D02*X160421D01*
Y200366D01*
X150579D01*
Y190524D01*
G37*
G36*
X96300Y278200D02*Y267800D01*
X106700D01*
Y278200D01*
X96300D01*
G37*
G36*
Y306200D02*Y295800D01*
X106700D01*
Y306200D01*
X96300D01*
G37*
G54D131*X110500Y186500D03*
G54D125*G36*
X129217Y206193D02*Y219185D01*
X143783D01*
Y206193D01*
X129217D01*
G37*
G54D133*X121185Y273000D03*
G54D125*G36*
X134646Y272803D02*X140354D01*
Y278512D01*
X134646D01*
Y272803D01*
G37*
G54D133*X121185Y301000D03*
G54D125*G36*
X123803Y317854D02*Y312146D01*
X129512D01*
Y317854D01*
X123803D01*
G37*
G54D134*X146343Y315000D03*
X137500Y295343D03*
G54D124*X162500Y236000D03*
X180000D03*
G54D125*G36*
X129217Y229815D02*Y242807D01*
X143783D01*
Y229815D01*
X129217D01*
G37*
G54D135*X155500Y254500D03*
G54D136*X305000Y230500D03*
X359500D03*
X349500D03*
X339500D03*
X329500D03*
G54D125*G36*
X322500Y227500D02*X316500D01*
Y233500D01*
X322500D01*
Y227500D01*
G37*
G54D136*X295000Y230500D03*
X285000D03*
X275000D03*
G54D125*G36*
X268000Y227500D02*X262000D01*
Y233500D01*
X268000D01*
Y227500D01*
G37*
G54D137*G54D138*G54D139*G54D137*G54D139*G54D137*G54D138*G54D137*G54D140*G54D141*G54D136*G54D137*G54D136*G54D138*G54D137*G54D138*G54D142*G54D137*G54D138*G54D137*G54D138*G54D143*G54D144*G54D136*G54D144*G54D145*G54D144*G54D145*G54D137*G54D143*G54D146*G54D147*X143783Y221547D02*Y227453D01*
X129217Y221547D02*Y227453D01*
G54D148*X117240Y371638D02*Y376362D01*
X109760Y371638D02*Y376362D01*
G54D149*X271000Y391200D02*X269500D01*
X271000Y389000D02*X269000D01*
X271000Y393000D02*Y389000D01*
Y393000D02*X269000D01*
X266300Y391000D02*X265800Y390500D01*
X267300Y391000D02*X266300D01*
X267800Y390500D02*X267300Y391000D01*
X267800Y390500D02*Y389500D01*
X267300Y389000D01*
X265800Y391000D02*Y389500D01*
X265300Y389000D01*
X267300D02*X266300D01*
X265800Y389500D01*
X263600Y393000D02*Y389500D01*
X263100Y389000D01*
X264100Y391500D02*X263100D01*
X262100Y390500D02*Y389500D01*
Y390500D02*X261600Y391000D01*
X260600D01*
X260100Y390500D01*
Y389500D01*
X260600Y389000D02*X260100Y389500D01*
X261600Y389000D02*X260600D01*
X262100Y389500D02*X261600Y389000D01*
X258400Y390500D02*Y389000D01*
Y390500D02*X257900Y391000D01*
X257400D01*
X256900Y390500D01*
Y389000D01*
X258900Y391000D02*X258400Y390500D01*
X253400Y393000D02*Y389000D01*
X253900Y393000D02*X251900D01*
X251400Y392500D01*
Y391500D01*
X251900Y391000D02*X251400Y391500D01*
X253400Y391000D02*X251900D01*
X249700Y389000D02*X248200D01*
X250200Y389500D02*X249700Y389000D01*
X250200Y390500D02*Y389500D01*
Y390500D02*X249700Y391000D01*
X248700D01*
X248200Y390500D01*
X250200Y390000D02*X248200D01*
Y390500D01*
X245500Y391000D02*X245000Y390500D01*
X246500Y391000D02*X245500D01*
X247000Y390500D02*X246500Y391000D01*
X247000Y390500D02*Y389500D01*
X246500Y389000D01*
X245000Y391000D02*Y389500D01*
X244500Y389000D01*
X246500D02*X245500D01*
X245000Y389500D01*
X243300Y393000D02*Y389000D01*
Y389500D02*X242800Y389000D01*
X241800D01*
X241300Y389500D01*
Y390500D02*Y389500D01*
X241800Y391000D02*X241300Y390500D01*
X242800Y391000D02*X241800D01*
X243300Y390500D02*X242800Y391000D01*
X240100Y390500D02*Y389500D01*
Y390500D02*X239600Y391000D01*
X238600D01*
X238100Y390500D01*
Y389500D01*
X238600Y389000D02*X238100Y389500D01*
X239600Y389000D02*X238600D01*
X240100Y389500D02*X239600Y389000D01*
X234900Y393000D02*Y389000D01*
X235400D02*X234900Y389500D01*
X236400Y389000D02*X235400D01*
X236900Y389500D02*X236400Y389000D01*
X236900Y390500D02*Y389500D01*
Y390500D02*X236400Y391000D01*
X235400D01*
X234900Y390500D01*
X233700Y391000D02*Y389500D01*
X233200Y389000D01*
X231700Y391000D02*Y388000D01*
X232200Y387500D02*X231700Y388000D01*
X233200Y387500D02*X232200D01*
X233700Y388000D02*X233200Y387500D01*
Y389000D02*X232200D01*
X231700Y389500D01*
X228700Y393000D02*Y389000D01*
X226700D01*
X224000Y391000D02*X223500Y390500D01*
X225000Y391000D02*X224000D01*
X225500Y390500D02*X225000Y391000D01*
X225500Y390500D02*Y389500D01*
X225000Y389000D01*
X223500Y391000D02*Y389500D01*
X223000Y389000D01*
X225000D02*X224000D01*
X223500Y389500D01*
X221800Y393000D02*Y389000D01*
Y389500D02*X221300Y389000D01*
X220300D01*
X219800Y389500D01*
Y390500D02*Y389500D01*
X220300Y391000D02*X219800Y390500D01*
X221300Y391000D02*X220300D01*
X221800Y390500D02*X221300Y391000D01*
X271000Y376000D02*X269000D01*
X268500Y376500D01*
Y377700D02*Y376500D01*
X269000Y378200D02*X268500Y377700D01*
X270500Y378200D02*X269000D01*
X270500Y380000D02*Y376000D01*
X271000Y380000D02*X269000D01*
X268500Y379500D01*
Y378700D01*
X269000Y378200D02*X268500Y378700D01*
X267300Y378000D02*Y376500D01*
X266800Y376000D01*
X265300Y378000D02*Y375000D01*
X265800Y374500D02*X265300Y375000D01*
X266800Y374500D02*X265800D01*
X267300Y375000D02*X266800Y374500D01*
Y376000D02*X265800D01*
X265300Y376500D01*
X262300Y378200D02*X260800D01*
X262300Y376000D02*X260300D01*
X262300Y380000D02*Y376000D01*
Y380000D02*X260300D01*
X259100Y378000D02*X258100Y376000D01*
X257100Y378000D02*X258100Y376000D01*
X254400Y378000D02*X253900Y377500D01*
X255400Y378000D02*X254400D01*
X255900Y377500D02*X255400Y378000D01*
X255900Y377500D02*Y376500D01*
X255400Y376000D01*
X253900Y378000D02*Y376500D01*
X253400Y376000D01*
X255400D02*X254400D01*
X253900Y376500D01*
X251700Y377500D02*Y376000D01*
Y377500D02*X251200Y378000D01*
X250700D01*
X250200Y377500D01*
Y376000D01*
X252200Y378000D02*X251700Y377500D01*
X247200Y380000D02*Y376000D01*
Y380000D02*X245200D01*
X247200Y378200D02*X245700D01*
X244000Y377500D02*Y376500D01*
Y377500D02*X243500Y378000D01*
X242500D01*
X242000Y377500D01*
Y376500D01*
X242500Y376000D02*X242000Y376500D01*
X243500Y376000D02*X242500D01*
X244000Y376500D02*X243500Y376000D01*
X240300D02*X238800D01*
X238300Y376500D01*
X238800Y377000D02*X238300Y376500D01*
X240300Y377000D02*X238800D01*
X240800Y377500D02*X240300Y377000D01*
X240800Y377500D02*X240300Y378000D01*
X238800D01*
X238300Y377500D01*
X240800Y376500D02*X240300Y376000D01*
X236600D02*X235100D01*
X234600Y376500D01*
X235100Y377000D02*X234600Y376500D01*
X236600Y377000D02*X235100D01*
X237100Y377500D02*X236600Y377000D01*
X237100Y377500D02*X236600Y378000D01*
X235100D01*
X234600Y377500D01*
X237100Y376500D02*X236600Y376000D01*
X271000Y373000D02*X270500Y373500D01*
X269000D01*
X268500Y373000D01*
Y372000D01*
X271000Y369500D02*X268500Y372000D01*
X271000Y369500D02*X268500D01*
X267300Y370000D02*X266800Y369500D01*
X267300Y373000D02*Y370000D01*
Y373000D02*X266800Y373500D01*
X265800D01*
X265300Y373000D01*
Y370000D01*
X265800Y369500D02*X265300Y370000D01*
X266800Y369500D02*X265800D01*
X267300Y370500D02*X265300Y372500D01*
X264100Y373000D02*X263600Y373500D01*
X262100D01*
X261600Y373000D01*
Y372000D01*
X264100Y369500D02*X261600Y372000D01*
X264100Y369500D02*X261600D01*
X260400Y370000D02*X259900Y369500D01*
X260400Y373000D02*Y370000D01*
Y373000D02*X259900Y373500D01*
X258900D01*
X258400Y373000D01*
Y370000D01*
X258900Y369500D02*X258400Y370000D01*
X259900Y369500D02*X258900D01*
X260400Y370500D02*X258400Y372500D01*
X257200Y369500D02*X256700D01*
X255500Y370000D02*X255000Y369500D01*
X255500Y373000D02*Y370000D01*
Y373000D02*X255000Y373500D01*
X254000D01*
X253500Y373000D01*
Y370000D01*
X254000Y369500D02*X253500Y370000D01*
X255000Y369500D02*X254000D01*
X255500Y370500D02*X253500Y372500D01*
X252300Y373500D02*X250300D01*
X252300D02*Y371500D01*
X251800Y372000D01*
X250800D01*
X250300Y371500D01*
Y370000D01*
X250800Y369500D02*X250300Y370000D01*
X251800Y369500D02*X250800D01*
X252300Y370000D02*X251800Y369500D01*
X249100D02*X248600D01*
X247400Y370000D02*X246900Y369500D01*
X247400Y373000D02*Y370000D01*
Y373000D02*X246900Y373500D01*
X245900D01*
X245400Y373000D01*
Y370000D01*
X245900Y369500D02*X245400Y370000D01*
X246900Y369500D02*X245900D01*
X247400Y370500D02*X245400Y372500D01*
X242700Y373500D02*X242200Y373000D01*
X243700Y373500D02*X242700D01*
X244200Y373000D02*X243700Y373500D01*
X244200Y373000D02*Y370000D01*
X243700Y369500D01*
X242700Y371700D02*X242200Y371200D01*
X244200Y371700D02*X242700D01*
X243700Y369500D02*X242700D01*
X242200Y370000D01*
Y371200D02*Y370000D01*
X271000Y386500D02*Y382500D01*
Y386500D02*X269500Y384500D01*
X268000Y386500D01*
Y382500D01*
X266800Y384000D02*Y383000D01*
Y384000D02*X266300Y384500D01*
X265300D01*
X264800Y384000D01*
Y383000D01*
X265300Y382500D02*X264800Y383000D01*
X266300Y382500D02*X265300D01*
X266800Y383000D02*X266300Y382500D01*
X261600Y386500D02*Y382500D01*
X262100D02*X261600Y383000D01*
X263100Y382500D02*X262100D01*
X263600Y383000D02*X263100Y382500D01*
X263600Y384000D02*Y383000D01*
Y384000D02*X263100Y384500D01*
X262100D01*
X261600Y384000D01*
X259900Y382500D02*X258400D01*
X260400Y383000D02*X259900Y382500D01*
X260400Y384000D02*Y383000D01*
Y384000D02*X259900Y384500D01*
X258900D01*
X258400Y384000D01*
X260400Y383500D02*X258400D01*
Y384000D01*
X257200Y386500D02*Y383000D01*
X256700Y382500D01*
X255700Y385000D02*X255200D01*
X255700Y384000D02*X255200D01*
X252200Y382500D02*X250200D01*
X249700Y383000D01*
Y384200D02*Y383000D01*
X250200Y384700D02*X249700Y384200D01*
X251700Y384700D02*X250200D01*
X251700Y386500D02*Y382500D01*
X252200Y386500D02*X250200D01*
X249700Y386000D01*
Y385200D01*
X250200Y384700D02*X249700Y385200D01*
X248500Y385500D02*Y385400D01*
Y384000D02*Y382500D01*
X247500Y384000D02*Y383000D01*
Y384000D02*X247000Y384500D01*
X246000D01*
X245500Y384000D01*
Y383000D01*
X246000Y382500D02*X245500Y383000D01*
X247000Y382500D02*X246000D01*
X247500Y383000D02*X247000Y382500D01*
X244300Y385500D02*Y382500D01*
Y385500D02*X243600Y386500D01*
X242500D01*
X241800Y385500D01*
Y382500D01*
X244300Y384500D02*X241800D01*
X240100Y384000D02*Y382500D01*
Y384000D02*X239600Y384500D01*
X239100D01*
X238600Y384000D01*
Y382500D01*
Y384000D02*X238100Y384500D01*
X237600D01*
X237100Y384000D01*
Y382500D01*
X240600Y384500D02*X240100Y384000D01*
X235400D02*Y381000D01*
X235900Y384500D02*X235400Y384000D01*
X234900Y384500D01*
X233900D01*
X233400Y384000D01*
Y383000D01*
X233900Y382500D02*X233400Y383000D01*
X234900Y382500D02*X233900D01*
X235400Y383000D02*X234900Y382500D01*
X230400Y386500D02*Y385500D01*
X229400Y386500D02*Y385500D01*
X227700Y384500D02*X226200D01*
X228200Y384000D02*X227700Y384500D01*
X228200Y384000D02*Y383000D01*
X227700Y382500D01*
X226200D01*
X225000Y386500D02*Y382500D01*
Y384000D02*X224500Y384500D01*
X223500D01*
X223000Y384000D01*
Y382500D01*
X221300D02*X219800D01*
X221800Y383000D02*X221300Y382500D01*
X221800Y384000D02*Y383000D01*
Y384000D02*X221300Y384500D01*
X220300D01*
X219800Y384000D01*
X221800Y383500D02*X219800D01*
Y384000D01*
X217100Y384500D02*X216600Y384000D01*
X218100Y384500D02*X217100D01*
X218600Y384000D02*X218100Y384500D01*
X218600Y384000D02*Y383000D01*
X218100Y382500D01*
X216600Y384500D02*Y383000D01*
X216100Y382500D01*
X218100D02*X217100D01*
X216600Y383000D01*
X214400Y384000D02*Y381000D01*
X214900Y384500D02*X214400Y384000D01*
X213900Y384500D01*
X212900D01*
X212400Y384000D01*
Y383000D01*
X212900Y382500D02*X212400Y383000D01*
X213900Y382500D02*X212900D01*
X214400Y383000D02*X213900Y382500D01*
X211200Y386500D02*Y385500D01*
X210200Y386500D02*Y385500D01*
X149748Y218850D02*Y220850D01*
X149248Y221350D01*
X148248D01*
X147748Y220850D02*X148248Y221350D01*
X147748Y219350D02*Y220850D01*
X149748Y219350D02*X145748D01*
X147748Y220150D02*X145748Y221350D01*
X147248Y222550D02*X149748Y224550D01*
X147248Y222550D02*Y225050D01*
X149748Y224550D02*X145748D01*
X147248Y226250D02*X149748Y228250D01*
X147248Y226250D02*Y228750D01*
X149748Y228250D02*X145748D01*
X118650Y370050D02*Y371350D01*
X119350Y369350D02*X118650Y370050D01*
X121950Y369350D02*X119350D01*
X121950D02*X122650Y370050D01*
Y371350D01*
Y372550D02*Y374550D01*
Y372550D02*X120650D01*
X121150Y373050D01*
Y374050D01*
X120650Y374550D01*
X119150D01*
X118650Y374050D02*X119150Y374550D01*
X118650Y373050D02*Y374050D01*
X119150Y372550D02*X118650Y373050D01*
X119150Y375750D02*X118650Y376250D01*
X122150Y375750D02*X119150D01*
X122150D02*X122650Y376250D01*
Y377250D01*
X122150Y377750D01*
X119150D01*
X118650Y377250D02*X119150Y377750D01*
X118650Y376250D02*Y377250D01*
X119650Y375750D02*X121650Y377750D01*
M02*
