G04 start of page 2 for group -1 layer_idx 268435459 *
G04 Title: (unknown), <virtual group> *
G04 Creator: pcb-rnd 2.2.2 *
G04 CreationDate: 2020-09-08 21:03:29 UTC *
G04 For:  *
G04 Format: Gerber/RS-274X *
G04 PCB-Dimensions: 500000 500000 *
G04 PCB-Coordinate-Origin: lower left *
%MOIN*%
%FSLAX25Y25*%
%LNTOP_VIRTUAL_ASSY_NONE*%
%ADD123C,0.0070*%
%ADD122C,0.0394*%
%ADD121C,0.0217*%
%ADD120C,0.0150*%
%ADD119C,0.0080*%
%ADD118C,0.0100*%
%ADD117C,0.0430*%
%ADD116C,0.0276*%
%ADD115C,0.0374*%
%ADD114C,0.0256*%
%ADD113C,0.0790*%
%ADD112C,0.0420*%
%ADD111C,0.0295*%
%ADD110C,0.0200*%
%ADD109C,0.0394*%
%ADD108C,0.0350*%
%ADD107C,0.0830*%
%ADD106C,0.0689*%
%ADD105C,0.1000*%
%ADD104C,0.0984*%
%ADD103C,0.0571*%
%ADD102C,0.1580*%
%ADD101C,0.0600*%
%ADD100C,0.0787*%
%ADD99C,0.0400*%
%ADD98C,0.0866*%
%ADD97C,0.0800*%
%ADD96C,0.0001*%
%ADD95C,0.0700*%
G54D95*X103767Y226967D03*
Y241967D03*
G54D96*G36*
X128826Y230707D02*X123708D01*
Y223227D01*
X128826D01*
Y230707D01*
G37*
G36*
X117016Y245707D02*X111898D01*
Y238227D01*
X117016D01*
Y245707D01*
G37*
G36*
X128826D02*X123708D01*
Y238227D01*
X128826D01*
Y245707D01*
G37*
G36*
X163421Y261707D02*X158303D01*
Y254227D01*
X163421D01*
Y261707D01*
G37*
G36*
X148000Y246000D02*X156000D01*
Y238000D01*
X148000D01*
Y246000D01*
G37*
G54D97*X152000Y232000D03*
G54D96*G36*
X175231Y261707D02*X170113D01*
Y254227D01*
X175231D01*
Y261707D01*
G37*
G54D97*X182000Y242000D03*
Y232000D03*
Y222000D03*
G54D96*G36*
X210326Y235707D02*X205208D01*
Y228227D01*
X210326D01*
Y235707D01*
G37*
G36*
Y220707D02*X205208D01*
Y213227D01*
X210326D01*
Y220707D01*
G37*
G54D98*X230267Y231967D03*
Y216967D03*
G54D96*G36*
X222136Y235707D02*X217018D01*
Y228227D01*
X222136D01*
Y235707D01*
G37*
G36*
Y220707D02*X217018D01*
Y213227D01*
X222136D01*
Y220707D01*
G37*
G54D97*X152000Y222000D03*
Y212000D03*
X182000D03*
G54D96*G36*
X117016Y230707D02*X111898D01*
Y223227D01*
X117016D01*
Y230707D01*
G37*
G36*
Y215707D02*X111898D01*
Y208227D01*
X117016D01*
Y215707D01*
G37*
G36*
X128826D02*X123708D01*
Y208227D01*
X128826D01*
Y215707D01*
G37*
G54D95*X281500Y351000D03*
G54D96*G36*
X277500Y320000D02*Y311500D01*
X275500D01*
Y320000D01*
X277500D01*
G37*
G36*
X282500D02*Y311500D01*
X280500D01*
Y320000D01*
X282500D01*
G37*
G36*
X277760Y333154D02*Y328036D01*
X285240D01*
Y333154D01*
X277760D01*
G37*
G36*
Y344964D02*Y339846D01*
X285240D01*
Y344964D01*
X277760D01*
G37*
G54D99*X298000Y308500D03*
G54D96*G36*
X287500Y320000D02*Y311500D01*
X285500D01*
Y320000D01*
X287500D01*
G37*
G36*
X292500D02*Y311500D01*
X290500D01*
Y320000D01*
X292500D01*
G37*
G54D99*X312500Y323000D03*
G54D96*G36*
X323559Y326740D02*X318441D01*
Y319260D01*
X323559D01*
Y326740D01*
G37*
G36*
X275500Y291000D02*Y299500D01*
X277500D01*
Y291000D01*
X275500D01*
G37*
G36*
X280500D02*Y299500D01*
X282500D01*
Y291000D01*
X280500D01*
G37*
G36*
X285500D02*Y299500D01*
X287500D01*
Y291000D01*
X285500D01*
G37*
G36*
X290500D02*Y299500D01*
X292500D01*
Y291000D01*
X290500D01*
G37*
G54D95*X284000Y278500D03*
G54D96*G36*
X307980Y235980D02*Y227480D01*
X305980D01*
Y235980D01*
X307980D01*
G37*
G36*
X312980D02*Y227480D01*
X310980D01*
Y235980D01*
X312980D01*
G37*
G36*
X294760Y275154D02*Y270036D01*
X302240D01*
Y275154D01*
X294760D01*
G37*
G36*
Y286964D02*Y281846D01*
X302240D01*
Y286964D01*
X294760D01*
G37*
G54D95*X334000Y246000D03*
G54D96*G36*
X310980Y206980D02*Y215480D01*
X312980D01*
Y206980D01*
X310980D01*
G37*
G36*
X317980Y235980D02*Y227480D01*
X315980D01*
Y235980D01*
X317980D01*
G37*
G36*
X322980D02*Y227480D01*
X320980D01*
Y235980D01*
X322980D01*
G37*
G36*
X305980Y206980D02*Y215480D01*
X307980D01*
Y206980D01*
X305980D01*
G37*
G36*
X315980D02*Y215480D01*
X317980D01*
Y206980D01*
X315980D01*
G37*
G36*
X320980D02*Y215480D01*
X322980D01*
Y206980D01*
X320980D01*
G37*
G54D100*X278480Y231823D03*
G54D96*G36*
X271315Y249536D02*Y241464D01*
X285685D01*
Y249536D01*
X271315D01*
G37*
G36*
X274543Y208201D02*X282417D01*
Y216075D01*
X274543D01*
Y208201D01*
G37*
G36*
X314559Y249740D02*X309441D01*
Y242260D01*
X314559D01*
Y249740D01*
G37*
G36*
X326369D02*X321251D01*
Y242260D01*
X326369D01*
Y249740D01*
G37*
G36*
X294528Y198082D02*Y192964D01*
X300432D01*
Y198082D01*
X294528D01*
G37*
G36*
X328240Y204040D02*Y198922D01*
X335720D01*
Y204040D01*
X328240D01*
G37*
G36*
X308528Y198082D02*Y192964D01*
X314432D01*
Y198082D01*
X308528D01*
G37*
G54D95*X321290Y189670D03*
G54D96*G36*
X294528Y190996D02*Y185878D01*
X300432D01*
Y190996D01*
X294528D01*
G37*
G36*
X328240Y192230D02*Y187112D01*
X335720D01*
Y192230D01*
X328240D01*
G37*
G36*
X308528Y190996D02*Y185878D01*
X314432D01*
Y190996D01*
X308528D01*
G37*
G36*
X335240Y218134D02*Y213016D01*
X342720D01*
Y218134D01*
X335240D01*
G37*
G36*
Y229945D02*Y224826D01*
X342720D01*
Y229945D01*
X335240D01*
G37*
G36*
X335369Y326740D02*X330251D01*
Y319260D01*
X335369D01*
Y326740D01*
G37*
G36*
X331563Y355437D02*Y347563D01*
X339437D01*
Y355437D01*
X331563D01*
G37*
G54D100*X325500Y351500D03*
G54D96*G36*
X343315Y327036D02*Y318964D01*
X357685D01*
Y327036D01*
X343315D01*
G37*
G54D101*X338000Y155000D03*
X328000D03*
G54D97*X333000Y304500D03*
G54D101*X348000Y155000D03*
X318000D03*
G54D96*G36*
X311000Y152000D02*X305000D01*
Y158000D01*
X311000D01*
Y152000D01*
G37*
G54D101*X296000Y155000D03*
X286000D03*
X276000D03*
X266000D03*
G54D96*G36*
X319000Y308500D02*X327000D01*
Y300500D01*
X319000D01*
Y308500D01*
G37*
G54D102*X315500Y371500D03*
G54D96*G36*
X290000Y376000D02*Y384000D01*
X298000D01*
Y376000D01*
X290000D01*
G37*
G54D102*X355500Y371500D03*
G54D96*G36*
X120815Y322036D02*Y313964D01*
X135185D01*
Y322036D01*
X120815D01*
G37*
G36*
X97815Y311536D02*Y303464D01*
X112185D01*
Y311536D01*
X97815D01*
G37*
G54D103*X105000Y289000D03*
X128000Y303500D03*
G54D96*G36*
X149000Y290500D02*Y298500D01*
X157000D01*
Y290500D01*
X149000D01*
G37*
G54D97*X153000Y304500D03*
G54D95*X103767Y211967D03*
G54D96*G36*
X102146Y266461D02*X107854D01*
Y272169D01*
X102146D01*
Y266461D01*
G37*
G36*
X125146Y280961D02*X130854D01*
Y286669D01*
X125146D01*
Y280961D01*
G37*
G54D95*X107240Y348000D03*
G54D96*G36*
X116340Y351500D02*Y344500D01*
X123340D01*
Y351500D01*
X116340D01*
G37*
G54D95*X113540Y358000D03*
G54D102*X93540Y373000D03*
X133540D03*
G54D95*X103767Y196967D03*
G54D96*G36*
X117016Y200707D02*X111898D01*
Y193227D01*
X117016D01*
Y200707D01*
G37*
G36*
X128826D02*X123708D01*
Y193227D01*
X128826D01*
Y200707D01*
G37*
G36*
X136921Y197707D02*X131803D01*
Y190227D01*
X136921D01*
Y197707D01*
G37*
G36*
X148731D02*X143613D01*
Y190227D01*
X148731D01*
Y197707D01*
G37*
G54D104*X155506Y172276D03*
G54D105*X120500Y91500D03*
X177826Y108570D03*
G54D96*G36*
X150585Y108299D02*X160428D01*
Y118142D01*
X150585D01*
Y108299D01*
G37*
G36*
X195121Y110256D02*Y102185D01*
X209491D01*
Y110256D01*
X195121D01*
G37*
G36*
X222539Y157515D02*X229429D01*
Y150626D01*
X222539D01*
Y157515D01*
G37*
G54D106*X235826Y154070D03*
G54D96*G36*
X259000Y152000D02*X253000D01*
Y158000D01*
X259000D01*
Y152000D01*
G37*
G36*
X195121Y166256D02*Y158185D01*
X209491D01*
Y166256D01*
X195121D01*
G37*
G36*
X194362Y140165D02*X201251D01*
Y133276D01*
X194362D01*
Y140165D01*
G37*
G54D106*X207649Y136720D03*
G54D96*G36*
X222562Y125165D02*X229451D01*
Y118276D01*
X222562D01*
Y125165D01*
G37*
G54D106*X235849Y121720D03*
G54D96*G36*
X170641Y126106D02*Y118035D01*
X185011D01*
Y126106D01*
X170641D01*
G37*
G54D95*X230500Y303500D03*
X221000Y342000D03*
Y327000D03*
G54D96*G36*
X226464Y315740D02*X221346D01*
Y308260D01*
X226464D01*
Y315740D01*
G37*
G54D95*X236500Y197000D03*
G54D96*G36*
X239760Y295154D02*Y290036D01*
X247240D01*
Y295154D01*
X239760D01*
G37*
G36*
Y306964D02*Y301846D01*
X247240D01*
Y306964D01*
X239760D01*
G37*
G36*
X226369Y298740D02*X221251D01*
Y291260D01*
X226369D01*
Y298740D01*
G37*
G36*
X235016Y337452D02*X229898D01*
Y331548D01*
X235016D01*
Y337452D01*
G37*
G36*
X242102D02*X236984D01*
Y331548D01*
X242102D01*
Y337452D01*
G37*
G36*
X219000Y268500D02*X227000D01*
Y260500D01*
X219000D01*
Y268500D01*
G37*
G54D97*X233000Y264500D03*
G54D95*X272000Y197000D03*
X243000Y187000D03*
X262500D03*
G54D96*G36*
X191815Y201036D02*Y192964D01*
X206185D01*
Y201036D01*
X191815D01*
G37*
G36*
X182000Y292000D02*Y300500D01*
X184000D01*
Y292000D01*
X182000D01*
G37*
G36*
X184000Y321000D02*Y312500D01*
X182000D01*
Y321000D01*
X184000D01*
G37*
G36*
X187000Y292000D02*Y300500D01*
X189000D01*
Y292000D01*
X187000D01*
G37*
G36*
X189000Y321000D02*Y312500D01*
X187000D01*
Y321000D01*
X189000D01*
G37*
G54D99*X206500Y288000D03*
G54D96*G36*
X185048Y277516D02*Y272398D01*
X190952D01*
Y277516D01*
X185048D01*
G37*
G36*
Y284602D02*Y279484D01*
X190952D01*
Y284602D01*
X185048D01*
G37*
G36*
X198048Y277516D02*Y272398D01*
X203952D01*
Y277516D01*
X198048D01*
G37*
G36*
Y284602D02*Y279484D01*
X203952D01*
Y284602D01*
X198048D01*
G37*
G36*
X192000Y292000D02*Y300500D01*
X194000D01*
Y292000D01*
X192000D01*
G37*
G36*
X194000Y321000D02*Y312500D01*
X192000D01*
Y321000D01*
X194000D01*
G37*
G36*
X197000Y292000D02*Y300500D01*
X199000D01*
Y292000D01*
X197000D01*
G37*
G36*
X214559Y298740D02*X209441D01*
Y291260D01*
X214559D01*
Y298740D01*
G37*
G36*
X199000Y321000D02*Y312500D01*
X197000D01*
Y321000D01*
X199000D01*
G37*
G36*
X214654Y315740D02*X209536D01*
Y308260D01*
X214654D01*
Y315740D01*
G37*
G36*
X171516Y343952D02*X166398D01*
Y338048D01*
X171516D01*
Y343952D01*
G37*
G36*
X178602D02*X173484D01*
Y338048D01*
X178602D01*
Y343952D01*
G37*
G36*
X171559Y331452D02*X166441D01*
Y325548D01*
X171559D01*
Y331452D01*
G37*
G54D107*X193500Y347500D03*
G54D96*G36*
X178645Y331452D02*X173527D01*
Y325548D01*
X178645D01*
Y331452D01*
G37*
G36*
X190048Y331016D02*Y325898D01*
X195952D01*
Y331016D01*
X190048D01*
G37*
G36*
Y338102D02*Y332984D01*
X195952D01*
Y338102D01*
X190048D01*
G37*
G54D107*X253000Y347500D03*
G54D96*G36*
X202548Y331016D02*Y325898D01*
X208452D01*
Y331016D01*
X202548D01*
G37*
G36*
Y338102D02*Y332984D01*
X208452D01*
Y338102D01*
X202548D01*
G37*
G54D107*X253000Y357500D03*
X193500D03*
Y367500D03*
Y387500D03*
X253000Y367500D03*
Y387500D03*
G54D96*G36*
X259516Y313452D02*X254398D01*
Y307548D01*
X259516D01*
Y313452D01*
G37*
G36*
Y326452D02*X254398D01*
Y320548D01*
X259516D01*
Y326452D01*
G37*
G36*
X266602Y313452D02*X261484D01*
Y307548D01*
X266602D01*
Y313452D01*
G37*
G36*
X259516Y299952D02*X254398D01*
Y294048D01*
X259516D01*
Y299952D01*
G37*
G36*
X266602D02*X261484D01*
Y294048D01*
X266602D01*
Y299952D01*
G37*
G36*
Y326452D02*X261484D01*
Y320548D01*
X266602D01*
Y326452D01*
G37*
G36*
X249000Y268500D02*X257000D01*
Y260500D01*
X249000D01*
Y268500D01*
G37*
G54D97*X263000Y264500D03*
G54D108*G54D109*G54D108*G54D110*G54D108*G54D111*G54D108*G54D112*G54D109*G54D112*G54D109*G54D113*G54D109*G54D113*G54D114*G54D109*G54D108*G54D114*G54D108*G54D113*G54D108*G54D115*G54D101*G54D115*G54D116*G54D112*G54D116*G54D108*G54D109*G54D108*G54D110*G54D117*G54D109*G54D118*X119044Y323807D02*X136956D01*
G54D119*X172107Y343755D02*X172893D01*
X172107Y338245D02*X172893D01*
X172150Y331255D02*X172936D01*
X172150Y325745D02*X172936D01*
G54D118*X183500Y367500D02*X203500D01*
G54D119*X235607Y337255D02*X236393D01*
X190245Y331607D02*Y332393D01*
X195755Y331607D02*Y332393D01*
X202745Y331607D02*Y332393D01*
X208255Y331607D02*Y332393D01*
G54D118*X243000Y367500D02*X263000D01*
G54D119*X260107Y326255D02*X260893D01*
X235607Y331745D02*X236393D01*
X324543Y326740D02*X329267D01*
X324543Y319260D02*X329267D01*
G54D118*X341544Y317193D02*Y328807D01*
X294000Y321500D02*X274000D01*
X200500Y322500D02*X180500D01*
G54D119*X260107Y320745D02*X260893D01*
X277760Y334138D02*Y338862D01*
X285240Y334138D02*Y338862D01*
G54D120*X364500Y402500D02*X306500D01*
Y343500D01*
X310500Y407500D02*X360500Y402500D01*
X310500Y410000D02*X360500Y405000D01*
X310500Y412500D02*X360500Y407500D01*
X310500Y405000D02*X335500Y402500D01*
G54D118*X263000Y367500D02*Y400800D01*
X243000Y367500D02*Y400800D01*
X265000Y402800D02*Y400800D01*
X241000Y402800D02*Y400800D01*
X265000D01*
G54D99*X253000Y347500D02*Y367500D01*
G54D118*X289000Y375000D02*X299000D01*
X289000D02*Y385000D01*
X299000D02*X289000D01*
X299000Y375000D02*Y385000D01*
X289000D02*X299000D01*
G54D120*X306500Y343500D02*X364500D01*
Y402500D01*
G54D118*X299000Y385000D02*Y375000D01*
X203500Y367500D02*Y400800D01*
X183500Y367500D02*Y400800D01*
G54D99*X193500Y347500D02*Y367500D01*
G54D118*X205500Y402800D02*Y400800D01*
X181500Y402800D02*Y400800D01*
X205500D01*
Y402800D02*X181500D01*
X193800Y424800D02*X193200D01*
X203300D02*X183700D01*
X196000D02*X191000D01*
X203300Y402800D02*Y424800D01*
X183700D02*Y402800D01*
X265000D02*X241000D01*
X243200Y424800D02*Y402800D01*
G54D120*X310500Y415000D02*X360500Y410000D01*
G54D118*X262800Y402800D02*Y424800D01*
G54D120*X310500Y417500D02*X360500Y412500D01*
X310500Y420000D02*X360500Y415000D01*
G54D118*X253300Y424800D02*X252700D01*
X262800D02*X243200D01*
X255500D02*X250500D01*
G54D120*X310500Y430000D02*X360500Y425000D01*
X310500Y432500D02*X360500Y427500D01*
X310500Y435000D02*X360500Y430000D01*
X310500Y436400D02*X360500D01*
X321400D02*X360500Y432500D01*
X346000Y436400D02*X360500Y435000D01*
X310500Y422500D02*X360500Y417500D01*
X310500Y425000D02*X360500Y420000D01*
X310500Y427500D02*X360500Y422500D01*
G54D118*X250500Y424800D02*Y443300D01*
X255500D02*Y424800D01*
X191000D02*Y443300D01*
X196000D02*Y424800D01*
X341544Y328807D02*X359456D01*
Y317193D01*
X341544D01*
G54D120*X310500Y402500D02*Y436400D01*
X316500Y483500D02*Y436400D01*
X360500D02*Y402500D01*
X354500Y436400D02*Y483500D01*
X316500D01*
G54D118*X136956Y323807D02*Y312193D01*
X125638Y292673D02*X130362D01*
X128000Y294642D02*Y298972D01*
X148000Y289500D02*X158000D01*
X148000D02*Y309500D01*
X158000D02*Y289500D01*
Y309500D02*X148000D01*
X153000Y289500D02*X150500Y284500D01*
X153000Y289500D02*X155500Y284500D01*
X150500D02*X155500D01*
X147000Y247000D02*Y207000D01*
X187000D02*Y247000D01*
X147000D02*X162000D01*
X172000D02*X187000D01*
X168870Y127877D02*X186783D01*
Y116263D01*
X168870D01*
Y127877D01*
X132921Y307831D02*Y279484D01*
X123079D01*
X128000Y288343D02*Y292673D01*
X125638Y294642D02*X130362D01*
G54D119*X185245Y278107D02*Y278893D01*
X190755Y278107D02*Y278893D01*
G54D118*X180500Y290500D02*X200500D01*
G54D119*X198245Y278107D02*Y278893D01*
G54D118*X200500Y322500D02*Y290500D01*
G54D119*X215638Y315740D02*X220362D01*
X215638Y308260D02*X220362D01*
X203755Y278107D02*Y278893D01*
X215543Y298740D02*X220267D01*
X215543Y291260D02*X220267D01*
G54D118*X218000Y264500D02*X213000Y267000D01*
G54D119*X211310Y235707D02*X216034D01*
G54D118*X218000Y269500D02*Y259500D01*
Y264500D02*X213000Y262000D01*
Y267000D02*Y262000D01*
G54D119*X211310Y228227D02*X216034D01*
X211310Y220707D02*X216034D01*
X211310Y213227D02*X216034D01*
G54D118*X180500Y290500D02*Y304000D01*
G54D119*X164405Y261707D02*X169129D01*
X164405Y254227D02*X169129D01*
G54D118*X180500Y309000D02*Y322500D01*
G54D119*X239760Y296138D02*Y300862D01*
X247240Y296138D02*Y300862D01*
G54D118*X248000Y264500D02*X243000Y267000D01*
X248000Y269500D02*Y259500D01*
Y264500D02*X243000Y262000D01*
Y267000D02*Y262000D01*
X218000Y269500D02*X238000D01*
Y259500D02*X218000D01*
X238000D02*Y269500D01*
X264307Y236154D02*X292653D01*
G54D121*X275330Y223949D02*X281630D01*
G54D118*X269544Y251307D02*X287456D01*
Y239693D01*
X269544D01*
Y251307D01*
X264307Y207807D02*Y236154D01*
G54D121*X278480Y223949D02*Y225918D01*
X275330Y220012D02*X281630D01*
G54D118*X292653Y236154D02*Y207807D01*
G54D121*X278480Y218043D02*Y220012D01*
G54D118*X274000Y289500D02*X294000D01*
Y321500D02*Y289500D01*
G54D119*X294760Y276138D02*Y280862D01*
G54D118*X274000Y289500D02*Y303000D01*
X248000Y269500D02*X268000D01*
Y259500D02*X248000D01*
X268000D02*Y269500D01*
X274000Y308000D02*Y321500D01*
G54D119*X260107Y313255D02*X260893D01*
X260107Y307745D02*X260893D01*
X260107Y299755D02*X260893D01*
X260107Y294245D02*X260893D01*
X294725Y191588D02*Y192374D01*
G54D118*X292653Y207807D02*X264307D01*
G54D119*X300235Y191588D02*Y192374D01*
X308725Y191588D02*Y192374D01*
X314235Y191588D02*Y192374D01*
G54D118*X187000Y207000D02*X147000D01*
G54D119*X137905Y197707D02*X142629D01*
G54D118*X190044Y202807D02*X207956D01*
X324480Y237480D02*X304480D01*
Y223980D02*Y237480D01*
G54D119*X315543Y249740D02*X320267D01*
X315543Y242260D02*X320267D01*
X328240Y193214D02*Y197938D01*
G54D118*X304480Y205480D02*X324480D01*
X304480D02*Y218980D01*
G54D119*X302240Y276138D02*Y280862D01*
G54D118*X318000Y309500D02*Y299500D01*
Y309500D02*X338000D01*
X318000Y304500D02*X313000Y307000D01*
X318000Y304500D02*X313000Y302000D01*
Y307000D02*Y302000D01*
X338000Y299500D02*X318000D01*
X338000D02*Y309500D01*
X308000Y112300D02*Y132000D01*
G54D99*Y127600D02*Y129800D01*
X318000Y136600D02*Y138800D01*
Y127600D02*Y129800D01*
Y146500D02*Y155000D01*
X308000Y146500D02*Y155000D01*
X318000Y118600D02*Y120800D01*
X308000Y118600D02*Y120800D01*
X318000Y110800D02*Y107600D01*
X308000Y110800D02*Y107600D01*
G54D120*X306750Y110300D02*Y131700D01*
G54D118*X303000Y132000D02*Y144500D01*
G54D99*X308000Y136600D02*Y138800D01*
G54D118*X303000Y132000D02*X308000D01*
X311500D02*X314500D01*
X321500D02*X324500D01*
G54D119*X335240Y219118D02*Y223843D01*
X342720Y219118D02*Y223843D01*
G54D118*X324480Y237480D02*Y205480D01*
G54D119*X335720Y193214D02*Y197938D01*
G54D99*X338000Y136600D02*Y138800D01*
X348000Y146500D02*Y155000D01*
X338000Y146500D02*Y155000D01*
G54D118*X353000Y144500D02*Y132000D01*
X341500D02*X344500D01*
G54D99*X348000Y136600D02*Y138800D01*
G54D118*Y132000D02*Y112300D01*
X353000Y132000D02*X348000D01*
G54D99*X338000Y118600D02*Y120800D01*
X348000Y118600D02*Y120800D01*
X338000Y127600D02*Y129800D01*
X348000Y127600D02*Y129800D01*
G54D118*X301000Y144500D02*Y132000D01*
X296000D01*
X289500D02*X292500D01*
G54D99*X296000Y136600D02*Y138800D01*
G54D118*Y132000D02*Y112300D01*
G54D99*Y118600D02*Y120800D01*
Y127600D02*Y129800D01*
Y146500D02*Y155000D01*
Y110800D02*Y107600D01*
G54D120*X297250Y110600D02*Y131700D01*
G54D118*X334500Y112300D02*X348000D01*
X353000Y144500D02*X303000D01*
X308000Y112300D02*X348000D01*
X251000Y132000D02*Y144500D01*
Y132000D02*X256000D01*
X259500D02*X262500D01*
G54D99*X256000Y136600D02*Y138800D01*
G54D118*Y112300D02*Y132000D01*
X269500D02*X272500D01*
G54D99*X266000Y118600D02*Y120800D01*
X256000Y118600D02*Y120800D01*
Y127600D02*Y129800D01*
X266000Y127600D02*Y129800D01*
Y136600D02*Y138800D01*
X286000Y118600D02*Y120800D01*
G54D118*X282500Y112300D02*X296000D01*
X256000D02*X296000D01*
X279500Y132000D02*X282500D01*
X301000Y144500D02*X251000D01*
G54D99*X276000Y118600D02*Y120800D01*
Y136600D02*Y138800D01*
Y127600D02*Y129800D01*
X286000Y146500D02*Y155000D01*
X276000Y146500D02*Y155000D01*
X266000Y146500D02*Y155000D01*
X256000Y146500D02*Y155000D01*
X286000Y127600D02*Y129800D01*
Y136600D02*Y138800D01*
Y110800D02*Y107600D01*
X276000Y110800D02*Y107600D01*
X266000Y110800D02*Y107600D01*
X256000Y110800D02*Y107600D01*
G54D120*X254750Y110300D02*Y131700D01*
G54D118*X331500Y132000D02*X334500D01*
G54D99*X328000Y136600D02*Y138800D01*
Y146500D02*Y155000D01*
X338000Y110800D02*Y107600D01*
X328000Y118600D02*Y120800D01*
Y127600D02*Y129800D01*
Y110800D02*Y107600D01*
X348000Y110800D02*Y107600D01*
G54D120*X349250Y110600D02*Y131700D01*
X88290Y436500D02*Y402500D01*
Y436500D02*X138790D01*
X88290Y435000D02*X138790Y430000D01*
X88290Y404500D02*X108490Y402500D01*
X138790Y433500D02*X107490Y436500D01*
X88290Y410500D02*X138790Y405500D01*
X88290Y407500D02*X138790Y402500D01*
X88290Y419500D02*X138790Y414500D01*
X88290Y416500D02*X138790Y411500D01*
X88290Y413500D02*X138790Y408500D01*
X88290Y428500D02*X138790Y423500D01*
X88290Y425500D02*X138790Y420500D01*
X88290Y422500D02*X138790Y417500D01*
X84490Y402500D02*X142590D01*
X84490D02*Y345500D01*
X138790Y436500D02*Y402500D01*
X88290Y431500D02*X138790Y426500D01*
X142590Y345500D02*X84490D01*
G54D118*X136956Y312193D02*X119044D01*
X123079Y307831D02*X132921D01*
G54D120*X142590Y402500D02*Y345500D01*
X91740Y485500D02*Y436500D01*
Y485500D02*X135340D01*
Y436500D01*
G54D118*X119044Y312193D02*Y323807D01*
X113956Y313307D02*Y301693D01*
X123079Y279484D02*Y307831D01*
X96044Y313307D02*X113956D01*
Y301693D02*X96044D01*
Y313307D01*
X100079Y264984D02*Y293331D01*
X109921D01*
X102638Y278173D02*X107362D01*
X102638Y280142D02*X107362D01*
X109921Y293331D02*Y264984D01*
X100079D01*
X105000Y273843D02*Y278173D01*
Y280142D02*Y284472D01*
G54D119*X118000Y230707D02*X122724D01*
X118000Y223227D02*X122724D01*
X118000Y215707D02*X122724D01*
X118000Y208227D02*X122724D01*
X118000Y200707D02*X122724D01*
X118000Y193227D02*X122724D01*
X118000Y245707D02*X122724D01*
X118000Y238227D02*X122724D01*
G54D118*X88577Y106331D02*Y179165D01*
X143695D01*
Y176213D01*
X116136Y144716D02*Y172276D01*
X145664Y179165D02*X147632D01*
Y177197D02*Y179165D01*
X149601Y172276D02*X116136D01*
X207956Y202807D02*Y191193D01*
X190044D01*
Y202807D01*
X143695Y106331D02*X88577D01*
X112199Y140779D02*X120073D01*
X112199Y144716D02*X120073D01*
X149601Y113220D02*X116136D01*
Y140779D02*Y113220D01*
X145664Y106331D02*X147632D01*
Y108299D01*
X193350Y168027D02*X211263D01*
Y156413D01*
X193350D02*Y168027D01*
X211263Y156413D02*X193350D01*
G54D122*X199627Y142626D02*X194127D01*
X199627Y144594D02*X195883D01*
X199627Y146563D02*X199267D01*
G54D118*X193350Y112027D02*X211263D01*
G54D122*X199627Y130815D02*X194127D01*
X199627Y128846D02*X195883D01*
X199627Y126878D02*X199267D01*
G54D118*X245307Y154070D02*X249307D01*
X212504D02*X216504D01*
X214504Y156070D02*Y152070D01*
G54D122*X227805Y159976D02*X222304D01*
X227805Y148165D02*X222304D01*
X227805Y146196D02*X224061D01*
X227805Y144228D02*X227445D01*
X227827Y127626D02*X222327D01*
X227827Y129594D02*X224083D01*
X227827Y131563D02*X227467D01*
G54D118*X211263Y112027D02*Y100413D01*
X212526Y121720D02*X216526D01*
X214526Y123720D02*Y119720D01*
G54D122*X227827Y113846D02*X224083D01*
X227827Y111878D02*X227467D01*
G54D118*X217129Y136720D02*X221129D01*
G54D122*X227805Y161944D02*X224061D01*
X227805Y163913D02*X227445D01*
G54D118*X245329Y121720D02*X249329D01*
G54D122*X227827Y115815D02*X222327D01*
G54D118*X211263Y100413D02*X193350D01*
Y112027D01*
X184326Y136720D02*X188326D01*
X186326Y138720D02*Y134720D01*
X147632Y164401D02*Y167354D01*
Y157512D02*Y160464D01*
Y150622D02*Y153575D01*
X143695Y168339D02*Y117157D01*
X147632Y138811D02*Y140779D01*
Y144716D02*Y146685D01*
Y118142D02*Y121094D01*
G54D119*X137905Y190227D02*X142629D01*
G54D118*X143695Y106331D02*Y109283D01*
X147632Y125031D02*Y127984D01*
Y131921D02*Y134874D01*
X253000Y445800D02*G75*G03X250500Y443300I0J-2500D01*G01*
X196000D02*G75*G03X193500Y445800I-2500J0D01*G01*
G75*G03X191000Y443300I0J-2500D01*G01*
X180500Y304000D02*G75*G03X180500Y309000I0J2500D01*G01*
X255500Y443300D02*G75*G03X253000Y445800I-2500J0D01*G01*
X304480Y218980D02*G75*G03X304480Y223980I0J2500D01*G01*
X274000Y303000D02*G75*G03X274000Y308000I0J2500D01*G01*
X143695Y117157D02*G75*G02X143695Y109283I0J-3937D01*G01*
Y176213D02*G75*G02X143695Y168339I0J-3937D01*G01*
X162000Y247000D02*G75*G03X172000Y247000I5000J0D01*G01*
X218504Y154070D02*G75*G03X243307Y154070I12402J0D01*G01*
G75*G03X218504Y154070I-12402J0D01*G01*
X218526Y121720D02*G75*G03X243329Y121720I12402J0D01*G01*
G75*G03X218526Y121720I-12402J0D01*G01*
X190326Y136720D02*G75*G03X215129Y136720I12402J0D01*G01*
G75*G03X190326Y136720I-12402J0D01*G01*
G54D123*X286500Y369700D02*Y371000D01*
X285800Y369000D02*X286500Y369700D01*
X283200Y369000D02*X285800D01*
X283200D02*X282500Y369700D01*
Y371000D01*
Y372200D02*X286500D01*
X282500Y374700D02*X286500D01*
X284500Y372200D02*Y374700D01*
X283500Y375900D02*X286500D01*
X283500D02*X282500Y376600D01*
Y377700D01*
X283500Y378400D01*
X286500D01*
X284500Y375900D02*Y378400D01*
X282500Y381600D02*X283000Y382100D01*
X282500Y380100D02*Y381600D01*
X283000Y379600D02*X282500Y380100D01*
X283000Y379600D02*X284000D01*
X284500Y380100D01*
Y381600D01*
X285000Y382100D01*
X286000D01*
X286500Y381600D02*X286000Y382100D01*
X286500Y380100D02*Y381600D01*
X286000Y379600D02*X286500Y380100D01*
X282500Y385300D02*X283000Y385800D01*
X282500Y383800D02*Y385300D01*
X283000Y383300D02*X282500Y383800D01*
X283000Y383300D02*X284000D01*
X284500Y383800D01*
Y385300D01*
X285000Y385800D01*
X286000D01*
X286500Y385300D02*X286000Y385800D01*
X286500Y383800D02*Y385300D01*
X286000Y383300D02*X286500Y383800D01*
X282500Y387000D02*Y388000D01*
Y387500D02*X286500D01*
Y387000D02*Y388000D01*
X282500Y391200D02*X283000Y391700D01*
X282500Y389700D02*Y391200D01*
X283000Y389200D02*X282500Y389700D01*
X283000Y389200D02*X284000D01*
X284500Y389700D01*
Y391200D01*
X285000Y391700D01*
X286000D01*
X286500Y391200D02*X286000Y391700D01*
X286500Y389700D02*Y391200D01*
X286000Y389200D02*X286500Y389700D01*
X322255Y332650D02*X324255D01*
X324755Y332150D01*
Y331150D01*
X324255Y330650D02*X324755Y331150D01*
X322755Y330650D02*X324255D01*
X322755Y332650D02*Y328650D01*
X323555Y330650D02*X324755Y328650D01*
X325955Y331850D02*X326755Y332650D01*
Y328650D01*
X325955D02*X327455D01*
X328655Y332150D02*X329155Y332650D01*
X330655D01*
X331155Y332150D01*
Y331150D01*
X328655Y328650D02*X331155Y331150D01*
X328655Y328650D02*X331155D01*
X339756Y335012D02*X341756D01*
X340756D02*Y331012D01*
X343457Y335012D02*Y331012D01*
X342957Y335012D02*X344957D01*
X345457Y334512D01*
Y333512D01*
X344957Y333012D02*X345457Y333512D01*
X343457Y333012D02*X344957D01*
X347157Y331012D02*X348657Y333012D01*
Y334512D02*Y333012D01*
X348157Y335012D02*X348657Y334512D01*
X347157Y335012D02*X348157D01*
X346657Y334512D02*X347157Y335012D01*
X346657Y334512D02*Y333512D01*
X347157Y333012D01*
X348657D01*
X307700Y337000D02*X309000D01*
X307000Y337700D02*X307700Y337000D01*
X307000Y340300D02*Y337700D01*
Y340300D02*X307700Y341000D01*
X309000D01*
X310200Y340500D02*Y337500D01*
Y340500D02*X310700Y341000D01*
X311700D01*
X312200Y340500D01*
Y337500D01*
X311700Y337000D02*X312200Y337500D01*
X310700Y337000D02*X311700D01*
X310200Y337500D02*X310700Y337000D01*
X313400Y341000D02*Y337000D01*
Y341000D02*X315900Y337000D01*
Y341000D02*Y337000D01*
X317100Y341000D02*Y337000D01*
Y341000D02*X319600Y337000D01*
Y341000D02*Y337000D01*
X320800Y340200D02*X321600Y341000D01*
Y337000D01*
X320800D02*X322300D01*
X323500Y337500D02*X324000Y337000D01*
X323500Y340500D02*Y337500D01*
Y340500D02*X324000Y341000D01*
X325000D01*
X325500Y340500D01*
Y337500D01*
X325000Y337000D02*X325500Y337500D01*
X324000Y337000D02*X325000D01*
X323500Y338000D02*X325500Y340000D01*
X352500Y334500D02*Y331500D01*
Y334500D02*X353000Y335000D01*
X354000D01*
X354500Y334500D01*
Y331500D01*
X354000Y331000D02*X354500Y331500D01*
X353000Y331000D02*X354000D01*
X352500Y331500D02*X353000Y331000D01*
X355700Y335000D02*Y331500D01*
X356200Y331000D01*
X357200D01*
X357700Y331500D01*
Y335000D02*Y331500D01*
X358900Y335000D02*X360900D01*
X359900D02*Y331000D01*
X269480Y256520D02*Y253520D01*
Y256520D02*X269980Y257020D01*
X270980D01*
X271480Y256520D01*
Y253520D01*
X270980Y253020D02*X271480Y253520D01*
X269980Y253020D02*X270980D01*
X269480Y253520D02*X269980Y253020D01*
X272681Y257020D02*Y253020D01*
Y257020D02*X274681D01*
X272681Y255220D02*X274181D01*
X275881Y257020D02*Y253020D01*
Y257020D02*X277881D01*
X275881Y255220D02*X277381D01*
X281081Y257020D02*X281581Y256520D01*
X279581Y257020D02*X281081D01*
X279081Y256520D02*X279581Y257020D01*
X279081Y256520D02*Y255520D01*
X279581Y255020D01*
X281081D01*
X281581Y254520D01*
Y253520D01*
X281081Y253020D02*X281581Y253520D01*
X279581Y253020D02*X281081D01*
X279081Y253520D02*X279581Y253020D01*
X282781Y255220D02*X284281D01*
X282781Y253020D02*X284781D01*
X282781Y257020D02*Y253020D01*
Y257020D02*X284781D01*
X285981D02*X287981D01*
X286981D02*Y253020D01*
X306500Y294700D02*X308000D01*
X306500Y292500D02*X308500D01*
X306500Y296500D02*Y292500D01*
Y296500D02*X308500D01*
X311200Y294500D02*X311700Y294000D01*
X310200Y294500D02*X311200D01*
X309700Y294000D02*X310200Y294500D01*
X309700Y294000D02*Y293000D01*
X310200Y292500D01*
X311700Y294500D02*Y293000D01*
X312200Y292500D01*
X310200D02*X311200D01*
X311700Y293000D01*
X313900Y296500D02*Y293000D01*
X314400Y292500D01*
X313400Y295000D02*X314400D01*
X315400Y294000D02*Y293000D01*
Y294000D02*X315900Y294500D01*
X316900D01*
X317400Y294000D01*
Y293000D01*
X316900Y292500D02*X317400Y293000D01*
X315900Y292500D02*X316900D01*
X315400Y293000D02*X315900Y292500D01*
X319100Y294000D02*Y292500D01*
Y294000D02*X319600Y294500D01*
X320100D01*
X320600Y294000D01*
Y292500D01*
X318600Y294500D02*X319100Y294000D01*
X324100Y296500D02*Y292500D01*
X323600Y296500D02*X325600D01*
X326100Y296000D01*
Y295000D01*
X325600Y294500D02*X326100Y295000D01*
X324100Y294500D02*X325600D01*
X327800Y292500D02*X329300D01*
X327300Y293000D02*X327800Y292500D01*
X327300Y294000D02*Y293000D01*
Y294000D02*X327800Y294500D01*
X328800D01*
X329300Y294000D01*
X327300Y293500D02*X329300D01*
Y294000D01*
X332000Y294500D02*X332500Y294000D01*
X331000Y294500D02*X332000D01*
X330500Y294000D02*X331000Y294500D01*
X330500Y294000D02*Y293000D01*
X331000Y292500D01*
X332500Y294500D02*Y293000D01*
X333000Y292500D01*
X331000D02*X332000D01*
X332500Y293000D01*
X334200Y296500D02*Y292500D01*
Y293000D02*X334700Y292500D01*
X335700D01*
X336200Y293000D01*
Y294000D02*Y293000D01*
X335700Y294500D02*X336200Y294000D01*
X334700Y294500D02*X335700D01*
X334200Y294000D02*X334700Y294500D01*
X337400Y294000D02*Y293000D01*
Y294000D02*X337900Y294500D01*
X338900D01*
X339400Y294000D01*
Y293000D01*
X338900Y292500D02*X339400Y293000D01*
X337900Y292500D02*X338900D01*
X337400Y293000D02*X337900Y292500D01*
X342600Y296500D02*Y292500D01*
X342100D02*X342600Y293000D01*
X341100Y292500D02*X342100D01*
X340600Y293000D02*X341100Y292500D01*
X340600Y294000D02*Y293000D01*
Y294000D02*X341100Y294500D01*
X342100D01*
X342600Y294000D01*
X343800Y294500D02*Y293000D01*
X344300Y292500D01*
X345800Y294500D02*Y291500D01*
X345300Y291000D02*X345800Y291500D01*
X344300Y291000D02*X345300D01*
X343800Y291500D02*X344300Y291000D01*
Y292500D02*X345300D01*
X345800Y293000D01*
X348800Y296500D02*Y292500D01*
X350800D01*
X353500Y294500D02*X354000Y294000D01*
X352500Y294500D02*X353500D01*
X352000Y294000D02*X352500Y294500D01*
X352000Y294000D02*Y293000D01*
X352500Y292500D01*
X354000Y294500D02*Y293000D01*
X354500Y292500D01*
X352500D02*X353500D01*
X354000Y293000D01*
X355700Y296500D02*Y292500D01*
Y293000D02*X356200Y292500D01*
X357200D01*
X357700Y293000D01*
Y294000D02*Y293000D01*
X357200Y294500D02*X357700Y294000D01*
X356200Y294500D02*X357200D01*
X355700Y294000D02*X356200Y294500D01*
X292850Y275050D02*Y276350D01*
X292150Y274350D02*X292850Y275050D01*
X289550Y274350D02*X292150D01*
X289550D02*X288850Y275050D01*
Y276350D01*
X289650Y277550D02*X288850Y278350D01*
X292850D01*
Y277550D02*Y279050D01*
X289350Y280250D02*X288850Y280750D01*
Y282250D01*
X289350Y282750D01*
X290350D01*
X292850Y280250D02*X290350Y282750D01*
X292850Y280250D02*Y282750D01*
X273256Y262512D02*X275256D01*
X274256D02*Y258512D01*
X276957Y262512D02*Y258512D01*
X276457Y262512D02*X278457D01*
X278957Y262012D01*
Y261012D01*
X278457Y260512D02*X278957Y261012D01*
X276957Y260512D02*X278457D01*
X280157Y262012D02*X280657Y262512D01*
X282157D01*
X282657Y262012D01*
Y261012D01*
X280157Y258512D02*X282657Y261012D01*
X280157Y258512D02*X282657D01*
X319700Y311000D02*X321000D01*
X319000Y311700D02*X319700Y311000D01*
X319000Y314300D02*Y311700D01*
Y314300D02*X319700Y315000D01*
X321000D01*
X322200Y314500D02*Y311500D01*
Y314500D02*X322700Y315000D01*
X323700D01*
X324200Y314500D01*
Y311500D01*
X323700Y311000D02*X324200Y311500D01*
X322700Y311000D02*X323700D01*
X322200Y311500D02*X322700Y311000D01*
X325400Y315000D02*Y311000D01*
Y315000D02*X327900Y311000D01*
Y315000D02*Y311000D01*
X329100Y315000D02*Y311000D01*
Y315000D02*X331600Y311000D01*
Y315000D02*Y311000D01*
X334300Y315000D02*X334800Y314500D01*
X333300Y315000D02*X334300D01*
X332800Y314500D02*X333300Y315000D01*
X332800Y314500D02*Y311500D01*
X333300Y311000D01*
X334300Y313200D02*X334800Y312700D01*
X332800Y313200D02*X334300D01*
X333300Y311000D02*X334300D01*
X334800Y311500D01*
Y312700D02*Y311500D01*
X336000Y314200D02*X336800Y315000D01*
Y311000D01*
X336000D02*X337500D01*
X263000Y361500D02*X262500Y362000D01*
X264500Y361500D02*X263000D01*
X265000Y362000D02*X264500Y361500D01*
X265000Y362000D02*Y363000D01*
X264500Y363500D01*
X263000D01*
X262500Y364000D01*
Y365000D01*
X263000Y365500D02*X262500Y365000D01*
X264500Y365500D02*X263000D01*
X265000Y365000D02*X264500Y365500D01*
X261300Y362300D02*X260500Y361500D01*
Y365500D01*
X261300D02*X259800D01*
X258600Y365000D02*X258100Y365500D01*
X258600Y362000D02*Y365000D01*
Y362000D02*X258100Y361500D01*
X257100D01*
X256600Y362000D01*
Y365000D01*
X257100Y365500D02*X256600Y365000D01*
X258100Y365500D02*X257100D01*
X258600Y364500D02*X256600Y362500D01*
X257424Y327989D02*X258724D01*
X256724Y328689D02*X257424Y327989D01*
X256724Y331289D02*Y328689D01*
Y331289D02*X257424Y331989D01*
X258724D01*
X259924Y331189D02*X260724Y331989D01*
Y327989D01*
X259924D02*X261424D01*
X262624Y331989D02*X264624D01*
X262624D02*Y329989D01*
X263124Y330489D01*
X264124D01*
X264624Y329989D01*
Y328489D01*
X264124Y327989D02*X264624Y328489D01*
X263124Y327989D02*X264124D01*
X262624Y328489D02*X263124Y327989D01*
X275850Y333050D02*Y334350D01*
X275150Y332350D02*X275850Y333050D01*
X272550Y332350D02*X275150D01*
X272550D02*X271850Y333050D01*
Y334350D01*
X272650Y335550D02*X271850Y336350D01*
X275850D01*
Y335550D02*Y337050D01*
X272650Y338250D02*X271850Y339050D01*
X275850D01*
Y338250D02*Y339750D01*
X231690Y342998D02*X233690D01*
X234190Y342498D01*
Y341498D01*
X233690Y340998D02*X234190Y341498D01*
X232190Y340998D02*X233690D01*
X232190Y342998D02*Y338998D01*
X232990Y340998D02*X234190Y338998D01*
X235390Y342198D02*X236190Y342998D01*
Y338998D01*
X235390D02*X236890D01*
X238090Y342198D02*X238890Y342998D01*
Y338998D01*
X238090D02*X239590D01*
X203500Y361500D02*X203000Y362000D01*
X205000Y361500D02*X203500D01*
X205500Y362000D02*X205000Y361500D01*
X205500Y362000D02*Y363000D01*
X205000Y363500D01*
X203500D01*
X203000Y364000D01*
Y365000D01*
X203500Y365500D02*X203000Y365000D01*
X205000Y365500D02*X203500D01*
X205500Y365000D02*X205000Y365500D01*
X200300Y361500D02*X199800Y362000D01*
X201300Y361500D02*X200300D01*
X201800Y362000D02*X201300Y361500D01*
X201800Y362000D02*Y365000D01*
X201300Y365500D01*
X200300Y363300D02*X199800Y363800D01*
X201800Y363300D02*X200300D01*
X201300Y365500D02*X200300D01*
X199800Y365000D01*
Y363800D02*Y365000D01*
X198600D02*X198100Y365500D01*
X198600Y362000D02*Y365000D01*
Y362000D02*X198100Y361500D01*
X197100D01*
X196600Y362000D01*
Y365000D01*
X197100Y365500D02*X196600Y365000D01*
X198100Y365500D02*X197100D01*
X198600Y364500D02*X196600Y362500D01*
X188633Y328355D02*Y329655D01*
X187933Y327655D02*X188633Y328355D01*
X185333Y327655D02*X187933D01*
X185333D02*X184633Y328355D01*
Y329655D01*
Y332355D02*X185133Y332855D01*
X184633Y331355D02*Y332355D01*
X185133Y330855D02*X184633Y331355D01*
X185133Y330855D02*X188133D01*
X188633Y331355D01*
X186433Y332355D02*X186933Y332855D01*
X186433Y330855D02*Y332355D01*
X188633Y331355D02*Y332355D01*
X188133Y332855D01*
X186933D02*X188133D01*
X185433Y334055D02*X184633Y334855D01*
X188633D01*
Y334055D02*Y335555D01*
X197116Y327437D02*Y329437D01*
X197616Y329937D01*
X198616D01*
X199116Y329437D02*X198616Y329937D01*
X199116Y327937D02*Y329437D01*
X197116Y327937D02*X201116D01*
X199116Y328737D02*X201116Y329937D01*
X197116Y332637D02*X197616Y333137D01*
X197116Y331637D02*Y332637D01*
X197616Y331137D02*X197116Y331637D01*
X197616Y331137D02*X200616D01*
X201116Y331637D01*
X198916Y332637D02*X199416Y333137D01*
X198916Y331137D02*Y332637D01*
X201116Y331637D02*Y332637D01*
X200616Y333137D01*
X199416D02*X200616D01*
X197616Y334337D02*X197116Y334837D01*
Y335837D01*
X197616Y336337D01*
X201116Y335837D02*X200616Y336337D01*
X201116Y334837D02*Y335837D01*
X200616Y334337D02*X201116Y334837D01*
X198916D02*Y335837D01*
X197616Y336337D02*X198416D01*
X199416D02*X200616D01*
X199416D02*X198916Y335837D01*
X198416Y336337D02*X198916Y335837D01*
X281000Y373200D02*Y374500D01*
X280300Y372500D02*X281000Y373200D01*
X277700Y372500D02*X280300D01*
X277700D02*X277000Y373200D01*
Y374500D01*
X277500Y375700D02*X280500D01*
X277500D02*X277000Y376200D01*
Y377200D01*
X277500Y377700D01*
X280500D01*
X281000Y377200D02*X280500Y377700D01*
X281000Y376200D02*Y377200D01*
X280500Y375700D02*X281000Y376200D01*
X277000Y378900D02*X281000D01*
X277000D02*X281000Y381400D01*
X277000D02*X281000D01*
X277000Y382600D02*X281000D01*
X277000D02*X281000Y385100D01*
X277000D02*X281000D01*
X277000Y386300D02*Y388300D01*
Y386300D02*X279000D01*
X278500Y386800D01*
Y387800D01*
X279000Y388300D01*
X280500D01*
X281000Y387800D02*X280500Y388300D01*
X281000Y386800D02*Y387800D01*
X280500Y386300D02*X281000Y386800D01*
X238350Y295050D02*Y296350D01*
X237650Y294350D02*X238350Y295050D01*
X235050Y294350D02*X237650D01*
X235050D02*X234350Y295050D01*
Y296350D01*
Y299050D02*X234850Y299550D01*
X234350Y298050D02*Y299050D01*
X234850Y297550D02*X234350Y298050D01*
X234850Y297550D02*X237850D01*
X238350Y298050D01*
X236150Y299050D02*X236650Y299550D01*
X236150Y297550D02*Y299050D01*
X238350Y298050D02*Y299050D01*
X237850Y299550D01*
X236650D02*X237850D01*
X234350Y300750D02*Y302750D01*
Y300750D02*X236350D01*
X235850Y301250D01*
Y302250D01*
X236350Y302750D01*
X237850D01*
X238350Y302250D02*X237850Y302750D01*
X238350Y301250D02*Y302250D01*
X237850Y300750D02*X238350Y301250D01*
X214519Y317330D02*X215819D01*
X213819Y318030D02*X214519Y317330D01*
X213819Y320630D02*Y318030D01*
Y320630D02*X214519Y321330D01*
X215819D01*
X218519D02*X219019Y320830D01*
X217519Y321330D02*X218519D01*
X217019Y320830D02*X217519Y321330D01*
X217019Y320830D02*Y317830D01*
X217519Y317330D01*
X218519Y319530D02*X219019Y319030D01*
X217019Y319530D02*X218519D01*
X217519Y317330D02*X218519D01*
X219019Y317830D01*
Y319030D02*Y317830D01*
X220219Y320830D02*X220719Y321330D01*
X221719D01*
X222219Y320830D01*
X221719Y317330D02*X222219Y317830D01*
X220719Y317330D02*X221719D01*
X220219Y317830D02*X220719Y317330D01*
Y319530D02*X221719D01*
X222219Y320830D02*Y320030D01*
Y319030D02*Y317830D01*
Y319030D02*X221719Y319530D01*
X222219Y320030D02*X221719Y319530D01*
X214455Y300150D02*X215755D01*
X213755Y300850D02*X214455Y300150D01*
X213755Y303450D02*Y300850D01*
Y303450D02*X214455Y304150D01*
X215755D01*
X218455D02*X218955Y303650D01*
X217455Y304150D02*X218455D01*
X216955Y303650D02*X217455Y304150D01*
X216955Y303650D02*Y300650D01*
X217455Y300150D01*
X218455Y302350D02*X218955Y301850D01*
X216955Y302350D02*X218455D01*
X217455Y300150D02*X218455D01*
X218955Y300650D01*
Y301850D02*Y300650D01*
X220155Y301650D02*X222155Y304150D01*
X220155Y301650D02*X222655D01*
X222155Y304150D02*Y300150D01*
X268500Y301500D02*X272000D01*
X272500Y302000D01*
Y303000D01*
X272000Y303500D01*
X268500D02*X272000D01*
X269300Y304700D02*X268500Y305500D01*
X272500D01*
Y304700D02*Y306200D01*
X272000Y307400D02*X272500Y307900D01*
X269000Y307400D02*X272000D01*
X269000D02*X268500Y307900D01*
Y308900D01*
X269000Y309400D01*
X272000D01*
X272500Y308900D02*X272000Y309400D01*
X272500Y307900D02*Y308900D01*
X271500Y307400D02*X269500Y309400D01*
X255850Y319150D02*X257850D01*
X258350Y318650D01*
Y317650D01*
X257850Y317150D02*X258350Y317650D01*
X256350Y317150D02*X257850D01*
X256350Y319150D02*Y315150D01*
X257150Y317150D02*X258350Y315150D01*
X259550Y318350D02*X260350Y319150D01*
Y315150D01*
X259550D02*X261050D01*
X262250Y315650D02*X262750Y315150D01*
X262250Y318650D02*Y315650D01*
Y318650D02*X262750Y319150D01*
X263750D01*
X264250Y318650D01*
Y315650D01*
X263750Y315150D02*X264250Y315650D01*
X262750Y315150D02*X263750D01*
X262250Y316150D02*X264250Y318150D01*
X257397Y301566D02*X258697D01*
X256697Y302266D02*X257397Y301566D01*
X256697Y304866D02*Y302266D01*
Y304866D02*X257397Y305566D01*
X258697D01*
X259897Y304766D02*X260697Y305566D01*
Y301566D01*
X259897D02*X261397D01*
X262597Y302066D02*X263097Y301566D01*
X262597Y305066D02*Y302066D01*
Y305066D02*X263097Y305566D01*
X264097D01*
X264597Y305066D01*
Y302066D01*
X264097Y301566D02*X264597Y302066D01*
X263097Y301566D02*X264097D01*
X262597Y302566D02*X264597Y304566D01*
X249200Y271000D02*X250500D01*
X248500Y271700D02*X249200Y271000D01*
X248500Y274300D02*Y271700D01*
Y274300D02*X249200Y275000D01*
X250500D01*
X251700Y274500D02*Y271500D01*
Y274500D02*X252200Y275000D01*
X253200D01*
X253700Y274500D01*
Y271500D01*
X253200Y271000D02*X253700Y271500D01*
X252200Y271000D02*X253200D01*
X251700Y271500D02*X252200Y271000D01*
X254900Y275000D02*Y271000D01*
Y275000D02*X257400Y271000D01*
Y275000D02*Y271000D01*
X258600Y275000D02*Y271000D01*
Y275000D02*X261100Y271000D01*
Y275000D02*Y271000D01*
X263800Y275000D02*X264300Y274500D01*
X262800Y275000D02*X263800D01*
X262300Y274500D02*X262800Y275000D01*
X262300Y274500D02*Y271500D01*
X262800Y271000D01*
X263800Y273200D02*X264300Y272700D01*
X262300Y273200D02*X263800D01*
X262800Y271000D02*X263800D01*
X264300Y271500D01*
Y272700D02*Y271500D01*
X265500Y274500D02*X266000Y275000D01*
X267000D01*
X267500Y274500D01*
X267000Y271000D02*X267500Y271500D01*
X266000Y271000D02*X267000D01*
X265500Y271500D02*X266000Y271000D01*
Y273200D02*X267000D01*
X267500Y274500D02*Y273700D01*
Y272700D02*Y271500D01*
Y272700D02*X267000Y273200D01*
X267500Y273700D02*X267000Y273200D01*
X192504Y273482D02*Y275482D01*
X193004Y275982D01*
X194004D01*
X194504Y275482D02*X194004Y275982D01*
X194504Y273982D02*Y275482D01*
X192504Y273982D02*X196504D01*
X194504Y274782D02*X196504Y275982D01*
X192504Y278682D02*X193004Y279182D01*
X192504Y277682D02*Y278682D01*
X193004Y277182D02*X192504Y277682D01*
X193004Y277182D02*X196004D01*
X196504Y277682D01*
X194304Y278682D02*X194804Y279182D01*
X194304Y277182D02*Y278682D01*
X196504Y277682D02*Y278682D01*
X196004Y279182D01*
X194804D02*X196004D01*
X192504Y280382D02*Y282382D01*
Y280382D02*X194504D01*
X194004Y280882D01*
Y281882D01*
X194504Y282382D01*
X196004D01*
X196504Y281882D02*X196004Y282382D01*
X196504Y280882D02*Y281882D01*
X196004Y280382D02*X196504Y280882D01*
X219700Y271000D02*X221000D01*
X219000Y271700D02*X219700Y271000D01*
X219000Y274300D02*Y271700D01*
Y274300D02*X219700Y275000D01*
X221000D01*
X222200Y274500D02*Y271500D01*
Y274500D02*X222700Y275000D01*
X223700D01*
X224200Y274500D01*
Y271500D01*
X223700Y271000D02*X224200Y271500D01*
X222700Y271000D02*X223700D01*
X222200Y271500D02*X222700Y271000D01*
X225400Y275000D02*Y271000D01*
Y275000D02*X227900Y271000D01*
Y275000D02*Y271000D01*
X229100Y275000D02*Y271000D01*
Y275000D02*X231600Y271000D01*
Y275000D02*Y271000D01*
X234300Y275000D02*X234800Y274500D01*
X233300Y275000D02*X234300D01*
X232800Y274500D02*X233300Y275000D01*
X232800Y274500D02*Y271500D01*
X233300Y271000D01*
X234300Y273200D02*X234800Y272700D01*
X232800Y273200D02*X234300D01*
X233300Y271000D02*X234300D01*
X234800Y271500D01*
Y272700D02*Y271500D01*
X236000D02*X236500Y271000D01*
X236000Y274500D02*Y271500D01*
Y274500D02*X236500Y275000D01*
X237500D01*
X238000Y274500D01*
Y271500D01*
X237500Y271000D02*X238000Y271500D01*
X236500Y271000D02*X237500D01*
X236000Y272000D02*X238000Y274000D01*
X192480Y209020D02*X192980Y208520D01*
X190980Y209020D02*X192480D01*
X190480Y208520D02*X190980Y209020D01*
X190480Y208520D02*Y207520D01*
X190980Y207020D01*
X192480D01*
X192980Y206520D01*
Y205520D01*
X192480Y205020D02*X192980Y205520D01*
X190980Y205020D02*X192480D01*
X190480Y205520D02*X190980Y205020D01*
X194181Y209020D02*Y205020D01*
Y209020D02*X195681Y207020D01*
X197181Y209020D01*
Y205020D01*
X198381Y208020D02*Y205020D01*
Y208020D02*X199081Y209020D01*
X200181D01*
X200881Y208020D01*
Y205020D01*
X198381Y207020D02*X200881D01*
X202081Y209020D02*Y205020D01*
X204081D01*
X205281Y209020D02*Y205020D01*
X207281D01*
X262720Y217925D02*Y219225D01*
X262020Y217225D02*X262720Y217925D01*
X259420Y217225D02*X262020D01*
X259420D02*X258720Y217925D01*
Y219225D01*
X259220Y220425D02*X258720Y220925D01*
Y222425D01*
X259220Y222925D01*
X260220D01*
X262720Y220425D02*X260220Y222925D01*
X262720Y220425D02*Y222925D01*
X262220Y224125D02*X262720Y224625D01*
X259220Y224125D02*X262220D01*
X259220D02*X258720Y224625D01*
Y225625D01*
X259220Y226125D01*
X262220D01*
X262720Y225625D02*X262220Y226125D01*
X262720Y224625D02*Y225625D01*
X261720Y224125D02*X259720Y226125D01*
X209722Y237617D02*X211022D01*
X209022Y238317D02*X209722Y237617D01*
X209022Y240917D02*Y238317D01*
Y240917D02*X209722Y241617D01*
X211022D01*
X212222Y239117D02*X214222Y241617D01*
X212222Y239117D02*X214722D01*
X214222Y241617D02*Y237617D01*
X215922Y239117D02*X217922Y241617D01*
X215922Y239117D02*X218422D01*
X217922Y241617D02*Y237617D01*
X209722Y222617D02*X211022D01*
X209022Y223317D02*X209722Y222617D01*
X209022Y225917D02*Y223317D01*
Y225917D02*X209722Y226617D01*
X211022D01*
X212222Y224117D02*X214222Y226617D01*
X212222Y224117D02*X214722D01*
X214222Y226617D02*Y222617D01*
X215922Y226117D02*X216422Y226617D01*
X217922D01*
X218422Y226117D01*
Y225117D01*
X215922Y222617D02*X218422Y225117D01*
X215922Y222617D02*X218422D01*
X194256Y214512D02*X196256D01*
X195256D02*Y210512D01*
X197957Y214512D02*Y210512D01*
X197457Y214512D02*X199457D01*
X199957Y214012D01*
Y213012D01*
X199457Y212512D02*X199957Y213012D01*
X197957Y212512D02*X199457D01*
X201157Y213712D02*X201957Y214512D01*
Y210512D01*
X201157D02*X202657D01*
X306500Y276500D02*X307000Y277000D01*
X308500D01*
X309000Y276500D01*
Y275500D01*
X306500Y273000D02*X309000Y275500D01*
X306500Y273000D02*X309000D01*
X310200Y273500D02*X310700Y273000D01*
X310200Y276500D02*Y273500D01*
Y276500D02*X310700Y277000D01*
X311700D01*
X312200Y276500D01*
Y273500D01*
X311700Y273000D02*X312200Y273500D01*
X310700Y273000D02*X311700D01*
X310200Y274000D02*X312200Y276000D01*
X313400Y276500D02*X313900Y277000D01*
X315400D01*
X315900Y276500D01*
Y275500D01*
X313400Y273000D02*X315900Y275500D01*
X313400Y273000D02*X315900D01*
X317100Y273500D02*X317600Y273000D01*
X317100Y276500D02*Y273500D01*
Y276500D02*X317600Y277000D01*
X318600D01*
X319100Y276500D01*
Y273500D01*
X318600Y273000D02*X319100Y273500D01*
X317600Y273000D02*X318600D01*
X317100Y274000D02*X319100Y276000D01*
X320300Y273000D02*X320800D01*
X322000Y273500D02*X322500Y273000D01*
X322000Y276500D02*Y273500D01*
Y276500D02*X322500Y277000D01*
X323500D01*
X324000Y276500D01*
Y273500D01*
X323500Y273000D02*X324000Y273500D01*
X322500Y273000D02*X323500D01*
X322000Y274000D02*X324000Y276000D01*
X325700Y273000D02*X327200Y275000D01*
Y276500D02*Y275000D01*
X326700Y277000D02*X327200Y276500D01*
X325700Y277000D02*X326700D01*
X325200Y276500D02*X325700Y277000D01*
X325200Y276500D02*Y275500D01*
X325700Y275000D01*
X327200D01*
X328400Y273000D02*X328900D01*
X330100Y273500D02*X330600Y273000D01*
X330100Y276500D02*Y273500D01*
Y276500D02*X330600Y277000D01*
X331600D01*
X332100Y276500D01*
Y273500D01*
X331600Y273000D02*X332100Y273500D01*
X330600Y273000D02*X331600D01*
X330100Y274000D02*X332100Y276000D01*
X333300Y273500D02*X333800Y273000D01*
X333300Y274300D02*Y273500D01*
Y274300D02*X334000Y275000D01*
X334600D01*
X335300Y274300D01*
Y273500D01*
X334800Y273000D02*X335300Y273500D01*
X333800Y273000D02*X334800D01*
X333300Y275700D02*X334000Y275000D01*
X333300Y276500D02*Y275700D01*
Y276500D02*X333800Y277000D01*
X334800D01*
X335300Y276500D01*
Y275700D01*
X334600Y275000D02*X335300Y275700D01*
X298480Y216980D02*X301980D01*
X302480Y217480D01*
Y218480D01*
X301980Y218980D01*
X298480D02*X301980D01*
X298980Y220181D02*X298480Y220681D01*
Y222181D01*
X298980Y222681D01*
X299980D01*
X302480Y220181D02*X299980Y222681D01*
X302480Y220181D02*Y222681D01*
X301980Y223881D02*X302480Y224381D01*
X298980Y223881D02*X301980D01*
X298980D02*X298480Y224381D01*
Y225381D01*
X298980Y225881D01*
X301980D01*
X302480Y225381D02*X301980Y225881D01*
X302480Y224381D02*Y225381D01*
X301480Y223881D02*X299480Y225881D01*
X314054Y251222D02*X315354D01*
X313354Y251922D02*X314054Y251222D01*
X313354Y254522D02*Y251922D01*
Y254522D02*X314054Y255222D01*
X315354D01*
X316554Y254722D02*X317054Y255222D01*
X318554D01*
X319054Y254722D01*
Y253722D01*
X316554Y251222D02*X319054Y253722D01*
X316554Y251222D02*X319054D01*
X320254Y254422D02*X321054Y255222D01*
Y251222D01*
X320254D02*X321754D01*
X306500Y290000D02*Y286000D01*
Y290000D02*X308000Y288000D01*
X309500Y290000D01*
Y286000D01*
X310700Y287500D02*Y286500D01*
Y287500D02*X311200Y288000D01*
X312200D01*
X312700Y287500D01*
Y286500D01*
X312200Y286000D02*X312700Y286500D01*
X311200Y286000D02*X312200D01*
X310700Y286500D02*X311200Y286000D01*
X315900Y290000D02*Y286000D01*
X315400D02*X315900Y286500D01*
X314400Y286000D02*X315400D01*
X313900Y286500D02*X314400Y286000D01*
X313900Y287500D02*Y286500D01*
Y287500D02*X314400Y288000D01*
X315400D01*
X315900Y287500D01*
X317600Y286000D02*X319100D01*
X317100Y286500D02*X317600Y286000D01*
X317100Y287500D02*Y286500D01*
Y287500D02*X317600Y288000D01*
X318600D01*
X319100Y287500D01*
X317100Y287000D02*X319100D01*
Y287500D01*
X320300Y290000D02*Y286500D01*
X320800Y286000D01*
X321800Y288500D02*X322300D01*
X321800Y287500D02*X322300D01*
X325300Y286000D02*X327300D01*
X327800Y286500D01*
Y287700D02*Y286500D01*
X327300Y288200D02*X327800Y287700D01*
X325800Y288200D02*X327300D01*
X325800Y290000D02*Y286000D01*
X325300Y290000D02*X327300D01*
X327800Y289500D01*
Y288700D01*
X327300Y288200D02*X327800Y288700D01*
X329000Y289000D02*Y288900D01*
Y287500D02*Y286000D01*
X330000Y287500D02*Y286500D01*
Y287500D02*X330500Y288000D01*
X331500D01*
X332000Y287500D01*
Y286500D01*
X331500Y286000D02*X332000Y286500D01*
X330500Y286000D02*X331500D01*
X330000Y286500D02*X330500Y286000D01*
X333200Y289000D02*Y286000D01*
Y289000D02*X333900Y290000D01*
X335000D01*
X335700Y289000D01*
Y286000D01*
X333200Y288000D02*X335700D01*
X337400Y287500D02*Y286000D01*
Y287500D02*X337900Y288000D01*
X338400D01*
X338900Y287500D01*
Y286000D01*
Y287500D02*X339400Y288000D01*
X339900D01*
X340400Y287500D01*
Y286000D01*
X336900Y288000D02*X337400Y287500D01*
X342100D02*Y284500D01*
X341600Y288000D02*X342100Y287500D01*
X342600Y288000D01*
X343600D01*
X344100Y287500D01*
Y286500D01*
X343600Y286000D02*X344100Y286500D01*
X342600Y286000D02*X343600D01*
X342100Y286500D02*X342600Y286000D01*
X306500Y279500D02*X308500D01*
X309000Y280000D01*
Y281200D02*Y280000D01*
X308500Y281700D02*X309000Y281200D01*
X307000Y281700D02*X308500D01*
X307000Y283500D02*Y279500D01*
X306500Y283500D02*X308500D01*
X309000Y283000D01*
Y282200D01*
X308500Y281700D02*X309000Y282200D01*
X310200Y281500D02*Y280000D01*
X310700Y279500D01*
X312200Y281500D02*Y278500D01*
X311700Y278000D02*X312200Y278500D01*
X310700Y278000D02*X311700D01*
X310200Y278500D02*X310700Y278000D01*
Y279500D02*X311700D01*
X312200Y280000D01*
X315200Y281700D02*X316700D01*
X315200Y279500D02*X317200D01*
X315200Y283500D02*Y279500D01*
Y283500D02*X317200D01*
X318400Y281500D02*X319400Y279500D01*
X320400Y281500D02*X319400Y279500D01*
X323100Y281500D02*X323600Y281000D01*
X322100Y281500D02*X323100D01*
X321600Y281000D02*X322100Y281500D01*
X321600Y281000D02*Y280000D01*
X322100Y279500D01*
X323600Y281500D02*Y280000D01*
X324100Y279500D01*
X322100D02*X323100D01*
X323600Y280000D01*
X325800Y281000D02*Y279500D01*
Y281000D02*X326300Y281500D01*
X326800D01*
X327300Y281000D01*
Y279500D01*
X325300Y281500D02*X325800Y281000D01*
X330300Y283500D02*Y279500D01*
Y283500D02*X332300D01*
X330300Y281700D02*X331800D01*
X333500Y281000D02*Y280000D01*
Y281000D02*X334000Y281500D01*
X335000D01*
X335500Y281000D01*
Y280000D01*
X335000Y279500D02*X335500Y280000D01*
X334000Y279500D02*X335000D01*
X333500Y280000D02*X334000Y279500D01*
X337200D02*X338700D01*
X339200Y280000D01*
X338700Y280500D02*X339200Y280000D01*
X337200Y280500D02*X338700D01*
X336700Y281000D02*X337200Y280500D01*
X336700Y281000D02*X337200Y281500D01*
X338700D01*
X339200Y281000D01*
X336700Y280000D02*X337200Y279500D01*
X340900D02*X342400D01*
X342900Y280000D01*
X342400Y280500D02*X342900Y280000D01*
X340900Y280500D02*X342400D01*
X340400Y281000D02*X340900Y280500D01*
X340400Y281000D02*X340900Y281500D01*
X342400D01*
X342900Y281000D01*
X340400Y280000D02*X340900Y279500D01*
X333830Y217530D02*Y218830D01*
X333130Y216830D02*X333830Y217530D01*
X330530Y216830D02*X333130D01*
X330530D02*X329830Y217530D01*
Y218830D01*
X330330Y220031D02*X329830Y220531D01*
Y222031D01*
X330330Y222531D01*
X331330D01*
X333830Y220031D02*X331330Y222531D01*
X333830Y220031D02*Y222531D01*
X330330Y223731D02*X329830Y224231D01*
Y225231D01*
X330330Y225731D01*
X333830Y225231D02*X333330Y225731D01*
X333830Y224231D02*Y225231D01*
X333330Y223731D02*X333830Y224231D01*
X331630D02*Y225231D01*
X330330Y225731D02*X331130D01*
X332130D02*X333330D01*
X332130D02*X331630Y225231D01*
X331130Y225731D02*X331630Y225231D01*
X204826Y172070D02*X206826D01*
X208026Y174070D02*X209026Y170070D01*
X210026Y174070D01*
X199326Y116070D02*X201326D01*
X200326Y117070D02*Y115070D01*
X202526Y118070D02*X203526Y114070D01*
X204526Y118070D01*
X227137Y168070D02*X228437D01*
X226437Y168770D02*X227137Y168070D01*
X226437Y171370D02*Y168770D01*
Y171370D02*X227137Y172070D01*
X228437D01*
X229637Y171270D02*X230437Y172070D01*
Y168070D01*
X229637D02*X231137D01*
X232337Y171570D02*X232837Y172070D01*
X233837D01*
X234337Y171570D01*
X233837Y168070D02*X234337Y168570D01*
X232837Y168070D02*X233837D01*
X232337Y168570D02*X232837Y168070D01*
Y170270D02*X233837D01*
X234337Y171570D02*Y170770D01*
Y169770D02*Y168570D01*
Y169770D02*X233837Y170270D01*
X234337Y170770D02*X233837Y170270D01*
X227159Y135720D02*X228459D01*
X226459Y136420D02*X227159Y135720D01*
X226459Y139020D02*Y136420D01*
Y139020D02*X227159Y139720D01*
X228459D01*
X229659Y138920D02*X230459Y139720D01*
Y135720D01*
X229659D02*X231159D01*
X232359Y137220D02*X234359Y139720D01*
X232359Y137220D02*X234859D01*
X234359Y139720D02*Y135720D01*
X288851Y187275D02*Y189275D01*
X289351Y189775D01*
X290351D01*
X290851Y189275D02*X290351Y189775D01*
X290851Y187775D02*Y189275D01*
X288851Y187775D02*X292851D01*
X290851Y188575D02*X292851Y189775D01*
X289351Y190975D02*X288851Y191475D01*
Y192975D01*
X289351Y193475D01*
X290351D01*
X292851Y190975D02*X290351Y193475D01*
X292851Y190975D02*Y193475D01*
X289651Y194675D02*X288851Y195475D01*
X292851D01*
Y194675D02*Y196175D01*
X302924Y187091D02*Y189091D01*
X303424Y189591D01*
X304424D01*
X304924Y189091D02*X304424Y189591D01*
X304924Y187591D02*Y189091D01*
X302924Y187591D02*X306924D01*
X304924Y188391D02*X306924Y189591D01*
X303424Y190791D02*X302924Y191291D01*
Y192791D01*
X303424Y193291D01*
X304424D01*
X306924Y190791D02*X304424Y193291D01*
X306924Y190791D02*Y193291D01*
X306424Y194491D02*X306924Y194991D01*
X303424Y194491D02*X306424D01*
X303424D02*X302924Y194991D01*
Y195991D01*
X303424Y196491D01*
X306424D01*
X306924Y195991D02*X306424Y196491D01*
X306924Y194991D02*Y195991D01*
X305924Y194491D02*X303924Y196491D01*
X283300Y165000D02*X282000D01*
X284000Y164300D02*X283300Y165000D01*
X284000Y161700D02*Y164300D01*
Y161700D02*X283300Y161000D01*
X282000D01*
X280800Y161500D02*Y164500D01*
Y161500D02*X280300Y161000D01*
X279300D01*
X278800Y161500D01*
Y164500D01*
X279300Y165000D02*X278800Y164500D01*
X280300Y165000D02*X279300D01*
X280800Y164500D02*X280300Y165000D01*
X277600Y161000D02*Y165000D01*
Y161000D02*X275100Y165000D01*
Y161000D02*Y165000D01*
X273900Y161000D02*Y165000D01*
Y161000D02*X271400Y165000D01*
Y161000D02*Y165000D01*
X270200Y161800D02*X269400Y161000D01*
Y165000D01*
X270200D02*X268700D01*
X360500Y190500D02*X361000Y191000D01*
X360500Y189500D02*Y190500D01*
X361000Y189000D02*X360500Y189500D01*
X361000Y189000D02*X362000D01*
X362500Y189500D01*
X360500Y191000D02*X362000D01*
X362500Y191500D01*
Y189500D02*Y190500D01*
X362000Y191000D01*
X358500Y193200D02*X362000D01*
X362500Y193700D01*
X360000Y192700D02*Y193700D01*
X358500Y196500D02*X362500D01*
X361000D02*X360500Y197000D01*
Y198000D01*
X361000Y198500D01*
X362500D01*
X361000Y199700D02*X362000D01*
X361000D02*X360500Y200200D01*
Y201200D01*
X361000Y201700D01*
X362000D01*
X362500Y201200D02*X362000Y201700D01*
X362500Y200200D02*Y201200D01*
X362000Y199700D02*X362500Y200200D01*
X361000Y203400D02*X362500D01*
X361000D02*X360500Y203900D01*
Y204400D01*
X361000Y204900D01*
X362500D01*
X361000D02*X360500Y205400D01*
Y205900D01*
X361000Y206400D01*
X362500D01*
X360500Y202900D02*X361000Y203400D01*
X362500Y208100D02*Y209600D01*
X362000Y207600D02*X362500Y208100D01*
X361000Y207600D02*X362000D01*
X361000D02*X360500Y208100D01*
Y209100D01*
X361000Y209600D01*
X361500Y207600D02*Y209600D01*
X361000D01*
X362500Y210800D02*Y211300D01*
X358500Y214300D02*X362500D01*
X358500Y216800D02*X362500D01*
X360500Y214300D02*Y216800D01*
Y219500D02*X361000Y220000D01*
X360500Y218500D02*Y219500D01*
X361000Y218000D02*X360500Y218500D01*
X361000Y218000D02*X362000D01*
X362500Y218500D01*
X360500Y220000D02*X362000D01*
X362500Y220500D01*
Y218500D02*Y219500D01*
X362000Y220000D01*
X361000Y222200D02*X362500D01*
X361000D02*X360500Y222700D01*
Y223200D01*
X361000Y223700D01*
X362500D01*
X360500Y221700D02*X361000Y222200D01*
X360500Y226400D02*X361000Y226900D01*
X360500Y225400D02*Y226400D01*
X361000Y224900D02*X360500Y225400D01*
X361000Y224900D02*X362000D01*
X362500Y225400D01*
Y226400D01*
X362000Y226900D01*
X363500Y224900D02*X364000Y225400D01*
Y226400D01*
X363500Y226900D01*
X360500D02*X363500D01*
X359500Y229900D02*X359600D01*
X361000D02*X362500D01*
X361000Y231400D02*X362500D01*
X361000D02*X360500Y231900D01*
Y232400D01*
X361000Y232900D01*
X362500D01*
X360500Y230900D02*X361000Y231400D01*
X358500Y236400D02*X362000D01*
X362500Y236900D01*
X360000Y235900D02*Y236900D01*
X358500Y237900D02*X362500D01*
X361000D02*X360500Y238400D01*
Y239400D01*
X361000Y239900D01*
X362500D01*
Y241600D02*Y243100D01*
X362000Y241100D02*X362500Y241600D01*
X361000Y241100D02*X362000D01*
X361000D02*X360500Y241600D01*
Y242600D01*
X361000Y243100D01*
X361500Y241100D02*Y243100D01*
X361000D01*
Y244800D02*X362500D01*
X361000D02*X360500Y245300D01*
Y246300D01*
Y244300D02*X361000Y244800D01*
X362500Y248000D02*Y249500D01*
X362000Y247500D02*X362500Y248000D01*
X361000Y247500D02*X362000D01*
X361000D02*X360500Y248000D01*
Y249000D01*
X361000Y249500D01*
X361500Y247500D02*Y249500D01*
X361000D01*
X362500Y250700D02*Y251200D01*
X360500Y254200D02*Y256200D01*
X360300Y259200D02*Y260700D01*
X362500Y259200D02*Y261200D01*
X358500Y259200D02*X362500D01*
X358500D02*Y261200D01*
X360300Y262400D02*Y263900D01*
X362500Y262400D02*Y264400D01*
X358500Y262400D02*X362500D01*
X358500D02*Y264400D01*
Y265600D02*X362500D01*
X358500D02*Y267600D01*
X360300Y265600D02*Y267100D01*
X352000Y194500D02*X356000D01*
X352000Y195800D02*X352700Y196500D01*
X355300D01*
X356000Y195800D02*X355300Y196500D01*
X356000Y194000D02*Y195800D01*
X352000Y194000D02*Y195800D01*
X356000Y198200D02*Y199700D01*
X355500Y197700D02*X356000Y198200D01*
X354500Y197700D02*X355500D01*
X354500D02*X354000Y198200D01*
Y199200D01*
X354500Y199700D01*
X355000Y197700D02*Y199700D01*
X354500D01*
X356000Y201400D02*Y202900D01*
X355500Y203400D01*
X355000Y202900D02*X355500Y203400D01*
X355000Y201400D02*Y202900D01*
X354500Y200900D02*X355000Y201400D01*
X354500Y200900D02*X354000Y201400D01*
Y202900D01*
X354500Y203400D01*
X355500Y200900D02*X356000Y201400D01*
X353000Y204600D02*X353100D01*
X354500D02*X356000D01*
X354000Y207100D02*X354500Y207600D01*
X354000Y206100D02*Y207100D01*
X354500Y205600D02*X354000Y206100D01*
X354500Y205600D02*X355500D01*
X356000Y206100D01*
Y207100D01*
X355500Y207600D01*
X357000Y205600D02*X357500Y206100D01*
Y207100D01*
X357000Y207600D01*
X354000D02*X357000D01*
X354500Y209300D02*X356000D01*
X354500D02*X354000Y209800D01*
Y210300D01*
X354500Y210800D01*
X356000D01*
X354000Y208800D02*X354500Y209300D01*
X356000Y212500D02*Y214000D01*
X355500Y212000D02*X356000Y212500D01*
X354500Y212000D02*X355500D01*
X354500D02*X354000Y212500D01*
Y213500D01*
X354500Y214000D01*
X355000Y212000D02*Y214000D01*
X354500D01*
X352000Y217200D02*X356000D01*
Y216700D02*X355500Y217200D01*
X356000Y215700D02*Y216700D01*
X355500Y215200D02*X356000Y215700D01*
X354500Y215200D02*X355500D01*
X354500D02*X354000Y215700D01*
Y216700D01*
X354500Y217200D01*
X352000Y222200D02*X356000D01*
Y221700D02*X355500Y222200D01*
X356000Y220700D02*Y221700D01*
X355500Y220200D02*X356000Y220700D01*
X354500Y220200D02*X355500D01*
X354500D02*X354000Y220700D01*
Y221700D01*
X354500Y222200D01*
X354000Y223400D02*X355500D01*
X356000Y223900D01*
Y224900D01*
X355500Y225400D01*
X354000D02*X355500D01*
X354500Y227100D02*X356000D01*
X354500D02*X354000Y227600D01*
Y228600D01*
Y226600D02*X354500Y227100D01*
X353000Y229800D02*X353100D01*
X354500D02*X356000D01*
X354500Y231300D02*X356000D01*
X354500D02*X354000Y231800D01*
Y232300D01*
X354500Y232800D01*
X356000D01*
X354000Y230800D02*X354500Y231300D01*
X354000Y235500D02*X354500Y236000D01*
X354000Y234500D02*Y235500D01*
X354500Y234000D02*X354000Y234500D01*
X354500Y234000D02*X355500D01*
X356000Y234500D01*
Y235500D01*
X355500Y236000D01*
X357000Y234000D02*X357500Y234500D01*
Y235500D01*
X357000Y236000D01*
X354000D02*X357000D01*
X356000Y239700D02*Y241000D01*
X355300Y239000D02*X356000Y239700D01*
X352700Y239000D02*X355300D01*
X352700D02*X352000Y239700D01*
Y241000D01*
X352500Y242200D02*X355500D01*
X352500D02*X352000Y242700D01*
Y243700D01*
X352500Y244200D01*
X355500D01*
X356000Y243700D02*X355500Y244200D01*
X356000Y242700D02*Y243700D01*
X355500Y242200D02*X356000Y242700D01*
X352000Y245400D02*X356000Y246400D01*
X352000Y247400D01*
Y248600D02*Y249600D01*
Y249100D02*X356000D01*
Y248600D02*Y249600D01*
X352000Y251300D02*X356000D01*
X352000Y252600D02*X352700Y253300D01*
X355300D01*
X356000Y252600D02*X355300Y253300D01*
X356000Y250800D02*Y252600D01*
X352000Y250800D02*Y252600D01*
X354000Y254500D02*Y256500D01*
X352800Y257700D02*X352000Y258500D01*
X356000D01*
Y257700D02*Y259200D01*
Y260900D02*X354000Y262400D01*
X352500D02*X354000D01*
X352000Y261900D02*X352500Y262400D01*
X352000Y260900D02*Y261900D01*
X352500Y260400D02*X352000Y260900D01*
X352500Y260400D02*X353500D01*
X354000Y260900D01*
Y262400D01*
X326830Y191626D02*Y192926D01*
X326130Y190926D02*X326830Y191626D01*
X323530Y190926D02*X326130D01*
X323530D02*X322830Y191626D01*
Y192926D01*
X323330Y194126D02*X322830Y194626D01*
Y196126D01*
X323330Y196626D01*
X324330D01*
X326830Y194126D02*X324330Y196626D01*
X326830Y194126D02*Y196626D01*
X323330Y197826D02*X322830Y198326D01*
Y199826D01*
X323330Y200326D01*
X324330D01*
X326830Y197826D02*X324330Y200326D01*
X326830Y197826D02*Y200326D01*
X197563Y123232D02*X199563D01*
X198563D02*Y119232D01*
X201263Y123232D02*Y119232D01*
X200763Y123232D02*X202763D01*
X203263Y122732D01*
Y121732D01*
X202763Y121232D02*X203263Y121732D01*
X201263Y121232D02*X202763D01*
X205963Y123232D02*X206463Y122732D01*
X204963Y123232D02*X205963D01*
X204463Y122732D02*X204963Y123232D01*
X204463Y122732D02*Y119732D01*
X204963Y119232D01*
X205963Y121432D02*X206463Y120932D01*
X204463Y121432D02*X205963D01*
X204963Y119232D02*X205963D01*
X206463Y119732D01*
Y120932D02*Y119732D01*
X192563Y174232D02*X194563D01*
X193563D02*Y170232D01*
X196263Y174232D02*Y170232D01*
X195763Y174232D02*X197763D01*
X198263Y173732D01*
Y172732D01*
X197763Y172232D02*X198263Y172732D01*
X196263Y172232D02*X197763D01*
X199463Y170732D02*X199963Y170232D01*
X199463Y171532D02*Y170732D01*
Y171532D02*X200163Y172232D01*
X200763D01*
X201463Y171532D01*
Y170732D01*
X200963Y170232D02*X201463Y170732D01*
X199963Y170232D02*X200963D01*
X199463Y172932D02*X200163Y172232D01*
X199463Y173732D02*Y172932D01*
Y173732D02*X199963Y174232D01*
X200963D01*
X201463Y173732D01*
Y172932D01*
X200763Y172232D02*X201463Y172932D01*
X198959Y150720D02*X200259D01*
X198259Y151420D02*X198959Y150720D01*
X198259Y154020D02*Y151420D01*
Y154020D02*X198959Y154720D01*
X200259D01*
X201459Y152220D02*X203459Y154720D01*
X201459Y152220D02*X203959D01*
X203459Y154720D02*Y150720D01*
X205159Y151220D02*X205659Y150720D01*
X205159Y152020D02*Y151220D01*
Y152020D02*X205859Y152720D01*
X206459D01*
X207159Y152020D01*
Y151220D01*
X206659Y150720D02*X207159Y151220D01*
X205659Y150720D02*X206659D01*
X205159Y153420D02*X205859Y152720D01*
X205159Y154220D02*Y153420D01*
Y154220D02*X205659Y154720D01*
X206659D01*
X207159Y154220D01*
Y153420D01*
X206459Y152720D02*X207159Y153420D01*
X335300Y165000D02*X334000D01*
X336000Y164300D02*X335300Y165000D01*
X336000Y161700D02*Y164300D01*
Y161700D02*X335300Y161000D01*
X334000D01*
X332800Y161500D02*Y164500D01*
Y161500D02*X332300Y161000D01*
X331300D01*
X330800Y161500D01*
Y164500D01*
X331300Y165000D02*X330800Y164500D01*
X332300Y165000D02*X331300D01*
X332800Y164500D02*X332300Y165000D01*
X329600Y161000D02*Y165000D01*
Y161000D02*X327100Y165000D01*
Y161000D02*Y165000D01*
X325900Y161000D02*Y165000D01*
Y161000D02*X323400Y165000D01*
Y161000D02*Y165000D01*
X322200Y163500D02*X320200Y161000D01*
X322200Y163500D02*X319700D01*
X320200Y161000D02*Y165000D01*
X123256Y330012D02*X125256D01*
X124256D02*Y326012D01*
X126957Y330012D02*Y326012D01*
X126457Y330012D02*X128457D01*
X128957Y329512D01*
Y328512D01*
X128457Y328012D02*X128957Y328512D01*
X126957Y328012D02*X128457D01*
X130157Y327512D02*X132157Y330012D01*
X130157Y327512D02*X132657D01*
X132157Y330012D02*Y326012D01*
X100256Y319512D02*X102256D01*
X101256D02*Y315512D01*
X103957Y319512D02*Y315512D01*
X103457Y319512D02*X105457D01*
X105957Y319012D01*
Y318012D01*
X105457Y317512D02*X105957Y318012D01*
X103957Y317512D02*X105457D01*
X107157Y319512D02*X109157D01*
X107157D02*Y317512D01*
X107657Y318012D01*
X108657D01*
X109157Y317512D01*
Y316012D01*
X108657Y315512D02*X109157Y316012D01*
X107657Y315512D02*X108657D01*
X107157Y316012D02*X107657Y315512D01*
X86240Y339000D02*X87540D01*
X85540Y339700D02*X86240Y339000D01*
X85540Y342300D02*Y339700D01*
Y342300D02*X86240Y343000D01*
X87540D01*
X88740Y342500D02*Y339500D01*
Y342500D02*X89240Y343000D01*
X90240D01*
X90740Y342500D01*
Y339500D01*
X90240Y339000D02*X90740Y339500D01*
X89240Y339000D02*X90240D01*
X88740Y339500D02*X89240Y339000D01*
X91940Y343000D02*Y339000D01*
Y343000D02*X94440Y339000D01*
Y343000D02*Y339000D01*
X95640Y343000D02*Y339000D01*
Y343000D02*X98140Y339000D01*
Y343000D02*Y339000D01*
X99340Y340500D02*X101340Y343000D01*
X99340Y340500D02*X101840D01*
X101340Y343000D02*Y339000D01*
X103040Y339500D02*X103540Y339000D01*
X103040Y342500D02*Y339500D01*
Y342500D02*X103540Y343000D01*
X104540D01*
X105040Y342500D01*
Y339500D01*
X104540Y339000D02*X105040Y339500D01*
X103540Y339000D02*X104540D01*
X103040Y340000D02*X105040Y342000D01*
X97795Y277298D02*Y278598D01*
X97095Y276598D02*X97795Y277298D01*
X94495Y276598D02*X97095D01*
X94495D02*X93795Y277298D01*
Y278598D01*
X96295Y279798D02*X93795Y281798D01*
X96295Y279798D02*Y282298D01*
X93795Y281798D02*X97795D01*
X94595Y283498D02*X93795Y284298D01*
X97795D01*
Y283498D02*Y284998D01*
X120795Y291798D02*Y293098D01*
X120095Y291098D02*X120795Y291798D01*
X117495Y291098D02*X120095D01*
X117495D02*X116795Y291798D01*
Y293098D01*
X119295Y294298D02*X116795Y296298D01*
X119295Y294298D02*Y296798D01*
X116795Y296298D02*X120795D01*
X120295Y297998D02*X120795Y298498D01*
X117295Y297998D02*X120295D01*
X117295D02*X116795Y298498D01*
Y299498D01*
X117295Y299998D01*
X120295D01*
X120795Y299498D02*X120295Y299998D01*
X120795Y298498D02*Y299498D01*
X119795Y297998D02*X117795Y299998D01*
X179515Y273773D02*Y275773D01*
X180015Y276273D01*
X181015D01*
X181515Y275773D02*X181015Y276273D01*
X181515Y274273D02*Y275773D01*
X179515Y274273D02*X183515D01*
X181515Y275073D02*X183515Y276273D01*
X179515Y278973D02*X180015Y279473D01*
X179515Y277973D02*Y278973D01*
X180015Y277473D02*X179515Y277973D01*
X180015Y277473D02*X183015D01*
X183515Y277973D01*
X181315Y278973D02*X181815Y279473D01*
X181315Y277473D02*Y278973D01*
X183515Y277973D02*Y278973D01*
X183015Y279473D01*
X181815D02*X183015D01*
X180315Y280673D02*X179515Y281473D01*
X183515D01*
Y280673D02*Y282173D01*
X162117Y267617D02*X164117D01*
X164617Y267117D01*
Y266117D01*
X164117Y265617D02*X164617Y266117D01*
X162617Y265617D02*X164117D01*
X162617Y267617D02*Y263617D01*
X163417Y265617D02*X164617Y263617D01*
X165817Y265117D02*X167817Y267617D01*
X165817Y265117D02*X168317D01*
X167817Y267617D02*Y263617D01*
X169517Y266817D02*X170317Y267617D01*
Y263617D01*
X169517D02*X171017D01*
X162500Y253000D02*Y249500D01*
X163000Y249000D01*
X164000D01*
X164500Y249500D01*
Y253000D02*Y249500D01*
X165700Y250500D02*X167700Y253000D01*
X165700Y250500D02*X168200D01*
X167700Y253000D02*Y249000D01*
X169400Y249500D02*X169900Y249000D01*
X169400Y252500D02*Y249500D01*
Y252500D02*X169900Y253000D01*
X170900D01*
X171400Y252500D01*
Y249500D01*
X170900Y249000D02*X171400Y249500D01*
X169900Y249000D02*X170900D01*
X169400Y250000D02*X171400Y252000D01*
X174826Y134070D02*X175326Y133570D01*
X173326Y134070D02*X174826D01*
X172826Y133570D02*X173326Y134070D01*
X172826Y133570D02*Y130570D01*
X173326Y130070D01*
X174826D01*
X175326Y130570D01*
Y131570D02*Y130570D01*
X174826Y132070D02*X175326Y131570D01*
X173826Y132070D02*X174826D01*
X176526Y134070D02*Y130070D01*
Y134070D02*X179026Y130070D01*
Y134070D02*Y130070D01*
X180726Y134070D02*Y130070D01*
X182026Y134070D02*X182726Y133370D01*
Y130770D01*
X182026Y130070D02*X182726Y130770D01*
X180226Y130070D02*X182026D01*
X180226Y134070D02*X182026D01*
X154601Y140495D02*Y141795D01*
X153901Y139795D02*X154601Y140495D01*
X151301Y139795D02*X153901D01*
X151301D02*X150601Y140495D01*
Y141795D01*
X153101Y142995D02*X150601Y144995D01*
X153101Y142995D02*Y145495D01*
X150601Y144995D02*X154601D01*
Y147195D02*X152601Y148695D01*
X151101D02*X152601D01*
X150601Y148195D02*X151101Y148695D01*
X150601Y147195D02*Y148195D01*
X151101Y146695D02*X150601Y147195D01*
X151101Y146695D02*X152101D01*
X152601Y147195D01*
Y148695D01*
X173083Y139582D02*X175083D01*
X174083D02*Y135582D01*
X176783Y139582D02*Y135582D01*
X176283Y139582D02*X178283D01*
X178783Y139082D01*
Y138082D01*
X178283Y137582D02*X178783Y138082D01*
X176783Y137582D02*X178283D01*
X180483Y135582D02*X182483Y139582D01*
X179983D02*X182483D01*
X115212Y236617D02*X117212D01*
X117712Y236117D01*
Y235117D01*
X117212Y234617D02*X117712Y235117D01*
X115712Y234617D02*X117212D01*
X115712Y236617D02*Y232617D01*
X116512Y234617D02*X117712Y232617D01*
X118912Y234117D02*X120912Y236617D01*
X118912Y234117D02*X121412D01*
X120912Y236617D02*Y232617D01*
X122612Y236117D02*X123112Y236617D01*
X124112D01*
X124612Y236117D01*
X124112Y232617D02*X124612Y233117D01*
X123112Y232617D02*X124112D01*
X122612Y233117D02*X123112Y232617D01*
Y234817D02*X124112D01*
X124612Y236117D02*Y235317D01*
Y234317D02*Y233117D01*
Y234317D02*X124112Y234817D01*
X124612Y235317D02*X124112Y234817D01*
X115212Y251617D02*X117212D01*
X117712Y251117D01*
Y250117D01*
X117212Y249617D02*X117712Y250117D01*
X115712Y249617D02*X117212D01*
X115712Y251617D02*Y247617D01*
X116512Y249617D02*X117712Y247617D01*
X118912Y249117D02*X120912Y251617D01*
X118912Y249117D02*X121412D01*
X120912Y251617D02*Y247617D01*
X122612Y251117D02*X123112Y251617D01*
X124612D01*
X125112Y251117D01*
Y250117D01*
X122612Y247617D02*X125112Y250117D01*
X122612Y247617D02*X125112D01*
X116412Y217617D02*X117712D01*
X115712Y218317D02*X116412Y217617D01*
X115712Y220917D02*Y218317D01*
Y220917D02*X116412Y221617D01*
X117712D01*
X118912Y219117D02*X120912Y221617D01*
X118912Y219117D02*X121412D01*
X120912Y221617D02*Y217617D01*
X122612Y221617D02*X124612D01*
X122612D02*Y219617D01*
X123112Y220117D01*
X124112D01*
X124612Y219617D01*
Y218117D01*
X124112Y217617D02*X124612Y218117D01*
X123112Y217617D02*X124112D01*
X122612Y218117D02*X123112Y217617D01*
X116412Y202617D02*X117712D01*
X115712Y203317D02*X116412Y202617D01*
X115712Y205917D02*Y203317D01*
Y205917D02*X116412Y206617D01*
X117712D01*
X118912Y204117D02*X120912Y206617D01*
X118912Y204117D02*X121412D01*
X120912Y206617D02*Y202617D01*
X122612Y206117D02*X123112Y206617D01*
X124112D01*
X124612Y206117D01*
X124112Y202617D02*X124612Y203117D01*
X123112Y202617D02*X124112D01*
X122612Y203117D02*X123112Y202617D01*
Y204817D02*X124112D01*
X124612Y206117D02*Y205317D01*
Y204317D02*Y203117D01*
Y204317D02*X124112Y204817D01*
X124612Y205317D02*X124112Y204817D01*
X136317Y199617D02*X137617D01*
X135617Y200317D02*X136317Y199617D01*
X135617Y202917D02*Y200317D01*
Y202917D02*X136317Y203617D01*
X137617D01*
X138817Y201117D02*X140817Y203617D01*
X138817Y201117D02*X141317D01*
X140817Y203617D02*Y199617D01*
X143017D02*X145017Y203617D01*
X142517D02*X145017D01*
X175000Y302500D02*X178500D01*
X179000Y303000D01*
Y304000D01*
X178500Y304500D01*
X175000D02*X178500D01*
X175000Y307200D02*X175500Y307700D01*
X175000Y306200D02*Y307200D01*
X175500Y305700D02*X175000Y306200D01*
X175500Y305700D02*X178500D01*
X179000Y306200D01*
X176800Y307200D02*X177300Y307700D01*
X176800Y305700D02*Y307200D01*
X179000Y306200D02*Y307200D01*
X178500Y307700D01*
X177300D02*X178500D01*
Y308900D02*X179000Y309400D01*
X175500Y308900D02*X178500D01*
X175500D02*X175000Y309400D01*
Y310400D01*
X175500Y310900D01*
X178500D01*
X179000Y310400D02*X178500Y310900D01*
X179000Y309400D02*Y310400D01*
X178000Y308900D02*X176000Y310900D01*
X168928Y345122D02*X170228D01*
X168228Y345822D02*X168928Y345122D01*
X168228Y348422D02*Y345822D01*
Y348422D02*X168928Y349122D01*
X170228D01*
X172928D02*X173428Y348622D01*
X171928Y349122D02*X172928D01*
X171428Y348622D02*X171928Y349122D01*
X171428Y348622D02*Y345622D01*
X171928Y345122D01*
X172928Y347322D02*X173428Y346822D01*
X171428Y347322D02*X172928D01*
X171928Y345122D02*X172928D01*
X173428Y345622D01*
Y346822D02*Y345622D01*
X174628Y348622D02*X175128Y349122D01*
X176628D01*
X177128Y348622D01*
Y347622D01*
X174628Y345122D02*X177128Y347622D01*
X174628Y345122D02*X177128D01*
X167893Y336650D02*X169893D01*
X170393Y336150D01*
Y335150D01*
X169893Y334650D02*X170393Y335150D01*
X168393Y334650D02*X169893D01*
X168393Y336650D02*Y332650D01*
X169193Y334650D02*X170393Y332650D01*
X173093Y336650D02*X173593Y336150D01*
X172093Y336650D02*X173093D01*
X171593Y336150D02*X172093Y336650D01*
X171593Y336150D02*Y333150D01*
X172093Y332650D01*
X173093Y334850D02*X173593Y334350D01*
X171593Y334850D02*X173093D01*
X172093Y332650D02*X173093D01*
X173593Y333150D01*
Y334350D02*Y333150D01*
X174793Y334150D02*X176793Y336650D01*
X174793Y334150D02*X177293D01*
X176793Y336650D02*Y332650D01*
X146500Y290700D02*Y292000D01*
X145800Y290000D02*X146500Y290700D01*
X143200Y290000D02*X145800D01*
X143200D02*X142500Y290700D01*
Y292000D01*
X143000Y293200D02*X146000D01*
X143000D02*X142500Y293700D01*
Y294700D01*
X143000Y295200D01*
X146000D01*
X146500Y294700D02*X146000Y295200D01*
X146500Y293700D02*Y294700D01*
X146000Y293200D02*X146500Y293700D01*
X142500Y296400D02*X146500D01*
X142500D02*X146500Y298900D01*
X142500D02*X146500D01*
X142500Y300100D02*X146500D01*
X142500D02*X146500Y302600D01*
X142500D02*X146500D01*
X142500Y305300D02*X143000Y305800D01*
X142500Y304300D02*Y305300D01*
X143000Y303800D02*X142500Y304300D01*
X143000Y303800D02*X146000D01*
X146500Y304300D01*
X144300Y305300D02*X144800Y305800D01*
X144300Y303800D02*Y305300D01*
X146500Y304300D02*Y305300D01*
X146000Y305800D01*
X144800D02*X146000D01*
X143000Y307000D02*X142500Y307500D01*
Y309000D01*
X143000Y309500D01*
X144000D01*
X146500Y307000D02*X144000Y309500D01*
X146500Y307000D02*Y309500D01*
M02*
