G04 start of page 2 for group 3 layer_idx 0 *
G04 Title: (unknown), top_copper *
G04 Creator: pcb-rnd 2.2.4 *
G04 CreationDate: 2020-10-19 18:12:01 UTC *
G04 For:  *
G04 Format: Gerber/RS-274X *
G04 PCB-Dimensions: 500000 500000 *
G04 PCB-Coordinate-Origin: lower left *
%MOIN*%
%FSLAX25Y25*%
%LNTOP_COPPER_NONE_3*%
%ADD32C,0.0420*%
%ADD31C,0.0374*%
%ADD30C,0.0276*%
%ADD29C,0.0295*%
%ADD28C,0.0256*%
%ADD27C,0.0394*%
%ADD26C,0.0790*%
%ADD25C,0.0600*%
%ADD24C,0.0984*%
%ADD23C,0.0689*%
%ADD22C,0.1000*%
%ADD21C,0.0571*%
%ADD20C,0.0787*%
%ADD19C,0.0866*%
%ADD18C,0.0800*%
%ADD17C,0.0001*%
%ADD16C,0.0400*%
%ADD15C,0.0700*%
%ADD14C,0.1580*%
%ADD13C,0.0200*%
%ADD12C,0.0650*%
%ADD11C,0.0350*%
G54D11*X153000Y349500D02*X163690D01*
X153000Y364500D02*X163690D01*
X169500Y357500D02*X169250Y357250D01*
G54D12*X101000Y358000D02*X87500Y344500D01*
X101000Y358000D02*X113390D01*
G54D11*X163500Y349310D02*X163690Y349500D01*
X175500Y364500D02*Y363500D01*
X169500Y357500D01*
X175500Y349500D02*Y348000D01*
X187500Y354043D02*Y359957D01*
X175500Y348000D02*X167500Y340000D01*
X175500Y347000D02*X182000Y340500D01*
X196500D01*
X198000Y342000D01*
G54D12*X228000D02*Y329500D01*
G54D11*X196500Y324500D02*X200000Y328000D01*
X205000Y333000D02*X213000Y341000D01*
X200000Y328000D02*X213905D01*
G54D13*X249500Y300500D03*
G54D11*X213905Y328000D02*X214000Y327905D01*
X228000Y316095D02*X203095D01*
X200000Y313000D01*
X213000Y327905D02*X231690D01*
X237595Y322000D01*
X228000Y342000D02*X237500D01*
X249405Y341595D02*X249310Y341500D01*
X194000Y333000D02*X205000D01*
X243500Y309000D02*Y347500D01*
X249310Y322690D02*Y352785D01*
X245095Y357000D01*
X180480Y319480D02*X194000Y333000D01*
X213000Y341000D02*Y355500D01*
X243500Y347500D02*X239000Y352000D01*
X228000D01*
X261905Y291500D02*X261810Y291595D01*
X261905Y291500D01*
G54D13*X249500Y300500D02*X247500D01*
G54D11*X227343Y293000D02*X227500D01*
X243500Y309000D01*
G54D12*X262000Y309500D02*Y315000D01*
X255000Y322000D01*
X251000D01*
G54D11*X249310Y322690D02*X250000Y322000D01*
G54D13*X223000Y237095D02*X222905Y237000D01*
X256405Y264000D02*X229500D01*
X229000Y259000D02*X235500D01*
X240020Y254480D01*
X249000Y264095D02*X248905Y264000D01*
G54D11*X249000Y264095D02*X261810D01*
G54D13*X217000Y229000D02*Y242000D01*
X229500Y259000D02*X221000D01*
X219500Y260500D01*
Y271000D01*
X222733Y274233D02*X219500Y271000D01*
G54D11*X238310Y275905D02*X249000D01*
G54D13*X227343Y293000D02*X222843Y288500D01*
Y274343D02*X222750Y274250D01*
G54D12*X262000Y257000D02*Y290000D01*
G54D11*X222905Y237000D02*Y233095D01*
G54D13*X240020Y236980D02*Y254480D01*
X222843Y288500D02*Y274343D01*
X217500Y281500D03*
X219500Y222500D02*X214543D01*
G54D11*X222905Y233095D02*X229500Y226500D01*
X255000D01*
G54D13*X214500Y244500D02*Y274000D01*
Y278500D01*
X217500Y281500D01*
X214500Y199500D02*Y215500D01*
X222500Y219500D02*X219500Y222500D01*
X214543D02*X214500Y222543D01*
G54D11*X245500Y218000D02*Y209405D01*
G54D13*X229500Y197500D02*X245405D01*
X245500Y197595D01*
G54D11*X252095D01*
X255000Y200500D01*
G54D13*X214500Y226500D02*X217000Y229000D01*
Y242000D02*X214500Y244500D01*
Y222500D02*Y226500D01*
X204500Y197500D02*X212500D01*
X218500Y206000D02*X222500Y210000D01*
Y219500D01*
X214500Y222543D02*X200500D01*
X204500Y254000D02*X200500D01*
X197000Y250500D01*
Y244000D01*
G54D11*Y243500D02*X204595D01*
X211095Y237000D01*
X206905Y233000D02*X211000Y237095D01*
G54D12*X176000Y177500D02*X168500Y185000D01*
G54D11*X181690Y198190D02*Y187500D01*
G54D13*Y198190D02*X193310D01*
G54D11*X193500Y187500D02*Y177500D01*
G54D13*X204500Y187500D02*X193500D01*
X193310Y198190D02*X199000Y192500D01*
X204500D01*
X212500Y197500D02*X214500Y199500D01*
X229500Y192500D02*X220500D01*
X218500Y194500D01*
G54D12*X217500Y177500D02*X246000D01*
X254826Y186326D01*
G54D13*X204500Y264000D02*X191543D01*
X175500Y275500D02*Y219957D01*
X204500Y259000D02*X189500D01*
X185190Y254690D01*
G54D11*X182500Y233000D02*X182000Y232500D01*
G54D13*X175500Y219957D02*X179957Y215500D01*
G54D11*X182000Y232500D02*X181500Y233000D01*
X185190Y254690D02*Y244000D01*
X182000Y233000D02*X206905D01*
G54D13*X207657Y281114D02*X191043Y264500D01*
X218500Y194500D02*Y206000D01*
X214500Y215457D02*X187086D01*
X187043Y215500D01*
X191543Y264000D02*X191043Y264500D01*
X183957D02*Y268957D01*
X186500Y271500D01*
X189000D01*
X191000Y273500D01*
Y278457D01*
X191043Y278500D01*
X183957D02*X178500D01*
X175500Y275500D01*
G54D12*X168500Y296500D02*X196500Y324500D01*
G54D11*X166520Y319480D02*X180480D01*
G54D13*X247500Y300500D02*X228500Y281500D01*
X207657Y295000D02*Y281114D01*
G54D12*X168500Y185000D02*Y296500D01*
X255000Y200500D02*Y250000D01*
X262000Y257000D01*
X217500Y177500D02*X176000D01*
G54D11*X167500Y340000D02*X157000D01*
G54D13*X249500Y300500D02*X283000D01*
X305000Y322500D01*
G54D11*X317310Y323000D02*X316810Y322500D01*
G54D13*X157500Y309980D02*X167000Y319480D01*
G54D12*X317326Y294570D02*Y303496D01*
X322906Y288991D02*X317326Y294570D01*
X262000Y291000D02*X301630D01*
X317326Y303496D02*X317480Y303650D01*
G54D11*X157000Y340000D02*X148500Y331500D01*
G54D13*X161500Y275500D02*X157500Y279500D01*
Y309980D01*
G54D11*X148500Y331500D02*Y281500D01*
G54D13*X187500Y346957D02*X198000Y352000D01*
G54D11*X175500Y349500D02*Y347000D01*
G54D12*X322906Y279650D02*Y288991D01*
X322980Y279650D02*X344980D01*
X317480Y250020D02*Y264650D01*
G54D11*X316810Y322500D02*X350500D01*
G54D12*X344980Y279650D02*X350980Y285650D01*
X317500Y250000D02*X317480Y250020D01*
X341180Y264650D02*X318980D01*
X349674Y238174D02*X363500Y252000D01*
Y273500D01*
X351000Y285670D02*Y297000D01*
X350500Y323000D02*Y334400D01*
X335400Y349500D01*
X322823Y279650D02*X357350D01*
X363500Y273500D01*
X312980Y270650D02*Y279650D01*
X318980Y264650D02*X312980Y270650D01*
X133000Y186500D02*Y212000D01*
X155500Y234500D01*
Y254500D01*
X293000Y265000D02*Y251500D01*
X319674Y236826D02*X317500Y239000D01*
X268000D01*
X265000Y236000D01*
X317480Y249150D02*Y239480D01*
X317250Y239250D01*
X254826Y186326D02*X336326D01*
X295000Y228500D02*Y187500D01*
X319674Y228430D02*Y236826D01*
X265000Y236000D02*Y228500D01*
X349674Y228430D02*Y199674D01*
X336326Y186326D02*X349674Y199674D01*
Y228500D02*Y238174D01*
X301630Y291000D02*X312980Y279650D01*
G54D11*X169250Y357250D02*X148250D01*
X175500Y364500D02*Y370500D01*
X179500Y374500D01*
G54D12*X123500Y391500D02*X262000D01*
G54D11*X179500Y374500D02*X195500D01*
X198000Y372000D01*
X256905D02*X267000D01*
G54D13*X199500Y362000D02*X187500Y367043D01*
G54D11*X228000Y372000D02*X244190D01*
X245595Y370595D01*
X213000Y355500D02*X219500Y362000D01*
X228000D01*
X245095Y357000D02*Y372000D01*
X256905Y357000D02*X267000D01*
G54D12*X273000Y380500D02*X283000D01*
X262000Y391500D02*X273000Y380500D01*
G54D13*X199500Y362000D02*X200000Y362500D01*
G54D12*X113393Y381393D02*X123500Y391500D01*
G54D11*X107190Y348000D02*Y339810D01*
X111000Y336000D01*
X119500D01*
X148250Y357250D02*X140500Y349500D01*
X119693Y335807D02*X128000Y327500D01*
X119690Y335810D02*X119750Y335750D01*
X119500Y336000D02*X119750Y335750D01*
X128000Y327500D02*Y317500D01*
G54D12*X87500Y265000D02*X98000Y254500D01*
G54D11*X105000Y324000D02*Y289000D01*
X128000Y303500D02*Y318000D01*
G54D12*X98000Y254500D02*X155500D01*
G54D11*X128000Y283815D02*X135315D01*
X140500Y289000D01*
X105000Y269315D02*X136315D01*
X148500Y281500D01*
X140500Y349500D02*Y289000D01*
G54D12*X87500Y344500D02*Y265000D01*
X113390Y358000D02*Y381390D01*
X113500Y381500D01*
G54D14*X93490Y373000D03*
X133490D03*
G54D15*X153000Y349500D03*
Y364500D03*
G54D16*X105000Y324000D03*
G54D17*G36*
X116290Y351500D02*Y344500D01*
X123290D01*
Y351500D01*
X116290D01*
G37*
G54D15*X113490Y358000D03*
X107190Y348000D03*
G54D17*G36*
X166249Y353240D02*X161131D01*
Y345760D01*
X166249D01*
Y353240D01*
G37*
G36*
Y368240D02*X161131D01*
Y360760D01*
X166249D01*
Y368240D01*
G37*
G36*
X178059D02*X172941D01*
Y360760D01*
X178059D01*
Y368240D01*
G37*
G36*
X194000Y376000D02*X202000D01*
Y368000D01*
X194000D01*
Y376000D01*
G37*
G36*
X184548Y362516D02*Y357398D01*
X190452D01*
Y362516D01*
X184548D01*
G37*
G36*
Y369602D02*Y364484D01*
X190452D01*
Y369602D01*
X184548D01*
G37*
G36*
X178059Y353240D02*X172941D01*
Y345760D01*
X178059D01*
Y353240D01*
G37*
G54D18*X198000Y362000D03*
Y352000D03*
G54D17*G36*
X184548Y356602D02*Y351484D01*
X190452D01*
Y356602D01*
X184548D01*
G37*
G54D18*X228000Y372000D03*
Y362000D03*
G54D17*G36*
X247654Y375740D02*X242536D01*
Y368260D01*
X247654D01*
Y375740D01*
G37*
G36*
Y360740D02*X242536D01*
Y353260D01*
X247654D01*
Y360740D01*
G37*
G54D19*X267000Y372000D03*
Y357000D03*
G54D17*G36*
X259464Y375740D02*X254346D01*
Y368260D01*
X259464D01*
Y375740D01*
G37*
G36*
Y360740D02*X254346D01*
Y353260D01*
X259464D01*
Y360740D01*
G37*
G54D18*X228000Y352000D03*
X198000Y342000D03*
X228000D03*
G54D17*G36*
X184548Y349516D02*Y344398D01*
X190452D01*
Y349516D01*
X184548D01*
G37*
G36*
X240059Y345740D02*X234941D01*
Y338260D01*
X240059D01*
Y345740D01*
G37*
G36*
X251869D02*X246751D01*
Y338260D01*
X251869D01*
Y345740D01*
G37*
G36*
X120815Y322036D02*Y313964D01*
X135185D01*
Y322036D01*
X120815D01*
G37*
G36*
X209260Y330464D02*Y325346D01*
X216740D01*
Y330464D01*
X209260D01*
G37*
G36*
X159334Y323516D02*Y315444D01*
X173704D01*
Y323516D01*
X159334D01*
G37*
G36*
X224260Y318654D02*Y313536D01*
X231740D01*
Y318654D01*
X224260D01*
G37*
G36*
Y330464D02*Y325346D01*
X231740D01*
Y330464D01*
X224260D01*
G37*
G36*
X209260Y318654D02*Y313536D01*
X216740D01*
Y318654D01*
X209260D01*
G37*
G36*
X240154Y325740D02*X235036D01*
Y318260D01*
X240154D01*
Y325740D01*
G37*
G36*
X251964D02*X246846D01*
Y318260D01*
X251964D01*
Y325740D01*
G37*
G36*
X97815Y311536D02*Y303464D01*
X112185D01*
Y311536D01*
X97815D01*
G37*
G36*
X279000Y376500D02*Y384500D01*
X287000D01*
Y376500D01*
X279000D01*
G37*
G54D14*X315500Y371500D03*
X355500D03*
G54D17*G36*
X331563Y355437D02*Y347563D01*
X339437D01*
Y355437D01*
X331563D01*
G37*
G54D20*X325500Y351500D03*
G54D21*X128000Y303500D03*
G54D15*X185190Y254690D03*
G54D17*G36*
X186516Y281452D02*X181398D01*
Y275548D01*
X186516D01*
Y281452D01*
G37*
G36*
X193602D02*X188484D01*
Y275548D01*
X193602D01*
Y281452D01*
G37*
G36*
X186516Y267452D02*X181398D01*
Y261548D01*
X186516D01*
Y267452D01*
G37*
G36*
X193602D02*X188484D01*
Y261548D01*
X193602D01*
Y267452D01*
G37*
G54D16*X228500Y281500D03*
G54D15*X238310Y275905D03*
G54D16*X217500Y281500D03*
G54D17*G36*
X245260Y278464D02*Y273346D01*
X252740D01*
Y278464D01*
X245260D01*
G37*
G36*
X202500Y270000D02*X211000D01*
Y268000D01*
X202500D01*
Y270000D01*
G37*
G36*
X203720Y296937D02*Y289063D01*
X211594D01*
Y296937D01*
X203720D01*
G37*
G36*
X231500Y268000D02*X223000D01*
Y270000D01*
X231500D01*
Y268000D01*
G37*
G36*
X245260Y266654D02*Y261536D01*
X252740D01*
Y266654D01*
X245260D01*
G37*
G36*
X202500Y265000D02*X211000D01*
Y263000D01*
X202500D01*
Y265000D01*
G37*
G36*
Y260000D02*X211000D01*
Y258000D01*
X202500D01*
Y260000D01*
G37*
G36*
Y255000D02*X211000D01*
Y253000D01*
X202500D01*
Y255000D01*
G37*
G36*
X231500Y263000D02*X223000D01*
Y265000D01*
X231500D01*
Y263000D01*
G37*
G36*
Y258000D02*X223000D01*
Y260000D01*
X231500D01*
Y258000D01*
G37*
G36*
Y253000D02*X223000D01*
Y255000D01*
X231500D01*
Y253000D01*
G37*
G54D20*X227343Y293000D03*
G54D22*X262000Y309500D03*
Y291000D03*
X293000Y251500D03*
G54D17*G36*
X285815Y269036D02*Y260964D01*
X300185D01*
Y269036D01*
X285815D01*
G37*
G54D15*X200000Y313000D03*
G54D16*X175500Y275500D03*
G54D17*G36*
X307559Y326240D02*X302441D01*
Y318760D01*
X307559D01*
Y326240D01*
G37*
G36*
X343315Y327036D02*Y318964D01*
X357685D01*
Y327036D01*
X343315D01*
G37*
G36*
X319369Y326240D02*X314251D01*
Y318760D01*
X319369D01*
Y326240D01*
G37*
G36*
X309535Y283095D02*X316425D01*
Y276205D01*
X309535D01*
Y283095D01*
G37*
G54D23*X322823Y279650D03*
G54D17*G36*
X310295Y309186D02*Y301114D01*
X324665D01*
Y309186D01*
X310295D01*
G37*
G36*
Y253186D02*Y245114D01*
X324665D01*
Y253186D01*
X310295D01*
G37*
G36*
X337735Y268095D02*X344625D01*
Y261205D01*
X337735D01*
Y268095D01*
G37*
G54D23*X351023Y264650D03*
G54D17*G36*
X337713Y300445D02*X344602D01*
Y293555D01*
X337713D01*
Y300445D01*
G37*
G54D23*X351000Y297000D03*
G54D16*X161500Y275500D03*
G54D17*G36*
X102146Y266461D02*X107854D01*
Y272169D01*
X102146D01*
Y266461D01*
G37*
G54D21*X105000Y289000D03*
G54D17*G36*
X125146Y280961D02*X130854D01*
Y286669D01*
X125146D01*
Y280961D01*
G37*
G54D15*X168500Y233000D03*
G54D24*X155500Y254500D03*
G54D15*X182000Y233000D03*
G54D17*G36*
X197548Y225102D02*Y219984D01*
X203452D01*
Y225102D01*
X197548D01*
G37*
G36*
X182516Y218452D02*X177398D01*
Y212548D01*
X182516D01*
Y218452D01*
G37*
G36*
X189602D02*X184484D01*
Y212548D01*
X189602D01*
Y218452D01*
G37*
G36*
X197548Y218016D02*Y212898D01*
X203452D01*
Y218016D01*
X197548D01*
G37*
G36*
X211548D02*Y212898D01*
X217452D01*
Y218016D01*
X211548D01*
G37*
G36*
Y225102D02*Y219984D01*
X217452D01*
Y225102D01*
X211548D01*
G37*
G36*
X187749Y247740D02*X182631D01*
Y240260D01*
X187749D01*
Y247740D01*
G37*
G36*
X199559D02*X194441D01*
Y240260D01*
X199559D01*
Y247740D01*
G37*
G36*
X213654Y240740D02*X208536D01*
Y233260D01*
X213654D01*
Y240740D01*
G37*
G36*
X225464D02*X220346D01*
Y233260D01*
X225464D01*
Y240740D01*
G37*
G54D15*X245500Y218000D03*
G54D17*G36*
X241760Y200154D02*Y195036D01*
X249240D01*
Y200154D01*
X241760D01*
G37*
G36*
Y211964D02*Y206846D01*
X249240D01*
Y211964D01*
X241760D01*
G37*
G36*
X232834Y241016D02*Y232945D01*
X247204D01*
Y241016D01*
X232834D01*
G37*
G54D25*X305000Y228500D03*
X295000D03*
X285000D03*
X275000D03*
G54D17*G36*
X268000Y225500D02*X262000D01*
Y231500D01*
X268000D01*
Y225500D01*
G37*
G54D25*X359674Y228430D03*
X349674D03*
X339674D03*
X329674D03*
G54D17*G36*
X322674Y225430D02*X316674D01*
Y231430D01*
X322674D01*
Y225430D01*
G37*
G54D15*X181690Y198190D03*
G54D22*X133000Y186500D03*
G54D17*G36*
X184249Y191240D02*X179131D01*
Y183760D01*
X184249D01*
Y191240D01*
G37*
G36*
X150579Y190524D02*X160421D01*
Y200366D01*
X150579D01*
Y190524D01*
G37*
G36*
X202500Y198500D02*X211000D01*
Y196500D01*
X202500D01*
Y198500D01*
G37*
G36*
Y193500D02*X211000D01*
Y191500D01*
X202500D01*
Y193500D01*
G37*
G36*
Y188500D02*X211000D01*
Y186500D01*
X202500D01*
Y188500D01*
G37*
G36*
X196059Y191240D02*X190941D01*
Y183760D01*
X196059D01*
Y191240D01*
G37*
G36*
X202500Y203500D02*X211000D01*
Y201500D01*
X202500D01*
Y203500D01*
G37*
G36*
X231500Y201500D02*X223000D01*
Y203500D01*
X231500D01*
Y201500D01*
G37*
G36*
Y196500D02*X223000D01*
Y198500D01*
X231500D01*
Y196500D01*
G37*
G36*
Y191500D02*X223000D01*
Y193500D01*
X231500D01*
Y191500D01*
G37*
G36*
Y186500D02*X223000D01*
Y188500D01*
X231500D01*
Y186500D01*
G37*
G54D26*G54D11*G54D13*G54D11*G54D27*G54D26*G54D11*G54D28*G54D11*G54D13*G54D11*G54D13*G54D29*G54D25*G54D11*G54D13*G54D30*G54D13*G54D28*G54D11*G54D31*G54D11*G54D32*G54D11*G54D25*G54D31*M02*
