G04 start of page 2 for group -1 layer_idx 268435461 *
G04 Title: (unknown), <virtual group> *
G04 Creator: pcb-rnd 2.2.4 *
G04 CreationDate: 2020-10-19 18:12:02 UTC *
G04 For:  *
G04 Format: Gerber/RS-274X *
G04 PCB-Dimensions: 500000 500000 *
G04 PCB-Coordinate-Origin: lower left *
%MOIN*%
%FSLAX25Y25*%
%LNLOGICAL_VIRTUAL_FAB_NONE*%
%ADD142C,0.0100*%
%ADD141C,0.0075*%
%ADD140C,0.0060*%
%ADD139C,0.0080*%
G54D139*X91890Y374600D02*X95090D01*
X91890D02*Y371400D01*
X95090D01*
Y374600D02*Y371400D01*
X90290Y376200D02*X96690D01*
X90290D02*Y369800D01*
X96690D01*
Y376200D02*Y369800D01*
X131890Y374600D02*X135090D01*
X131890D02*Y371400D01*
X135090D01*
Y374600D02*Y371400D01*
X130290Y376200D02*X136690D01*
X130290D02*Y369800D01*
X136690D01*
Y376200D02*Y369800D01*
X313900Y373100D02*X317100D01*
X313900D02*Y369900D01*
X317100D01*
Y373100D02*Y369900D01*
X312300Y374700D02*X318700D01*
X312300D02*Y368300D01*
X318700D01*
Y374700D02*Y368300D01*
X353900Y373100D02*X357100D01*
X353900D02*Y369900D01*
X357100D01*
Y373100D02*Y369900D01*
X352300Y374700D02*X358700D01*
X352300D02*Y368300D01*
X358700D01*
Y374700D02*Y368300D01*
X13400Y512850D02*X16600D01*
X13400D02*Y509650D01*
X16600D01*
Y512850D02*Y509650D01*
X11800Y514450D02*X18200D01*
X11800D02*Y508050D01*
X18200D01*
Y514450D02*Y508050D01*
G54D140*X135000Y513500D02*X136500Y510500D01*
X138000Y513500D01*
X136500Y510500D02*Y507500D01*
X139800Y510800D02*X142050D01*
X139800Y507500D02*X142800D01*
X139800Y513500D02*Y507500D01*
Y513500D02*X142800D01*
X147600D02*X148350Y512750D01*
X145350Y513500D02*X147600D01*
X144600Y512750D02*X145350Y513500D01*
X144600Y512750D02*Y511250D01*
X145350Y510500D01*
X147600D01*
X148350Y509750D01*
Y508250D01*
X147600Y507500D02*X148350Y508250D01*
X145350Y507500D02*X147600D01*
X144600Y508250D02*X145350Y507500D01*
X98000Y509750D02*X101000Y513500D01*
X98000Y509750D02*X101750D01*
X101000Y513500D02*Y507500D01*
X45000Y508250D02*X45750Y507500D01*
X45000Y512750D02*Y508250D01*
Y512750D02*X45750Y513500D01*
X47250D01*
X48000Y512750D01*
Y508250D01*
X47250Y507500D02*X48000Y508250D01*
X45750Y507500D02*X47250D01*
X45000Y509000D02*X48000Y512000D01*
X49800Y507500D02*X50550D01*
X52350Y508250D02*X53100Y507500D01*
X52350Y512750D02*Y508250D01*
Y512750D02*X53100Y513500D01*
X54600D01*
X55350Y512750D01*
Y508250D01*
X54600Y507500D02*X55350Y508250D01*
X53100Y507500D02*X54600D01*
X52350Y509000D02*X55350Y512000D01*
X57900Y507500D02*X60900Y513500D01*
X57150D02*X60900D01*
X63450Y507500D02*X65700Y510500D01*
Y512750D02*Y510500D01*
X64950Y513500D02*X65700Y512750D01*
X63450Y513500D02*X64950D01*
X62700Y512750D02*X63450Y513500D01*
X62700Y512750D02*Y511250D01*
X63450Y510500D01*
X65700D01*
X261200Y309500D02*G75*G03X262800Y309500I800J0D01*G01*
G75*G03X261200Y309500I-800J0D01*G01*
X259600D02*G75*G03X264400Y309500I2400J0D01*G01*
G75*G03X259600Y309500I-2400J0D01*G01*
X261200Y291000D02*G75*G03X262800Y291000I800J0D01*G01*
G75*G03X261200Y291000I-800J0D01*G01*
X259600D02*G75*G03X264400Y291000I2400J0D01*G01*
G75*G03X259600Y291000I-2400J0D01*G01*
X292200Y251500D02*G75*G03X293800Y251500I800J0D01*G01*
G75*G03X292200Y251500I-800J0D01*G01*
X290600D02*G75*G03X295400Y251500I2400J0D01*G01*
G75*G03X290600Y251500I-2400J0D01*G01*
X132200Y186500D02*G75*G03X133800Y186500I800J0D01*G01*
G75*G03X132200Y186500I-800J0D01*G01*
X130600D02*G75*G03X135400Y186500I2400J0D01*G01*
G75*G03X130600Y186500I-2400J0D01*G01*
X14200Y526250D02*G75*G03X15800Y526250I800J0D01*G01*
G75*G03X14200Y526250I-800J0D01*G01*
X12600D02*G75*G03X17400Y526250I2400J0D01*G01*
G75*G03X12600Y526250I-2400J0D01*G01*
X135000Y528500D02*X136500Y525500D01*
X138000Y528500D01*
X136500Y525500D02*Y522500D01*
X139800Y525800D02*X142050D01*
X139800Y522500D02*X142800D01*
X139800Y528500D02*Y522500D01*
Y528500D02*X142800D01*
X147600D02*X148350Y527750D01*
X145350Y528500D02*X147600D01*
X144600Y527750D02*X145350Y528500D01*
X144600Y527750D02*Y526250D01*
X145350Y525500D01*
X147600D01*
X148350Y524750D01*
Y523250D01*
X147600Y522500D02*X148350Y523250D01*
X145350Y522500D02*X147600D01*
X144600Y523250D02*X145350Y522500D01*
X98000Y524750D02*X101000Y528500D01*
X98000Y524750D02*X101750D01*
X101000Y528500D02*Y522500D01*
X45000Y523250D02*X45750Y522500D01*
X45000Y527750D02*Y523250D01*
Y527750D02*X45750Y528500D01*
X47250D01*
X48000Y527750D01*
Y523250D01*
X47250Y522500D02*X48000Y523250D01*
X45750Y522500D02*X47250D01*
X45000Y524000D02*X48000Y527000D01*
X49800Y522500D02*X50550D01*
X52350Y523250D02*X53100Y522500D01*
X52350Y527750D02*Y523250D01*
Y527750D02*X53100Y528500D01*
X54600D01*
X55350Y527750D01*
Y523250D01*
X54600Y522500D02*X55350Y523250D01*
X53100Y522500D02*X54600D01*
X52350Y524000D02*X55350Y527000D01*
X59400Y528500D02*X60150Y527750D01*
X57900Y528500D02*X59400D01*
X57150Y527750D02*X57900Y528500D01*
X57150Y527750D02*Y523250D01*
X57900Y522500D01*
X59400Y525800D02*X60150Y525050D01*
X57150Y525800D02*X59400D01*
X57900Y522500D02*X59400D01*
X60150Y523250D01*
Y525050D02*Y523250D01*
X61950D02*X62700Y522500D01*
X61950Y527750D02*Y523250D01*
Y527750D02*X62700Y528500D01*
X64200D01*
X64950Y527750D01*
Y523250D01*
X64200Y522500D02*X64950Y523250D01*
X62700Y522500D02*X64200D01*
X61950Y524000D02*X64950Y527000D01*
X302600Y230900D02*X307400Y226100D01*
X302600D02*X307400Y230900D01*
X303400Y230100D02*X306600D01*
X303400D02*Y226900D01*
X306600D01*
Y230100D02*Y226900D01*
X292600Y230900D02*X297400Y226100D01*
X292600D02*X297400Y230900D01*
X293400Y230100D02*X296600D01*
X293400D02*Y226900D01*
X296600D01*
Y230100D02*Y226900D01*
X282600Y230900D02*X287400Y226100D01*
X282600D02*X287400Y230900D01*
X283400Y230100D02*X286600D01*
X283400D02*Y226900D01*
X286600D01*
Y230100D02*Y226900D01*
X272600Y230900D02*X277400Y226100D01*
X272600D02*X277400Y230900D01*
X273400Y230100D02*X276600D01*
X273400D02*Y226900D01*
X276600D01*
Y230100D02*Y226900D01*
X262600Y230900D02*X267400Y226100D01*
X262600D02*X267400Y230900D01*
X263400Y230100D02*X266600D01*
X263400D02*Y226900D01*
X266600D01*
Y230100D02*Y226900D01*
X357274Y230830D02*X362074Y226030D01*
X357274D02*X362074Y230830D01*
X358074Y230030D02*X361274D01*
X358074D02*Y226830D01*
X361274D01*
Y230030D02*Y226830D01*
X347274Y230830D02*X352074Y226030D01*
X347274D02*X352074Y230830D01*
X348074Y230030D02*X351274D01*
X348074D02*Y226830D01*
X351274D01*
Y230030D02*Y226830D01*
X337274Y230830D02*X342074Y226030D01*
X337274D02*X342074Y230830D01*
X338074Y230030D02*X341274D01*
X338074D02*Y226830D01*
X341274D01*
Y230030D02*Y226830D01*
X327274Y230830D02*X332074Y226030D01*
X327274D02*X332074Y230830D01*
X328074Y230030D02*X331274D01*
X328074D02*Y226830D01*
X331274D01*
Y230030D02*Y226830D01*
X317274Y230830D02*X322074Y226030D01*
X317274D02*X322074Y230830D01*
X318074Y230030D02*X321274D01*
X318074D02*Y226830D01*
X321274D01*
Y230030D02*Y226830D01*
X12600Y543650D02*X17400Y538850D01*
X12600D02*X17400Y543650D01*
X13400Y542850D02*X16600D01*
X13400D02*Y539650D01*
X16600D01*
Y542850D02*Y539650D01*
X135000Y543500D02*X136500Y540500D01*
X138000Y543500D01*
X136500Y540500D02*Y537500D01*
X139800Y540800D02*X142050D01*
X139800Y537500D02*X142800D01*
X139800Y543500D02*Y537500D01*
Y543500D02*X142800D01*
X147600D02*X148350Y542750D01*
X145350Y543500D02*X147600D01*
X144600Y542750D02*X145350Y543500D01*
X144600Y542750D02*Y541250D01*
X145350Y540500D01*
X147600D01*
X148350Y539750D01*
Y538250D01*
X147600Y537500D02*X148350Y538250D01*
X145350Y537500D02*X147600D01*
X144600Y538250D02*X145350Y537500D01*
X98000Y542300D02*X99200Y543500D01*
Y537500D01*
X98000D02*X100250D01*
X102050Y538250D02*X102800Y537500D01*
X102050Y542750D02*Y538250D01*
Y542750D02*X102800Y543500D01*
X104300D01*
X105050Y542750D01*
Y538250D01*
X104300Y537500D02*X105050Y538250D01*
X102800Y537500D02*X104300D01*
X102050Y539000D02*X105050Y542000D01*
X45000Y538250D02*X45750Y537500D01*
X45000Y542750D02*Y538250D01*
Y542750D02*X45750Y543500D01*
X47250D01*
X48000Y542750D01*
Y538250D01*
X47250Y537500D02*X48000Y538250D01*
X45750Y537500D02*X47250D01*
X45000Y539000D02*X48000Y542000D01*
X49800Y537500D02*X50550D01*
X52350Y538250D02*X53100Y537500D01*
X52350Y542750D02*Y538250D01*
Y542750D02*X53100Y543500D01*
X54600D01*
X55350Y542750D01*
Y538250D01*
X54600Y537500D02*X55350Y538250D01*
X53100Y537500D02*X54600D01*
X52350Y539000D02*X55350Y542000D01*
X57150Y539750D02*X60150Y543500D01*
X57150Y539750D02*X60900D01*
X60150Y543500D02*Y537500D01*
X62700Y542750D02*X63450Y543500D01*
X65700D01*
X66450Y542750D01*
Y541250D01*
X62700Y537500D02*X66450Y541250D01*
X62700Y537500D02*X66450D01*
X267000Y375200D02*Y368800D01*
X263800Y372000D02*X270200D01*
X265400Y373600D02*X268600D01*
X265400D02*Y370400D01*
X268600D01*
Y373600D02*Y370400D01*
X267000Y360200D02*Y353800D01*
X263800Y357000D02*X270200D01*
X265400Y358600D02*X268600D01*
X265400D02*Y355400D01*
X268600D01*
Y358600D02*Y355400D01*
X198000Y375200D02*Y368800D01*
X194800Y372000D02*X201200D01*
X196400Y373600D02*X199600D01*
X196400D02*Y370400D01*
X199600D01*
Y373600D02*Y370400D01*
X198000Y365200D02*Y358800D01*
X194800Y362000D02*X201200D01*
X196400Y363600D02*X199600D01*
X196400D02*Y360400D01*
X199600D01*
Y363600D02*Y360400D01*
X198000Y355200D02*Y348800D01*
X194800Y352000D02*X201200D01*
X196400Y353600D02*X199600D01*
X196400D02*Y350400D01*
X199600D01*
Y353600D02*Y350400D01*
X228000Y375200D02*Y368800D01*
X224800Y372000D02*X231200D01*
X226400Y373600D02*X229600D01*
X226400D02*Y370400D01*
X229600D01*
Y373600D02*Y370400D01*
X228000Y365200D02*Y358800D01*
X224800Y362000D02*X231200D01*
X226400Y363600D02*X229600D01*
X226400D02*Y360400D01*
X229600D01*
Y363600D02*Y360400D01*
X228000Y355200D02*Y348800D01*
X224800Y352000D02*X231200D01*
X226400Y353600D02*X229600D01*
X226400D02*Y350400D01*
X229600D01*
Y353600D02*Y350400D01*
X198000Y345200D02*Y338800D01*
X194800Y342000D02*X201200D01*
X196400Y343600D02*X199600D01*
X196400D02*Y340400D01*
X199600D01*
Y343600D02*Y340400D01*
X228000Y345200D02*Y338800D01*
X224800Y342000D02*X231200D01*
X226400Y343600D02*X229600D01*
X226400D02*Y340400D01*
X229600D01*
Y343600D02*Y340400D01*
X283000Y383700D02*Y377300D01*
X279800Y380500D02*X286200D01*
X281400Y382100D02*X284600D01*
X281400D02*Y378900D01*
X284600D01*
Y382100D02*Y378900D01*
X15000Y559450D02*Y553050D01*
X11800Y556250D02*X18200D01*
X13400Y557850D02*X16600D01*
X13400D02*Y554650D01*
X16600D01*
Y557850D02*Y554650D01*
X135000Y558500D02*X136500Y555500D01*
X138000Y558500D01*
X136500Y555500D02*Y552500D01*
X139800Y555800D02*X142050D01*
X139800Y552500D02*X142800D01*
X139800Y558500D02*Y552500D01*
Y558500D02*X142800D01*
X147600D02*X148350Y557750D01*
X145350Y558500D02*X147600D01*
X144600Y557750D02*X145350Y558500D01*
X144600Y557750D02*Y556250D01*
X145350Y555500D01*
X147600D01*
X148350Y554750D01*
Y553250D01*
X147600Y552500D02*X148350Y553250D01*
X145350Y552500D02*X147600D01*
X144600Y553250D02*X145350Y552500D01*
X98000Y557300D02*X99200Y558500D01*
Y552500D01*
X98000D02*X100250D01*
X102050Y557300D02*X103250Y558500D01*
Y552500D01*
X102050D02*X104300D01*
X45000Y553250D02*X45750Y552500D01*
X45000Y557750D02*Y553250D01*
Y557750D02*X45750Y558500D01*
X47250D01*
X48000Y557750D01*
Y553250D01*
X47250Y552500D02*X48000Y553250D01*
X45750Y552500D02*X47250D01*
X45000Y554000D02*X48000Y557000D01*
X49800Y552500D02*X50550D01*
X52350Y553250D02*X53100Y552500D01*
X52350Y557750D02*Y553250D01*
Y557750D02*X53100Y558500D01*
X54600D01*
X55350Y557750D01*
Y553250D01*
X54600Y552500D02*X55350Y553250D01*
X53100Y552500D02*X54600D01*
X52350Y554000D02*X55350Y557000D01*
X57150Y557750D02*X57900Y558500D01*
X59400D01*
X60150Y557750D01*
X59400Y552500D02*X60150Y553250D01*
X57900Y552500D02*X59400D01*
X57150Y553250D02*X57900Y552500D01*
Y555800D02*X59400D01*
X60150Y557750D02*Y556550D01*
Y555050D02*Y553250D01*
Y555050D02*X59400Y555800D01*
X60150Y556550D02*X59400Y555800D01*
X62700Y552500D02*X64950Y555500D01*
Y557750D02*Y555500D01*
X64200Y558500D02*X64950Y557750D01*
X62700Y558500D02*X64200D01*
X61950Y557750D02*X62700Y558500D01*
X61950Y557750D02*Y556250D01*
X62700Y555500D01*
X64950D01*
X155500Y254500D02*Y251300D01*
Y254500D02*X158273Y256100D01*
X155500Y254500D02*X152727Y256100D01*
X153900Y254500D02*G75*G03X157100Y254500I1600J0D01*G01*
G75*G03X153900Y254500I-1600J0D01*G01*
X155500Y195445D02*Y192245D01*
Y195445D02*X158273Y197045D01*
X155500Y195445D02*X152727Y197045D01*
X153900Y195445D02*G75*G03X157100Y195445I1600J0D01*G01*
G75*G03X153900Y195445I-1600J0D01*G01*
X15000Y571250D02*Y568050D01*
Y571250D02*X17773Y572850D01*
X15000Y571250D02*X12227Y572850D01*
X13400Y571250D02*G75*G03X16600Y571250I1600J0D01*G01*
G75*G03X13400Y571250I-1600J0D01*G01*
X135000Y573500D02*X136500Y570500D01*
X138000Y573500D01*
X136500Y570500D02*Y567500D01*
X139800Y570800D02*X142050D01*
X139800Y567500D02*X142800D01*
X139800Y573500D02*Y567500D01*
Y573500D02*X142800D01*
X147600D02*X148350Y572750D01*
X145350Y573500D02*X147600D01*
X144600Y572750D02*X145350Y573500D01*
X144600Y572750D02*Y571250D01*
X145350Y570500D01*
X147600D01*
X148350Y569750D01*
Y568250D01*
X147600Y567500D02*X148350Y568250D01*
X145350Y567500D02*X147600D01*
X144600Y568250D02*X145350Y567500D01*
X98000Y572750D02*X98750Y573500D01*
X101000D01*
X101750Y572750D01*
Y571250D01*
X98000Y567500D02*X101750Y571250D01*
X98000Y567500D02*X101750D01*
X45000Y568250D02*X45750Y567500D01*
X45000Y572750D02*Y568250D01*
Y572750D02*X45750Y573500D01*
X47250D01*
X48000Y572750D01*
Y568250D01*
X47250Y567500D02*X48000Y568250D01*
X45750Y567500D02*X47250D01*
X45000Y569000D02*X48000Y572000D01*
X49800Y567500D02*X50550D01*
X52350Y568250D02*X53100Y567500D01*
X52350Y572750D02*Y568250D01*
Y572750D02*X53100Y573500D01*
X54600D01*
X55350Y572750D01*
Y568250D01*
X54600Y567500D02*X55350Y568250D01*
X53100Y567500D02*X54600D01*
X52350Y569000D02*X55350Y572000D01*
X57150Y572750D02*X57900Y573500D01*
X59400D01*
X60150Y572750D01*
X59400Y567500D02*X60150Y568250D01*
X57900Y567500D02*X59400D01*
X57150Y568250D02*X57900Y567500D01*
Y570800D02*X59400D01*
X60150Y572750D02*Y571550D01*
Y570050D02*Y568250D01*
Y570050D02*X59400Y570800D01*
X60150Y571550D02*X59400Y570800D01*
X62700Y567500D02*X65700Y573500D01*
X61950D02*X65700D01*
X151400Y351100D02*X154600D01*
X151400D02*Y347900D01*
X154600D01*
Y351100D02*Y347900D01*
X151400Y366100D02*X154600D01*
X151400D02*Y362900D01*
X154600D01*
Y366100D02*Y362900D01*
X118190Y349600D02*X121390D01*
X118190D02*Y346400D01*
X121390D01*
Y349600D02*Y346400D01*
X111890Y359600D02*X115090D01*
X111890D02*Y356400D01*
X115090D01*
Y359600D02*Y356400D01*
X105590Y349600D02*X108790D01*
X105590D02*Y346400D01*
X108790D01*
Y349600D02*Y346400D01*
X333900Y353100D02*X337100D01*
X333900D02*Y349900D01*
X337100D01*
Y353100D02*Y349900D01*
X323900Y353100D02*X327100D01*
X323900D02*Y349900D01*
X327100D01*
Y353100D02*Y349900D01*
X183590Y256290D02*X186790D01*
X183590D02*Y253090D01*
X186790D01*
Y256290D02*Y253090D01*
X236710Y277505D02*X239910D01*
X236710D02*Y274305D01*
X239910D01*
Y277505D02*Y274305D01*
X198400Y314600D02*X201600D01*
X198400D02*Y311400D01*
X201600D01*
Y314600D02*Y311400D01*
X166900Y234600D02*X170100D01*
X166900D02*Y231400D01*
X170100D01*
Y234600D02*Y231400D01*
X180400Y234600D02*X183600D01*
X180400D02*Y231400D01*
X183600D01*
Y234600D02*Y231400D01*
X243900Y219600D02*X247100D01*
X243900D02*Y216400D01*
X247100D01*
Y219600D02*Y216400D01*
X180090Y199790D02*X183290D01*
X180090D02*Y196590D01*
X183290D01*
Y199790D02*Y196590D01*
X13400Y587850D02*X16600D01*
X13400D02*Y584650D01*
X16600D01*
Y587850D02*Y584650D01*
X135000Y588500D02*X136500Y585500D01*
X138000Y588500D01*
X136500Y585500D02*Y582500D01*
X139800Y585800D02*X142050D01*
X139800Y582500D02*X142800D01*
X139800Y588500D02*Y582500D01*
Y588500D02*X142800D01*
X147600D02*X148350Y587750D01*
X145350Y588500D02*X147600D01*
X144600Y587750D02*X145350Y588500D01*
X144600Y587750D02*Y586250D01*
X145350Y585500D01*
X147600D01*
X148350Y584750D01*
Y583250D01*
X147600Y582500D02*X148350Y583250D01*
X145350Y582500D02*X147600D01*
X144600Y583250D02*X145350Y582500D01*
X98000Y587300D02*X99200Y588500D01*
Y582500D01*
X98000D02*X100250D01*
X102050Y584750D02*X105050Y588500D01*
X102050Y584750D02*X105800D01*
X105050Y588500D02*Y582500D01*
X45000Y583250D02*X45750Y582500D01*
X45000Y587750D02*Y583250D01*
Y587750D02*X45750Y588500D01*
X47250D01*
X48000Y587750D01*
Y583250D01*
X47250Y582500D02*X48000Y583250D01*
X45750Y582500D02*X47250D01*
X45000Y584000D02*X48000Y587000D01*
X49800Y582500D02*X50550D01*
X52350Y583250D02*X53100Y582500D01*
X52350Y587750D02*Y583250D01*
Y587750D02*X53100Y588500D01*
X54600D01*
X55350Y587750D01*
Y583250D01*
X54600Y582500D02*X55350Y583250D01*
X53100Y582500D02*X54600D01*
X52350Y584000D02*X55350Y587000D01*
X57150Y587750D02*X57900Y588500D01*
X59400D01*
X60150Y587750D01*
X59400Y582500D02*X60150Y583250D01*
X57900Y582500D02*X59400D01*
X57150Y583250D02*X57900Y582500D01*
Y585800D02*X59400D01*
X60150Y587750D02*Y586550D01*
Y585050D02*Y583250D01*
Y585050D02*X59400Y585800D01*
X60150Y586550D02*X59400Y585800D01*
X61950Y588500D02*X64950D01*
X61950D02*Y585500D01*
X62700Y586250D01*
X64200D01*
X64950Y585500D01*
Y583250D01*
X64200Y582500D02*X64950Y583250D01*
X62700Y582500D02*X64200D01*
X61950Y583250D02*X62700Y582500D01*
X206857Y293000D02*G75*G03X208457Y293000I800J0D01*G01*
G75*G03X206857Y293000I-800J0D01*G01*
X226543D02*G75*G03X228143Y293000I800J0D01*G01*
G75*G03X226543Y293000I-800J0D01*G01*
X14200Y601250D02*G75*G03X15800Y601250I800J0D01*G01*
G75*G03X14200Y601250I-800J0D01*G01*
X135000Y603500D02*X136500Y600500D01*
X138000Y603500D01*
X136500Y600500D02*Y597500D01*
X139800Y600800D02*X142050D01*
X139800Y597500D02*X142800D01*
X139800Y603500D02*Y597500D01*
Y603500D02*X142800D01*
X147600D02*X148350Y602750D01*
X145350Y603500D02*X147600D01*
X144600Y602750D02*X145350Y603500D01*
X144600Y602750D02*Y601250D01*
X145350Y600500D01*
X147600D01*
X148350Y599750D01*
Y598250D01*
X147600Y597500D02*X148350Y598250D01*
X145350Y597500D02*X147600D01*
X144600Y598250D02*X145350Y597500D01*
X98000Y602750D02*X98750Y603500D01*
X101000D01*
X101750Y602750D01*
Y601250D01*
X98000Y597500D02*X101750Y601250D01*
X98000Y597500D02*X101750D01*
X45000Y598250D02*X45750Y597500D01*
X45000Y602750D02*Y598250D01*
Y602750D02*X45750Y603500D01*
X47250D01*
X48000Y602750D01*
Y598250D01*
X47250Y597500D02*X48000Y598250D01*
X45750Y597500D02*X47250D01*
X45000Y599000D02*X48000Y602000D01*
X49800Y597500D02*X50550D01*
X52350Y598250D02*X53100Y597500D01*
X52350Y602750D02*Y598250D01*
Y602750D02*X53100Y603500D01*
X54600D01*
X55350Y602750D01*
Y598250D01*
X54600Y597500D02*X55350Y598250D01*
X53100Y597500D02*X54600D01*
X52350Y599000D02*X55350Y602000D01*
X57150Y602750D02*X57900Y603500D01*
X59400D01*
X60150Y602750D01*
X59400Y597500D02*X60150Y598250D01*
X57900Y597500D02*X59400D01*
X57150Y598250D02*X57900Y597500D01*
Y600800D02*X59400D01*
X60150Y602750D02*Y601550D01*
Y600050D02*Y598250D01*
Y600050D02*X59400Y600800D01*
X60150Y601550D02*X59400Y600800D01*
X61950Y598250D02*X62700Y597500D01*
X61950Y602750D02*Y598250D01*
Y602750D02*X62700Y603500D01*
X64200D01*
X64950Y602750D01*
Y598250D01*
X64200Y597500D02*X64950Y598250D01*
X62700Y597500D02*X64200D01*
X61950Y599000D02*X64950Y602000D01*
X311780Y280850D02*X314180Y278450D01*
X311780D02*X314180Y280850D01*
X321623D02*X324023Y278450D01*
X321623D02*X324023Y280850D01*
X339980Y265850D02*X342380Y263450D01*
X339980D02*X342380Y265850D01*
X349823D02*X352223Y263450D01*
X349823D02*X352223Y265850D01*
X339957Y298200D02*X342357Y295800D01*
X339957D02*X342357Y298200D01*
X349800D02*X352200Y295800D01*
X349800D02*X352200Y298200D01*
X13800Y617450D02*X16200Y615050D01*
X13800D02*X16200Y617450D01*
X135000Y618500D02*X136500Y615500D01*
X138000Y618500D01*
X136500Y615500D02*Y612500D01*
X139800Y615800D02*X142050D01*
X139800Y612500D02*X142800D01*
X139800Y618500D02*Y612500D01*
Y618500D02*X142800D01*
X147600D02*X148350Y617750D01*
X145350Y618500D02*X147600D01*
X144600Y617750D02*X145350Y618500D01*
X144600Y617750D02*Y616250D01*
X145350Y615500D01*
X147600D01*
X148350Y614750D01*
Y613250D01*
X147600Y612500D02*X148350Y613250D01*
X145350Y612500D02*X147600D01*
X144600Y613250D02*X145350Y612500D01*
X100250Y618500D02*X101000Y617750D01*
X98750Y618500D02*X100250D01*
X98000Y617750D02*X98750Y618500D01*
X98000Y617750D02*Y613250D01*
X98750Y612500D01*
X100250Y615800D02*X101000Y615050D01*
X98000Y615800D02*X100250D01*
X98750Y612500D02*X100250D01*
X101000Y613250D01*
Y615050D02*Y613250D01*
X45000D02*X45750Y612500D01*
X45000Y617750D02*Y613250D01*
Y617750D02*X45750Y618500D01*
X47250D01*
X48000Y617750D01*
Y613250D01*
X47250Y612500D02*X48000Y613250D01*
X45750Y612500D02*X47250D01*
X45000Y614000D02*X48000Y617000D01*
X49800Y612500D02*X50550D01*
X52350Y613250D02*X53100Y612500D01*
X52350Y617750D02*Y613250D01*
Y617750D02*X53100Y618500D01*
X54600D01*
X55350Y617750D01*
Y613250D01*
X54600Y612500D02*X55350Y613250D01*
X53100Y612500D02*X54600D01*
X52350Y614000D02*X55350Y617000D01*
X57150Y617750D02*X57900Y618500D01*
X60150D01*
X60900Y617750D01*
Y616250D01*
X57150Y612500D02*X60900Y616250D01*
X57150Y612500D02*X60900D01*
X62700Y613250D02*X63450Y612500D01*
X62700Y614450D02*Y613250D01*
Y614450D02*X63750Y615500D01*
X64650D01*
X65700Y614450D01*
Y613250D01*
X64950Y612500D02*X65700Y613250D01*
X63450Y612500D02*X64950D01*
X62700Y616550D02*X63750Y615500D01*
X62700Y617750D02*Y616550D01*
Y617750D02*X63450Y618500D01*
X64950D01*
X65700Y617750D01*
Y616550D01*
X64650Y615500D02*X65700Y616550D01*
X128000Y305100D02*Y301900D01*
X126400Y303500D02*X129600D01*
X105000Y270915D02*Y267715D01*
X103400Y269315D02*X106600D01*
X105000Y290600D02*Y287400D01*
X103400Y289000D02*X106600D01*
X128000Y285415D02*Y282215D01*
X126400Y283815D02*X129600D01*
X15000Y632850D02*Y629650D01*
X13400Y631250D02*X16600D01*
X135000Y633500D02*X136500Y630500D01*
X138000Y633500D01*
X136500Y630500D02*Y627500D01*
X139800Y630800D02*X142050D01*
X139800Y627500D02*X142800D01*
X139800Y633500D02*Y627500D01*
Y633500D02*X142800D01*
X147600D02*X148350Y632750D01*
X145350Y633500D02*X147600D01*
X144600Y632750D02*X145350Y633500D01*
X144600Y632750D02*Y631250D01*
X145350Y630500D01*
X147600D01*
X148350Y629750D01*
Y628250D01*
X147600Y627500D02*X148350Y628250D01*
X145350Y627500D02*X147600D01*
X144600Y628250D02*X145350Y627500D01*
X98000Y629750D02*X101000Y633500D01*
X98000Y629750D02*X101750D01*
X101000Y633500D02*Y627500D01*
X45000Y628250D02*X45750Y627500D01*
X45000Y632750D02*Y628250D01*
Y632750D02*X45750Y633500D01*
X47250D01*
X48000Y632750D01*
Y628250D01*
X47250Y627500D02*X48000Y628250D01*
X45750Y627500D02*X47250D01*
X45000Y629000D02*X48000Y632000D01*
X49800Y627500D02*X50550D01*
X52350Y628250D02*X53100Y627500D01*
X52350Y632750D02*Y628250D01*
Y632750D02*X53100Y633500D01*
X54600D01*
X55350Y632750D01*
Y628250D01*
X54600Y627500D02*X55350Y628250D01*
X53100Y627500D02*X54600D01*
X52350Y629000D02*X55350Y632000D01*
X57150Y632750D02*X57900Y633500D01*
X60150D01*
X60900Y632750D01*
Y631250D01*
X57150Y627500D02*X60900Y631250D01*
X57150Y627500D02*X60900D01*
X64950Y633500D02*X65700Y632750D01*
X63450Y633500D02*X64950D01*
X62700Y632750D02*X63450Y633500D01*
X62700Y632750D02*Y628250D01*
X63450Y627500D01*
X64950Y630800D02*X65700Y630050D01*
X62700Y630800D02*X64950D01*
X63450Y627500D02*X64950D01*
X65700Y628250D01*
Y630050D02*Y628250D01*
X105000Y324000D02*Y322400D01*
Y324000D02*X106387Y324800D01*
X105000Y324000D02*X103613Y324800D01*
X228500Y281500D02*Y279900D01*
Y281500D02*X229887Y282300D01*
X228500Y281500D02*X227113Y282300D01*
X217500Y281500D02*Y279900D01*
Y281500D02*X218887Y282300D01*
X217500Y281500D02*X216113Y282300D01*
X175500Y275500D02*Y273900D01*
Y275500D02*X176887Y276300D01*
X175500Y275500D02*X174113Y276300D01*
X161500Y275500D02*Y273900D01*
Y275500D02*X162887Y276300D01*
X161500Y275500D02*X160113Y276300D01*
X15000Y646250D02*Y644650D01*
Y646250D02*X16387Y647050D01*
X15000Y646250D02*X13613Y647050D01*
X135000Y648500D02*X136500Y645500D01*
X138000Y648500D01*
X136500Y645500D02*Y642500D01*
X139800Y645800D02*X142050D01*
X139800Y642500D02*X142800D01*
X139800Y648500D02*Y642500D01*
Y648500D02*X142800D01*
X147600D02*X148350Y647750D01*
X145350Y648500D02*X147600D01*
X144600Y647750D02*X145350Y648500D01*
X144600Y647750D02*Y646250D01*
X145350Y645500D01*
X147600D01*
X148350Y644750D01*
Y643250D01*
X147600Y642500D02*X148350Y643250D01*
X145350Y642500D02*X147600D01*
X144600Y643250D02*X145350Y642500D01*
X98000Y648500D02*X101000D01*
X98000D02*Y645500D01*
X98750Y646250D01*
X100250D01*
X101000Y645500D01*
Y643250D01*
X100250Y642500D02*X101000Y643250D01*
X98750Y642500D02*X100250D01*
X98000Y643250D02*X98750Y642500D01*
X45000Y643250D02*X45750Y642500D01*
X45000Y647750D02*Y643250D01*
Y647750D02*X45750Y648500D01*
X47250D01*
X48000Y647750D01*
Y643250D01*
X47250Y642500D02*X48000Y643250D01*
X45750Y642500D02*X47250D01*
X45000Y644000D02*X48000Y647000D01*
X49800Y642500D02*X50550D01*
X52350Y643250D02*X53100Y642500D01*
X52350Y647750D02*Y643250D01*
Y647750D02*X53100Y648500D01*
X54600D01*
X55350Y647750D01*
Y643250D01*
X54600Y642500D02*X55350Y643250D01*
X53100Y642500D02*X54600D01*
X52350Y644000D02*X55350Y647000D01*
X57150Y647750D02*X57900Y648500D01*
X60150D01*
X60900Y647750D01*
Y646250D01*
X57150Y642500D02*X60900Y646250D01*
X57150Y642500D02*X60900D01*
X62700Y643250D02*X63450Y642500D01*
X62700Y647750D02*Y643250D01*
Y647750D02*X63450Y648500D01*
X64950D01*
X65700Y647750D01*
Y643250D01*
X64950Y642500D02*X65700Y643250D01*
X63450Y642500D02*X64950D01*
X62700Y644000D02*X65700Y647000D01*
X3000Y663500D02*X3750Y662750D01*
X750Y663500D02*X3000D01*
X0Y662750D02*X750Y663500D01*
X0Y662750D02*Y661250D01*
X750Y660500D01*
X3000D01*
X3750Y659750D01*
Y658250D01*
X3000Y657500D02*X3750Y658250D01*
X750Y657500D02*X3000D01*
X0Y658250D02*X750Y657500D01*
X5550Y660500D02*Y658250D01*
X6300Y657500D01*
X8550Y660500D02*Y656000D01*
X7800Y655250D02*X8550Y656000D01*
X6300Y655250D02*X7800D01*
X5550Y656000D02*X6300Y655250D01*
Y657500D02*X7800D01*
X8550Y658250D01*
X11100Y659750D02*Y657500D01*
Y659750D02*X11850Y660500D01*
X12600D01*
X13350Y659750D01*
Y657500D01*
Y659750D02*X14100Y660500D01*
X14850D01*
X15600Y659750D01*
Y657500D01*
X10350Y660500D02*X11100Y659750D01*
X17400Y663500D02*Y657500D01*
Y658250D02*X18150Y657500D01*
X19650D01*
X20400Y658250D01*
Y659750D02*Y658250D01*
X19650Y660500D02*X20400Y659750D01*
X18150Y660500D02*X19650D01*
X17400Y659750D02*X18150Y660500D01*
X22200Y659750D02*Y658250D01*
Y659750D02*X22950Y660500D01*
X24450D01*
X25200Y659750D01*
Y658250D01*
X24450Y657500D02*X25200Y658250D01*
X22950Y657500D02*X24450D01*
X22200Y658250D02*X22950Y657500D01*
X27000Y663500D02*Y658250D01*
X27750Y657500D01*
X0Y655750D02*X29250D01*
X41750Y663500D02*Y657500D01*
X43700Y663500D02*X44750Y662450D01*
Y658550D01*
X43700Y657500D02*X44750Y658550D01*
X41000Y657500D02*X43700D01*
X41000Y663500D02*X43700D01*
G54D141*X46550Y662000D02*Y661850D01*
G54D140*Y659750D02*Y657500D01*
X50300Y660500D02*X51050Y659750D01*
X48800Y660500D02*X50300D01*
X48050Y659750D02*X48800Y660500D01*
X48050Y659750D02*Y658250D01*
X48800Y657500D01*
X51050Y660500D02*Y658250D01*
X51800Y657500D01*
X48800D02*X50300D01*
X51050Y658250D01*
X54350Y659750D02*Y657500D01*
Y659750D02*X55100Y660500D01*
X55850D01*
X56600Y659750D01*
Y657500D01*
Y659750D02*X57350Y660500D01*
X58100D01*
X58850Y659750D01*
Y657500D01*
X53600Y660500D02*X54350Y659750D01*
X60650Y657500D02*X61400D01*
X65900Y658250D02*X66650Y657500D01*
X65900Y662750D02*X66650Y663500D01*
X65900Y662750D02*Y658250D01*
X68450Y663500D02*X69950D01*
X69200D02*Y657500D01*
X68450D02*X69950D01*
X72500Y659750D02*Y657500D01*
Y659750D02*X73250Y660500D01*
X74000D01*
X74750Y659750D01*
Y657500D01*
X71750Y660500D02*X72500Y659750D01*
X77300Y660500D02*X79550D01*
X76550Y659750D02*X77300Y660500D01*
X76550Y659750D02*Y658250D01*
X77300Y657500D01*
X79550D01*
X81350Y663500D02*Y657500D01*
Y659750D02*X82100Y660500D01*
X83600D01*
X84350Y659750D01*
Y657500D01*
X86150Y663500D02*X86900Y662750D01*
Y658250D01*
X86150Y657500D02*X86900Y658250D01*
X41000Y655750D02*X88700D01*
X96050Y657500D02*X98000D01*
X95000Y658550D02*X96050Y657500D01*
X95000Y662450D02*Y658550D01*
Y662450D02*X96050Y663500D01*
X98000D01*
X99800Y659750D02*Y658250D01*
Y659750D02*X100550Y660500D01*
X102050D01*
X102800Y659750D01*
Y658250D01*
X102050Y657500D02*X102800Y658250D01*
X100550Y657500D02*X102050D01*
X99800Y658250D02*X100550Y657500D01*
X104600Y660500D02*Y658250D01*
X105350Y657500D01*
X106850D01*
X107600Y658250D01*
Y660500D02*Y658250D01*
X110150Y659750D02*Y657500D01*
Y659750D02*X110900Y660500D01*
X111650D01*
X112400Y659750D01*
Y657500D01*
X109400Y660500D02*X110150Y659750D01*
X114950Y663500D02*Y658250D01*
X115700Y657500D01*
X114200Y661250D02*X115700D01*
X95000Y655750D02*X117200D01*
X130750Y663500D02*Y657500D01*
X130000Y663500D02*X133000D01*
X133750Y662750D01*
Y661250D01*
X133000Y660500D02*X133750Y661250D01*
X130750Y660500D02*X133000D01*
X135550Y663500D02*Y658250D01*
X136300Y657500D01*
X140050Y660500D02*X140800Y659750D01*
X138550Y660500D02*X140050D01*
X137800Y659750D02*X138550Y660500D01*
X137800Y659750D02*Y658250D01*
X138550Y657500D01*
X140800Y660500D02*Y658250D01*
X141550Y657500D01*
X138550D02*X140050D01*
X140800Y658250D01*
X144100Y663500D02*Y658250D01*
X144850Y657500D01*
X143350Y661250D02*X144850D01*
X147100Y657500D02*X149350D01*
X146350Y658250D02*X147100Y657500D01*
X146350Y659750D02*Y658250D01*
Y659750D02*X147100Y660500D01*
X148600D01*
X149350Y659750D01*
X146350Y659000D02*X149350D01*
Y659750D01*
X154150Y663500D02*Y657500D01*
X153400D02*X154150Y658250D01*
X151900Y657500D02*X153400D01*
X151150Y658250D02*X151900Y657500D01*
X151150Y659750D02*Y658250D01*
Y659750D02*X151900Y660500D01*
X153400D01*
X154150Y659750D01*
X157450Y660500D02*Y659750D01*
Y658250D02*Y657500D01*
X155950Y662750D02*Y662000D01*
Y662750D02*X156700Y663500D01*
X158200D01*
X158950Y662750D01*
Y662000D01*
X157450Y660500D02*X158950Y662000D01*
X130000Y655750D02*X160750D01*
X0Y678500D02*X3000D01*
X1500D02*Y672500D01*
X4800Y678500D02*Y672500D01*
Y674750D02*X5550Y675500D01*
X7050D01*
X7800Y674750D01*
Y672500D01*
X10350D02*X12600D01*
X9600Y673250D02*X10350Y672500D01*
X9600Y674750D02*Y673250D01*
Y674750D02*X10350Y675500D01*
X11850D01*
X12600Y674750D01*
X9600Y674000D02*X12600D01*
Y674750D01*
X15150D02*Y672500D01*
Y674750D02*X15900Y675500D01*
X17400D01*
X14400D02*X15150Y674750D01*
X19950Y672500D02*X22200D01*
X19200Y673250D02*X19950Y672500D01*
X19200Y674750D02*Y673250D01*
Y674750D02*X19950Y675500D01*
X21450D01*
X22200Y674750D01*
X19200Y674000D02*X22200D01*
Y674750D01*
X28950Y675500D02*X29700Y674750D01*
X27450Y675500D02*X28950D01*
X26700Y674750D02*X27450Y675500D01*
X26700Y674750D02*Y673250D01*
X27450Y672500D01*
X29700Y675500D02*Y673250D01*
X30450Y672500D01*
X27450D02*X28950D01*
X29700Y673250D01*
X33000Y674750D02*Y672500D01*
Y674750D02*X33750Y675500D01*
X35250D01*
X32250D02*X33000Y674750D01*
X37800Y672500D02*X40050D01*
X37050Y673250D02*X37800Y672500D01*
X37050Y674750D02*Y673250D01*
Y674750D02*X37800Y675500D01*
X39300D01*
X40050Y674750D01*
X37050Y674000D02*X40050D01*
Y674750D01*
X44550Y677300D02*X45750Y678500D01*
Y672500D01*
X44550D02*X46800D01*
X48600Y673250D02*X49350Y672500D01*
X48600Y677750D02*Y673250D01*
Y677750D02*X49350Y678500D01*
X50850D01*
X51600Y677750D01*
Y673250D01*
X50850Y672500D02*X51600Y673250D01*
X49350Y672500D02*X50850D01*
X48600Y674000D02*X51600Y677000D01*
X59100Y678500D02*Y672500D01*
X58350D02*X59100Y673250D01*
X56850Y672500D02*X58350D01*
X56100Y673250D02*X56850Y672500D01*
X56100Y674750D02*Y673250D01*
Y674750D02*X56850Y675500D01*
X58350D01*
X59100Y674750D01*
G54D141*X60900Y677000D02*Y676850D01*
G54D140*Y674750D02*Y672500D01*
X63150Y677750D02*Y672500D01*
Y677750D02*X63900Y678500D01*
X64650D01*
X62400Y675500D02*X63900D01*
X66900Y677750D02*Y672500D01*
Y677750D02*X67650Y678500D01*
X68400D01*
X66150Y675500D02*X67650D01*
X70650Y672500D02*X72900D01*
X69900Y673250D02*X70650Y672500D01*
X69900Y674750D02*Y673250D01*
Y674750D02*X70650Y675500D01*
X72150D01*
X72900Y674750D01*
X69900Y674000D02*X72900D01*
Y674750D01*
X75450D02*Y672500D01*
Y674750D02*X76200Y675500D01*
X77700D01*
X74700D02*X75450Y674750D01*
X80250Y672500D02*X82500D01*
X79500Y673250D02*X80250Y672500D01*
X79500Y674750D02*Y673250D01*
Y674750D02*X80250Y675500D01*
X81750D01*
X82500Y674750D01*
X79500Y674000D02*X82500D01*
Y674750D01*
X85050D02*Y672500D01*
Y674750D02*X85800Y675500D01*
X86550D01*
X87300Y674750D01*
Y672500D01*
X84300Y675500D02*X85050Y674750D01*
X89850Y678500D02*Y673250D01*
X90600Y672500D01*
X89100Y676250D02*X90600D01*
X97800Y678500D02*Y672500D01*
X97050D02*X97800Y673250D01*
X95550Y672500D02*X97050D01*
X94800Y673250D02*X95550Y672500D01*
X94800Y674750D02*Y673250D01*
Y674750D02*X95550Y675500D01*
X97050D01*
X97800Y674750D01*
X100350D02*Y672500D01*
Y674750D02*X101100Y675500D01*
X102600D01*
X99600D02*X100350Y674750D01*
G54D141*X104400Y677000D02*Y676850D01*
G54D140*Y674750D02*Y672500D01*
X105900Y678500D02*Y673250D01*
X106650Y672500D01*
X108150Y678500D02*Y673250D01*
X108900Y672500D01*
X113850D02*X116100D01*
X116850Y673250D01*
X116100Y674000D02*X116850Y673250D01*
X113850Y674000D02*X116100D01*
X113100Y674750D02*X113850Y674000D01*
X113100Y674750D02*X113850Y675500D01*
X116100D01*
X116850Y674750D01*
X113100Y673250D02*X113850Y672500D01*
G54D141*X118650Y677000D02*Y676850D01*
G54D140*Y674750D02*Y672500D01*
X120150Y675500D02*X123150D01*
X120150Y672500D02*X123150Y675500D01*
X120150Y672500D02*X123150D01*
X125700D02*X127950D01*
X124950Y673250D02*X125700Y672500D01*
X124950Y674750D02*Y673250D01*
Y674750D02*X125700Y675500D01*
X127200D01*
X127950Y674750D01*
X124950Y674000D02*X127950D01*
Y674750D01*
X130500Y672500D02*X132750D01*
X133500Y673250D01*
X132750Y674000D02*X133500Y673250D01*
X130500Y674000D02*X132750D01*
X129750Y674750D02*X130500Y674000D01*
X129750Y674750D02*X130500Y675500D01*
X132750D01*
X133500Y674750D01*
X129750Y673250D02*X130500Y672500D01*
X138000Y675500D02*Y673250D01*
X138750Y672500D01*
X140250D01*
X141000Y673250D01*
Y675500D02*Y673250D01*
X143550Y672500D02*X145800D01*
X146550Y673250D01*
X145800Y674000D02*X146550Y673250D01*
X143550Y674000D02*X145800D01*
X142800Y674750D02*X143550Y674000D01*
X142800Y674750D02*X143550Y675500D01*
X145800D01*
X146550Y674750D01*
X142800Y673250D02*X143550Y672500D01*
X149100D02*X151350D01*
X148350Y673250D02*X149100Y672500D01*
X148350Y674750D02*Y673250D01*
Y674750D02*X149100Y675500D01*
X150600D01*
X151350Y674750D01*
X148350Y674000D02*X151350D01*
Y674750D01*
X156150Y678500D02*Y672500D01*
X155400D02*X156150Y673250D01*
X153900Y672500D02*X155400D01*
X153150Y673250D02*X153900Y672500D01*
X153150Y674750D02*Y673250D01*
Y674750D02*X153900Y675500D01*
X155400D01*
X156150Y674750D01*
G54D141*X160650Y677000D02*Y676850D01*
G54D140*Y674750D02*Y672500D01*
X162900Y674750D02*Y672500D01*
Y674750D02*X163650Y675500D01*
X164400D01*
X165150Y674750D01*
Y672500D01*
X162150Y675500D02*X162900Y674750D01*
X170400Y678500D02*Y673250D01*
X171150Y672500D01*
X169650Y676250D02*X171150D01*
X172650Y678500D02*Y672500D01*
Y674750D02*X173400Y675500D01*
X174900D01*
X175650Y674750D01*
Y672500D01*
G54D141*X177450Y677000D02*Y676850D01*
G54D140*Y674750D02*Y672500D01*
X179700D02*X181950D01*
X182700Y673250D01*
X181950Y674000D02*X182700Y673250D01*
X179700Y674000D02*X181950D01*
X178950Y674750D02*X179700Y674000D01*
X178950Y674750D02*X179700Y675500D01*
X181950D01*
X182700Y674750D01*
X178950Y673250D02*X179700Y672500D01*
X187200Y678500D02*Y673250D01*
X187950Y672500D01*
X191700Y675500D02*X192450Y674750D01*
X190200Y675500D02*X191700D01*
X189450Y674750D02*X190200Y675500D01*
X189450Y674750D02*Y673250D01*
X190200Y672500D01*
X192450Y675500D02*Y673250D01*
X193200Y672500D01*
X190200D02*X191700D01*
X192450Y673250D01*
X195000Y675500D02*Y673250D01*
X195750Y672500D01*
X198000Y675500D02*Y671000D01*
X197250Y670250D02*X198000Y671000D01*
X195750Y670250D02*X197250D01*
X195000Y671000D02*X195750Y670250D01*
Y672500D02*X197250D01*
X198000Y673250D01*
X199800Y674750D02*Y673250D01*
Y674750D02*X200550Y675500D01*
X202050D01*
X202800Y674750D01*
Y673250D01*
X202050Y672500D02*X202800Y673250D01*
X200550Y672500D02*X202050D01*
X199800Y673250D02*X200550Y672500D01*
X204600Y675500D02*Y673250D01*
X205350Y672500D01*
X206850D01*
X207600Y673250D01*
Y675500D02*Y673250D01*
X210150Y678500D02*Y673250D01*
X210900Y672500D01*
X209400Y676250D02*X210900D01*
X212400Y671000D02*X213900Y672500D01*
X220650Y678500D02*X221400Y677750D01*
X219150Y678500D02*X220650D01*
X218400Y677750D02*X219150Y678500D01*
X218400Y677750D02*Y673250D01*
X219150Y672500D01*
X220650Y675800D02*X221400Y675050D01*
X218400Y675800D02*X220650D01*
X219150Y672500D02*X220650D01*
X221400Y673250D01*
Y675050D02*Y673250D01*
X223200Y677750D02*X223950Y678500D01*
X226200D01*
X226950Y677750D01*
Y676250D01*
X223200Y672500D02*X226950Y676250D01*
X223200Y672500D02*X226950D01*
X231450Y678500D02*Y672500D01*
Y674750D02*X232200Y675500D01*
X233700D01*
X234450Y674750D01*
Y672500D01*
X236250Y674750D02*Y673250D01*
Y674750D02*X237000Y675500D01*
X238500D01*
X239250Y674750D01*
Y673250D01*
X238500Y672500D02*X239250Y673250D01*
X237000Y672500D02*X238500D01*
X236250Y673250D02*X237000Y672500D01*
X241050Y678500D02*Y673250D01*
X241800Y672500D01*
X244050D02*X246300D01*
X243300Y673250D02*X244050Y672500D01*
X243300Y674750D02*Y673250D01*
Y674750D02*X244050Y675500D01*
X245550D01*
X246300Y674750D01*
X243300Y674000D02*X246300D01*
Y674750D01*
X248850Y672500D02*X251100D01*
X251850Y673250D01*
X251100Y674000D02*X251850Y673250D01*
X248850Y674000D02*X251100D01*
X248100Y674750D02*X248850Y674000D01*
X248100Y674750D02*X248850Y675500D01*
X251100D01*
X251850Y674750D01*
X248100Y673250D02*X248850Y672500D01*
X257100Y678500D02*Y673250D01*
X257850Y672500D01*
X256350Y676250D02*X257850D01*
X259350Y674750D02*Y673250D01*
Y674750D02*X260100Y675500D01*
X261600D01*
X262350Y674750D01*
Y673250D01*
X261600Y672500D02*X262350Y673250D01*
X260100Y672500D02*X261600D01*
X259350Y673250D02*X260100Y672500D01*
X264900Y678500D02*Y673250D01*
X265650Y672500D01*
X264150Y676250D02*X265650D01*
X269400Y675500D02*X270150Y674750D01*
X267900Y675500D02*X269400D01*
X267150Y674750D02*X267900Y675500D01*
X267150Y674750D02*Y673250D01*
X267900Y672500D01*
X270150Y675500D02*Y673250D01*
X270900Y672500D01*
X267900D02*X269400D01*
X270150Y673250D01*
X272700Y678500D02*Y673250D01*
X273450Y672500D01*
G54D142*X91500Y400500D02*X365500D01*
X371500Y394500D02*Y199500D01*
X343000Y171000D02*X110500D01*
X80000Y201500D02*Y389000D01*
Y201500D02*G75*G03X110500Y171000I30500J0D01*G01*
X371500Y199500D02*G75*G02X343000Y171000I-28500J0D01*G01*
X365500Y400500D02*G75*G02X371500Y394500I0J-6000D01*G01*
X91500Y400500D02*G75*G03X80000Y389000I0J-11500D01*G01*
G54D140*X163675Y-9500D02*X166675D01*
X167425Y-8750D01*
Y-6950D02*Y-8750D01*
X166675Y-6200D02*X167425Y-6950D01*
X164425Y-6200D02*X166675D01*
X164425Y-3500D02*Y-9500D01*
X163675Y-3500D02*X166675D01*
X167425Y-4250D01*
Y-5450D01*
X166675Y-6200D02*X167425Y-5450D01*
X169225Y-7250D02*Y-8750D01*
Y-7250D02*X169975Y-6500D01*
X171475D01*
X172225Y-7250D01*
Y-8750D01*
X171475Y-9500D02*X172225Y-8750D01*
X169975Y-9500D02*X171475D01*
X169225Y-8750D02*X169975Y-9500D01*
X176275Y-6500D02*X177025Y-7250D01*
X174775Y-6500D02*X176275D01*
X174025Y-7250D02*X174775Y-6500D01*
X174025Y-7250D02*Y-8750D01*
X174775Y-9500D01*
X177025Y-6500D02*Y-8750D01*
X177775Y-9500D01*
X174775D02*X176275D01*
X177025Y-8750D01*
X180325Y-7250D02*Y-9500D01*
Y-7250D02*X181075Y-6500D01*
X182575D01*
X179575D02*X180325Y-7250D01*
X187375Y-3500D02*Y-9500D01*
X186625D02*X187375Y-8750D01*
X185125Y-9500D02*X186625D01*
X184375Y-8750D02*X185125Y-9500D01*
X184375Y-7250D02*Y-8750D01*
Y-7250D02*X185125Y-6500D01*
X186625D01*
X187375Y-7250D01*
X191875D02*Y-8750D01*
Y-7250D02*X192625Y-6500D01*
X194125D01*
X194875Y-7250D01*
Y-8750D01*
X194125Y-9500D02*X194875Y-8750D01*
X192625Y-9500D02*X194125D01*
X191875Y-8750D02*X192625Y-9500D01*
X196675Y-6500D02*Y-8750D01*
X197425Y-9500D01*
X198925D01*
X199675Y-8750D01*
Y-6500D02*Y-8750D01*
X202225Y-3500D02*Y-8750D01*
X202975Y-9500D01*
X201475Y-5750D02*X202975D01*
X204475Y-3500D02*Y-8750D01*
X205225Y-9500D01*
G54D141*X206725Y-5000D02*Y-5150D01*
G54D140*Y-7250D02*Y-9500D01*
X208975Y-7250D02*Y-9500D01*
Y-7250D02*X209725Y-6500D01*
X210475D01*
X211225Y-7250D01*
Y-9500D01*
X208225Y-6500D02*X208975Y-7250D01*
X213775Y-9500D02*X216025D01*
X213025Y-8750D02*X213775Y-9500D01*
X213025Y-7250D02*Y-8750D01*
Y-7250D02*X213775Y-6500D01*
X215275D01*
X216025Y-7250D01*
X213025Y-8000D02*X216025D01*
Y-7250D01*
G54D141*X220525Y-5000D02*Y-5150D01*
G54D140*Y-7250D02*Y-9500D01*
X222775D02*X225025D01*
X225775Y-8750D01*
X225025Y-8000D02*X225775Y-8750D01*
X222775Y-8000D02*X225025D01*
X222025Y-7250D02*X222775Y-8000D01*
X222025Y-7250D02*X222775Y-6500D01*
X225025D01*
X225775Y-7250D01*
X222025Y-8750D02*X222775Y-9500D01*
X231025Y-3500D02*Y-8750D01*
X231775Y-9500D01*
X230275Y-5750D02*X231775D01*
X233275Y-3500D02*Y-9500D01*
Y-7250D02*X234025Y-6500D01*
X235525D01*
X236275Y-7250D01*
Y-9500D01*
X238825D02*X241075D01*
X238075Y-8750D02*X238825Y-9500D01*
X238075Y-7250D02*Y-8750D01*
Y-7250D02*X238825Y-6500D01*
X240325D01*
X241075Y-7250D01*
X238075Y-8000D02*X241075D01*
Y-7250D01*
X246325Y-6500D02*X248575D01*
X245575Y-7250D02*X246325Y-6500D01*
X245575Y-7250D02*Y-8750D01*
X246325Y-9500D01*
X248575D01*
X251125D02*X253375D01*
X250375Y-8750D02*X251125Y-9500D01*
X250375Y-7250D02*Y-8750D01*
Y-7250D02*X251125Y-6500D01*
X252625D01*
X253375Y-7250D01*
X250375Y-8000D02*X253375D01*
Y-7250D01*
X255925D02*Y-9500D01*
Y-7250D02*X256675Y-6500D01*
X257425D01*
X258175Y-7250D01*
Y-9500D01*
X255175Y-6500D02*X255925Y-7250D01*
X260725Y-3500D02*Y-8750D01*
X261475Y-9500D01*
X259975Y-5750D02*X261475D01*
X263725Y-9500D02*X265975D01*
X262975Y-8750D02*X263725Y-9500D01*
X262975Y-7250D02*Y-8750D01*
Y-7250D02*X263725Y-6500D01*
X265225D01*
X265975Y-7250D01*
X262975Y-8000D02*X265975D01*
Y-7250D01*
X268525D02*Y-9500D01*
Y-7250D02*X269275Y-6500D01*
X270775D01*
X267775D02*X268525Y-7250D01*
X272575Y-3500D02*Y-8750D01*
X273325Y-9500D01*
G54D141*X274825Y-5000D02*Y-5150D01*
G54D140*Y-7250D02*Y-9500D01*
X277075Y-7250D02*Y-9500D01*
Y-7250D02*X277825Y-6500D01*
X278575D01*
X279325Y-7250D01*
Y-9500D01*
X276325Y-6500D02*X277075Y-7250D01*
X281875Y-9500D02*X284125D01*
X281125Y-8750D02*X281875Y-9500D01*
X281125Y-7250D02*Y-8750D01*
Y-7250D02*X281875Y-6500D01*
X283375D01*
X284125Y-7250D01*
X281125Y-8000D02*X284125D01*
Y-7250D01*
X288625D02*Y-8750D01*
Y-7250D02*X289375Y-6500D01*
X290875D01*
X291625Y-7250D01*
Y-8750D01*
X290875Y-9500D02*X291625Y-8750D01*
X289375Y-9500D02*X290875D01*
X288625Y-8750D02*X289375Y-9500D01*
X294175Y-4250D02*Y-9500D01*
Y-4250D02*X294925Y-3500D01*
X295675D01*
X293425Y-6500D02*X294925D01*
X300625Y-3500D02*Y-8750D01*
X301375Y-9500D01*
X299875Y-5750D02*X301375D01*
X302875Y-3500D02*Y-9500D01*
Y-7250D02*X303625Y-6500D01*
X305125D01*
X305875Y-7250D01*
Y-9500D01*
G54D141*X307675Y-5000D02*Y-5150D01*
G54D140*Y-7250D02*Y-9500D01*
X309925D02*X312175D01*
X312925Y-8750D01*
X312175Y-8000D02*X312925Y-8750D01*
X309925Y-8000D02*X312175D01*
X309175Y-7250D02*X309925Y-8000D01*
X309175Y-7250D02*X309925Y-6500D01*
X312175D01*
X312925Y-7250D01*
X309175Y-8750D02*X309925Y-9500D01*
X318175Y-7250D02*Y-11750D01*
X317425Y-6500D02*X318175Y-7250D01*
X318925Y-6500D01*
X320425D01*
X321175Y-7250D01*
Y-8750D01*
X320425Y-9500D02*X321175Y-8750D01*
X318925Y-9500D02*X320425D01*
X318175Y-8750D02*X318925Y-9500D01*
X325225Y-6500D02*X325975Y-7250D01*
X323725Y-6500D02*X325225D01*
X322975Y-7250D02*X323725Y-6500D01*
X322975Y-7250D02*Y-8750D01*
X323725Y-9500D01*
X325975Y-6500D02*Y-8750D01*
X326725Y-9500D01*
X323725D02*X325225D01*
X325975Y-8750D01*
X329275Y-3500D02*Y-8750D01*
X330025Y-9500D01*
X328525Y-5750D02*X330025D01*
X331525Y-3500D02*Y-9500D01*
Y-7250D02*X332275Y-6500D01*
X333775D01*
X334525Y-7250D01*
Y-9500D01*
X200750Y528500D02*Y522500D01*
X202700Y528500D02*X203750Y527450D01*
Y523550D01*
X202700Y522500D02*X203750Y523550D01*
X200000Y522500D02*X202700D01*
X200000Y528500D02*X202700D01*
X207800Y525500D02*X208550Y524750D01*
X206300Y525500D02*X207800D01*
X205550Y524750D02*X206300Y525500D01*
X205550Y524750D02*Y523250D01*
X206300Y522500D01*
X208550Y525500D02*Y523250D01*
X209300Y522500D01*
X206300D02*X207800D01*
X208550Y523250D01*
X211850Y528500D02*Y523250D01*
X212600Y522500D01*
X211100Y526250D02*X212600D01*
X214850Y522500D02*X217100D01*
X214100Y523250D02*X214850Y522500D01*
X214100Y524750D02*Y523250D01*
Y524750D02*X214850Y525500D01*
X216350D01*
X217100Y524750D01*
X214100Y524000D02*X217100D01*
Y524750D01*
X218900Y526250D02*X219650D01*
X218900Y524750D02*X219650D01*
X224150Y527750D02*X224900Y528500D01*
X227150D01*
X227900Y527750D01*
Y526250D01*
X224150Y522500D02*X227900Y526250D01*
X224150Y522500D02*X227900D01*
X229700Y523250D02*X230450Y522500D01*
X229700Y527750D02*Y523250D01*
Y527750D02*X230450Y528500D01*
X231950D01*
X232700Y527750D01*
Y523250D01*
X231950Y522500D02*X232700Y523250D01*
X230450Y522500D02*X231950D01*
X229700Y524000D02*X232700Y527000D01*
X234500Y527750D02*X235250Y528500D01*
X237500D01*
X238250Y527750D01*
Y526250D01*
X234500Y522500D02*X238250Y526250D01*
X234500Y522500D02*X238250D01*
X240050Y523250D02*X240800Y522500D01*
X240050Y527750D02*Y523250D01*
Y527750D02*X240800Y528500D01*
X242300D01*
X243050Y527750D01*
Y523250D01*
X242300Y522500D02*X243050Y523250D01*
X240800Y522500D02*X242300D01*
X240050Y524000D02*X243050Y527000D01*
X244850Y525500D02*X247850D01*
X249650Y527300D02*X250850Y528500D01*
Y522500D01*
X249650D02*X251900D01*
X253700Y523250D02*X254450Y522500D01*
X253700Y527750D02*Y523250D01*
Y527750D02*X254450Y528500D01*
X255950D01*
X256700Y527750D01*
Y523250D01*
X255950Y522500D02*X256700Y523250D01*
X254450Y522500D02*X255950D01*
X253700Y524000D02*X256700Y527000D01*
X258500Y525500D02*X261500D01*
X263300Y527300D02*X264500Y528500D01*
Y522500D01*
X263300D02*X265550D01*
X268100D02*X270350Y525500D01*
Y527750D02*Y525500D01*
X269600Y528500D02*X270350Y527750D01*
X268100Y528500D02*X269600D01*
X267350Y527750D02*X268100Y528500D01*
X267350Y527750D02*Y526250D01*
X268100Y525500D01*
X270350D01*
X274850Y527300D02*X276050Y528500D01*
Y522500D01*
X274850D02*X277100D01*
X278900Y523250D02*X279650Y522500D01*
X278900Y524450D02*Y523250D01*
Y524450D02*X279950Y525500D01*
X280850D01*
X281900Y524450D01*
Y523250D01*
X281150Y522500D02*X281900Y523250D01*
X279650Y522500D02*X281150D01*
X278900Y526550D02*X279950Y525500D01*
X278900Y527750D02*Y526550D01*
Y527750D02*X279650Y528500D01*
X281150D01*
X281900Y527750D01*
Y526550D01*
X280850Y525500D02*X281900Y526550D01*
X283700Y526250D02*X284450D01*
X283700Y524750D02*X284450D01*
X286250Y527300D02*X287450Y528500D01*
Y522500D01*
X286250D02*X288500D01*
X290300Y527750D02*X291050Y528500D01*
X293300D01*
X294050Y527750D01*
Y526250D01*
X290300Y522500D02*X294050Y526250D01*
X290300Y522500D02*X294050D01*
X295850Y526250D02*X296600D01*
X295850Y524750D02*X296600D01*
X298400Y523250D02*X299150Y522500D01*
X298400Y527750D02*Y523250D01*
Y527750D02*X299150Y528500D01*
X300650D01*
X301400Y527750D01*
Y523250D01*
X300650Y522500D02*X301400Y523250D01*
X299150Y522500D02*X300650D01*
X298400Y524000D02*X301400Y527000D01*
X303200Y527750D02*X303950Y528500D01*
X306200D01*
X306950Y527750D01*
Y526250D01*
X303200Y522500D02*X306950Y526250D01*
X303200Y522500D02*X306950D01*
X311450Y528500D02*Y523250D01*
X312200Y522500D01*
X313700D01*
X314450Y523250D01*
Y528500D02*Y523250D01*
X316250Y528500D02*X319250D01*
X317750D02*Y522500D01*
X322100D02*X324050D01*
X321050Y523550D02*X322100Y522500D01*
X321050Y527450D02*Y523550D01*
Y527450D02*X322100Y528500D01*
X324050D01*
X200000Y542000D02*Y537500D01*
Y542000D02*X201050Y543500D01*
X202700D01*
X203750Y542000D01*
Y537500D01*
X200000Y540500D02*X203750D01*
X205550D02*Y538250D01*
X206300Y537500D01*
X207800D01*
X208550Y538250D01*
Y540500D02*Y538250D01*
X211100Y543500D02*Y538250D01*
X211850Y537500D01*
X210350Y541250D02*X211850D01*
X213350Y543500D02*Y537500D01*
Y539750D02*X214100Y540500D01*
X215600D01*
X216350Y539750D01*
Y537500D01*
X218150Y539750D02*Y538250D01*
Y539750D02*X218900Y540500D01*
X220400D01*
X221150Y539750D01*
Y538250D01*
X220400Y537500D02*X221150Y538250D01*
X218900Y537500D02*X220400D01*
X218150Y538250D02*X218900Y537500D01*
X223700Y539750D02*Y537500D01*
Y539750D02*X224450Y540500D01*
X225950D01*
X222950D02*X223700Y539750D01*
X227750Y541250D02*X228500D01*
X227750Y539750D02*X228500D01*
X200000Y558500D02*X203000D01*
X201500D02*Y552500D01*
G54D141*X204800Y557000D02*Y556850D01*
G54D140*Y554750D02*Y552500D01*
X207050Y558500D02*Y553250D01*
X207800Y552500D01*
X206300Y556250D02*X207800D01*
X209300Y558500D02*Y553250D01*
X210050Y552500D01*
X212300D02*X214550D01*
X211550Y553250D02*X212300Y552500D01*
X211550Y554750D02*Y553250D01*
Y554750D02*X212300Y555500D01*
X213800D01*
X214550Y554750D01*
X211550Y554000D02*X214550D01*
Y554750D01*
X216350Y556250D02*X217100D01*
X216350Y554750D02*X217100D01*
X221600Y553250D02*X222350Y552500D01*
X221600Y557750D02*X222350Y558500D01*
X221600Y557750D02*Y553250D01*
X224150Y555500D02*Y553250D01*
X224900Y552500D01*
X226400D01*
X227150Y553250D01*
Y555500D02*Y553250D01*
X229700Y554750D02*Y552500D01*
Y554750D02*X230450Y555500D01*
X231200D01*
X231950Y554750D01*
Y552500D01*
X228950Y555500D02*X229700Y554750D01*
X233750Y558500D02*Y552500D01*
Y554750D02*X236000Y552500D01*
X233750Y554750D02*X235250Y556250D01*
X238550Y554750D02*Y552500D01*
Y554750D02*X239300Y555500D01*
X240050D01*
X240800Y554750D01*
Y552500D01*
X237800Y555500D02*X238550Y554750D01*
X242600D02*Y553250D01*
Y554750D02*X243350Y555500D01*
X244850D01*
X245600Y554750D01*
Y553250D01*
X244850Y552500D02*X245600Y553250D01*
X243350Y552500D02*X244850D01*
X242600Y553250D02*X243350Y552500D01*
X247400Y555500D02*Y553250D01*
X248150Y552500D01*
X248900D01*
X249650Y553250D01*
Y555500D02*Y553250D01*
X250400Y552500D01*
X251150D01*
X251900Y553250D01*
Y555500D02*Y553250D01*
X254450Y554750D02*Y552500D01*
Y554750D02*X255200Y555500D01*
X255950D01*
X256700Y554750D01*
Y552500D01*
X253700Y555500D02*X254450Y554750D01*
X258500Y558500D02*X259250Y557750D01*
Y553250D01*
X258500Y552500D02*X259250Y553250D01*
X263750Y555500D02*X266750D01*
X271250Y558500D02*Y552500D01*
Y558500D02*X274250D01*
X271250Y555800D02*X273500D01*
X278300Y555500D02*X279050Y554750D01*
X276800Y555500D02*X278300D01*
X276050Y554750D02*X276800Y555500D01*
X276050Y554750D02*Y553250D01*
X276800Y552500D01*
X279050Y555500D02*Y553250D01*
X279800Y552500D01*
X276800D02*X278300D01*
X279050Y553250D01*
X281600Y558500D02*Y552500D01*
Y553250D02*X282350Y552500D01*
X283850D01*
X284600Y553250D01*
Y554750D02*Y553250D01*
X283850Y555500D02*X284600Y554750D01*
X282350Y555500D02*X283850D01*
X281600Y554750D02*X282350Y555500D01*
X287150Y554750D02*Y552500D01*
Y554750D02*X287900Y555500D01*
X289400D01*
X286400D02*X287150Y554750D01*
G54D141*X291200Y557000D02*Y556850D01*
G54D140*Y554750D02*Y552500D01*
X293450Y555500D02*X295700D01*
X292700Y554750D02*X293450Y555500D01*
X292700Y554750D02*Y553250D01*
X293450Y552500D01*
X295700D01*
X299750Y555500D02*X300500Y554750D01*
X298250Y555500D02*X299750D01*
X297500Y554750D02*X298250Y555500D01*
X297500Y554750D02*Y553250D01*
X298250Y552500D01*
X300500Y555500D02*Y553250D01*
X301250Y552500D01*
X298250D02*X299750D01*
X300500Y553250D01*
X303800Y558500D02*Y553250D01*
X304550Y552500D01*
X303050Y556250D02*X304550D01*
G54D141*X306050Y557000D02*Y556850D01*
G54D140*Y554750D02*Y552500D01*
X307550Y554750D02*Y553250D01*
Y554750D02*X308300Y555500D01*
X309800D01*
X310550Y554750D01*
Y553250D01*
X309800Y552500D02*X310550Y553250D01*
X308300Y552500D02*X309800D01*
X307550Y553250D02*X308300Y552500D01*
X313100Y554750D02*Y552500D01*
Y554750D02*X313850Y555500D01*
X314600D01*
X315350Y554750D01*
Y552500D01*
X312350Y555500D02*X313100Y554750D01*
X320600Y558500D02*Y552500D01*
X322550Y558500D02*X323600Y557450D01*
Y553550D01*
X322550Y552500D02*X323600Y553550D01*
X319850Y552500D02*X322550D01*
X319850Y558500D02*X322550D01*
X326150Y554750D02*Y552500D01*
Y554750D02*X326900Y555500D01*
X328400D01*
X325400D02*X326150Y554750D01*
X332450Y555500D02*X333200Y554750D01*
X330950Y555500D02*X332450D01*
X330200Y554750D02*X330950Y555500D01*
X330200Y554750D02*Y553250D01*
X330950Y552500D01*
X333200Y555500D02*Y553250D01*
X333950Y552500D01*
X330950D02*X332450D01*
X333200Y553250D01*
X335750Y555500D02*Y553250D01*
X336500Y552500D01*
X337250D01*
X338000Y553250D01*
Y555500D02*Y553250D01*
X338750Y552500D01*
X339500D01*
X340250Y553250D01*
Y555500D02*Y553250D01*
G54D141*X342050Y557000D02*Y556850D01*
G54D140*Y554750D02*Y552500D01*
X344300Y554750D02*Y552500D01*
Y554750D02*X345050Y555500D01*
X345800D01*
X346550Y554750D01*
Y552500D01*
X343550Y555500D02*X344300Y554750D01*
X350600Y555500D02*X351350Y554750D01*
X349100Y555500D02*X350600D01*
X348350Y554750D02*X349100Y555500D01*
X348350Y554750D02*Y553250D01*
X349100Y552500D01*
X350600D01*
X351350Y553250D01*
X348350Y551000D02*X349100Y550250D01*
X350600D01*
X351350Y551000D01*
Y555500D02*Y551000D01*
M02*
