M48
INCH
T21C0.042
T20C0.026
T19C0.064
T18C0.037
T17C0.028
T16C0.060
T15C0.030
T14C0.020
T13C0.079
T12C0.039
T11C0.035
%
T14
G05
X022850Y028150
X021750Y028150
T20
X013750Y027566
X012666Y031500
X014634Y031500
X013750Y029534
T17
X031298Y027965
X032282Y027965
X034116Y029700
X035100Y029700
X034118Y026465
X035102Y026465
T15
X022734Y029300
X020766Y029300
T11
X015300Y034950
X015300Y036450
X010720Y034800
X011980Y034800
X011350Y035800
X033550Y035150
X032550Y035150
X019650Y032450
X018950Y025550
X023831Y027590
X017800Y032450
X024550Y021800
X017400Y018750
X016250Y023600
X018000Y023600
T18
X015550Y019544
X015550Y025450
T12
X019800Y037200
X019800Y036200
X019800Y035200
X022800Y037200
X022800Y036200
X026700Y037200
X026700Y035700
X022800Y035200
X019800Y034200
X022800Y034200
X028300Y038050
X028400Y034900
X028400Y035900
X019400Y029900
X019400Y030900
X028400Y028900
X029400Y028900
X016400Y027900
X016400Y028900
X017400Y020900
X017400Y019900
T21
X030500Y023050
X035950Y023050
X034950Y023050
X033950Y023050
X032950Y023050
X031950Y023050
X029500Y023050
X028500Y023050
X027500Y023050
X026500Y023050
T16
X026200Y030700
X026200Y028900
X029300Y025150
X011050Y018650
T19
X010150Y027300
X010150Y030100
X012119Y027300
X012119Y030100
T13
X009350Y037300
X013350Y037300
X031550Y037150
X035550Y037150
M30
