G04 start of page 2 for group -1 layer_idx 268435459 *
G04 Title: (unknown), <virtual group> *
G04 Creator: pcb-rnd 2.2.4 *
G04 CreationDate: 2020-10-19 18:12:02 UTC *
G04 For:  *
G04 Format: Gerber/RS-274X *
G04 PCB-Dimensions: 500000 500000 *
G04 PCB-Coordinate-Origin: lower left *
%MOIN*%
%FSLAX25Y25*%
%LNTOP_VIRTUAL_ASSY_NONE*%
%ADD114C,0.0070*%
%ADD113C,0.0217*%
%ADD112C,0.0394*%
%ADD111C,0.0150*%
%ADD110C,0.0100*%
%ADD109C,0.0080*%
%ADD108C,0.0420*%
%ADD107C,0.0374*%
%ADD106C,0.0276*%
%ADD105C,0.0295*%
%ADD104C,0.0256*%
%ADD103C,0.0394*%
%ADD102C,0.0200*%
%ADD101C,0.0350*%
%ADD100C,0.0790*%
%ADD99C,0.0600*%
%ADD98C,0.0984*%
%ADD97C,0.0689*%
%ADD96C,0.1000*%
%ADD95C,0.0571*%
%ADD94C,0.0787*%
%ADD93C,0.0866*%
%ADD92C,0.0800*%
%ADD91C,0.0001*%
%ADD90C,0.0400*%
%ADD89C,0.0700*%
%ADD88C,0.1580*%
G54D88*X93490Y373000D03*
X133490D03*
G54D89*X153000Y349500D03*
Y364500D03*
G54D90*X105000Y324000D03*
G54D91*G36*
X116290Y351500D02*Y344500D01*
X123290D01*
Y351500D01*
X116290D01*
G37*
G54D89*X113490Y358000D03*
X107190Y348000D03*
G54D91*G36*
X166249Y353240D02*X161131D01*
Y345760D01*
X166249D01*
Y353240D01*
G37*
G36*
Y368240D02*X161131D01*
Y360760D01*
X166249D01*
Y368240D01*
G37*
G36*
X178059D02*X172941D01*
Y360760D01*
X178059D01*
Y368240D01*
G37*
G36*
X194000Y376000D02*X202000D01*
Y368000D01*
X194000D01*
Y376000D01*
G37*
G36*
X184548Y362516D02*Y357398D01*
X190452D01*
Y362516D01*
X184548D01*
G37*
G36*
Y369602D02*Y364484D01*
X190452D01*
Y369602D01*
X184548D01*
G37*
G36*
X178059Y353240D02*X172941D01*
Y345760D01*
X178059D01*
Y353240D01*
G37*
G54D92*X198000Y362000D03*
Y352000D03*
G54D91*G36*
X184548Y356602D02*Y351484D01*
X190452D01*
Y356602D01*
X184548D01*
G37*
G54D92*X228000Y372000D03*
Y362000D03*
G54D91*G36*
X247654Y375740D02*X242536D01*
Y368260D01*
X247654D01*
Y375740D01*
G37*
G36*
Y360740D02*X242536D01*
Y353260D01*
X247654D01*
Y360740D01*
G37*
G54D93*X267000Y372000D03*
Y357000D03*
G54D91*G36*
X259464Y375740D02*X254346D01*
Y368260D01*
X259464D01*
Y375740D01*
G37*
G36*
Y360740D02*X254346D01*
Y353260D01*
X259464D01*
Y360740D01*
G37*
G54D92*X228000Y352000D03*
X198000Y342000D03*
X228000D03*
G54D91*G36*
X184548Y349516D02*Y344398D01*
X190452D01*
Y349516D01*
X184548D01*
G37*
G36*
X240059Y345740D02*X234941D01*
Y338260D01*
X240059D01*
Y345740D01*
G37*
G36*
X251869D02*X246751D01*
Y338260D01*
X251869D01*
Y345740D01*
G37*
G36*
X120815Y322036D02*Y313964D01*
X135185D01*
Y322036D01*
X120815D01*
G37*
G36*
X209260Y330464D02*Y325346D01*
X216740D01*
Y330464D01*
X209260D01*
G37*
G36*
X159334Y323516D02*Y315444D01*
X173704D01*
Y323516D01*
X159334D01*
G37*
G36*
X224260Y318654D02*Y313536D01*
X231740D01*
Y318654D01*
X224260D01*
G37*
G36*
Y330464D02*Y325346D01*
X231740D01*
Y330464D01*
X224260D01*
G37*
G36*
X209260Y318654D02*Y313536D01*
X216740D01*
Y318654D01*
X209260D01*
G37*
G36*
X240154Y325740D02*X235036D01*
Y318260D01*
X240154D01*
Y325740D01*
G37*
G36*
X251964D02*X246846D01*
Y318260D01*
X251964D01*
Y325740D01*
G37*
G36*
X97815Y311536D02*Y303464D01*
X112185D01*
Y311536D01*
X97815D01*
G37*
G36*
X279000Y376500D02*Y384500D01*
X287000D01*
Y376500D01*
X279000D01*
G37*
G54D88*X315500Y371500D03*
X355500D03*
G54D91*G36*
X331563Y355437D02*Y347563D01*
X339437D01*
Y355437D01*
X331563D01*
G37*
G54D94*X325500Y351500D03*
G54D95*X128000Y303500D03*
G54D89*X185190Y254690D03*
G54D91*G36*
X186516Y281452D02*X181398D01*
Y275548D01*
X186516D01*
Y281452D01*
G37*
G36*
X193602D02*X188484D01*
Y275548D01*
X193602D01*
Y281452D01*
G37*
G36*
X186516Y267452D02*X181398D01*
Y261548D01*
X186516D01*
Y267452D01*
G37*
G36*
X193602D02*X188484D01*
Y261548D01*
X193602D01*
Y267452D01*
G37*
G54D90*X228500Y281500D03*
G54D89*X238310Y275905D03*
G54D90*X217500Y281500D03*
G54D91*G36*
X245260Y278464D02*Y273346D01*
X252740D01*
Y278464D01*
X245260D01*
G37*
G36*
X202500Y270000D02*X211000D01*
Y268000D01*
X202500D01*
Y270000D01*
G37*
G36*
X203720Y296937D02*Y289063D01*
X211594D01*
Y296937D01*
X203720D01*
G37*
G36*
X231500Y268000D02*X223000D01*
Y270000D01*
X231500D01*
Y268000D01*
G37*
G36*
X245260Y266654D02*Y261536D01*
X252740D01*
Y266654D01*
X245260D01*
G37*
G36*
X202500Y265000D02*X211000D01*
Y263000D01*
X202500D01*
Y265000D01*
G37*
G36*
Y260000D02*X211000D01*
Y258000D01*
X202500D01*
Y260000D01*
G37*
G36*
Y255000D02*X211000D01*
Y253000D01*
X202500D01*
Y255000D01*
G37*
G36*
X231500Y263000D02*X223000D01*
Y265000D01*
X231500D01*
Y263000D01*
G37*
G36*
Y258000D02*X223000D01*
Y260000D01*
X231500D01*
Y258000D01*
G37*
G36*
Y253000D02*X223000D01*
Y255000D01*
X231500D01*
Y253000D01*
G37*
G54D94*X227343Y293000D03*
G54D96*X262000Y309500D03*
Y291000D03*
X293000Y251500D03*
G54D91*G36*
X285815Y269036D02*Y260964D01*
X300185D01*
Y269036D01*
X285815D01*
G37*
G54D89*X200000Y313000D03*
G54D90*X175500Y275500D03*
G54D91*G36*
X307559Y326240D02*X302441D01*
Y318760D01*
X307559D01*
Y326240D01*
G37*
G36*
X343315Y327036D02*Y318964D01*
X357685D01*
Y327036D01*
X343315D01*
G37*
G36*
X319369Y326240D02*X314251D01*
Y318760D01*
X319369D01*
Y326240D01*
G37*
G36*
X309535Y283095D02*X316425D01*
Y276205D01*
X309535D01*
Y283095D01*
G37*
G54D97*X322823Y279650D03*
G54D91*G36*
X310295Y309186D02*Y301114D01*
X324665D01*
Y309186D01*
X310295D01*
G37*
G36*
Y253186D02*Y245114D01*
X324665D01*
Y253186D01*
X310295D01*
G37*
G36*
X337735Y268095D02*X344625D01*
Y261205D01*
X337735D01*
Y268095D01*
G37*
G54D97*X351023Y264650D03*
G54D91*G36*
X337713Y300445D02*X344602D01*
Y293555D01*
X337713D01*
Y300445D01*
G37*
G54D97*X351000Y297000D03*
G54D90*X161500Y275500D03*
G54D91*G36*
X102146Y266461D02*X107854D01*
Y272169D01*
X102146D01*
Y266461D01*
G37*
G54D95*X105000Y289000D03*
G54D91*G36*
X125146Y280961D02*X130854D01*
Y286669D01*
X125146D01*
Y280961D01*
G37*
G54D89*X168500Y233000D03*
G54D98*X155500Y254500D03*
G54D89*X182000Y233000D03*
G54D91*G36*
X197548Y225102D02*Y219984D01*
X203452D01*
Y225102D01*
X197548D01*
G37*
G36*
X182516Y218452D02*X177398D01*
Y212548D01*
X182516D01*
Y218452D01*
G37*
G36*
X189602D02*X184484D01*
Y212548D01*
X189602D01*
Y218452D01*
G37*
G36*
X197548Y218016D02*Y212898D01*
X203452D01*
Y218016D01*
X197548D01*
G37*
G36*
X211548D02*Y212898D01*
X217452D01*
Y218016D01*
X211548D01*
G37*
G36*
Y225102D02*Y219984D01*
X217452D01*
Y225102D01*
X211548D01*
G37*
G36*
X187749Y247740D02*X182631D01*
Y240260D01*
X187749D01*
Y247740D01*
G37*
G36*
X199559D02*X194441D01*
Y240260D01*
X199559D01*
Y247740D01*
G37*
G36*
X213654Y240740D02*X208536D01*
Y233260D01*
X213654D01*
Y240740D01*
G37*
G36*
X225464D02*X220346D01*
Y233260D01*
X225464D01*
Y240740D01*
G37*
G54D89*X245500Y218000D03*
G54D91*G36*
X241760Y200154D02*Y195036D01*
X249240D01*
Y200154D01*
X241760D01*
G37*
G36*
Y211964D02*Y206846D01*
X249240D01*
Y211964D01*
X241760D01*
G37*
G36*
X232834Y241016D02*Y232945D01*
X247204D01*
Y241016D01*
X232834D01*
G37*
G54D99*X305000Y228500D03*
X295000D03*
X285000D03*
X275000D03*
G54D91*G36*
X268000Y225500D02*X262000D01*
Y231500D01*
X268000D01*
Y225500D01*
G37*
G54D99*X359674Y228430D03*
X349674D03*
X339674D03*
X329674D03*
G54D91*G36*
X322674Y225430D02*X316674D01*
Y231430D01*
X322674D01*
Y225430D01*
G37*
G54D89*X181690Y198190D03*
G54D96*X133000Y186500D03*
G54D91*G36*
X184249Y191240D02*X179131D01*
Y183760D01*
X184249D01*
Y191240D01*
G37*
G36*
X150579Y190524D02*X160421D01*
Y200366D01*
X150579D01*
Y190524D01*
G37*
G36*
X202500Y198500D02*X211000D01*
Y196500D01*
X202500D01*
Y198500D01*
G37*
G36*
Y193500D02*X211000D01*
Y191500D01*
X202500D01*
Y193500D01*
G37*
G36*
Y188500D02*X211000D01*
Y186500D01*
X202500D01*
Y188500D01*
G37*
G36*
X196059Y191240D02*X190941D01*
Y183760D01*
X196059D01*
Y191240D01*
G37*
G36*
X202500Y203500D02*X211000D01*
Y201500D01*
X202500D01*
Y203500D01*
G37*
G36*
X231500Y201500D02*X223000D01*
Y203500D01*
X231500D01*
Y201500D01*
G37*
G36*
Y196500D02*X223000D01*
Y198500D01*
X231500D01*
Y196500D01*
G37*
G36*
Y191500D02*X223000D01*
Y193500D01*
X231500D01*
Y191500D01*
G37*
G36*
Y186500D02*X223000D01*
Y188500D01*
X231500D01*
Y186500D01*
G37*
G54D100*G54D101*G54D102*G54D101*G54D103*G54D100*G54D101*G54D104*G54D101*G54D102*G54D101*G54D102*G54D105*G54D99*G54D101*G54D102*G54D106*G54D102*G54D104*G54D101*G54D107*G54D101*G54D108*G54D101*G54D99*G54D107*G54D109*X167233Y353240D02*X171957D01*
G54D110*X119044Y323807D02*X136956D01*
Y312193D02*X119044D01*
Y323807D01*
X157563Y313673D02*Y325287D01*
G54D109*X167233Y368240D02*X171957D01*
X167233Y360760D02*X171957D01*
X184745Y363107D02*Y363893D01*
G54D110*X136956Y323807D02*Y312193D01*
G54D109*X184745Y350107D02*Y350893D01*
G54D110*X157563Y325287D02*X175476D01*
Y313673D01*
X157563D01*
X193000Y377000D02*Y337000D01*
G54D109*X190255Y363107D02*Y363893D01*
Y350107D02*Y350893D01*
G54D111*X88240Y436500D02*Y402500D01*
Y436500D02*X138740D01*
X88240Y435000D02*X138740Y430000D01*
X88240Y404500D02*X108440Y402500D01*
X138740Y433500D02*X107440Y436500D01*
X88240Y410500D02*X138740Y405500D01*
X88240Y407500D02*X138740Y402500D01*
X88240Y419500D02*X138740Y414500D01*
X88240Y416500D02*X138740Y411500D01*
X88240Y413500D02*X138740Y408500D01*
X88240Y428500D02*X138740Y423500D01*
X88240Y425500D02*X138740Y420500D01*
X88240Y422500D02*X138740Y417500D01*
X84440Y402500D02*X142540D01*
X84440D02*Y345500D01*
X138740Y436500D02*Y402500D01*
X88240Y431500D02*X138740Y426500D01*
X142540Y345500D02*X84440D01*
G54D110*X96044Y313307D02*X113956D01*
X123079Y307831D02*X132921D01*
G54D111*X142540Y402500D02*Y345500D01*
X91690Y485500D02*X135290D01*
Y436500D01*
G54D110*X113956Y313307D02*Y301693D01*
X102638Y278173D02*X107362D01*
X105000Y280142D02*Y284472D01*
X109921Y293331D02*Y264984D01*
X100079D01*
X105000Y273843D02*Y278173D01*
X102638Y280142D02*X107362D01*
X123079Y279484D02*Y307831D01*
X132921D02*Y279484D01*
X123079D01*
X128000Y288343D02*Y292673D01*
X125638D02*X130362D01*
X128000Y294642D02*Y298972D01*
X125638Y294642D02*X130362D01*
X113956Y301693D02*X96044D01*
X100079Y293331D02*X109921D01*
X96044Y301693D02*Y313307D01*
X100079Y264984D02*Y293331D01*
G54D111*X91690Y485500D02*Y436500D01*
G54D109*X167233Y345760D02*X171957D01*
G54D110*X233000Y337000D02*X193000D01*
G54D109*X224260Y319638D02*Y324362D01*
X209260Y319638D02*Y324362D01*
X216740Y319638D02*Y324362D01*
X308543Y326240D02*X313267D01*
X308543Y318760D02*X313267D01*
X231740Y319638D02*Y324362D01*
X241138Y325740D02*X245862D01*
X241043Y345740D02*X245767D01*
X241043Y338260D02*X245767D01*
G54D110*X284044Y270807D02*X301956D01*
Y259193D01*
X284044D01*
Y270807D01*
X308524Y254957D02*X326436D01*
G54D112*X314801Y273744D02*X309300D01*
X314801Y285556D02*X309300D01*
X314801Y271776D02*X311057D01*
X314801Y269807D02*X314441D01*
X314801Y287524D02*X311057D01*
G54D110*X308524Y299343D02*Y310957D01*
G54D112*X314801Y289493D02*X314441D01*
G54D110*X326436Y299343D02*X308524D01*
Y310957D02*X326436D01*
Y299343D01*
G54D109*X187107Y281255D02*X187893D01*
G54D110*X299500Y279650D02*X303500D01*
X301500Y281650D02*Y277650D01*
G54D109*X187107Y275745D02*X187893D01*
G54D110*X203327Y307173D02*X231673D01*
X203327Y278827D02*Y307173D01*
G54D113*X213563Y293000D02*X215531D01*
X219469Y296150D02*Y289850D01*
X215531Y296150D02*Y289850D01*
G54D110*X231673Y307173D02*Y278827D01*
X203327D01*
G54D113*X219469Y293000D02*X221437D01*
G54D110*X233000Y337000D02*Y377000D01*
X193000D02*X208000D01*
X218000D02*X233000D01*
G54D109*X248638Y375740D02*X253362D01*
X248638Y368260D02*X253362D01*
X241138Y318260D02*X245862D01*
X248638Y360740D02*X253362D01*
X248638Y353260D02*X253362D01*
X187107Y267255D02*X187893D01*
G54D110*X201000Y271500D02*Y251500D01*
G54D109*X187107Y261745D02*X187893D01*
G54D110*X201000Y271500D02*X214500D01*
X219500D02*X233000D01*
Y251500D02*X201000D01*
X233000D02*Y271500D01*
G54D109*X245260Y267638D02*Y272362D01*
X252740Y267638D02*Y272362D01*
G54D110*X341544Y328807D02*X359456D01*
Y317193D01*
X341544D02*Y328807D01*
X359456Y317193D02*X341544D01*
X329677Y299000D02*Y295000D01*
G54D112*X342978Y302906D02*X337478D01*
X342978Y304874D02*X339234D01*
X342978Y306843D02*X342618D01*
G54D110*X332303Y279650D02*X336303D01*
G54D112*X343001Y272524D02*X339257D01*
X342978Y291094D02*X337478D01*
X342978Y289126D02*X339234D01*
X342978Y287157D02*X342618D01*
G54D110*X327700Y264650D02*X331700D01*
G54D112*X343001Y270556D02*X337500D01*
X343001Y274493D02*X342641D01*
G54D110*X326436Y254957D02*Y243343D01*
X329700Y266650D02*Y262650D01*
G54D112*X343001Y258744D02*X337500D01*
X343001Y256776D02*X339257D01*
G54D110*X364674Y217930D02*X314674D01*
X360503Y264650D02*X364503D01*
G54D112*X343001Y254807D02*X342641D01*
G54D110*X319674Y185730D02*X359674D01*
X360480Y297000D02*X364480D01*
X364674Y217930D02*Y205430D01*
X353174D02*X356174D01*
G54D90*X359674Y210030D02*Y212230D01*
Y219930D02*Y228430D01*
G54D110*X364674Y205430D02*X359674D01*
G54D90*X349674Y192030D02*Y194230D01*
Y201030D02*Y203230D01*
X359674Y201030D02*Y203230D01*
G54D110*Y205430D02*Y185730D01*
G54D90*Y192030D02*Y194230D01*
G54D111*X360924Y184030D02*Y205130D01*
G54D90*X349674Y210030D02*Y212230D01*
G54D110*X343174Y205430D02*X346174D01*
G54D90*X349674Y219930D02*Y228430D01*
G54D110*X346174Y185730D02*X359674D01*
G54D90*X349674Y184230D02*Y181030D01*
X359674Y184230D02*Y181030D01*
G54D110*X327677Y297000D02*X331677D01*
G54D90*X319674Y210030D02*Y212230D01*
X329674Y219930D02*Y228430D01*
X319674Y219930D02*Y228430D01*
G54D110*X314674Y205430D02*X319674D01*
X323174D02*X326174D01*
G54D90*X329674Y210030D02*Y212230D01*
G54D110*X314674Y205430D02*Y217930D01*
X333174Y205430D02*X336174D01*
G54D90*X319674Y192030D02*Y194230D01*
Y201030D02*Y203230D01*
X329674Y201030D02*Y203230D01*
G54D110*X319674Y185730D02*Y205430D01*
G54D90*X339674Y192030D02*Y194230D01*
X329674Y192030D02*Y194230D01*
X339674Y201030D02*Y203230D01*
Y210030D02*Y212230D01*
X329674Y184230D02*Y181030D01*
X319674Y184230D02*Y181030D01*
G54D111*X318424Y183730D02*Y205130D01*
G54D90*X339674Y219930D02*Y228430D01*
Y184230D02*Y181030D01*
G54D111*X306500Y343500D02*X364500D01*
Y402500D01*
X360500Y436400D02*Y402500D01*
X354500Y436400D02*Y483500D01*
X316500D01*
Y436400D01*
X310500Y435000D02*X360500Y430000D01*
X310500Y436400D02*X360500D01*
X321400D02*X360500Y432500D01*
X346000Y436400D02*X360500Y435000D01*
X310500Y427500D02*X360500Y422500D01*
X310500Y430000D02*X360500Y425000D01*
X310500Y432500D02*X360500Y427500D01*
X310500Y420000D02*X360500Y415000D01*
X310500Y422500D02*X360500Y417500D01*
X310500Y425000D02*X360500Y420000D01*
X310500Y412500D02*X360500Y407500D01*
X310500Y415000D02*X360500Y410000D01*
X310500Y417500D02*X360500Y412500D01*
X364500Y402500D02*X306500D01*
X310500Y407500D02*X360500Y402500D01*
X310500Y410000D02*X360500Y405000D01*
X310500D02*X335500Y402500D01*
X306500D02*Y343500D01*
X310500Y402500D02*Y436400D01*
G54D110*X326436Y243343D02*X308524D01*
G54D109*X188733Y247740D02*X193457D01*
X188733Y240260D02*X193457D01*
X214638Y240740D02*X219362D01*
G54D110*X231063Y242787D02*X248976D01*
X278000Y375500D02*Y385500D01*
X288000D02*Y375500D01*
Y385500D02*X278000D01*
X288000Y375500D02*Y385500D01*
X278000D02*X288000D01*
X308524Y243343D02*Y254957D01*
X278000Y375500D02*X288000D01*
G54D90*X305000Y201100D02*Y203300D01*
Y210100D02*Y212300D01*
Y220000D02*Y228500D01*
G54D110*Y205500D02*Y185800D01*
G54D90*Y192100D02*Y194300D01*
Y184300D02*Y181100D01*
G54D111*X306250Y184100D02*Y205200D01*
G54D110*X310000Y218000D02*Y205500D01*
X305000D01*
X278500D02*X281500D01*
X288500D02*X291500D01*
X298500D02*X301500D01*
G54D90*X295000Y210100D02*Y212300D01*
Y220000D02*Y228500D01*
Y192100D02*Y194300D01*
Y201100D02*Y203300D01*
G54D110*X291500Y185800D02*X305000D01*
G54D90*X295000Y184300D02*Y181100D01*
X285000Y192100D02*Y194300D01*
Y184300D02*Y181100D01*
Y210100D02*Y212300D01*
Y201100D02*Y203300D01*
Y220000D02*Y228500D01*
G54D110*X201000Y205000D02*Y185000D01*
Y205000D02*X214500D01*
X219500D02*X233000D01*
G54D109*X185233Y191240D02*X189957D01*
X185233Y183760D02*X189957D01*
G54D110*X233000Y185000D02*X201000D01*
X233000D02*Y205000D01*
G54D109*X241760Y201138D02*Y205862D01*
X249240Y201138D02*Y205862D01*
G54D110*X260000Y205500D02*X265000D01*
G54D90*Y201100D02*Y203300D01*
G54D110*Y185800D02*Y205500D01*
X268500D02*X271500D01*
G54D90*X265000Y192100D02*Y194300D01*
G54D111*X263750Y183800D02*Y205200D01*
G54D90*X275000Y192100D02*Y194300D01*
Y201100D02*Y203300D01*
Y184300D02*Y181100D01*
G54D110*X265000Y185800D02*X305000D01*
G54D90*X265000Y184300D02*Y181100D01*
G54D110*X88571Y188555D02*Y261390D01*
X143689D01*
Y258437D01*
X112193Y226941D02*X120067D01*
X116130Y223004D02*Y195445D01*
Y226941D02*Y254500D01*
X143689Y188555D02*X88571D01*
X143689D02*Y191508D01*
Y250563D02*Y199382D01*
X112193Y223004D02*X120067D01*
X149594Y254500D02*X116130D01*
G54D109*X197745Y218607D02*Y219393D01*
X183107Y218255D02*X183893D01*
X183107Y212745D02*X183893D01*
G54D110*X145657Y188555D02*X147626D01*
X149594Y195445D02*X116130D01*
X147626Y188555D02*Y190524D01*
Y207256D02*Y210209D01*
Y200366D02*Y203319D01*
Y246626D02*Y249579D01*
Y239736D02*Y242689D01*
Y232846D02*Y235799D01*
X145657Y261390D02*X147626D01*
Y259421D02*Y261390D01*
Y214146D02*Y217098D01*
Y221035D02*Y223004D01*
Y226941D02*Y228909D01*
G54D109*X203255Y218607D02*Y219393D01*
G54D110*X310000Y218000D02*X260000D01*
G54D109*X211745Y218607D02*Y219393D01*
G54D110*X260000Y205500D02*Y218000D01*
G54D90*X265000Y210100D02*Y212300D01*
X275000Y210100D02*Y212300D01*
Y220000D02*Y228500D01*
X265000Y220000D02*Y228500D01*
G54D109*X217255Y218607D02*Y219393D01*
X214638Y233260D02*X219362D01*
G54D110*X248976Y242787D02*Y231173D01*
X231063D01*
Y242787D01*
X214500Y205000D02*G75*G03X219500Y205000I2500J0D01*G01*
X214500Y271500D02*G75*G03X219500Y271500I2500J0D01*G01*
X143689Y199382D02*G75*G02X143689Y191508I0J-3937D01*G01*
Y258437D02*G75*G02X143689Y250563I0J-3937D01*G01*
X305500Y279650D02*G75*G03X330303Y279650I12402J0D01*G01*
G75*G03X305500Y279650I-12402J0D01*G01*
X333700Y264650D02*G75*G03X358503Y264650I12402J0D01*G01*
G75*G03X333700Y264650I-12402J0D01*G01*
X333677Y297000D02*G75*G03X358480Y297000I12402J0D01*G01*
G75*G03X333677Y297000I-12402J0D01*G01*
X208000Y377000D02*G75*G03X218000Y377000I5000J0D01*G01*
G54D114*X276000Y369700D02*Y371000D01*
X275300Y369000D02*X276000Y369700D01*
X272700Y369000D02*X275300D01*
X272700D02*X272000Y369700D01*
Y371000D01*
Y372200D02*X276000D01*
X272000Y374700D02*X276000D01*
X274000Y372200D02*Y374700D01*
X273000Y375900D02*X276000D01*
X273000D02*X272000Y376600D01*
Y377700D01*
X273000Y378400D01*
X276000D01*
X274000Y375900D02*Y378400D01*
X272000Y381600D02*X272500Y382100D01*
X272000Y380100D02*Y381600D01*
X272500Y379600D02*X272000Y380100D01*
X272500Y379600D02*X273500D01*
X274000Y380100D01*
Y381600D01*
X274500Y382100D01*
X275500D01*
X276000Y381600D02*X275500Y382100D01*
X276000Y380100D02*Y381600D01*
X275500Y379600D02*X276000Y380100D01*
X272000Y385300D02*X272500Y385800D01*
X272000Y383800D02*Y385300D01*
X272500Y383300D02*X272000Y383800D01*
X272500Y383300D02*X273500D01*
X274000Y383800D01*
Y385300D01*
X274500Y385800D01*
X275500D01*
X276000Y385300D02*X275500Y385800D01*
X276000Y383800D02*Y385300D01*
X275500Y383300D02*X276000Y383800D01*
X272000Y387000D02*Y388000D01*
Y387500D02*X276000D01*
Y387000D02*Y388000D01*
X272000Y391200D02*X272500Y391700D01*
X272000Y389700D02*Y391200D01*
X272500Y389200D02*X272000Y389700D01*
X272500Y389200D02*X273500D01*
X274000Y389700D01*
Y391200D01*
X274500Y391700D01*
X275500D01*
X276000Y391200D02*X275500Y391700D01*
X276000Y389700D02*Y391200D01*
X275500Y389200D02*X276000Y389700D01*
X306255Y332150D02*X308255D01*
X308755Y331650D01*
Y330650D01*
X308255Y330150D02*X308755Y330650D01*
X306755Y330150D02*X308255D01*
X306755Y332150D02*Y328150D01*
X307555Y330150D02*X308755Y328150D01*
X309955Y331350D02*X310755Y332150D01*
Y328150D01*
X309955D02*X311455D01*
X312655Y331650D02*X313155Y332150D01*
X314655D01*
X315155Y331650D01*
Y330650D01*
X312655Y328150D02*X315155Y330650D01*
X312655Y328150D02*X315155D01*
X307736Y317162D02*X309736D01*
X308736D02*Y313162D01*
X311437Y317162D02*Y313162D01*
X310937Y317162D02*X312937D01*
X313437Y316662D01*
Y315662D01*
X312937Y315162D02*X313437Y315662D01*
X311437Y315162D02*X312937D01*
X314637Y313662D02*X315137Y313162D01*
X314637Y314462D02*Y313662D01*
Y314462D02*X315337Y315162D01*
X315937D01*
X316637Y314462D01*
Y313662D01*
X316137Y313162D02*X316637Y313662D01*
X315137Y313162D02*X316137D01*
X314637Y315862D02*X315337Y315162D01*
X314637Y316662D02*Y315862D01*
Y316662D02*X315137Y317162D01*
X316137D01*
X316637Y316662D01*
Y315862D01*
X315937Y315162D02*X316637Y315862D01*
X352500Y334500D02*Y331500D01*
Y334500D02*X353000Y335000D01*
X354000D01*
X354500Y334500D01*
Y331500D01*
X354000Y331000D02*X354500Y331500D01*
X353000Y331000D02*X354000D01*
X352500Y331500D02*X353000Y331000D01*
X355700Y335000D02*Y331500D01*
X356200Y331000D01*
X357200D01*
X357700Y331500D01*
Y335000D02*Y331500D01*
X358900Y335000D02*X360900D01*
X359900D02*Y331000D01*
X320000Y315000D02*X322000D01*
X323200Y317000D02*X324200Y313000D01*
X325200Y317000D01*
X339756Y335012D02*X341756D01*
X340756D02*Y331012D01*
X343457Y335012D02*Y331012D01*
X342957Y335012D02*X344957D01*
X345457Y334512D01*
Y333512D01*
X344957Y333012D02*X345457Y333512D01*
X343457Y333012D02*X344957D01*
X347157Y331012D02*X348657Y333012D01*
Y334512D02*Y333012D01*
X348157Y335012D02*X348657Y334512D01*
X347157Y335012D02*X348157D01*
X346657Y334512D02*X347157Y335012D01*
X346657Y334512D02*Y333512D01*
X347157Y333012D01*
X348657D01*
X342310Y311000D02*X343610D01*
X341610Y311700D02*X342310Y311000D01*
X341610Y314300D02*Y311700D01*
Y314300D02*X342310Y315000D01*
X343610D01*
X344810Y314200D02*X345610Y315000D01*
Y311000D01*
X344810D02*X346310D01*
X347510Y314500D02*X348010Y315000D01*
X349010D01*
X349510Y314500D01*
X349010Y311000D02*X349510Y311500D01*
X348010Y311000D02*X349010D01*
X347510Y311500D02*X348010Y311000D01*
Y313200D02*X349010D01*
X349510Y314500D02*Y313700D01*
Y312700D02*Y311500D01*
Y312700D02*X349010Y313200D01*
X349510Y313700D02*X349010Y313200D01*
X270000Y373700D02*Y375000D01*
X269300Y373000D02*X270000Y373700D01*
X266700Y373000D02*X269300D01*
X266700D02*X266000Y373700D01*
Y375000D01*
X266500Y376200D02*X269500D01*
X266500D02*X266000Y376700D01*
Y377700D01*
X266500Y378200D01*
X269500D01*
X270000Y377700D02*X269500Y378200D01*
X270000Y376700D02*Y377700D01*
X269500Y376200D02*X270000Y376700D01*
X266000Y379400D02*X270000D01*
X266000D02*X270000Y381900D01*
X266000D02*X270000D01*
X266000Y383100D02*X270000D01*
X266000D02*X270000Y385600D01*
X266000D02*X270000D01*
X266000Y386800D02*Y388800D01*
Y386800D02*X268000D01*
X267500Y387300D01*
Y388300D01*
X268000Y388800D01*
X269500D01*
X270000Y388300D02*X269500Y388800D01*
X270000Y387300D02*Y388300D01*
X269500Y386800D02*X270000Y387300D01*
X307200Y337500D02*X308500D01*
X306500Y338200D02*X307200Y337500D01*
X306500Y340800D02*Y338200D01*
Y340800D02*X307200Y341500D01*
X308500D01*
X309700Y341000D02*Y338000D01*
Y341000D02*X310200Y341500D01*
X311200D01*
X311700Y341000D01*
Y338000D01*
X311200Y337500D02*X311700Y338000D01*
X310200Y337500D02*X311200D01*
X309700Y338000D02*X310200Y337500D01*
X312900Y341500D02*Y337500D01*
Y341500D02*X315400Y337500D01*
Y341500D02*Y337500D01*
X316600Y341500D02*Y337500D01*
Y341500D02*X319100Y337500D01*
Y341500D02*Y337500D01*
X320300Y340700D02*X321100Y341500D01*
Y337500D01*
X320300D02*X321800D01*
X323000Y338000D02*X323500Y337500D01*
X323000Y341000D02*Y338000D01*
Y341000D02*X323500Y341500D01*
X324500D01*
X325000Y341000D01*
Y338000D01*
X324500Y337500D02*X325000Y338000D01*
X323500Y337500D02*X324500D01*
X323000Y338500D02*X325000Y340500D01*
X139000Y306700D02*X140500D01*
X139000Y304500D02*X141000D01*
X139000Y308500D02*Y304500D01*
Y308500D02*X141000D01*
X143700Y306500D02*X144200Y306000D01*
X142700Y306500D02*X143700D01*
X142200Y306000D02*X142700Y306500D01*
X142200Y306000D02*Y305000D01*
X142700Y304500D01*
X144200Y306500D02*Y305000D01*
X144700Y304500D01*
X142700D02*X143700D01*
X144200Y305000D01*
X146400Y308500D02*Y305000D01*
X146900Y304500D01*
X145900Y307000D02*X146900D01*
X147900Y306000D02*Y305000D01*
Y306000D02*X148400Y306500D01*
X149400D01*
X149900Y306000D01*
Y305000D01*
X149400Y304500D02*X149900Y305000D01*
X148400Y304500D02*X149400D01*
X147900Y305000D02*X148400Y304500D01*
X151600Y306000D02*Y304500D01*
Y306000D02*X152100Y306500D01*
X152600D01*
X153100Y306000D01*
Y304500D01*
X151100Y306500D02*X151600Y306000D01*
X156600Y308500D02*Y304500D01*
X156100Y308500D02*X158100D01*
X158600Y308000D01*
Y307000D01*
X158100Y306500D02*X158600Y307000D01*
X156600Y306500D02*X158100D01*
X160300Y304500D02*X161800D01*
X159800Y305000D02*X160300Y304500D01*
X159800Y306000D02*Y305000D01*
Y306000D02*X160300Y306500D01*
X161300D01*
X161800Y306000D01*
X159800Y305500D02*X161800D01*
Y306000D01*
X164500Y306500D02*X165000Y306000D01*
X163500Y306500D02*X164500D01*
X163000Y306000D02*X163500Y306500D01*
X163000Y306000D02*Y305000D01*
X163500Y304500D01*
X165000Y306500D02*Y305000D01*
X165500Y304500D01*
X163500D02*X164500D01*
X165000Y305000D01*
X166700Y308500D02*Y304500D01*
Y305000D02*X167200Y304500D01*
X168200D01*
X168700Y305000D01*
Y306000D02*Y305000D01*
X168200Y306500D02*X168700Y306000D01*
X167200Y306500D02*X168200D01*
X166700Y306000D02*X167200Y306500D01*
X169900Y306000D02*Y305000D01*
Y306000D02*X170400Y306500D01*
X171400D01*
X171900Y306000D01*
Y305000D01*
X171400Y304500D02*X171900Y305000D01*
X170400Y304500D02*X171400D01*
X169900Y305000D02*X170400Y304500D01*
X175100Y308500D02*Y304500D01*
X174600D02*X175100Y305000D01*
X173600Y304500D02*X174600D01*
X173100Y305000D02*X173600Y304500D01*
X173100Y306000D02*Y305000D01*
Y306000D02*X173600Y306500D01*
X174600D01*
X175100Y306000D01*
X176300Y306500D02*Y305000D01*
X176800Y304500D01*
X178300Y306500D02*Y303500D01*
X177800Y303000D02*X178300Y303500D01*
X176800Y303000D02*X177800D01*
X176300Y303500D02*X176800Y303000D01*
Y304500D02*X177800D01*
X178300Y305000D01*
X181300Y308500D02*Y304500D01*
X183300D01*
X186000Y306500D02*X186500Y306000D01*
X185000Y306500D02*X186000D01*
X184500Y306000D02*X185000Y306500D01*
X184500Y306000D02*Y305000D01*
X185000Y304500D01*
X186500Y306500D02*Y305000D01*
X187000Y304500D01*
X185000D02*X186000D01*
X186500Y305000D01*
X188200Y308500D02*Y304500D01*
Y305000D02*X188700Y304500D01*
X189700D01*
X190200Y305000D01*
Y306000D02*Y305000D01*
X189700Y306500D02*X190200Y306000D01*
X188700Y306500D02*X189700D01*
X188200Y306000D02*X188700Y306500D01*
X139000Y291500D02*X141000D01*
X141500Y292000D01*
Y293200D02*Y292000D01*
X141000Y293700D02*X141500Y293200D01*
X139500Y293700D02*X141000D01*
X139500Y295500D02*Y291500D01*
X139000Y295500D02*X141000D01*
X141500Y295000D01*
Y294200D01*
X141000Y293700D02*X141500Y294200D01*
X142700Y293500D02*Y292000D01*
X143200Y291500D01*
X144700Y293500D02*Y290500D01*
X144200Y290000D02*X144700Y290500D01*
X143200Y290000D02*X144200D01*
X142700Y290500D02*X143200Y290000D01*
Y291500D02*X144200D01*
X144700Y292000D01*
X147700Y293700D02*X149200D01*
X147700Y291500D02*X149700D01*
X147700Y295500D02*Y291500D01*
Y295500D02*X149700D01*
X150900Y293500D02*X151900Y291500D01*
X152900Y293500D02*X151900Y291500D01*
X155600Y293500D02*X156100Y293000D01*
X154600Y293500D02*X155600D01*
X154100Y293000D02*X154600Y293500D01*
X154100Y293000D02*Y292000D01*
X154600Y291500D01*
X156100Y293500D02*Y292000D01*
X156600Y291500D01*
X154600D02*X155600D01*
X156100Y292000D01*
X158300Y293000D02*Y291500D01*
Y293000D02*X158800Y293500D01*
X159300D01*
X159800Y293000D01*
Y291500D01*
X157800Y293500D02*X158300Y293000D01*
X162800Y295500D02*Y291500D01*
Y295500D02*X164800D01*
X162800Y293700D02*X164300D01*
X166000Y293000D02*Y292000D01*
Y293000D02*X166500Y293500D01*
X167500D01*
X168000Y293000D01*
Y292000D01*
X167500Y291500D02*X168000Y292000D01*
X166500Y291500D02*X167500D01*
X166000Y292000D02*X166500Y291500D01*
X169700D02*X171200D01*
X171700Y292000D01*
X171200Y292500D02*X171700Y292000D01*
X169700Y292500D02*X171200D01*
X169200Y293000D02*X169700Y292500D01*
X169200Y293000D02*X169700Y293500D01*
X171200D01*
X171700Y293000D01*
X169200Y292000D02*X169700Y291500D01*
X173400D02*X174900D01*
X175400Y292000D01*
X174900Y292500D02*X175400Y292000D01*
X173400Y292500D02*X174900D01*
X172900Y293000D02*X173400Y292500D01*
X172900Y293000D02*X173400Y293500D01*
X174900D01*
X175400Y293000D01*
X172900Y292000D02*X173400Y291500D01*
X139000Y302000D02*Y298000D01*
Y302000D02*X140500Y300000D01*
X142000Y302000D01*
Y298000D01*
X143200Y299500D02*Y298500D01*
Y299500D02*X143700Y300000D01*
X144700D01*
X145200Y299500D01*
Y298500D01*
X144700Y298000D02*X145200Y298500D01*
X143700Y298000D02*X144700D01*
X143200Y298500D02*X143700Y298000D01*
X148400Y302000D02*Y298000D01*
X147900D02*X148400Y298500D01*
X146900Y298000D02*X147900D01*
X146400Y298500D02*X146900Y298000D01*
X146400Y299500D02*Y298500D01*
Y299500D02*X146900Y300000D01*
X147900D01*
X148400Y299500D01*
X150100Y298000D02*X151600D01*
X149600Y298500D02*X150100Y298000D01*
X149600Y299500D02*Y298500D01*
Y299500D02*X150100Y300000D01*
X151100D01*
X151600Y299500D01*
X149600Y299000D02*X151600D01*
Y299500D01*
X152800Y302000D02*Y298500D01*
X153300Y298000D01*
X154300Y300500D02*X154800D01*
X154300Y299500D02*X154800D01*
X157800Y298000D02*X159800D01*
X160300Y298500D01*
Y299700D02*Y298500D01*
X159800Y300200D02*X160300Y299700D01*
X158300Y300200D02*X159800D01*
X158300Y302000D02*Y298000D01*
X157800Y302000D02*X159800D01*
X160300Y301500D01*
Y300700D01*
X159800Y300200D02*X160300Y300700D01*
X161500Y301000D02*Y300900D01*
Y299500D02*Y298000D01*
X162500Y299500D02*Y298500D01*
Y299500D02*X163000Y300000D01*
X164000D01*
X164500Y299500D01*
Y298500D01*
X164000Y298000D02*X164500Y298500D01*
X163000Y298000D02*X164000D01*
X162500Y298500D02*X163000Y298000D01*
X165700Y301000D02*Y298000D01*
Y301000D02*X166400Y302000D01*
X167500D01*
X168200Y301000D01*
Y298000D01*
X165700Y300000D02*X168200D01*
X169900Y299500D02*Y298000D01*
Y299500D02*X170400Y300000D01*
X170900D01*
X171400Y299500D01*
Y298000D01*
Y299500D02*X171900Y300000D01*
X172400D01*
X172900Y299500D01*
Y298000D01*
X169400Y300000D02*X169900Y299500D01*
X174600D02*Y296500D01*
X174100Y300000D02*X174600Y299500D01*
X175100Y300000D01*
X176100D01*
X176600Y299500D01*
Y298500D01*
X176100Y298000D02*X176600Y298500D01*
X175100Y298000D02*X176100D01*
X174600Y298500D02*X175100Y298000D01*
X179600Y302000D02*Y301000D01*
X180600Y302000D02*Y301000D01*
X182300Y300000D02*X183800D01*
X181800Y299500D02*X182300Y300000D01*
X181800Y299500D02*Y298500D01*
X182300Y298000D01*
X183800D01*
X185000Y302000D02*Y298000D01*
Y299500D02*X185500Y300000D01*
X186500D01*
X187000Y299500D01*
Y298000D01*
X188700D02*X190200D01*
X188200Y298500D02*X188700Y298000D01*
X188200Y299500D02*Y298500D01*
Y299500D02*X188700Y300000D01*
X189700D01*
X190200Y299500D01*
X188200Y299000D02*X190200D01*
Y299500D01*
X192900Y300000D02*X193400Y299500D01*
X191900Y300000D02*X192900D01*
X191400Y299500D02*X191900Y300000D01*
X191400Y299500D02*Y298500D01*
X191900Y298000D01*
X193400Y300000D02*Y298500D01*
X193900Y298000D01*
X191900D02*X192900D01*
X193400Y298500D01*
X195600Y299500D02*Y296500D01*
X195100Y300000D02*X195600Y299500D01*
X196100Y300000D01*
X197100D01*
X197600Y299500D01*
Y298500D01*
X197100Y298000D02*X197600Y298500D01*
X196100Y298000D02*X197100D01*
X195600Y298500D02*X196100Y298000D01*
X198800Y302000D02*Y301000D01*
X199800Y302000D02*Y301000D01*
X139000Y288500D02*X139500Y289000D01*
X141000D01*
X141500Y288500D01*
Y287500D01*
X139000Y285000D02*X141500Y287500D01*
X139000Y285000D02*X141500D01*
X142700Y285500D02*X143200Y285000D01*
X142700Y288500D02*Y285500D01*
Y288500D02*X143200Y289000D01*
X144200D01*
X144700Y288500D01*
Y285500D01*
X144200Y285000D02*X144700Y285500D01*
X143200Y285000D02*X144200D01*
X142700Y286000D02*X144700Y288000D01*
X145900Y288500D02*X146400Y289000D01*
X147900D01*
X148400Y288500D01*
Y287500D01*
X145900Y285000D02*X148400Y287500D01*
X145900Y285000D02*X148400D01*
X149600Y285500D02*X150100Y285000D01*
X149600Y288500D02*Y285500D01*
Y288500D02*X150100Y289000D01*
X151100D01*
X151600Y288500D01*
Y285500D01*
X151100Y285000D02*X151600Y285500D01*
X150100Y285000D02*X151100D01*
X149600Y286000D02*X151600Y288000D01*
X152800Y285000D02*X153300D01*
X154500Y288200D02*X155300Y289000D01*
Y285000D01*
X154500D02*X156000D01*
X157200Y285500D02*X157700Y285000D01*
X157200Y288500D02*Y285500D01*
Y288500D02*X157700Y289000D01*
X158700D01*
X159200Y288500D01*
Y285500D01*
X158700Y285000D02*X159200Y285500D01*
X157700Y285000D02*X158700D01*
X157200Y286000D02*X159200Y288000D01*
X160400Y285000D02*X160900D01*
X162100Y288200D02*X162900Y289000D01*
Y285000D01*
X162100D02*X163600D01*
X165300D02*X166800Y287000D01*
Y288500D02*Y287000D01*
X166300Y289000D02*X166800Y288500D01*
X165300Y289000D02*X166300D01*
X164800Y288500D02*X165300Y289000D01*
X164800Y288500D02*Y287500D01*
X165300Y287000D01*
X166800D01*
X120795Y291798D02*Y293098D01*
X120095Y291098D02*X120795Y291798D01*
X117495Y291098D02*X120095D01*
X117495D02*X116795Y291798D01*
Y293098D01*
X119295Y294298D02*X116795Y296298D01*
X119295Y294298D02*Y296798D01*
X116795Y296298D02*X120795D01*
X120295Y297998D02*X120795Y298498D01*
X117295Y297998D02*X120295D01*
X117295D02*X116795Y298498D01*
Y299498D01*
X117295Y299998D01*
X120295D01*
X120795Y299498D02*X120295Y299998D01*
X120795Y298498D02*Y299498D01*
X119795Y297998D02*X117795Y299998D01*
X290000Y277000D02*X290500Y276500D01*
X288500Y277000D02*X290000D01*
X288000Y276500D02*X288500Y277000D01*
X288000Y276500D02*Y273500D01*
X288500Y273000D01*
X290000D01*
X290500Y273500D01*
Y274500D02*Y273500D01*
X290000Y275000D02*X290500Y274500D01*
X289000Y275000D02*X290000D01*
X291700Y277000D02*Y273000D01*
Y277000D02*X294200Y273000D01*
Y277000D02*Y273000D01*
X295900Y277000D02*Y273000D01*
X297200Y277000D02*X297900Y276300D01*
Y273700D01*
X297200Y273000D02*X297900Y273700D01*
X295400Y273000D02*X297200D01*
X295400Y277000D02*X297200D01*
X314500Y259000D02*X316500D01*
X315500Y260000D02*Y258000D01*
X317700Y261000D02*X318700Y257000D01*
X319700Y261000D01*
X231000Y248000D02*Y245000D01*
Y248000D02*X231500Y248500D01*
X232500D01*
X233000Y248000D01*
Y245000D01*
X232500Y244500D02*X233000Y245000D01*
X231500Y244500D02*X232500D01*
X231000Y245000D02*X231500Y244500D01*
X234200Y248500D02*Y244500D01*
Y248500D02*X236200D01*
X234200Y246700D02*X235700D01*
X237400Y248500D02*Y244500D01*
Y248500D02*X239400D01*
X237400Y246700D02*X238900D01*
X242600Y248500D02*X243100Y248000D01*
X241100Y248500D02*X242600D01*
X240600Y248000D02*X241100Y248500D01*
X240600Y248000D02*Y247000D01*
X241100Y246500D01*
X242600D01*
X243100Y246000D01*
Y245000D01*
X242600Y244500D02*X243100Y245000D01*
X241100Y244500D02*X242600D01*
X240600Y245000D02*X241100Y244500D01*
X244300Y246700D02*X245800D01*
X244300Y244500D02*X246300D01*
X244300Y248500D02*Y244500D01*
Y248500D02*X246300D01*
X247500D02*X249500D01*
X248500D02*Y244500D01*
X243778Y266149D02*Y267449D01*
X243078Y265449D02*X243778Y266149D01*
X240478Y265449D02*X243078D01*
X240478D02*X239778Y266149D01*
Y267449D01*
X240278Y268649D02*X239778Y269149D01*
Y270649D01*
X240278Y271149D01*
X241278D01*
X243778Y268649D02*X241278Y271149D01*
X243778Y268649D02*Y271149D01*
X240578Y272349D02*X239778Y273149D01*
X243778D01*
Y272349D02*Y273849D01*
X234776Y253992D02*X236776D01*
X235776D02*Y249992D01*
X238476Y253992D02*Y249992D01*
X237976Y253992D02*X239976D01*
X240476Y253492D01*
Y252492D01*
X239976Y251992D02*X240476Y252492D01*
X238476Y251992D02*X239976D01*
X241676Y253492D02*X242176Y253992D01*
X243676D01*
X244176Y253492D01*
Y252492D01*
X241676Y249992D02*X244176Y252492D01*
X241676Y249992D02*X244176D01*
X312736Y266162D02*X314736D01*
X313736D02*Y262162D01*
X316437Y266162D02*Y262162D01*
X315937Y266162D02*X317937D01*
X318437Y265662D01*
Y264662D01*
X317937Y264162D02*X318437Y264662D01*
X316437Y264162D02*X317937D01*
X321137Y266162D02*X321637Y265662D01*
X320137Y266162D02*X321137D01*
X319637Y265662D02*X320137Y266162D01*
X319637Y265662D02*Y262662D01*
X320137Y262162D01*
X321137Y264362D02*X321637Y263862D01*
X319637Y264362D02*X321137D01*
X320137Y262162D02*X321137D01*
X321637Y262662D01*
Y263862D02*Y262662D01*
X314133Y293650D02*X315433D01*
X313433Y294350D02*X314133Y293650D01*
X313433Y296950D02*Y294350D01*
Y296950D02*X314133Y297650D01*
X315433D01*
X316633Y295150D02*X318633Y297650D01*
X316633Y295150D02*X319133D01*
X318633Y297650D02*Y293650D01*
X320333Y294150D02*X320833Y293650D01*
X320333Y294950D02*Y294150D01*
Y294950D02*X321033Y295650D01*
X321633D01*
X322333Y294950D01*
Y294150D01*
X321833Y293650D02*X322333Y294150D01*
X320833Y293650D02*X321833D01*
X320333Y296350D02*X321033Y295650D01*
X320333Y297150D02*Y296350D01*
Y297150D02*X320833Y297650D01*
X321833D01*
X322333Y297150D01*
Y296350D01*
X321633Y295650D02*X322333Y296350D01*
X346974Y238430D02*X345674D01*
X347674Y237730D02*X346974Y238430D01*
X347674Y235130D02*Y237730D01*
Y235130D02*X346974Y234430D01*
X345674D01*
X344474Y234930D02*Y237930D01*
Y234930D02*X343974Y234430D01*
X342974D01*
X342474Y234930D01*
Y237930D01*
X342974Y238430D02*X342474Y237930D01*
X343974Y238430D02*X342974D01*
X344474Y237930D02*X343974Y238430D01*
X341274Y234430D02*Y238430D01*
Y234430D02*X338774Y238430D01*
Y234430D02*Y238430D01*
X337574Y234430D02*Y238430D01*
Y234430D02*X335074Y238430D01*
Y234430D02*Y238430D01*
X333874Y236930D02*X331874Y234430D01*
X333874Y236930D02*X331374D01*
X331874Y234430D02*Y238430D01*
X288256Y282512D02*X290256D01*
X289256D02*Y278512D01*
X291957Y282512D02*Y278512D01*
X291457Y282512D02*X293457D01*
X293957Y282012D01*
Y281012D01*
X293457Y280512D02*X293957Y281012D01*
X291957Y280512D02*X293457D01*
X295657Y278512D02*X297657Y282512D01*
X295157D02*X297657D01*
X342333Y278650D02*X343633D01*
X341633Y279350D02*X342333Y278650D01*
X341633Y281950D02*Y279350D01*
Y281950D02*X342333Y282650D01*
X343633D01*
X344833Y281850D02*X345633Y282650D01*
Y278650D01*
X344833D02*X346333D01*
X347533Y280150D02*X349533Y282650D01*
X347533Y280150D02*X350033D01*
X349533Y282650D02*Y278650D01*
X182795Y287129D02*X184795D01*
X185295Y286629D01*
Y285629D01*
X184795Y285129D02*X185295Y285629D01*
X183295Y285129D02*X184795D01*
X183295Y287129D02*Y283129D01*
X184095Y285129D02*X185295Y283129D01*
X186495Y286629D02*X186995Y287129D01*
X188495D01*
X188995Y286629D01*
Y285629D01*
X186495Y283129D02*X188995Y285629D01*
X186495Y283129D02*X188995D01*
X190195Y286329D02*X190995Y287129D01*
Y283129D01*
X190195D02*X191695D01*
X182611Y273056D02*X184611D01*
X185111Y272556D01*
Y271556D01*
X184611Y271056D02*X185111Y271556D01*
X183111Y271056D02*X184611D01*
X183111Y273056D02*Y269056D01*
X183911Y271056D02*X185111Y269056D01*
X186311Y272556D02*X186811Y273056D01*
X188311D01*
X188811Y272556D01*
Y271556D01*
X186311Y269056D02*X188811Y271556D01*
X186311Y269056D02*X188811D01*
X190011Y269556D02*X190511Y269056D01*
X190011Y272556D02*Y269556D01*
Y272556D02*X190511Y273056D01*
X191511D01*
X192011Y272556D01*
Y269556D01*
X191511Y269056D02*X192011Y269556D01*
X190511Y269056D02*X191511D01*
X190011Y270056D02*X192011Y272056D01*
X212500Y277500D02*Y274000D01*
X213000Y273500D01*
X214000D01*
X214500Y274000D01*
Y277500D02*Y274000D01*
X215700Y277000D02*X216200Y277500D01*
X217700D01*
X218200Y277000D01*
Y276000D01*
X215700Y273500D02*X218200Y276000D01*
X215700Y273500D02*X218200D01*
X219400Y274000D02*X219900Y273500D01*
X219400Y277000D02*Y274000D01*
Y277000D02*X219900Y277500D01*
X220900D01*
X221400Y277000D01*
Y274000D01*
X220900Y273500D02*X221400Y274000D01*
X219900Y273500D02*X220900D01*
X219400Y274500D02*X221400Y276500D01*
X97795Y277298D02*Y278598D01*
X97095Y276598D02*X97795Y277298D01*
X94495Y276598D02*X97095D01*
X94495D02*X93795Y277298D01*
Y278598D01*
X96295Y279798D02*X93795Y281798D01*
X96295Y279798D02*Y282298D01*
X93795Y281798D02*X97795D01*
X94595Y283498D02*X93795Y284298D01*
X97795D01*
Y283498D02*Y284998D01*
X187145Y249150D02*X188445D01*
X186445Y249850D02*X187145Y249150D01*
X186445Y252450D02*Y249850D01*
Y252450D02*X187145Y253150D01*
X188445D01*
X189645Y252650D02*X190145Y253150D01*
X191645D01*
X192145Y252650D01*
Y251650D01*
X189645Y249150D02*X192145Y251650D01*
X189645Y249150D02*X192145D01*
X193345Y252650D02*X193845Y253150D01*
X195345D01*
X195845Y252650D01*
Y251650D01*
X193345Y249150D02*X195845Y251650D01*
X193345Y249150D02*X195845D01*
X270000Y243000D02*X274000D01*
X270000Y244300D02*X270700Y245000D01*
X273300D01*
X274000Y244300D02*X273300Y245000D01*
X274000Y242500D02*Y244300D01*
X270000Y242500D02*Y244300D01*
X274000Y246700D02*Y248200D01*
X273500Y246200D02*X274000Y246700D01*
X272500Y246200D02*X273500D01*
X272500D02*X272000Y246700D01*
Y247700D01*
X272500Y248200D01*
X273000Y246200D02*Y248200D01*
X272500D01*
X274000Y249900D02*Y251400D01*
X273500Y251900D01*
X273000Y251400D02*X273500Y251900D01*
X273000Y249900D02*Y251400D01*
X272500Y249400D02*X273000Y249900D01*
X272500Y249400D02*X272000Y249900D01*
Y251400D01*
X272500Y251900D01*
X273500Y249400D02*X274000Y249900D01*
X271000Y253100D02*X271100D01*
X272500D02*X274000D01*
X272000Y255600D02*X272500Y256100D01*
X272000Y254600D02*Y255600D01*
X272500Y254100D02*X272000Y254600D01*
X272500Y254100D02*X273500D01*
X274000Y254600D01*
Y255600D01*
X273500Y256100D01*
X275000Y254100D02*X275500Y254600D01*
Y255600D01*
X275000Y256100D01*
X272000D02*X275000D01*
X272500Y257800D02*X274000D01*
X272500D02*X272000Y258300D01*
Y258800D01*
X272500Y259300D01*
X274000D01*
X272000Y257300D02*X272500Y257800D01*
X274000Y261000D02*Y262500D01*
X273500Y260500D02*X274000Y261000D01*
X272500Y260500D02*X273500D01*
X272500D02*X272000Y261000D01*
Y262000D01*
X272500Y262500D01*
X273000Y260500D02*Y262500D01*
X272500D01*
X270000Y265700D02*X274000D01*
Y265200D02*X273500Y265700D01*
X274000Y264200D02*Y265200D01*
X273500Y263700D02*X274000Y264200D01*
X272500Y263700D02*X273500D01*
X272500D02*X272000Y264200D01*
Y265200D01*
X272500Y265700D01*
X270000Y270700D02*X274000D01*
Y270200D02*X273500Y270700D01*
X274000Y269200D02*Y270200D01*
X273500Y268700D02*X274000Y269200D01*
X272500Y268700D02*X273500D01*
X272500D02*X272000Y269200D01*
Y270200D01*
X272500Y270700D01*
X272000Y271900D02*X273500D01*
X274000Y272400D01*
Y273400D01*
X273500Y273900D01*
X272000D02*X273500D01*
X272500Y275600D02*X274000D01*
X272500D02*X272000Y276100D01*
Y277100D01*
Y275100D02*X272500Y275600D01*
X271000Y278300D02*X271100D01*
X272500D02*X274000D01*
X272500Y279800D02*X274000D01*
X272500D02*X272000Y280300D01*
Y280800D01*
X272500Y281300D01*
X274000D01*
X272000Y279300D02*X272500Y279800D01*
X272000Y284000D02*X272500Y284500D01*
X272000Y283000D02*Y284000D01*
X272500Y282500D02*X272000Y283000D01*
X272500Y282500D02*X273500D01*
X274000Y283000D01*
Y284000D01*
X273500Y284500D01*
X275000Y282500D02*X275500Y283000D01*
Y284000D01*
X275000Y284500D01*
X272000D02*X275000D01*
X274000Y288200D02*Y289500D01*
X273300Y287500D02*X274000Y288200D01*
X270700Y287500D02*X273300D01*
X270700D02*X270000Y288200D01*
Y289500D01*
X270500Y290700D02*X273500D01*
X270500D02*X270000Y291200D01*
Y292200D01*
X270500Y292700D01*
X273500D01*
X274000Y292200D02*X273500Y292700D01*
X274000Y291200D02*Y292200D01*
X273500Y290700D02*X274000Y291200D01*
X270000Y293900D02*X274000Y294900D01*
X270000Y295900D01*
Y297100D02*Y298100D01*
Y297600D02*X274000D01*
Y297100D02*Y298100D01*
X270000Y299800D02*X274000D01*
X270000Y301100D02*X270700Y301800D01*
X273300D01*
X274000Y301100D02*X273300Y301800D01*
X274000Y299300D02*Y301100D01*
X270000Y299300D02*Y301100D01*
X272000Y303000D02*Y305000D01*
X270800Y306200D02*X270000Y307000D01*
X274000D01*
Y306200D02*Y307700D01*
Y309400D02*X272000Y310900D01*
X270500D02*X272000D01*
X270000Y310400D02*X270500Y310900D01*
X270000Y309400D02*Y310400D01*
X270500Y308900D02*X270000Y309400D01*
X270500Y308900D02*X271500D01*
X272000Y309400D01*
Y310900D01*
X195934Y215897D02*Y217197D01*
X195234Y215197D02*X195934Y215897D01*
X192634Y215197D02*X195234D01*
X192634D02*X191934Y215897D01*
Y217197D01*
X192734Y218397D02*X191934Y219197D01*
X195934D01*
Y218397D02*Y219897D01*
X195434Y221097D02*X195934Y221597D01*
X192434Y221097D02*X195434D01*
X192434D02*X191934Y221597D01*
Y222597D01*
X192434Y223097D01*
X195434D01*
X195934Y222597D02*X195434Y223097D01*
X195934Y221597D02*Y222597D01*
X194934Y221097D02*X192934Y223097D01*
X205850Y214350D02*Y216350D01*
X206350Y216850D01*
X207350D01*
X207850Y216350D02*X207350Y216850D01*
X207850Y214850D02*Y216350D01*
X205850Y214850D02*X209850D01*
X207850Y215650D02*X209850Y216850D01*
X206650Y218050D02*X205850Y218850D01*
X209850D01*
Y218050D02*Y219550D01*
X209350Y220750D02*X209850Y221250D01*
X206350Y220750D02*X209350D01*
X206350D02*X205850Y221250D01*
Y222250D01*
X206350Y222750D01*
X209350D01*
X209850Y222250D02*X209350Y222750D01*
X209850Y221250D02*Y222250D01*
X208850Y220750D02*X206850Y222750D01*
X179190Y223998D02*X181190D01*
X181690Y223498D01*
Y222498D01*
X181190Y221998D02*X181690Y222498D01*
X179690Y221998D02*X181190D01*
X179690Y223998D02*Y219998D01*
X180490Y221998D02*X181690Y219998D01*
X182890Y223198D02*X183690Y223998D01*
Y219998D01*
X182890D02*X184390D01*
X185590Y223198D02*X186390Y223998D01*
Y219998D01*
X185590D02*X187090D01*
X213050Y242150D02*X214350D01*
X212350Y242850D02*X213050Y242150D01*
X212350Y245450D02*Y242850D01*
Y245450D02*X213050Y246150D01*
X214350D01*
X215550Y245650D02*X216050Y246150D01*
X217550D01*
X218050Y245650D01*
Y244650D01*
X215550Y242150D02*X218050Y244650D01*
X215550Y242150D02*X218050D01*
X219250Y245650D02*X219750Y246150D01*
X220750D01*
X221250Y245650D01*
X220750Y242150D02*X221250Y242650D01*
X219750Y242150D02*X220750D01*
X219250Y242650D02*X219750Y242150D01*
Y244350D02*X220750D01*
X221250Y245650D02*Y244850D01*
Y243850D02*Y242650D01*
Y243850D02*X220750Y244350D01*
X221250Y244850D02*X220750Y244350D01*
X213000Y210500D02*Y207000D01*
X213500Y206500D01*
X214500D01*
X215000Y207000D01*
Y210500D02*Y207000D01*
X216200Y209700D02*X217000Y210500D01*
Y206500D01*
X216200D02*X217700D01*
X218900Y207000D02*X219400Y206500D01*
X218900Y210000D02*Y207000D01*
Y210000D02*X219400Y210500D01*
X220400D01*
X220900Y210000D01*
Y207000D01*
X220400Y206500D02*X220900Y207000D01*
X219400Y206500D02*X220400D01*
X218900Y207500D02*X220900Y209500D01*
X239850Y200050D02*Y201350D01*
X239150Y199350D02*X239850Y200050D01*
X236550Y199350D02*X239150D01*
X236550D02*X235850Y200050D01*
Y201350D01*
X236650Y202550D02*X235850Y203350D01*
X239850D01*
Y202550D02*Y204050D01*
X236650Y205250D02*X235850Y206050D01*
X239850D01*
Y205250D02*Y206750D01*
X184145Y193150D02*X185445D01*
X183445Y193850D02*X184145Y193150D01*
X183445Y196450D02*Y193850D01*
Y196450D02*X184145Y197150D01*
X185445D01*
X186645Y196350D02*X187445Y197150D01*
Y193150D01*
X186645D02*X188145D01*
X189345Y196650D02*X189845Y197150D01*
X191345D01*
X191845Y196650D01*
Y195650D01*
X189345Y193150D02*X191845Y195650D01*
X189345Y193150D02*X191845D01*
X154594Y222720D02*Y224020D01*
X153894Y222020D02*X154594Y222720D01*
X151294Y222020D02*X153894D01*
X151294D02*X150594Y222720D01*
Y224020D01*
X153094Y225220D02*X150594Y227220D01*
X153094Y225220D02*Y227720D01*
X150594Y227220D02*X154594D01*
Y229420D02*X152594Y230920D01*
X151094D02*X152594D01*
X150594Y230420D02*X151094Y230920D01*
X150594Y229420D02*Y230420D01*
X151094Y228920D02*X150594Y229420D01*
X151094Y228920D02*X152094D01*
X152594Y229420D01*
Y230920D01*
X212944Y308760D02*X214244D01*
X212244Y309460D02*X212944Y308760D01*
X212244Y312060D02*Y309460D01*
Y312060D02*X212944Y312760D01*
X214244D01*
X215444Y312260D02*X215944Y312760D01*
X217444D01*
X217944Y312260D01*
Y311260D01*
X215444Y308760D02*X217944Y311260D01*
X215444Y308760D02*X217944D01*
X219144Y309260D02*X219644Y308760D01*
X219144Y312260D02*Y309260D01*
Y312260D02*X219644Y312760D01*
X220644D01*
X221144Y312260D01*
Y309260D01*
X220644Y308760D02*X221144Y309260D01*
X219644Y308760D02*X220644D01*
X219144Y309760D02*X221144Y311760D01*
X278500Y244000D02*X279000Y244500D01*
X278500Y243000D02*Y244000D01*
X279000Y242500D02*X278500Y243000D01*
X279000Y242500D02*X280000D01*
X280500Y243000D01*
X278500Y244500D02*X280000D01*
X280500Y245000D01*
Y243000D02*Y244000D01*
X280000Y244500D01*
X276500Y246700D02*X280000D01*
X280500Y247200D01*
X278000Y246200D02*Y247200D01*
X276500Y250000D02*X280500D01*
X279000D02*X278500Y250500D01*
Y251500D01*
X279000Y252000D01*
X280500D01*
X279000Y253200D02*X280000D01*
X279000D02*X278500Y253700D01*
Y254700D01*
X279000Y255200D01*
X280000D01*
X280500Y254700D02*X280000Y255200D01*
X280500Y253700D02*Y254700D01*
X280000Y253200D02*X280500Y253700D01*
X279000Y256900D02*X280500D01*
X279000D02*X278500Y257400D01*
Y257900D01*
X279000Y258400D01*
X280500D01*
X279000D02*X278500Y258900D01*
Y259400D01*
X279000Y259900D01*
X280500D01*
X278500Y256400D02*X279000Y256900D01*
X280500Y261600D02*Y263100D01*
X280000Y261100D02*X280500Y261600D01*
X279000Y261100D02*X280000D01*
X279000D02*X278500Y261600D01*
Y262600D01*
X279000Y263100D01*
X279500Y261100D02*Y263100D01*
X279000D01*
X280500Y264300D02*Y264800D01*
X276500Y267800D02*X280500D01*
X276500Y270300D02*X280500D01*
X278500Y267800D02*Y270300D01*
Y273000D02*X279000Y273500D01*
X278500Y272000D02*Y273000D01*
X279000Y271500D02*X278500Y272000D01*
X279000Y271500D02*X280000D01*
X280500Y272000D01*
X278500Y273500D02*X280000D01*
X280500Y274000D01*
Y272000D02*Y273000D01*
X280000Y273500D01*
X279000Y275700D02*X280500D01*
X279000D02*X278500Y276200D01*
Y276700D01*
X279000Y277200D01*
X280500D01*
X278500Y275200D02*X279000Y275700D01*
X278500Y279900D02*X279000Y280400D01*
X278500Y278900D02*Y279900D01*
X279000Y278400D02*X278500Y278900D01*
X279000Y278400D02*X280000D01*
X280500Y278900D01*
Y279900D01*
X280000Y280400D01*
X281500Y278400D02*X282000Y278900D01*
Y279900D01*
X281500Y280400D01*
X278500D02*X281500D01*
X277500Y283400D02*X277600D01*
X279000D02*X280500D01*
X279000Y284900D02*X280500D01*
X279000D02*X278500Y285400D01*
Y285900D01*
X279000Y286400D01*
X280500D01*
X278500Y284400D02*X279000Y284900D01*
X276500Y289900D02*X280000D01*
X280500Y290400D01*
X278000Y289400D02*Y290400D01*
X276500Y291400D02*X280500D01*
X279000D02*X278500Y291900D01*
Y292900D01*
X279000Y293400D01*
X280500D01*
Y295100D02*Y296600D01*
X280000Y294600D02*X280500Y295100D01*
X279000Y294600D02*X280000D01*
X279000D02*X278500Y295100D01*
Y296100D01*
X279000Y296600D01*
X279500Y294600D02*Y296600D01*
X279000D01*
Y298300D02*X280500D01*
X279000D02*X278500Y298800D01*
Y299800D01*
Y297800D02*X279000Y298300D01*
X280500Y301500D02*Y303000D01*
X280000Y301000D02*X280500Y301500D01*
X279000Y301000D02*X280000D01*
X279000D02*X278500Y301500D01*
Y302500D01*
X279000Y303000D01*
X279500Y301000D02*Y303000D01*
X279000D01*
X280500Y304200D02*Y304700D01*
X278500Y307700D02*Y309700D01*
X278300Y312700D02*Y314200D01*
X280500Y312700D02*Y314700D01*
X276500Y312700D02*X280500D01*
X276500D02*Y314700D01*
X278300Y315900D02*Y317400D01*
X280500Y315900D02*Y317900D01*
X276500Y315900D02*X280500D01*
X276500D02*Y317900D01*
Y319100D02*X280500D01*
X276500D02*Y321100D01*
X278300Y319100D02*Y320600D01*
X292300Y238500D02*X291000D01*
X293000Y237800D02*X292300Y238500D01*
X293000Y235200D02*Y237800D01*
Y235200D02*X292300Y234500D01*
X291000D01*
X289800Y235000D02*Y238000D01*
Y235000D02*X289300Y234500D01*
X288300D01*
X287800Y235000D01*
Y238000D01*
X288300Y238500D02*X287800Y238000D01*
X289300Y238500D02*X288300D01*
X289800Y238000D02*X289300Y238500D01*
X286600Y234500D02*Y238500D01*
Y234500D02*X284100Y238500D01*
Y234500D02*Y238500D01*
X282900Y234500D02*Y238500D01*
Y234500D02*X280400Y238500D01*
Y234500D02*Y238500D01*
X279200Y235300D02*X278400Y234500D01*
Y238500D01*
X279200D02*X277700D01*
X123256Y330012D02*X125256D01*
X124256D02*Y326012D01*
X126957Y330012D02*Y326012D01*
X126457Y330012D02*X128457D01*
X128957Y329512D01*
Y328512D01*
X128457Y328012D02*X128957Y328512D01*
X126957Y328012D02*X128457D01*
X130157Y327512D02*X132157Y330012D01*
X130157Y327512D02*X132657D01*
X132157Y330012D02*Y326012D01*
X100256Y319512D02*X102256D01*
X101256D02*Y315512D01*
X103957Y319512D02*Y315512D01*
X103457Y319512D02*X105457D01*
X105957Y319012D01*
Y318012D01*
X105457Y317512D02*X105957Y318012D01*
X103957Y317512D02*X105457D01*
X107157Y319512D02*X109157D01*
X107157D02*Y317512D01*
X107657Y318012D01*
X108657D01*
X109157Y317512D01*
Y316012D01*
X108657Y315512D02*X109157Y316012D01*
X107657Y315512D02*X108657D01*
X107157Y316012D02*X107657Y315512D01*
X86190Y339000D02*X87490D01*
X85490Y339700D02*X86190Y339000D01*
X85490Y342300D02*Y339700D01*
Y342300D02*X86190Y343000D01*
X87490D01*
X88690Y342500D02*Y339500D01*
Y342500D02*X89190Y343000D01*
X90190D01*
X90690Y342500D01*
Y339500D01*
X90190Y339000D02*X90690Y339500D01*
X89190Y339000D02*X90190D01*
X88690Y339500D02*X89190Y339000D01*
X91890Y343000D02*Y339000D01*
Y343000D02*X94390Y339000D01*
Y343000D02*Y339000D01*
X95590Y343000D02*Y339000D01*
Y343000D02*X98090Y339000D01*
Y343000D02*Y339000D01*
X99290Y340500D02*X101290Y343000D01*
X99290Y340500D02*X101790D01*
X101290Y343000D02*Y339000D01*
X102990Y339500D02*X103490Y339000D01*
X102990Y342500D02*Y339500D01*
Y342500D02*X103490Y343000D01*
X104490D01*
X104990Y342500D01*
Y339500D01*
X104490Y339000D02*X104990Y339500D01*
X103490Y339000D02*X104490D01*
X102990Y340000D02*X104990Y342000D01*
X160000Y331500D02*X160500Y331000D01*
X158500Y331500D02*X160000D01*
X158000Y331000D02*X158500Y331500D01*
X158000Y331000D02*Y330000D01*
X158500Y329500D01*
X160000D01*
X160500Y329000D01*
Y328000D01*
X160000Y327500D02*X160500Y328000D01*
X158500Y327500D02*X160000D01*
X158000Y328000D02*X158500Y327500D01*
X161700Y331500D02*Y327500D01*
Y331500D02*X163200Y329500D01*
X164700Y331500D01*
Y327500D01*
X165900Y330500D02*Y327500D01*
Y330500D02*X166600Y331500D01*
X167700D01*
X168400Y330500D01*
Y327500D01*
X165900Y329500D02*X168400D01*
X169600Y331500D02*Y327500D01*
X171600D01*
X172800Y331500D02*Y327500D01*
X174800D01*
X222350Y318050D02*Y319350D01*
X221650Y317350D02*X222350Y318050D01*
X219050Y317350D02*X221650D01*
X219050D02*X218350Y318050D01*
Y319350D01*
X220850Y320550D02*X218350Y322550D01*
X220850Y320550D02*Y323050D01*
X218350Y322550D02*X222350D01*
X218350Y324250D02*Y326250D01*
Y324250D02*X220350D01*
X219850Y324750D01*
Y325750D01*
X220350Y326250D01*
X221850D01*
X222350Y325750D02*X221850Y326250D01*
X222350Y324750D02*Y325750D01*
X221850Y324250D02*X222350Y324750D01*
X207350Y318050D02*Y319350D01*
X206650Y317350D02*X207350Y318050D01*
X204050Y317350D02*X206650D01*
X204050D02*X203350Y318050D01*
Y319350D01*
X205850Y320550D02*X203350Y322550D01*
X205850Y320550D02*Y323050D01*
X203350Y322550D02*X207350D01*
X203850Y324250D02*X203350Y324750D01*
Y325750D01*
X203850Y326250D01*
X207350Y325750D02*X206850Y326250D01*
X207350Y324750D02*Y325750D01*
X206850Y324250D02*X207350Y324750D01*
X205150D02*Y325750D01*
X203850Y326250D02*X204650D01*
X205650D02*X206850D01*
X205650D02*X205150Y325750D01*
X204650Y326250D02*X205150Y325750D01*
X161776Y336992D02*X163776D01*
X162776D02*Y332992D01*
X165476Y336992D02*Y332992D01*
X164976Y336992D02*X166976D01*
X167476Y336492D01*
Y335492D01*
X166976Y334992D02*X167476Y335492D01*
X165476Y334992D02*X166976D01*
X168676Y336192D02*X169476Y336992D01*
Y332992D01*
X168676D02*X170176D01*
X239550Y327650D02*X240850D01*
X238850Y328350D02*X239550Y327650D01*
X238850Y330950D02*Y328350D01*
Y330950D02*X239550Y331650D01*
X240850D01*
X242050Y329150D02*X244050Y331650D01*
X242050Y329150D02*X244550D01*
X244050Y331650D02*Y327650D01*
X246250D02*X248250Y331650D01*
X245750D02*X248250D01*
X164445Y359150D02*X166445D01*
X166945Y358650D01*
Y357650D01*
X166445Y357150D02*X166945Y357650D01*
X164945Y357150D02*X166445D01*
X164945Y359150D02*Y355150D01*
X165745Y357150D02*X166945Y355150D01*
X168145Y356650D02*X170145Y359150D01*
X168145Y356650D02*X170645D01*
X170145Y359150D02*Y355150D01*
X171845Y358650D02*X172345Y359150D01*
X173345D01*
X173845Y358650D01*
X173345Y355150D02*X173845Y355650D01*
X172345Y355150D02*X173345D01*
X171845Y355650D02*X172345Y355150D01*
Y357350D02*X173345D01*
X173845Y358650D02*Y357850D01*
Y356850D02*Y355650D01*
Y356850D02*X173345Y357350D01*
X173845Y357850D02*X173345Y357350D01*
X164445Y374150D02*X166445D01*
X166945Y373650D01*
Y372650D01*
X166445Y372150D02*X166945Y372650D01*
X164945Y372150D02*X166445D01*
X164945Y374150D02*Y370150D01*
X165745Y372150D02*X166945Y370150D01*
X168145Y371650D02*X170145Y374150D01*
X168145Y371650D02*X170645D01*
X170145Y374150D02*Y370150D01*
X171845Y373650D02*X172345Y374150D01*
X173845D01*
X174345Y373650D01*
Y372650D01*
X171845Y370150D02*X174345Y372650D01*
X171845Y370150D02*X174345D01*
X179326Y358767D02*Y360767D01*
X179826Y361267D01*
X180826D01*
X181326Y360767D02*X180826Y361267D01*
X181326Y359267D02*Y360767D01*
X179326Y359267D02*X183326D01*
X181326Y360067D02*X183326Y361267D01*
X181826Y362467D02*X179326Y364467D01*
X181826Y362467D02*Y364967D01*
X179326Y364467D02*X183326D01*
X179326Y366167D02*Y368167D01*
Y366167D02*X181326D01*
X180826Y366667D01*
Y367667D01*
X181326Y368167D01*
X182826D01*
X183326Y367667D02*X182826Y368167D01*
X183326Y366667D02*Y367667D01*
X182826Y366167D02*X183326Y366667D01*
X179850Y345945D02*Y347945D01*
X180350Y348445D01*
X181350D01*
X181850Y347945D02*X181350Y348445D01*
X181850Y346445D02*Y347945D01*
X179850Y346445D02*X183850D01*
X181850Y347245D02*X183850Y348445D01*
X182350Y349645D02*X179850Y351645D01*
X182350Y349645D02*Y352145D01*
X179850Y351645D02*X183850D01*
X180650Y353345D02*X179850Y354145D01*
X183850D01*
Y353345D02*Y354845D01*
X208500Y382500D02*Y379000D01*
X209000Y378500D01*
X210000D01*
X210500Y379000D01*
Y382500D02*Y379000D01*
X211700Y380000D02*X213700Y382500D01*
X211700Y380000D02*X214200D01*
X213700Y382500D02*Y378500D01*
X215400Y379000D02*X215900Y378500D01*
X215400Y382000D02*Y379000D01*
Y382000D02*X215900Y382500D01*
X216900D01*
X217400Y382000D01*
Y379000D01*
X216900Y378500D02*X217400Y379000D01*
X215900Y378500D02*X216900D01*
X215400Y379500D02*X217400Y381500D01*
X247050Y377650D02*X248350D01*
X246350Y378350D02*X247050Y377650D01*
X246350Y380950D02*Y378350D01*
Y380950D02*X247050Y381650D01*
X248350D01*
X249550Y379150D02*X251550Y381650D01*
X249550Y379150D02*X252050D01*
X251550Y381650D02*Y377650D01*
X253250Y381150D02*X253750Y381650D01*
X255250D01*
X255750Y381150D01*
Y380150D01*
X253250Y377650D02*X255750Y380150D01*
X253250Y377650D02*X255750D01*
X239955Y347150D02*X241255D01*
X239255Y347850D02*X239955Y347150D01*
X239255Y350450D02*Y347850D01*
Y350450D02*X239955Y351150D01*
X241255D01*
X242455Y348650D02*X244455Y351150D01*
X242455Y348650D02*X244955D01*
X244455Y351150D02*Y347150D01*
X247655Y351150D02*X248155Y350650D01*
X246655Y351150D02*X247655D01*
X246155Y350650D02*X246655Y351150D01*
X246155Y350650D02*Y347650D01*
X246655Y347150D01*
X247655Y349350D02*X248155Y348850D01*
X246155Y349350D02*X247655D01*
X246655Y347150D02*X247655D01*
X248155Y347650D01*
Y348850D02*Y347650D01*
X247050Y362650D02*X248350D01*
X246350Y363350D02*X247050Y362650D01*
X246350Y365950D02*Y363350D01*
Y365950D02*X247050Y366650D01*
X248350D01*
X249550Y364150D02*X251550Y366650D01*
X249550Y364150D02*X252050D01*
X251550Y366650D02*Y362650D01*
X253250Y364150D02*X255250Y366650D01*
X253250Y364150D02*X255750D01*
X255250Y366650D02*Y362650D01*
M02*
