G04 start of page 2 for group 1 layer_idx 6 *
G04 Title: (unknown), top_silk *
G04 Creator: pcb-rnd 2.2.1 *
G04 CreationDate: 2020-06-03 18:25:36 UTC *
G04 For:  *
G04 Format: Gerber/RS-274X *
G04 PCB-Dimensions: 500000 500000 *
G04 PCB-Coordinate-Origin: lower left *
%MOIN*%
%FSLAX25Y25*%
%LNTOP_SILK_NONE_1*%
%ADD65C,0.0070*%
%ADD64C,0.0394*%
%ADD63C,0.0217*%
%ADD62C,0.0400*%
%ADD61C,0.0150*%
%ADD60C,0.0080*%
%ADD59C,0.0100*%
G54D59*X119044Y323807D02*X136956D01*
G54D60*X180607Y327755D02*X181393D01*
X180607Y322245D02*X181393D01*
X321043Y325740D02*X325767D01*
X321043Y318260D02*X325767D01*
G54D59*X341544Y317193D02*Y328807D01*
X294000Y321500D02*X274000D01*
X221000Y321000D02*X201000D01*
G54D60*X167150Y320255D02*X167936D01*
G54D61*X364500Y402500D02*X306500D01*
Y343500D01*
X310500Y407500D02*X360500Y402500D01*
X310500Y410000D02*X360500Y405000D01*
X310500Y412500D02*X360500Y407500D01*
X310500Y405000D02*X335500Y402500D01*
G54D59*X289000Y375000D02*X299000D01*
X289000D02*Y385000D01*
X299000D02*X289000D01*
X299000D01*
G54D61*X306500Y343500D02*X364500D01*
Y402500D01*
G54D59*X299000Y385000D02*Y375000D01*
Y385000D01*
G54D61*X310500Y415000D02*X360500Y410000D01*
X310500Y417500D02*X360500Y412500D01*
X310500Y420000D02*X360500Y415000D01*
X310500Y430000D02*X360500Y425000D01*
X310500Y432500D02*X360500Y427500D01*
X310500Y435000D02*X360500Y430000D01*
X310500Y436400D02*X360500D01*
X321400D02*X360500Y432500D01*
X346000Y436400D02*X360500Y435000D01*
X310500Y422500D02*X360500Y417500D01*
X310500Y425000D02*X360500Y420000D01*
X310500Y427500D02*X360500Y422500D01*
G54D59*X341544Y328807D02*X359456D01*
Y317193D01*
X341544D01*
G54D60*X342720Y219118D02*Y223843D01*
G54D59*X361500Y144500D02*X311500D01*
X316500Y112300D02*X356500D01*
G54D61*X310500Y402500D02*Y436400D01*
X316500Y483500D02*Y436400D01*
G54D59*X304480Y205480D02*Y218980D01*
Y223980D02*Y237480D01*
G54D60*X300235Y191588D02*Y192374D01*
X308725Y191588D02*Y192374D01*
X314235Y191588D02*Y192374D01*
X303658Y257259D02*X308382D01*
X303658Y249780D02*X308382D01*
X294725Y191588D02*Y192374D01*
X328240Y193214D02*Y197938D01*
X335720Y193214D02*Y197938D01*
X335240Y219118D02*Y223843D01*
G54D59*X304480Y205480D02*X324480D01*
Y237480D02*Y205480D01*
X311500Y132000D02*X316500D01*
X320000D02*X323000D01*
G54D62*X316500Y136600D02*Y138800D01*
Y146500D02*Y155000D01*
G54D59*X311500Y132000D02*Y144500D01*
X330000Y132000D02*X333000D01*
G54D62*X316500Y118600D02*Y120800D01*
Y127600D02*Y129800D01*
X326500Y136600D02*Y138800D01*
Y127600D02*Y129800D01*
G54D59*X316500Y112300D02*Y132000D01*
G54D62*X336500Y118600D02*Y120800D01*
X326500Y118600D02*Y120800D01*
X336500Y127600D02*Y129800D01*
Y136600D02*Y138800D01*
G54D61*X315250Y110300D02*Y131700D01*
G54D62*X291826Y118670D02*Y120870D01*
Y127670D02*Y129870D01*
X301826Y127670D02*Y129870D01*
G54D59*Y132070D02*Y112370D01*
G54D62*Y118670D02*Y120870D01*
G54D59*X288326Y112370D02*X301826D01*
G54D61*X303076Y110670D02*Y131770D01*
G54D59*X261826Y112370D02*X301826D01*
X261826D02*Y132070D01*
G54D62*Y118670D02*Y120870D01*
Y127670D02*Y129870D01*
G54D61*X260576Y110370D02*Y131770D01*
G54D59*X265326Y132070D02*X268326D01*
X275326D02*X278326D01*
G54D62*X281826Y118670D02*Y120870D01*
X271826Y118670D02*Y120870D01*
Y127670D02*Y129870D01*
X281826Y127670D02*Y129870D01*
G54D59*X285326Y132070D02*X288326D01*
X256826D02*Y144570D01*
Y132070D02*X261826D01*
G54D62*Y136670D02*Y138870D01*
G54D59*X295326Y132070D02*X298326D01*
G54D62*X291826Y136670D02*Y138870D01*
X281826Y136670D02*Y138870D01*
X271826Y136670D02*Y138870D01*
G54D59*X306826Y144570D02*X256826D01*
X306826D02*Y132070D01*
X301826D01*
G54D62*Y136670D02*Y138870D01*
X336500Y146500D02*Y155000D01*
X326500Y146500D02*Y155000D01*
X301826Y146570D02*Y155070D01*
X291826Y146570D02*Y155070D01*
X281826Y146570D02*Y155070D01*
X271826Y146570D02*Y155070D01*
X261826Y146570D02*Y155070D01*
X336500Y110800D02*Y107600D01*
X291826Y110870D02*Y107670D01*
X281826Y110870D02*Y107670D01*
X271826Y110870D02*Y107670D01*
X261826Y110870D02*Y107670D01*
X326500Y110800D02*Y107600D01*
X316500Y110800D02*Y107600D01*
X301826Y110870D02*Y107670D01*
G54D59*X264307Y236154D02*X292653D01*
G54D63*X275330Y223949D02*X281630D01*
G54D59*X275193Y241544D02*Y259456D01*
X286807D01*
Y241544D01*
X275193D01*
X264307Y207807D02*Y236154D01*
G54D63*X278480Y218043D02*Y220012D01*
X275330D02*X281630D01*
G54D59*X324480Y237480D02*X304480D01*
X292653Y236154D02*Y207807D01*
X264307D01*
G54D63*X278480Y223949D02*Y225918D01*
G54D60*X260393Y286245D02*X259607D01*
X260745Y271607D02*Y272393D01*
X266255Y271607D02*Y272393D01*
X287760Y273733D02*Y278457D01*
X295240Y273733D02*Y278457D01*
X260393Y291755D02*X259607D01*
G54D59*X274000Y308000D02*Y321500D01*
G54D60*X273138Y337740D02*X277862D01*
X273138Y330260D02*X277862D01*
G54D59*X274000Y289500D02*X294000D01*
Y321500D02*Y289500D01*
X274000D02*Y303000D01*
G54D60*X260393Y300245D02*X259607D01*
X260393Y305755D02*X259607D01*
G54D61*X360500Y436400D02*Y402500D01*
G54D59*X361500Y144500D02*Y132000D01*
X356500D01*
G54D61*X354500Y436400D02*Y483500D01*
G54D59*X350000Y132000D02*X353000D01*
G54D62*X346500Y127600D02*Y129800D01*
Y136600D02*Y138800D01*
Y146500D02*Y155000D01*
G54D59*X356500Y132000D02*Y112300D01*
G54D62*X346500Y118600D02*Y120800D01*
X356500Y118600D02*Y120800D01*
Y127600D02*Y129800D01*
G54D61*X357750Y110600D02*Y131700D01*
G54D59*X340000Y132000D02*X343000D01*
G54D62*X356500Y136600D02*Y138800D01*
Y146500D02*Y155000D01*
G54D59*X343000Y112300D02*X356500D01*
G54D62*X346500Y110800D02*Y107600D01*
X356500Y110800D02*Y107600D01*
G54D61*X354500Y483500D02*X316500D01*
G54D59*X136956Y323807D02*Y312193D01*
X125638Y292673D02*X130362D01*
X128000Y294642D02*Y298972D01*
X132921Y307831D02*Y279484D01*
X123079D01*
X128000Y288343D02*Y292673D01*
X125638Y294642D02*X130362D01*
G54D60*X189245Y271650D02*Y272436D01*
X213260Y268543D02*Y273267D01*
X164405Y261707D02*X169129D01*
X164405Y254227D02*X169129D01*
G54D59*X187000Y207000D02*X147000D01*
X187000D02*Y247000D01*
X147000D02*X162000D01*
X172000D02*X187000D01*
X185330Y197254D02*X203243D01*
G54D60*X137905Y197707D02*X142629D01*
X211310Y235707D02*X216034D01*
X211310Y228227D02*X216034D01*
X211310Y220707D02*X216034D01*
G54D59*X203243Y197254D02*Y185640D01*
G54D60*X211310Y213227D02*X216034D01*
G54D59*X212504Y154070D02*X216504D01*
X214504Y156070D02*Y152070D01*
X211263Y168027D02*Y156413D01*
X193350Y168027D02*X211263D01*
Y156413D02*X193350D01*
Y168027D01*
G54D64*X199627Y130815D02*X194127D01*
X199627Y142626D02*X194127D01*
X199627Y128846D02*X195883D01*
X199627Y144594D02*X195883D01*
G54D59*X212526Y121720D02*X216526D01*
X214526Y123720D02*Y119720D01*
X217129Y136720D02*X221129D01*
G54D64*X199627Y126878D02*X199267D01*
X199627Y146563D02*X199267D01*
G54D59*X203243Y185640D02*X185330D01*
G54D60*X137905Y190227D02*X142629D01*
G54D59*X185330Y185640D02*Y197254D01*
X168870Y127877D02*X186783D01*
X184326Y136720D02*X188326D01*
X186326Y138720D02*Y134720D01*
X186783Y127877D02*Y116263D01*
X168870D01*
Y127877D01*
G54D60*X194755Y271650D02*Y272436D01*
G54D59*X201000Y289000D02*Y302500D01*
Y307500D02*Y321000D01*
X193350Y112027D02*X211263D01*
Y100413D01*
X193350D01*
Y112027D01*
X201000Y289000D02*X221000D01*
G54D60*X230260Y292733D02*Y297457D01*
X237740Y292733D02*Y297457D01*
X166650Y305755D02*X167436D01*
X166650Y300245D02*X167436D01*
X167150Y314745D02*X167936D01*
G54D59*X221000Y321000D02*Y289000D01*
G54D60*X220740Y268543D02*Y273267D01*
G54D64*X227805Y159976D02*X222304D01*
X227805Y161944D02*X224061D01*
X227805Y163913D02*X227445D01*
G54D59*X245307Y154070D02*X249307D01*
G54D64*X227805Y148165D02*X222304D01*
X227805Y146196D02*X224061D01*
X227805Y144228D02*X227445D01*
G54D59*X245329Y121720D02*X249329D01*
G54D64*X227827Y115815D02*X222327D01*
X227827Y113846D02*X224083D01*
X227827Y111878D02*X227467D01*
X227827Y127626D02*X222327D01*
X227827Y129594D02*X224083D01*
X227827Y131563D02*X227467D01*
G54D59*X136956Y312193D02*X119044D01*
X123079Y307831D02*X132921D01*
G54D60*X182150Y310755D02*X182936D01*
X182150Y305245D02*X182936D01*
X231760Y314543D02*Y319267D01*
X239240Y314543D02*Y319267D01*
X254650Y316755D02*X255436D01*
X254650Y311245D02*X255436D01*
G54D59*X265000Y402800D02*X241000D01*
X243000Y367500D02*Y400800D01*
X265000Y402800D02*Y400800D01*
X241000Y402800D02*Y400800D01*
X265000D01*
X243000Y367500D02*X263000D01*
Y400800D01*
X183500Y367500D02*X203500D01*
G54D62*X193500Y347500D02*Y367500D01*
G54D59*X203500D02*Y400800D01*
X205500Y402800D02*X181500D01*
X205500D02*Y400800D01*
X181500Y402800D02*Y400800D01*
X205500D01*
X183500Y367500D02*Y400800D01*
G54D61*X84490Y402500D02*Y345500D01*
X142590Y402500D02*Y345500D01*
X84490D01*
X88290Y436500D02*Y402500D01*
Y436500D02*X138790D01*
X88290Y435000D02*X138790Y430000D01*
X88290Y407500D02*X138790Y402500D01*
X88290Y404500D02*X108490Y402500D01*
X138790Y433500D02*X107490Y436500D01*
X88290Y416500D02*X138790Y411500D01*
X88290Y413500D02*X138790Y408500D01*
X88290Y410500D02*X138790Y405500D01*
X88290Y425500D02*X138790Y420500D01*
X88290Y422500D02*X138790Y417500D01*
X88290Y419500D02*X138790Y414500D01*
X84490Y402500D02*X142590D01*
X138790Y436500D02*Y402500D01*
X88290Y431500D02*X138790Y426500D01*
X88290Y428500D02*X138790Y423500D01*
G54D59*X203300Y402800D02*Y424800D01*
X183700D02*Y402800D01*
X253300Y424800D02*X252700D01*
X262800Y402800D02*Y424800D01*
X243200D02*Y402800D01*
X262800Y424800D02*X243200D01*
X255500D02*X250500D01*
X193800D02*X193200D01*
X203300D02*X183700D01*
X196000D02*X191000D01*
X250500D02*Y443300D01*
G54D62*X253000Y347500D02*Y367500D01*
G54D59*X255500Y443300D02*Y424800D01*
X191000D02*Y443300D01*
X196000D02*Y424800D01*
X119044Y312193D02*Y323807D01*
X113956Y313307D02*Y301693D01*
X123079Y279484D02*Y307831D01*
G54D60*X118000Y230707D02*X122724D01*
X118000Y223227D02*X122724D01*
X118000Y245707D02*X122724D01*
X118000Y238227D02*X122724D01*
X118000Y215707D02*X122724D01*
X118000Y208227D02*X122724D01*
X118000Y200707D02*X122724D01*
X118000Y193227D02*X122724D01*
G54D59*X88577Y106331D02*Y179165D01*
X143695D01*
Y176213D01*
X112199Y144716D02*X120073D01*
X116136Y140779D02*Y113220D01*
Y144716D02*Y172276D01*
X143695Y106331D02*X88577D01*
X143695D02*Y109283D01*
Y168339D02*Y117157D01*
X112199Y140779D02*X120073D01*
X149601Y172276D02*X116136D01*
X145664Y106331D02*X147632D01*
X149601Y113220D02*X116136D01*
X147632Y106331D02*Y108299D01*
Y125031D02*Y127984D01*
Y118142D02*Y121094D01*
Y164401D02*Y167354D01*
Y157512D02*Y160464D01*
Y150622D02*Y153575D01*
X145664Y179165D02*X147632D01*
Y177197D02*Y179165D01*
Y131921D02*Y134874D01*
Y138811D02*Y140779D01*
Y144716D02*Y146685D01*
X147000Y247000D02*Y207000D01*
X96044Y313307D02*X113956D01*
Y301693D02*X96044D01*
Y313307D01*
X100079Y264984D02*Y293331D01*
X109921D01*
X102638Y278173D02*X107362D01*
X102638Y280142D02*X107362D01*
X109921Y293331D02*Y264984D01*
X100079D01*
X105000Y273843D02*Y278173D01*
Y280142D02*Y284472D01*
G54D61*X91740Y485500D02*Y436500D01*
Y485500D02*X135340D01*
Y436500D01*
G54D59*X253000Y445800D02*G75*G03X250500Y443300I0J-2500D01*G01*
X196000D02*G75*G03X193500Y445800I-2500J0D01*G01*
G75*G03X191000Y443300I0J-2500D01*G01*
X201000Y302500D02*G75*G03X201000Y307500I0J2500D01*G01*
X255500Y443300D02*G75*G03X253000Y445800I-2500J0D01*G01*
X304480Y218980D02*G75*G03X304480Y223980I0J2500D01*G01*
X274000Y303000D02*G75*G03X274000Y308000I0J2500D01*G01*
X143695Y117157D02*G75*G02X143695Y109283I0J-3937D01*G01*
Y176213D02*G75*G02X143695Y168339I0J-3937D01*G01*
X162000Y247000D02*G75*G03X172000Y247000I5000J0D01*G01*
X218504Y154070D02*G75*G03X243307Y154070I12402J0D01*G01*
G75*G03X218504Y154070I-12402J0D01*G01*
X218526Y121720D02*G75*G03X243329Y121720I12402J0D01*G01*
G75*G03X218526Y121720I-12402J0D01*G01*
X190326Y136720D02*G75*G03X215129Y136720I12402J0D01*G01*
G75*G03X190326Y136720I-12402J0D01*G01*
G54D65*X306500Y339000D02*X307500Y340000D01*
X306500Y339000D02*X307500Y338000D01*
X309700Y339000D02*Y338500D01*
Y337500D02*Y337000D01*
X308700Y340500D02*Y340000D01*
Y340500D02*X309200Y341000D01*
X310200D01*
X310700Y340500D01*
Y340000D01*
X309700Y339000D02*X310700Y340000D01*
X311900D02*X312900Y339000D01*
X311900Y338000D02*X312900Y339000D01*
X286500Y369700D02*Y371000D01*
X285800Y369000D02*X286500Y369700D01*
X283200Y369000D02*X285800D01*
X283200D02*X282500Y369700D01*
Y371000D01*
Y372200D02*X286500D01*
X282500Y374700D02*X286500D01*
X284500Y372200D02*Y374700D01*
X283500Y375900D02*X286500D01*
X283500D02*X282500Y376600D01*
Y377700D01*
X283500Y378400D01*
X286500D01*
X284500Y375900D02*Y378400D01*
X282500Y381600D02*X283000Y382100D01*
X282500Y380100D02*Y381600D01*
X283000Y379600D02*X282500Y380100D01*
X283000Y379600D02*X284000D01*
X284500Y380100D01*
Y381600D01*
X285000Y382100D01*
X286000D01*
X286500Y381600D02*X286000Y382100D01*
X286500Y380100D02*Y381600D01*
X286000Y379600D02*X286500Y380100D01*
X282500Y385300D02*X283000Y385800D01*
X282500Y383800D02*Y385300D01*
X283000Y383300D02*X282500Y383800D01*
X283000Y383300D02*X284000D01*
X284500Y383800D01*
Y385300D01*
X285000Y385800D01*
X286000D01*
X286500Y385300D02*X286000Y385800D01*
X286500Y383800D02*Y385300D01*
X286000Y383300D02*X286500Y383800D01*
X282500Y387000D02*Y388000D01*
Y387500D02*X286500D01*
Y387000D02*Y388000D01*
X282500Y391200D02*X283000Y391700D01*
X282500Y389700D02*Y391200D01*
X283000Y389200D02*X282500Y389700D01*
X283000Y389200D02*X284000D01*
X284500Y389700D01*
Y391200D01*
X285000Y391700D01*
X286000D01*
X286500Y391200D02*X286000Y391700D01*
X286500Y389700D02*Y391200D01*
X286000Y389200D02*X286500Y389700D01*
X307200Y337000D02*X308500D01*
X306500Y337700D02*X307200Y337000D01*
X306500Y340300D02*Y337700D01*
Y340300D02*X307200Y341000D01*
X308500D01*
X309700Y340500D02*Y337500D01*
Y340500D02*X310200Y341000D01*
X311200D01*
X311700Y340500D01*
Y337500D01*
X311200Y337000D02*X311700Y337500D01*
X310200Y337000D02*X311200D01*
X309700Y337500D02*X310200Y337000D01*
X312900Y341000D02*Y337000D01*
Y341000D02*X315400Y337000D01*
Y341000D02*Y337000D01*
X316600Y341000D02*Y337000D01*
Y341000D02*X319100Y337000D01*
Y341000D02*Y337000D01*
X320300Y340200D02*X321100Y341000D01*
Y337000D01*
X320300D02*X321800D01*
X323000Y337500D02*X323500Y337000D01*
X323000Y340500D02*Y337500D01*
Y340500D02*X323500Y341000D01*
X324500D01*
X325000Y340500D01*
Y337500D01*
X324500Y337000D02*X325000Y337500D01*
X323500Y337000D02*X324500D01*
X323000Y338000D02*X325000Y340000D01*
X263000Y361500D02*X262500Y362000D01*
X264500Y361500D02*X263000D01*
X265000Y362000D02*X264500Y361500D01*
X265000Y362000D02*Y363000D01*
X264500Y363500D01*
X263000D01*
X262500Y364000D01*
Y365000D01*
X263000Y365500D02*X262500Y365000D01*
X264500Y365500D02*X263000D01*
X265000Y365000D02*X264500Y365500D01*
X261300Y362300D02*X260500Y361500D01*
Y365500D01*
X261300D02*X259800D01*
X258600Y365000D02*X258100Y365500D01*
X258600Y362000D02*Y365000D01*
Y362000D02*X258100Y361500D01*
X257100D01*
X256600Y362000D01*
Y365000D01*
X257100Y365500D02*X256600Y365000D01*
X258100Y365500D02*X257100D01*
X258600Y364500D02*X256600Y362500D01*
X281000Y373200D02*Y374500D01*
X280300Y372500D02*X281000Y373200D01*
X277700Y372500D02*X280300D01*
X277700D02*X277000Y373200D01*
Y374500D01*
X277500Y375700D02*X280500D01*
X277500D02*X277000Y376200D01*
Y377200D01*
X277500Y377700D01*
X280500D01*
X281000Y377200D02*X280500Y377700D01*
X281000Y376200D02*Y377200D01*
X280500Y375700D02*X281000Y376200D01*
X277000Y378900D02*X281000D01*
X277000D02*X281000Y381400D01*
X277000D02*X281000D01*
X277000Y382600D02*X281000D01*
X277000D02*X281000Y385100D01*
X277000D02*X281000D01*
X277000Y386300D02*Y388300D01*
Y386300D02*X279000D01*
X278500Y386800D01*
Y387800D01*
X279000Y388300D01*
X280500D01*
X281000Y387800D02*X280500Y388300D01*
X281000Y386800D02*Y387800D01*
X280500Y386300D02*X281000Y386800D01*
X272050Y339650D02*X273350D01*
X271350Y340350D02*X272050Y339650D01*
X271350Y342950D02*Y340350D01*
Y342950D02*X272050Y343650D01*
X273350D01*
X274550Y342850D02*X275350Y343650D01*
Y339650D01*
X274550D02*X276050D01*
X277250Y342850D02*X278050Y343650D01*
Y339650D01*
X277250D02*X278750D01*
X352500Y334500D02*Y331500D01*
Y334500D02*X353000Y335000D01*
X354000D01*
X354500Y334500D01*
Y331500D01*
X354000Y331000D02*X354500Y331500D01*
X353000Y331000D02*X354000D01*
X352500Y331500D02*X353000Y331000D01*
X355700Y335000D02*Y331500D01*
X356200Y331000D01*
X357200D01*
X357700Y331500D01*
Y335000D02*Y331500D01*
X358900Y335000D02*X360900D01*
X359900D02*Y331000D01*
X318755Y331650D02*X320755D01*
X321255Y331150D01*
Y330150D01*
X320755Y329650D02*X321255Y330150D01*
X319255Y329650D02*X320755D01*
X319255Y331650D02*Y327650D01*
X320055Y329650D02*X321255Y327650D01*
X322455Y330850D02*X323255Y331650D01*
Y327650D01*
X322455D02*X323955D01*
X325155Y331150D02*X325655Y331650D01*
X327155D01*
X327655Y331150D01*
Y330150D01*
X325155Y327650D02*X327655Y330150D01*
X325155Y327650D02*X327655D01*
X339756Y335012D02*X341756D01*
X340756D02*Y331012D01*
X343457Y335012D02*Y331012D01*
X342957Y335012D02*X344957D01*
X345457Y334512D01*
Y333512D01*
X344957Y333012D02*X345457Y333512D01*
X343457Y333012D02*X344957D01*
X347157Y331012D02*X348657Y333012D01*
Y334512D02*Y333012D01*
X348157Y335012D02*X348657Y334512D01*
X347157Y335012D02*X348157D01*
X346657Y334512D02*X347157Y335012D01*
X346657Y334512D02*Y333512D01*
X347157Y333012D01*
X348657D01*
X203500Y361500D02*X203000Y362000D01*
X205000Y361500D02*X203500D01*
X205500Y362000D02*X205000Y361500D01*
X205500Y362000D02*Y363000D01*
X205000Y363500D01*
X203500D01*
X203000Y364000D01*
Y365000D01*
X203500Y365500D02*X203000Y365000D01*
X205000Y365500D02*X203500D01*
X205500Y365000D02*X205000Y365500D01*
X200300Y361500D02*X199800Y362000D01*
X201300Y361500D02*X200300D01*
X201800Y362000D02*X201300Y361500D01*
X201800Y362000D02*Y365000D01*
X201300Y365500D01*
X200300Y363300D02*X199800Y363800D01*
X201800Y363300D02*X200300D01*
X201300Y365500D02*X200300D01*
X199800Y365000D01*
Y363800D02*Y365000D01*
X198600D02*X198100Y365500D01*
X198600Y362000D02*Y365000D01*
Y362000D02*X198100Y361500D01*
X197100D01*
X196600Y362000D01*
Y365000D01*
X197100Y365500D02*X196600Y365000D01*
X198100Y365500D02*X197100D01*
X198600Y364500D02*X196600Y362500D01*
X115212Y236617D02*X117212D01*
X117712Y236117D01*
Y235117D01*
X117212Y234617D02*X117712Y235117D01*
X115712Y234617D02*X117212D01*
X115712Y236617D02*Y232617D01*
X116512Y234617D02*X117712Y232617D01*
X118912Y234117D02*X120912Y236617D01*
X118912Y234117D02*X121412D01*
X120912Y236617D02*Y232617D01*
X122612Y236117D02*X123112Y236617D01*
X124112D01*
X124612Y236117D01*
X124112Y232617D02*X124612Y233117D01*
X123112Y232617D02*X124112D01*
X122612Y233117D02*X123112Y232617D01*
Y234817D02*X124112D01*
X124612Y236117D02*Y235317D01*
Y234317D02*Y233117D01*
Y234317D02*X124112Y234817D01*
X124612Y235317D02*X124112Y234817D01*
X115212Y251617D02*X117212D01*
X117712Y251117D01*
Y250117D01*
X117212Y249617D02*X117712Y250117D01*
X115712Y249617D02*X117212D01*
X115712Y251617D02*Y247617D01*
X116512Y249617D02*X117712Y247617D01*
X118912Y249117D02*X120912Y251617D01*
X118912Y249117D02*X121412D01*
X120912Y251617D02*Y247617D01*
X122612Y251117D02*X123112Y251617D01*
X124612D01*
X125112Y251117D01*
Y250117D01*
X122612Y247617D02*X125112Y250117D01*
X122612Y247617D02*X125112D01*
X116412Y217617D02*X117712D01*
X115712Y218317D02*X116412Y217617D01*
X115712Y220917D02*Y218317D01*
Y220917D02*X116412Y221617D01*
X117712D01*
X118912Y219117D02*X120912Y221617D01*
X118912Y219117D02*X121412D01*
X120912Y221617D02*Y217617D01*
X122612Y221617D02*X124612D01*
X122612D02*Y219617D01*
X123112Y220117D01*
X124112D01*
X124612Y219617D01*
Y218117D01*
X124112Y217617D02*X124612Y218117D01*
X123112Y217617D02*X124112D01*
X122612Y218117D02*X123112Y217617D01*
X116412Y202617D02*X117712D01*
X115712Y203317D02*X116412Y202617D01*
X115712Y205917D02*Y203317D01*
Y205917D02*X116412Y206617D01*
X117712D01*
X118912Y204117D02*X120912Y206617D01*
X118912Y204117D02*X121412D01*
X120912Y206617D02*Y202617D01*
X122612Y206117D02*X123112Y206617D01*
X124112D01*
X124612Y206117D01*
X124112Y202617D02*X124612Y203117D01*
X123112Y202617D02*X124112D01*
X122612Y203117D02*X123112Y202617D01*
Y204817D02*X124112D01*
X124612Y206117D02*Y205317D01*
Y204317D02*Y203117D01*
Y204317D02*X124112Y204817D01*
X124612Y205317D02*X124112Y204817D01*
X187767Y203467D02*X188267Y202967D01*
X186267Y203467D02*X187767D01*
X185767Y202967D02*X186267Y203467D01*
X185767Y202967D02*Y201967D01*
X186267Y201467D01*
X187767D01*
X188267Y200967D01*
Y199967D01*
X187767Y199467D02*X188267Y199967D01*
X186267Y199467D02*X187767D01*
X185767Y199967D02*X186267Y199467D01*
X189467Y203467D02*Y199467D01*
Y203467D02*X190967Y201467D01*
X192467Y203467D01*
Y199467D01*
X193667Y202467D02*Y199467D01*
Y202467D02*X194367Y203467D01*
X195467D01*
X196167Y202467D01*
Y199467D01*
X193667Y201467D02*X196167D01*
X197367Y203467D02*Y199467D01*
X199367D01*
X200567Y203467D02*Y199467D01*
X202567D01*
X204826Y172070D02*X206826D01*
X208026Y174070D02*X209026Y170070D01*
X210026Y174070D01*
X162500Y253000D02*Y249500D01*
X163000Y249000D01*
X164000D01*
X164500Y249500D01*
Y253000D02*Y249500D01*
X165700Y250500D02*X167700Y253000D01*
X165700Y250500D02*X168200D01*
X167700Y253000D02*Y249000D01*
X169400Y249500D02*X169900Y249000D01*
X169400Y252500D02*Y249500D01*
Y252500D02*X169900Y253000D01*
X170900D01*
X171400Y252500D01*
Y249500D01*
X170900Y249000D02*X171400Y249500D01*
X169900Y249000D02*X170900D01*
X169400Y250000D02*X171400Y252000D01*
X189543Y208959D02*X191543D01*
X190543D02*Y204959D01*
X193243Y208959D02*Y204959D01*
X192743Y208959D02*X194743D01*
X195243Y208459D01*
Y207459D01*
X194743Y206959D02*X195243Y207459D01*
X193243Y206959D02*X194743D01*
X196443Y208159D02*X197243Y208959D01*
Y204959D01*
X196443D02*X197943D01*
X192563Y174232D02*X194563D01*
X193563D02*Y170232D01*
X196263Y174232D02*Y170232D01*
X195763Y174232D02*X197763D01*
X198263Y173732D01*
Y172732D01*
X197763Y172232D02*X198263Y172732D01*
X196263Y172232D02*X197763D01*
X199463Y170732D02*X199963Y170232D01*
X199463Y171532D02*Y170732D01*
Y171532D02*X200163Y172232D01*
X200763D01*
X201463Y171532D01*
Y170732D01*
X200963Y170232D02*X201463Y170732D01*
X199963Y170232D02*X200963D01*
X199463Y172932D02*X200163Y172232D01*
X199463Y173732D02*Y172932D01*
Y173732D02*X199963Y174232D01*
X200963D01*
X201463Y173732D01*
Y172932D01*
X200763Y172232D02*X201463Y172932D01*
X209722Y237617D02*X211022D01*
X209022Y238317D02*X209722Y237617D01*
X209022Y240917D02*Y238317D01*
Y240917D02*X209722Y241617D01*
X211022D01*
X212222Y239117D02*X214222Y241617D01*
X212222Y239117D02*X214722D01*
X214222Y241617D02*Y237617D01*
X215922Y239117D02*X217922Y241617D01*
X215922Y239117D02*X218422D01*
X217922Y241617D02*Y237617D01*
X209722Y222617D02*X211022D01*
X209022Y223317D02*X209722Y222617D01*
X209022Y225917D02*Y223317D01*
Y225917D02*X209722Y226617D01*
X211022D01*
X212222Y224117D02*X214222Y226617D01*
X212222Y224117D02*X214722D01*
X214222Y226617D02*Y222617D01*
X215922Y226117D02*X216422Y226617D01*
X217922D01*
X218422Y226117D01*
Y225117D01*
X215922Y222617D02*X218422Y225117D01*
X215922Y222617D02*X218422D01*
X136317Y199617D02*X137617D01*
X135617Y200317D02*X136317Y199617D01*
X135617Y202917D02*Y200317D01*
Y202917D02*X136317Y203617D01*
X137617D01*
X138817Y201117D02*X140817Y203617D01*
X138817Y201117D02*X141317D01*
X140817Y203617D02*Y199617D01*
X143017D02*X145017Y203617D01*
X142517D02*X145017D01*
X227137Y168070D02*X228437D01*
X226437Y168770D02*X227137Y168070D01*
X226437Y171370D02*Y168770D01*
Y171370D02*X227137Y172070D01*
X228437D01*
X229637Y171270D02*X230437Y172070D01*
Y168070D01*
X229637D02*X231137D01*
X232337Y171570D02*X232837Y172070D01*
X233837D01*
X234337Y171570D01*
X233837Y168070D02*X234337Y168570D01*
X232837Y168070D02*X233837D01*
X232337Y168570D02*X232837Y168070D01*
Y170270D02*X233837D01*
X234337Y171570D02*Y170770D01*
Y169770D02*Y168570D01*
Y169770D02*X233837Y170270D01*
X234337Y170770D02*X233837Y170270D01*
X174826Y134070D02*X175326Y133570D01*
X173326Y134070D02*X174826D01*
X172826Y133570D02*X173326Y134070D01*
X172826Y133570D02*Y130570D01*
X173326Y130070D01*
X174826D01*
X175326Y130570D01*
Y131570D02*Y130570D01*
X174826Y132070D02*X175326Y131570D01*
X173826Y132070D02*X174826D01*
X176526Y134070D02*Y130070D01*
Y134070D02*X179026Y130070D01*
Y134070D02*Y130070D01*
X180726Y134070D02*Y130070D01*
X182026Y134070D02*X182726Y133370D01*
Y130770D01*
X182026Y130070D02*X182726Y130770D01*
X180226Y130070D02*X182026D01*
X180226Y134070D02*X182026D01*
X154601Y140495D02*Y141795D01*
X153901Y139795D02*X154601Y140495D01*
X151301Y139795D02*X153901D01*
X151301D02*X150601Y140495D01*
Y141795D01*
X153101Y142995D02*X150601Y144995D01*
X153101Y142995D02*Y145495D01*
X150601Y144995D02*X154601D01*
Y147195D02*X152601Y148695D01*
X151101D02*X152601D01*
X150601Y148195D02*X151101Y148695D01*
X150601Y147195D02*Y148195D01*
X151101Y146695D02*X150601Y147195D01*
X151101Y146695D02*X152101D01*
X152601Y147195D01*
Y148695D01*
X173083Y139582D02*X175083D01*
X174083D02*Y135582D01*
X176783Y139582D02*Y135582D01*
X176283Y139582D02*X178283D01*
X178783Y139082D01*
Y138082D01*
X178283Y137582D02*X178783Y138082D01*
X176783Y137582D02*X178283D01*
X180483Y135582D02*X182483Y139582D01*
X179983D02*X182483D01*
X199326Y116070D02*X201326D01*
X200326Y117070D02*Y115070D01*
X202526Y118070D02*X203526Y114070D01*
X204526Y118070D01*
X197563Y123232D02*X199563D01*
X198563D02*Y119232D01*
X201263Y123232D02*Y119232D01*
X200763Y123232D02*X202763D01*
X203263Y122732D01*
Y121732D01*
X202763Y121232D02*X203263Y121732D01*
X201263Y121232D02*X202763D01*
X205963Y123232D02*X206463Y122732D01*
X204963Y123232D02*X205963D01*
X204463Y122732D02*X204963Y123232D01*
X204463Y122732D02*Y119732D01*
X204963Y119232D01*
X205963Y121432D02*X206463Y120932D01*
X204463Y121432D02*X205963D01*
X204963Y119232D02*X205963D01*
X206463Y119732D01*
Y120932D02*Y119732D01*
X227159Y135720D02*X228459D01*
X226459Y136420D02*X227159Y135720D01*
X226459Y139020D02*Y136420D01*
Y139020D02*X227159Y139720D01*
X228459D01*
X229659Y138920D02*X230459Y139720D01*
Y135720D01*
X229659D02*X231159D01*
X232359Y137220D02*X234359Y139720D01*
X232359Y137220D02*X234859D01*
X234359Y139720D02*Y135720D01*
X198959Y150720D02*X200259D01*
X198259Y151420D02*X198959Y150720D01*
X198259Y154020D02*Y151420D01*
Y154020D02*X198959Y154720D01*
X200259D01*
X201459Y152220D02*X203459Y154720D01*
X201459Y152220D02*X203959D01*
X203459Y154720D02*Y150720D01*
X205159Y151220D02*X205659Y150720D01*
X205159Y152020D02*Y151220D01*
Y152020D02*X205859Y152720D01*
X206459D01*
X207159Y152020D01*
Y151220D01*
X206659Y150720D02*X207159Y151220D01*
X205659Y150720D02*X206659D01*
X205159Y153420D02*X205859Y152720D01*
X205159Y154220D02*Y153420D01*
Y154220D02*X205659Y154720D01*
X206659D01*
X207159Y154220D01*
Y153420D01*
X206459Y152720D02*X207159Y153420D01*
X123256Y330012D02*X125256D01*
X124256D02*Y326012D01*
X126957Y330012D02*Y326012D01*
X126457Y330012D02*X128457D01*
X128957Y329512D01*
Y328512D01*
X128457Y328012D02*X128957Y328512D01*
X126957Y328012D02*X128457D01*
X130157Y327512D02*X132157Y330012D01*
X130157Y327512D02*X132657D01*
X132157Y330012D02*Y326012D01*
X100256Y319512D02*X102256D01*
X101256D02*Y315512D01*
X103957Y319512D02*Y315512D01*
X103457Y319512D02*X105457D01*
X105957Y319012D01*
Y318012D01*
X105457Y317512D02*X105957Y318012D01*
X103957Y317512D02*X105457D01*
X107157Y319512D02*X109157D01*
X107157D02*Y317512D01*
X107657Y318012D01*
X108657D01*
X109157Y317512D01*
Y316012D01*
X108657Y315512D02*X109157Y316012D01*
X107657Y315512D02*X108657D01*
X107157Y316012D02*X107657Y315512D01*
X86240Y339000D02*X87540D01*
X85540Y339700D02*X86240Y339000D01*
X85540Y342300D02*Y339700D01*
Y342300D02*X86240Y343000D01*
X87540D01*
X88740Y342500D02*Y339500D01*
Y342500D02*X89240Y343000D01*
X90240D01*
X90740Y342500D01*
Y339500D01*
X90240Y339000D02*X90740Y339500D01*
X89240Y339000D02*X90240D01*
X88740Y339500D02*X89240Y339000D01*
X91940Y343000D02*Y339000D01*
Y343000D02*X94440Y339000D01*
Y343000D02*Y339000D01*
X95640Y343000D02*Y339000D01*
Y343000D02*X98140Y339000D01*
Y343000D02*Y339000D01*
X99340Y340500D02*X101340Y343000D01*
X99340Y340500D02*X101840D01*
X101340Y343000D02*Y339000D01*
X103040Y339500D02*X103540Y339000D01*
X103040Y342500D02*Y339500D01*
Y342500D02*X103540Y343000D01*
X104540D01*
X105040Y342500D01*
Y339500D01*
X104540Y339000D02*X105040Y339500D01*
X103540Y339000D02*X104540D01*
X103040Y340000D02*X105040Y342000D01*
X305000Y306200D02*X306500D01*
X305000Y304000D02*X307000D01*
X305000Y308000D02*Y304000D01*
Y308000D02*X307000D01*
X309700Y306000D02*X310200Y305500D01*
X308700Y306000D02*X309700D01*
X308200Y305500D02*X308700Y306000D01*
X308200Y305500D02*Y304500D01*
X308700Y304000D01*
X310200Y306000D02*Y304500D01*
X310700Y304000D01*
X308700D02*X309700D01*
X310200Y304500D01*
X312400Y308000D02*Y304500D01*
X312900Y304000D01*
X311900Y306500D02*X312900D01*
X313900Y305500D02*Y304500D01*
Y305500D02*X314400Y306000D01*
X315400D01*
X315900Y305500D01*
Y304500D01*
X315400Y304000D02*X315900Y304500D01*
X314400Y304000D02*X315400D01*
X313900Y304500D02*X314400Y304000D01*
X317600Y305500D02*Y304000D01*
Y305500D02*X318100Y306000D01*
X318600D01*
X319100Y305500D01*
Y304000D01*
X317100Y306000D02*X317600Y305500D01*
X322600Y308000D02*Y304000D01*
X322100Y308000D02*X324100D01*
X324600Y307500D01*
Y306500D01*
X324100Y306000D02*X324600Y306500D01*
X322600Y306000D02*X324100D01*
X326300Y304000D02*X327800D01*
X325800Y304500D02*X326300Y304000D01*
X325800Y305500D02*Y304500D01*
Y305500D02*X326300Y306000D01*
X327300D01*
X327800Y305500D01*
X325800Y305000D02*X327800D01*
Y305500D01*
X330500Y306000D02*X331000Y305500D01*
X329500Y306000D02*X330500D01*
X329000Y305500D02*X329500Y306000D01*
X329000Y305500D02*Y304500D01*
X329500Y304000D01*
X331000Y306000D02*Y304500D01*
X331500Y304000D01*
X329500D02*X330500D01*
X331000Y304500D01*
X332700Y308000D02*Y304000D01*
Y304500D02*X333200Y304000D01*
X334200D01*
X334700Y304500D01*
Y305500D02*Y304500D01*
X334200Y306000D02*X334700Y305500D01*
X333200Y306000D02*X334200D01*
X332700Y305500D02*X333200Y306000D01*
X335900Y305500D02*Y304500D01*
Y305500D02*X336400Y306000D01*
X337400D01*
X337900Y305500D01*
Y304500D01*
X337400Y304000D02*X337900Y304500D01*
X336400Y304000D02*X337400D01*
X335900Y304500D02*X336400Y304000D01*
X341100Y308000D02*Y304000D01*
X340600D02*X341100Y304500D01*
X339600Y304000D02*X340600D01*
X339100Y304500D02*X339600Y304000D01*
X339100Y305500D02*Y304500D01*
Y305500D02*X339600Y306000D01*
X340600D01*
X341100Y305500D01*
X342300Y306000D02*Y304500D01*
X342800Y304000D01*
X344300Y306000D02*Y303000D01*
X343800Y302500D02*X344300Y303000D01*
X342800Y302500D02*X343800D01*
X342300Y303000D02*X342800Y302500D01*
Y304000D02*X343800D01*
X344300Y304500D01*
X347300Y308000D02*Y304000D01*
X349300D01*
X352000Y306000D02*X352500Y305500D01*
X351000Y306000D02*X352000D01*
X350500Y305500D02*X351000Y306000D01*
X350500Y305500D02*Y304500D01*
X351000Y304000D01*
X352500Y306000D02*Y304500D01*
X353000Y304000D01*
X351000D02*X352000D01*
X352500Y304500D01*
X354200Y308000D02*Y304000D01*
Y304500D02*X354700Y304000D01*
X355700D01*
X356200Y304500D01*
Y305500D02*Y304500D01*
X355700Y306000D02*X356200Y305500D01*
X354700Y306000D02*X355700D01*
X354200Y305500D02*X354700Y306000D01*
X178971Y312122D02*X180271D01*
X178271Y312822D02*X178971Y312122D01*
X178271Y315422D02*Y312822D01*
Y315422D02*X178971Y316122D01*
X180271D01*
X182971D02*X183471Y315622D01*
X181971Y316122D02*X182971D01*
X181471Y315622D02*X181971Y316122D01*
X181471Y315622D02*Y312622D01*
X181971Y312122D01*
X182971Y314322D02*X183471Y313822D01*
X181471Y314322D02*X182971D01*
X181971Y312122D02*X182971D01*
X183471Y312622D01*
Y313822D02*Y312622D01*
X184671Y315622D02*X185171Y316122D01*
X186671D01*
X187171Y315622D01*
Y314622D01*
X184671Y312122D02*X187171Y314622D01*
X184671Y312122D02*X187171D01*
X177355Y329367D02*X178655D01*
X176655Y330067D02*X177355Y329367D01*
X176655Y332667D02*Y330067D01*
Y332667D02*X177355Y333367D01*
X178655D01*
X181355D02*X181855Y332867D01*
X180355Y333367D02*X181355D01*
X179855Y332867D02*X180355Y333367D01*
X179855Y332867D02*Y329867D01*
X180355Y329367D01*
X181355Y331567D02*X181855Y331067D01*
X179855Y331567D02*X181355D01*
X180355Y329367D02*X181355D01*
X181855Y329867D01*
Y331067D02*Y329867D01*
X183055Y332567D02*X183855Y333367D01*
Y329367D01*
X183055D02*X184555D01*
X268500Y301500D02*X272000D01*
X272500Y302000D01*
Y303000D01*
X272000Y303500D01*
X268500D02*X272000D01*
X269300Y304700D02*X268500Y305500D01*
X272500D01*
Y304700D02*Y306200D01*
X272000Y307400D02*X272500Y307900D01*
X269000Y307400D02*X272000D01*
X269000D02*X268500Y307900D01*
Y308900D01*
X269000Y309400D01*
X272000D01*
X272500Y308900D02*X272000Y309400D01*
X272500Y307900D02*Y308900D01*
X271500Y307400D02*X269500Y309400D01*
X230350Y313455D02*Y314755D01*
X229650Y312755D02*X230350Y313455D01*
X227050Y312755D02*X229650D01*
X227050D02*X226350Y313455D01*
Y314755D01*
Y317455D02*X226850Y317955D01*
X226350Y316455D02*Y317455D01*
X226850Y315955D02*X226350Y316455D01*
X226850Y315955D02*X229850D01*
X230350Y316455D01*
X228150Y317455D02*X228650Y317955D01*
X228150Y315955D02*Y317455D01*
X230350Y316455D02*Y317455D01*
X229850Y317955D01*
X228650D02*X229850D01*
X228850Y319155D02*X226350Y321155D01*
X228850Y319155D02*Y321655D01*
X226350Y321155D02*X230350D01*
X251967Y318489D02*X253267D01*
X251267Y319189D02*X251967Y318489D01*
X251267Y321789D02*Y319189D01*
Y321789D02*X251967Y322489D01*
X253267D01*
X254467Y321689D02*X255267Y322489D01*
Y318489D01*
X254467D02*X255967D01*
X257167Y322489D02*X259167D01*
X257167D02*Y320489D01*
X257667Y320989D01*
X258667D01*
X259167Y320489D01*
Y318989D01*
X258667Y318489D02*X259167Y318989D01*
X257667Y318489D02*X258667D01*
X257167Y318989D02*X257667Y318489D01*
X195500Y301000D02*X199000D01*
X199500Y301500D01*
Y302500D01*
X199000Y303000D01*
X195500D02*X199000D01*
X195500Y305700D02*X196000Y306200D01*
X195500Y304700D02*Y305700D01*
X196000Y304200D02*X195500Y304700D01*
X196000Y304200D02*X199000D01*
X199500Y304700D01*
X197300Y305700D02*X197800Y306200D01*
X197300Y304200D02*Y305700D01*
X199500Y304700D02*Y305700D01*
X199000Y306200D01*
X197800D02*X199000D01*
Y307400D02*X199500Y307900D01*
X196000Y307400D02*X199000D01*
X196000D02*X195500Y307900D01*
Y308900D01*
X196000Y309400D01*
X199000D01*
X199500Y308900D02*X199000Y309400D01*
X199500Y307900D02*Y308900D01*
X198500Y307400D02*X196500Y309400D01*
X162393Y311150D02*X164393D01*
X164893Y310650D01*
Y309650D01*
X164393Y309150D02*X164893Y309650D01*
X162893Y309150D02*X164393D01*
X162893Y311150D02*Y307150D01*
X163693Y309150D02*X164893Y307150D01*
X167593Y311150D02*X168093Y310650D01*
X166593Y311150D02*X167593D01*
X166093Y310650D02*X166593Y311150D01*
X166093Y310650D02*Y307650D01*
X166593Y307150D01*
X167593Y309350D02*X168093Y308850D01*
X166093Y309350D02*X167593D01*
X166593Y307150D02*X167593D01*
X168093Y307650D01*
Y308850D02*Y307650D01*
X169293Y308650D02*X171293Y311150D01*
X169293Y308650D02*X171793D01*
X171293Y311150D02*Y307150D01*
X162980Y325884D02*X164980D01*
X165480Y325384D01*
Y324384D01*
X164980Y323884D02*X165480Y324384D01*
X163480Y323884D02*X164980D01*
X163480Y325884D02*Y321884D01*
X164280Y323884D02*X165480Y321884D01*
X168180Y325884D02*X168680Y325384D01*
X167180Y325884D02*X168180D01*
X166680Y325384D02*X167180Y325884D01*
X166680Y325384D02*Y322384D01*
X167180Y321884D01*
X168180Y324084D02*X168680Y323584D01*
X166680Y324084D02*X168180D01*
X167180Y321884D02*X168180D01*
X168680Y322384D01*
Y323584D02*Y322384D01*
X169880Y325384D02*X170380Y325884D01*
X171380D01*
X171880Y325384D01*
X171380Y321884D02*X171880Y322384D01*
X170380Y321884D02*X171380D01*
X169880Y322384D02*X170380Y321884D01*
Y324084D02*X171380D01*
X171880Y325384D02*Y324584D01*
Y323584D02*Y322384D01*
Y323584D02*X171380Y324084D01*
X171880Y324584D02*X171380Y324084D01*
X97795Y277298D02*Y278598D01*
X97095Y276598D02*X97795Y277298D01*
X94495Y276598D02*X97095D01*
X94495D02*X93795Y277298D01*
Y278598D01*
X96295Y279798D02*X93795Y281798D01*
X96295Y279798D02*Y282298D01*
X93795Y281798D02*X97795D01*
X94595Y283498D02*X93795Y284298D01*
X97795D01*
Y283498D02*Y284998D01*
X120795Y291798D02*Y293098D01*
X120095Y291098D02*X120795Y291798D01*
X117495Y291098D02*X120095D01*
X117495D02*X116795Y291798D01*
Y293098D01*
X119295Y294298D02*X116795Y296298D01*
X119295Y294298D02*Y296798D01*
X116795Y296298D02*X120795D01*
X120295Y297998D02*X120795Y298498D01*
X117295Y297998D02*X120295D01*
X117295D02*X116795Y298498D01*
Y299498D01*
X117295Y299998D01*
X120295D01*
X120795Y299498D02*X120295Y299998D01*
X120795Y298498D02*Y299498D01*
X119795Y297998D02*X117795Y299998D01*
X183515Y267316D02*Y269316D01*
X184015Y269816D01*
X185015D01*
X185515Y269316D02*X185015Y269816D01*
X185515Y267816D02*Y269316D01*
X183515Y267816D02*X187515D01*
X185515Y268616D02*X187515Y269816D01*
X183515Y272516D02*X184015Y273016D01*
X183515Y271516D02*Y272516D01*
X184015Y271016D02*X183515Y271516D01*
X184015Y271016D02*X187015D01*
X187515Y271516D01*
X185315Y272516D02*X185815Y273016D01*
X185315Y271016D02*Y272516D01*
X187515Y271516D02*Y272516D01*
X187015Y273016D01*
X185815D02*X187015D01*
X184315Y274216D02*X183515Y275016D01*
X187515D01*
Y274216D02*Y275716D01*
X305000Y291000D02*X307000D01*
X307500Y291500D01*
Y292700D02*Y291500D01*
X307000Y293200D02*X307500Y292700D01*
X305500Y293200D02*X307000D01*
X305500Y295000D02*Y291000D01*
X305000Y295000D02*X307000D01*
X307500Y294500D01*
Y293700D01*
X307000Y293200D02*X307500Y293700D01*
X308700Y293000D02*Y291500D01*
X309200Y291000D01*
X310700Y293000D02*Y290000D01*
X310200Y289500D02*X310700Y290000D01*
X309200Y289500D02*X310200D01*
X308700Y290000D02*X309200Y289500D01*
Y291000D02*X310200D01*
X310700Y291500D01*
X313700Y293200D02*X315200D01*
X313700Y291000D02*X315700D01*
X313700Y295000D02*Y291000D01*
Y295000D02*X315700D01*
X316900Y293000D02*X317900Y291000D01*
X318900Y293000D02*X317900Y291000D01*
X321600Y293000D02*X322100Y292500D01*
X320600Y293000D02*X321600D01*
X320100Y292500D02*X320600Y293000D01*
X320100Y292500D02*Y291500D01*
X320600Y291000D01*
X322100Y293000D02*Y291500D01*
X322600Y291000D01*
X320600D02*X321600D01*
X322100Y291500D01*
X324300Y292500D02*Y291000D01*
Y292500D02*X324800Y293000D01*
X325300D01*
X325800Y292500D01*
Y291000D01*
X323800Y293000D02*X324300Y292500D01*
X328800Y295000D02*Y291000D01*
Y295000D02*X330800D01*
X328800Y293200D02*X330300D01*
X332000Y292500D02*Y291500D01*
Y292500D02*X332500Y293000D01*
X333500D01*
X334000Y292500D01*
Y291500D01*
X333500Y291000D02*X334000Y291500D01*
X332500Y291000D02*X333500D01*
X332000Y291500D02*X332500Y291000D01*
X335700D02*X337200D01*
X337700Y291500D01*
X337200Y292000D02*X337700Y291500D01*
X335700Y292000D02*X337200D01*
X335200Y292500D02*X335700Y292000D01*
X335200Y292500D02*X335700Y293000D01*
X337200D01*
X337700Y292500D01*
X335200Y291500D02*X335700Y291000D01*
X339400D02*X340900D01*
X341400Y291500D01*
X340900Y292000D02*X341400Y291500D01*
X339400Y292000D02*X340900D01*
X338900Y292500D02*X339400Y292000D01*
X338900Y292500D02*X339400Y293000D01*
X340900D01*
X341400Y292500D01*
X338900Y291500D02*X339400Y291000D01*
X263103Y284434D02*X261803D01*
X263803Y283734D02*X263103Y284434D01*
X263803Y281134D02*Y283734D01*
Y281134D02*X263103Y280434D01*
X261803D01*
X260603Y281234D02*X259803Y280434D01*
Y284434D01*
X260603D02*X259103D01*
X257903Y283934D02*X257403Y284434D01*
X257903Y280934D02*Y283934D01*
Y280934D02*X257403Y280434D01*
X256403D01*
X255903Y280934D01*
Y283934D01*
X256403Y284434D02*X255903Y283934D01*
X257403Y284434D02*X256403D01*
X257903Y283434D02*X255903Y281434D01*
X264650Y294350D02*X262650D01*
X262150Y294850D01*
Y295850D01*
X262650Y296350D02*X262150Y295850D01*
X264150Y296350D02*X262650D01*
X264150Y294350D02*Y298350D01*
X263350Y296350D02*X262150Y298350D01*
X260950Y295150D02*X260150Y294350D01*
Y298350D01*
X260950D02*X259450D01*
X258250Y297850D02*X257750Y298350D01*
X258250Y294850D02*Y297850D01*
Y294850D02*X257750Y294350D01*
X256750D01*
X256250Y294850D01*
Y297850D01*
X256750Y298350D02*X256250Y297850D01*
X257750Y298350D02*X256750D01*
X258250Y297350D02*X256250Y295350D01*
X228850Y291645D02*Y292945D01*
X228150Y290945D02*X228850Y291645D01*
X225550Y290945D02*X228150D01*
X225550D02*X224850Y291645D01*
Y292945D01*
Y295645D02*X225350Y296145D01*
X224850Y294645D02*Y295645D01*
X225350Y294145D02*X224850Y294645D01*
X225350Y294145D02*X228350D01*
X228850Y294645D01*
X226650Y295645D02*X227150Y296145D01*
X226650Y294145D02*Y295645D01*
X228850Y294645D02*Y295645D01*
X228350Y296145D01*
X227150D02*X228350D01*
X224850Y297345D02*Y299345D01*
Y297345D02*X226850D01*
X226350Y297845D01*
Y298845D01*
X226850Y299345D01*
X228350D01*
X228850Y298845D02*X228350Y299345D01*
X228850Y297845D02*Y298845D01*
X228350Y297345D02*X228850Y297845D01*
X211670Y267424D02*Y268724D01*
X210970Y266724D02*X211670Y267424D01*
X208370Y266724D02*X210970D01*
X208370D02*X207670Y267424D01*
Y268724D01*
Y271424D02*X208170Y271924D01*
X207670Y270424D02*Y271424D01*
X208170Y269924D02*X207670Y270424D01*
X208170Y269924D02*X211170D01*
X211670Y270424D01*
X209470Y271424D02*X209970Y271924D01*
X209470Y269924D02*Y271424D01*
X211670Y270424D02*Y271424D01*
X211170Y271924D01*
X209970D02*X211170D01*
X208170Y273124D02*X207670Y273624D01*
Y274624D01*
X208170Y275124D01*
X211670Y274624D02*X211170Y275124D01*
X211670Y273624D02*Y274624D01*
X211170Y273124D02*X211670Y273624D01*
X209470D02*Y274624D01*
X208170Y275124D02*X208970D01*
X209970D02*X211170D01*
X209970D02*X209470Y274624D01*
X208970Y275124D02*X209470Y274624D01*
X162117Y267617D02*X164117D01*
X164617Y267117D01*
Y266117D01*
X164117Y265617D02*X164617Y266117D01*
X162617Y265617D02*X164117D01*
X162617Y267617D02*Y263617D01*
X163417Y265617D02*X164617Y263617D01*
X165817Y265117D02*X167817Y267617D01*
X165817Y265117D02*X168317D01*
X167817Y267617D02*Y263617D01*
X169517Y266817D02*X170317Y267617D01*
Y263617D01*
X169517D02*X171017D01*
X305000Y301500D02*Y297500D01*
Y301500D02*X306500Y299500D01*
X308000Y301500D01*
Y297500D01*
X309200Y299000D02*Y298000D01*
Y299000D02*X309700Y299500D01*
X310700D01*
X311200Y299000D01*
Y298000D01*
X310700Y297500D02*X311200Y298000D01*
X309700Y297500D02*X310700D01*
X309200Y298000D02*X309700Y297500D01*
X314400Y301500D02*Y297500D01*
X313900D02*X314400Y298000D01*
X312900Y297500D02*X313900D01*
X312400Y298000D02*X312900Y297500D01*
X312400Y299000D02*Y298000D01*
Y299000D02*X312900Y299500D01*
X313900D01*
X314400Y299000D01*
X316100Y297500D02*X317600D01*
X315600Y298000D02*X316100Y297500D01*
X315600Y299000D02*Y298000D01*
Y299000D02*X316100Y299500D01*
X317100D01*
X317600Y299000D01*
X315600Y298500D02*X317600D01*
Y299000D01*
X318800Y301500D02*Y298000D01*
X319300Y297500D01*
X320300Y300000D02*X320800D01*
X320300Y299000D02*X320800D01*
X323800Y297500D02*X325800D01*
X326300Y298000D01*
Y299200D02*Y298000D01*
X325800Y299700D02*X326300Y299200D01*
X324300Y299700D02*X325800D01*
X324300Y301500D02*Y297500D01*
X323800Y301500D02*X325800D01*
X326300Y301000D01*
Y300200D01*
X325800Y299700D02*X326300Y300200D01*
X327500Y300500D02*Y300400D01*
Y299000D02*Y297500D01*
X328500Y299000D02*Y298000D01*
Y299000D02*X329000Y299500D01*
X330000D01*
X330500Y299000D01*
Y298000D01*
X330000Y297500D02*X330500Y298000D01*
X329000Y297500D02*X330000D01*
X328500Y298000D02*X329000Y297500D01*
X331700Y300500D02*Y297500D01*
Y300500D02*X332400Y301500D01*
X333500D01*
X334200Y300500D01*
Y297500D01*
X331700Y299500D02*X334200D01*
X335900Y299000D02*Y297500D01*
Y299000D02*X336400Y299500D01*
X336900D01*
X337400Y299000D01*
Y297500D01*
Y299000D02*X337900Y299500D01*
X338400D01*
X338900Y299000D01*
Y297500D01*
X335400Y299500D02*X335900Y299000D01*
X340600D02*Y296000D01*
X340100Y299500D02*X340600Y299000D01*
X341100Y299500D01*
X342100D01*
X342600Y299000D01*
Y298000D01*
X342100Y297500D02*X342600Y298000D01*
X341100Y297500D02*X342100D01*
X340600Y298000D02*X341100Y297500D01*
X345600Y301500D02*Y300500D01*
X346600Y301500D02*Y300500D01*
X348300Y301000D02*Y297500D01*
Y301000D02*X348800Y301500D01*
X349300D01*
X347800Y299500D02*X348800D01*
X351800D02*X352300Y299000D01*
X350800Y299500D02*X351800D01*
X350300Y299000D02*X350800Y299500D01*
X350300Y299000D02*Y298000D01*
X350800Y297500D01*
X352300Y299500D02*Y298000D01*
X352800Y297500D01*
X350800D02*X351800D01*
X352300Y298000D01*
X354500Y299000D02*Y297500D01*
Y299000D02*X355000Y299500D01*
X355500D01*
X356000Y299000D01*
Y297500D01*
X354000Y299500D02*X354500Y299000D01*
X357700Y299500D02*X359200D01*
X357200Y299000D02*X357700Y299500D01*
X357200Y299000D02*Y298000D01*
X357700Y297500D01*
X359200D01*
X360400Y299500D02*Y298000D01*
X360900Y297500D01*
X362400Y299500D02*Y296500D01*
X361900Y296000D02*X362400Y296500D01*
X360900Y296000D02*X361900D01*
X360400Y296500D02*X360900Y296000D01*
Y297500D02*X361900D01*
X362400Y298000D01*
X363600Y301500D02*Y300500D01*
X364600Y301500D02*Y300500D01*
X305000Y288000D02*X305500Y288500D01*
X307000D01*
X307500Y288000D01*
Y287000D01*
X305000Y284500D02*X307500Y287000D01*
X305000Y284500D02*X307500D01*
X308700Y285000D02*X309200Y284500D01*
X308700Y288000D02*Y285000D01*
Y288000D02*X309200Y288500D01*
X310200D01*
X310700Y288000D01*
Y285000D01*
X310200Y284500D02*X310700Y285000D01*
X309200Y284500D02*X310200D01*
X308700Y285500D02*X310700Y287500D01*
X311900Y288000D02*X312400Y288500D01*
X313900D01*
X314400Y288000D01*
Y287000D01*
X311900Y284500D02*X314400Y287000D01*
X311900Y284500D02*X314400D01*
X315600Y285000D02*X316100Y284500D01*
X315600Y288000D02*Y285000D01*
Y288000D02*X316100Y288500D01*
X317100D01*
X317600Y288000D01*
Y285000D01*
X317100Y284500D02*X317600Y285000D01*
X316100Y284500D02*X317100D01*
X315600Y285500D02*X317600Y287500D01*
X318800Y284500D02*X319300D01*
X320500Y285000D02*X321000Y284500D01*
X320500Y288000D02*Y285000D01*
Y288000D02*X321000Y288500D01*
X322000D01*
X322500Y288000D01*
Y285000D01*
X322000Y284500D02*X322500Y285000D01*
X321000Y284500D02*X322000D01*
X320500Y285500D02*X322500Y287500D01*
X325200Y288500D02*X325700Y288000D01*
X324200Y288500D02*X325200D01*
X323700Y288000D02*X324200Y288500D01*
X323700Y288000D02*Y285000D01*
X324200Y284500D01*
X325200Y286700D02*X325700Y286200D01*
X323700Y286700D02*X325200D01*
X324200Y284500D02*X325200D01*
X325700Y285000D01*
Y286200D02*Y285000D01*
X326900Y284500D02*X327400D01*
X328600Y285000D02*X329100Y284500D01*
X328600Y288000D02*Y285000D01*
Y288000D02*X329100Y288500D01*
X330100D01*
X330600Y288000D01*
Y285000D01*
X330100Y284500D02*X330600Y285000D01*
X329100Y284500D02*X330100D01*
X328600Y285500D02*X330600Y287500D01*
X331800Y288000D02*X332300Y288500D01*
X333800D01*
X334300Y288000D01*
Y287000D01*
X331800Y284500D02*X334300Y287000D01*
X331800Y284500D02*X334300D01*
X269980Y241480D02*X272980D01*
X269980D02*X269480Y241980D01*
Y242980D01*
X269980Y243480D01*
X272980D01*
X273480Y242980D02*X272980Y243480D01*
X273480Y241980D02*Y242980D01*
X272980Y241480D02*X273480Y241980D01*
X269480Y244681D02*X273480D01*
X269480D02*Y246681D01*
X271280Y244681D02*Y246181D01*
X269480Y247881D02*X273480D01*
X269480D02*Y249881D01*
X271280Y247881D02*Y249381D01*
X269480Y253081D02*X269980Y253581D01*
X269480Y251581D02*Y253081D01*
X269980Y251081D02*X269480Y251581D01*
X269980Y251081D02*X270980D01*
X271480Y251581D01*
Y253081D01*
X271980Y253581D01*
X272980D01*
X273480Y253081D02*X272980Y253581D01*
X273480Y251581D02*Y253081D01*
X272980Y251081D02*X273480Y251581D01*
X271280Y254781D02*Y256281D01*
X273480Y254781D02*Y256781D01*
X269480Y254781D02*X273480D01*
X269480D02*Y256781D01*
Y257981D02*Y259981D01*
Y258981D02*X273480D01*
X288851Y187275D02*Y189275D01*
X289351Y189775D01*
X290351D01*
X290851Y189275D02*X290351Y189775D01*
X290851Y187775D02*Y189275D01*
X288851Y187775D02*X292851D01*
X290851Y188575D02*X292851Y189775D01*
X289351Y190975D02*X288851Y191475D01*
Y192975D01*
X289351Y193475D01*
X290351D01*
X292851Y190975D02*X290351Y193475D01*
X292851Y190975D02*Y193475D01*
X289651Y194675D02*X288851Y195475D01*
X292851D01*
Y194675D02*Y196175D01*
X298480Y216980D02*X301980D01*
X302480Y217480D01*
Y218480D01*
X301980Y218980D01*
X298480D02*X301980D01*
X298980Y220181D02*X298480Y220681D01*
Y222181D01*
X298980Y222681D01*
X299980D01*
X302480Y220181D02*X299980Y222681D01*
X302480Y220181D02*Y222681D01*
X301980Y223881D02*X302480Y224381D01*
X298980Y223881D02*X301980D01*
X298980D02*X298480Y224381D01*
Y225381D01*
X298980Y225881D01*
X301980D01*
X302480Y225381D02*X301980Y225881D01*
X302480Y224381D02*Y225381D01*
X301480Y223881D02*X299480Y225881D01*
X302169Y258742D02*X303469D01*
X301469Y259442D02*X302169Y258742D01*
X301469Y262042D02*Y259442D01*
Y262042D02*X302169Y262742D01*
X303469D01*
X304669Y262242D02*X305169Y262742D01*
X306669D01*
X307169Y262242D01*
Y261242D01*
X304669Y258742D02*X307169Y261242D01*
X304669Y258742D02*X307169D01*
X308369Y261942D02*X309169Y262742D01*
Y258742D01*
X308369D02*X309869D01*
X285850Y272645D02*Y273945D01*
X285150Y271945D02*X285850Y272645D01*
X282550Y271945D02*X285150D01*
X282550D02*X281850Y272645D01*
Y273945D01*
X282650Y275145D02*X281850Y275945D01*
X285850D01*
Y275145D02*Y276645D01*
X282350Y277845D02*X281850Y278345D01*
Y279845D01*
X282350Y280345D01*
X283350D01*
X285850Y277845D02*X283350Y280345D01*
X285850Y277845D02*Y280345D01*
X351000Y192500D02*X355000D01*
X351000Y193800D02*X351700Y194500D01*
X354300D01*
X355000Y193800D02*X354300Y194500D01*
X355000Y192000D02*Y193800D01*
X351000Y192000D02*Y193800D01*
X355000Y196200D02*Y197700D01*
X354500Y195700D02*X355000Y196200D01*
X353500Y195700D02*X354500D01*
X353500D02*X353000Y196200D01*
Y197200D01*
X353500Y197700D01*
X354000Y195700D02*Y197700D01*
X353500D01*
X355000Y199400D02*Y200900D01*
X354500Y201400D01*
X354000Y200900D02*X354500Y201400D01*
X354000Y199400D02*Y200900D01*
X353500Y198900D02*X354000Y199400D01*
X353500Y198900D02*X353000Y199400D01*
Y200900D01*
X353500Y201400D01*
X354500Y198900D02*X355000Y199400D01*
X352000Y202600D02*X352100D01*
X353500D02*X355000D01*
X353000Y205100D02*X353500Y205600D01*
X353000Y204100D02*Y205100D01*
X353500Y203600D02*X353000Y204100D01*
X353500Y203600D02*X354500D01*
X355000Y204100D01*
Y205100D01*
X354500Y205600D01*
X356000Y203600D02*X356500Y204100D01*
Y205100D01*
X356000Y205600D01*
X353000D02*X356000D01*
X353500Y207300D02*X355000D01*
X353500D02*X353000Y207800D01*
Y208300D01*
X353500Y208800D01*
X355000D01*
X353000Y206800D02*X353500Y207300D01*
X355000Y210500D02*Y212000D01*
X354500Y210000D02*X355000Y210500D01*
X353500Y210000D02*X354500D01*
X353500D02*X353000Y210500D01*
Y211500D01*
X353500Y212000D01*
X354000Y210000D02*Y212000D01*
X353500D01*
X351000Y215200D02*X355000D01*
Y214700D02*X354500Y215200D01*
X355000Y213700D02*Y214700D01*
X354500Y213200D02*X355000Y213700D01*
X353500Y213200D02*X354500D01*
X353500D02*X353000Y213700D01*
Y214700D01*
X353500Y215200D01*
X351000Y220200D02*X355000D01*
Y219700D02*X354500Y220200D01*
X355000Y218700D02*Y219700D01*
X354500Y218200D02*X355000Y218700D01*
X353500Y218200D02*X354500D01*
X353500D02*X353000Y218700D01*
Y219700D01*
X353500Y220200D01*
X353000Y221400D02*X354500D01*
X355000Y221900D01*
Y222900D01*
X354500Y223400D01*
X353000D02*X354500D01*
X353500Y225100D02*X355000D01*
X353500D02*X353000Y225600D01*
Y226600D01*
Y224600D02*X353500Y225100D01*
X352000Y227800D02*X352100D01*
X353500D02*X355000D01*
X353500Y229300D02*X355000D01*
X353500D02*X353000Y229800D01*
Y230300D01*
X353500Y230800D01*
X355000D01*
X353000Y228800D02*X353500Y229300D01*
X353000Y233500D02*X353500Y234000D01*
X353000Y232500D02*Y233500D01*
X353500Y232000D02*X353000Y232500D01*
X353500Y232000D02*X354500D01*
X355000Y232500D01*
Y233500D01*
X354500Y234000D01*
X356000Y232000D02*X356500Y232500D01*
Y233500D01*
X356000Y234000D01*
X353000D02*X356000D01*
X355000Y237700D02*Y239000D01*
X354300Y237000D02*X355000Y237700D01*
X351700Y237000D02*X354300D01*
X351700D02*X351000Y237700D01*
Y239000D01*
X351500Y240200D02*X354500D01*
X351500D02*X351000Y240700D01*
Y241700D01*
X351500Y242200D01*
X354500D01*
X355000Y241700D02*X354500Y242200D01*
X355000Y240700D02*Y241700D01*
X354500Y240200D02*X355000Y240700D01*
X351000Y243400D02*X355000Y244400D01*
X351000Y245400D01*
Y246600D02*Y247600D01*
Y247100D02*X355000D01*
Y246600D02*Y247600D01*
X351000Y249300D02*X355000D01*
X351000Y250600D02*X351700Y251300D01*
X354300D01*
X355000Y250600D02*X354300Y251300D01*
X355000Y248800D02*Y250600D01*
X351000Y248800D02*Y250600D01*
X353000Y252500D02*Y254500D01*
X351800Y255700D02*X351000Y256500D01*
X355000D01*
Y255700D02*Y257200D01*
Y258900D02*X353000Y260400D01*
X351500D02*X353000D01*
X351000Y259900D02*X351500Y260400D01*
X351000Y258900D02*Y259900D01*
X351500Y258400D02*X351000Y258900D01*
X351500Y258400D02*X352500D01*
X353000Y258900D01*
Y260400D01*
X360500Y190500D02*X361000Y191000D01*
X360500Y189500D02*Y190500D01*
X361000Y189000D02*X360500Y189500D01*
X361000Y189000D02*X362000D01*
X362500Y189500D01*
X360500Y191000D02*X362000D01*
X362500Y191500D01*
Y189500D02*Y190500D01*
X362000Y191000D01*
X358500Y193200D02*X362000D01*
X362500Y193700D01*
X360000Y192700D02*Y193700D01*
X358500Y196500D02*X362500D01*
X361000D02*X360500Y197000D01*
Y198000D01*
X361000Y198500D01*
X362500D01*
X361000Y199700D02*X362000D01*
X361000D02*X360500Y200200D01*
Y201200D01*
X361000Y201700D01*
X362000D01*
X362500Y201200D02*X362000Y201700D01*
X362500Y200200D02*Y201200D01*
X362000Y199700D02*X362500Y200200D01*
X361000Y203400D02*X362500D01*
X361000D02*X360500Y203900D01*
Y204400D01*
X361000Y204900D01*
X362500D01*
X361000D02*X360500Y205400D01*
Y205900D01*
X361000Y206400D01*
X362500D01*
X360500Y202900D02*X361000Y203400D01*
X362500Y208100D02*Y209600D01*
X362000Y207600D02*X362500Y208100D01*
X361000Y207600D02*X362000D01*
X361000D02*X360500Y208100D01*
Y209100D01*
X361000Y209600D01*
X361500Y207600D02*Y209600D01*
X361000D01*
X362500Y210800D02*Y211300D01*
X358500Y214300D02*X362500D01*
X358500Y216800D02*X362500D01*
X360500Y214300D02*Y216800D01*
Y219500D02*X361000Y220000D01*
X360500Y218500D02*Y219500D01*
X361000Y218000D02*X360500Y218500D01*
X361000Y218000D02*X362000D01*
X362500Y218500D01*
X360500Y220000D02*X362000D01*
X362500Y220500D01*
Y218500D02*Y219500D01*
X362000Y220000D01*
X361000Y222200D02*X362500D01*
X361000D02*X360500Y222700D01*
Y223200D01*
X361000Y223700D01*
X362500D01*
X360500Y221700D02*X361000Y222200D01*
X360500Y226400D02*X361000Y226900D01*
X360500Y225400D02*Y226400D01*
X361000Y224900D02*X360500Y225400D01*
X361000Y224900D02*X362000D01*
X362500Y225400D01*
Y226400D01*
X362000Y226900D01*
X363500Y224900D02*X364000Y225400D01*
Y226400D01*
X363500Y226900D01*
X360500D02*X363500D01*
X359500Y229900D02*X359600D01*
X361000D02*X362500D01*
X361000Y231400D02*X362500D01*
X361000D02*X360500Y231900D01*
Y232400D01*
X361000Y232900D01*
X362500D01*
X360500Y230900D02*X361000Y231400D01*
X358500Y236400D02*X362000D01*
X362500Y236900D01*
X360000Y235900D02*Y236900D01*
X358500Y237900D02*X362500D01*
X361000D02*X360500Y238400D01*
Y239400D01*
X361000Y239900D01*
X362500D01*
Y241600D02*Y243100D01*
X362000Y241100D02*X362500Y241600D01*
X361000Y241100D02*X362000D01*
X361000D02*X360500Y241600D01*
Y242600D01*
X361000Y243100D01*
X361500Y241100D02*Y243100D01*
X361000D01*
Y244800D02*X362500D01*
X361000D02*X360500Y245300D01*
Y246300D01*
Y244300D02*X361000Y244800D01*
X362500Y248000D02*Y249500D01*
X362000Y247500D02*X362500Y248000D01*
X361000Y247500D02*X362000D01*
X361000D02*X360500Y248000D01*
Y249000D01*
X361000Y249500D01*
X361500Y247500D02*Y249500D01*
X361000D01*
X362500Y250700D02*Y251200D01*
X360500Y254200D02*Y256200D01*
X360300Y259200D02*Y260700D01*
X362500Y259200D02*Y261200D01*
X358500Y259200D02*X362500D01*
X358500D02*Y261200D01*
X360300Y262400D02*Y263900D01*
X362500Y262400D02*Y264400D01*
X358500Y262400D02*X362500D01*
X358500D02*Y264400D01*
Y265600D02*X362500D01*
X358500D02*Y267600D01*
X360300Y265600D02*Y267100D01*
X326830Y191626D02*Y192926D01*
X326130Y190926D02*X326830Y191626D01*
X323530Y190926D02*X326130D01*
X323530D02*X322830Y191626D01*
Y192926D01*
X323330Y194126D02*X322830Y194626D01*
Y196126D01*
X323330Y196626D01*
X324330D01*
X326830Y194126D02*X324330Y196626D01*
X326830Y194126D02*Y196626D01*
X323330Y197826D02*X322830Y198326D01*
Y199826D01*
X323330Y200326D01*
X324330D01*
X326830Y197826D02*X324330Y200326D01*
X326830Y197826D02*Y200326D01*
X333830Y217530D02*Y218830D01*
X333130Y216830D02*X333830Y217530D01*
X330530Y216830D02*X333130D01*
X330530D02*X329830Y217530D01*
Y218830D01*
X330330Y220031D02*X329830Y220531D01*
Y222031D01*
X330330Y222531D01*
X331330D01*
X333830Y220031D02*X331330Y222531D01*
X333830Y220031D02*Y222531D01*
X330330Y223731D02*X329830Y224231D01*
Y225231D01*
X330330Y225731D01*
X333830Y225231D02*X333330Y225731D01*
X333830Y224231D02*Y225231D01*
X333330Y223731D02*X333830Y224231D01*
X331630D02*Y225231D01*
X330330Y225731D02*X331130D01*
X332130D02*X333330D01*
X332130D02*X331630Y225231D01*
X331130Y225731D02*X331630Y225231D01*
X302924Y187091D02*Y189091D01*
X303424Y189591D01*
X304424D01*
X304924Y189091D02*X304424Y189591D01*
X304924Y187591D02*Y189091D01*
X302924Y187591D02*X306924D01*
X304924Y188391D02*X306924Y189591D01*
X303424Y190791D02*X302924Y191291D01*
Y192791D01*
X303424Y193291D01*
X304424D01*
X306924Y190791D02*X304424Y193291D01*
X306924Y190791D02*Y193291D01*
X306424Y194491D02*X306924Y194991D01*
X303424Y194491D02*X306424D01*
X303424D02*X302924Y194991D01*
Y195991D01*
X303424Y196491D01*
X306424D01*
X306924Y195991D02*X306424Y196491D01*
X306924Y194991D02*Y195991D01*
X305924Y194491D02*X303924Y196491D01*
X262720Y217925D02*Y219225D01*
X262020Y217225D02*X262720Y217925D01*
X259420Y217225D02*X262020D01*
X259420D02*X258720Y217925D01*
Y219225D01*
X259220Y220425D02*X258720Y220925D01*
Y222425D01*
X259220Y222925D01*
X260220D01*
X262720Y220425D02*X260220Y222925D01*
X262720Y220425D02*Y222925D01*
X262220Y224125D02*X262720Y224625D01*
X259220Y224125D02*X262220D01*
X259220D02*X258720Y224625D01*
Y225625D01*
X259220Y226125D01*
X262220D01*
X262720Y225625D02*X262220Y226125D01*
X262720Y224625D02*Y225625D01*
X261720Y224125D02*X259720Y226125D01*
X263988Y245256D02*Y247256D01*
Y246256D02*X267988D01*
X263988Y248957D02*X267988D01*
X263988Y248457D02*Y250457D01*
X264488Y250957D01*
X265488D01*
X265988Y250457D02*X265488Y250957D01*
X265988Y248957D02*Y250457D01*
X264488Y252157D02*X263988Y252657D01*
Y254157D01*
X264488Y254657D01*
X265488D01*
X267988Y252157D02*X265488Y254657D01*
X267988Y252157D02*Y254657D01*
X255002Y267690D02*Y269690D01*
X255502Y270190D01*
X256502D01*
X257002Y269690D02*X256502Y270190D01*
X257002Y268190D02*Y269690D01*
X255002Y268190D02*X259002D01*
X257002Y268990D02*X259002Y270190D01*
X255802Y271390D02*X255002Y272190D01*
X259002D01*
Y271390D02*Y272890D01*
X255802Y274090D02*X255002Y274890D01*
X259002D01*
Y274090D02*Y275590D01*
X343800Y165000D02*X342500D01*
X344500Y164300D02*X343800Y165000D01*
X344500Y161700D02*Y164300D01*
Y161700D02*X343800Y161000D01*
X342500D01*
X341300Y161500D02*Y164500D01*
Y161500D02*X340800Y161000D01*
X339800D01*
X339300Y161500D01*
Y164500D01*
X339800Y165000D02*X339300Y164500D01*
X340800Y165000D02*X339800D01*
X341300Y164500D02*X340800Y165000D01*
X338100Y161000D02*Y165000D01*
Y161000D02*X335600Y165000D01*
Y161000D02*Y165000D01*
X334400Y161000D02*Y165000D01*
Y161000D02*X331900Y165000D01*
Y161000D02*Y165000D01*
X330700Y161800D02*X329900Y161000D01*
Y165000D01*
X330700D02*X329200D01*
X289126Y165070D02*X287826D01*
X289826Y164370D02*X289126Y165070D01*
X289826Y161770D02*Y164370D01*
Y161770D02*X289126Y161070D01*
X287826D01*
X286626Y161570D02*Y164570D01*
Y161570D02*X286126Y161070D01*
X285126D01*
X284626Y161570D01*
Y164570D01*
X285126Y165070D02*X284626Y164570D01*
X286126Y165070D02*X285126D01*
X286626Y164570D02*X286126Y165070D01*
X283426Y161070D02*Y165070D01*
Y161070D02*X280926Y165070D01*
Y161070D02*Y165070D01*
X279726Y161070D02*Y165070D01*
Y161070D02*X277226Y165070D01*
Y161070D02*Y165070D01*
X276026Y163570D02*X274026Y161070D01*
X276026Y163570D02*X273526D01*
X274026Y161070D02*Y165070D01*
M02*
