G04 start of page 2 for group 0 layer_idx 7 *
G04 Title: (unknown), top_paste *
G04 Creator: pcb-rnd 2.2.1 *
G04 CreationDate: 2020-06-03 18:25:36 UTC *
G04 For:  *
G04 Format: Gerber/RS-274X *
G04 PCB-Dimensions: 500000 500000 *
G04 PCB-Coordinate-Origin: lower left *
%MOIN*%
%FSLAX25Y25*%
%LNTOP_PASTE_NONE_0*%
%ADD91C,0.0001*%
G54D91*G36*
X120815Y322036D02*Y313964D01*
X135185D01*
Y322036D01*
X120815D01*
G37*
G36*
X97815Y311536D02*Y303464D01*
X112185D01*
Y311536D01*
X97815D01*
G37*
G36*
X181559Y310952D02*X176441D01*
Y305048D01*
X181559D01*
Y310952D01*
G37*
G36*
X180016Y327952D02*X174898D01*
Y322048D01*
X180016D01*
Y327952D01*
G37*
G36*
X187102D02*X181984D01*
Y322048D01*
X187102D01*
Y327952D01*
G37*
G36*
X166559Y320452D02*X161441D01*
Y314548D01*
X166559D01*
Y320452D01*
G37*
G36*
X173645D02*X168527D01*
Y314548D01*
X173645D01*
Y320452D01*
G37*
G36*
X166059Y305952D02*X160941D01*
Y300048D01*
X166059D01*
Y305952D01*
G37*
G36*
X173145D02*X168027D01*
Y300048D01*
X173145D01*
Y305952D01*
G37*
G36*
X163421Y261707D02*X158303D01*
Y254227D01*
X163421D01*
Y261707D01*
G37*
G36*
X117016Y230707D02*X111898D01*
Y223227D01*
X117016D01*
Y230707D01*
G37*
G36*
Y245707D02*X111898D01*
Y238227D01*
X117016D01*
Y245707D01*
G37*
G36*
X128826Y230707D02*X123708D01*
Y223227D01*
X128826D01*
Y230707D01*
G37*
G36*
Y245707D02*X123708D01*
Y238227D01*
X128826D01*
Y245707D01*
G37*
G36*
X175231Y261707D02*X170113D01*
Y254227D01*
X175231D01*
Y261707D01*
G37*
G36*
X210326Y235707D02*X205208D01*
Y228227D01*
X210326D01*
Y235707D01*
G37*
G36*
X222136D02*X217018D01*
Y228227D01*
X222136D01*
Y235707D01*
G37*
G36*
X253898Y300048D02*X259016D01*
Y305952D01*
X253898D01*
Y300048D01*
G37*
G36*
X272154Y337740D02*X267036D01*
Y330260D01*
X272154D01*
Y337740D01*
G37*
G36*
X283964D02*X278846D01*
Y330260D01*
X283964D01*
Y337740D01*
G37*
G36*
X261145Y316952D02*X256027D01*
Y311048D01*
X261145D01*
Y316952D01*
G37*
G36*
X260984Y286048D02*X266102D01*
Y291952D01*
X260984D01*
Y286048D01*
G37*
G36*
X253898D02*X259016D01*
Y291952D01*
X253898D01*
Y286048D01*
G37*
G36*
X260984Y300048D02*X266102D01*
Y305952D01*
X260984D01*
Y300048D01*
G37*
G36*
X260548Y271016D02*Y265898D01*
X266452D01*
Y271016D01*
X260548D01*
G37*
G36*
X189048Y271059D02*Y265941D01*
X194952D01*
Y271059D01*
X189048D01*
G37*
G36*
X213260Y267559D02*Y262441D01*
X220740D01*
Y267559D01*
X213260D01*
G37*
G36*
X260548Y278102D02*Y272984D01*
X266452D01*
Y278102D01*
X260548D01*
G37*
G36*
X189048Y278145D02*Y273027D01*
X194952D01*
Y278145D01*
X189048D01*
G37*
G36*
X213260Y279369D02*Y274251D01*
X220740D01*
Y279369D01*
X213260D01*
G37*
G36*
X202500Y290500D02*Y299000D01*
X204500D01*
Y290500D01*
X202500D01*
G37*
G36*
X207500D02*Y299000D01*
X209500D01*
Y290500D01*
X207500D01*
G37*
G36*
X212500D02*Y299000D01*
X214500D01*
Y290500D01*
X212500D01*
G37*
G36*
X275500Y291000D02*Y299500D01*
X277500D01*
Y291000D01*
X275500D01*
G37*
G36*
X280500D02*Y299500D01*
X282500D01*
Y291000D01*
X280500D01*
G37*
G36*
X217500Y290500D02*Y299000D01*
X219500D01*
Y290500D01*
X217500D01*
G37*
G36*
X230260Y291749D02*Y286631D01*
X237740D01*
Y291749D01*
X230260D01*
G37*
G36*
Y303559D02*Y298441D01*
X237740D01*
Y303559D01*
X230260D01*
G37*
G36*
X231760Y325369D02*Y320251D01*
X239240D01*
Y325369D01*
X231760D01*
G37*
G36*
X204500Y319500D02*Y311000D01*
X202500D01*
Y319500D01*
X204500D01*
G37*
G36*
X209500D02*Y311000D01*
X207500D01*
Y319500D01*
X209500D01*
G37*
G36*
X214500D02*Y311000D01*
X212500D01*
Y319500D01*
X214500D01*
G37*
G36*
X219500D02*Y311000D01*
X217500D01*
Y319500D01*
X219500D01*
G37*
G36*
X277500Y320000D02*Y311500D01*
X275500D01*
Y320000D01*
X277500D01*
G37*
G36*
X282500D02*Y311500D01*
X280500D01*
Y320000D01*
X282500D01*
G37*
G36*
X231760Y313559D02*Y308441D01*
X239240D01*
Y313559D01*
X231760D01*
G37*
G36*
X254059Y316952D02*X248941D01*
Y311048D01*
X254059D01*
Y316952D01*
G37*
G36*
X188645Y310952D02*X183527D01*
Y305048D01*
X188645D01*
Y310952D01*
G37*
G36*
X294528Y198082D02*Y192964D01*
X300432D01*
Y198082D01*
X294528D01*
G37*
G36*
X307980Y235980D02*Y227480D01*
X305980D01*
Y235980D01*
X307980D01*
G37*
G36*
X308528Y198082D02*Y192964D01*
X314432D01*
Y198082D01*
X308528D01*
G37*
G36*
X305980Y206980D02*Y215480D01*
X307980D01*
Y206980D01*
X305980D01*
G37*
G36*
X310980D02*Y215480D01*
X312980D01*
Y206980D01*
X310980D01*
G37*
G36*
X315980D02*Y215480D01*
X317980D01*
Y206980D01*
X315980D01*
G37*
G36*
X320980D02*Y215480D01*
X322980D01*
Y206980D01*
X320980D01*
G37*
G36*
X312980Y235980D02*Y227480D01*
X310980D01*
Y235980D01*
X312980D01*
G37*
G36*
X317980D02*Y227480D01*
X315980D01*
Y235980D01*
X317980D01*
G37*
G36*
X322980D02*Y227480D01*
X320980D01*
Y235980D01*
X322980D01*
G37*
G36*
X117016Y215707D02*X111898D01*
Y208227D01*
X117016D01*
Y215707D01*
G37*
G36*
X128826D02*X123708D01*
Y208227D01*
X128826D01*
Y215707D01*
G37*
G36*
X117016Y200707D02*X111898D01*
Y193227D01*
X117016D01*
Y200707D01*
G37*
G36*
X128826D02*X123708D01*
Y193227D01*
X128826D01*
Y200707D01*
G37*
G36*
X136921Y197707D02*X131803D01*
Y190227D01*
X136921D01*
Y197707D01*
G37*
G36*
X148731D02*X143613D01*
Y190227D01*
X148731D01*
Y197707D01*
G37*
G36*
X187102Y195483D02*Y187412D01*
X201472D01*
Y195483D01*
X187102D01*
G37*
G36*
X210326Y220707D02*X205208D01*
Y213227D01*
X210326D01*
Y220707D01*
G37*
G36*
X222136D02*X217018D01*
Y213227D01*
X222136D01*
Y220707D01*
G37*
G36*
X320059Y325740D02*X314941D01*
Y318260D01*
X320059D01*
Y325740D01*
G37*
G36*
X343315Y327036D02*Y318964D01*
X357685D01*
Y327036D01*
X343315D01*
G37*
G36*
X331869Y325740D02*X326751D01*
Y318260D01*
X331869D01*
Y325740D01*
G37*
G36*
X302674Y257259D02*X297556D01*
Y249780D01*
X302674D01*
Y257259D01*
G37*
G36*
X287760Y272749D02*Y267631D01*
X295240D01*
Y272749D01*
X287760D01*
G37*
G36*
Y284559D02*Y279441D01*
X295240D01*
Y284559D01*
X287760D01*
G37*
G36*
X285500Y291000D02*Y299500D01*
X287500D01*
Y291000D01*
X285500D01*
G37*
G36*
X290500D02*Y299500D01*
X292500D01*
Y291000D01*
X290500D01*
G37*
G36*
X276964Y243315D02*X285036D01*
Y257685D01*
X276964D01*
Y243315D01*
G37*
G36*
X294528Y190996D02*Y185878D01*
X300432D01*
Y190996D01*
X294528D01*
G37*
G36*
X308528D02*Y185878D01*
X314432D01*
Y190996D01*
X308528D01*
G37*
G36*
X314484Y257259D02*X309366D01*
Y249780D01*
X314484D01*
Y257259D01*
G37*
G36*
X287500Y320000D02*Y311500D01*
X285500D01*
Y320000D01*
X287500D01*
G37*
G36*
X292500D02*Y311500D01*
X290500D01*
Y320000D01*
X292500D01*
G37*
G36*
X328240Y192230D02*Y187112D01*
X335720D01*
Y192230D01*
X328240D01*
G37*
G36*
Y204040D02*Y198922D01*
X335720D01*
Y204040D01*
X328240D01*
G37*
G36*
X335240Y218134D02*Y213016D01*
X342720D01*
Y218134D01*
X335240D01*
G37*
G36*
Y229945D02*Y224826D01*
X342720D01*
Y229945D01*
X335240D01*
G37*
G36*
X195121Y110256D02*Y102185D01*
X209491D01*
Y110256D01*
X195121D01*
G37*
G36*
X170641Y126106D02*Y118035D01*
X185011D01*
Y126106D01*
X170641D01*
G37*
G36*
X195121Y166256D02*Y158185D01*
X209491D01*
Y166256D01*
X195121D01*
G37*
M02*
