G04 start of page 2 for group -1 layer_idx 268435459 *
G04 Title: (unknown), <virtual group> *
G04 Creator: pcb-rnd 2.3.2 *
G04 CreationDate: 2021-05-12 18:20:22 UTC *
G04 For:  *
G04 Format: Gerber/RS-274X *
G04 PCB-Dimensions: 500000 500000 *
G04 PCB-Coordinate-Origin: lower left *
%MOIN*%
%FSLAX25Y25*%
%LNTOP_VIRTUAL_ASSY_NONE*%
%ADD123C,0.0070*%
%ADD122C,0.0217*%
%ADD121C,0.0394*%
%ADD120C,0.0100*%
%ADD119C,0.0150*%
%ADD118C,0.0080*%
%ADD117C,0.0420*%
%ADD116C,0.0256*%
%ADD115C,0.0640*%
%ADD114C,0.0374*%
%ADD113C,0.0276*%
%ADD112C,0.0295*%
%ADD111C,0.0200*%
%ADD110C,0.0790*%
%ADD109C,0.0394*%
%ADD108C,0.0350*%
%ADD107C,0.0600*%
%ADD106C,0.0984*%
%ADD105C,0.0571*%
%ADD104C,0.1040*%
%ADD103C,0.0689*%
%ADD102C,0.1000*%
%ADD101C,0.0400*%
%ADD100C,0.0787*%
%ADD99C,0.1580*%
%ADD98C,0.0866*%
%ADD97C,0.0800*%
%ADD96C,0.0001*%
%ADD95C,0.0700*%
G54D95*X153000Y349500D03*
Y364500D03*
G54D96*G36*
X166249Y353240D02*X161131D01*
Y345760D01*
X166249D01*
Y353240D01*
G37*
G36*
Y368240D02*X161131D01*
Y360760D01*
X166249D01*
Y368240D01*
G37*
G36*
X178059Y353240D02*X172941D01*
Y345760D01*
X178059D01*
Y353240D01*
G37*
G36*
Y368240D02*X172941D01*
Y360760D01*
X178059D01*
Y368240D01*
G37*
G36*
X194000Y376000D02*X202000D01*
Y368000D01*
X194000D01*
Y376000D01*
G37*
G36*
X184548Y362516D02*Y357398D01*
X190452D01*
Y362516D01*
X184548D01*
G37*
G36*
Y369602D02*Y364484D01*
X190452D01*
Y369602D01*
X184548D01*
G37*
G36*
Y356602D02*Y351484D01*
X190452D01*
Y356602D01*
X184548D01*
G37*
G54D97*X198000Y362000D03*
Y352000D03*
G54D96*G36*
X184548Y349516D02*Y344398D01*
X190452D01*
Y349516D01*
X184548D01*
G37*
G54D97*X228000Y372000D03*
Y362000D03*
G54D96*G36*
X247654Y375740D02*X242536D01*
Y368260D01*
X247654D01*
Y375740D01*
G37*
G36*
Y360740D02*X242536D01*
Y353260D01*
X247654D01*
Y360740D01*
G37*
G54D98*X267000Y372000D03*
Y357000D03*
G54D96*G36*
X259464Y375740D02*X254346D01*
Y368260D01*
X259464D01*
Y375740D01*
G37*
G36*
Y360740D02*X254346D01*
Y353260D01*
X259464D01*
Y360740D01*
G37*
G54D97*X228000Y352000D03*
X198000Y342000D03*
X228000D03*
G54D96*G36*
X240059Y345740D02*X234941D01*
Y338260D01*
X240059D01*
Y345740D01*
G37*
G36*
X251869D02*X246751D01*
Y338260D01*
X251869D01*
Y345740D01*
G37*
G36*
X279000Y376500D02*Y384500D01*
X287000D01*
Y376500D01*
X279000D01*
G37*
G36*
X280000Y345000D02*Y353000D01*
X288000D01*
Y345000D01*
X280000D01*
G37*
G54D97*X284000Y359000D03*
G54D99*X93505Y373000D03*
X133505D03*
G54D95*X107205Y348000D03*
G54D96*G36*
X116305Y351500D02*Y344500D01*
X123305D01*
Y351500D01*
X116305D01*
G37*
G54D95*X113505Y358000D03*
G54D99*X315500Y371500D03*
X355500D03*
G54D96*G36*
X331563Y355437D02*Y347563D01*
X339437D01*
Y355437D01*
X331563D01*
G37*
G54D100*X325500Y351500D03*
G54D95*X196500Y324500D03*
G54D96*G36*
X186516Y281452D02*X181398D01*
Y275548D01*
X186516D01*
Y281452D01*
G37*
G36*
X193602D02*X188484D01*
Y275548D01*
X193602D01*
Y281452D01*
G37*
G36*
X190000Y295000D02*Y303000D01*
X198000D01*
Y295000D01*
X190000D01*
G37*
G54D97*X194000Y309000D03*
G54D95*X189500Y255500D03*
G54D96*G36*
X186516Y267452D02*X181398D01*
Y261548D01*
X186516D01*
Y267452D01*
G37*
G36*
X193602D02*X188484D01*
Y261548D01*
X193602D01*
Y267452D01*
G37*
G54D101*X228500Y281500D03*
X217500D03*
G54D96*G36*
X202500Y270000D02*X211000D01*
Y268000D01*
X202500D01*
Y270000D01*
G37*
G36*
Y265000D02*X211000D01*
Y263000D01*
X202500D01*
Y265000D01*
G37*
G36*
Y260000D02*X211000D01*
Y258000D01*
X202500D01*
Y260000D01*
G37*
G36*
Y255000D02*X211000D01*
Y253000D01*
X202500D01*
Y255000D01*
G37*
G36*
X192260Y250464D02*Y245346D01*
X199740D01*
Y250464D01*
X192260D01*
G37*
G36*
X231500Y268000D02*X223000D01*
Y270000D01*
X231500D01*
Y268000D01*
G37*
G54D100*X227343Y293000D03*
G54D96*G36*
X203720Y296937D02*Y289063D01*
X211594D01*
Y296937D01*
X203720D01*
G37*
G36*
X209260Y318654D02*Y313536D01*
X216740D01*
Y318654D01*
X209260D01*
G37*
G36*
Y330464D02*Y325346D01*
X216740D01*
Y330464D01*
X209260D01*
G37*
G36*
X240154Y325740D02*X235036D01*
Y318260D01*
X240154D01*
Y325740D01*
G37*
G36*
X231500Y263000D02*X223000D01*
Y265000D01*
X231500D01*
Y263000D01*
G37*
G36*
X224260Y318654D02*Y313536D01*
X231740D01*
Y318654D01*
X224260D01*
G37*
G36*
Y330464D02*Y325346D01*
X231740D01*
Y330464D01*
X224260D01*
G37*
G36*
X231500Y258000D02*X223000D01*
Y260000D01*
X231500D01*
Y258000D01*
G37*
G36*
Y253000D02*X223000D01*
Y255000D01*
X231500D01*
Y253000D01*
G37*
G54D102*X262000Y307000D03*
G54D95*X238310Y275905D03*
G54D102*X262000Y289000D03*
G54D96*G36*
X245260Y278464D02*Y273346D01*
X252740D01*
Y278464D01*
X245260D01*
G37*
G54D102*X293000Y251500D03*
G54D96*G36*
X285815Y269036D02*Y260964D01*
X300185D01*
Y269036D01*
X285815D01*
G37*
G36*
X245260Y266654D02*Y261536D01*
X252740D01*
Y266654D01*
X245260D01*
G37*
G36*
X280000Y293000D02*X288000D01*
Y285000D01*
X280000D01*
Y293000D01*
G37*
G54D97*X294000Y289000D03*
G54D95*X178000Y324500D03*
G54D96*G36*
X160000Y275000D02*Y283000D01*
X168000D01*
Y275000D01*
X160000D01*
G37*
G54D97*X164000Y289000D03*
G54D96*G36*
X171984Y298834D02*X180056D01*
Y313204D01*
X171984D01*
Y298834D01*
G37*
G36*
X307559Y326240D02*X302441D01*
Y318760D01*
X307559D01*
Y326240D01*
G37*
G36*
X310295Y309186D02*Y301114D01*
X324665D01*
Y309186D01*
X310295D01*
G37*
G36*
X319369Y326240D02*X314251D01*
Y318760D01*
X319369D01*
Y326240D01*
G37*
G36*
X343315Y327036D02*Y318964D01*
X357685D01*
Y327036D01*
X343315D01*
G37*
G36*
X251964Y325740D02*X246846D01*
Y318260D01*
X251964D01*
Y325740D01*
G37*
G36*
X309535Y283095D02*X316425D01*
Y276205D01*
X309535D01*
Y283095D01*
G37*
G54D103*X322823Y279650D03*
G54D96*G36*
X337713Y300445D02*X344602D01*
Y293555D01*
X337713D01*
Y300445D01*
G37*
G54D103*X351000Y297000D03*
G54D96*G36*
X310295Y253186D02*Y245114D01*
X324665D01*
Y253186D01*
X310295D01*
G37*
G36*
X337735Y268095D02*X344625D01*
Y261205D01*
X337735D01*
Y268095D01*
G37*
G54D103*X351023Y264650D03*
G54D96*G36*
X197548Y222973D02*Y217855D01*
X203452D01*
Y222973D01*
X197548D01*
G37*
G36*
Y230059D02*Y224941D01*
X203452D01*
Y230059D01*
X197548D01*
G37*
G36*
X211548Y222973D02*Y217855D01*
X217452D01*
Y222973D01*
X211548D01*
G37*
G36*
Y230059D02*Y224941D01*
X217452D01*
Y230059D01*
X211548D01*
G37*
G54D95*X245500Y218000D03*
G54D96*G36*
X241760Y200154D02*Y195036D01*
X249240D01*
Y200154D01*
X241760D01*
G37*
G36*
Y211964D02*Y206846D01*
X249240D01*
Y211964D01*
X241760D01*
G37*
G36*
X184048Y222973D02*Y217855D01*
X189952D01*
Y222973D01*
X184048D01*
G37*
G36*
X190048Y203016D02*Y197898D01*
X195952D01*
Y203016D01*
X190048D01*
G37*
G36*
Y210102D02*Y204984D01*
X195952D01*
Y210102D01*
X190048D01*
G37*
G36*
X184048Y230059D02*Y224941D01*
X189952D01*
Y230059D01*
X184048D01*
G37*
G36*
X170548Y222973D02*Y217855D01*
X176452D01*
Y222973D01*
X170548D01*
G37*
G54D97*X174000Y209000D03*
G54D96*G36*
X170548Y230059D02*Y224941D01*
X176452D01*
Y230059D01*
X170548D01*
G37*
G54D95*X174000Y187500D03*
G54D96*G36*
X202500Y198500D02*X211000D01*
Y196500D01*
X202500D01*
Y198500D01*
G37*
G36*
Y193500D02*X211000D01*
Y191500D01*
X202500D01*
Y193500D01*
G37*
G36*
Y188500D02*X211000D01*
Y186500D01*
X202500D01*
Y188500D01*
G37*
G36*
X170000Y195000D02*Y203000D01*
X178000D01*
Y195000D01*
X170000D01*
G37*
G36*
X202500Y203500D02*X211000D01*
Y201500D01*
X202500D01*
Y203500D01*
G37*
G36*
X231500Y201500D02*X223000D01*
Y203500D01*
X231500D01*
Y201500D01*
G37*
G36*
Y196500D02*X223000D01*
Y198500D01*
X231500D01*
Y196500D01*
G37*
G36*
Y191500D02*X223000D01*
Y193500D01*
X231500D01*
Y191500D01*
G37*
G36*
Y186500D02*X223000D01*
Y188500D01*
X231500D01*
Y186500D01*
G37*
G36*
X184249Y191240D02*X179131D01*
Y183760D01*
X184249D01*
Y191240D01*
G37*
G36*
X196059D02*X190941D01*
Y183760D01*
X196059D01*
Y191240D01*
G37*
G36*
X150579Y190524D02*X160421D01*
Y200366D01*
X150579D01*
Y190524D01*
G37*
G36*
X96300Y278200D02*Y267800D01*
X106700D01*
Y278200D01*
X96300D01*
G37*
G36*
X94464Y320815D02*X102536D01*
Y335185D01*
X94464D01*
Y320815D01*
G37*
G36*
X115484Y323834D02*X123556D01*
Y338204D01*
X115484D01*
Y323834D01*
G37*
G36*
X96300Y306200D02*Y295800D01*
X106700D01*
Y306200D01*
X96300D01*
G37*
G54D102*X110500Y186500D03*
G54D104*X121185Y273000D03*
G54D96*G36*
X134646Y272803D02*X140354D01*
Y278512D01*
X134646D01*
Y272803D01*
G37*
G54D104*X121185Y301000D03*
G54D96*G36*
X123803Y317854D02*Y312146D01*
X129512D01*
Y317854D01*
X123803D01*
G37*
G54D105*X146343Y315000D03*
X137500Y295343D03*
G54D95*X162500Y236000D03*
X180000D03*
G54D106*X155500Y254500D03*
G54D96*G36*
X211154Y244740D02*X206036D01*
Y237260D01*
X211154D01*
Y244740D01*
G37*
G36*
X222964D02*X217846D01*
Y237260D01*
X222964D01*
Y244740D01*
G37*
G36*
X232834Y241016D02*Y232945D01*
X247204D01*
Y241016D01*
X232834D01*
G37*
G36*
X192260Y238654D02*Y233536D01*
X199740D01*
Y238654D01*
X192260D01*
G37*
G54D107*X305000Y230500D03*
X359500D03*
X349500D03*
X339500D03*
X329500D03*
G54D96*G36*
X322500Y227500D02*X316500D01*
Y233500D01*
X322500D01*
Y227500D01*
G37*
G54D107*X295000Y230500D03*
X285000D03*
X275000D03*
G54D96*G36*
X268000Y227500D02*X262000D01*
Y233500D01*
X268000D01*
Y227500D01*
G37*
G54D108*G54D109*G54D110*G54D108*G54D110*G54D108*G54D109*G54D108*G54D111*G54D112*G54D107*G54D108*G54D107*G54D109*G54D108*G54D109*G54D113*G54D108*G54D109*G54D108*G54D109*G54D114*G54D115*G54D107*G54D115*G54D116*G54D115*G54D116*G54D108*G54D114*G54D117*G54D118*X167233Y353240D02*X171957D01*
X167233Y368240D02*X171957D01*
X167233Y360760D02*X171957D01*
X184745Y363107D02*Y363893D01*
G54D119*X142555Y345500D02*X84455D01*
G54D120*X92693Y336956D02*X104307D01*
X113713Y339976D02*X125327D01*
G54D118*X190255Y363107D02*Y363893D01*
X184745Y350107D02*Y350893D01*
X190255Y350107D02*Y350893D01*
G54D119*X84455Y402500D02*X142555D01*
X84455D02*Y345500D01*
X91705Y485500D02*Y436500D01*
G54D120*X92693Y319044D02*Y336956D01*
X104307D02*Y319044D01*
X92693D01*
X113713Y322063D02*Y339976D01*
G54D111*X109374Y301000D02*X113311D01*
G54D119*X142555Y402500D02*Y345500D01*
G54D120*X125327Y339976D02*Y322063D01*
X113713D01*
X122327Y319921D02*X150673D01*
X122327Y310079D02*Y319921D01*
X131185Y315000D02*X135516D01*
X137484Y317362D02*Y312638D01*
X150673Y319921D02*Y310079D01*
X122327D01*
X135516Y317362D02*Y312638D01*
X137484Y315000D02*X141815D01*
G54D119*X88255Y436500D02*X138755D01*
X91705Y485500D02*X135305D01*
Y436500D01*
X88255D02*Y402500D01*
Y435000D02*X138755Y430000D01*
X88255Y431500D02*X138755Y426500D01*
X88255Y404500D02*X108455Y402500D01*
X138755Y433500D02*X107455Y436500D01*
X88255Y410500D02*X138755Y405500D01*
X88255Y407500D02*X138755Y402500D01*
X88255Y419500D02*X138755Y414500D01*
X88255Y416500D02*X138755Y411500D01*
X88255Y413500D02*X138755Y408500D01*
Y436500D02*Y402500D01*
X88255Y428500D02*X138755Y423500D01*
X88255Y425500D02*X138755Y420500D01*
X88255Y422500D02*X138755Y417500D01*
G54D120*X278000Y375500D02*Y385500D01*
X288000D02*X278000D01*
X288000D01*
X278000Y375500D02*X288000D01*
Y385500D02*Y375500D01*
Y385500D01*
X279000Y344000D02*Y364000D01*
X289000D02*X279000D01*
X284000Y344000D02*X281500Y339000D01*
X284000Y344000D02*X286500Y339000D01*
X281500D02*X286500D01*
X193000Y377000D02*Y337000D01*
X233000D02*X193000D01*
G54D118*X241043Y345740D02*X245767D01*
X241043Y338260D02*X245767D01*
G54D120*X233000Y337000D02*Y377000D01*
X193000D02*X208000D01*
X218000D02*X233000D01*
G54D118*X248638Y375740D02*X253362D01*
X248638Y368260D02*X253362D01*
X248638Y360740D02*X253362D01*
X248638Y353260D02*X253362D01*
X167233Y345760D02*X171957D01*
X224260Y319638D02*Y324362D01*
X209260Y319638D02*Y324362D01*
X216740Y319638D02*Y324362D01*
X308543Y326240D02*X313267D01*
X308543Y318760D02*X313267D01*
X231740Y319638D02*Y324362D01*
X241138Y325740D02*X245862D01*
X241138Y318260D02*X245862D01*
G54D120*X279000Y344000D02*X289000D01*
X284044Y270807D02*X301956D01*
Y259193D01*
X284044D01*
Y270807D01*
X308524Y254957D02*X326436D01*
G54D121*X314801Y273744D02*X309300D01*
X314801Y285556D02*X309300D01*
X314801Y271776D02*X311057D01*
X314801Y269807D02*X314441D01*
X314801Y287524D02*X311057D01*
G54D120*X308524Y299343D02*Y310957D01*
X279000Y294000D02*Y284000D01*
Y294000D02*X299000D01*
Y284000D02*X279000D01*
Y289000D02*X274000Y291500D01*
X279000Y289000D02*X274000Y286500D01*
Y291500D02*Y286500D01*
G54D121*X314801Y289493D02*X314441D01*
G54D120*X326436Y299343D02*X308524D01*
X299000Y284000D02*Y294000D01*
X308524Y310957D02*X326436D01*
Y299343D01*
G54D118*X187107Y281255D02*X187893D01*
G54D120*X299500Y279650D02*X303500D01*
X301500Y281650D02*Y277650D01*
X159000Y274000D02*X169000D01*
X203327Y307173D02*X231673D01*
X189000Y294000D02*X199000D01*
X194000D02*X191500Y289000D01*
X196500D01*
G54D118*X187107Y275745D02*X187893D01*
G54D122*X213563Y293000D02*X215531D01*
Y296150D02*Y289850D01*
G54D120*X194000Y294000D02*X196500Y289000D01*
X203327Y278827D02*Y307173D01*
G54D122*X219469Y296150D02*Y289850D01*
G54D120*X189000Y294000D02*Y314000D01*
X199000D02*Y294000D01*
Y314000D02*X189000D01*
X231673Y307173D02*Y278827D01*
X203327D01*
G54D122*X219469Y293000D02*X221437D01*
G54D120*X132579Y271327D02*Y299673D01*
X142421D01*
Y271327D01*
X137500Y286484D02*Y290815D01*
X135138Y286484D02*X139862D01*
X159000Y274000D02*Y294000D01*
X142421Y271327D02*X132579D01*
X137500Y280185D02*Y284516D01*
X135138D02*X139862D01*
X169000Y294000D02*Y274000D01*
X170213Y297063D02*Y314976D01*
X181827D01*
Y297063D01*
X170213D01*
X169000Y294000D02*X159000D01*
X164000Y274000D02*X161500Y269000D01*
X164000Y274000D02*X166500Y269000D01*
X161500D02*X166500D01*
G54D118*X187107Y267255D02*X187893D01*
G54D120*X201000Y271500D02*Y251500D01*
G54D118*X187107Y261745D02*X187893D01*
G54D120*X201000Y271500D02*X214500D01*
X219500D02*X233000D01*
Y251500D02*X201000D01*
X233000D02*Y271500D01*
G54D118*X245260Y267638D02*Y272362D01*
X252740Y267638D02*Y272362D01*
G54D120*X341544Y328807D02*X359456D01*
Y317193D01*
X341544D02*Y328807D01*
X359456Y317193D02*X341544D01*
X329677Y299000D02*Y295000D01*
G54D121*X342978Y302906D02*X337478D01*
X342978Y304874D02*X339234D01*
X342978Y306843D02*X342618D01*
G54D120*X332303Y279650D02*X336303D01*
G54D121*X343001Y272524D02*X339257D01*
X342978Y291094D02*X337478D01*
X342978Y289126D02*X339234D01*
X342978Y287157D02*X342618D01*
G54D120*X327700Y264650D02*X331700D01*
G54D121*X343001Y270556D02*X337500D01*
X343001Y274493D02*X342641D01*
G54D120*X326436Y254957D02*Y243343D01*
X329700Y266650D02*Y262650D01*
G54D121*X343001Y258744D02*X337500D01*
X343001Y256776D02*X339257D01*
G54D120*X364500Y220000D02*X314500D01*
X360503Y264650D02*X364503D01*
G54D121*X343001Y254807D02*X342641D01*
G54D120*X319500Y187800D02*X359500D01*
X360480Y297000D02*X364480D01*
X364500Y220000D02*Y207500D01*
X353000D02*X356000D01*
G54D101*X359500Y212100D02*Y214300D01*
Y222000D02*Y230500D01*
G54D120*X364500Y207500D02*X359500D01*
G54D101*X349500Y194100D02*Y196300D01*
Y203100D02*Y205300D01*
X359500Y203100D02*Y205300D01*
G54D120*Y207500D02*Y187800D01*
G54D101*Y194100D02*Y196300D01*
G54D119*X360750Y186100D02*Y207200D01*
G54D101*X349500Y212100D02*Y214300D01*
G54D120*X343000Y207500D02*X346000D01*
G54D101*X349500Y222000D02*Y230500D01*
G54D120*X346000Y187800D02*X359500D01*
G54D101*X349500Y186300D02*Y183100D01*
X359500Y186300D02*Y183100D01*
G54D120*X327677Y297000D02*X331677D01*
G54D101*X319500Y212100D02*Y214300D01*
X329500Y222000D02*Y230500D01*
X319500Y222000D02*Y230500D01*
G54D120*X314500Y207500D02*X319500D01*
X323000D02*X326000D01*
G54D101*X329500Y212100D02*Y214300D01*
G54D120*X314500Y207500D02*Y220000D01*
X333000Y207500D02*X336000D01*
G54D101*X319500Y194100D02*Y196300D01*
Y203100D02*Y205300D01*
X329500Y203100D02*Y205300D01*
G54D120*X319500Y187800D02*Y207500D01*
G54D101*X339500Y194100D02*Y196300D01*
X329500Y194100D02*Y196300D01*
X339500Y203100D02*Y205300D01*
Y212100D02*Y214300D01*
X329500Y186300D02*Y183100D01*
X319500Y186300D02*Y183100D01*
G54D119*X318250Y185800D02*Y207200D01*
G54D101*X339500Y222000D02*Y230500D01*
Y186300D02*Y183100D01*
G54D119*X306500Y343500D02*X364500D01*
Y402500D01*
X360500Y436400D02*Y402500D01*
X354500Y436400D02*Y483500D01*
X316500D01*
Y436400D01*
X310500Y435000D02*X360500Y430000D01*
X310500Y436400D02*X360500D01*
X321400D02*X360500Y432500D01*
X346000Y436400D02*X360500Y435000D01*
X310500Y427500D02*X360500Y422500D01*
X310500Y430000D02*X360500Y425000D01*
X310500Y432500D02*X360500Y427500D01*
X310500Y420000D02*X360500Y415000D01*
X310500Y422500D02*X360500Y417500D01*
X310500Y425000D02*X360500Y420000D01*
X310500Y412500D02*X360500Y407500D01*
X310500Y415000D02*X360500Y410000D01*
X310500Y417500D02*X360500Y412500D01*
X364500Y402500D02*X306500D01*
X310500Y407500D02*X360500Y402500D01*
X310500Y410000D02*X360500Y405000D01*
X310500D02*X335500Y402500D01*
X306500D02*Y343500D01*
G54D118*X212138Y244740D02*X216862D01*
X212138Y237260D02*X216862D01*
G54D120*X231063Y242787D02*X248976D01*
Y231173D02*X231063D01*
Y242787D01*
X326436Y243343D02*X308524D01*
X248976Y242787D02*Y231173D01*
X310000Y220000D02*X260000D01*
G54D118*X217255Y223564D02*Y224350D01*
G54D120*X308524Y243343D02*Y254957D01*
G54D119*X310500Y402500D02*Y436400D01*
G54D120*X310000Y220000D02*Y207500D01*
X305000D01*
X298500D02*X301500D01*
G54D101*X295000Y194100D02*Y196300D01*
Y203100D02*Y205300D01*
G54D120*X305000Y207500D02*Y187800D01*
G54D101*Y194100D02*Y196300D01*
Y203100D02*Y205300D01*
G54D120*X291500Y187800D02*X305000D01*
X288500Y207500D02*X291500D01*
G54D101*X305000Y212100D02*Y214300D01*
Y186300D02*Y183100D01*
G54D119*X306250Y186100D02*Y207200D01*
G54D101*X295000Y212100D02*Y214300D01*
Y186300D02*Y183100D01*
X305000Y222000D02*Y230500D01*
X295000Y222000D02*Y230500D01*
G54D120*X289000Y364000D02*Y344000D01*
X201000Y205000D02*Y185000D01*
Y205000D02*X214500D01*
X219500D02*X233000D01*
G54D118*X197745Y223564D02*Y224350D01*
X203255Y223564D02*Y224350D01*
X211745Y223564D02*Y224350D01*
G54D120*X233000Y185000D02*X201000D01*
X233000D02*Y205000D01*
G54D118*X241760Y201138D02*Y205862D01*
X195755Y203607D02*Y204393D01*
X249240Y201138D02*Y205862D01*
G54D120*X260000Y207500D02*Y220000D01*
Y207500D02*X265000D01*
G54D101*Y203100D02*Y205300D01*
Y212100D02*Y214300D01*
G54D120*Y187800D02*Y207500D01*
G54D101*Y194100D02*Y196300D01*
Y222000D02*Y230500D01*
Y186300D02*Y183100D01*
G54D119*X263750Y185800D02*Y207200D01*
G54D120*X268500Y207500D02*X271500D01*
X278500D02*X281500D01*
G54D101*X285000Y194100D02*Y196300D01*
Y212100D02*Y214300D01*
Y203100D02*Y205300D01*
Y222000D02*Y230500D01*
Y186300D02*Y183100D01*
X275000Y194100D02*Y196300D01*
Y212100D02*Y214300D01*
Y203100D02*Y205300D01*
Y222000D02*Y230500D01*
Y186300D02*Y183100D01*
G54D120*X143689Y188555D02*X88571D01*
X143689D02*Y191508D01*
X145657Y188555D02*X147626D01*
G54D118*X185233Y191240D02*X189957D01*
G54D120*X147626Y188555D02*Y190524D01*
X265000Y187800D02*X305000D01*
X171500Y189000D02*X176500D01*
X147626Y246626D02*Y249579D01*
Y239736D02*Y242689D01*
Y232846D02*Y235799D01*
X143689Y250563D02*Y199382D01*
X147626Y221035D02*Y223004D01*
Y226941D02*Y228909D01*
Y200366D02*Y203319D01*
X116130Y226941D02*Y254500D01*
X147626Y214146D02*Y217098D01*
X112193Y223004D02*X120067D01*
X112193Y226941D02*X120067D01*
X149594Y195445D02*X116130D01*
Y223004D02*Y195445D01*
X147626Y207256D02*Y210209D01*
X169000Y194000D02*Y214000D01*
X179000D02*X169000D01*
G54D118*X185233Y183760D02*X189957D01*
G54D120*X169000Y194000D02*X179000D01*
Y214000D02*Y194000D01*
X174000D02*X171500Y189000D01*
X174000Y194000D02*X176500Y189000D01*
G54D118*X190245Y203607D02*Y204393D01*
X184245Y223564D02*Y224350D01*
X189755Y223564D02*Y224350D01*
X192260Y239638D02*Y244362D01*
X199740Y239638D02*Y244362D01*
X170745Y223564D02*Y224350D01*
X176255Y223564D02*Y224350D01*
G54D120*X88571Y188555D02*Y261390D01*
X143689D01*
Y258437D01*
X145657Y261390D02*X147626D01*
Y259421D02*Y261390D01*
X149594Y254500D02*X116130D01*
G54D111*X109374Y273000D02*X113311D01*
G54D120*X214500Y205000D02*G75*G03X219500Y205000I2500J0D01*G01*
X214500Y271500D02*G75*G03X219500Y271500I2500J0D01*G01*
X143689Y199382D02*G75*G02X143689Y191508I0J-3937D01*G01*
Y258437D02*G75*G02X143689Y250563I0J-3937D01*G01*
X305500Y279650D02*G75*G03X330303Y279650I12402J0D01*G01*
G75*G03X305500Y279650I-12402J0D01*G01*
X333700Y264650D02*G75*G03X358503Y264650I12402J0D01*G01*
G75*G03X333700Y264650I-12402J0D01*G01*
X333677Y297000D02*G75*G03X358480Y297000I12402J0D01*G01*
G75*G03X333677Y297000I-12402J0D01*G01*
X208000Y377000D02*G75*G03X218000Y377000I5000J0D01*G01*
X91657Y273000D02*G75*G03X111343Y273000I9843J0D01*G01*
G75*G03X91657Y273000I-9843J0D01*G01*
Y301000D02*G75*G03X111343Y301000I9843J0D01*G01*
G75*G03X91657Y301000I-9843J0D01*G01*
G54D123*X276000Y369700D02*Y371000D01*
X275300Y369000D02*X276000Y369700D01*
X272700Y369000D02*X275300D01*
X272700D02*X272000Y369700D01*
Y371000D01*
Y372200D02*X276000D01*
X272000Y374700D02*X276000D01*
X274000Y372200D02*Y374700D01*
X273000Y375900D02*X276000D01*
X273000D02*X272000Y376600D01*
Y377700D01*
X273000Y378400D01*
X276000D01*
X274000Y375900D02*Y378400D01*
X272000Y381600D02*X272500Y382100D01*
X272000Y380100D02*Y381600D01*
X272500Y379600D02*X272000Y380100D01*
X272500Y379600D02*X273500D01*
X274000Y380100D01*
Y381600D01*
X274500Y382100D01*
X275500D01*
X276000Y381600D02*X275500Y382100D01*
X276000Y380100D02*Y381600D01*
X275500Y379600D02*X276000Y380100D01*
X272000Y385300D02*X272500Y385800D01*
X272000Y383800D02*Y385300D01*
X272500Y383300D02*X272000Y383800D01*
X272500Y383300D02*X273500D01*
X274000Y383800D01*
Y385300D01*
X274500Y385800D01*
X275500D01*
X276000Y385300D02*X275500Y385800D01*
X276000Y383800D02*Y385300D01*
X275500Y383300D02*X276000Y383800D01*
X272000Y387000D02*Y388000D01*
Y387500D02*X276000D01*
Y387000D02*Y388000D01*
X272000Y391200D02*X272500Y391700D01*
X272000Y389700D02*Y391200D01*
X272500Y389200D02*X272000Y389700D01*
X272500Y389200D02*X273500D01*
X274000Y389700D01*
Y391200D01*
X274500Y391700D01*
X275500D01*
X276000Y391200D02*X275500Y391700D01*
X276000Y389700D02*Y391200D01*
X275500Y389200D02*X276000Y389700D01*
X306255Y332150D02*X308255D01*
X308755Y331650D01*
Y330650D01*
X308255Y330150D02*X308755Y330650D01*
X306755Y330150D02*X308255D01*
X306755Y332150D02*Y328150D01*
X307555Y330150D02*X308755Y328150D01*
X309955Y331350D02*X310755Y332150D01*
Y328150D01*
X309955D02*X311455D01*
X312655Y331650D02*X313155Y332150D01*
X314655D01*
X315155Y331650D01*
Y330650D01*
X312655Y328150D02*X315155Y330650D01*
X312655Y328150D02*X315155D01*
X339756Y335012D02*X341756D01*
X340756D02*Y331012D01*
X343457Y335012D02*Y331012D01*
X342957Y335012D02*X344957D01*
X345457Y334512D01*
Y333512D01*
X344957Y333012D02*X345457Y333512D01*
X343457Y333012D02*X344957D01*
X347157Y331012D02*X348657Y333012D01*
Y334512D02*Y333012D01*
X348157Y335012D02*X348657Y334512D01*
X347157Y335012D02*X348157D01*
X346657Y334512D02*X347157Y335012D01*
X346657Y334512D02*Y333512D01*
X347157Y333012D01*
X348657D01*
X307200Y337500D02*X308500D01*
X306500Y338200D02*X307200Y337500D01*
X306500Y340800D02*Y338200D01*
Y340800D02*X307200Y341500D01*
X308500D01*
X309700Y341000D02*Y338000D01*
Y341000D02*X310200Y341500D01*
X311200D01*
X311700Y341000D01*
Y338000D01*
X311200Y337500D02*X311700Y338000D01*
X310200Y337500D02*X311200D01*
X309700Y338000D02*X310200Y337500D01*
X312900Y341500D02*Y337500D01*
Y341500D02*X315400Y337500D01*
Y341500D02*Y337500D01*
X316600Y341500D02*Y337500D01*
Y341500D02*X319100Y337500D01*
Y341500D02*Y337500D01*
X320300Y340700D02*X321100Y341500D01*
Y337500D01*
X320300D02*X321800D01*
X323000Y338000D02*X323500Y337500D01*
X323000Y341000D02*Y338000D01*
Y341000D02*X323500Y341500D01*
X324500D01*
X325000Y341000D01*
Y338000D01*
X324500Y337500D02*X325000Y338000D01*
X323500Y337500D02*X324500D01*
X323000Y338500D02*X325000Y340500D01*
X277500Y344700D02*Y346000D01*
X276800Y344000D02*X277500Y344700D01*
X274200Y344000D02*X276800D01*
X274200D02*X273500Y344700D01*
Y346000D01*
X274000Y347200D02*X277000D01*
X274000D02*X273500Y347700D01*
Y348700D01*
X274000Y349200D01*
X277000D01*
X277500Y348700D02*X277000Y349200D01*
X277500Y347700D02*Y348700D01*
X277000Y347200D02*X277500Y347700D01*
X273500Y350400D02*X277500D01*
X273500D02*X277500Y352900D01*
X273500D02*X277500D01*
X273500Y354100D02*X277500D01*
X273500D02*X277500Y356600D01*
X273500D02*X277500D01*
X276000Y357800D02*X273500Y359800D01*
X276000Y357800D02*Y360300D01*
X273500Y359800D02*X277500D01*
X274000Y361500D02*X273500Y362000D01*
Y363500D01*
X274000Y364000D01*
X275000D01*
X277500Y361500D02*X275000Y364000D01*
X277500Y361500D02*Y364000D01*
X352500Y334500D02*Y331500D01*
Y334500D02*X353000Y335000D01*
X354000D01*
X354500Y334500D01*
Y331500D01*
X354000Y331000D02*X354500Y331500D01*
X353000Y331000D02*X354000D01*
X352500Y331500D02*X353000Y331000D01*
X355700Y335000D02*Y331500D01*
X356200Y331000D01*
X357200D01*
X357700Y331500D01*
Y335000D02*Y331500D01*
X358900Y335000D02*X360900D01*
X359900D02*Y331000D01*
X320000Y315000D02*X322000D01*
X323200Y317000D02*X324200Y313000D01*
X325200Y317000D01*
X342333Y278650D02*X343633D01*
X341633Y279350D02*X342333Y278650D01*
X341633Y281950D02*Y279350D01*
Y281950D02*X342333Y282650D01*
X343633D01*
X344833Y281850D02*X345633Y282650D01*
Y278650D01*
X344833D02*X346333D01*
X347533Y280150D02*X349533Y282650D01*
X347533Y280150D02*X350033D01*
X349533Y282650D02*Y278650D01*
X307736Y317162D02*X309736D01*
X308736D02*Y313162D01*
X311437Y317162D02*Y313162D01*
X310937Y317162D02*X312937D01*
X313437Y316662D01*
Y315662D01*
X312937Y315162D02*X313437Y315662D01*
X311437Y315162D02*X312937D01*
X314637Y313662D02*X315137Y313162D01*
X314637Y314462D02*Y313662D01*
Y314462D02*X315337Y315162D01*
X315937D01*
X316637Y314462D01*
Y313662D01*
X316137Y313162D02*X316637Y313662D01*
X315137Y313162D02*X316137D01*
X314637Y315862D02*X315337Y315162D01*
X314637Y316662D02*Y315862D01*
Y316662D02*X315137Y317162D01*
X316137D01*
X316637Y316662D01*
Y315862D01*
X315937Y315162D02*X316637Y315862D01*
X342310Y311000D02*X343610D01*
X341610Y311700D02*X342310Y311000D01*
X341610Y314300D02*Y311700D01*
Y314300D02*X342310Y315000D01*
X343610D01*
X344810Y314200D02*X345610Y315000D01*
Y311000D01*
X344810D02*X346310D01*
X347510Y314500D02*X348010Y315000D01*
X349010D01*
X349510Y314500D01*
X349010Y311000D02*X349510Y311500D01*
X348010Y311000D02*X349010D01*
X347510Y311500D02*X348010Y311000D01*
Y313200D02*X349010D01*
X349510Y314500D02*Y313700D01*
Y312700D02*Y311500D01*
Y312700D02*X349010Y313200D01*
X349510Y313700D02*X349010Y313200D01*
X270000Y373700D02*Y375000D01*
X269300Y373000D02*X270000Y373700D01*
X266700Y373000D02*X269300D01*
X266700D02*X266000Y373700D01*
Y375000D01*
X266500Y376200D02*X269500D01*
X266500D02*X266000Y376700D01*
Y377700D01*
X266500Y378200D01*
X269500D01*
X270000Y377700D02*X269500Y378200D01*
X270000Y376700D02*Y377700D01*
X269500Y376200D02*X270000Y376700D01*
X266000Y379400D02*X270000D01*
X266000D02*X270000Y381900D01*
X266000D02*X270000D01*
X266000Y383100D02*X270000D01*
X266000D02*X270000Y385600D01*
X266000D02*X270000D01*
X266000Y386800D02*Y388800D01*
Y386800D02*X268000D01*
X267500Y387300D01*
Y388300D01*
X268000Y388800D01*
X269500D01*
X270000Y388300D02*X269500Y388800D01*
X270000Y387300D02*Y388300D01*
X269500Y386800D02*X270000Y387300D01*
X279700Y295500D02*X281000D01*
X279000Y296200D02*X279700Y295500D01*
X279000Y298800D02*Y296200D01*
Y298800D02*X279700Y299500D01*
X281000D01*
X282200Y299000D02*Y296000D01*
Y299000D02*X282700Y299500D01*
X283700D01*
X284200Y299000D01*
Y296000D01*
X283700Y295500D02*X284200Y296000D01*
X282700Y295500D02*X283700D01*
X282200Y296000D02*X282700Y295500D01*
X285400Y299500D02*Y295500D01*
Y299500D02*X287900Y295500D01*
Y299500D02*Y295500D01*
X289100Y299500D02*Y295500D01*
Y299500D02*X291600Y295500D01*
Y299500D02*Y295500D01*
X294300Y299500D02*X294800Y299000D01*
X293300Y299500D02*X294300D01*
X292800Y299000D02*X293300Y299500D01*
X292800Y299000D02*Y296000D01*
X293300Y295500D01*
X294300Y297700D02*X294800Y297200D01*
X292800Y297700D02*X294300D01*
X293300Y295500D02*X294300D01*
X294800Y296000D01*
Y297200D02*Y296000D01*
X296000Y299000D02*X296500Y299500D01*
X298000D01*
X298500Y299000D01*
Y298000D01*
X296000Y295500D02*X298500Y298000D01*
X296000Y295500D02*X298500D01*
X86205Y339000D02*X87505D01*
X85505Y339700D02*X86205Y339000D01*
X85505Y342300D02*Y339700D01*
Y342300D02*X86205Y343000D01*
X87505D01*
X88705Y342500D02*Y339500D01*
Y342500D02*X89205Y343000D01*
X90205D01*
X90705Y342500D01*
Y339500D01*
X90205Y339000D02*X90705Y339500D01*
X89205Y339000D02*X90205D01*
X88705Y339500D02*X89205Y339000D01*
X91905Y343000D02*Y339000D01*
Y343000D02*X94405Y339000D01*
Y343000D02*Y339000D01*
X95605Y343000D02*Y339000D01*
Y343000D02*X98105Y339000D01*
Y343000D02*Y339000D01*
X99305Y340500D02*X101305Y343000D01*
X99305Y340500D02*X101805D01*
X101305Y343000D02*Y339000D01*
X103005Y339500D02*X103505Y339000D01*
X103005Y342500D02*Y339500D01*
Y342500D02*X103505Y343000D01*
X104505D01*
X105005Y342500D01*
Y339500D01*
X104505Y339000D02*X105005Y339500D01*
X103505Y339000D02*X104505D01*
X103005Y340000D02*X105005Y342000D01*
X98547Y288732D02*Y284732D01*
X100547D01*
X101747Y288232D02*X102247Y288732D01*
X103747D01*
X104247Y288232D01*
Y287232D01*
X101747Y284732D02*X104247Y287232D01*
X101747Y284732D02*X104247D01*
X86488Y323256D02*Y325256D01*
Y324256D02*X90488D01*
X86488Y326957D02*X90488D01*
X86488Y326457D02*Y328457D01*
X86988Y328957D01*
X87988D01*
X88488Y328457D02*X87988Y328957D01*
X88488Y326957D02*Y328457D01*
X88988Y330157D02*X86488Y332157D01*
X88988Y330157D02*Y332657D01*
X86488Y332157D02*X90488D01*
X107508Y326276D02*Y328276D01*
Y327276D02*X111508D01*
X107508Y329976D02*X111508D01*
X107508Y329476D02*Y331476D01*
X108008Y331976D01*
X109008D01*
X109508Y331476D02*X109008Y331976D01*
X109508Y329976D02*Y331476D01*
X107508Y333176D02*Y335176D01*
Y333176D02*X109508D01*
X109008Y333676D01*
Y334676D01*
X109508Y335176D01*
X111008D01*
X111508Y334676D02*X111008Y335176D01*
X111508Y333676D02*Y334676D01*
X111008Y333176D02*X111508Y333676D01*
X98547Y316732D02*Y312732D01*
X100547D01*
X101747Y315932D02*X102547Y316732D01*
Y312732D01*
X101747D02*X103247D01*
X164445Y359150D02*X166445D01*
X166945Y358650D01*
Y357650D01*
X166445Y357150D02*X166945Y357650D01*
X164945Y357150D02*X166445D01*
X164945Y359150D02*Y355150D01*
X165745Y357150D02*X166945Y355150D01*
X168145Y356650D02*X170145Y359150D01*
X168145Y356650D02*X170645D01*
X170145Y359150D02*Y355150D01*
X171845Y358650D02*X172345Y359150D01*
X173345D01*
X173845Y358650D01*
X173345Y355150D02*X173845Y355650D01*
X172345Y355150D02*X173345D01*
X171845Y355650D02*X172345Y355150D01*
Y357350D02*X173345D01*
X173845Y358650D02*Y357850D01*
Y356850D02*Y355650D01*
Y356850D02*X173345Y357350D01*
X173845Y357850D02*X173345Y357350D01*
X164445Y374150D02*X166445D01*
X166945Y373650D01*
Y372650D01*
X166445Y372150D02*X166945Y372650D01*
X164945Y372150D02*X166445D01*
X164945Y374150D02*Y370150D01*
X165745Y372150D02*X166945Y370150D01*
X168145Y371650D02*X170145Y374150D01*
X168145Y371650D02*X170645D01*
X170145Y374150D02*Y370150D01*
X171845Y373650D02*X172345Y374150D01*
X173845D01*
X174345Y373650D01*
Y372650D01*
X171845Y370150D02*X174345Y372650D01*
X171845Y370150D02*X174345D01*
X158508Y301276D02*Y303276D01*
Y302276D02*X162508D01*
X158508Y304976D02*X162508D01*
X158508Y304476D02*Y306476D01*
X159008Y306976D01*
X160008D01*
X160508Y306476D02*X160008Y306976D01*
X160508Y304976D02*Y306476D01*
X159308Y308176D02*X158508Y308976D01*
X162508D01*
Y308176D02*Y309676D01*
X133141Y321705D02*X134441D01*
X132441Y322405D02*X133141Y321705D01*
X132441Y325005D02*Y322405D01*
Y325005D02*X133141Y325705D01*
X134441D01*
X135641Y323205D02*X137641Y325705D01*
X135641Y323205D02*X138141D01*
X137641Y325705D02*Y321705D01*
X139341Y322205D02*X139841Y321705D01*
X139341Y325205D02*Y322205D01*
Y325205D02*X139841Y325705D01*
X140841D01*
X141341Y325205D01*
Y322205D01*
X140841Y321705D02*X141341Y322205D01*
X139841Y321705D02*X140841D01*
X139341Y322705D02*X141341Y324705D01*
X130295Y283641D02*Y284941D01*
X129595Y282941D02*X130295Y283641D01*
X126995Y282941D02*X129595D01*
X126995D02*X126295Y283641D01*
Y284941D01*
X128795Y286141D02*X126295Y288141D01*
X128795Y286141D02*Y288641D01*
X126295Y288141D02*X130295D01*
X127095Y289841D02*X126295Y290641D01*
X130295D01*
Y289841D02*Y291341D01*
X164000Y299500D02*X164500Y300000D01*
X164000Y298000D02*Y299500D01*
X164500Y297500D02*X164000Y298000D01*
X164500Y297500D02*X165500D01*
X166000Y298000D01*
Y299500D01*
X166500Y300000D01*
X167500D01*
X168000Y299500D02*X167500Y300000D01*
X168000Y298000D02*Y299500D01*
X167500Y297500D02*X168000Y298000D01*
X164000Y301200D02*X168000D01*
X164000D02*X166000Y302700D01*
X164000Y304200D01*
X168000D01*
X165000Y305400D02*X168000D01*
X165000D02*X164000Y306100D01*
Y307200D01*
X165000Y307900D01*
X168000D01*
X166000Y305400D02*Y307900D01*
X164000Y309100D02*X168000D01*
Y311100D01*
X164000Y312300D02*X168000D01*
Y314300D01*
X179326Y358767D02*Y360767D01*
X179826Y361267D01*
X180826D01*
X181326Y360767D02*X180826Y361267D01*
X181326Y359267D02*Y360767D01*
X179326Y359267D02*X183326D01*
X181326Y360067D02*X183326Y361267D01*
X181826Y362467D02*X179326Y364467D01*
X181826Y362467D02*Y364967D01*
X179326Y364467D02*X183326D01*
X179326Y366167D02*Y368167D01*
Y366167D02*X181326D01*
X180826Y366667D01*
Y367667D01*
X181326Y368167D01*
X182826D01*
X183326Y367667D02*X182826Y368167D01*
X183326Y366667D02*Y367667D01*
X182826Y366167D02*X183326Y366667D01*
X179850Y345945D02*Y347945D01*
X180350Y348445D01*
X181350D01*
X181850Y347945D02*X181350Y348445D01*
X181850Y346445D02*Y347945D01*
X179850Y346445D02*X183850D01*
X181850Y347245D02*X183850Y348445D01*
X182350Y349645D02*X179850Y351645D01*
X182350Y349645D02*Y352145D01*
X179850Y351645D02*X183850D01*
X180650Y353345D02*X179850Y354145D01*
X183850D01*
Y353345D02*Y354845D01*
X231000Y248000D02*Y245000D01*
Y248000D02*X231500Y248500D01*
X232500D01*
X233000Y248000D01*
Y245000D01*
X232500Y244500D02*X233000Y245000D01*
X231500Y244500D02*X232500D01*
X231000Y245000D02*X231500Y244500D01*
X234200Y248500D02*Y244500D01*
Y248500D02*X236200D01*
X234200Y246700D02*X235700D01*
X237400Y248500D02*Y244500D01*
Y248500D02*X239400D01*
X237400Y246700D02*X238900D01*
X242600Y248500D02*X243100Y248000D01*
X241100Y248500D02*X242600D01*
X240600Y248000D02*X241100Y248500D01*
X240600Y248000D02*Y247000D01*
X241100Y246500D01*
X242600D01*
X243100Y246000D01*
Y245000D01*
X242600Y244500D02*X243100Y245000D01*
X241100Y244500D02*X242600D01*
X240600Y245000D02*X241100Y244500D01*
X244300Y246700D02*X245800D01*
X244300Y244500D02*X246300D01*
X244300Y248500D02*Y244500D01*
Y248500D02*X246300D01*
X247500D02*X249500D01*
X248500D02*Y244500D01*
X243778Y266149D02*Y267449D01*
X243078Y265449D02*X243778Y266149D01*
X240478Y265449D02*X243078D01*
X240478D02*X239778Y266149D01*
Y267449D01*
X240278Y268649D02*X239778Y269149D01*
Y270649D01*
X240278Y271149D01*
X241278D01*
X243778Y268649D02*X241278Y271149D01*
X243778Y268649D02*Y271149D01*
X240578Y272349D02*X239778Y273149D01*
X243778D01*
Y272349D02*Y273849D01*
X234776Y253992D02*X236776D01*
X235776D02*Y249992D01*
X238476Y253992D02*Y249992D01*
X237976Y253992D02*X239976D01*
X240476Y253492D01*
Y252492D01*
X239976Y251992D02*X240476Y252492D01*
X238476Y251992D02*X239976D01*
X241676Y253492D02*X242176Y253992D01*
X243676D01*
X244176Y253492D01*
Y252492D01*
X241676Y249992D02*X244176Y252492D01*
X241676Y249992D02*X244176D01*
X290000Y277000D02*X290500Y276500D01*
X288500Y277000D02*X290000D01*
X288000Y276500D02*X288500Y277000D01*
X288000Y276500D02*Y273500D01*
X288500Y273000D01*
X290000D01*
X290500Y273500D01*
Y274500D02*Y273500D01*
X290000Y275000D02*X290500Y274500D01*
X289000Y275000D02*X290000D01*
X291700Y277000D02*Y273000D01*
Y277000D02*X294200Y273000D01*
Y277000D02*Y273000D01*
X295900Y277000D02*Y273000D01*
X297200Y277000D02*X297900Y276300D01*
Y273700D01*
X297200Y273000D02*X297900Y273700D01*
X295400Y273000D02*X297200D01*
X295400Y277000D02*X297200D01*
X314500Y259000D02*X316500D01*
X315500Y260000D02*Y258000D01*
X317700Y261000D02*X318700Y257000D01*
X319700Y261000D01*
X312736Y266162D02*X314736D01*
X313736D02*Y262162D01*
X316437Y266162D02*Y262162D01*
X315937Y266162D02*X317937D01*
X318437Y265662D01*
Y264662D01*
X317937Y264162D02*X318437Y264662D01*
X316437Y264162D02*X317937D01*
X321137Y266162D02*X321637Y265662D01*
X320137Y266162D02*X321137D01*
X319637Y265662D02*X320137Y266162D01*
X319637Y265662D02*Y262662D01*
X320137Y262162D01*
X321137Y264362D02*X321637Y263862D01*
X319637Y264362D02*X321137D01*
X320137Y262162D02*X321137D01*
X321637Y262662D01*
Y263862D02*Y262662D01*
X292300Y240500D02*X291000D01*
X293000Y239800D02*X292300Y240500D01*
X293000Y237200D02*Y239800D01*
Y237200D02*X292300Y236500D01*
X291000D01*
X289800Y237000D02*Y240000D01*
Y237000D02*X289300Y236500D01*
X288300D01*
X287800Y237000D01*
Y240000D01*
X288300Y240500D02*X287800Y240000D01*
X289300Y240500D02*X288300D01*
X289800Y240000D02*X289300Y240500D01*
X286600Y236500D02*Y240500D01*
Y236500D02*X284100Y240500D01*
Y236500D02*Y240500D01*
X282900Y236500D02*Y240500D01*
Y236500D02*X280400Y240500D01*
Y236500D02*Y240500D01*
X279200Y237300D02*X278400Y236500D01*
Y240500D01*
X279200D02*X277700D01*
X346800D02*X345500D01*
X347500Y239800D02*X346800Y240500D01*
X347500Y237200D02*Y239800D01*
Y237200D02*X346800Y236500D01*
X345500D01*
X344300Y237000D02*Y240000D01*
Y237000D02*X343800Y236500D01*
X342800D01*
X342300Y237000D01*
Y240000D01*
X342800Y240500D02*X342300Y240000D01*
X343800Y240500D02*X342800D01*
X344300Y240000D02*X343800Y240500D01*
X341100Y236500D02*Y240500D01*
Y236500D02*X338600Y240500D01*
Y236500D02*Y240500D01*
X337400Y236500D02*Y240500D01*
Y236500D02*X334900Y240500D01*
Y236500D02*Y240500D01*
X333700Y239000D02*X331700Y236500D01*
X333700Y239000D02*X331200D01*
X331700Y236500D02*Y240500D01*
X288256Y282512D02*X290256D01*
X289256D02*Y278512D01*
X291957Y282512D02*Y278512D01*
X291457Y282512D02*X293457D01*
X293957Y282012D01*
Y281012D01*
X293457Y280512D02*X293957Y281012D01*
X291957Y280512D02*X293457D01*
X295657Y278512D02*X297657Y282512D01*
X295157D02*X297657D01*
X314133Y293650D02*X315433D01*
X313433Y294350D02*X314133Y293650D01*
X313433Y296950D02*Y294350D01*
Y296950D02*X314133Y297650D01*
X315433D01*
X316633Y295150D02*X318633Y297650D01*
X316633Y295150D02*X319133D01*
X318633Y297650D02*Y293650D01*
X320333Y294150D02*X320833Y293650D01*
X320333Y294950D02*Y294150D01*
Y294950D02*X321033Y295650D01*
X321633D01*
X322333Y294950D01*
Y294150D01*
X321833Y293650D02*X322333Y294150D01*
X320833Y293650D02*X321833D01*
X320333Y296350D02*X321033Y295650D01*
X320333Y297150D02*Y296350D01*
Y297150D02*X320833Y297650D01*
X321833D01*
X322333Y297150D01*
Y296350D01*
X321633Y295650D02*X322333Y296350D01*
X182795Y287129D02*X184795D01*
X185295Y286629D01*
Y285629D01*
X184795Y285129D02*X185295Y285629D01*
X183295Y285129D02*X184795D01*
X183295Y287129D02*Y283129D01*
X184095Y285129D02*X185295Y283129D01*
X186495Y286629D02*X186995Y287129D01*
X188495D01*
X188995Y286629D01*
Y285629D01*
X186495Y283129D02*X188995Y285629D01*
X186495Y283129D02*X188995D01*
X190195Y286329D02*X190995Y287129D01*
Y283129D01*
X190195D02*X191695D01*
X190850Y238050D02*Y239350D01*
X190150Y237350D02*X190850Y238050D01*
X187550Y237350D02*X190150D01*
X187550D02*X186850Y238050D01*
Y239350D01*
X187350Y240550D02*X186850Y241050D01*
Y242550D01*
X187350Y243050D01*
X188350D01*
X190850Y240550D02*X188350Y243050D01*
X190850Y240550D02*Y243050D01*
X187350Y244250D02*X186850Y244750D01*
Y246250D01*
X187350Y246750D01*
X188350D01*
X190850Y244250D02*X188350Y246750D01*
X190850Y244250D02*Y246750D01*
X187500Y295200D02*Y296500D01*
X186800Y294500D02*X187500Y295200D01*
X184200Y294500D02*X186800D01*
X184200D02*X183500Y295200D01*
Y296500D01*
X184000Y297700D02*X187000D01*
X184000D02*X183500Y298200D01*
Y299200D01*
X184000Y299700D01*
X187000D01*
X187500Y299200D02*X187000Y299700D01*
X187500Y298200D02*Y299200D01*
X187000Y297700D02*X187500Y298200D01*
X183500Y300900D02*X187500D01*
X183500D02*X187500Y303400D01*
X183500D02*X187500D01*
X183500Y304600D02*X187500D01*
X183500D02*X187500Y307100D01*
X183500D02*X187500D01*
X186000Y308300D02*X183500Y310300D01*
X186000Y308300D02*Y310800D01*
X183500Y310300D02*X187500D01*
X184300Y312000D02*X183500Y312800D01*
X187500D01*
Y312000D02*Y313500D01*
X208500Y382500D02*Y379000D01*
X209000Y378500D01*
X210000D01*
X210500Y379000D01*
Y382500D02*Y379000D01*
X211700Y380000D02*X213700Y382500D01*
X211700Y380000D02*X214200D01*
X213700Y382500D02*Y378500D01*
X215400Y379000D02*X215900Y378500D01*
X215400Y382000D02*Y379000D01*
Y382000D02*X215900Y382500D01*
X216900D01*
X217400Y382000D01*
Y379000D01*
X216900Y378500D02*X217400Y379000D01*
X215900Y378500D02*X216900D01*
X215400Y379500D02*X217400Y381500D01*
X247050Y377650D02*X248350D01*
X246350Y378350D02*X247050Y377650D01*
X246350Y380950D02*Y378350D01*
Y380950D02*X247050Y381650D01*
X248350D01*
X249550Y379150D02*X251550Y381650D01*
X249550Y379150D02*X252050D01*
X251550Y381650D02*Y377650D01*
X253250Y381150D02*X253750Y381650D01*
X255250D01*
X255750Y381150D01*
Y380150D01*
X253250Y377650D02*X255750Y380150D01*
X253250Y377650D02*X255750D01*
X207350Y318050D02*Y319350D01*
X206650Y317350D02*X207350Y318050D01*
X204050Y317350D02*X206650D01*
X204050D02*X203350Y318050D01*
Y319350D01*
X205850Y320550D02*X203350Y322550D01*
X205850Y320550D02*Y323050D01*
X203350Y322550D02*X207350D01*
X203850Y324250D02*X203350Y324750D01*
Y325750D01*
X203850Y326250D01*
X207350Y325750D02*X206850Y326250D01*
X207350Y324750D02*Y325750D01*
X206850Y324250D02*X207350Y324750D01*
X205150D02*Y325750D01*
X203850Y326250D02*X204650D01*
X205650D02*X206850D01*
X205650D02*X205150Y325750D01*
X204650Y326250D02*X205150Y325750D01*
X239550Y327650D02*X240850D01*
X238850Y328350D02*X239550Y327650D01*
X238850Y330950D02*Y328350D01*
Y330950D02*X239550Y331650D01*
X240850D01*
X242050Y329150D02*X244050Y331650D01*
X242050Y329150D02*X244550D01*
X244050Y331650D02*Y327650D01*
X246250D02*X248250Y331650D01*
X245750D02*X248250D01*
X239955Y347150D02*X241255D01*
X239255Y347850D02*X239955Y347150D01*
X239255Y350450D02*Y347850D01*
Y350450D02*X239955Y351150D01*
X241255D01*
X242455Y348650D02*X244455Y351150D01*
X242455Y348650D02*X244955D01*
X244455Y351150D02*Y347150D01*
X247655Y351150D02*X248155Y350650D01*
X246655Y351150D02*X247655D01*
X246155Y350650D02*X246655Y351150D01*
X246155Y350650D02*Y347650D01*
X246655Y347150D01*
X247655Y349350D02*X248155Y348850D01*
X246155Y349350D02*X247655D01*
X246655Y347150D02*X247655D01*
X248155Y347650D01*
Y348850D02*Y347650D01*
X247050Y362650D02*X248350D01*
X246350Y363350D02*X247050Y362650D01*
X246350Y365950D02*Y363350D01*
Y365950D02*X247050Y366650D01*
X248350D01*
X249550Y364150D02*X251550Y366650D01*
X249550Y364150D02*X252050D01*
X251550Y366650D02*Y362650D01*
X253250Y364150D02*X255250Y366650D01*
X253250Y364150D02*X255750D01*
X255250Y366650D02*Y362650D01*
X210550Y246150D02*X211850D01*
X209850Y246850D02*X210550Y246150D01*
X209850Y249450D02*Y246850D01*
Y249450D02*X210550Y250150D01*
X211850D01*
X213050Y249650D02*X213550Y250150D01*
X215050D01*
X215550Y249650D01*
Y248650D01*
X213050Y246150D02*X215550Y248650D01*
X213050Y246150D02*X215550D01*
X216750Y249650D02*X217250Y250150D01*
X218250D01*
X218750Y249650D01*
X218250Y246150D02*X218750Y246650D01*
X217250Y246150D02*X218250D01*
X216750Y246650D02*X217250Y246150D01*
Y248350D02*X218250D01*
X218750Y249650D02*Y248850D01*
Y247850D02*Y246650D01*
Y247850D02*X218250Y248350D01*
X218750Y248850D02*X218250Y248350D01*
X212944Y308760D02*X214244D01*
X212244Y309460D02*X212944Y308760D01*
X212244Y312060D02*Y309460D01*
Y312060D02*X212944Y312760D01*
X214244D01*
X215444Y312260D02*X215944Y312760D01*
X217444D01*
X217944Y312260D01*
Y311260D01*
X215444Y308760D02*X217944Y311260D01*
X215444Y308760D02*X217944D01*
X219144Y309260D02*X219644Y308760D01*
X219144Y312260D02*Y309260D01*
Y312260D02*X219644Y312760D01*
X220644D01*
X221144Y312260D01*
Y309260D01*
X220644Y308760D02*X221144Y309260D01*
X219644Y308760D02*X220644D01*
X219144Y309760D02*X221144Y311760D01*
X222350Y318050D02*Y319350D01*
X221650Y317350D02*X222350Y318050D01*
X219050Y317350D02*X221650D01*
X219050D02*X218350Y318050D01*
Y319350D01*
X220850Y320550D02*X218350Y322550D01*
X220850Y320550D02*Y323050D01*
X218350Y322550D02*X222350D01*
X218350Y324250D02*Y326250D01*
Y324250D02*X220350D01*
X219850Y324750D01*
Y325750D01*
X220350Y326250D01*
X221850D01*
X222350Y325750D02*X221850Y326250D01*
X222350Y324750D02*Y325750D01*
X221850Y324250D02*X222350Y324750D01*
X182611Y273056D02*X184611D01*
X185111Y272556D01*
Y271556D01*
X184611Y271056D02*X185111Y271556D01*
X183111Y271056D02*X184611D01*
X183111Y273056D02*Y269056D01*
X183911Y271056D02*X185111Y269056D01*
X186311Y272556D02*X186811Y273056D01*
X188311D01*
X188811Y272556D01*
Y271556D01*
X186311Y269056D02*X188811Y271556D01*
X186311Y269056D02*X188811D01*
X190011Y269556D02*X190511Y269056D01*
X190011Y272556D02*Y269556D01*
Y272556D02*X190511Y273056D01*
X191511D01*
X192011Y272556D01*
Y269556D01*
X191511Y269056D02*X192011Y269556D01*
X190511Y269056D02*X191511D01*
X190011Y270056D02*X192011Y272056D01*
X212500Y277000D02*Y273500D01*
X213000Y273000D01*
X214000D01*
X214500Y273500D01*
Y277000D02*Y273500D01*
X215700Y276500D02*X216200Y277000D01*
X217700D01*
X218200Y276500D01*
Y275500D01*
X215700Y273000D02*X218200Y275500D01*
X215700Y273000D02*X218200D01*
X219400Y273500D02*X219900Y273000D01*
X219400Y276500D02*Y273500D01*
Y276500D02*X219900Y277000D01*
X220900D01*
X221400Y276500D01*
Y273500D01*
X220900Y273000D02*X221400Y273500D01*
X219900Y273000D02*X220900D01*
X219400Y274000D02*X221400Y276000D01*
X157500Y275200D02*Y276500D01*
X156800Y274500D02*X157500Y275200D01*
X154200Y274500D02*X156800D01*
X154200D02*X153500Y275200D01*
Y276500D01*
X154000Y277700D02*X157000D01*
X154000D02*X153500Y278200D01*
Y279200D01*
X154000Y279700D01*
X157000D01*
X157500Y279200D02*X157000Y279700D01*
X157500Y278200D02*Y279200D01*
X157000Y277700D02*X157500Y278200D01*
X153500Y280900D02*X157500D01*
X153500D02*X157500Y283400D01*
X153500D02*X157500D01*
X153500Y284600D02*X157500D01*
X153500D02*X157500Y287100D01*
X153500D02*X157500D01*
X153500Y289800D02*X154000Y290300D01*
X153500Y288800D02*Y289800D01*
X154000Y288300D02*X153500Y288800D01*
X154000Y288300D02*X157000D01*
X157500Y288800D01*
X155300Y289800D02*X155800Y290300D01*
X155300Y288300D02*Y289800D01*
X157500Y288800D02*Y289800D01*
X157000Y290300D01*
X155800D02*X157000D01*
X154000Y291500D02*X153500Y292000D01*
Y293000D01*
X154000Y293500D01*
X157500Y293000D02*X157000Y293500D01*
X157500Y292000D02*Y293000D01*
X157000Y291500D02*X157500Y292000D01*
X155300D02*Y293000D01*
X154000Y293500D02*X154800D01*
X155800D02*X157000D01*
X155800D02*X155300Y293000D01*
X154800Y293500D02*X155300Y293000D01*
X104500Y178700D02*X106000D01*
X104500Y176500D02*X106500D01*
X104500Y180500D02*Y176500D01*
Y180500D02*X106500D01*
X109200Y178500D02*X109700Y178000D01*
X108200Y178500D02*X109200D01*
X107700Y178000D02*X108200Y178500D01*
X107700Y178000D02*Y177000D01*
X108200Y176500D01*
X109700Y178500D02*Y177000D01*
X110200Y176500D01*
X108200D02*X109200D01*
X109700Y177000D01*
X111900Y180500D02*Y177000D01*
X112400Y176500D01*
X111400Y179000D02*X112400D01*
X113400Y178000D02*Y177000D01*
Y178000D02*X113900Y178500D01*
X114900D01*
X115400Y178000D01*
Y177000D01*
X114900Y176500D02*X115400Y177000D01*
X113900Y176500D02*X114900D01*
X113400Y177000D02*X113900Y176500D01*
X117100Y178000D02*Y176500D01*
Y178000D02*X117600Y178500D01*
X118100D01*
X118600Y178000D01*
Y176500D01*
X116600Y178500D02*X117100Y178000D01*
X122100Y180500D02*Y176500D01*
X121600Y180500D02*X123600D01*
X124100Y180000D01*
Y179000D01*
X123600Y178500D02*X124100Y179000D01*
X122100Y178500D02*X123600D01*
X125800Y176500D02*X127300D01*
X125300Y177000D02*X125800Y176500D01*
X125300Y178000D02*Y177000D01*
Y178000D02*X125800Y178500D01*
X126800D01*
X127300Y178000D01*
X125300Y177500D02*X127300D01*
Y178000D01*
X130000Y178500D02*X130500Y178000D01*
X129000Y178500D02*X130000D01*
X128500Y178000D02*X129000Y178500D01*
X128500Y178000D02*Y177000D01*
X129000Y176500D01*
X130500Y178500D02*Y177000D01*
X131000Y176500D01*
X129000D02*X130000D01*
X130500Y177000D01*
X132200Y180500D02*Y176500D01*
Y177000D02*X132700Y176500D01*
X133700D01*
X134200Y177000D01*
Y178000D02*Y177000D01*
X133700Y178500D02*X134200Y178000D01*
X132700Y178500D02*X133700D01*
X132200Y178000D02*X132700Y178500D01*
X135400Y178000D02*Y177000D01*
Y178000D02*X135900Y178500D01*
X136900D01*
X137400Y178000D01*
Y177000D01*
X136900Y176500D02*X137400Y177000D01*
X135900Y176500D02*X136900D01*
X135400Y177000D02*X135900Y176500D01*
X140600Y180500D02*Y176500D01*
X140100D02*X140600Y177000D01*
X139100Y176500D02*X140100D01*
X138600Y177000D02*X139100Y176500D01*
X138600Y178000D02*Y177000D01*
Y178000D02*X139100Y178500D01*
X140100D01*
X140600Y178000D01*
X141800Y178500D02*Y177000D01*
X142300Y176500D01*
X143800Y178500D02*Y175500D01*
X143300Y175000D02*X143800Y175500D01*
X142300Y175000D02*X143300D01*
X141800Y175500D02*X142300Y175000D01*
Y176500D02*X143300D01*
X143800Y177000D01*
X146800Y180500D02*Y176500D01*
X148800D01*
X151500Y178500D02*X152000Y178000D01*
X150500Y178500D02*X151500D01*
X150000Y178000D02*X150500Y178500D01*
X150000Y178000D02*Y177000D01*
X150500Y176500D01*
X152000Y178500D02*Y177000D01*
X152500Y176500D01*
X150500D02*X151500D01*
X152000Y177000D01*
X153700Y180500D02*Y176500D01*
Y177000D02*X154200Y176500D01*
X155200D01*
X155700Y177000D01*
Y178000D02*Y177000D01*
X155200Y178500D02*X155700Y178000D01*
X154200Y178500D02*X155200D01*
X153700Y178000D02*X154200Y178500D01*
X222500Y176500D02*X224500D01*
X225000Y177000D01*
Y178200D02*Y177000D01*
X224500Y178700D02*X225000Y178200D01*
X223000Y178700D02*X224500D01*
X223000Y180500D02*Y176500D01*
X222500Y180500D02*X224500D01*
X225000Y180000D01*
Y179200D01*
X224500Y178700D02*X225000Y179200D01*
X226200Y178500D02*Y177000D01*
X226700Y176500D01*
X228200Y178500D02*Y175500D01*
X227700Y175000D02*X228200Y175500D01*
X226700Y175000D02*X227700D01*
X226200Y175500D02*X226700Y175000D01*
Y176500D02*X227700D01*
X228200Y177000D01*
X231200Y178700D02*X232700D01*
X231200Y176500D02*X233200D01*
X231200Y180500D02*Y176500D01*
Y180500D02*X233200D01*
X234400Y178500D02*X235400Y176500D01*
X236400Y178500D02*X235400Y176500D01*
X239100Y178500D02*X239600Y178000D01*
X238100Y178500D02*X239100D01*
X237600Y178000D02*X238100Y178500D01*
X237600Y178000D02*Y177000D01*
X238100Y176500D01*
X239600Y178500D02*Y177000D01*
X240100Y176500D01*
X238100D02*X239100D01*
X239600Y177000D01*
X241800Y178000D02*Y176500D01*
Y178000D02*X242300Y178500D01*
X242800D01*
X243300Y178000D01*
Y176500D01*
X241300Y178500D02*X241800Y178000D01*
X246300Y180500D02*Y176500D01*
Y180500D02*X248300D01*
X246300Y178700D02*X247800D01*
X249500Y178000D02*Y177000D01*
Y178000D02*X250000Y178500D01*
X251000D01*
X251500Y178000D01*
Y177000D01*
X251000Y176500D02*X251500Y177000D01*
X250000Y176500D02*X251000D01*
X249500Y177000D02*X250000Y176500D01*
X253200D02*X254700D01*
X255200Y177000D01*
X254700Y177500D02*X255200Y177000D01*
X253200Y177500D02*X254700D01*
X252700Y178000D02*X253200Y177500D01*
X252700Y178000D02*X253200Y178500D01*
X254700D01*
X255200Y178000D01*
X252700Y177000D02*X253200Y176500D01*
X256900D02*X258400D01*
X258900Y177000D01*
X258400Y177500D02*X258900Y177000D01*
X256900Y177500D02*X258400D01*
X256400Y178000D02*X256900Y177500D01*
X256400Y178000D02*X256900Y178500D01*
X258400D01*
X258900Y178000D01*
X256400Y177000D02*X256900Y176500D01*
X213000Y210500D02*Y207000D01*
X213500Y206500D01*
X214500D01*
X215000Y207000D01*
Y210500D02*Y207000D01*
X216200Y209700D02*X217000Y210500D01*
Y206500D01*
X216200D02*X217700D01*
X218900Y207000D02*X219400Y206500D01*
X218900Y210000D02*Y207000D01*
Y210000D02*X219400Y210500D01*
X220400D01*
X220900Y210000D01*
Y207000D01*
X220400Y206500D02*X220900Y207000D01*
X219400Y206500D02*X220400D01*
X218900Y207500D02*X220900Y209500D01*
X239850Y200050D02*Y201350D01*
X239150Y199350D02*X239850Y200050D01*
X236550Y199350D02*X239150D01*
X236550D02*X235850Y200050D01*
Y201350D01*
X236650Y202550D02*X235850Y203350D01*
X239850D01*
Y202550D02*Y204050D01*
X236650Y205250D02*X235850Y206050D01*
X239850D01*
Y205250D02*Y206750D01*
X154594Y222720D02*Y224020D01*
X153894Y222020D02*X154594Y222720D01*
X151294Y222020D02*X153894D01*
X151294D02*X150594Y222720D01*
Y224020D01*
X153094Y225220D02*X150594Y227220D01*
X153094Y225220D02*Y227720D01*
X150594Y227220D02*X154594D01*
Y229420D02*X152594Y230920D01*
X151094D02*X152594D01*
X150594Y230420D02*X151094Y230920D01*
X150594Y229420D02*Y230420D01*
X151094Y228920D02*X150594Y229420D01*
X151094Y228920D02*X152094D01*
X152594Y229420D01*
Y230920D01*
X195934Y220854D02*Y222154D01*
X195234Y220154D02*X195934Y220854D01*
X192634Y220154D02*X195234D01*
X192634D02*X191934Y220854D01*
Y222154D01*
X192734Y223354D02*X191934Y224154D01*
X195934D01*
Y223354D02*Y224854D01*
X195434Y226054D02*X195934Y226554D01*
X192434Y226054D02*X195434D01*
X192434D02*X191934Y226554D01*
Y227554D01*
X192434Y228054D01*
X195434D01*
X195934Y227554D02*X195434Y228054D01*
X195934Y226554D02*Y227554D01*
X194934Y226054D02*X192934Y228054D01*
X182350Y220507D02*Y221807D01*
X181650Y219807D02*X182350Y220507D01*
X179050Y219807D02*X181650D01*
X179050D02*X178350Y220507D01*
Y221807D01*
X179150Y223007D02*X178350Y223807D01*
X182350D01*
Y223007D02*Y224507D01*
X178350Y225707D02*Y227707D01*
Y225707D02*X180350D01*
X179850Y226207D01*
Y227207D01*
X180350Y227707D01*
X181850D01*
X182350Y227207D02*X181850Y227707D01*
X182350Y226207D02*Y227207D01*
X181850Y225707D02*X182350Y226207D01*
X159000Y180500D02*Y176500D01*
Y180500D02*X160500Y178500D01*
X162000Y180500D01*
Y176500D01*
X163200Y178000D02*Y177000D01*
Y178000D02*X163700Y178500D01*
X164700D01*
X165200Y178000D01*
Y177000D01*
X164700Y176500D02*X165200Y177000D01*
X163700Y176500D02*X164700D01*
X163200Y177000D02*X163700Y176500D01*
X168400Y180500D02*Y176500D01*
X167900D02*X168400Y177000D01*
X166900Y176500D02*X167900D01*
X166400Y177000D02*X166900Y176500D01*
X166400Y178000D02*Y177000D01*
Y178000D02*X166900Y178500D01*
X167900D01*
X168400Y178000D01*
X170100Y176500D02*X171600D01*
X169600Y177000D02*X170100Y176500D01*
X169600Y178000D02*Y177000D01*
Y178000D02*X170100Y178500D01*
X171100D01*
X171600Y178000D01*
X169600Y177500D02*X171600D01*
Y178000D01*
X172800Y180500D02*Y177000D01*
X173300Y176500D01*
X174300Y179000D02*X174800D01*
X174300Y178000D02*X174800D01*
X177800Y176500D02*X179800D01*
X180300Y177000D01*
Y178200D02*Y177000D01*
X179800Y178700D02*X180300Y178200D01*
X178300Y178700D02*X179800D01*
X178300Y180500D02*Y176500D01*
X177800Y180500D02*X179800D01*
X180300Y180000D01*
Y179200D01*
X179800Y178700D02*X180300Y179200D01*
X181500Y179500D02*Y179400D01*
Y178000D02*Y176500D01*
X182500Y178000D02*Y177000D01*
Y178000D02*X183000Y178500D01*
X184000D01*
X184500Y178000D01*
Y177000D01*
X184000Y176500D02*X184500Y177000D01*
X183000Y176500D02*X184000D01*
X182500Y177000D02*X183000Y176500D01*
X185700Y179500D02*Y176500D01*
Y179500D02*X186400Y180500D01*
X187500D01*
X188200Y179500D01*
Y176500D01*
X185700Y178500D02*X188200D01*
X189900Y178000D02*Y176500D01*
Y178000D02*X190400Y178500D01*
X190900D01*
X191400Y178000D01*
Y176500D01*
Y178000D02*X191900Y178500D01*
X192400D01*
X192900Y178000D01*
Y176500D01*
X189400Y178500D02*X189900Y178000D01*
X194600D02*Y175000D01*
X194100Y178500D02*X194600Y178000D01*
X195100Y178500D01*
X196100D01*
X196600Y178000D01*
Y177000D01*
X196100Y176500D02*X196600Y177000D01*
X195100Y176500D02*X196100D01*
X194600Y177000D02*X195100Y176500D01*
X199600Y180500D02*Y179500D01*
X200600Y180500D02*Y179500D01*
X202300Y178500D02*X203800D01*
X201800Y178000D02*X202300Y178500D01*
X201800Y178000D02*Y177000D01*
X202300Y176500D01*
X203800D01*
X205000Y180500D02*Y176500D01*
Y178000D02*X205500Y178500D01*
X206500D01*
X207000Y178000D01*
Y176500D01*
X208700D02*X210200D01*
X208200Y177000D02*X208700Y176500D01*
X208200Y178000D02*Y177000D01*
Y178000D02*X208700Y178500D01*
X209700D01*
X210200Y178000D01*
X208200Y177500D02*X210200D01*
Y178000D01*
X212900Y178500D02*X213400Y178000D01*
X211900Y178500D02*X212900D01*
X211400Y178000D02*X211900Y178500D01*
X211400Y178000D02*Y177000D01*
X211900Y176500D01*
X213400Y178500D02*Y177000D01*
X213900Y176500D01*
X211900D02*X212900D01*
X213400Y177000D01*
X215600Y178000D02*Y175000D01*
X215100Y178500D02*X215600Y178000D01*
X216100Y178500D01*
X217100D01*
X217600Y178000D01*
Y177000D01*
X217100Y176500D02*X217600Y177000D01*
X216100Y176500D02*X217100D01*
X215600Y177000D02*X216100Y176500D01*
X218800Y180500D02*Y179500D01*
X219800Y180500D02*Y179500D01*
X184145Y193150D02*X185445D01*
X183445Y193850D02*X184145Y193150D01*
X183445Y196450D02*Y193850D01*
Y196450D02*X184145Y197150D01*
X185445D01*
X186645Y196350D02*X187445Y197150D01*
Y193150D01*
X186645D02*X188145D01*
X189345Y196650D02*X189845Y197150D01*
X191345D01*
X191845Y196650D01*
Y195650D01*
X189345Y193150D02*X191845Y195650D01*
X189345Y193150D02*X191845D01*
X205850Y219307D02*Y221307D01*
X206350Y221807D01*
X207350D01*
X207850Y221307D02*X207350Y221807D01*
X207850Y219807D02*Y221307D01*
X205850Y219807D02*X209850D01*
X207850Y220607D02*X209850Y221807D01*
X206650Y223007D02*X205850Y223807D01*
X209850D01*
Y223007D02*Y224507D01*
X209350Y225707D02*X209850Y226207D01*
X206350Y225707D02*X209350D01*
X206350D02*X205850Y226207D01*
Y227207D01*
X206350Y227707D01*
X209350D01*
X209850Y227207D02*X209350Y227707D01*
X209850Y226207D02*Y227207D01*
X208850Y225707D02*X206850Y227707D01*
X165002Y219647D02*Y221647D01*
X165502Y222147D01*
X166502D01*
X167002Y221647D02*X166502Y222147D01*
X167002Y220147D02*Y221647D01*
X165002Y220147D02*X169002D01*
X167002Y220947D02*X169002Y222147D01*
X165802Y223347D02*X165002Y224147D01*
X169002D01*
Y223347D02*Y224847D01*
X165802Y226047D02*X165002Y226847D01*
X169002D01*
Y226047D02*Y227547D01*
X167500Y195700D02*Y197000D01*
X166800Y195000D02*X167500Y195700D01*
X164200Y195000D02*X166800D01*
X164200D02*X163500Y195700D01*
Y197000D01*
X164000Y198200D02*X167000D01*
X164000D02*X163500Y198700D01*
Y199700D01*
X164000Y200200D01*
X167000D01*
X167500Y199700D02*X167000Y200200D01*
X167500Y198700D02*Y199700D01*
X167000Y198200D02*X167500Y198700D01*
X163500Y201400D02*X167500D01*
X163500D02*X167500Y203900D01*
X163500D02*X167500D01*
X163500Y205100D02*X167500D01*
X163500D02*X167500Y207600D01*
X163500D02*X167500D01*
X164300Y208800D02*X163500Y209600D01*
X167500D01*
Y208800D02*Y210300D01*
X164300Y211500D02*X163500Y212300D01*
X167500D01*
Y211500D02*Y213000D01*
X184850Y199350D02*Y201350D01*
X185350Y201850D01*
X186350D01*
X186850Y201350D02*X186350Y201850D01*
X186850Y199850D02*Y201350D01*
X184850Y199850D02*X188850D01*
X186850Y200650D02*X188850Y201850D01*
X185650Y203050D02*X184850Y203850D01*
X188850D01*
Y203050D02*Y204550D01*
X185350Y205750D02*X184850Y206250D01*
Y207250D01*
X185350Y207750D01*
X188850Y207250D02*X188350Y207750D01*
X188850Y206250D02*Y207250D01*
X188350Y205750D02*X188850Y206250D01*
X186650D02*Y207250D01*
X185350Y207750D02*X186150D01*
X187150D02*X188350D01*
X187150D02*X186650Y207250D01*
X186150Y207750D02*X186650Y207250D01*
X262000Y180000D02*X262500Y180500D01*
X264000D01*
X264500Y180000D01*
Y179000D01*
X262000Y176500D02*X264500Y179000D01*
X262000Y176500D02*X264500D01*
X265700Y177000D02*X266200Y176500D01*
X265700Y180000D02*Y177000D01*
Y180000D02*X266200Y180500D01*
X267200D01*
X267700Y180000D01*
Y177000D01*
X267200Y176500D02*X267700Y177000D01*
X266200Y176500D02*X267200D01*
X265700Y177500D02*X267700Y179500D01*
X268900Y180000D02*X269400Y180500D01*
X270900D01*
X271400Y180000D01*
Y179000D01*
X268900Y176500D02*X271400Y179000D01*
X268900Y176500D02*X271400D01*
X272600Y177000D02*X273100Y176500D01*
X272600Y180000D02*Y177000D01*
Y180000D02*X273100Y180500D01*
X274100D01*
X274600Y180000D01*
Y177000D01*
X274100Y176500D02*X274600Y177000D01*
X273100Y176500D02*X274100D01*
X272600Y177500D02*X274600Y179500D01*
X275800Y176500D02*X276300D01*
X277500Y177000D02*X278000Y176500D01*
X277500Y180000D02*Y177000D01*
Y180000D02*X278000Y180500D01*
X279000D01*
X279500Y180000D01*
Y177000D01*
X279000Y176500D02*X279500Y177000D01*
X278000Y176500D02*X279000D01*
X277500Y177500D02*X279500Y179500D01*
X280700Y180500D02*X282700D01*
X280700D02*Y178500D01*
X281200Y179000D01*
X282200D01*
X282700Y178500D01*
Y177000D01*
X282200Y176500D02*X282700Y177000D01*
X281200Y176500D02*X282200D01*
X280700Y177000D02*X281200Y176500D01*
X283900D02*X284400D01*
X285600Y177000D02*X286100Y176500D01*
X285600Y180000D02*Y177000D01*
Y180000D02*X286100Y180500D01*
X287100D01*
X287600Y180000D01*
Y177000D01*
X287100Y176500D02*X287600Y177000D01*
X286100Y176500D02*X287100D01*
X285600Y177500D02*X287600Y179500D01*
X290300Y180500D02*X290800Y180000D01*
X289300Y180500D02*X290300D01*
X288800Y180000D02*X289300Y180500D01*
X288800Y180000D02*Y177000D01*
X289300Y176500D01*
X290300Y178700D02*X290800Y178200D01*
X288800Y178700D02*X290300D01*
X289300Y176500D02*X290300D01*
X290800Y177000D01*
Y178200D02*Y177000D01*
M02*
