G04 start of page 2 for group 0 layer_idx 7 *
G04 Title: (unknown), top_paste *
G04 Creator: pcb-rnd 2.2.1 *
G04 CreationDate: 2020-06-04 19:14:55 UTC *
G04 For:  *
G04 Format: Gerber/RS-274X *
G04 PCB-Dimensions: 500000 500000 *
G04 PCB-Coordinate-Origin: lower left *
%MOIN*%
%FSLAX25Y25*%
%LNTOP_PASTE_NONE_0*%
%ADD92C,0.0001*%
G54D92*G36*
X117016Y245707D02*X111898D01*
Y238227D01*
X117016D01*
Y245707D01*
G37*
G36*
X128826D02*X123708D01*
Y238227D01*
X128826D01*
Y245707D01*
G37*
G36*
X210326Y235707D02*X205208D01*
Y228227D01*
X210326D01*
Y235707D01*
G37*
G36*
X222136D02*X217018D01*
Y228227D01*
X222136D01*
Y235707D01*
G37*
G36*
X210326Y220707D02*X205208D01*
Y213227D01*
X210326D01*
Y220707D01*
G37*
G36*
X222136D02*X217018D01*
Y213227D01*
X222136D01*
Y220707D01*
G37*
G36*
X117016Y230707D02*X111898D01*
Y223227D01*
X117016D01*
Y230707D01*
G37*
G36*
Y215707D02*X111898D01*
Y208227D01*
X117016D01*
Y215707D01*
G37*
G36*
X128826Y230707D02*X123708D01*
Y223227D01*
X128826D01*
Y230707D01*
G37*
G36*
Y215707D02*X123708D01*
Y208227D01*
X128826D01*
Y215707D01*
G37*
G36*
X210048Y352016D02*Y346898D01*
X215952D01*
Y352016D01*
X210048D01*
G37*
G36*
Y359102D02*Y353984D01*
X215952D01*
Y359102D01*
X210048D01*
G37*
G36*
X204016Y337952D02*X198898D01*
Y332048D01*
X204016D01*
Y337952D01*
G37*
G36*
X211102D02*X205984D01*
Y332048D01*
X211102D01*
Y337952D01*
G37*
G36*
X214654Y315740D02*X209536D01*
Y308260D01*
X214654D01*
Y315740D01*
G37*
G36*
X226464D02*X221346D01*
Y308260D01*
X226464D01*
Y315740D01*
G37*
G36*
X214559Y298740D02*X209441D01*
Y291260D01*
X214559D01*
Y298740D01*
G37*
G36*
X226369D02*X221251D01*
Y291260D01*
X226369D01*
Y298740D01*
G37*
G36*
X233048Y352016D02*Y346898D01*
X238952D01*
Y352016D01*
X233048D01*
G37*
G36*
X259516Y313452D02*X254398D01*
Y307548D01*
X259516D01*
Y313452D01*
G37*
G36*
Y326452D02*X254398D01*
Y320548D01*
X259516D01*
Y326452D01*
G37*
G36*
X266602D02*X261484D01*
Y320548D01*
X266602D01*
Y326452D01*
G37*
G36*
X282500Y320000D02*Y311500D01*
X280500D01*
Y320000D01*
X282500D01*
G37*
G36*
X240260Y312059D02*Y306941D01*
X247740D01*
Y312059D01*
X240260D01*
G37*
G36*
X266602Y313452D02*X261484D01*
Y307548D01*
X266602D01*
Y313452D01*
G37*
G36*
X277760Y333154D02*Y328036D01*
X285240D01*
Y333154D01*
X277760D01*
G37*
G36*
Y344964D02*Y339846D01*
X285240D01*
Y344964D01*
X277760D01*
G37*
G36*
X275500Y291000D02*Y299500D01*
X277500D01*
Y291000D01*
X275500D01*
G37*
G36*
X277500Y320000D02*Y311500D01*
X275500D01*
Y320000D01*
X277500D01*
G37*
G36*
X280500Y291000D02*Y299500D01*
X282500D01*
Y291000D01*
X280500D01*
G37*
G36*
X285500D02*Y299500D01*
X287500D01*
Y291000D01*
X285500D01*
G37*
G36*
X287500Y320000D02*Y311500D01*
X285500D01*
Y320000D01*
X287500D01*
G37*
G36*
X240260Y300249D02*Y295131D01*
X247740D01*
Y300249D01*
X240260D01*
G37*
G36*
X259516Y299952D02*X254398D01*
Y294048D01*
X259516D01*
Y299952D01*
G37*
G36*
X266602D02*X261484D01*
Y294048D01*
X266602D01*
Y299952D01*
G37*
G36*
X233048Y359102D02*Y353984D01*
X238952D01*
Y359102D01*
X233048D01*
G37*
G36*
X184000Y321000D02*Y312500D01*
X182000D01*
Y321000D01*
X184000D01*
G37*
G36*
X187000Y292000D02*Y300500D01*
X189000D01*
Y292000D01*
X187000D01*
G37*
G36*
X189000Y321000D02*Y312500D01*
X187000D01*
Y321000D01*
X189000D01*
G37*
G36*
X192000Y292000D02*Y300500D01*
X194000D01*
Y292000D01*
X192000D01*
G37*
G36*
X194000Y321000D02*Y312500D01*
X192000D01*
Y321000D01*
X194000D01*
G37*
G36*
X189048Y277473D02*Y272355D01*
X194952D01*
Y277473D01*
X189048D01*
G37*
G36*
Y284559D02*Y279441D01*
X194952D01*
Y284559D01*
X189048D01*
G37*
G36*
X182000Y292000D02*Y300500D01*
X184000D01*
Y292000D01*
X182000D01*
G37*
G36*
X197000D02*Y300500D01*
X199000D01*
Y292000D01*
X197000D01*
G37*
G36*
X199000Y321000D02*Y312500D01*
X197000D01*
Y321000D01*
X199000D01*
G37*
G36*
X307980Y235980D02*Y227480D01*
X305980D01*
Y235980D01*
X307980D01*
G37*
G36*
X312980D02*Y227480D01*
X310980D01*
Y235980D01*
X312980D01*
G37*
G36*
X294760Y275154D02*Y270036D01*
X302240D01*
Y275154D01*
X294760D01*
G37*
G36*
X310980Y206980D02*Y215480D01*
X312980D01*
Y206980D01*
X310980D01*
G37*
G36*
X317980Y235980D02*Y227480D01*
X315980D01*
Y235980D01*
X317980D01*
G37*
G36*
X322980D02*Y227480D01*
X320980D01*
Y235980D01*
X322980D01*
G37*
G36*
X305980Y206980D02*Y215480D01*
X307980D01*
Y206980D01*
X305980D01*
G37*
G36*
X315980D02*Y215480D01*
X317980D01*
Y206980D01*
X315980D01*
G37*
G36*
X320980D02*Y215480D01*
X322980D01*
Y206980D01*
X320980D01*
G37*
G36*
X271315Y249536D02*Y241464D01*
X285685D01*
Y249536D01*
X271315D01*
G37*
G36*
X314559Y249740D02*X309441D01*
Y242260D01*
X314559D01*
Y249740D01*
G37*
G36*
X326369D02*X321251D01*
Y242260D01*
X326369D01*
Y249740D01*
G37*
G36*
X294528Y198082D02*Y192964D01*
X300432D01*
Y198082D01*
X294528D01*
G37*
G36*
X328240Y204040D02*Y198922D01*
X335720D01*
Y204040D01*
X328240D01*
G37*
G36*
X308528Y198082D02*Y192964D01*
X314432D01*
Y198082D01*
X308528D01*
G37*
G36*
X294528Y190996D02*Y185878D01*
X300432D01*
Y190996D01*
X294528D01*
G37*
G36*
X328240Y192230D02*Y187112D01*
X335720D01*
Y192230D01*
X328240D01*
G37*
G36*
X308528Y190996D02*Y185878D01*
X314432D01*
Y190996D01*
X308528D01*
G37*
G36*
X191815Y201036D02*Y192964D01*
X206185D01*
Y201036D01*
X191815D01*
G37*
G36*
X335240Y218134D02*Y213016D01*
X342720D01*
Y218134D01*
X335240D01*
G37*
G36*
Y229945D02*Y224826D01*
X342720D01*
Y229945D01*
X335240D01*
G37*
G36*
X290500Y291000D02*Y299500D01*
X292500D01*
Y291000D01*
X290500D01*
G37*
G36*
X292500Y320000D02*Y311500D01*
X290500D01*
Y320000D01*
X292500D01*
G37*
G36*
X294760Y286964D02*Y281846D01*
X302240D01*
Y286964D01*
X294760D01*
G37*
G36*
X323559Y326740D02*X318441D01*
Y319260D01*
X323559D01*
Y326740D01*
G37*
G36*
X335369D02*X330251D01*
Y319260D01*
X335369D01*
Y326740D01*
G37*
G36*
X343315Y327036D02*Y318964D01*
X357685D01*
Y327036D01*
X343315D01*
G37*
G36*
X120815Y322036D02*Y313964D01*
X135185D01*
Y322036D01*
X120815D01*
G37*
G36*
X97815Y311536D02*Y303464D01*
X112185D01*
Y311536D01*
X97815D01*
G37*
G36*
X166016Y329452D02*X160898D01*
Y323548D01*
X166016D01*
Y329452D01*
G37*
G36*
X166059Y314952D02*X160941D01*
Y309048D01*
X166059D01*
Y314952D01*
G37*
G36*
X163421Y261707D02*X158303D01*
Y254227D01*
X163421D01*
Y261707D01*
G37*
G36*
X173102Y329452D02*X167984D01*
Y323548D01*
X173102D01*
Y329452D01*
G37*
G36*
X173145Y314952D02*X168027D01*
Y309048D01*
X173145D01*
Y314952D01*
G37*
G36*
X175231Y261707D02*X170113D01*
Y254227D01*
X175231D01*
Y261707D01*
G37*
G36*
X117016Y200707D02*X111898D01*
Y193227D01*
X117016D01*
Y200707D01*
G37*
G36*
X128826D02*X123708D01*
Y193227D01*
X128826D01*
Y200707D01*
G37*
G36*
X136921Y197707D02*X131803D01*
Y190227D01*
X136921D01*
Y197707D01*
G37*
G36*
X148731D02*X143613D01*
Y190227D01*
X148731D01*
Y197707D01*
G37*
G36*
X195121Y110256D02*Y102185D01*
X209491D01*
Y110256D01*
X195121D01*
G37*
G36*
X170641Y126106D02*Y118035D01*
X185011D01*
Y126106D01*
X170641D01*
G37*
G36*
X195121Y166256D02*Y158185D01*
X209491D01*
Y166256D01*
X195121D01*
G37*
M02*
