G04 start of page 2 for group 2 layer_idx 8 *
G04 Title: (unknown), top_mask *
G04 Creator: pcb-rnd 2.3.2 *
G04 CreationDate: 2021-05-12 18:20:22 UTC *
G04 For:  *
G04 Format: Gerber/RS-274X *
G04 PCB-Dimensions: 500000 500000 *
G04 PCB-Coordinate-Origin: lower left *
%MOIN*%
%FSLAX25Y25*%
%LNTOP_MASK_NONE_2*%
%ADD80C,0.0660*%
%ADD79C,0.1083*%
%ADD78C,0.0630*%
%ADD77C,0.1090*%
%ADD76C,0.0846*%
%ADD75C,0.0886*%
%ADD74C,0.1678*%
%ADD73C,0.0759*%
%ADD72C,0.1639*%
%ADD71C,0.0860*%
%ADD70C,0.0001*%
G54D70*G36*
X166549Y353540D02*X160831D01*
Y345460D01*
X166549D01*
Y353540D01*
G37*
G36*
Y368540D02*X160831D01*
Y360460D01*
X166549D01*
Y368540D01*
G37*
G36*
X178359Y353540D02*X172641D01*
Y345460D01*
X178359D01*
Y353540D01*
G37*
G36*
Y368540D02*X172641D01*
Y360460D01*
X178359D01*
Y368540D01*
G37*
G36*
X193700Y376300D02*X202300D01*
Y367700D01*
X193700D01*
Y376300D01*
G37*
G36*
X184248Y362816D02*Y357098D01*
X190752D01*
Y362816D01*
X184248D01*
G37*
G36*
Y369902D02*Y364184D01*
X190752D01*
Y369902D01*
X184248D01*
G37*
G36*
Y356902D02*Y351184D01*
X190752D01*
Y356902D01*
X184248D01*
G37*
G54D71*X198000Y362000D03*
Y352000D03*
G54D70*G36*
X184248Y349816D02*Y344098D01*
X190752D01*
Y349816D01*
X184248D01*
G37*
G54D71*X228000Y372000D03*
Y362000D03*
G54D70*G36*
X247954Y376040D02*X242236D01*
Y367960D01*
X247954D01*
Y376040D01*
G37*
G36*
Y361040D02*X242236D01*
Y352960D01*
X247954D01*
Y361040D01*
G37*
G36*
X259764Y376040D02*X254046D01*
Y367960D01*
X259764D01*
Y376040D01*
G37*
G36*
Y361040D02*X254046D01*
Y352960D01*
X259764D01*
Y361040D01*
G37*
G54D71*X228000Y352000D03*
X198000Y342000D03*
X228000D03*
G54D70*G36*
X240359Y346040D02*X234641D01*
Y337960D01*
X240359D01*
Y346040D01*
G37*
G36*
X252169D02*X246451D01*
Y337960D01*
X252169D01*
Y346040D01*
G37*
G36*
X278700Y376200D02*Y384800D01*
X287300D01*
Y376200D01*
X278700D01*
G37*
G36*
X279700Y344700D02*Y353300D01*
X288300D01*
Y344700D01*
X279700D01*
G37*
G54D71*X284000Y359000D03*
G54D72*X93505Y373000D03*
X133505D03*
G54D73*X107205Y348000D03*
G54D70*G36*
X116010Y351795D02*Y344205D01*
X123600D01*
Y351795D01*
X116010D01*
G37*
G54D73*X113505Y358000D03*
G54D74*X315500Y371500D03*
X355500D03*
G54D70*G36*
X331071Y355929D02*Y347071D01*
X339929D01*
Y355929D01*
X331071D01*
G37*
G54D75*X325500Y351500D03*
G54D70*G36*
X186816Y281752D02*X181098D01*
Y275248D01*
X186816D01*
Y281752D01*
G37*
G36*
X193902D02*X188184D01*
Y275248D01*
X193902D01*
Y281752D01*
G37*
G36*
X189700Y294700D02*Y303300D01*
X198300D01*
Y294700D01*
X189700D01*
G37*
G54D71*X194000Y309000D03*
G54D70*G36*
X186816Y267752D02*X181098D01*
Y261248D01*
X186816D01*
Y267752D01*
G37*
G36*
X193902D02*X188184D01*
Y261248D01*
X193902D01*
Y267752D01*
G37*
G36*
X202000Y270500D02*X211500D01*
Y267500D01*
X202000D01*
Y270500D01*
G37*
G36*
Y265500D02*X211500D01*
Y262500D01*
X202000D01*
Y265500D01*
G37*
G36*
Y260500D02*X211500D01*
Y257500D01*
X202000D01*
Y260500D01*
G37*
G36*
Y255500D02*X211500D01*
Y252500D01*
X202000D01*
Y255500D01*
G37*
G36*
X191960Y250764D02*Y245046D01*
X200040D01*
Y250764D01*
X191960D01*
G37*
G36*
X232000Y267500D02*X222500D01*
Y270500D01*
X232000D01*
Y267500D01*
G37*
G54D76*X227343Y293000D03*
G54D70*G36*
X203420Y297237D02*Y288763D01*
X211894D01*
Y297237D01*
X203420D01*
G37*
G36*
X208960Y318954D02*Y313236D01*
X217040D01*
Y318954D01*
X208960D01*
G37*
G36*
Y330764D02*Y325046D01*
X217040D01*
Y330764D01*
X208960D01*
G37*
G36*
X240454Y326040D02*X234736D01*
Y317960D01*
X240454D01*
Y326040D01*
G37*
G36*
X232000Y262500D02*X222500D01*
Y265500D01*
X232000D01*
Y262500D01*
G37*
G36*
X223960Y318954D02*Y313236D01*
X232040D01*
Y318954D01*
X223960D01*
G37*
G36*
Y330764D02*Y325046D01*
X232040D01*
Y330764D01*
X223960D01*
G37*
G36*
X232000Y257500D02*X222500D01*
Y260500D01*
X232000D01*
Y257500D01*
G37*
G36*
Y252500D02*X222500D01*
Y255500D01*
X232000D01*
Y252500D01*
G37*
G36*
X244960Y278764D02*Y273046D01*
X253040D01*
Y278764D01*
X244960D01*
G37*
G36*
X285315Y269536D02*Y260464D01*
X300685D01*
Y269536D01*
X285315D01*
G37*
G36*
X244960Y266954D02*Y261236D01*
X253040D01*
Y266954D01*
X244960D01*
G37*
G36*
X279700Y293300D02*X288300D01*
Y284700D01*
X279700D01*
Y293300D01*
G37*
G54D71*X294000Y289000D03*
G54D70*G36*
X159700Y274700D02*Y283300D01*
X168300D01*
Y274700D01*
X159700D01*
G37*
G54D71*X164000Y289000D03*
G54D70*G36*
X171484Y298334D02*X180556D01*
Y313704D01*
X171484D01*
Y298334D01*
G37*
G36*
X307859Y326540D02*X302141D01*
Y318460D01*
X307859D01*
Y326540D01*
G37*
G36*
X309795Y309686D02*Y300614D01*
X325165D01*
Y309686D01*
X309795D01*
G37*
G36*
X319669Y326540D02*X313951D01*
Y318460D01*
X319669D01*
Y326540D01*
G37*
G36*
X342815Y327536D02*Y318464D01*
X358185D01*
Y327536D01*
X342815D01*
G37*
G36*
X252264Y326040D02*X246546D01*
Y317960D01*
X252264D01*
Y326040D01*
G37*
G36*
X308680Y283950D02*X317280D01*
Y275350D01*
X308680D01*
Y283950D01*
G37*
G54D71*X322823Y279650D03*
G54D70*G36*
X336857Y301300D02*X345457D01*
Y292700D01*
X336857D01*
Y301300D01*
G37*
G54D71*X351000Y297000D03*
G54D70*G36*
X309795Y253686D02*Y244614D01*
X325165D01*
Y253686D01*
X309795D01*
G37*
G36*
X336880Y268950D02*X345480D01*
Y260350D01*
X336880D01*
Y268950D01*
G37*
G54D71*X351023Y264650D03*
G54D70*G36*
X197248Y223273D02*Y217555D01*
X203752D01*
Y223273D01*
X197248D01*
G37*
G36*
Y230359D02*Y224641D01*
X203752D01*
Y230359D01*
X197248D01*
G37*
G36*
X211248Y223273D02*Y217555D01*
X217752D01*
Y223273D01*
X211248D01*
G37*
G36*
Y230359D02*Y224641D01*
X217752D01*
Y230359D01*
X211248D01*
G37*
G36*
X241460Y200454D02*Y194736D01*
X249540D01*
Y200454D01*
X241460D01*
G37*
G36*
Y212264D02*Y206546D01*
X249540D01*
Y212264D01*
X241460D01*
G37*
G36*
X183748Y223273D02*Y217555D01*
X190252D01*
Y223273D01*
X183748D01*
G37*
G36*
X189748Y203316D02*Y197598D01*
X196252D01*
Y203316D01*
X189748D01*
G37*
G36*
Y210402D02*Y204684D01*
X196252D01*
Y210402D01*
X189748D01*
G37*
G36*
X183748Y230359D02*Y224641D01*
X190252D01*
Y230359D01*
X183748D01*
G37*
G36*
X170248Y223273D02*Y217555D01*
X176752D01*
Y223273D01*
X170248D01*
G37*
G54D71*X174000Y209000D03*
G54D70*G36*
X170248Y230359D02*Y224641D01*
X176752D01*
Y230359D01*
X170248D01*
G37*
G36*
X202000Y199000D02*X211500D01*
Y196000D01*
X202000D01*
Y199000D01*
G37*
G36*
Y194000D02*X211500D01*
Y191000D01*
X202000D01*
Y194000D01*
G37*
G36*
Y189000D02*X211500D01*
Y186000D01*
X202000D01*
Y189000D01*
G37*
G36*
X169700Y194700D02*Y203300D01*
X178300D01*
Y194700D01*
X169700D01*
G37*
G36*
X202000Y204000D02*X211500D01*
Y201000D01*
X202000D01*
Y204000D01*
G37*
G36*
X232000Y201000D02*X222500D01*
Y204000D01*
X232000D01*
Y201000D01*
G37*
G36*
Y196000D02*X222500D01*
Y199000D01*
X232000D01*
Y196000D01*
G37*
G36*
Y191000D02*X222500D01*
Y194000D01*
X232000D01*
Y191000D01*
G37*
G36*
Y186000D02*X222500D01*
Y189000D01*
X232000D01*
Y186000D01*
G37*
G36*
X184549Y191540D02*X178831D01*
Y183460D01*
X184549D01*
Y191540D01*
G37*
G36*
X196359D02*X190641D01*
Y183460D01*
X196359D01*
Y191540D01*
G37*
G36*
X150087Y190031D02*X160913D01*
Y200858D01*
X150087D01*
Y190031D01*
G37*
G36*
X96000Y278500D02*Y267500D01*
X107000D01*
Y278500D01*
X96000D01*
G37*
G36*
X93964Y320315D02*X103036D01*
Y335685D01*
X93964D01*
Y320315D01*
G37*
G36*
X114984Y323334D02*X124056D01*
Y338704D01*
X114984D01*
Y323334D01*
G37*
G36*
X96000Y306500D02*Y295500D01*
X107000D01*
Y306500D01*
X96000D01*
G37*
G54D77*X121185Y273000D03*
G54D70*G36*
X134346Y272503D02*X140654D01*
Y278812D01*
X134346D01*
Y272503D01*
G37*
G54D77*X121185Y301000D03*
G54D70*G36*
X123503Y318154D02*Y311846D01*
X129812D01*
Y318154D01*
X123503D01*
G37*
G54D78*X146343Y315000D03*
X137500Y295343D03*
G54D79*X155500Y254500D03*
G54D70*G36*
X211454Y245040D02*X205736D01*
Y236960D01*
X211454D01*
Y245040D01*
G37*
G36*
X223264D02*X217546D01*
Y236960D01*
X223264D01*
Y245040D01*
G37*
G36*
X232334Y241516D02*Y232445D01*
X247704D01*
Y241516D01*
X232334D01*
G37*
G36*
X191960Y238954D02*Y233236D01*
X200040D01*
Y238954D01*
X191960D01*
G37*
G54D80*X305000Y230500D03*
X359500D03*
X349500D03*
X339500D03*
X329500D03*
G54D70*G36*
X322800Y227200D02*X316200D01*
Y233800D01*
X322800D01*
Y227200D01*
G37*
G54D80*X295000Y230500D03*
X285000D03*
X275000D03*
G54D70*G36*
X268300Y227200D02*X261700D01*
Y233800D01*
X268300D01*
Y227200D01*
G37*
M02*
