M48
INCH
T20C0.037
T19C0.030
T18C0.020
T17C0.042
T16C0.060
T15C0.028
T14C0.039
T13C0.026
T12C0.079
T11C0.035
%
T18
G05
X022450Y032350
X024350Y032350
X021750Y028150
X022850Y028150
T13
X010500Y028900
X012800Y028381
X012800Y030350
X010500Y026931
T15
X031298Y027965
X032282Y027965
X034118Y026465
X034116Y029700
X035100Y029700
X035102Y026465
T19
X022734Y029750
X020766Y029750
T11
X015300Y034950
X015300Y036450
X011979Y034800
X011349Y035800
X010719Y034800
X015300Y033450
X015300Y031950
X032550Y035150
X033550Y035150
X023831Y027590
X018519Y025469
X018169Y019819
X016850Y023300
X018200Y023300
X024550Y021800
T20
X015550Y019544
X015550Y025450
T14
X027950Y035450
X027950Y033950
X020123Y036453
X023123Y036453
X028300Y038050
X020123Y035453
X023123Y035453
X020123Y034453
X020123Y033453
X023123Y034453
X023123Y033453
T17
X030500Y022850
X029500Y022850
X031967Y022843
X028500Y022850
X027500Y022850
X035967Y022843
X034967Y022843
X033967Y022843
X032967Y022843
X026500Y022850
T16
X031967Y020103
X029300Y025150
X026200Y030950
X026200Y029100
X013300Y018650
T12
X009349Y037300
X013349Y037300
X031550Y037150
X035550Y037150
M30
