G04 start of page 2 for group -1 layer_idx 268435460 *
G04 Title: (unknown), <virtual group> *
G04 Creator: pcb-rnd 2.2.1 *
G04 CreationDate: 2020-06-03 18:25:36 UTC *
G04 For:  *
G04 Format: Gerber/RS-274X *
G04 PCB-Dimensions: 500000 500000 *
G04 PCB-Coordinate-Origin: lower left *
%MOIN*%
%FSLAX25Y25*%
%LNBOTTOM_VIRTUAL_ASSY_NONE*%
%ADD148C,0.0070*%
%ADD147C,0.0197*%
%ADD146C,0.0080*%
%ADD145C,0.0276*%
%ADD144C,0.0374*%
%ADD143C,0.0420*%
%ADD142C,0.0295*%
%ADD141C,0.0790*%
%ADD140C,0.0430*%
%ADD139C,0.0394*%
%ADD138C,0.0350*%
%ADD137C,0.0256*%
%ADD136C,0.0200*%
%ADD135C,0.0689*%
%ADD134C,0.0984*%
%ADD133C,0.0600*%
%ADD132C,0.1000*%
%ADD131C,0.0787*%
%ADD130C,0.1580*%
%ADD129C,0.0830*%
%ADD128C,0.0866*%
%ADD127C,0.0800*%
%ADD126C,0.0700*%
%ADD125C,0.0571*%
%ADD124C,0.0001*%
%ADD123C,0.0400*%
G54D123*X105000Y324000D03*
G54D124*G36*
X125146Y280961D02*X130854D01*
Y286669D01*
X125146D01*
Y280961D01*
G37*
G54D125*X128000Y303500D03*
G54D126*X103767Y241967D03*
G54D124*G36*
X102146Y266461D02*X107854D01*
Y272169D01*
X102146D01*
Y266461D01*
G37*
G54D125*X105000Y289000D03*
G54D126*X103767Y226967D03*
G54D124*G36*
X148000Y246000D02*X156000D01*
Y238000D01*
X148000D01*
Y246000D01*
G37*
G54D127*X152000Y232000D03*
G54D124*G36*
X165527Y230431D02*Y225313D01*
X173007D01*
Y230431D01*
X165527D01*
G37*
G54D127*X182000Y242000D03*
Y232000D03*
Y222000D03*
X152000D03*
G54D126*X261000Y334000D03*
G54D128*X230267Y231967D03*
G54D129*X253000Y347500D03*
X193500D03*
G54D126*X107240Y348000D03*
G54D124*G36*
X116340Y351500D02*Y344500D01*
X123340D01*
Y351500D01*
X116340D01*
G37*
G54D129*X253000Y357500D03*
X193500D03*
G54D126*X113540Y358000D03*
G54D129*X253000Y367500D03*
X193500D03*
G54D130*X93540Y373000D03*
X133540D03*
G54D129*X253000Y387500D03*
X193500D03*
G54D126*X300075Y242791D03*
G54D128*X230267Y216967D03*
G54D131*X278480Y231823D03*
G54D124*G36*
X274543Y208201D02*X282417D01*
Y216075D01*
X274543D01*
Y208201D01*
G37*
G54D126*X321290Y189670D03*
X103767Y211967D03*
G54D124*G36*
X109760Y370654D02*Y365536D01*
X117240D01*
Y370654D01*
X109760D01*
G37*
G36*
Y382464D02*Y377346D01*
X117240D01*
Y382464D01*
X109760D01*
G37*
G54D126*X103767Y196967D03*
G54D127*X152000Y212000D03*
X182000D03*
G54D124*G36*
X165527Y218621D02*Y213503D01*
X173007D01*
Y218621D01*
X165527D01*
G37*
G54D130*X315500Y371500D03*
X355500D03*
G54D124*G36*
X331563Y355437D02*Y347563D01*
X339437D01*
Y355437D01*
X331563D01*
G37*
G54D131*X325500Y351500D03*
G54D132*X316500Y127600D03*
G54D133*X326500Y155000D03*
X316500D03*
G54D124*G36*
X290000Y376000D02*Y384000D01*
X298000D01*
Y376000D01*
X290000D01*
G37*
G36*
X304826Y152070D02*X298826D01*
Y158070D01*
X304826D01*
Y152070D01*
G37*
G54D133*X291826Y155070D03*
X281826D03*
X271826D03*
X261826D03*
G54D124*G36*
X359500Y152000D02*X353500D01*
Y158000D01*
X359500D01*
Y152000D01*
G37*
G54D133*X346500Y155000D03*
X336500D03*
G54D124*G36*
X129223Y123968D02*Y136961D01*
X143790D01*
Y123968D01*
X129223D01*
G37*
G36*
Y147590D02*Y160583D01*
X143790D01*
Y147590D01*
X129223D01*
G37*
G54D134*X155506Y172276D03*
G54D132*X177826Y108570D03*
G54D124*G36*
X150585Y108299D02*X160428D01*
Y118142D01*
X150585D01*
Y108299D01*
G37*
G36*
X222539Y157515D02*X229429D01*
Y150626D01*
X222539D01*
Y157515D01*
G37*
G54D135*X235826Y154070D03*
G54D124*G36*
X194362Y140165D02*X201251D01*
Y133276D01*
X194362D01*
Y140165D01*
G37*
G54D135*X207649Y136720D03*
G54D124*G36*
X222562Y125165D02*X229451D01*
Y118276D01*
X222562D01*
Y125165D01*
G37*
G54D135*X235849Y121720D03*
G54D136*G54D137*G54D138*G54D137*G54D138*G54D139*G54D138*G54D139*G54D140*G54D138*G54D140*G54D138*G54D140*G54D141*G54D140*G54D138*G54D139*G54D142*G54D138*G54D139*G54D141*G54D138*G54D133*G54D143*G54D139*G54D143*G54D144*G54D133*G54D144*G54D145*G54D146*X117240Y371638D02*Y376362D01*
X109760Y371638D02*Y376362D01*
G54D147*X143790Y139323D02*Y145228D01*
X129223Y139323D02*Y145228D01*
G54D146*X173007Y219605D02*Y224329D01*
X165527Y219605D02*Y224329D01*
G54D148*X364500Y306200D02*X363000D01*
X364500Y304000D02*X362500D01*
X364500Y308000D02*Y304000D01*
Y308000D02*X362500D01*
X359800Y306000D02*X359300Y305500D01*
X360800Y306000D02*X359800D01*
X361300Y305500D02*X360800Y306000D01*
X361300Y305500D02*Y304500D01*
X360800Y304000D01*
X359300Y306000D02*Y304500D01*
X358800Y304000D01*
X360800D02*X359800D01*
X359300Y304500D01*
X357100Y308000D02*Y304500D01*
X356600Y304000D01*
X357600Y306500D02*X356600D01*
X355600Y305500D02*Y304500D01*
Y305500D02*X355100Y306000D01*
X354100D01*
X353600Y305500D01*
Y304500D01*
X354100Y304000D02*X353600Y304500D01*
X355100Y304000D02*X354100D01*
X355600Y304500D02*X355100Y304000D01*
X351900Y305500D02*Y304000D01*
Y305500D02*X351400Y306000D01*
X350900D01*
X350400Y305500D01*
Y304000D01*
X352400Y306000D02*X351900Y305500D01*
X346900Y308000D02*Y304000D01*
X347400Y308000D02*X345400D01*
X344900Y307500D01*
Y306500D01*
X345400Y306000D02*X344900Y306500D01*
X346900Y306000D02*X345400D01*
X343200Y304000D02*X341700D01*
X343700Y304500D02*X343200Y304000D01*
X343700Y305500D02*Y304500D01*
Y305500D02*X343200Y306000D01*
X342200D01*
X341700Y305500D01*
X343700Y305000D02*X341700D01*
Y305500D01*
X339000Y306000D02*X338500Y305500D01*
X340000Y306000D02*X339000D01*
X340500Y305500D02*X340000Y306000D01*
X340500Y305500D02*Y304500D01*
X340000Y304000D01*
X338500Y306000D02*Y304500D01*
X338000Y304000D01*
X340000D02*X339000D01*
X338500Y304500D01*
X336800Y308000D02*Y304000D01*
Y304500D02*X336300Y304000D01*
X335300D01*
X334800Y304500D01*
Y305500D02*Y304500D01*
X335300Y306000D02*X334800Y305500D01*
X336300Y306000D02*X335300D01*
X336800Y305500D02*X336300Y306000D01*
X333600Y305500D02*Y304500D01*
Y305500D02*X333100Y306000D01*
X332100D01*
X331600Y305500D01*
Y304500D01*
X332100Y304000D02*X331600Y304500D01*
X333100Y304000D02*X332100D01*
X333600Y304500D02*X333100Y304000D01*
X328400Y308000D02*Y304000D01*
X328900D02*X328400Y304500D01*
X329900Y304000D02*X328900D01*
X330400Y304500D02*X329900Y304000D01*
X330400Y305500D02*Y304500D01*
Y305500D02*X329900Y306000D01*
X328900D01*
X328400Y305500D01*
X327200Y306000D02*Y304500D01*
X326700Y304000D01*
X325200Y306000D02*Y303000D01*
X325700Y302500D02*X325200Y303000D01*
X326700Y302500D02*X325700D01*
X327200Y303000D02*X326700Y302500D01*
Y304000D02*X325700D01*
X325200Y304500D01*
X322200Y308000D02*Y304000D01*
X320200D01*
X317500Y306000D02*X317000Y305500D01*
X318500Y306000D02*X317500D01*
X319000Y305500D02*X318500Y306000D01*
X319000Y305500D02*Y304500D01*
X318500Y304000D01*
X317000Y306000D02*Y304500D01*
X316500Y304000D01*
X318500D02*X317500D01*
X317000Y304500D01*
X315300Y308000D02*Y304000D01*
Y304500D02*X314800Y304000D01*
X313800D01*
X313300Y304500D01*
Y305500D02*Y304500D01*
X313800Y306000D02*X313300Y305500D01*
X314800Y306000D02*X313800D01*
X315300Y305500D02*X314800Y306000D01*
X108150Y377150D02*Y375850D01*
X107450Y377850D02*X108150Y377150D01*
X104850Y377850D02*X107450D01*
X104850D02*X104150Y377150D01*
Y375850D01*
Y374650D02*Y372650D01*
Y374650D02*X106150D01*
X105650Y374150D01*
Y373150D01*
X106150Y372650D01*
X107650D01*
X108150Y373150D02*X107650Y372650D01*
X108150Y374150D02*Y373150D01*
X107650Y374650D02*X108150Y374150D01*
X107650Y371450D02*X108150Y370950D01*
X104650Y371450D02*X107650D01*
X104650D02*X104150Y370950D01*
Y369950D01*
X104650Y369450D01*
X107650D01*
X108150Y369950D02*X107650Y369450D01*
X108150Y370950D02*Y369950D01*
X107150Y371450D02*X105150Y369450D01*
X122255Y146626D02*Y144626D01*
X122755Y144126D01*
X123755D01*
X124255Y144626D02*X123755Y144126D01*
X124255Y146126D02*Y144626D01*
X122255Y146126D02*X126255D01*
X124255Y145326D02*X126255Y144126D01*
X124755Y142926D02*X122255Y140926D01*
X124755Y142926D02*Y140426D01*
X122255Y140926D02*X126255D01*
X124755Y139226D02*X122255Y137226D01*
X124755Y139226D02*Y136726D01*
X122255Y137226D02*X126255D01*
X163917Y226117D02*Y224817D01*
X163217Y226817D02*X163917Y226117D01*
X160617Y226817D02*X163217D01*
X160617D02*X159917Y226117D01*
Y224817D01*
X162417Y223617D02*X159917Y221617D01*
X162417Y223617D02*Y221117D01*
X159917Y221617D02*X163917D01*
X159917Y218417D02*X160417Y217917D01*
X159917Y219417D02*Y218417D01*
X160417Y219917D02*X159917Y219417D01*
X160417Y219917D02*X163417D01*
X163917Y219417D01*
X161717Y218417D02*X162217Y217917D01*
X161717Y219917D02*Y218417D01*
X163917Y219417D02*Y218417D01*
X163417Y217917D01*
X162217D02*X163417D01*
X364500Y291000D02*X362500D01*
X362000Y291500D01*
Y292700D02*Y291500D01*
X362500Y293200D02*X362000Y292700D01*
X364000Y293200D02*X362500D01*
X364000Y295000D02*Y291000D01*
X364500Y295000D02*X362500D01*
X362000Y294500D01*
Y293700D01*
X362500Y293200D02*X362000Y293700D01*
X360800Y293000D02*Y291500D01*
X360300Y291000D01*
X358800Y293000D02*Y290000D01*
X359300Y289500D02*X358800Y290000D01*
X360300Y289500D02*X359300D01*
X360800Y290000D02*X360300Y289500D01*
Y291000D02*X359300D01*
X358800Y291500D01*
X355800Y293200D02*X354300D01*
X355800Y291000D02*X353800D01*
X355800Y295000D02*Y291000D01*
Y295000D02*X353800D01*
X352600Y293000D02*X351600Y291000D01*
X350600Y293000D02*X351600Y291000D01*
X347900Y293000D02*X347400Y292500D01*
X348900Y293000D02*X347900D01*
X349400Y292500D02*X348900Y293000D01*
X349400Y292500D02*Y291500D01*
X348900Y291000D01*
X347400Y293000D02*Y291500D01*
X346900Y291000D01*
X348900D02*X347900D01*
X347400Y291500D01*
X345200Y292500D02*Y291000D01*
Y292500D02*X344700Y293000D01*
X344200D01*
X343700Y292500D01*
Y291000D01*
X345700Y293000D02*X345200Y292500D01*
X340700Y295000D02*Y291000D01*
Y295000D02*X338700D01*
X340700Y293200D02*X339200D01*
X337500Y292500D02*Y291500D01*
Y292500D02*X337000Y293000D01*
X336000D01*
X335500Y292500D01*
Y291500D01*
X336000Y291000D02*X335500Y291500D01*
X337000Y291000D02*X336000D01*
X337500Y291500D02*X337000Y291000D01*
X333800D02*X332300D01*
X331800Y291500D01*
X332300Y292000D02*X331800Y291500D01*
X333800Y292000D02*X332300D01*
X334300Y292500D02*X333800Y292000D01*
X334300Y292500D02*X333800Y293000D01*
X332300D01*
X331800Y292500D01*
X334300Y291500D02*X333800Y291000D01*
X330100D02*X328600D01*
X328100Y291500D01*
X328600Y292000D02*X328100Y291500D01*
X330100Y292000D02*X328600D01*
X330600Y292500D02*X330100Y292000D01*
X330600Y292500D02*X330100Y293000D01*
X328600D01*
X328100Y292500D01*
X330600Y291500D02*X330100Y291000D01*
X364500Y301500D02*Y297500D01*
Y301500D02*X363000Y299500D01*
X361500Y301500D01*
Y297500D01*
X360300Y299000D02*Y298000D01*
Y299000D02*X359800Y299500D01*
X358800D01*
X358300Y299000D01*
Y298000D01*
X358800Y297500D02*X358300Y298000D01*
X359800Y297500D02*X358800D01*
X360300Y298000D02*X359800Y297500D01*
X355100Y301500D02*Y297500D01*
X355600D02*X355100Y298000D01*
X356600Y297500D02*X355600D01*
X357100Y298000D02*X356600Y297500D01*
X357100Y299000D02*Y298000D01*
Y299000D02*X356600Y299500D01*
X355600D01*
X355100Y299000D01*
X353400Y297500D02*X351900D01*
X353900Y298000D02*X353400Y297500D01*
X353900Y299000D02*Y298000D01*
Y299000D02*X353400Y299500D01*
X352400D01*
X351900Y299000D01*
X353900Y298500D02*X351900D01*
Y299000D01*
X350700Y301500D02*Y298000D01*
X350200Y297500D01*
X349200Y300000D02*X348700D01*
X349200Y299000D02*X348700D01*
X345700Y297500D02*X343700D01*
X343200Y298000D01*
Y299200D02*Y298000D01*
X343700Y299700D02*X343200Y299200D01*
X345200Y299700D02*X343700D01*
X345200Y301500D02*Y297500D01*
X345700Y301500D02*X343700D01*
X343200Y301000D01*
Y300200D01*
X343700Y299700D02*X343200Y300200D01*
X342000Y300500D02*Y300400D01*
Y299000D02*Y297500D01*
X341000Y299000D02*Y298000D01*
Y299000D02*X340500Y299500D01*
X339500D01*
X339000Y299000D01*
Y298000D01*
X339500Y297500D02*X339000Y298000D01*
X340500Y297500D02*X339500D01*
X341000Y298000D02*X340500Y297500D01*
X337800Y300500D02*Y297500D01*
Y300500D02*X337100Y301500D01*
X336000D01*
X335300Y300500D01*
Y297500D01*
X337800Y299500D02*X335300D01*
X333600Y299000D02*Y297500D01*
Y299000D02*X333100Y299500D01*
X332600D01*
X332100Y299000D01*
Y297500D01*
Y299000D02*X331600Y299500D01*
X331100D01*
X330600Y299000D01*
Y297500D01*
X334100Y299500D02*X333600Y299000D01*
X328900D02*Y296000D01*
X329400Y299500D02*X328900Y299000D01*
X328400Y299500D01*
X327400D01*
X326900Y299000D01*
Y298000D01*
X327400Y297500D02*X326900Y298000D01*
X328400Y297500D02*X327400D01*
X328900Y298000D02*X328400Y297500D01*
X323900Y301500D02*Y300500D01*
X322900Y301500D02*Y300500D01*
X321200Y301000D02*Y297500D01*
Y301000D02*X320700Y301500D01*
X320200D01*
X321700Y299500D02*X320700D01*
X317700D02*X317200Y299000D01*
X318700Y299500D02*X317700D01*
X319200Y299000D02*X318700Y299500D01*
X319200Y299000D02*Y298000D01*
X318700Y297500D01*
X317200Y299500D02*Y298000D01*
X316700Y297500D01*
X318700D02*X317700D01*
X317200Y298000D01*
X315000Y299000D02*Y297500D01*
Y299000D02*X314500Y299500D01*
X314000D01*
X313500Y299000D01*
Y297500D01*
X315500Y299500D02*X315000Y299000D01*
X311800Y299500D02*X310300D01*
X312300Y299000D02*X311800Y299500D01*
X312300Y299000D02*Y298000D01*
X311800Y297500D01*
X310300D01*
X309100Y299500D02*Y298000D01*
X308600Y297500D01*
X307100Y299500D02*Y296500D01*
X307600Y296000D02*X307100Y296500D01*
X308600Y296000D02*X307600D01*
X309100Y296500D02*X308600Y296000D01*
Y297500D02*X307600D01*
X307100Y298000D01*
X305900Y301500D02*Y300500D01*
X304900Y301500D02*Y300500D01*
X364500Y288000D02*X364000Y288500D01*
X362500D01*
X362000Y288000D01*
Y287000D01*
X364500Y284500D02*X362000Y287000D01*
X364500Y284500D02*X362000D01*
X360800Y285000D02*X360300Y284500D01*
X360800Y288000D02*Y285000D01*
Y288000D02*X360300Y288500D01*
X359300D01*
X358800Y288000D01*
Y285000D01*
X359300Y284500D02*X358800Y285000D01*
X360300Y284500D02*X359300D01*
X360800Y285500D02*X358800Y287500D01*
X357600Y288000D02*X357100Y288500D01*
X355600D01*
X355100Y288000D01*
Y287000D01*
X357600Y284500D02*X355100Y287000D01*
X357600Y284500D02*X355100D01*
X353900Y285000D02*X353400Y284500D01*
X353900Y288000D02*Y285000D01*
Y288000D02*X353400Y288500D01*
X352400D01*
X351900Y288000D01*
Y285000D01*
X352400Y284500D02*X351900Y285000D01*
X353400Y284500D02*X352400D01*
X353900Y285500D02*X351900Y287500D01*
X350700Y284500D02*X350200D01*
X349000Y285000D02*X348500Y284500D01*
X349000Y288000D02*Y285000D01*
Y288000D02*X348500Y288500D01*
X347500D01*
X347000Y288000D01*
Y285000D01*
X347500Y284500D02*X347000Y285000D01*
X348500Y284500D02*X347500D01*
X349000Y285500D02*X347000Y287500D01*
X344300Y288500D02*X343800Y288000D01*
X345300Y288500D02*X344300D01*
X345800Y288000D02*X345300Y288500D01*
X345800Y288000D02*Y285000D01*
X345300Y284500D01*
X344300Y286700D02*X343800Y286200D01*
X345800Y286700D02*X344300D01*
X345300Y284500D02*X344300D01*
X343800Y285000D01*
Y286200D02*Y285000D01*
X342600Y284500D02*X342100D01*
X340900Y285000D02*X340400Y284500D01*
X340900Y288000D02*Y285000D01*
Y288000D02*X340400Y288500D01*
X339400D01*
X338900Y288000D01*
Y285000D01*
X339400Y284500D02*X338900Y285000D01*
X340400Y284500D02*X339400D01*
X340900Y285500D02*X338900Y287500D01*
X337700Y288000D02*X337200Y288500D01*
X335700D01*
X335200Y288000D01*
Y287000D01*
X337700Y284500D02*X335200Y287000D01*
X337700Y284500D02*X335200D01*
M02*
