M48
INCH
T22C0.064
T21C0.042
T20C0.030
T19C0.028
T18C0.037
T17C0.060
T16C0.026
T15C0.079
T14C0.020
T13C0.039
T12C0.043
T11C0.035
%
T14
G05
X031250Y032300
X029750Y030800
X020650Y028800
T16
X011650Y024600
X010250Y021331
X010250Y023300
X011650Y026569
T19
X019781Y013672
X020765Y013672
X022598Y015407
X023583Y015407
X022601Y012172
X023585Y012172
T20
X027700Y023734
X027700Y021766
T11
X028150Y035100
X024100Y029450
X033550Y035150
X032550Y035150
X012650Y018950
X028400Y027850
X032129Y018967
X012850Y026200
X024200Y019450
X022800Y022300
X026550Y022300
X010724Y034800
X011984Y034800
X011354Y035800
X015819Y030081
X033150Y024400
X022250Y032700
X022250Y034200
T18
X015551Y011322
X015551Y017228
T13
X024300Y031450
X032300Y030450
X033300Y030450
X015200Y024200
X015200Y023200
X015200Y022200
X015200Y021200
X018200Y024200
X018200Y023200
X018200Y022200
X018200Y021200
X021550Y024950
X021719Y018900
X021719Y020400
X032300Y026450
X032300Y027450
X025300Y026450
X026300Y026450
X022300Y026450
X023300Y026450
X016300Y027450
X027300Y019450
X027300Y020450
X016300Y028450
X023300Y031450
X016400Y038000
T21
X031800Y015500
X030800Y015500
X029600Y015500
X028600Y015500
X027600Y015500
X026600Y015500
X025600Y015500
X034800Y015500
X033800Y015500
X032800Y015500
T12
X025300Y034500
X025300Y035500
X025300Y036500
X025300Y038500
X019350Y034500
X019350Y035500
X019350Y036500
X019350Y038500
T17
X012050Y009150
X017783Y010857
T22
X010100Y028500
X010100Y030469
X012900Y028500
X012900Y030469
T15
X031550Y037150
X035550Y037150
X009354Y037300
X013354Y037300
M30
