G04 start of page 2 for group 10 layer_idx 5 *
G04 Title: (unknown), bottom_silk *
G04 Creator: pcb-rnd 2.3.0 *
G04 CreationDate: 2021-04-06 18:34:35 UTC *
G04 For:  *
G04 Format: Gerber/RS-274X *
G04 PCB-Dimensions: 500000 500000 *
G04 PCB-Coordinate-Origin: lower left *
%MOIN*%
%FSLAX25Y25*%
%LNBOTTOM_SILK_NONE_10*%
%ADD75C,0.0070*%
%ADD74C,0.0197*%
%ADD73C,0.0080*%
G54D73*X117240Y371638D02*Y376362D01*
X109760Y371638D02*Y376362D01*
G54D74*X143790Y139323D02*Y145228D01*
X129223Y139323D02*Y145228D01*
G54D75*X205500Y327700D02*X204000D01*
X205500Y325500D02*X203500D01*
X205500Y329500D02*Y325500D01*
Y329500D02*X203500D01*
X200800Y327500D02*X200300Y327000D01*
X201800Y327500D02*X200800D01*
X202300Y327000D02*X201800Y327500D01*
X202300Y327000D02*Y326000D01*
X201800Y325500D01*
X200300Y327500D02*Y326000D01*
X199800Y325500D01*
X201800D02*X200800D01*
X200300Y326000D01*
X198100Y329500D02*Y326000D01*
X197600Y325500D01*
X198600Y328000D02*X197600D01*
X196600Y327000D02*Y326000D01*
Y327000D02*X196100Y327500D01*
X195100D01*
X194600Y327000D01*
Y326000D01*
X195100Y325500D02*X194600Y326000D01*
X196100Y325500D02*X195100D01*
X196600Y326000D02*X196100Y325500D01*
X192900Y327000D02*Y325500D01*
Y327000D02*X192400Y327500D01*
X191900D01*
X191400Y327000D01*
Y325500D01*
X193400Y327500D02*X192900Y327000D01*
X187900Y329500D02*Y325500D01*
X188400Y329500D02*X186400D01*
X185900Y329000D01*
Y328000D01*
X186400Y327500D02*X185900Y328000D01*
X187900Y327500D02*X186400D01*
X184200Y325500D02*X182700D01*
X184700Y326000D02*X184200Y325500D01*
X184700Y327000D02*Y326000D01*
Y327000D02*X184200Y327500D01*
X183200D01*
X182700Y327000D01*
X184700Y326500D02*X182700D01*
Y327000D01*
X180000Y327500D02*X179500Y327000D01*
X181000Y327500D02*X180000D01*
X181500Y327000D02*X181000Y327500D01*
X181500Y327000D02*Y326000D01*
X181000Y325500D01*
X179500Y327500D02*Y326000D01*
X179000Y325500D01*
X181000D02*X180000D01*
X179500Y326000D01*
X177800Y329500D02*Y325500D01*
Y326000D02*X177300Y325500D01*
X176300D01*
X175800Y326000D01*
Y327000D02*Y326000D01*
X176300Y327500D02*X175800Y327000D01*
X177300Y327500D02*X176300D01*
X177800Y327000D02*X177300Y327500D01*
X174600Y327000D02*Y326000D01*
Y327000D02*X174100Y327500D01*
X173100D01*
X172600Y327000D01*
Y326000D01*
X173100Y325500D02*X172600Y326000D01*
X174100Y325500D02*X173100D01*
X174600Y326000D02*X174100Y325500D01*
X169400Y329500D02*Y325500D01*
X169900D02*X169400Y326000D01*
X170900Y325500D02*X169900D01*
X171400Y326000D02*X170900Y325500D01*
X171400Y327000D02*Y326000D01*
Y327000D02*X170900Y327500D01*
X169900D01*
X169400Y327000D01*
X168200Y327500D02*Y326000D01*
X167700Y325500D01*
X166200Y327500D02*Y324500D01*
X166700Y324000D02*X166200Y324500D01*
X167700Y324000D02*X166700D01*
X168200Y324500D02*X167700Y324000D01*
Y325500D02*X166700D01*
X166200Y326000D01*
X163200Y329500D02*Y325500D01*
X161200D01*
X158500Y327500D02*X158000Y327000D01*
X159500Y327500D02*X158500D01*
X160000Y327000D02*X159500Y327500D01*
X160000Y327000D02*Y326000D01*
X159500Y325500D01*
X158000Y327500D02*Y326000D01*
X157500Y325500D01*
X159500D02*X158500D01*
X158000Y326000D01*
X156300Y329500D02*Y325500D01*
Y326000D02*X155800Y325500D01*
X154800D01*
X154300Y326000D01*
Y327000D02*Y326000D01*
X154800Y327500D02*X154300Y327000D01*
X155800Y327500D02*X154800D01*
X156300Y327000D02*X155800Y327500D01*
X205500Y312500D02*X203500D01*
X203000Y313000D01*
Y314200D02*Y313000D01*
X203500Y314700D02*X203000Y314200D01*
X205000Y314700D02*X203500D01*
X205000Y316500D02*Y312500D01*
X205500Y316500D02*X203500D01*
X203000Y316000D01*
Y315200D01*
X203500Y314700D02*X203000Y315200D01*
X201800Y314500D02*Y313000D01*
X201300Y312500D01*
X199800Y314500D02*Y311500D01*
X200300Y311000D02*X199800Y311500D01*
X201300Y311000D02*X200300D01*
X201800Y311500D02*X201300Y311000D01*
Y312500D02*X200300D01*
X199800Y313000D01*
X196800Y314700D02*X195300D01*
X196800Y312500D02*X194800D01*
X196800Y316500D02*Y312500D01*
Y316500D02*X194800D01*
X193600Y314500D02*X192600Y312500D01*
X191600Y314500D02*X192600Y312500D01*
X188900Y314500D02*X188400Y314000D01*
X189900Y314500D02*X188900D01*
X190400Y314000D02*X189900Y314500D01*
X190400Y314000D02*Y313000D01*
X189900Y312500D01*
X188400Y314500D02*Y313000D01*
X187900Y312500D01*
X189900D02*X188900D01*
X188400Y313000D01*
X186200Y314000D02*Y312500D01*
Y314000D02*X185700Y314500D01*
X185200D01*
X184700Y314000D01*
Y312500D01*
X186700Y314500D02*X186200Y314000D01*
X181700Y316500D02*Y312500D01*
Y316500D02*X179700D01*
X181700Y314700D02*X180200D01*
X178500Y314000D02*Y313000D01*
Y314000D02*X178000Y314500D01*
X177000D01*
X176500Y314000D01*
Y313000D01*
X177000Y312500D02*X176500Y313000D01*
X178000Y312500D02*X177000D01*
X178500Y313000D02*X178000Y312500D01*
X174800D02*X173300D01*
X172800Y313000D01*
X173300Y313500D02*X172800Y313000D01*
X174800Y313500D02*X173300D01*
X175300Y314000D02*X174800Y313500D01*
X175300Y314000D02*X174800Y314500D01*
X173300D01*
X172800Y314000D01*
X175300Y313000D02*X174800Y312500D01*
X171100D02*X169600D01*
X169100Y313000D01*
X169600Y313500D02*X169100Y313000D01*
X171100Y313500D02*X169600D01*
X171600Y314000D02*X171100Y313500D01*
X171600Y314000D02*X171100Y314500D01*
X169600D01*
X169100Y314000D01*
X171600Y313000D02*X171100Y312500D01*
X205500Y323000D02*Y319000D01*
Y323000D02*X204000Y321000D01*
X202500Y323000D01*
Y319000D01*
X201300Y320500D02*Y319500D01*
Y320500D02*X200800Y321000D01*
X199800D01*
X199300Y320500D01*
Y319500D01*
X199800Y319000D02*X199300Y319500D01*
X200800Y319000D02*X199800D01*
X201300Y319500D02*X200800Y319000D01*
X196100Y323000D02*Y319000D01*
X196600D02*X196100Y319500D01*
X197600Y319000D02*X196600D01*
X198100Y319500D02*X197600Y319000D01*
X198100Y320500D02*Y319500D01*
Y320500D02*X197600Y321000D01*
X196600D01*
X196100Y320500D01*
X194400Y319000D02*X192900D01*
X194900Y319500D02*X194400Y319000D01*
X194900Y320500D02*Y319500D01*
Y320500D02*X194400Y321000D01*
X193400D01*
X192900Y320500D01*
X194900Y320000D02*X192900D01*
Y320500D01*
X191700Y323000D02*Y319500D01*
X191200Y319000D01*
X190200Y321500D02*X189700D01*
X190200Y320500D02*X189700D01*
X186700Y319000D02*X184700D01*
X184200Y319500D01*
Y320700D02*Y319500D01*
X184700Y321200D02*X184200Y320700D01*
X186200Y321200D02*X184700D01*
X186200Y323000D02*Y319000D01*
X186700Y323000D02*X184700D01*
X184200Y322500D01*
Y321700D01*
X184700Y321200D02*X184200Y321700D01*
X183000Y322000D02*Y321900D01*
Y320500D02*Y319000D01*
X182000Y320500D02*Y319500D01*
Y320500D02*X181500Y321000D01*
X180500D01*
X180000Y320500D01*
Y319500D01*
X180500Y319000D02*X180000Y319500D01*
X181500Y319000D02*X180500D01*
X182000Y319500D02*X181500Y319000D01*
X178800Y322000D02*Y319000D01*
Y322000D02*X178100Y323000D01*
X177000D01*
X176300Y322000D01*
Y319000D01*
X178800Y321000D02*X176300D01*
X174600Y320500D02*Y319000D01*
Y320500D02*X174100Y321000D01*
X173600D01*
X173100Y320500D01*
Y319000D01*
Y320500D02*X172600Y321000D01*
X172100D01*
X171600Y320500D01*
Y319000D01*
X175100Y321000D02*X174600Y320500D01*
X169900D02*Y317500D01*
X170400Y321000D02*X169900Y320500D01*
X169400Y321000D01*
X168400D01*
X167900Y320500D01*
Y319500D01*
X168400Y319000D02*X167900Y319500D01*
X169400Y319000D02*X168400D01*
X169900Y319500D02*X169400Y319000D01*
X164900Y323000D02*Y322000D01*
X163900Y323000D02*Y322000D01*
X162200Y322500D02*Y319000D01*
Y322500D02*X161700Y323000D01*
X161200D01*
X162700Y321000D02*X161700D01*
X158700D02*X158200Y320500D01*
X159700Y321000D02*X158700D01*
X160200Y320500D02*X159700Y321000D01*
X160200Y320500D02*Y319500D01*
X159700Y319000D01*
X158200Y321000D02*Y319500D01*
X157700Y319000D01*
X159700D02*X158700D01*
X158200Y319500D01*
X156000Y320500D02*Y319000D01*
Y320500D02*X155500Y321000D01*
X155000D01*
X154500Y320500D01*
Y319000D01*
X156500Y321000D02*X156000Y320500D01*
X152800Y321000D02*X151300D01*
X153300Y320500D02*X152800Y321000D01*
X153300Y320500D02*Y319500D01*
X152800Y319000D01*
X151300D01*
X150100Y321000D02*Y319500D01*
X149600Y319000D01*
X148100Y321000D02*Y318000D01*
X148600Y317500D02*X148100Y318000D01*
X149600Y317500D02*X148600D01*
X150100Y318000D02*X149600Y317500D01*
Y319000D02*X148600D01*
X148100Y319500D01*
X146900Y323000D02*Y322000D01*
X145900Y323000D02*Y322000D01*
X205500Y309500D02*X205000Y310000D01*
X203500D01*
X203000Y309500D01*
Y308500D01*
X205500Y306000D02*X203000Y308500D01*
X205500Y306000D02*X203000D01*
X201800Y306500D02*X201300Y306000D01*
X201800Y309500D02*Y306500D01*
Y309500D02*X201300Y310000D01*
X200300D01*
X199800Y309500D01*
Y306500D01*
X200300Y306000D02*X199800Y306500D01*
X201300Y306000D02*X200300D01*
X201800Y307000D02*X199800Y309000D01*
X198600Y309500D02*X198100Y310000D01*
X196600D01*
X196100Y309500D01*
Y308500D01*
X198600Y306000D02*X196100Y308500D01*
X198600Y306000D02*X196100D01*
X194900Y309200D02*X194100Y310000D01*
Y306000D01*
X194900D02*X193400D01*
X192200D02*X191700D01*
X190500Y306500D02*X190000Y306000D01*
X190500Y309500D02*Y306500D01*
Y309500D02*X190000Y310000D01*
X189000D01*
X188500Y309500D01*
Y306500D01*
X189000Y306000D02*X188500Y306500D01*
X190000Y306000D02*X189000D01*
X190500Y307000D02*X188500Y309000D01*
X187300Y309500D02*X186800Y310000D01*
X185800D01*
X185300Y309500D01*
X185800Y306000D02*X185300Y306500D01*
X186800Y306000D02*X185800D01*
X187300Y306500D02*X186800Y306000D01*
Y308200D02*X185800D01*
X185300Y309500D02*Y308700D01*
Y307700D02*Y306500D01*
Y307700D02*X185800Y308200D01*
X185300Y308700D02*X185800Y308200D01*
X184100Y306000D02*X183600D01*
X182400Y309500D02*X181900Y310000D01*
X180400D01*
X179900Y309500D01*
Y308500D01*
X182400Y306000D02*X179900Y308500D01*
X182400Y306000D02*X179900D01*
X178700Y310000D02*X176700D01*
X178700D02*Y308000D01*
X178200Y308500D01*
X177200D01*
X176700Y308000D01*
Y306500D01*
X177200Y306000D02*X176700Y306500D01*
X178200Y306000D02*X177200D01*
X178700Y306500D02*X178200Y306000D01*
X118650Y370550D02*Y371850D01*
X119350Y369850D02*X118650Y370550D01*
X121950Y369850D02*X119350D01*
X121950D02*X122650Y370550D01*
Y371850D01*
Y373050D02*Y375050D01*
Y373050D02*X120650D01*
X121150Y373550D01*
Y374550D01*
X120650Y375050D01*
X119150D01*
X118650Y374550D02*X119150Y375050D01*
X118650Y373550D02*Y374550D01*
X119150Y373050D02*X118650Y373550D01*
X119150Y376250D02*X118650Y376750D01*
X122150Y376250D02*X119150D01*
X122150D02*X122650Y376750D01*
Y377750D01*
X122150Y378250D01*
X119150D01*
X118650Y377750D02*X119150Y378250D01*
X118650Y376750D02*Y377750D01*
X119650Y376250D02*X121650Y378250D01*
X150255Y136626D02*Y138626D01*
X149755Y139126D01*
X148755D01*
X148255Y138626D02*X148755Y139126D01*
X148255Y137126D02*Y138626D01*
X150255Y137126D02*X146255D01*
X148255Y137926D02*X146255Y139126D01*
X147755Y140326D02*X150255Y142326D01*
X147755Y140326D02*Y142826D01*
X150255Y142326D02*X146255D01*
X147755Y144026D02*X150255Y146026D01*
X147755Y144026D02*Y146526D01*
X150255Y146026D02*X146255D01*
M02*
