M48
INCH
T21C0.043
T20C0.028
T19C0.060
T18C0.037
T17C0.026
T16C0.079
T15C0.042
T14C0.030
T13C0.020
T12C0.039
T11C0.035
%
T13
G05
X029800Y030850
X031250Y032300
X020650Y028800
T17
X010500Y028900
X012800Y030350
X010500Y026931
X012800Y028381
T20
X022598Y015407
X023583Y015407
X019781Y013672
X020765Y013672
X022601Y012172
X023585Y012172
T14
X027848Y023182
X027848Y021214
T11
X010377Y022697
X010377Y024197
X028150Y035100
X028400Y027850
X033400Y024600
X032129Y018967
X033550Y035150
X032550Y035150
X010377Y021197
X010724Y034800
X011984Y034800
X011354Y035800
X010377Y019697
X023050Y030350
X022100Y034200
X022100Y032700
X023650Y019700
X027200Y019700
X024300Y018700
X026250Y018700
T18
X015551Y017228
X015551Y011322
T12
X015200Y024200
X015200Y023200
X018200Y024200
X018200Y023200
X018200Y022200
X023027Y023197
X023027Y021697
X015200Y022200
X015200Y021200
X018200Y021200
X033300Y030450
X032300Y030450
X029400Y038000
X015300Y029450
X015300Y030450
X022300Y026450
X023300Y026450
X023300Y035450
X023300Y036450
X025300Y026450
X026300Y026450
T15
X033800Y015500
X032800Y015500
X034800Y015500
X031800Y015500
X030800Y015500
X029600Y015500
X028600Y015500
X027600Y015500
X026600Y015500
X025600Y015500
T21
X019350Y034750
X025300Y034750
X025300Y035750
X019350Y035750
X019350Y036750
X019350Y038750
X025300Y036750
X025300Y038750
T19
X012050Y009150
X017783Y010857
T16
X031550Y037150
X035550Y037150
X009354Y037300
X013354Y037300
M30
