G04 start of page 2 for group 3 layer_idx 0 *
G04 Title: (unknown), top_copper *
G04 Creator: pcb-rnd 2.3.2 *
G04 CreationDate: 2021-05-12 18:20:22 UTC *
G04 For:  *
G04 Format: Gerber/RS-274X *
G04 PCB-Dimensions: 500000 500000 *
G04 PCB-Coordinate-Origin: lower left *
%MOIN*%
%FSLAX25Y25*%
%LNTOP_COPPER_NONE_3*%
%ADD34C,0.0420*%
%ADD33C,0.0256*%
%ADD32C,0.0640*%
%ADD31C,0.0374*%
%ADD30C,0.0276*%
%ADD29C,0.0295*%
%ADD28C,0.0790*%
%ADD27C,0.0394*%
%ADD26C,0.0600*%
%ADD25C,0.0984*%
%ADD24C,0.0571*%
%ADD23C,0.1040*%
%ADD22C,0.0689*%
%ADD21C,0.1000*%
%ADD20C,0.0400*%
%ADD19C,0.0787*%
%ADD18C,0.1580*%
%ADD17C,0.0866*%
%ADD16C,0.0800*%
%ADD15C,0.0001*%
%ADD14C,0.0700*%
%ADD13C,0.0200*%
%ADD12C,0.0350*%
%ADD11C,0.0650*%
G54D11*X113393Y381393D02*X123500Y391500D01*
X101000Y358000D02*X87500Y344500D01*
X113390Y358000D02*Y381390D01*
X113500Y381500D01*
X101000Y358000D02*X113390D01*
G54D12*X153000Y364500D02*X163690D01*
X169500Y357500D02*X169250Y357250D01*
X147250D02*X142250D01*
X131000Y346000D01*
Y319343D02*X126657Y315000D01*
X101500Y313000D02*X98500Y316000D01*
Y327960D01*
G54D13*X111500Y314500D02*X119500Y322500D01*
G54D12*X111500Y314500D02*X119250Y322250D01*
X98500Y327960D02*X98480Y327980D01*
Y339275D01*
X119805Y331304D02*X119520Y331020D01*
X119250Y330750D02*X119520Y331020D01*
G54D11*X87500Y344500D02*Y265000D01*
G54D12*X101500Y301000D02*Y313000D01*
G54D13*X119500Y322500D02*Y331000D01*
G54D12*X101500Y273000D02*X111500Y283000D01*
Y314500D01*
X121000Y300815D02*X121185Y301000D01*
G54D13*X101500Y273000D02*X111500Y283000D01*
Y314500D01*
G54D12*X119250Y322250D02*Y330750D01*
X98480Y339275D02*X107205Y348000D01*
X119805D02*Y331304D01*
X131000Y346000D02*Y319343D01*
X130500Y273000D02*X121185D01*
X153000Y349500D02*X163690D01*
X137500Y317000D02*X147500Y327000D01*
Y333500D01*
X149500Y335500D02*X151500Y337500D01*
X147500Y333500D02*X149500Y335500D01*
X154000Y340000D02*X151500Y337500D01*
X125500Y285500D02*X121000Y290000D01*
Y300815D01*
X137500Y295343D02*Y317000D01*
Y275657D02*X133157D01*
X130500Y273000D01*
X146343Y315000D02*Y289843D01*
X142000Y285500D01*
X125500D01*
G54D11*X164000Y310500D02*Y279000D01*
Y318500D02*Y310500D01*
G54D12*X155000Y321500D02*X166000Y332500D01*
G54D11*X164000Y267000D02*Y279000D01*
G54D12*X155500Y265000D02*X155000Y265500D01*
Y321500D01*
D03*
X163500Y349310D02*X163690Y349500D01*
X175500Y364500D02*Y363500D01*
X169500Y357500D01*
X175500Y349500D02*Y348000D01*
X187500Y354043D02*Y359957D01*
G54D13*Y346957D02*X198000Y352000D01*
G54D12*X175500Y348000D02*X167500Y340000D01*
X175500Y349500D02*Y347000D01*
X182000Y340500D01*
X196500D02*X198000Y342000D01*
X213000Y341000D02*Y355500D01*
X243500Y347500D02*X239000Y352000D01*
X228000D01*
Y342000D02*X237500D01*
X249310Y352785D02*X245095Y357000D01*
X167500Y340000D02*X154000D01*
X196500Y324500D02*X200000Y328000D01*
X205000Y333000D02*X213000Y341000D01*
X205000Y333000D02*X193000D01*
X187500Y327500D01*
X166000Y332500D02*X179500D01*
G54D11*X228000Y342000D02*Y329500D01*
G54D12*X213905Y328000D02*X214000Y327905D01*
X200000Y328000D02*X213905D01*
G54D11*X178000Y324500D02*X170000D01*
G54D13*X245000Y298000D02*X278500D01*
X303000Y322500D01*
G54D11*X262000Y307000D02*Y315000D01*
G54D13*X303000Y322500D02*X305000D01*
G54D12*X243500Y309000D02*Y347500D01*
G54D11*X262000Y315000D02*X255000Y322000D01*
X251000D02*X255000D01*
G54D12*X249310Y322690D02*X250000Y322000D01*
X249405Y341595D02*X249310Y341500D01*
Y322690D02*Y352785D01*
X187500Y327500D02*Y317500D01*
G54D13*X176000Y305500D02*X176250Y305750D01*
G54D12*X213000Y316095D02*X201095D01*
X194000Y309000D01*
X187500Y317500D02*X185500Y315500D01*
X213000Y327905D02*X231690D01*
X237595Y322000D01*
X228000Y316095D02*X213000D01*
X176000Y306000D02*X185500D01*
G54D11*X170000Y324500D02*X164000Y318500D01*
X317326Y294570D02*Y303496D01*
X322906Y288991D02*X317326Y294570D01*
G54D12*X317310Y323000D02*X316810Y322500D01*
X350500D01*
G54D11*X317326Y303496D02*X317480Y303650D01*
G54D13*X227343Y293000D02*X222843Y288500D01*
G54D12*X227343Y293000D02*X227500D01*
X243500Y309000D01*
G54D13*X207657Y295000D02*Y281114D01*
G54D11*X262000Y289000D02*X303630D01*
X351000Y285670D02*Y297000D01*
X350480Y323020D02*Y336520D01*
X335500Y351500D01*
G54D12*X182000Y340500D02*X196500D01*
X185500Y315500D02*Y286500D01*
X184000Y285000D01*
Y278543D01*
X194000Y299000D02*X185500D01*
G54D11*X322906Y279650D02*Y288991D01*
X322980Y279650D02*X344980D01*
X312980Y270650D02*Y279650D01*
X344980D02*X350980Y285650D01*
X322823Y279650D02*X357350D01*
X363500Y273500D01*
Y252000D02*Y273500D01*
X318980Y264650D02*X312980Y270650D01*
G54D13*X183957Y264500D02*Y268957D01*
X186500Y271500D01*
X189000D01*
X191000Y273500D01*
X190000Y256000D02*X189500Y255500D01*
Y256500D02*X190000Y256000D01*
X193000Y259000D02*X189500Y255500D01*
G54D11*X167000Y264000D02*X164000Y267000D01*
G54D12*X155500Y254500D02*Y265000D01*
G54D13*X173500Y268000D02*X184000Y278500D01*
G54D11*X341180Y264650D02*X318980D01*
G54D13*X204500Y264000D02*X191543D01*
X191043Y264500D01*
X256405Y264000D02*X229500D01*
G54D12*X249000Y264095D02*X261810D01*
G54D13*X191000Y273500D02*Y278457D01*
X207657Y281114D02*X191043Y264500D01*
X191000Y278457D02*X191043Y278500D01*
G54D12*X238310Y275905D02*X249000D01*
G54D13*X222843Y274343D02*X222750Y274250D01*
G54D12*X184000Y278543D02*X183957Y278500D01*
G54D13*X229500Y259000D02*X221000D01*
X229000D02*X235500D01*
X204500D02*X193000D01*
X221000D02*X219500Y260500D01*
Y271000D01*
X222733Y274233D02*X219500Y271000D01*
X217500Y281500D03*
X214500Y278500D02*X217500Y281500D01*
G54D11*X262000Y257000D02*Y289000D01*
G54D13*X249000Y264095D02*X248905Y264000D01*
X235500Y259000D02*X240020Y254480D01*
X228500Y281500D02*X245000Y298000D01*
X222843Y288500D02*Y274343D01*
G54D11*X303630Y289000D02*X312980Y279650D01*
G54D12*X169250Y357250D02*X147250D01*
X175500Y364500D02*Y370500D01*
X179500Y374500D01*
G54D11*X123500Y391500D02*X262000D01*
G54D12*X179500Y374500D02*X195500D01*
X198000Y372000D01*
X256905D02*X267000D01*
G54D13*X199500Y362000D02*X187500Y367043D01*
G54D12*X228000Y372000D02*X244190D01*
X245595Y370595D01*
X213000Y355500D02*X219500Y362000D01*
X228000D01*
X245095Y357000D02*Y372000D01*
X256905Y357000D02*X267000D01*
G54D11*X273000Y380500D02*X283000D01*
X262000Y391500D02*X273000Y380500D01*
G54D13*X199500Y362000D02*X200000Y362500D01*
G54D11*X283000Y380500D02*Y369500D01*
X284000Y368500D01*
Y349000D01*
X152000Y177500D02*X141000Y188500D01*
G54D12*X174000Y187500D02*X181690D01*
X193500D02*Y177500D01*
G54D13*X212500Y197500D02*X214500Y199500D01*
X220500Y192500D02*X218500Y194500D01*
X204500Y187500D02*X193500D01*
X212500Y197500D02*X195957D01*
X204500Y192500D02*X199000D01*
X197500Y194000D01*
X180000Y199000D02*X174000D01*
X197500Y194000D02*X188190D01*
X181690Y187500D01*
X218500Y194500D02*Y206000D01*
X222500Y210000D01*
X229500Y192500D02*X220500D01*
X222500Y210000D02*Y224500D01*
G54D12*X245500Y218000D02*Y209405D01*
G54D13*X229500Y197500D02*X245405D01*
X214500Y220414D02*X173500D01*
X184543Y207543D02*X182500Y205500D01*
Y201500D01*
X180000Y199000D01*
X214500Y199500D02*Y220414D01*
X195957Y197500D02*X193000Y200457D01*
Y207543D02*X184543D01*
G54D11*X152000Y177500D02*X246000D01*
G54D13*X245405Y197500D02*X245500Y197595D01*
G54D12*X252095D01*
G54D11*X255000Y200500D02*Y250000D01*
G54D12*X252095Y197595D02*X255000Y200500D01*
G54D11*X246000Y177500D02*X254826Y186326D01*
G54D13*X219500Y227500D02*X222500Y224500D01*
G54D12*X255000Y226500D02*X228500D01*
G54D13*X187000Y227500D02*X214500D01*
G54D12*X180000Y236000D02*X203595D01*
X208595Y241000D01*
X196000Y247905D02*Y249000D01*
G54D11*X162500Y236000D02*X167000Y240500D01*
G54D13*X214543Y227457D02*X219500D01*
G54D12*X228500Y226500D02*X220500Y234500D01*
Y240905D01*
X220405Y241000D01*
G54D13*X208500Y240905D02*Y254000D01*
G54D12*X196000Y249000D02*X189500Y255500D01*
G54D11*X162500Y236000D02*X151500D01*
X141000Y225500D01*
X141000Y188500D02*X141000Y225500D01*
G54D13*X173500Y227500D02*Y268000D01*
G54D11*X167000Y240500D02*Y264000D01*
G54D13*X240020Y236980D02*Y254480D01*
X214500Y278500D02*Y227457D01*
G54D11*X87500Y265000D02*X98000Y254500D01*
X155500D01*
X110500Y186500D02*Y254500D01*
X255000Y250000D02*X262000Y257000D01*
X317480Y250020D02*Y264650D01*
X293000Y265000D02*Y251500D01*
X317500Y250000D02*X317480Y250020D01*
X268000Y239000D02*X265000Y236000D01*
Y230500D01*
X317480Y249150D02*Y239480D01*
X317250Y239250D01*
X295000Y230500D02*Y187500D01*
X319674Y236826D02*X317500Y239000D01*
X268000D01*
X319674Y230674D02*Y236826D01*
X254826Y186326D02*X336326D01*
X319500Y230500D02*X319674Y230674D01*
X349500Y230500D02*X349674Y230326D01*
X336326Y186326D02*X349674Y199674D01*
X349500Y230570D02*X349674Y230744D01*
Y230326D02*Y199674D01*
Y230744D02*Y238174D01*
X363500Y252000D01*
G54D14*X153000Y349500D03*
Y364500D03*
G54D15*G36*
X166249Y353240D02*X161131D01*
Y345760D01*
X166249D01*
Y353240D01*
G37*
G36*
Y368240D02*X161131D01*
Y360760D01*
X166249D01*
Y368240D01*
G37*
G36*
X178059Y353240D02*X172941D01*
Y345760D01*
X178059D01*
Y353240D01*
G37*
G36*
Y368240D02*X172941D01*
Y360760D01*
X178059D01*
Y368240D01*
G37*
G36*
X194000Y376000D02*X202000D01*
Y368000D01*
X194000D01*
Y376000D01*
G37*
G36*
X184548Y362516D02*Y357398D01*
X190452D01*
Y362516D01*
X184548D01*
G37*
G36*
Y369602D02*Y364484D01*
X190452D01*
Y369602D01*
X184548D01*
G37*
G36*
Y356602D02*Y351484D01*
X190452D01*
Y356602D01*
X184548D01*
G37*
G54D16*X198000Y362000D03*
Y352000D03*
G54D15*G36*
X184548Y349516D02*Y344398D01*
X190452D01*
Y349516D01*
X184548D01*
G37*
G54D16*X228000Y372000D03*
Y362000D03*
G54D15*G36*
X247654Y375740D02*X242536D01*
Y368260D01*
X247654D01*
Y375740D01*
G37*
G36*
Y360740D02*X242536D01*
Y353260D01*
X247654D01*
Y360740D01*
G37*
G54D17*X267000Y372000D03*
Y357000D03*
G54D15*G36*
X259464Y375740D02*X254346D01*
Y368260D01*
X259464D01*
Y375740D01*
G37*
G36*
Y360740D02*X254346D01*
Y353260D01*
X259464D01*
Y360740D01*
G37*
G54D16*X228000Y352000D03*
X198000Y342000D03*
X228000D03*
G54D15*G36*
X240059Y345740D02*X234941D01*
Y338260D01*
X240059D01*
Y345740D01*
G37*
G36*
X251869D02*X246751D01*
Y338260D01*
X251869D01*
Y345740D01*
G37*
G36*
X279000Y376500D02*Y384500D01*
X287000D01*
Y376500D01*
X279000D01*
G37*
G36*
X280000Y345000D02*Y353000D01*
X288000D01*
Y345000D01*
X280000D01*
G37*
G54D16*X284000Y359000D03*
G54D18*X93505Y373000D03*
X133505D03*
G54D14*X107205Y348000D03*
G54D15*G36*
X116305Y351500D02*Y344500D01*
X123305D01*
Y351500D01*
X116305D01*
G37*
G54D14*X113505Y358000D03*
G54D18*X315500Y371500D03*
X355500D03*
G54D15*G36*
X331563Y355437D02*Y347563D01*
X339437D01*
Y355437D01*
X331563D01*
G37*
G54D19*X325500Y351500D03*
G54D14*X196500Y324500D03*
G54D15*G36*
X186516Y281452D02*X181398D01*
Y275548D01*
X186516D01*
Y281452D01*
G37*
G36*
X193602D02*X188484D01*
Y275548D01*
X193602D01*
Y281452D01*
G37*
G36*
X190000Y295000D02*Y303000D01*
X198000D01*
Y295000D01*
X190000D01*
G37*
G54D16*X194000Y309000D03*
G54D14*X189500Y255500D03*
G54D15*G36*
X186516Y267452D02*X181398D01*
Y261548D01*
X186516D01*
Y267452D01*
G37*
G36*
X193602D02*X188484D01*
Y261548D01*
X193602D01*
Y267452D01*
G37*
G54D20*X228500Y281500D03*
X217500D03*
G54D15*G36*
X202500Y270000D02*X211000D01*
Y268000D01*
X202500D01*
Y270000D01*
G37*
G36*
Y265000D02*X211000D01*
Y263000D01*
X202500D01*
Y265000D01*
G37*
G36*
Y260000D02*X211000D01*
Y258000D01*
X202500D01*
Y260000D01*
G37*
G36*
Y255000D02*X211000D01*
Y253000D01*
X202500D01*
Y255000D01*
G37*
G36*
X192260Y250464D02*Y245346D01*
X199740D01*
Y250464D01*
X192260D01*
G37*
G36*
X231500Y268000D02*X223000D01*
Y270000D01*
X231500D01*
Y268000D01*
G37*
G54D19*X227343Y293000D03*
G54D15*G36*
X203720Y296937D02*Y289063D01*
X211594D01*
Y296937D01*
X203720D01*
G37*
G36*
X209260Y318654D02*Y313536D01*
X216740D01*
Y318654D01*
X209260D01*
G37*
G36*
Y330464D02*Y325346D01*
X216740D01*
Y330464D01*
X209260D01*
G37*
G36*
X240154Y325740D02*X235036D01*
Y318260D01*
X240154D01*
Y325740D01*
G37*
G36*
X231500Y263000D02*X223000D01*
Y265000D01*
X231500D01*
Y263000D01*
G37*
G36*
X224260Y318654D02*Y313536D01*
X231740D01*
Y318654D01*
X224260D01*
G37*
G36*
Y330464D02*Y325346D01*
X231740D01*
Y330464D01*
X224260D01*
G37*
G36*
X231500Y258000D02*X223000D01*
Y260000D01*
X231500D01*
Y258000D01*
G37*
G36*
Y253000D02*X223000D01*
Y255000D01*
X231500D01*
Y253000D01*
G37*
G54D21*X262000Y307000D03*
G54D14*X238310Y275905D03*
G54D21*X262000Y289000D03*
G54D15*G36*
X245260Y278464D02*Y273346D01*
X252740D01*
Y278464D01*
X245260D01*
G37*
G54D21*X293000Y251500D03*
G54D15*G36*
X285815Y269036D02*Y260964D01*
X300185D01*
Y269036D01*
X285815D01*
G37*
G36*
X245260Y266654D02*Y261536D01*
X252740D01*
Y266654D01*
X245260D01*
G37*
G36*
X280000Y293000D02*X288000D01*
Y285000D01*
X280000D01*
Y293000D01*
G37*
G54D16*X294000Y289000D03*
G54D14*X178000Y324500D03*
G54D15*G36*
X160000Y275000D02*Y283000D01*
X168000D01*
Y275000D01*
X160000D01*
G37*
G54D16*X164000Y289000D03*
G54D15*G36*
X171984Y298834D02*X180056D01*
Y313204D01*
X171984D01*
Y298834D01*
G37*
G36*
X307559Y326240D02*X302441D01*
Y318760D01*
X307559D01*
Y326240D01*
G37*
G36*
X310295Y309186D02*Y301114D01*
X324665D01*
Y309186D01*
X310295D01*
G37*
G36*
X319369Y326240D02*X314251D01*
Y318760D01*
X319369D01*
Y326240D01*
G37*
G36*
X343315Y327036D02*Y318964D01*
X357685D01*
Y327036D01*
X343315D01*
G37*
G36*
X251964Y325740D02*X246846D01*
Y318260D01*
X251964D01*
Y325740D01*
G37*
G36*
X309535Y283095D02*X316425D01*
Y276205D01*
X309535D01*
Y283095D01*
G37*
G54D22*X322823Y279650D03*
G54D15*G36*
X337713Y300445D02*X344602D01*
Y293555D01*
X337713D01*
Y300445D01*
G37*
G54D22*X351000Y297000D03*
G54D15*G36*
X310295Y253186D02*Y245114D01*
X324665D01*
Y253186D01*
X310295D01*
G37*
G36*
X337735Y268095D02*X344625D01*
Y261205D01*
X337735D01*
Y268095D01*
G37*
G54D22*X351023Y264650D03*
G54D15*G36*
X197548Y222973D02*Y217855D01*
X203452D01*
Y222973D01*
X197548D01*
G37*
G36*
Y230059D02*Y224941D01*
X203452D01*
Y230059D01*
X197548D01*
G37*
G36*
X211548Y222973D02*Y217855D01*
X217452D01*
Y222973D01*
X211548D01*
G37*
G36*
Y230059D02*Y224941D01*
X217452D01*
Y230059D01*
X211548D01*
G37*
G54D14*X245500Y218000D03*
G54D15*G36*
X241760Y200154D02*Y195036D01*
X249240D01*
Y200154D01*
X241760D01*
G37*
G36*
Y211964D02*Y206846D01*
X249240D01*
Y211964D01*
X241760D01*
G37*
G36*
X184048Y222973D02*Y217855D01*
X189952D01*
Y222973D01*
X184048D01*
G37*
G36*
X190048Y203016D02*Y197898D01*
X195952D01*
Y203016D01*
X190048D01*
G37*
G36*
Y210102D02*Y204984D01*
X195952D01*
Y210102D01*
X190048D01*
G37*
G36*
X184048Y230059D02*Y224941D01*
X189952D01*
Y230059D01*
X184048D01*
G37*
G36*
X170548Y222973D02*Y217855D01*
X176452D01*
Y222973D01*
X170548D01*
G37*
G54D16*X174000Y209000D03*
G54D15*G36*
X170548Y230059D02*Y224941D01*
X176452D01*
Y230059D01*
X170548D01*
G37*
G54D14*X174000Y187500D03*
G54D15*G36*
X202500Y198500D02*X211000D01*
Y196500D01*
X202500D01*
Y198500D01*
G37*
G36*
Y193500D02*X211000D01*
Y191500D01*
X202500D01*
Y193500D01*
G37*
G36*
Y188500D02*X211000D01*
Y186500D01*
X202500D01*
Y188500D01*
G37*
G36*
X170000Y195000D02*Y203000D01*
X178000D01*
Y195000D01*
X170000D01*
G37*
G36*
X202500Y203500D02*X211000D01*
Y201500D01*
X202500D01*
Y203500D01*
G37*
G36*
X231500Y201500D02*X223000D01*
Y203500D01*
X231500D01*
Y201500D01*
G37*
G36*
Y196500D02*X223000D01*
Y198500D01*
X231500D01*
Y196500D01*
G37*
G36*
Y191500D02*X223000D01*
Y193500D01*
X231500D01*
Y191500D01*
G37*
G36*
Y186500D02*X223000D01*
Y188500D01*
X231500D01*
Y186500D01*
G37*
G36*
X184249Y191240D02*X179131D01*
Y183760D01*
X184249D01*
Y191240D01*
G37*
G36*
X196059D02*X190941D01*
Y183760D01*
X196059D01*
Y191240D01*
G37*
G36*
X150579Y190524D02*X160421D01*
Y200366D01*
X150579D01*
Y190524D01*
G37*
G36*
X96300Y278200D02*Y267800D01*
X106700D01*
Y278200D01*
X96300D01*
G37*
G36*
X94464Y320815D02*X102536D01*
Y335185D01*
X94464D01*
Y320815D01*
G37*
G36*
X115484Y323834D02*X123556D01*
Y338204D01*
X115484D01*
Y323834D01*
G37*
G36*
X96300Y306200D02*Y295800D01*
X106700D01*
Y306200D01*
X96300D01*
G37*
G54D21*X110500Y186500D03*
G54D23*X121185Y273000D03*
G54D15*G36*
X134646Y272803D02*X140354D01*
Y278512D01*
X134646D01*
Y272803D01*
G37*
G54D23*X121185Y301000D03*
G54D15*G36*
X123803Y317854D02*Y312146D01*
X129512D01*
Y317854D01*
X123803D01*
G37*
G54D24*X146343Y315000D03*
X137500Y295343D03*
G54D14*X162500Y236000D03*
X180000D03*
G54D25*X155500Y254500D03*
G54D15*G36*
X211154Y244740D02*X206036D01*
Y237260D01*
X211154D01*
Y244740D01*
G37*
G36*
X222964D02*X217846D01*
Y237260D01*
X222964D01*
Y244740D01*
G37*
G36*
X232834Y241016D02*Y232945D01*
X247204D01*
Y241016D01*
X232834D01*
G37*
G36*
X192260Y238654D02*Y233536D01*
X199740D01*
Y238654D01*
X192260D01*
G37*
G54D26*X305000Y230500D03*
X359500D03*
X349500D03*
X339500D03*
X329500D03*
G54D15*G36*
X322500Y227500D02*X316500D01*
Y233500D01*
X322500D01*
Y227500D01*
G37*
G54D26*X295000Y230500D03*
X285000D03*
X275000D03*
G54D15*G36*
X268000Y227500D02*X262000D01*
Y233500D01*
X268000D01*
Y227500D01*
G37*
G54D12*G54D27*G54D28*G54D12*G54D28*G54D12*G54D27*G54D12*G54D13*G54D29*G54D26*G54D12*G54D26*G54D27*G54D12*G54D27*G54D30*G54D12*G54D27*G54D12*G54D27*G54D31*G54D32*G54D26*G54D32*G54D33*G54D32*G54D33*G54D12*G54D31*G54D34*M02*
