G04 start of page 2 for group 9 layer_idx 9 *
G04 Title: (unknown), bottom_mask *
G04 Creator: pcb-rnd 2.2.4 *
G04 CreationDate: 2020-10-19 18:12:02 UTC *
G04 For:  *
G04 Format: Gerber/RS-274X *
G04 PCB-Dimensions: 500000 500000 *
G04 PCB-Coordinate-Origin: lower left *
%MOIN*%
%FSLAX25Y25*%
%LNBOTTOM_MASK_NONE_9*%
%ADD84C,0.0660*%
%ADD83C,0.1083*%
%ADD82C,0.0846*%
%ADD81C,0.0630*%
%ADD80C,0.0886*%
%ADD79C,0.1678*%
%ADD78C,0.0860*%
%ADD77C,0.0759*%
%ADD76C,0.1639*%
%ADD75C,0.0001*%
G54D75*G36*
X109460Y370954D02*Y365236D01*
X117540D01*
Y370954D01*
X109460D01*
G37*
G36*
Y382764D02*Y377046D01*
X117540D01*
Y382764D01*
X109460D01*
G37*
G54D76*X93490Y373000D03*
X133490D03*
G54D75*G36*
X115995Y351795D02*Y344205D01*
X123585D01*
Y351795D01*
X115995D01*
G37*
G54D77*X113490Y358000D03*
X107190Y348000D03*
G54D75*G36*
X193700Y376300D02*X202300D01*
Y367700D01*
X193700D01*
Y376300D01*
G37*
G54D78*X198000Y362000D03*
Y352000D03*
X228000Y372000D03*
Y362000D03*
Y352000D03*
X198000Y342000D03*
X228000D03*
G54D75*G36*
X278700Y376200D02*Y384800D01*
X287300D01*
Y376200D01*
X278700D01*
G37*
G54D79*X315500Y371500D03*
X355500D03*
G54D75*G36*
X331071Y355929D02*Y347071D01*
X339929D01*
Y355929D01*
X331071D01*
G37*
G54D80*X325500Y351500D03*
G54D81*X128000Y303500D03*
G54D75*G36*
X203420Y297237D02*Y288763D01*
X211894D01*
Y297237D01*
X203420D01*
G37*
G54D82*X227343Y293000D03*
G54D75*G36*
X308680Y283950D02*X317280D01*
Y275350D01*
X308680D01*
Y283950D01*
G37*
G54D78*X322823Y279650D03*
G54D75*G36*
X336880Y268950D02*X345480D01*
Y260350D01*
X336880D01*
Y268950D01*
G37*
G54D78*X351023Y264650D03*
G54D75*G36*
X336857Y301300D02*X345457D01*
Y292700D01*
X336857D01*
Y301300D01*
G37*
G54D78*X351000Y297000D03*
G54D75*G36*
X101846Y266161D02*X108154D01*
Y272469D01*
X101846D01*
Y266161D01*
G37*
G54D81*X105000Y289000D03*
G54D75*G36*
X124846Y280661D02*X131154D01*
Y286969D01*
X124846D01*
Y280661D01*
G37*
G36*
X128724Y229323D02*Y243299D01*
X144276D01*
Y229323D01*
X128724D01*
G37*
G54D83*X155500Y254500D03*
G54D84*X305000Y228500D03*
X295000D03*
X285000D03*
X275000D03*
G54D75*G36*
X268300Y225200D02*X261700D01*
Y231800D01*
X268300D01*
Y225200D01*
G37*
G54D84*X359674Y228430D03*
X349674D03*
X339674D03*
X329674D03*
G54D75*G36*
X322974Y225130D02*X316374D01*
Y231730D01*
X322974D01*
Y225130D01*
G37*
G36*
X150087Y190031D02*X160913D01*
Y200858D01*
X150087D01*
Y190031D01*
G37*
G36*
X128724Y205701D02*Y219677D01*
X144276D01*
Y205701D01*
X128724D01*
G37*
M02*
