G04 start of page 2 for group 10 layer_idx 5 *
G04 Title: (unknown), bottom_silk *
G04 Creator: pcb-rnd 2.2.0 *
G04 CreationDate: 2020-04-17 22:41:23 UTC *
G04 For:  *
G04 Format: Gerber/RS-274X *
G04 PCB-Dimensions: 500000 500000 *
G04 PCB-Coordinate-Origin: lower left *
%MOIN*%
%FSLAX25Y25*%
%LNBOTTOM_SILK_NONE_10*%
%ADD64C,0.0070*%
%ADD63C,0.0197*%
%ADD62C,0.0080*%
G54D62*X217740Y342138D02*Y346862D01*
X210260Y342138D02*Y346862D01*
G54D63*X143783Y221547D02*Y227453D01*
X129217Y221547D02*Y227453D01*
G54D62*X126138Y350760D02*X130862D01*
X126138Y358240D02*X130862D01*
G54D64*X271000Y391200D02*X269500D01*
X271000Y389000D02*X269000D01*
X271000Y393000D02*Y389000D01*
Y393000D02*X269000D01*
X266300Y391000D02*X265800Y390500D01*
X267300Y391000D02*X266300D01*
X267800Y390500D02*X267300Y391000D01*
X267800Y390500D02*Y389500D01*
X267300Y389000D01*
X265800Y391000D02*Y389500D01*
X265300Y389000D01*
X267300D02*X266300D01*
X265800Y389500D01*
X263600Y393000D02*Y389500D01*
X263100Y389000D01*
X264100Y391500D02*X263100D01*
X262100Y390500D02*Y389500D01*
Y390500D02*X261600Y391000D01*
X260600D01*
X260100Y390500D01*
Y389500D01*
X260600Y389000D02*X260100Y389500D01*
X261600Y389000D02*X260600D01*
X262100Y389500D02*X261600Y389000D01*
X258400Y390500D02*Y389000D01*
Y390500D02*X257900Y391000D01*
X257400D01*
X256900Y390500D01*
Y389000D01*
X258900Y391000D02*X258400Y390500D01*
X253400Y393000D02*Y389000D01*
X253900Y393000D02*X251900D01*
X251400Y392500D01*
Y391500D01*
X251900Y391000D02*X251400Y391500D01*
X253400Y391000D02*X251900D01*
X249700Y389000D02*X248200D01*
X250200Y389500D02*X249700Y389000D01*
X250200Y390500D02*Y389500D01*
Y390500D02*X249700Y391000D01*
X248700D01*
X248200Y390500D01*
X250200Y390000D02*X248200D01*
Y390500D01*
X245500Y391000D02*X245000Y390500D01*
X246500Y391000D02*X245500D01*
X247000Y390500D02*X246500Y391000D01*
X247000Y390500D02*Y389500D01*
X246500Y389000D01*
X245000Y391000D02*Y389500D01*
X244500Y389000D01*
X246500D02*X245500D01*
X245000Y389500D01*
X243300Y393000D02*Y389000D01*
Y389500D02*X242800Y389000D01*
X241800D01*
X241300Y389500D01*
Y390500D02*Y389500D01*
X241800Y391000D02*X241300Y390500D01*
X242800Y391000D02*X241800D01*
X243300Y390500D02*X242800Y391000D01*
X240100Y390500D02*Y389500D01*
Y390500D02*X239600Y391000D01*
X238600D01*
X238100Y390500D01*
Y389500D01*
X238600Y389000D02*X238100Y389500D01*
X239600Y389000D02*X238600D01*
X240100Y389500D02*X239600Y389000D01*
X234900Y393000D02*Y389000D01*
X235400D02*X234900Y389500D01*
X236400Y389000D02*X235400D01*
X236900Y389500D02*X236400Y389000D01*
X236900Y390500D02*Y389500D01*
Y390500D02*X236400Y391000D01*
X235400D01*
X234900Y390500D01*
X233700Y391000D02*Y389500D01*
X233200Y389000D01*
X231700Y391000D02*Y388000D01*
X232200Y387500D02*X231700Y388000D01*
X233200Y387500D02*X232200D01*
X233700Y388000D02*X233200Y387500D01*
Y389000D02*X232200D01*
X231700Y389500D01*
X228700Y393000D02*Y389000D01*
X226700D01*
X224000Y391000D02*X223500Y390500D01*
X225000Y391000D02*X224000D01*
X225500Y390500D02*X225000Y391000D01*
X225500Y390500D02*Y389500D01*
X225000Y389000D01*
X223500Y391000D02*Y389500D01*
X223000Y389000D01*
X225000D02*X224000D01*
X223500Y389500D01*
X221800Y393000D02*Y389000D01*
Y389500D02*X221300Y389000D01*
X220300D01*
X219800Y389500D01*
Y390500D02*Y389500D01*
X220300Y391000D02*X219800Y390500D01*
X221300Y391000D02*X220300D01*
X221800Y390500D02*X221300Y391000D01*
X271000Y376000D02*X269000D01*
X268500Y376500D01*
Y377700D02*Y376500D01*
X269000Y378200D02*X268500Y377700D01*
X270500Y378200D02*X269000D01*
X270500Y380000D02*Y376000D01*
X271000Y380000D02*X269000D01*
X268500Y379500D01*
Y378700D01*
X269000Y378200D02*X268500Y378700D01*
X267300Y378000D02*Y376500D01*
X266800Y376000D01*
X265300Y378000D02*Y375000D01*
X265800Y374500D02*X265300Y375000D01*
X266800Y374500D02*X265800D01*
X267300Y375000D02*X266800Y374500D01*
Y376000D02*X265800D01*
X265300Y376500D01*
X262300Y378200D02*X260800D01*
X262300Y376000D02*X260300D01*
X262300Y380000D02*Y376000D01*
Y380000D02*X260300D01*
X259100Y378000D02*X258100Y376000D01*
X257100Y378000D02*X258100Y376000D01*
X254400Y378000D02*X253900Y377500D01*
X255400Y378000D02*X254400D01*
X255900Y377500D02*X255400Y378000D01*
X255900Y377500D02*Y376500D01*
X255400Y376000D01*
X253900Y378000D02*Y376500D01*
X253400Y376000D01*
X255400D02*X254400D01*
X253900Y376500D01*
X251700Y377500D02*Y376000D01*
Y377500D02*X251200Y378000D01*
X250700D01*
X250200Y377500D01*
Y376000D01*
X252200Y378000D02*X251700Y377500D01*
X247200Y380000D02*Y376000D01*
Y380000D02*X245200D01*
X247200Y378200D02*X245700D01*
X244000Y377500D02*Y376500D01*
Y377500D02*X243500Y378000D01*
X242500D01*
X242000Y377500D01*
Y376500D01*
X242500Y376000D02*X242000Y376500D01*
X243500Y376000D02*X242500D01*
X244000Y376500D02*X243500Y376000D01*
X240300D02*X238800D01*
X238300Y376500D01*
X238800Y377000D02*X238300Y376500D01*
X240300Y377000D02*X238800D01*
X240800Y377500D02*X240300Y377000D01*
X240800Y377500D02*X240300Y378000D01*
X238800D01*
X238300Y377500D01*
X240800Y376500D02*X240300Y376000D01*
X236600D02*X235100D01*
X234600Y376500D01*
X235100Y377000D02*X234600Y376500D01*
X236600Y377000D02*X235100D01*
X237100Y377500D02*X236600Y377000D01*
X237100Y377500D02*X236600Y378000D01*
X235100D01*
X234600Y377500D01*
X237100Y376500D02*X236600Y376000D01*
X271000Y386500D02*Y382500D01*
Y386500D02*X269500Y384500D01*
X268000Y386500D01*
Y382500D01*
X266800Y384000D02*Y383000D01*
Y384000D02*X266300Y384500D01*
X265300D01*
X264800Y384000D01*
Y383000D01*
X265300Y382500D02*X264800Y383000D01*
X266300Y382500D02*X265300D01*
X266800Y383000D02*X266300Y382500D01*
X261600Y386500D02*Y382500D01*
X262100D02*X261600Y383000D01*
X263100Y382500D02*X262100D01*
X263600Y383000D02*X263100Y382500D01*
X263600Y384000D02*Y383000D01*
Y384000D02*X263100Y384500D01*
X262100D01*
X261600Y384000D01*
X259900Y382500D02*X258400D01*
X260400Y383000D02*X259900Y382500D01*
X260400Y384000D02*Y383000D01*
Y384000D02*X259900Y384500D01*
X258900D01*
X258400Y384000D01*
X260400Y383500D02*X258400D01*
Y384000D01*
X257200Y386500D02*Y383000D01*
X256700Y382500D01*
X255700Y385000D02*X255200D01*
X255700Y384000D02*X255200D01*
X252200Y382500D02*X250200D01*
X249700Y383000D01*
Y384200D02*Y383000D01*
X250200Y384700D02*X249700Y384200D01*
X251700Y384700D02*X250200D01*
X251700Y386500D02*Y382500D01*
X252200Y386500D02*X250200D01*
X249700Y386000D01*
Y385200D01*
X250200Y384700D02*X249700Y385200D01*
X248500Y385500D02*Y385400D01*
Y384000D02*Y382500D01*
X247500Y384000D02*Y383000D01*
Y384000D02*X247000Y384500D01*
X246000D01*
X245500Y384000D01*
Y383000D01*
X246000Y382500D02*X245500Y383000D01*
X247000Y382500D02*X246000D01*
X247500Y383000D02*X247000Y382500D01*
X244300Y385500D02*Y382500D01*
Y385500D02*X243600Y386500D01*
X242500D01*
X241800Y385500D01*
Y382500D01*
X244300Y384500D02*X241800D01*
X240100Y384000D02*Y382500D01*
Y384000D02*X239600Y384500D01*
X239100D01*
X238600Y384000D01*
Y382500D01*
Y384000D02*X238100Y384500D01*
X237600D01*
X237100Y384000D01*
Y382500D01*
X240600Y384500D02*X240100Y384000D01*
X235400D02*Y381000D01*
X235900Y384500D02*X235400Y384000D01*
X234900Y384500D01*
X233900D01*
X233400Y384000D01*
Y383000D01*
X233900Y382500D02*X233400Y383000D01*
X234900Y382500D02*X233900D01*
X235400Y383000D02*X234900Y382500D01*
X230400Y386500D02*Y385500D01*
X229400Y386500D02*Y385500D01*
X227700Y384500D02*X226200D01*
X228200Y384000D02*X227700Y384500D01*
X228200Y384000D02*Y383000D01*
X227700Y382500D01*
X226200D01*
X225000Y386500D02*Y382500D01*
Y384000D02*X224500Y384500D01*
X223500D01*
X223000Y384000D01*
Y382500D01*
X221300D02*X219800D01*
X221800Y383000D02*X221300Y382500D01*
X221800Y384000D02*Y383000D01*
Y384000D02*X221300Y384500D01*
X220300D01*
X219800Y384000D01*
X221800Y383500D02*X219800D01*
Y384000D01*
X217100Y384500D02*X216600Y384000D01*
X218100Y384500D02*X217100D01*
X218600Y384000D02*X218100Y384500D01*
X218600Y384000D02*Y383000D01*
X218100Y382500D01*
X216600Y384500D02*Y383000D01*
X216100Y382500D01*
X218100D02*X217100D01*
X216600Y383000D01*
X214400Y384000D02*Y381000D01*
X214900Y384500D02*X214400Y384000D01*
X213900Y384500D01*
X212900D01*
X212400Y384000D01*
Y383000D01*
X212900Y382500D02*X212400Y383000D01*
X213900Y382500D02*X212900D01*
X214400Y383000D02*X213900Y382500D01*
X211200Y386500D02*Y385500D01*
X210200Y386500D02*Y385500D01*
X271000Y373000D02*X270500Y373500D01*
X269000D01*
X268500Y373000D01*
Y372000D01*
X271000Y369500D02*X268500Y372000D01*
X271000Y369500D02*X268500D01*
X267300Y370000D02*X266800Y369500D01*
X267300Y373000D02*Y370000D01*
Y373000D02*X266800Y373500D01*
X265800D01*
X265300Y373000D01*
Y370000D01*
X265800Y369500D02*X265300Y370000D01*
X266800Y369500D02*X265800D01*
X267300Y370500D02*X265300Y372500D01*
X264100Y373000D02*X263600Y373500D01*
X262100D01*
X261600Y373000D01*
Y372000D01*
X264100Y369500D02*X261600Y372000D01*
X264100Y369500D02*X261600D01*
X260400Y370000D02*X259900Y369500D01*
X260400Y373000D02*Y370000D01*
Y373000D02*X259900Y373500D01*
X258900D01*
X258400Y373000D01*
Y370000D01*
X258900Y369500D02*X258400Y370000D01*
X259900Y369500D02*X258900D01*
X260400Y370500D02*X258400Y372500D01*
X257200Y369500D02*X256700D01*
X255500Y370000D02*X255000Y369500D01*
X255500Y373000D02*Y370000D01*
Y373000D02*X255000Y373500D01*
X254000D01*
X253500Y373000D01*
Y370000D01*
X254000Y369500D02*X253500Y370000D01*
X255000Y369500D02*X254000D01*
X255500Y370500D02*X253500Y372500D01*
X252300Y371000D02*X250300Y373500D01*
X252300Y371000D02*X249800D01*
X250300Y373500D02*Y369500D01*
X248600D02*X248100D01*
X246900Y372700D02*X246100Y373500D01*
Y369500D01*
X246900D02*X245400D01*
X243700D02*X241700Y373500D01*
X244200D02*X241700D01*
X219650Y340550D02*Y341850D01*
X220350Y339850D02*X219650Y340550D01*
X222950Y339850D02*X220350D01*
X222950D02*X223650Y340550D01*
Y341850D01*
X221150Y343050D02*X223650Y345050D01*
X221150Y343050D02*Y345550D01*
X223650Y345050D02*X219650D01*
X223650Y348250D02*X223150Y348750D01*
X223650Y347250D02*Y348250D01*
X223150Y346750D02*X223650Y347250D01*
X223150Y346750D02*X220150D01*
X219650Y347250D01*
X221850Y348250D02*X221350Y348750D01*
X221850Y346750D02*Y348250D01*
X219650Y347250D02*Y348250D01*
X220150Y348750D01*
X221350D02*X220150D01*
X151248Y221350D02*Y223350D01*
X150748Y223850D01*
X149748D01*
X149248Y223350D02*X149748Y223850D01*
X149248Y221850D02*Y223350D01*
X151248Y221850D02*X147248D01*
X149248Y222650D02*X147248Y223850D01*
X148748Y225050D02*X151248Y227050D01*
X148748Y225050D02*Y227550D01*
X151248Y227050D02*X147248D01*
X148748Y228750D02*X151248Y230750D01*
X148748Y228750D02*Y231250D01*
X151248Y230750D02*X147248D01*
X125050Y349350D02*X126350D01*
X124350Y348650D02*X125050Y349350D01*
X124350Y346050D02*Y348650D01*
Y346050D02*X125050Y345350D01*
X126350D01*
X127550D02*X129550D01*
X127550D02*Y347350D01*
X128050Y346850D01*
X129050D01*
X129550Y347350D01*
Y348850D01*
X129050Y349350D02*X129550Y348850D01*
X128050Y349350D02*X129050D01*
X127550Y348850D02*X128050Y349350D01*
X130750Y348850D02*X131250Y349350D01*
X130750Y345850D02*Y348850D01*
Y345850D02*X131250Y345350D01*
X132250D01*
X132750Y345850D01*
Y348850D01*
X132250Y349350D02*X132750Y348850D01*
X131250Y349350D02*X132250D01*
X130750Y348350D02*X132750Y346350D01*
M02*
