G04 start of page 2 for group 3 layer_idx 0 *
G04 Title: (unknown), top_copper *
G04 Creator: pcb-rnd 2.2.1 *
G04 CreationDate: 2020-06-03 18:25:36 UTC *
G04 For:  *
G04 Format: Gerber/RS-274X *
G04 PCB-Dimensions: 500000 500000 *
G04 PCB-Coordinate-Origin: lower left *
%MOIN*%
%FSLAX25Y25*%
%LNTOP_COPPER_NONE_3*%
%ADD34C,0.0276*%
%ADD33C,0.0374*%
%ADD32C,0.0420*%
%ADD31C,0.0295*%
%ADD30C,0.0790*%
%ADD29C,0.0430*%
%ADD28C,0.0394*%
%ADD27C,0.0256*%
%ADD26C,0.0689*%
%ADD25C,0.0984*%
%ADD24C,0.0600*%
%ADD23C,0.1000*%
%ADD22C,0.0787*%
%ADD21C,0.1580*%
%ADD20C,0.0830*%
%ADD19C,0.0866*%
%ADD18C,0.0800*%
%ADD17C,0.0700*%
%ADD16C,0.0571*%
%ADD15C,0.0001*%
%ADD14C,0.0400*%
%ADD13C,0.0200*%
%ADD12C,0.0350*%
%ADD11C,0.0650*%
G54D11*X101000Y358000D02*X87500Y344500D01*
X101000Y358000D02*X113390D01*
G54D12*X107190Y348000D02*Y339810D01*
X119690Y335810D02*X119750Y335750D01*
X107190Y339810D02*X111000Y336000D01*
X119500D01*
X119750Y335750D01*
X119693Y335807D02*X128000Y327500D01*
Y317500D01*
X105000Y324000D02*Y289000D01*
X128000Y303500D02*Y318000D01*
G54D11*X350500Y323000D02*Y334400D01*
X335400Y349500D01*
G54D13*X256500Y303043D02*X256457Y303000D01*
X281500Y333905D02*X281405Y334000D01*
X321980Y208980D02*Y204980D01*
X316980Y208980D02*Y193980D01*
G54D12*X126267Y196967D02*Y211967D01*
X151967D01*
G54D13*X321980Y204980D02*X325480Y201480D01*
X331980D01*
G54D12*X332480Y209076D02*Y201480D01*
X151967Y211967D02*X152000Y212000D01*
X103767Y196967D02*X114457D01*
X154767Y193967D02*X173172Y212372D01*
X148077Y193967D02*X154767D01*
X103767Y211967D02*X114457D01*
X332480Y209076D02*X338980Y215576D01*
G54D13*X311885Y253480D02*X311980Y253386D01*
X311932Y253433D02*X311980Y253386D01*
X263543Y275586D02*X263500Y275543D01*
X291500Y293000D02*Y282000D01*
G54D12*X114267Y226777D02*X114457Y226967D01*
X152000Y232000D02*X136235D01*
X173172Y228872D02*X176267Y231967D01*
X182000Y232000D02*X207735D01*
X207767Y231967D01*
X176267D02*X180202D01*
X180235Y232000D01*
X103767Y226967D02*X114457D01*
X126267D02*X120500Y232735D01*
G54D13*X338885Y227480D02*X338980Y227386D01*
G54D12*X342885D01*
X207767Y231967D02*Y216967D01*
X219577Y231967D02*X230267D01*
X219577Y216967D02*X230267D01*
X103767Y241967D02*X114457D01*
X120500Y253815D02*X105000Y269315D01*
X126267Y241967D02*Y271267D01*
X128000Y273000D01*
Y283815D01*
X136235Y232000D02*X126267Y241967D01*
Y240967D01*
X120500Y232735D02*Y253815D01*
X152000Y222000D02*X131235D01*
X173172Y212372D02*Y228872D01*
X131235Y222000D02*X126267Y226967D01*
Y225467D01*
X152000Y242000D02*Y249105D01*
X160862Y257967D01*
X182000Y242000D02*Y248640D01*
X172672Y257967D01*
G54D13*X311980Y196024D02*X311480Y195524D01*
X297523Y195480D02*X297480Y195524D01*
G54D11*X261826Y155070D02*Y136670D01*
X271826Y147070D02*X274326Y144570D01*
X271826Y155070D02*Y147070D01*
X270897Y127600D02*X261826Y136670D01*
X274826Y144070D02*X274576Y144320D01*
X235826Y142740D02*Y154070D01*
X229806Y136720D02*X235806Y142720D01*
X202153Y160567D02*X202306Y160720D01*
X207733Y136720D02*Y146061D01*
X202153Y151641D01*
Y160567D01*
X202306Y107090D02*Y121720D01*
X197806Y127720D02*Y136720D01*
X202326Y107070D02*X202306Y107090D01*
X226006Y121720D02*Y111890D01*
Y121720D02*X203806D01*
X197806Y127720D01*
X207806Y136720D02*X229806D01*
X177826Y122070D02*Y108570D01*
G54D12*X321290Y189670D02*X331980D01*
G54D13*X316980Y193980D02*X321290Y189670D01*
G54D11*X320826Y144070D02*X274826D01*
X326500Y155000D02*Y149397D01*
Y149744D02*X320826Y144070D01*
X326500Y155000D02*Y149744D01*
X316500Y127600D02*X270897D01*
X316450Y127650D02*X316500Y127600D01*
X87500Y344500D02*Y265000D01*
G54D14*X105000Y324000D03*
G54D15*G36*
X120815Y322036D02*Y313964D01*
X135185D01*
Y322036D01*
X120815D01*
G37*
G36*
X97815Y311536D02*Y303464D01*
X112185D01*
Y311536D01*
X97815D01*
G37*
G36*
X125146Y280961D02*X130854D01*
Y286669D01*
X125146D01*
Y280961D01*
G37*
G54D16*X128000Y303500D03*
G54D17*X103767Y241967D03*
G54D15*G36*
X102146Y266461D02*X107854D01*
Y272169D01*
X102146D01*
Y266461D01*
G37*
G54D16*X105000Y289000D03*
G54D15*G36*
X181559Y310952D02*X176441D01*
Y305048D01*
X181559D01*
Y310952D01*
G37*
G36*
X180016Y327952D02*X174898D01*
Y322048D01*
X180016D01*
Y327952D01*
G37*
G36*
X187102D02*X181984D01*
Y322048D01*
X187102D01*
Y327952D01*
G37*
G36*
X166559Y320452D02*X161441D01*
Y314548D01*
X166559D01*
Y320452D01*
G37*
G36*
X173645D02*X168527D01*
Y314548D01*
X173645D01*
Y320452D01*
G37*
G36*
X166059Y305952D02*X160941D01*
Y300048D01*
X166059D01*
Y305952D01*
G37*
G36*
X173145D02*X168027D01*
Y300048D01*
X173145D01*
Y305952D01*
G37*
G36*
X163421Y261707D02*X158303D01*
Y254227D01*
X163421D01*
Y261707D01*
G37*
G54D17*X103767Y226967D03*
G54D15*G36*
X117016Y230707D02*X111898D01*
Y223227D01*
X117016D01*
Y230707D01*
G37*
G36*
Y245707D02*X111898D01*
Y238227D01*
X117016D01*
Y245707D01*
G37*
G36*
X148000Y246000D02*X156000D01*
Y238000D01*
X148000D01*
Y246000D01*
G37*
G54D18*X152000Y232000D03*
G54D15*G36*
X128826Y230707D02*X123708D01*
Y223227D01*
X128826D01*
Y230707D01*
G37*
G36*
Y245707D02*X123708D01*
Y238227D01*
X128826D01*
Y245707D01*
G37*
G36*
X175231Y261707D02*X170113D01*
Y254227D01*
X175231D01*
Y261707D01*
G37*
G54D18*X182000Y242000D03*
Y232000D03*
Y222000D03*
G54D15*G36*
X210326Y235707D02*X205208D01*
Y228227D01*
X210326D01*
Y235707D01*
G37*
G36*
X222136D02*X217018D01*
Y228227D01*
X222136D01*
Y235707D01*
G37*
G54D18*X152000Y222000D03*
G54D17*X261000Y334000D03*
G54D15*G36*
X253898Y300048D02*X259016D01*
Y305952D01*
X253898D01*
Y300048D01*
G37*
G36*
X272154Y337740D02*X267036D01*
Y330260D01*
X272154D01*
Y337740D01*
G37*
G36*
X283964D02*X278846D01*
Y330260D01*
X283964D01*
Y337740D01*
G37*
G36*
X261145Y316952D02*X256027D01*
Y311048D01*
X261145D01*
Y316952D01*
G37*
G36*
X260984Y286048D02*X266102D01*
Y291952D01*
X260984D01*
Y286048D01*
G37*
G36*
X253898D02*X259016D01*
Y291952D01*
X253898D01*
Y286048D01*
G37*
G36*
X260984Y300048D02*X266102D01*
Y305952D01*
X260984D01*
Y300048D01*
G37*
G36*
X260548Y271016D02*Y265898D01*
X266452D01*
Y271016D01*
X260548D01*
G37*
G36*
X189048Y271059D02*Y265941D01*
X194952D01*
Y271059D01*
X189048D01*
G37*
G36*
X213260Y267559D02*Y262441D01*
X220740D01*
Y267559D01*
X213260D01*
G37*
G36*
X260548Y278102D02*Y272984D01*
X266452D01*
Y278102D01*
X260548D01*
G37*
G36*
X189048Y278145D02*Y273027D01*
X194952D01*
Y278145D01*
X189048D01*
G37*
G36*
X213260Y279369D02*Y274251D01*
X220740D01*
Y279369D01*
X213260D01*
G37*
G36*
X202500Y290500D02*Y299000D01*
X204500D01*
Y290500D01*
X202500D01*
G37*
G36*
X207500D02*Y299000D01*
X209500D01*
Y290500D01*
X207500D01*
G37*
G36*
X212500D02*Y299000D01*
X214500D01*
Y290500D01*
X212500D01*
G37*
G36*
X275500Y291000D02*Y299500D01*
X277500D01*
Y291000D01*
X275500D01*
G37*
G36*
X280500D02*Y299500D01*
X282500D01*
Y291000D01*
X280500D01*
G37*
G36*
X217500Y290500D02*Y299000D01*
X219500D01*
Y290500D01*
X217500D01*
G37*
G36*
X230260Y291749D02*Y286631D01*
X237740D01*
Y291749D01*
X230260D01*
G37*
G36*
Y303559D02*Y298441D01*
X237740D01*
Y303559D01*
X230260D01*
G37*
G36*
X231760Y325369D02*Y320251D01*
X239240D01*
Y325369D01*
X231760D01*
G37*
G36*
X204500Y319500D02*Y311000D01*
X202500D01*
Y319500D01*
X204500D01*
G37*
G36*
X209500D02*Y311000D01*
X207500D01*
Y319500D01*
X209500D01*
G37*
G36*
X214500D02*Y311000D01*
X212500D01*
Y319500D01*
X214500D01*
G37*
G36*
X219500D02*Y311000D01*
X217500D01*
Y319500D01*
X219500D01*
G37*
G36*
X277500Y320000D02*Y311500D01*
X275500D01*
Y320000D01*
X277500D01*
G37*
G36*
X282500D02*Y311500D01*
X280500D01*
Y320000D01*
X282500D01*
G37*
G36*
X231760Y313559D02*Y308441D01*
X239240D01*
Y313559D01*
X231760D01*
G37*
G36*
X254059Y316952D02*X248941D01*
Y311048D01*
X254059D01*
Y316952D01*
G37*
G54D19*X230267Y231967D03*
G54D15*G36*
X188645Y310952D02*X183527D01*
Y305048D01*
X188645D01*
Y310952D01*
G37*
G54D20*X253000Y347500D03*
X193500D03*
G54D17*X107240Y348000D03*
G54D15*G36*
X116340Y351500D02*Y344500D01*
X123340D01*
Y351500D01*
X116340D01*
G37*
G54D20*X253000Y357500D03*
X193500D03*
G54D17*X113540Y358000D03*
G54D20*X253000Y367500D03*
X193500D03*
G54D21*X93540Y373000D03*
X133540D03*
G54D20*X253000Y387500D03*
X193500D03*
G54D17*X300075Y242791D03*
G54D19*X230267Y216967D03*
G54D15*G36*
X294528Y198082D02*Y192964D01*
X300432D01*
Y198082D01*
X294528D01*
G37*
G36*
X307980Y235980D02*Y227480D01*
X305980D01*
Y235980D01*
X307980D01*
G37*
G54D22*X278480Y231823D03*
G54D15*G36*
X274543Y208201D02*X282417D01*
Y216075D01*
X274543D01*
Y208201D01*
G37*
G54D17*X321290Y189670D03*
G54D15*G36*
X308528Y198082D02*Y192964D01*
X314432D01*
Y198082D01*
X308528D01*
G37*
G36*
X305980Y206980D02*Y215480D01*
X307980D01*
Y206980D01*
X305980D01*
G37*
G36*
X310980D02*Y215480D01*
X312980D01*
Y206980D01*
X310980D01*
G37*
G36*
X315980D02*Y215480D01*
X317980D01*
Y206980D01*
X315980D01*
G37*
G36*
X320980D02*Y215480D01*
X322980D01*
Y206980D01*
X320980D01*
G37*
G36*
X312980Y235980D02*Y227480D01*
X310980D01*
Y235980D01*
X312980D01*
G37*
G36*
X317980D02*Y227480D01*
X315980D01*
Y235980D01*
X317980D01*
G37*
G36*
X322980D02*Y227480D01*
X320980D01*
Y235980D01*
X322980D01*
G37*
G54D17*X103767Y211967D03*
Y196967D03*
G54D15*G36*
X117016Y215707D02*X111898D01*
Y208227D01*
X117016D01*
Y215707D01*
G37*
G36*
X128826D02*X123708D01*
Y208227D01*
X128826D01*
Y215707D01*
G37*
G54D18*X152000Y212000D03*
X182000D03*
G54D15*G36*
X117016Y200707D02*X111898D01*
Y193227D01*
X117016D01*
Y200707D01*
G37*
G36*
X128826D02*X123708D01*
Y193227D01*
X128826D01*
Y200707D01*
G37*
G36*
X136921Y197707D02*X131803D01*
Y190227D01*
X136921D01*
Y197707D01*
G37*
G36*
X148731D02*X143613D01*
Y190227D01*
X148731D01*
Y197707D01*
G37*
G36*
X187102Y195483D02*Y187412D01*
X201472D01*
Y195483D01*
X187102D01*
G37*
G36*
X210326Y220707D02*X205208D01*
Y213227D01*
X210326D01*
Y220707D01*
G37*
G36*
X222136D02*X217018D01*
Y213227D01*
X222136D01*
Y220707D01*
G37*
G36*
X320059Y325740D02*X314941D01*
Y318260D01*
X320059D01*
Y325740D01*
G37*
G36*
X343315Y327036D02*Y318964D01*
X357685D01*
Y327036D01*
X343315D01*
G37*
G54D21*X315500Y371500D03*
X355500D03*
G54D15*G36*
X331563Y355437D02*Y347563D01*
X339437D01*
Y355437D01*
X331563D01*
G37*
G54D22*X325500Y351500D03*
G54D23*X316500Y127600D03*
G54D15*G36*
X331869Y325740D02*X326751D01*
Y318260D01*
X331869D01*
Y325740D01*
G37*
G54D24*X326500Y155000D03*
X316500D03*
G54D15*G36*
X290000Y376000D02*Y384000D01*
X298000D01*
Y376000D01*
X290000D01*
G37*
G36*
X302674Y257259D02*X297556D01*
Y249780D01*
X302674D01*
Y257259D01*
G37*
G36*
X287760Y272749D02*Y267631D01*
X295240D01*
Y272749D01*
X287760D01*
G37*
G36*
Y284559D02*Y279441D01*
X295240D01*
Y284559D01*
X287760D01*
G37*
G36*
X285500Y291000D02*Y299500D01*
X287500D01*
Y291000D01*
X285500D01*
G37*
G36*
X290500D02*Y299500D01*
X292500D01*
Y291000D01*
X290500D01*
G37*
G36*
X276964Y243315D02*X285036D01*
Y257685D01*
X276964D01*
Y243315D01*
G37*
G36*
X294528Y190996D02*Y185878D01*
X300432D01*
Y190996D01*
X294528D01*
G37*
G36*
X308528D02*Y185878D01*
X314432D01*
Y190996D01*
X308528D01*
G37*
G36*
X314484Y257259D02*X309366D01*
Y249780D01*
X314484D01*
Y257259D01*
G37*
G36*
X287500Y320000D02*Y311500D01*
X285500D01*
Y320000D01*
X287500D01*
G37*
G36*
X292500D02*Y311500D01*
X290500D01*
Y320000D01*
X292500D01*
G37*
G36*
X304826Y152070D02*X298826D01*
Y158070D01*
X304826D01*
Y152070D01*
G37*
G54D24*X291826Y155070D03*
X281826D03*
X271826D03*
X261826D03*
G54D15*G36*
X328240Y192230D02*Y187112D01*
X335720D01*
Y192230D01*
X328240D01*
G37*
G36*
X359500Y152000D02*X353500D01*
Y158000D01*
X359500D01*
Y152000D01*
G37*
G54D24*X346500Y155000D03*
X336500D03*
G54D15*G36*
X328240Y204040D02*Y198922D01*
X335720D01*
Y204040D01*
X328240D01*
G37*
G36*
X335240Y218134D02*Y213016D01*
X342720D01*
Y218134D01*
X335240D01*
G37*
G36*
Y229945D02*Y224826D01*
X342720D01*
Y229945D01*
X335240D01*
G37*
G54D25*X155506Y172276D03*
G54D23*X177826Y108570D03*
G54D15*G36*
X150585Y108299D02*X160428D01*
Y118142D01*
X150585D01*
Y108299D01*
G37*
G36*
X195121Y110256D02*Y102185D01*
X209491D01*
Y110256D01*
X195121D01*
G37*
G36*
X170641Y126106D02*Y118035D01*
X185011D01*
Y126106D01*
X170641D01*
G37*
G36*
X222539Y157515D02*X229429D01*
Y150626D01*
X222539D01*
Y157515D01*
G37*
G54D26*X235826Y154070D03*
G54D15*G36*
X195121Y166256D02*Y158185D01*
X209491D01*
Y166256D01*
X195121D01*
G37*
G36*
X194362Y140165D02*X201251D01*
Y133276D01*
X194362D01*
Y140165D01*
G37*
G54D26*X207649Y136720D03*
G54D15*G36*
X222562Y125165D02*X229451D01*
Y118276D01*
X222562D01*
Y125165D01*
G37*
G54D26*X235849Y121720D03*
G54D13*G54D27*G54D12*G54D27*G54D12*G54D28*G54D12*G54D28*G54D29*G54D12*G54D29*G54D12*G54D29*G54D30*G54D29*G54D12*G54D28*G54D31*G54D12*G54D28*G54D30*G54D12*G54D24*G54D32*G54D28*G54D32*G54D33*G54D24*G54D33*G54D34*M02*
