G04 start of page 2 for group 10 layer_idx 5 *
G04 Title: (unknown), bottom_silk *
G04 Creator: pcb-rnd 2.2.1 *
G04 CreationDate: 2020-06-04 19:14:55 UTC *
G04 For:  *
G04 Format: Gerber/RS-274X *
G04 PCB-Dimensions: 500000 500000 *
G04 PCB-Coordinate-Origin: lower left *
%MOIN*%
%FSLAX25Y25*%
%LNBOTTOM_SILK_NONE_10*%
%ADD69C,0.0070*%
%ADD68C,0.0197*%
%ADD67C,0.0080*%
G54D67*X117240Y371638D02*Y376362D01*
X109760Y371638D02*Y376362D01*
G54D68*X143790Y139323D02*Y145228D01*
X129223Y139323D02*Y145228D01*
G54D67*X173007Y219605D02*Y224329D01*
X165527Y219605D02*Y224329D01*
G54D69*X365000Y311200D02*X363500D01*
X365000Y309000D02*X363000D01*
X365000Y313000D02*Y309000D01*
Y313000D02*X363000D01*
X360300Y311000D02*X359800Y310500D01*
X361300Y311000D02*X360300D01*
X361800Y310500D02*X361300Y311000D01*
X361800Y310500D02*Y309500D01*
X361300Y309000D01*
X359800Y311000D02*Y309500D01*
X359300Y309000D01*
X361300D02*X360300D01*
X359800Y309500D01*
X357600Y313000D02*Y309500D01*
X357100Y309000D01*
X358100Y311500D02*X357100D01*
X356100Y310500D02*Y309500D01*
Y310500D02*X355600Y311000D01*
X354600D01*
X354100Y310500D01*
Y309500D01*
X354600Y309000D02*X354100Y309500D01*
X355600Y309000D02*X354600D01*
X356100Y309500D02*X355600Y309000D01*
X352400Y310500D02*Y309000D01*
Y310500D02*X351900Y311000D01*
X351400D01*
X350900Y310500D01*
Y309000D01*
X352900Y311000D02*X352400Y310500D01*
X347400Y313000D02*Y309000D01*
X347900Y313000D02*X345900D01*
X345400Y312500D01*
Y311500D01*
X345900Y311000D02*X345400Y311500D01*
X347400Y311000D02*X345900D01*
X343700Y309000D02*X342200D01*
X344200Y309500D02*X343700Y309000D01*
X344200Y310500D02*Y309500D01*
Y310500D02*X343700Y311000D01*
X342700D01*
X342200Y310500D01*
X344200Y310000D02*X342200D01*
Y310500D01*
X339500Y311000D02*X339000Y310500D01*
X340500Y311000D02*X339500D01*
X341000Y310500D02*X340500Y311000D01*
X341000Y310500D02*Y309500D01*
X340500Y309000D01*
X339000Y311000D02*Y309500D01*
X338500Y309000D01*
X340500D02*X339500D01*
X339000Y309500D01*
X337300Y313000D02*Y309000D01*
Y309500D02*X336800Y309000D01*
X335800D01*
X335300Y309500D01*
Y310500D02*Y309500D01*
X335800Y311000D02*X335300Y310500D01*
X336800Y311000D02*X335800D01*
X337300Y310500D02*X336800Y311000D01*
X334100Y310500D02*Y309500D01*
Y310500D02*X333600Y311000D01*
X332600D01*
X332100Y310500D01*
Y309500D01*
X332600Y309000D02*X332100Y309500D01*
X333600Y309000D02*X332600D01*
X334100Y309500D02*X333600Y309000D01*
X328900Y313000D02*Y309000D01*
X329400D02*X328900Y309500D01*
X330400Y309000D02*X329400D01*
X330900Y309500D02*X330400Y309000D01*
X330900Y310500D02*Y309500D01*
Y310500D02*X330400Y311000D01*
X329400D01*
X328900Y310500D01*
X327700Y311000D02*Y309500D01*
X327200Y309000D01*
X325700Y311000D02*Y308000D01*
X326200Y307500D02*X325700Y308000D01*
X327200Y307500D02*X326200D01*
X327700Y308000D02*X327200Y307500D01*
Y309000D02*X326200D01*
X325700Y309500D01*
X322700Y313000D02*Y309000D01*
X320700D01*
X318000Y311000D02*X317500Y310500D01*
X319000Y311000D02*X318000D01*
X319500Y310500D02*X319000Y311000D01*
X319500Y310500D02*Y309500D01*
X319000Y309000D01*
X317500Y311000D02*Y309500D01*
X317000Y309000D01*
X319000D02*X318000D01*
X317500Y309500D01*
X315800Y313000D02*Y309000D01*
Y309500D02*X315300Y309000D01*
X314300D01*
X313800Y309500D01*
Y310500D02*Y309500D01*
X314300Y311000D02*X313800Y310500D01*
X315300Y311000D02*X314300D01*
X315800Y310500D02*X315300Y311000D01*
X108150Y377150D02*Y375850D01*
X107450Y377850D02*X108150Y377150D01*
X104850Y377850D02*X107450D01*
X104850D02*X104150Y377150D01*
Y375850D01*
Y374650D02*Y372650D01*
Y374650D02*X106150D01*
X105650Y374150D01*
Y373150D01*
X106150Y372650D01*
X107650D01*
X108150Y373150D02*X107650Y372650D01*
X108150Y374150D02*Y373150D01*
X107650Y374650D02*X108150Y374150D01*
X107650Y371450D02*X108150Y370950D01*
X104650Y371450D02*X107650D01*
X104650D02*X104150Y370950D01*
Y369950D01*
X104650Y369450D01*
X107650D01*
X108150Y369950D02*X107650Y369450D01*
X108150Y370950D02*Y369950D01*
X107150Y371450D02*X105150Y369450D01*
X122255Y146626D02*Y144626D01*
X122755Y144126D01*
X123755D01*
X124255Y144626D02*X123755Y144126D01*
X124255Y146126D02*Y144626D01*
X122255Y146126D02*X126255D01*
X124255Y145326D02*X126255Y144126D01*
X124755Y142926D02*X122255Y140926D01*
X124755Y142926D02*Y140426D01*
X122255Y140926D02*X126255D01*
X124755Y139226D02*X122255Y137226D01*
X124755Y139226D02*Y136726D01*
X122255Y137226D02*X126255D01*
X163917Y226117D02*Y224817D01*
X163217Y226817D02*X163917Y226117D01*
X160617Y226817D02*X163217D01*
X160617D02*X159917Y226117D01*
Y224817D01*
X162417Y223617D02*X159917Y221617D01*
X162417Y223617D02*Y221117D01*
X159917Y221617D02*X163917D01*
X159917Y218417D02*X160417Y217917D01*
X159917Y219417D02*Y218417D01*
X160417Y219917D02*X159917Y219417D01*
X160417Y219917D02*X163417D01*
X163917Y219417D01*
X161717Y218417D02*X162217Y217917D01*
X161717Y219917D02*Y218417D01*
X163917Y219417D02*Y218417D01*
X163417Y217917D01*
X162217D02*X163417D01*
X365000Y296000D02*X363000D01*
X362500Y296500D01*
Y297700D02*Y296500D01*
X363000Y298200D02*X362500Y297700D01*
X364500Y298200D02*X363000D01*
X364500Y300000D02*Y296000D01*
X365000Y300000D02*X363000D01*
X362500Y299500D01*
Y298700D01*
X363000Y298200D02*X362500Y298700D01*
X361300Y298000D02*Y296500D01*
X360800Y296000D01*
X359300Y298000D02*Y295000D01*
X359800Y294500D02*X359300Y295000D01*
X360800Y294500D02*X359800D01*
X361300Y295000D02*X360800Y294500D01*
Y296000D02*X359800D01*
X359300Y296500D01*
X356300Y298200D02*X354800D01*
X356300Y296000D02*X354300D01*
X356300Y300000D02*Y296000D01*
Y300000D02*X354300D01*
X353100Y298000D02*X352100Y296000D01*
X351100Y298000D02*X352100Y296000D01*
X348400Y298000D02*X347900Y297500D01*
X349400Y298000D02*X348400D01*
X349900Y297500D02*X349400Y298000D01*
X349900Y297500D02*Y296500D01*
X349400Y296000D01*
X347900Y298000D02*Y296500D01*
X347400Y296000D01*
X349400D02*X348400D01*
X347900Y296500D01*
X345700Y297500D02*Y296000D01*
Y297500D02*X345200Y298000D01*
X344700D01*
X344200Y297500D01*
Y296000D01*
X346200Y298000D02*X345700Y297500D01*
X341200Y300000D02*Y296000D01*
Y300000D02*X339200D01*
X341200Y298200D02*X339700D01*
X338000Y297500D02*Y296500D01*
Y297500D02*X337500Y298000D01*
X336500D01*
X336000Y297500D01*
Y296500D01*
X336500Y296000D02*X336000Y296500D01*
X337500Y296000D02*X336500D01*
X338000Y296500D02*X337500Y296000D01*
X334300D02*X332800D01*
X332300Y296500D01*
X332800Y297000D02*X332300Y296500D01*
X334300Y297000D02*X332800D01*
X334800Y297500D02*X334300Y297000D01*
X334800Y297500D02*X334300Y298000D01*
X332800D01*
X332300Y297500D01*
X334800Y296500D02*X334300Y296000D01*
X330600D02*X329100D01*
X328600Y296500D01*
X329100Y297000D02*X328600Y296500D01*
X330600Y297000D02*X329100D01*
X331100Y297500D02*X330600Y297000D01*
X331100Y297500D02*X330600Y298000D01*
X329100D01*
X328600Y297500D01*
X331100Y296500D02*X330600Y296000D01*
X365000Y306500D02*Y302500D01*
Y306500D02*X363500Y304500D01*
X362000Y306500D01*
Y302500D01*
X360800Y304000D02*Y303000D01*
Y304000D02*X360300Y304500D01*
X359300D01*
X358800Y304000D01*
Y303000D01*
X359300Y302500D02*X358800Y303000D01*
X360300Y302500D02*X359300D01*
X360800Y303000D02*X360300Y302500D01*
X355600Y306500D02*Y302500D01*
X356100D02*X355600Y303000D01*
X357100Y302500D02*X356100D01*
X357600Y303000D02*X357100Y302500D01*
X357600Y304000D02*Y303000D01*
Y304000D02*X357100Y304500D01*
X356100D01*
X355600Y304000D01*
X353900Y302500D02*X352400D01*
X354400Y303000D02*X353900Y302500D01*
X354400Y304000D02*Y303000D01*
Y304000D02*X353900Y304500D01*
X352900D01*
X352400Y304000D01*
X354400Y303500D02*X352400D01*
Y304000D01*
X351200Y306500D02*Y303000D01*
X350700Y302500D01*
X349700Y305000D02*X349200D01*
X349700Y304000D02*X349200D01*
X346200Y302500D02*X344200D01*
X343700Y303000D01*
Y304200D02*Y303000D01*
X344200Y304700D02*X343700Y304200D01*
X345700Y304700D02*X344200D01*
X345700Y306500D02*Y302500D01*
X346200Y306500D02*X344200D01*
X343700Y306000D01*
Y305200D01*
X344200Y304700D02*X343700Y305200D01*
X342500Y305500D02*Y305400D01*
Y304000D02*Y302500D01*
X341500Y304000D02*Y303000D01*
Y304000D02*X341000Y304500D01*
X340000D01*
X339500Y304000D01*
Y303000D01*
X340000Y302500D02*X339500Y303000D01*
X341000Y302500D02*X340000D01*
X341500Y303000D02*X341000Y302500D01*
X338300Y305500D02*Y302500D01*
Y305500D02*X337600Y306500D01*
X336500D01*
X335800Y305500D01*
Y302500D01*
X338300Y304500D02*X335800D01*
X334100Y304000D02*Y302500D01*
Y304000D02*X333600Y304500D01*
X333100D01*
X332600Y304000D01*
Y302500D01*
Y304000D02*X332100Y304500D01*
X331600D01*
X331100Y304000D01*
Y302500D01*
X334600Y304500D02*X334100Y304000D01*
X329400D02*Y301000D01*
X329900Y304500D02*X329400Y304000D01*
X328900Y304500D01*
X327900D01*
X327400Y304000D01*
Y303000D01*
X327900Y302500D02*X327400Y303000D01*
X328900Y302500D02*X327900D01*
X329400Y303000D02*X328900Y302500D01*
X324400Y306500D02*Y305500D01*
X323400Y306500D02*Y305500D01*
X321700Y306000D02*Y302500D01*
Y306000D02*X321200Y306500D01*
X320700D01*
X322200Y304500D02*X321200D01*
X318200D02*X317700Y304000D01*
X319200Y304500D02*X318200D01*
X319700Y304000D02*X319200Y304500D01*
X319700Y304000D02*Y303000D01*
X319200Y302500D01*
X317700Y304500D02*Y303000D01*
X317200Y302500D01*
X319200D02*X318200D01*
X317700Y303000D01*
X315500Y304000D02*Y302500D01*
Y304000D02*X315000Y304500D01*
X314500D01*
X314000Y304000D01*
Y302500D01*
X316000Y304500D02*X315500Y304000D01*
X312300Y304500D02*X310800D01*
X312800Y304000D02*X312300Y304500D01*
X312800Y304000D02*Y303000D01*
X312300Y302500D01*
X310800D01*
X309600Y304500D02*Y303000D01*
X309100Y302500D01*
X307600Y304500D02*Y301500D01*
X308100Y301000D02*X307600Y301500D01*
X309100Y301000D02*X308100D01*
X309600Y301500D02*X309100Y301000D01*
Y302500D02*X308100D01*
X307600Y303000D01*
X306400Y306500D02*Y305500D01*
X305400Y306500D02*Y305500D01*
X365000Y293000D02*X364500Y293500D01*
X363000D01*
X362500Y293000D01*
Y292000D01*
X365000Y289500D02*X362500Y292000D01*
X365000Y289500D02*X362500D01*
X361300Y290000D02*X360800Y289500D01*
X361300Y293000D02*Y290000D01*
Y293000D02*X360800Y293500D01*
X359800D01*
X359300Y293000D01*
Y290000D01*
X359800Y289500D02*X359300Y290000D01*
X360800Y289500D02*X359800D01*
X361300Y290500D02*X359300Y292500D01*
X358100Y293000D02*X357600Y293500D01*
X356100D01*
X355600Y293000D01*
Y292000D01*
X358100Y289500D02*X355600Y292000D01*
X358100Y289500D02*X355600D01*
X354400Y290000D02*X353900Y289500D01*
X354400Y293000D02*Y290000D01*
Y293000D02*X353900Y293500D01*
X352900D01*
X352400Y293000D01*
Y290000D01*
X352900Y289500D02*X352400Y290000D01*
X353900Y289500D02*X352900D01*
X354400Y290500D02*X352400Y292500D01*
X351200Y289500D02*X350700D01*
X349500Y290000D02*X349000Y289500D01*
X349500Y293000D02*Y290000D01*
Y293000D02*X349000Y293500D01*
X348000D01*
X347500Y293000D01*
Y290000D01*
X348000Y289500D02*X347500Y290000D01*
X349000Y289500D02*X348000D01*
X349500Y290500D02*X347500Y292500D01*
X344800Y293500D02*X344300Y293000D01*
X345800Y293500D02*X344800D01*
X346300Y293000D02*X345800Y293500D01*
X346300Y293000D02*Y290000D01*
X345800Y289500D01*
X344800Y291700D02*X344300Y291200D01*
X346300Y291700D02*X344800D01*
X345800Y289500D02*X344800D01*
X344300Y290000D01*
Y291200D02*Y290000D01*
X343100Y289500D02*X342600D01*
X341400Y290000D02*X340900Y289500D01*
X341400Y293000D02*Y290000D01*
Y293000D02*X340900Y293500D01*
X339900D01*
X339400Y293000D01*
Y290000D01*
X339900Y289500D02*X339400Y290000D01*
X340900Y289500D02*X339900D01*
X341400Y290500D02*X339400Y292500D01*
X338200Y293000D02*X337700Y293500D01*
X336200D01*
X335700Y293000D01*
Y292000D01*
X338200Y289500D02*X335700Y292000D01*
X338200Y289500D02*X335700D01*
M02*
