G04 start of page 2 for group 3 layer_idx 0 *
G04 Title: (unknown), top_copper *
G04 Creator: pcb-rnd 2.3.0 *
G04 CreationDate: 2021-04-06 18:34:34 UTC *
G04 For:  *
G04 Format: Gerber/RS-274X *
G04 PCB-Dimensions: 500000 500000 *
G04 PCB-Coordinate-Origin: lower left *
%MOIN*%
%FSLAX25Y25*%
%LNTOP_COPPER_NONE_3*%
%ADD37C,0.0790*%
%ADD36C,0.0640*%
%ADD35C,0.0256*%
%ADD34C,0.0420*%
%ADD33C,0.0276*%
%ADD32C,0.0374*%
%ADD31C,0.0295*%
%ADD30C,0.0394*%
%ADD29C,0.0430*%
%ADD28C,0.1580*%
%ADD27C,0.1040*%
%ADD26C,0.0400*%
%ADD25C,0.0571*%
%ADD24C,0.0600*%
%ADD23C,0.0689*%
%ADD22C,0.1000*%
%ADD21C,0.0866*%
%ADD20C,0.0984*%
%ADD19C,0.0787*%
%ADD18C,0.0800*%
%ADD17C,0.0850*%
%ADD16C,0.0001*%
%ADD15C,0.0700*%
%ADD14C,0.0090*%
%ADD13C,0.0350*%
%ADD12C,0.0200*%
%ADD11C,0.0650*%
G54D11*X101000Y358000D02*X87500Y344500D01*
X101000Y358000D02*X113390D01*
X113540D02*X142500D01*
X172000Y387500D01*
G54D12*X164000Y348000D02*X173500Y357500D01*
X174000Y345000D02*X176500Y347500D01*
X193500Y357500D02*X173500D01*
X186000Y347500D03*
X193500D02*X176500D01*
X174000Y345000D02*Y341129D01*
X173871Y341000D01*
X193500Y367500D02*X202043D01*
X205500Y335543D02*Y364000D01*
X202000Y367500D01*
G54D11*X350500Y334400D02*X335400Y349500D01*
G54D13*X281500Y342405D02*Y351000D01*
G54D12*X246000Y355500D02*X248000Y357500D01*
X239543Y334500D02*X246000D01*
X248000Y357500D02*X253000D01*
G54D13*X257043Y337043D02*X264000Y344000D01*
G54D11*X221000Y367000D02*Y342000D01*
G54D12*X205543Y335500D02*X205500Y335543D01*
X217000Y334500D02*X232457D01*
G54D13*X253000Y367500D02*X257500D01*
X264000Y361000D01*
Y344000D02*Y361000D01*
G54D11*X221000Y367000D02*X231000Y377000D01*
X279000D01*
X304000Y352000D01*
X172000Y387500D02*X253000D01*
G54D12*X193000Y335543D02*X205500D01*
G54D13*X127520Y340320D02*X119840Y348000D01*
X107240D02*Y338240D01*
X104000Y335000D01*
G54D11*X350500Y323000D02*Y334400D01*
G54D12*X323000Y312500D02*Y304500D01*
G54D13*X332810Y323000D02*X350500D01*
G54D12*X321980Y208980D02*Y204980D01*
X338885Y227480D02*X338980Y227386D01*
G54D13*X356386D01*
X323405Y244000D02*X331500D01*
G54D11*X356500Y236500D02*X328500Y264500D01*
G54D12*X321980Y204980D02*X325480Y201480D01*
X331980D01*
G54D13*X332480Y209076D02*X338980Y215576D01*
G54D11*X346500Y185000D02*Y197000D01*
X356500Y113000D02*Y236500D01*
X346500Y197000D02*X342000Y201500D01*
G54D13*X332000D01*
X331980Y201480D01*
G54D12*X164000Y306000D02*Y348000D01*
G54D13*X127520Y321480D02*Y340320D01*
X104000Y335000D02*Y315000D01*
X129000Y312500D02*X127500Y314000D01*
Y321500D01*
X158190Y301430D02*Y309905D01*
X104000Y315000D02*X101000Y312000D01*
Y304685D01*
X129000D02*Y312500D01*
X116500Y265685D02*Y272500D01*
X129000Y285000D01*
X132595Y257905D02*X128500Y262000D01*
X102500Y270000D02*X101000Y271500D01*
X138000Y257905D02*X132595D01*
X101000Y271500D02*Y285000D01*
G54D11*X87500Y344500D02*Y185000D01*
G54D13*X116595Y246095D02*X116500Y246000D01*
X102500Y233000D02*Y270000D01*
Y213315D02*X110685D01*
X112000Y212000D01*
X140405Y246095D02*X144500Y242000D01*
X152000D01*
X140405Y246095D02*X116595D01*
X152000Y212000D02*X112000D01*
X158190Y300810D02*X157880Y301120D01*
X126500Y200190D02*Y189500D01*
G54D12*X166000Y304000D02*X164000Y306000D01*
G54D11*X163500Y255500D02*X142500Y276500D01*
G54D13*X163500Y255500D02*Y200500D01*
X157880Y301120D02*X158190Y301430D01*
G54D11*X163500Y255500D02*Y248500D01*
G54D13*X142543Y232000D02*X141543Y233000D01*
X152000Y222000D02*X143043D01*
X141543Y220500D01*
X163500Y200500D02*X145000Y182000D01*
G54D11*X142500Y358000D02*Y276500D01*
G54D13*X151967Y211967D02*X152000Y212000D01*
X180202Y231967D02*X180235Y232000D01*
X134457Y233000D02*Y220500D01*
X152000Y232000D02*X142543D01*
G54D12*X173871Y341000D02*Y328543D01*
X173914Y328500D01*
X180957Y341000D02*Y328543D01*
X181000Y328500D01*
G54D11*X175000Y242000D02*X171500Y238500D01*
G54D13*X170000Y309905D02*X176595D01*
X178000Y308500D01*
X175957Y274957D02*X175500Y274500D01*
X163000D01*
G54D11*X171500Y238500D02*Y191000D01*
X173500Y189000D01*
X182000Y242000D02*X175000D01*
G54D13*X272000Y197000D03*
X242000Y186000D02*X243000Y187000D01*
X262500D03*
X262500Y215843D01*
X272000Y197000D02*X280500Y188500D01*
X297418D02*X297480Y188438D01*
X297418Y188500D02*X280500D01*
X233500Y187000D02*X243000D01*
X233500D02*X227500Y193000D01*
Y208500D01*
X297502Y195502D02*X301998D01*
X304500Y193000D01*
Y191000D01*
X332480Y209076D02*Y201480D01*
X311480Y195524D02*Y201480D01*
X311500Y201500D01*
G54D12*X311980Y208980D02*Y201500D01*
X311480Y201000D01*
G54D13*X304500Y191000D02*X307000Y188500D01*
X311418D01*
X311480Y188438D01*
X311500Y201500D02*X289118D01*
X278480Y212138D01*
G54D12*X286500Y224000D02*X278578Y231922D01*
X278500Y231843D02*X278480Y231823D01*
G54D13*Y231480D02*Y231823D01*
G54D12*X316980Y233980D02*Y225980D01*
X315000Y224000D01*
X286500D01*
G54D13*X262500Y215843D02*X278500Y231843D01*
G54D11*X253000Y177000D02*Y272000D01*
G54D13*X236500Y197000D02*Y232000D01*
G54D12*X311980Y233980D02*Y245980D01*
X312000Y246000D01*
G54D13*Y255500D02*Y246020D01*
X311980Y246000D01*
X298500Y272595D02*X289905D01*
X284000Y278500D01*
X307000Y282000D02*Y267000D01*
G54D11*X284000Y264500D02*X304500D01*
X284000D02*X253000D01*
X323000D02*X314000Y255500D01*
G54D13*X307000Y267000D02*X304500Y264500D01*
G54D11*X314000Y255500D02*X312000D01*
X308000Y268000D02*X304500Y264500D01*
X253000Y272000D02*X244500Y280500D01*
X323000Y279000D02*Y264500D01*
X328500D02*X323000D01*
G54D13*X281500Y330595D02*X303905D01*
X281500Y324000D02*Y330500D01*
X281595Y330595D01*
G54D12*X246000Y325500D02*Y355500D01*
G54D11*X304000Y352000D02*Y298000D01*
G54D13*X303905Y330595D02*X304000Y330500D01*
G54D12*X281500Y318000D02*Y324000D01*
X286500Y305500D02*Y306000D01*
X297500Y308000D02*X295000Y305500D01*
X286500Y306000D02*Y318000D01*
X321000Y323000D02*X312500D01*
X269043Y305500D02*X295000D01*
X321000Y323000D02*Y314500D01*
G54D13*X256957Y323500D02*X257043Y337043D01*
G54D12*X193000Y319000D02*Y328500D01*
Y294000D02*Y290500D01*
X195500Y288000D01*
X188000Y286000D02*Y282043D01*
G54D13*X194690Y207000D02*Y189000D01*
G54D11*X189000D02*X192500D01*
X191000D02*Y184500D01*
G54D13*X189690Y212000D02*X194690Y207000D01*
X188043Y274914D02*X187957Y275000D01*
Y268043D01*
X191000Y265000D01*
G54D12*X201000Y274957D02*Y270000D01*
X206500Y264500D01*
G54D13*X191000Y265000D02*X196500D01*
X199000Y262500D01*
G54D12*X195500Y288000D02*X206500D01*
G54D13*X221000Y294500D02*X199000D01*
X221000D02*Y284500D01*
X225000Y280500D01*
G54D12*X206500Y264500D02*X223000D01*
G54D13*X204810Y257000D02*Y242000D01*
X193000Y257000D02*Y242000D01*
X214020Y221980D02*X182020D01*
X182000Y222000D01*
X204810Y249500D02*X215500D01*
X193000Y242000D02*X182000D01*
X199000Y262500D02*Y232000D01*
X182000Y212000D02*X189690D01*
X236500Y232000D02*X182000D01*
X214000Y221960D02*X214020Y221980D01*
X227500Y208500D02*X214000Y222000D01*
X206500Y189000D02*X217190D01*
X206500Y204000D02*X217190D01*
G54D12*X205500Y328457D02*X210957D01*
G54D13*X205500Y306500D02*X203500Y308500D01*
X221000Y327000D02*Y316000D01*
X233000Y334500D02*Y314500D01*
X205500Y306500D02*X211310D01*
X211500Y306310D01*
X221000Y316000D02*X211500Y306500D01*
G54D12*X210957Y328457D02*X217000Y334500D01*
X181000Y328500D02*X205457D01*
X188000Y286000D02*Y302000D01*
X186000Y304000D01*
X166000D01*
X188000Y282043D02*X201000D01*
G54D13*X188000Y274957D02*X175957D01*
X256957Y297000D02*Y310500D01*
G54D12*X262000Y284500D02*X257000Y289500D01*
Y296914D01*
X256957Y296957D01*
X281500Y293000D02*Y289000D01*
X277000Y284500D01*
X262000D01*
G54D13*X241000Y294500D02*X232810D01*
G54D12*X269043Y305500D02*X264043Y310500D01*
X286500Y293000D02*Y287000D01*
X291500Y293000D02*Y287000D01*
X286500D02*X284000Y284500D01*
X291500Y287000D02*X294000Y284500D01*
X298405D01*
X298500Y284405D01*
G54D13*X304595D01*
X307000Y282000D01*
G54D11*X304000Y298000D02*X323000Y279000D01*
G54D12*X321000Y314500D02*X323000Y312500D01*
X284000Y284500D02*Y278500D01*
G54D11*X225000Y280500D02*X244500D01*
G54D13*X264043Y297000D02*Y323500D01*
G54D12*X188000Y319000D02*Y308500D01*
X205457Y328500D02*X205500Y328457D01*
G54D13*X203500Y308500D02*X178000D01*
G54D12*X256957Y310500D02*Y314543D01*
X246000Y325500D01*
G54D11*X155506Y172276D02*X100224D01*
X87500Y185000D01*
X202306Y173194D02*X191000Y184500D01*
G54D13*X321290Y189670D02*X331980D01*
G54D12*X316980Y193980D02*X321290Y189670D01*
G54D11*X202306Y173306D02*X206000Y177000D01*
X189500Y174000D02*Y189000D01*
G54D12*X311980Y196024D02*X311480Y195524D01*
X316980Y208980D02*Y193980D01*
G54D11*X202153Y160567D02*X202306Y160720D01*
X202153Y151641D02*Y160567D01*
X197780Y136720D02*X173000Y161500D01*
Y189500D02*Y161500D01*
X197806Y127720D02*Y136720D01*
X207733D02*Y146061D01*
X197806Y136720D02*X197780D01*
X235826Y142740D02*Y154070D01*
X203806Y121720D02*X197806Y127720D01*
X207806Y136720D02*X229806D01*
X207733Y146061D02*X202153Y151641D01*
X100224Y172276D02*Y111776D01*
X120500Y91500D01*
X226000Y121720D02*Y106500D01*
X177826Y122070D02*Y108570D01*
X226000Y106500D02*X232500Y100000D01*
X202306Y107090D02*Y121720D01*
X226006D02*X203806D01*
X229806Y136720D02*X235806Y142720D01*
X249756Y168000D02*X235826Y154070D01*
X202306Y162220D02*Y173194D01*
X256000Y155000D02*Y100000D01*
G54D12*X297523Y195480D02*X297480Y195524D01*
G54D11*X308000Y163000D02*X313000Y168000D01*
X308000Y163000D02*Y155000D01*
X202306Y162220D02*Y173306D01*
X206000Y177000D02*X338500D01*
X346500Y185000D01*
X331500Y135000D02*X293500D01*
X286000Y142500D01*
Y155500D01*
X313000Y168000D02*X356500D01*
X338000Y155000D02*Y141500D01*
X331500Y135000D01*
X249756Y168000D02*X280500D01*
X286000Y162500D01*
Y155000D01*
X202326Y107070D02*X202306Y107090D01*
X232500Y100000D02*X343500D01*
X356500Y113000D01*
G54D14*X226000Y94000D02*Y93000D01*
X227000Y94000D02*Y93000D01*
X228700Y93500D02*Y90000D01*
Y93500D02*X229200Y94000D01*
X229700D01*
X228200Y92000D02*X229200D01*
X232200D02*X232700Y91500D01*
X231200Y92000D02*X232200D01*
X230700Y91500D02*X231200Y92000D01*
X230700Y91500D02*Y90500D01*
X231200Y90000D01*
X232700Y92000D02*Y90500D01*
X233200Y90000D01*
X231200D02*X232200D01*
X232700Y90500D01*
X234900Y91500D02*Y90000D01*
Y91500D02*X235400Y92000D01*
X235900D01*
X236400Y91500D01*
Y90000D01*
X234400Y92000D02*X234900Y91500D01*
X238100Y92000D02*X239600D01*
X237600Y91500D02*X238100Y92000D01*
X237600Y91500D02*Y90500D01*
X238100Y90000D01*
X239600D01*
X240800Y92000D02*Y90500D01*
X241300Y90000D01*
X242800Y92000D02*Y89000D01*
X242300Y88500D02*X242800Y89000D01*
X241300Y88500D02*X242300D01*
X240800Y89000D02*X241300Y88500D01*
Y90000D02*X242300D01*
X242800Y90500D01*
X244000Y94000D02*Y93000D01*
X245000Y94000D02*Y93000D01*
G54D15*X281500Y351000D03*
G54D16*G36*
X277500Y320000D02*Y311500D01*
X275500D01*
Y320000D01*
X277500D01*
G37*
G36*
X259516Y313452D02*X254398D01*
Y307548D01*
X259516D01*
Y313452D01*
G37*
G36*
Y326452D02*X254398D01*
Y320548D01*
X259516D01*
Y326452D01*
G37*
G36*
X266602D02*X261484D01*
Y320548D01*
X266602D01*
Y326452D01*
G37*
G54D17*X253000Y347500D03*
G54D15*X241000Y294500D03*
G54D16*G36*
X266602Y313452D02*X261484D01*
Y307548D01*
X266602D01*
Y313452D01*
G37*
G36*
X259516Y299952D02*X254398D01*
Y294048D01*
X259516D01*
Y299952D01*
G37*
G54D18*X243000Y314500D03*
G54D16*G36*
X275500Y291000D02*Y299500D01*
X277500D01*
Y291000D01*
X275500D01*
G37*
G36*
X282500Y320000D02*Y311500D01*
X280500D01*
Y320000D01*
X282500D01*
G37*
G36*
X266602Y299952D02*X261484D01*
Y294048D01*
X266602D01*
Y299952D01*
G37*
G36*
X277760Y333154D02*Y328036D01*
X285240D01*
Y333154D01*
X277760D01*
G37*
G36*
Y344964D02*Y339846D01*
X285240D01*
Y344964D01*
X277760D01*
G37*
G36*
X242602Y337452D02*X237484D01*
Y331548D01*
X242602D01*
Y337452D01*
G37*
G36*
X249000Y268500D02*X257000D01*
Y260500D01*
X249000D01*
Y268500D01*
G37*
G54D18*X263000Y264500D03*
G54D19*X278480Y231823D03*
G54D16*G36*
X280500Y291000D02*Y299500D01*
X282500D01*
Y291000D01*
X280500D01*
G37*
G36*
X285500D02*Y299500D01*
X287500D01*
Y291000D01*
X285500D01*
G37*
G36*
X235369Y298240D02*X230251D01*
Y290760D01*
X235369D01*
Y298240D01*
G37*
G36*
X287500Y320000D02*Y311500D01*
X285500D01*
Y320000D01*
X287500D01*
G37*
G36*
X290500Y291000D02*Y299500D01*
X292500D01*
Y291000D01*
X290500D01*
G37*
G36*
X292500Y320000D02*Y311500D01*
X290500D01*
Y320000D01*
X292500D01*
G37*
G54D15*X236500Y197000D03*
X272000D03*
G54D16*G36*
X274543Y208201D02*X282417D01*
Y216075D01*
X274543D01*
Y208201D01*
G37*
G54D15*X126500Y189500D03*
G54D20*X155506Y172276D03*
G54D21*X217190Y189000D03*
G54D16*G36*
X195121Y166256D02*Y158185D01*
X209491D01*
Y166256D01*
X195121D01*
G37*
G36*
X197249Y192740D02*X192131D01*
Y185260D01*
X197249D01*
Y192740D01*
G37*
G36*
X209059D02*X203941D01*
Y185260D01*
X209059D01*
Y192740D01*
G37*
G36*
X177654D02*X172536D01*
Y185260D01*
X177654D01*
Y192740D01*
G37*
G36*
X189464D02*X184346D01*
Y185260D01*
X189464D01*
Y192740D01*
G37*
G36*
X177654Y177740D02*X172536D01*
Y170260D01*
X177654D01*
Y177740D01*
G37*
G36*
X189464D02*X184346D01*
Y170260D01*
X189464D01*
Y177740D01*
G37*
G54D22*X120500Y91500D03*
X177826Y108570D03*
G54D16*G36*
X150585Y108299D02*X160428D01*
Y118142D01*
X150585D01*
Y108299D01*
G37*
G36*
X170641Y126106D02*Y118035D01*
X185011D01*
Y126106D01*
X170641D01*
G37*
G36*
X195121Y110256D02*Y102185D01*
X209491D01*
Y110256D01*
X195121D01*
G37*
G36*
X194362Y140165D02*X201251D01*
Y133276D01*
X194362D01*
Y140165D01*
G37*
G54D23*X207649Y136720D03*
G54D16*G36*
X222539Y157515D02*X229429D01*
Y150626D01*
X222539D01*
Y157515D01*
G37*
G54D23*X235826Y154070D03*
G54D16*G36*
X222562Y125165D02*X229451D01*
Y118276D01*
X222562D01*
Y125165D01*
G37*
G54D23*X235849Y121720D03*
G54D15*X321290Y189670D03*
X243000Y187000D03*
X262500D03*
G54D16*G36*
X294528Y190996D02*Y185878D01*
X300432D01*
Y190996D01*
X294528D01*
G37*
G36*
X308528D02*Y185878D01*
X314432D01*
Y190996D01*
X308528D01*
G37*
G36*
X294528Y198082D02*Y192964D01*
X300432D01*
Y198082D01*
X294528D01*
G37*
G54D24*X296000Y155000D03*
X286000D03*
X276000D03*
X266000D03*
G54D16*G36*
X259000Y152000D02*X253000D01*
Y158000D01*
X259000D01*
Y152000D01*
G37*
G36*
X328240Y192230D02*Y187112D01*
X335720D01*
Y192230D01*
X328240D01*
G37*
G54D24*X348000Y155000D03*
X338000D03*
X328000D03*
X318000D03*
G54D16*G36*
X311000Y152000D02*X305000D01*
Y158000D01*
X311000D01*
Y152000D01*
G37*
G36*
X328240Y204040D02*Y198922D01*
X335720D01*
Y204040D01*
X328240D01*
G37*
G36*
X197249Y207740D02*X192131D01*
Y200260D01*
X197249D01*
Y207740D01*
G37*
G36*
X209059D02*X203941D01*
Y200260D01*
X209059D01*
Y207740D01*
G37*
G36*
X122760Y202749D02*Y197631D01*
X130240D01*
Y202749D01*
X122760D01*
G37*
G36*
X308528Y198082D02*Y192964D01*
X314432D01*
Y198082D01*
X308528D01*
G37*
G54D15*X128500Y262000D03*
G54D16*G36*
X137016Y235952D02*X131898D01*
Y230048D01*
X137016D01*
Y235952D01*
G37*
G36*
X113646Y243146D02*X119354D01*
Y248854D01*
X113646D01*
Y243146D01*
G37*
G54D25*X116500Y265685D03*
G54D16*G36*
X148000Y246000D02*X156000D01*
Y238000D01*
X148000D01*
Y246000D01*
G37*
G54D18*X152000Y232000D03*
G54D16*G36*
X144102Y235952D02*X138984D01*
Y230048D01*
X144102D01*
Y235952D01*
G37*
G54D25*X102500Y233000D03*
G54D16*G36*
X134260Y248654D02*Y243536D01*
X141740D01*
Y248654D01*
X134260D01*
G37*
G36*
Y260464D02*Y255346D01*
X141740D01*
Y260464D01*
X134260D01*
G37*
G36*
X185048Y284602D02*Y279484D01*
X190952D01*
Y284602D01*
X185048D01*
G37*
G54D18*X182000Y242000D03*
Y232000D03*
G54D16*G36*
X195559Y245740D02*X190441D01*
Y238260D01*
X195559D01*
Y245740D01*
G37*
G36*
Y260740D02*X190441D01*
Y253260D01*
X195559D01*
Y260740D01*
G37*
G36*
X159000Y270500D02*Y278500D01*
X167000D01*
Y270500D01*
X159000D01*
G37*
G54D18*X163000Y284500D03*
G54D16*G36*
X95800Y279800D02*X106200D01*
Y290200D01*
X95800D01*
Y279800D01*
G37*
G36*
X123800D02*X134200D01*
Y290200D01*
X123800D01*
Y279800D01*
G37*
G36*
X185048Y277516D02*Y272398D01*
X190952D01*
Y277516D01*
X185048D01*
G37*
G36*
X198048D02*Y272398D01*
X203952D01*
Y277516D01*
X198048D01*
G37*
G36*
Y284602D02*Y279484D01*
X203952D01*
Y284602D01*
X198048D01*
G37*
G36*
X219000Y268500D02*X227000D01*
Y260500D01*
X219000D01*
Y268500D01*
G37*
G54D15*X284000Y278500D03*
G54D16*G36*
X294760Y275154D02*Y270036D01*
X302240D01*
Y275154D01*
X294760D01*
G37*
G36*
Y286964D02*Y281846D01*
X302240D01*
Y286964D01*
X294760D01*
G37*
G54D18*X233000Y264500D03*
G54D16*G36*
X207369Y260740D02*X202251D01*
Y253260D01*
X207369D01*
Y260740D01*
G37*
G54D18*X152000Y222000D03*
G54D16*G36*
X137016Y223452D02*X131898D01*
Y217548D01*
X137016D01*
Y223452D01*
G37*
G36*
X144102D02*X138984D01*
Y217548D01*
X144102D01*
Y223452D01*
G37*
G54D18*X182000Y222000D03*
G54D16*G36*
X229334Y236016D02*Y227945D01*
X243704D01*
Y236016D01*
X229334D01*
G37*
G36*
X206834Y226016D02*Y217945D01*
X221204D01*
Y226016D01*
X206834D01*
G37*
G36*
X207369Y245740D02*X202251D01*
Y238260D01*
X207369D01*
Y245740D01*
G37*
G54D18*X152000Y212000D03*
G54D16*G36*
X122760Y214559D02*Y209441D01*
X130240D01*
Y214559D01*
X122760D01*
G37*
G36*
X99646Y210461D02*X105354D01*
Y216169D01*
X99646D01*
Y210461D01*
G37*
G54D18*X182000Y212000D03*
G54D26*X312500Y323000D03*
G54D16*G36*
X323559Y326740D02*X318441D01*
Y319260D01*
X323559D01*
Y326740D01*
G37*
G36*
X335369D02*X330251D01*
Y319260D01*
X335369D01*
Y326740D01*
G37*
G36*
X319000Y308500D02*X327000D01*
Y300500D01*
X319000D01*
Y308500D01*
G37*
G54D15*X331500Y244000D03*
G54D16*G36*
X343315Y327036D02*Y318964D01*
X357685D01*
Y327036D01*
X343315D01*
G37*
G36*
X335240Y218134D02*Y213016D01*
X342720D01*
Y218134D01*
X335240D01*
G37*
G36*
Y229945D02*Y224826D01*
X342720D01*
Y229945D01*
X335240D01*
G37*
G54D18*X333000Y304500D03*
G54D16*G36*
X305980Y206980D02*Y215480D01*
X307980D01*
Y206980D01*
X305980D01*
G37*
G36*
X307980Y235980D02*Y227480D01*
X305980D01*
Y235980D01*
X307980D01*
G37*
G36*
X314154Y247740D02*X309036D01*
Y240260D01*
X314154D01*
Y247740D01*
G37*
G36*
X310980Y206980D02*Y215480D01*
X312980D01*
Y206980D01*
X310980D01*
G37*
G36*
X315980D02*Y215480D01*
X317980D01*
Y206980D01*
X315980D01*
G37*
G36*
X320980D02*Y215480D01*
X322980D01*
Y206980D01*
X320980D01*
G37*
G36*
X312980Y235980D02*Y227480D01*
X310980D01*
Y235980D01*
X312980D01*
G37*
G36*
X317980D02*Y227480D01*
X315980D01*
Y235980D01*
X317980D01*
G37*
G36*
X322980D02*Y227480D01*
X320980D01*
Y235980D01*
X322980D01*
G37*
G36*
X325964Y247740D02*X320846D01*
Y240260D01*
X325964D01*
Y247740D01*
G37*
G36*
X319000Y260500D02*Y268500D01*
X327000D01*
Y260500D01*
X319000D01*
G37*
G54D18*X323000Y274500D03*
G54D16*G36*
X120334Y325516D02*Y317444D01*
X134704D01*
Y325516D01*
X120334D01*
G37*
G36*
X116340Y351500D02*Y344500D01*
X123340D01*
Y351500D01*
X116340D01*
G37*
G54D27*X129000Y304685D03*
G54D15*X158190Y300810D03*
G54D16*G36*
X182000Y292000D02*Y300500D01*
X184000D01*
Y292000D01*
X182000D01*
G37*
G36*
X184000Y321000D02*Y312500D01*
X182000D01*
Y321000D01*
X184000D01*
G37*
G36*
X160749Y315145D02*X155631D01*
Y307665D01*
X160749D01*
Y315145D01*
G37*
G36*
X172559D02*X167441D01*
Y307665D01*
X172559D01*
Y315145D01*
G37*
G36*
X187000Y292000D02*Y300500D01*
X189000D01*
Y292000D01*
X187000D01*
G37*
G36*
X189000Y321000D02*Y312500D01*
X187000D01*
Y321000D01*
X189000D01*
G37*
G36*
X194000D02*Y312500D01*
X192000D01*
Y321000D01*
X194000D01*
G37*
G36*
X192000Y292000D02*Y300500D01*
X194000D01*
Y292000D01*
X192000D01*
G37*
G36*
X197000D02*Y300500D01*
X199000D01*
Y292000D01*
X197000D01*
G37*
G36*
X199000Y321000D02*Y312500D01*
X197000D01*
Y321000D01*
X199000D01*
G37*
G36*
X202548Y331016D02*Y325898D01*
X208452D01*
Y331016D01*
X202548D01*
G37*
G54D26*X297500Y308000D03*
G54D28*X315500Y371500D03*
G54D16*G36*
X235516Y337452D02*X230398D01*
Y331548D01*
X235516D01*
Y337452D01*
G37*
G54D17*X253000Y357500D03*
G54D16*G36*
X257150Y363350D02*Y371650D01*
X248850D01*
Y363350D01*
X257150D01*
G37*
G36*
X202548Y338102D02*Y332984D01*
X208452D01*
Y338102D01*
X202548D01*
G37*
G36*
X207760Y308869D02*Y303751D01*
X215240D01*
Y308869D01*
X207760D01*
G37*
G36*
X229000Y318500D02*X237000D01*
Y310500D01*
X229000D01*
Y318500D01*
G37*
G36*
X190048Y331016D02*Y325898D01*
X195952D01*
Y331016D01*
X190048D01*
G37*
G36*
Y338102D02*Y332984D01*
X195952D01*
Y338102D01*
X190048D01*
G37*
G54D17*X253000Y387500D03*
X193500Y347500D03*
Y357500D03*
G54D16*G36*
X197650Y363350D02*Y371650D01*
X189350D01*
Y363350D01*
X197650D01*
G37*
G54D17*X193500Y387500D03*
G54D16*G36*
X176430Y343952D02*X171312D01*
Y338048D01*
X176430D01*
Y343952D01*
G37*
G36*
X183516D02*X178398D01*
Y338048D01*
X183516D01*
Y343952D01*
G37*
G36*
X176473Y331452D02*X171355D01*
Y325548D01*
X176473D01*
Y331452D01*
G37*
G36*
X183559D02*X178441D01*
Y325548D01*
X183559D01*
Y331452D01*
G37*
G54D28*X355500Y371500D03*
G54D16*G36*
X331563Y355437D02*Y347563D01*
X339437D01*
Y355437D01*
X331563D01*
G37*
G54D19*X325500Y351500D03*
G54D28*X93540Y373000D03*
X133540D03*
G54D16*G36*
X160000Y384000D02*X168000D01*
Y376000D01*
X160000D01*
Y384000D01*
G37*
G54D15*X107240Y348000D03*
G54D16*G36*
X96815Y325536D02*Y317464D01*
X111185D01*
Y325536D01*
X96815D01*
G37*
G54D27*X101000Y304685D03*
G54D15*X113540Y358000D03*
X221000Y342000D03*
Y327000D03*
G54D16*G36*
X207760Y297059D02*Y291941D01*
X215240D01*
Y297059D01*
X207760D01*
G37*
G36*
X223559Y298240D02*X218441D01*
Y290760D01*
X223559D01*
Y298240D01*
G37*
G54D26*X206500Y288000D03*
G54D21*X215500Y249500D03*
X217190Y204000D03*
G54D13*G54D29*G54D13*G54D30*G54D31*G54D13*G54D31*G54D13*G54D32*G54D30*G54D24*G54D32*G54D33*G54D13*G54D34*G54D13*G54D35*G54D30*G54D35*G54D30*G54D36*G54D30*G54D13*G54D30*G54D35*G54D30*G54D12*G54D30*G54D13*G54D30*G54D13*G54D36*G54D13*G54D12*G54D37*G54D29*G54D30*G54D29*G54D37*G54D13*G54D37*G54D30*G54D13*G54D36*G54D13*G54D12*G54D30*M02*
