G04 start of page 2 for group 9 layer_idx 9 *
G04 Title: (unknown), bottom_mask *
G04 Creator: pcb-rnd 2.2.2 *
G04 CreationDate: 2020-09-08 21:13:47 UTC *
G04 For:  *
G04 Format: Gerber/RS-274X *
G04 PCB-Dimensions: 500000 500000 *
G04 PCB-Coordinate-Origin: lower left *
%MOIN*%
%FSLAX25Y25*%
%LNBOTTOM_MASK_NONE_9*%
%ADD91C,0.0890*%
%ADD90C,0.1083*%
%ADD89C,0.1639*%
%ADD88C,0.0759*%
%ADD87C,0.0630*%
%ADD86C,0.1678*%
%ADD85C,0.0660*%
%ADD84C,0.0886*%
%ADD83C,0.0846*%
%ADD82C,0.0860*%
%ADD81C,0.0001*%
G54D81*G36*
X147700Y246300D02*X156300D01*
Y237700D01*
X147700D01*
Y246300D01*
G37*
G54D82*X152000Y232000D03*
X182000Y242000D03*
Y232000D03*
Y222000D03*
G54D81*G36*
X165227Y230731D02*Y225013D01*
X173307D01*
Y230731D01*
X165227D01*
G37*
G54D82*X152000Y222000D03*
Y212000D03*
X182000D03*
G54D81*G36*
X165227Y218921D02*Y213203D01*
X173307D01*
Y218921D01*
X165227D01*
G37*
G54D83*X278480Y231823D03*
G54D81*G36*
X274243Y207901D02*X282717D01*
Y216375D01*
X274243D01*
Y207901D01*
G37*
G36*
X331071Y355929D02*Y347071D01*
X339929D01*
Y355929D01*
X331071D01*
G37*
G54D84*X325500Y351500D03*
G54D85*X338000Y155000D03*
X328000D03*
G54D82*X333000Y304500D03*
G54D85*X348000Y155000D03*
X318000D03*
G54D81*G36*
X311300Y151700D02*X304700D01*
Y158300D01*
X311300D01*
Y151700D01*
G37*
G54D85*X296000Y155000D03*
X286000D03*
X276000D03*
X266000D03*
G54D81*G36*
X318700Y308800D02*X327300D01*
Y300200D01*
X318700D01*
Y308800D01*
G37*
G54D86*X315500Y371500D03*
G54D81*G36*
X289700Y375700D02*Y384300D01*
X298300D01*
Y375700D01*
X289700D01*
G37*
G54D86*X355500Y371500D03*
G54D87*X105000Y289000D03*
X128000Y303500D03*
G54D81*G36*
X148700Y290200D02*Y298800D01*
X157300D01*
Y290200D01*
X148700D01*
G37*
G54D82*X153000Y304500D03*
G54D81*G36*
X101846Y266161D02*X108154D01*
Y272469D01*
X101846D01*
Y266161D01*
G37*
G36*
X124846Y280661D02*X131154D01*
Y286969D01*
X124846D01*
Y280661D01*
G37*
G36*
X109460Y370954D02*Y365236D01*
X117540D01*
Y370954D01*
X109460D01*
G37*
G54D88*X107240Y348000D03*
G54D81*G36*
X116045Y351795D02*Y344205D01*
X123635D01*
Y351795D01*
X116045D01*
G37*
G54D88*X113540Y358000D03*
G54D81*G36*
X109460Y382764D02*Y377046D01*
X117540D01*
Y382764D01*
X109460D01*
G37*
G54D89*X93540Y373000D03*
X133540D03*
G54D81*G36*
X128731Y123476D02*Y137453D01*
X144282D01*
Y123476D01*
X128731D01*
G37*
G36*
Y147098D02*Y161075D01*
X144282D01*
Y147098D01*
X128731D01*
G37*
G54D90*X155506Y172276D03*
G54D81*G36*
X150093Y107807D02*X160920D01*
Y118634D01*
X150093D01*
Y107807D01*
G37*
G36*
X221684Y158370D02*X230284D01*
Y149770D01*
X221684D01*
Y158370D01*
G37*
G54D82*X235826Y154070D03*
G54D81*G36*
X259300Y151700D02*X252700D01*
Y158300D01*
X259300D01*
Y151700D01*
G37*
G36*
X193506Y141020D02*X202106D01*
Y132420D01*
X193506D01*
Y141020D01*
G37*
G54D82*X207649Y136720D03*
G54D81*G36*
X221706Y126020D02*X230306D01*
Y117420D01*
X221706D01*
Y126020D01*
G37*
G54D82*X235849Y121720D03*
G54D81*G36*
X218700Y268800D02*X227300D01*
Y260200D01*
X218700D01*
Y268800D01*
G37*
G54D82*X233000Y264500D03*
G54D91*X193500Y347500D03*
X253000D03*
Y357500D03*
X193500D03*
Y367500D03*
Y387500D03*
X253000Y367500D03*
Y387500D03*
G54D81*G36*
X248700Y268800D02*X257300D01*
Y260200D01*
X248700D01*
Y268800D01*
G37*
G54D82*X263000Y264500D03*
M02*
