G04 start of page 2 for group 9 layer_idx 9 *
G04 Title: (unknown), bottom_mask *
G04 Creator: pcb-rnd 2.2.0 *
G04 CreationDate: 2020-04-17 22:41:23 UTC *
G04 For:  *
G04 Format: Gerber/RS-274X *
G04 PCB-Dimensions: 500000 500000 *
G04 PCB-Coordinate-Origin: lower left *
%MOIN*%
%FSLAX25Y25*%
%LNBOTTOM_MASK_NONE_9*%
%ADD80C,0.1083*%
%ADD79C,0.0860*%
%ADD78C,0.0660*%
%ADD77C,0.0886*%
%ADD76C,0.1678*%
%ADD75C,0.1690*%
%ADD74C,0.0001*%
%ADD73C,0.0810*%
G54D73*X107093Y336000D03*
X119693D03*
X113393Y346000D03*
G54D74*G36*
X125454Y358540D02*X119736D01*
Y350460D01*
X125454D01*
Y358540D01*
G37*
G36*
X137264D02*X131546D01*
Y350460D01*
X137264D01*
Y358540D01*
G37*
G54D75*X93393Y371000D03*
X133393D03*
G54D74*G36*
X278700Y376200D02*Y384800D01*
X287300D01*
Y376200D01*
X278700D01*
G37*
G54D76*X315400Y369500D03*
G54D77*X325400Y349500D03*
G54D74*G36*
X308300Y225200D02*X301700D01*
Y231800D01*
X308300D01*
Y225200D01*
G37*
G54D78*X295000Y228500D03*
X285000D03*
X275000D03*
X329674Y228430D03*
X319674D03*
G54D74*G36*
X336880Y268950D02*X345480D01*
Y260350D01*
X336880D01*
Y268950D01*
G37*
G54D79*X351023Y264650D03*
G54D74*G36*
X336857Y301300D02*X345457D01*
Y292700D01*
X336857D01*
Y301300D01*
G37*
G54D79*X351000Y297000D03*
G54D76*X355400Y369500D03*
G54D74*G36*
X362974Y225130D02*X356374D01*
Y231730D01*
X362974D01*
Y225130D01*
G37*
G54D78*X349674Y228430D03*
X339674D03*
G54D74*G36*
X330971Y353929D02*Y345071D01*
X339829D01*
Y353929D01*
X330971D01*
G37*
G36*
X308680Y283950D02*X317280D01*
Y275350D01*
X308680D01*
Y283950D01*
G37*
G54D79*X322823Y279650D03*
G54D74*G36*
X196933Y368833D02*X205533D01*
Y360233D01*
X196933D01*
Y368833D01*
G37*
G54D79*X231233Y364533D03*
X201233Y354533D03*
X231233D03*
X201233Y344533D03*
Y334533D03*
G54D74*G36*
X209960Y341454D02*Y335736D01*
X218040D01*
Y341454D01*
X209960D01*
G37*
G36*
Y353264D02*Y347546D01*
X218040D01*
Y353264D01*
X209960D01*
G37*
G54D79*X231233Y344533D03*
Y334533D03*
G54D74*G36*
X203078Y301737D02*Y293263D01*
X211552D01*
Y301737D01*
X203078D01*
G37*
G54D80*X155500Y254500D03*
G54D74*G36*
X128724Y205701D02*Y219677D01*
X144276D01*
Y205701D01*
X128724D01*
G37*
G36*
X150087Y190031D02*X160913D01*
Y200858D01*
X150087D01*
Y190031D01*
G37*
G36*
X124846Y280661D02*X131154D01*
Y286969D01*
X124846D01*
Y280661D01*
G37*
G36*
X128724Y229323D02*Y243299D01*
X144276D01*
Y229323D01*
X128724D01*
G37*
G36*
X101846Y266161D02*X108154D01*
Y272469D01*
X101846D01*
Y266161D01*
G37*
G54D78*X265000Y228500D03*
M02*
