M48
INCH
T21C0.028
T20C0.037
T19C0.042
T18C0.060
T17C0.030
T16C0.079
T15C0.043
T14C0.039
T13C0.035
T12C0.026
T11C0.020
%
T11
G05
X010500Y032400
T12
X012800Y028381
X012800Y030350
X010500Y026931
X010500Y028900
T21
X022598Y015407
X023583Y015407
X019781Y013672
X020765Y013672
X022601Y012172
X023585Y012172
T17
X027848Y023182
X027848Y021214
T13
X010377Y024197
X010377Y022697
X026100Y033400
X010724Y034800
X011984Y034800
X011354Y035800
X030008Y024279
X032129Y018967
X010377Y021197
X010377Y019697
X033550Y035150
X032550Y035150
T20
X015551Y017228
X015551Y011322
T14
X015200Y024200
X015200Y023200
X018200Y024200
X018200Y023200
X018200Y022200
X015200Y022200
X023027Y023197
X023027Y021697
X015200Y021200
X018200Y021200
X029400Y038000
T19
X032650Y015500
X031650Y015500
X030183Y015507
X029183Y015507
X028183Y015507
X027183Y015507
X026183Y015507
X035650Y015500
X034650Y015500
X033650Y015500
T15
X025300Y034750
X019350Y034750
X025300Y035750
X019350Y035750
X025300Y036750
X019350Y036750
X025300Y038750
X019350Y038750
T18
X031650Y012760
X017783Y010857
T16
X009354Y037300
X013354Y037300
X031550Y037150
X035550Y037150
M30
