G04 start of page 2 for group 3 layer_idx 0 *
G04 Title: (unknown), top_copper *
G04 Creator: pcb-rnd 2.2.1 *
G04 CreationDate: 2020-06-04 19:14:55 UTC *
G04 For:  *
G04 Format: Gerber/RS-274X *
G04 PCB-Dimensions: 500000 500000 *
G04 PCB-Coordinate-Origin: lower left *
%MOIN*%
%FSLAX25Y25*%
%LNTOP_COPPER_NONE_3*%
%ADD35C,0.0374*%
%ADD34C,0.0276*%
%ADD33C,0.0420*%
%ADD32C,0.0256*%
%ADD31C,0.0790*%
%ADD30C,0.0295*%
%ADD29C,0.0430*%
%ADD28C,0.0394*%
%ADD27C,0.0984*%
%ADD26C,0.0689*%
%ADD25C,0.0600*%
%ADD24C,0.1000*%
%ADD23C,0.0571*%
%ADD22C,0.1580*%
%ADD21C,0.0400*%
%ADD20C,0.0787*%
%ADD19C,0.0830*%
%ADD18C,0.0866*%
%ADD17C,0.0001*%
%ADD16C,0.0800*%
%ADD15C,0.0700*%
%ADD14C,0.0090*%
%ADD13C,0.0200*%
%ADD12C,0.0650*%
%ADD11C,0.0350*%
G54D11*X119840Y348000D02*X128000Y339840D01*
G54D12*X101000Y358000D02*X87500Y344500D01*
X101000Y358000D02*X113390D01*
G54D11*X128000Y303500D02*Y318000D01*
Y339840D02*Y317500D01*
X107240Y348000D02*Y327740D01*
X105000Y307500D02*Y289000D01*
X128000Y273000D02*Y283815D01*
G54D12*X152500Y348500D02*Y285000D01*
G54D11*X107240Y327740D02*X105000Y325500D01*
Y307540D01*
X104980Y307520D01*
X120500Y253815D02*X105000Y269315D01*
X126267Y241967D02*Y271267D01*
X128000Y273000D01*
G54D12*X152500Y285000D02*X163000Y274500D01*
G54D13*X165500Y304500D02*X163500Y306500D01*
Y326457D02*X163457Y326500D01*
X163500Y306500D02*Y341500D01*
G54D12*X87500Y344500D02*Y185000D01*
X100224Y172276D02*Y111776D01*
X120500Y91500D01*
X113540Y358000D02*X142500D01*
X152000Y367500D01*
Y379500D01*
X160000Y387500D01*
X170000Y377000D02*X162500Y369500D01*
Y358500D01*
G54D13*X193500Y367500D02*X202043D01*
G54D12*X268000Y377000D02*X170000D01*
G54D13*X236957Y357500D02*X236000Y356543D01*
G54D12*X222500Y358500D02*Y377000D01*
G54D13*X202043Y367500D02*X213000Y356543D01*
G54D12*X160000Y387500D02*X286500D01*
G54D13*X179500Y357500D02*X193500D01*
X253000D02*X236957D01*
G54D12*X286500Y387500D02*X294000Y380000D01*
X304000Y341000D02*X268000Y377000D01*
G54D11*X256957Y334543D02*X253000Y338500D01*
Y347500D01*
X281500Y342405D02*Y351000D01*
X264043Y297000D02*Y323500D01*
X256957D02*Y334543D01*
G54D13*X281500Y318000D02*Y324000D01*
X269043Y305500D02*X264043Y310500D01*
X256957D02*Y311043D01*
G54D12*X304000Y317500D02*Y341000D01*
G54D11*X281500Y330595D02*X303905D01*
X304000Y330500D01*
X281500Y324000D02*Y330500D01*
X281595Y330595D01*
G54D13*X286500Y305500D02*Y306000D01*
X300000Y310500D02*X295000Y305500D01*
X269043D02*X295000D01*
X286500Y306000D02*Y318000D01*
G54D11*X237500Y297500D02*X243810D01*
X244000Y297690D01*
Y309500D02*Y317500D01*
Y309500D02*X237000D01*
X232000Y314500D01*
Y319000D01*
X230000Y321000D01*
X244000Y317500D02*Y319000D01*
G54D13*X256957Y311043D02*X250000Y318000D01*
Y332500D01*
X244500Y338000D01*
Y357500D01*
G54D12*X162500Y358500D02*X152500Y348500D01*
G54D13*X163500Y341500D02*X179500Y357500D01*
X170586Y312000D02*Y326457D01*
X170543Y326500D01*
X205000D01*
X201457Y335000D02*Y339543D01*
X193500Y347500D01*
X205000Y326500D02*X208500Y330000D01*
Y334957D01*
X208543Y335000D01*
X213000Y349457D02*Y339457D01*
X208000Y334457D01*
X213000Y349457D02*X236000D01*
G54D11*X230000Y321000D02*X214500D01*
X244000Y319000D02*X222500Y340500D01*
G54D13*X193000Y326500D02*Y319000D01*
X188000D02*Y311000D01*
X192000Y307000D01*
G54D11*X207095D01*
X212095Y312000D01*
Y318595D01*
X214500Y321000D01*
X223905Y312000D02*Y310095D01*
X230500Y303500D01*
G54D12*X350500Y323000D02*Y334400D01*
X335400Y349500D01*
X311000Y310500D02*X304000Y317500D01*
G54D13*X321000Y323000D02*X312500D01*
G54D11*X332810D02*X350500D01*
G54D12*X311000Y310500D02*X316500Y305000D01*
G54D13*X321980Y208980D02*Y204980D01*
X316980Y208980D02*Y193980D01*
G54D12*X345500Y257000D02*X313500D01*
G54D11*X312000Y255500D02*Y246020D01*
X311980Y246000D01*
X323810D02*X334000D01*
X126267Y211967D02*X151967D01*
X152000Y232000D02*X136235D01*
X152000Y222000D02*X131235D01*
X126267Y226967D02*Y225467D01*
Y196967D02*Y211967D01*
X151967D02*X152000Y212000D01*
X131235Y222000D02*X126267Y226967D01*
Y196500D02*X131830D01*
X182000Y232000D02*X207735D01*
X173172Y228872D02*X176267Y231967D01*
X180202D01*
X180235Y232000D01*
X207750Y231985D02*X207767Y231967D01*
X173172Y212372D02*Y228872D01*
X199000Y214500D02*X191500Y222000D01*
X182000D01*
X199000Y197000D02*Y214500D01*
X154767Y193967D02*X173172Y212372D01*
X182000Y212000D02*Y191500D01*
X186500Y187000D01*
X148077Y193967D02*X154767D01*
X131830Y196500D02*X134362Y193967D01*
Y184638D01*
X126267Y226967D02*X120500Y232735D01*
G54D12*X155506Y172276D02*X100224D01*
X87500Y185000D01*
X165500Y184500D02*X134500D01*
G54D11*X134362Y184638D02*X134500Y184500D01*
G54D12*X202306Y173194D02*X198500Y177000D01*
X173000D01*
X165500Y184500D01*
X202306Y173306D02*X206000Y177000D01*
G54D11*X207735Y232000D02*X207767Y231967D01*
Y216967D01*
X219577Y231967D02*X230267D01*
X219577Y216967D02*X230267D01*
G54D13*X278500Y245500D02*Y231843D01*
X278480Y231823D01*
G54D11*X272000Y197000D03*
X236500D02*X242500Y203000D01*
G54D12*X253000Y177000D02*Y264000D01*
G54D11*X242000Y186000D02*X243000Y187000D01*
X262500D03*
X262500Y215843D01*
X242500Y239500D02*Y203000D01*
X262500Y215843D02*X278500Y231843D01*
G54D12*X284000Y264500D02*X252500D01*
G54D11*X272000Y197000D02*X280500Y188500D01*
X297418D02*X297480Y188438D01*
X297502Y195502D02*X301998D01*
X297418Y188500D02*X280500D01*
X301998Y195502D02*X304500Y193000D01*
Y191000D01*
X311480Y195524D02*Y201480D01*
G54D13*X311980Y201500D02*X311480Y201000D01*
X321980Y204980D02*X325480Y201480D01*
G54D11*X304500Y191000D02*X307000Y188500D01*
X311418D01*
X311480Y201480D02*X311500Y201500D01*
X311418Y188500D02*X311480Y188438D01*
X311500Y201500D02*X289118D01*
X278480Y212138D01*
G54D13*X311980Y208980D02*Y201500D01*
Y233980D02*Y245980D01*
X312000Y246000D01*
X316980Y233980D02*Y225980D01*
G54D12*X313500Y257000D02*X312000Y255500D01*
G54D11*X298500Y272595D02*X289905D01*
X307000Y267000D02*X304500Y264500D01*
G54D12*X284000D02*X304500D01*
G54D13*X316980Y225980D02*X315000Y224000D01*
X286500D01*
X278578Y231922D01*
G54D11*X278480Y231480D02*Y231823D01*
X207750Y248750D02*Y231985D01*
X199000Y197000D02*X236500D01*
X211000Y271000D02*X242500Y239500D01*
X186500Y187000D02*X243000D01*
X114267Y226777D02*X114457Y226967D01*
X103767Y196967D02*X114457D01*
X103767Y211967D02*X114457D01*
X103767Y226967D02*X114457D01*
X103767Y241967D02*X114457D01*
X136235Y232000D02*X126267Y241967D01*
X152000Y242000D02*Y249105D01*
X160862Y257967D01*
X126267Y241967D02*Y240967D01*
X120500Y232735D02*Y253815D01*
X182000Y242000D02*Y248640D01*
X172672Y257967D01*
G54D12*X163000Y274500D02*X173000D01*
X190500Y257000D01*
G54D11*X192000Y274914D02*X200086D01*
X204000Y271000D01*
G54D13*X188000Y286000D02*X192000Y282000D01*
G54D11*X198500Y285000D02*X205500D01*
X208500Y282000D01*
X204000Y271000D03*
D03*
X211000D01*
G54D13*X188000Y286000D02*Y302000D01*
X193000Y294000D02*Y290500D01*
X198500Y285000D01*
X198000Y294000D02*X211000D01*
X212000Y295000D01*
G54D11*Y291000D01*
X215500Y287500D01*
X227500D01*
X237500Y297500D01*
X244000D02*Y276500D01*
Y273500D02*Y273000D01*
G54D12*X244250Y273250D02*Y272750D01*
Y287750D02*Y273250D01*
G54D11*X244000Y273000D02*X252500Y264500D01*
G54D12*X244250Y272750D02*X253000Y264000D01*
G54D11*X223810Y295000D02*Y296810D01*
X230500Y303500D01*
G54D13*X188000Y302000D02*X185500Y304500D01*
X165500D01*
G54D11*X256957Y297000D02*Y310500D01*
G54D13*X262000Y284500D02*X257000Y289500D01*
Y296914D01*
X256957Y296957D01*
X281500Y293000D02*Y289000D01*
X277000Y284500D01*
X262000D01*
X286500Y293000D02*Y287000D01*
X291500Y293000D02*Y287000D01*
X286500D02*X284000Y284500D01*
X291500Y287000D02*X294000Y284500D01*
X298405D01*
X298500Y284405D01*
G54D11*X304595D01*
X307000Y282000D01*
Y267000D01*
G54D12*X316500Y305000D02*Y257000D01*
G54D13*X284000Y284500D02*Y278500D01*
G54D11*X289905Y272595D02*X284000Y278500D01*
G54D12*X190500Y257000D02*X199500D01*
X207500Y249000D01*
G54D13*X325480Y201480D02*X331980D01*
X311980Y196024D02*X311480Y195524D01*
X297523Y195480D02*X297480Y195524D01*
X316980Y193980D02*X321290Y189670D01*
G54D12*X346500Y185000D02*Y197000D01*
X320826Y144070D02*X274826D01*
X261826Y155070D02*Y136670D01*
X274826Y144070D02*X274576Y144320D01*
X271826Y147070D02*X274326Y144570D01*
X301826Y155070D02*Y162326D01*
X307500Y168000D01*
G54D11*X321290Y189670D02*X331980D01*
G54D12*X326500Y155000D02*Y149397D01*
Y149744D02*X320826Y144070D01*
X326500Y155000D02*Y149744D01*
X338500Y177000D02*X346500Y185000D01*
X271826Y147070D02*Y164674D01*
X268500Y168000D01*
X249756D01*
X307500D02*X356500D01*
X206000Y177000D02*X338500D01*
X249756Y168000D02*X235826Y154070D01*
X270897Y127600D02*X261826Y136670D01*
X316500Y127600D02*X270897D01*
X232500Y100000D02*X343500D01*
X356500Y113000D01*
X316450Y127650D02*X316500Y127600D01*
X202153Y160567D02*X202306Y160720D01*
X197806Y127720D02*Y136720D01*
X207733D02*Y146061D01*
X202153Y151641D02*Y160567D01*
X235826Y142740D02*Y154070D01*
X203806Y121720D02*X197806Y127720D01*
X207806Y136720D02*X229806D01*
X207733Y146061D02*X202153Y151641D01*
X202306Y162220D02*Y173194D01*
Y162220D02*Y173306D01*
X177826Y122070D02*Y108570D01*
X202306Y107090D02*Y121720D01*
X226006D02*X203806D01*
X226000D02*Y106500D01*
X232500Y100000D01*
X202326Y107070D02*X202306Y107090D01*
X229806Y136720D02*X235806Y142720D01*
G54D11*X332480Y209076D02*X338980Y215576D01*
G54D13*X338885Y227480D02*X338980Y227386D01*
G54D11*X356386D01*
X332480Y209076D02*Y201480D01*
G54D12*X356500Y113000D02*Y246000D01*
X346500Y197000D02*X342000Y201500D01*
G54D11*X332000D01*
X331980Y201480D01*
G54D12*X356500Y246000D02*X345500Y257000D01*
G54D14*X346500Y306500D02*Y305500D01*
X347500Y306500D02*Y305500D01*
X349200Y306000D02*Y302500D01*
Y306000D02*X349700Y306500D01*
X350200D01*
X348700Y304500D02*X349700D01*
X352700D02*X353200Y304000D01*
X351700Y304500D02*X352700D01*
X351200Y304000D02*X351700Y304500D01*
X351200Y304000D02*Y303000D01*
X351700Y302500D01*
X353200Y304500D02*Y303000D01*
X353700Y302500D01*
X351700D02*X352700D01*
X353200Y303000D01*
X355400Y304000D02*Y302500D01*
Y304000D02*X355900Y304500D01*
X356400D01*
X356900Y304000D01*
Y302500D01*
X354900Y304500D02*X355400Y304000D01*
X358600Y304500D02*X360100D01*
X358100Y304000D02*X358600Y304500D01*
X358100Y304000D02*Y303000D01*
X358600Y302500D01*
X360100D01*
X361300Y304500D02*Y303000D01*
X361800Y302500D01*
X363300Y304500D02*Y301500D01*
X362800Y301000D02*X363300Y301500D01*
X361800Y301000D02*X362800D01*
X361300Y301500D02*X361800Y301000D01*
Y302500D02*X362800D01*
X363300Y303000D01*
X364500Y306500D02*Y305500D01*
X365500Y306500D02*Y305500D01*
G54D15*X103767Y226967D03*
Y241967D03*
G54D16*X152000Y232000D03*
G54D17*G36*
X117016Y245707D02*X111898D01*
Y238227D01*
X117016D01*
Y245707D01*
G37*
G36*
X128826D02*X123708D01*
Y238227D01*
X128826D01*
Y245707D01*
G37*
G54D16*X182000Y242000D03*
Y232000D03*
Y222000D03*
G54D18*X230267Y231967D03*
Y216967D03*
G54D17*G36*
X210326Y235707D02*X205208D01*
Y228227D01*
X210326D01*
Y235707D01*
G37*
G36*
X222136D02*X217018D01*
Y228227D01*
X222136D01*
Y235707D01*
G37*
G36*
X210326Y220707D02*X205208D01*
Y213227D01*
X210326D01*
Y220707D01*
G37*
G36*
X222136D02*X217018D01*
Y213227D01*
X222136D01*
Y220707D01*
G37*
G54D16*X152000Y222000D03*
X182000Y212000D03*
G54D17*G36*
X117016Y230707D02*X111898D01*
Y223227D01*
X117016D01*
Y230707D01*
G37*
G36*
Y215707D02*X111898D01*
Y208227D01*
X117016D01*
Y215707D01*
G37*
G36*
X128826Y230707D02*X123708D01*
Y223227D01*
X128826D01*
Y230707D01*
G37*
G36*
Y215707D02*X123708D01*
Y208227D01*
X128826D01*
Y215707D01*
G37*
G54D15*X222500Y340500D03*
Y358500D03*
G54D17*G36*
X210048Y352016D02*Y346898D01*
X215952D01*
Y352016D01*
X210048D01*
G37*
G36*
Y359102D02*Y353984D01*
X215952D01*
Y359102D01*
X210048D01*
G37*
G54D15*X208500Y282000D03*
G54D17*G36*
X204016Y337952D02*X198898D01*
Y332048D01*
X204016D01*
Y337952D01*
G37*
G36*
X211102D02*X205984D01*
Y332048D01*
X211102D01*
Y337952D01*
G37*
G36*
X214654Y315740D02*X209536D01*
Y308260D01*
X214654D01*
Y315740D01*
G37*
G36*
X226464D02*X221346D01*
Y308260D01*
X226464D01*
Y315740D01*
G37*
G36*
X214559Y298740D02*X209441D01*
Y291260D01*
X214559D01*
Y298740D01*
G37*
G36*
X226369D02*X221251D01*
Y291260D01*
X226369D01*
Y298740D01*
G37*
G54D15*X230500Y303500D03*
G54D19*X253000Y347500D03*
G54D17*G36*
X233048Y352016D02*Y346898D01*
X238952D01*
Y352016D01*
X233048D01*
G37*
G54D15*X281500Y351000D03*
G54D17*G36*
X259516Y313452D02*X254398D01*
Y307548D01*
X259516D01*
Y313452D01*
G37*
G36*
Y326452D02*X254398D01*
Y320548D01*
X259516D01*
Y326452D01*
G37*
G36*
X266602D02*X261484D01*
Y320548D01*
X266602D01*
Y326452D01*
G37*
G36*
X282500Y320000D02*Y311500D01*
X280500D01*
Y320000D01*
X282500D01*
G37*
G36*
X240260Y312059D02*Y306941D01*
X247740D01*
Y312059D01*
X240260D01*
G37*
G36*
X266602Y313452D02*X261484D01*
Y307548D01*
X266602D01*
Y313452D01*
G37*
G36*
X277760Y333154D02*Y328036D01*
X285240D01*
Y333154D01*
X277760D01*
G37*
G36*
Y344964D02*Y339846D01*
X285240D01*
Y344964D01*
X277760D01*
G37*
G36*
X275500Y291000D02*Y299500D01*
X277500D01*
Y291000D01*
X275500D01*
G37*
G36*
X277500Y320000D02*Y311500D01*
X275500D01*
Y320000D01*
X277500D01*
G37*
G36*
X280500Y291000D02*Y299500D01*
X282500D01*
Y291000D01*
X280500D01*
G37*
G36*
X285500D02*Y299500D01*
X287500D01*
Y291000D01*
X285500D01*
G37*
G36*
X287500Y320000D02*Y311500D01*
X285500D01*
Y320000D01*
X287500D01*
G37*
G36*
X240260Y300249D02*Y295131D01*
X247740D01*
Y300249D01*
X240260D01*
G37*
G36*
X259516Y299952D02*X254398D01*
Y294048D01*
X259516D01*
Y299952D01*
G37*
G36*
X266602D02*X261484D01*
Y294048D01*
X266602D01*
Y299952D01*
G37*
G54D19*X253000Y357500D03*
G54D17*G36*
X233048Y359102D02*Y353984D01*
X238952D01*
Y359102D01*
X233048D01*
G37*
G54D19*X253000Y367500D03*
Y387500D03*
X193500Y357500D03*
Y367500D03*
Y387500D03*
Y347500D03*
G54D17*G36*
X184000Y321000D02*Y312500D01*
X182000D01*
Y321000D01*
X184000D01*
G37*
G36*
X187000Y292000D02*Y300500D01*
X189000D01*
Y292000D01*
X187000D01*
G37*
G36*
X189000Y321000D02*Y312500D01*
X187000D01*
Y321000D01*
X189000D01*
G37*
G36*
X192000Y292000D02*Y300500D01*
X194000D01*
Y292000D01*
X192000D01*
G37*
G36*
X194000Y321000D02*Y312500D01*
X192000D01*
Y321000D01*
X194000D01*
G37*
G36*
X189048Y277473D02*Y272355D01*
X194952D01*
Y277473D01*
X189048D01*
G37*
G36*
Y284559D02*Y279441D01*
X194952D01*
Y284559D01*
X189048D01*
G37*
G36*
X182000Y292000D02*Y300500D01*
X184000D01*
Y292000D01*
X182000D01*
G37*
G36*
X197000D02*Y300500D01*
X199000D01*
Y292000D01*
X197000D01*
G37*
G36*
X199000Y321000D02*Y312500D01*
X197000D01*
Y321000D01*
X199000D01*
G37*
G54D15*X284000Y278500D03*
G54D17*G36*
X307980Y235980D02*Y227480D01*
X305980D01*
Y235980D01*
X307980D01*
G37*
G36*
X312980D02*Y227480D01*
X310980D01*
Y235980D01*
X312980D01*
G37*
G36*
X294760Y275154D02*Y270036D01*
X302240D01*
Y275154D01*
X294760D01*
G37*
G54D15*X334000Y246000D03*
G54D17*G36*
X310980Y206980D02*Y215480D01*
X312980D01*
Y206980D01*
X310980D01*
G37*
G36*
X317980Y235980D02*Y227480D01*
X315980D01*
Y235980D01*
X317980D01*
G37*
G36*
X322980D02*Y227480D01*
X320980D01*
Y235980D01*
X322980D01*
G37*
G36*
X305980Y206980D02*Y215480D01*
X307980D01*
Y206980D01*
X305980D01*
G37*
G36*
X315980D02*Y215480D01*
X317980D01*
Y206980D01*
X315980D01*
G37*
G36*
X320980D02*Y215480D01*
X322980D01*
Y206980D01*
X320980D01*
G37*
G54D20*X278480Y231823D03*
G54D17*G36*
X271315Y249536D02*Y241464D01*
X285685D01*
Y249536D01*
X271315D01*
G37*
G36*
X274543Y208201D02*X282417D01*
Y216075D01*
X274543D01*
Y208201D01*
G37*
G36*
X314559Y249740D02*X309441D01*
Y242260D01*
X314559D01*
Y249740D01*
G37*
G36*
X326369D02*X321251D01*
Y242260D01*
X326369D01*
Y249740D01*
G37*
G36*
X294528Y198082D02*Y192964D01*
X300432D01*
Y198082D01*
X294528D01*
G37*
G36*
X328240Y204040D02*Y198922D01*
X335720D01*
Y204040D01*
X328240D01*
G37*
G36*
X308528Y198082D02*Y192964D01*
X314432D01*
Y198082D01*
X308528D01*
G37*
G54D15*X321290Y189670D03*
G54D17*G36*
X294528Y190996D02*Y185878D01*
X300432D01*
Y190996D01*
X294528D01*
G37*
G36*
X328240Y192230D02*Y187112D01*
X335720D01*
Y192230D01*
X328240D01*
G37*
G36*
X308528Y190996D02*Y185878D01*
X314432D01*
Y190996D01*
X308528D01*
G37*
G36*
X191815Y201036D02*Y192964D01*
X206185D01*
Y201036D01*
X191815D01*
G37*
G36*
X335240Y218134D02*Y213016D01*
X342720D01*
Y218134D01*
X335240D01*
G37*
G36*
Y229945D02*Y224826D01*
X342720D01*
Y229945D01*
X335240D01*
G37*
G54D21*X312500Y323000D03*
G54D22*X315500Y371500D03*
G54D20*X325500Y351500D03*
G54D21*X300000Y310500D03*
G54D17*G36*
X290000Y376000D02*Y384000D01*
X298000D01*
Y376000D01*
X290000D01*
G37*
G36*
X290500Y291000D02*Y299500D01*
X292500D01*
Y291000D01*
X290500D01*
G37*
G36*
X292500Y320000D02*Y311500D01*
X290500D01*
Y320000D01*
X292500D01*
G37*
G36*
X294760Y286964D02*Y281846D01*
X302240D01*
Y286964D01*
X294760D01*
G37*
G36*
X323559Y326740D02*X318441D01*
Y319260D01*
X323559D01*
Y326740D01*
G37*
G36*
X335369D02*X330251D01*
Y319260D01*
X335369D01*
Y326740D01*
G37*
G36*
X343315Y327036D02*Y318964D01*
X357685D01*
Y327036D01*
X343315D01*
G37*
G54D22*X355500Y371500D03*
G54D17*G36*
X331563Y355437D02*Y347563D01*
X339437D01*
Y355437D01*
X331563D01*
G37*
G36*
X120815Y322036D02*Y313964D01*
X135185D01*
Y322036D01*
X120815D01*
G37*
G36*
X97815Y311536D02*Y303464D01*
X112185D01*
Y311536D01*
X97815D01*
G37*
G54D23*X105000Y289000D03*
X128000Y303500D03*
G54D15*X103767Y211967D03*
G54D17*G36*
X102146Y266461D02*X107854D01*
Y272169D01*
X102146D01*
Y266461D01*
G37*
G36*
X125146Y280961D02*X130854D01*
Y286669D01*
X125146D01*
Y280961D01*
G37*
G54D22*X93540Y373000D03*
X133540D03*
G54D15*X107240Y348000D03*
G54D17*G36*
X116340Y351500D02*Y344500D01*
X123340D01*
Y351500D01*
X116340D01*
G37*
G54D15*X113540Y358000D03*
G54D17*G36*
X166016Y329452D02*X160898D01*
Y323548D01*
X166016D01*
Y329452D01*
G37*
G36*
X166059Y314952D02*X160941D01*
Y309048D01*
X166059D01*
Y314952D01*
G37*
G36*
X163421Y261707D02*X158303D01*
Y254227D01*
X163421D01*
Y261707D01*
G37*
G36*
X148000Y246000D02*X156000D01*
Y238000D01*
X148000D01*
Y246000D01*
G37*
G54D16*X152000Y212000D03*
G54D17*G36*
X173102Y329452D02*X167984D01*
Y323548D01*
X173102D01*
Y329452D01*
G37*
G36*
X173145Y314952D02*X168027D01*
Y309048D01*
X173145D01*
Y314952D01*
G37*
G36*
X175231Y261707D02*X170113D01*
Y254227D01*
X175231D01*
Y261707D01*
G37*
G54D15*X103767Y196967D03*
X236500Y197000D03*
G54D17*G36*
X117016Y200707D02*X111898D01*
Y193227D01*
X117016D01*
Y200707D01*
G37*
G36*
X128826D02*X123708D01*
Y193227D01*
X128826D01*
Y200707D01*
G37*
G54D15*X272000Y197000D03*
X243000Y187000D03*
X262500D03*
G54D17*G36*
X136921Y197707D02*X131803D01*
Y190227D01*
X136921D01*
Y197707D01*
G37*
G36*
X148731D02*X143613D01*
Y190227D01*
X148731D01*
Y197707D01*
G37*
G54D24*X316500Y127600D03*
G54D25*X336500Y155000D03*
X326500D03*
X316500D03*
G54D17*G36*
X359500Y152000D02*X353500D01*
Y158000D01*
X359500D01*
Y152000D01*
G37*
G54D25*X346500Y155000D03*
G54D17*G36*
X304826Y152070D02*X298826D01*
Y158070D01*
X304826D01*
Y152070D01*
G37*
G54D25*X291826Y155070D03*
X281826D03*
X271826D03*
X261826D03*
G54D17*G36*
X222539Y157515D02*X229429D01*
Y150626D01*
X222539D01*
Y157515D01*
G37*
G54D26*X235826Y154070D03*
G54D17*G36*
X222562Y125165D02*X229451D01*
Y118276D01*
X222562D01*
Y125165D01*
G37*
G54D26*X235849Y121720D03*
G54D27*X155506Y172276D03*
G54D24*X177826Y108570D03*
X120500Y91500D03*
G54D17*G36*
X150585Y108299D02*X160428D01*
Y118142D01*
X150585D01*
Y108299D01*
G37*
G36*
X195121Y110256D02*Y102185D01*
X209491D01*
Y110256D01*
X195121D01*
G37*
G36*
X170641Y126106D02*Y118035D01*
X185011D01*
Y126106D01*
X170641D01*
G37*
G36*
X195121Y166256D02*Y158185D01*
X209491D01*
Y166256D01*
X195121D01*
G37*
G36*
X194362Y140165D02*X201251D01*
Y133276D01*
X194362D01*
Y140165D01*
G37*
G54D26*X207649Y136720D03*
G54D11*G54D28*G54D11*G54D29*G54D11*G54D29*G54D11*G54D30*G54D11*G54D13*G54D31*G54D11*G54D13*G54D28*G54D31*G54D11*G54D32*G54D11*G54D32*G54D31*G54D11*G54D28*G54D11*G54D25*G54D33*G54D34*G54D35*G54D25*G54D35*G54D34*M02*
