G04 start of page 2 for group 0 layer_idx 7 *
G04 Title: (unknown), top_paste *
G04 Creator: pcb-rnd 2.2.4 *
G04 CreationDate: 2020-10-19 18:12:02 UTC *
G04 For:  *
G04 Format: Gerber/RS-274X *
G04 PCB-Dimensions: 500000 500000 *
G04 PCB-Coordinate-Origin: lower left *
%MOIN*%
%FSLAX25Y25*%
%LNTOP_PASTE_NONE_0*%
%ADD85C,0.0001*%
G54D85*G36*
X166249Y353240D02*X161131D01*
Y345760D01*
X166249D01*
Y353240D01*
G37*
G36*
Y368240D02*X161131D01*
Y360760D01*
X166249D01*
Y368240D01*
G37*
G36*
X178059D02*X172941D01*
Y360760D01*
X178059D01*
Y368240D01*
G37*
G36*
X184548Y362516D02*Y357398D01*
X190452D01*
Y362516D01*
X184548D01*
G37*
G36*
Y369602D02*Y364484D01*
X190452D01*
Y369602D01*
X184548D01*
G37*
G36*
X178059Y353240D02*X172941D01*
Y345760D01*
X178059D01*
Y353240D01*
G37*
G36*
X184548Y356602D02*Y351484D01*
X190452D01*
Y356602D01*
X184548D01*
G37*
G36*
X247654Y375740D02*X242536D01*
Y368260D01*
X247654D01*
Y375740D01*
G37*
G36*
Y360740D02*X242536D01*
Y353260D01*
X247654D01*
Y360740D01*
G37*
G36*
X259464Y375740D02*X254346D01*
Y368260D01*
X259464D01*
Y375740D01*
G37*
G36*
Y360740D02*X254346D01*
Y353260D01*
X259464D01*
Y360740D01*
G37*
G36*
X184548Y349516D02*Y344398D01*
X190452D01*
Y349516D01*
X184548D01*
G37*
G36*
X240059Y345740D02*X234941D01*
Y338260D01*
X240059D01*
Y345740D01*
G37*
G36*
X251869D02*X246751D01*
Y338260D01*
X251869D01*
Y345740D01*
G37*
G36*
X120815Y322036D02*Y313964D01*
X135185D01*
Y322036D01*
X120815D01*
G37*
G36*
X209260Y330464D02*Y325346D01*
X216740D01*
Y330464D01*
X209260D01*
G37*
G36*
X159334Y323516D02*Y315444D01*
X173704D01*
Y323516D01*
X159334D01*
G37*
G36*
X224260Y318654D02*Y313536D01*
X231740D01*
Y318654D01*
X224260D01*
G37*
G36*
Y330464D02*Y325346D01*
X231740D01*
Y330464D01*
X224260D01*
G37*
G36*
X209260Y318654D02*Y313536D01*
X216740D01*
Y318654D01*
X209260D01*
G37*
G36*
X240154Y325740D02*X235036D01*
Y318260D01*
X240154D01*
Y325740D01*
G37*
G36*
X251964D02*X246846D01*
Y318260D01*
X251964D01*
Y325740D01*
G37*
G36*
X97815Y311536D02*Y303464D01*
X112185D01*
Y311536D01*
X97815D01*
G37*
G36*
X186516Y281452D02*X181398D01*
Y275548D01*
X186516D01*
Y281452D01*
G37*
G36*
X193602D02*X188484D01*
Y275548D01*
X193602D01*
Y281452D01*
G37*
G36*
X186516Y267452D02*X181398D01*
Y261548D01*
X186516D01*
Y267452D01*
G37*
G36*
X193602D02*X188484D01*
Y261548D01*
X193602D01*
Y267452D01*
G37*
G36*
X245260Y278464D02*Y273346D01*
X252740D01*
Y278464D01*
X245260D01*
G37*
G36*
X202500Y270000D02*X211000D01*
Y268000D01*
X202500D01*
Y270000D01*
G37*
G36*
X231500Y268000D02*X223000D01*
Y270000D01*
X231500D01*
Y268000D01*
G37*
G36*
X245260Y266654D02*Y261536D01*
X252740D01*
Y266654D01*
X245260D01*
G37*
G36*
X202500Y265000D02*X211000D01*
Y263000D01*
X202500D01*
Y265000D01*
G37*
G36*
Y260000D02*X211000D01*
Y258000D01*
X202500D01*
Y260000D01*
G37*
G36*
Y255000D02*X211000D01*
Y253000D01*
X202500D01*
Y255000D01*
G37*
G36*
X231500Y263000D02*X223000D01*
Y265000D01*
X231500D01*
Y263000D01*
G37*
G36*
Y258000D02*X223000D01*
Y260000D01*
X231500D01*
Y258000D01*
G37*
G36*
Y253000D02*X223000D01*
Y255000D01*
X231500D01*
Y253000D01*
G37*
G36*
X285815Y269036D02*Y260964D01*
X300185D01*
Y269036D01*
X285815D01*
G37*
G36*
X307559Y326240D02*X302441D01*
Y318760D01*
X307559D01*
Y326240D01*
G37*
G36*
X343315Y327036D02*Y318964D01*
X357685D01*
Y327036D01*
X343315D01*
G37*
G36*
X319369Y326240D02*X314251D01*
Y318760D01*
X319369D01*
Y326240D01*
G37*
G36*
X310295Y309186D02*Y301114D01*
X324665D01*
Y309186D01*
X310295D01*
G37*
G36*
Y253186D02*Y245114D01*
X324665D01*
Y253186D01*
X310295D01*
G37*
G36*
X197548Y225102D02*Y219984D01*
X203452D01*
Y225102D01*
X197548D01*
G37*
G36*
X182516Y218452D02*X177398D01*
Y212548D01*
X182516D01*
Y218452D01*
G37*
G36*
X189602D02*X184484D01*
Y212548D01*
X189602D01*
Y218452D01*
G37*
G36*
X197548Y218016D02*Y212898D01*
X203452D01*
Y218016D01*
X197548D01*
G37*
G36*
X211548D02*Y212898D01*
X217452D01*
Y218016D01*
X211548D01*
G37*
G36*
Y225102D02*Y219984D01*
X217452D01*
Y225102D01*
X211548D01*
G37*
G36*
X187749Y247740D02*X182631D01*
Y240260D01*
X187749D01*
Y247740D01*
G37*
G36*
X199559D02*X194441D01*
Y240260D01*
X199559D01*
Y247740D01*
G37*
G36*
X213654Y240740D02*X208536D01*
Y233260D01*
X213654D01*
Y240740D01*
G37*
G36*
X225464D02*X220346D01*
Y233260D01*
X225464D01*
Y240740D01*
G37*
G36*
X241760Y200154D02*Y195036D01*
X249240D01*
Y200154D01*
X241760D01*
G37*
G36*
Y211964D02*Y206846D01*
X249240D01*
Y211964D01*
X241760D01*
G37*
G36*
X232834Y241016D02*Y232945D01*
X247204D01*
Y241016D01*
X232834D01*
G37*
G36*
X184249Y191240D02*X179131D01*
Y183760D01*
X184249D01*
Y191240D01*
G37*
G36*
X202500Y198500D02*X211000D01*
Y196500D01*
X202500D01*
Y198500D01*
G37*
G36*
Y193500D02*X211000D01*
Y191500D01*
X202500D01*
Y193500D01*
G37*
G36*
Y188500D02*X211000D01*
Y186500D01*
X202500D01*
Y188500D01*
G37*
G36*
X196059Y191240D02*X190941D01*
Y183760D01*
X196059D01*
Y191240D01*
G37*
G36*
X202500Y203500D02*X211000D01*
Y201500D01*
X202500D01*
Y203500D01*
G37*
G36*
X231500Y201500D02*X223000D01*
Y203500D01*
X231500D01*
Y201500D01*
G37*
G36*
Y196500D02*X223000D01*
Y198500D01*
X231500D01*
Y196500D01*
G37*
G36*
Y191500D02*X223000D01*
Y193500D01*
X231500D01*
Y191500D01*
G37*
G36*
Y186500D02*X223000D01*
Y188500D01*
X231500D01*
Y186500D01*
G37*
M02*
