G04 start of page 3 for group 3 layer_idx 0 *
G04 Title: (unknown), top_copper *
G04 Creator: pcb-rnd 2.1.0 *
G04 CreationDate: 2019-02-14 18:17:35 UTC *
G04 For:  *
G04 Format: Gerber/RS-274X *
G04 PCB-Dimensions: 500000 500000 *
G04 PCB-Coordinate-Origin: lower left *
%MOIN*%
%FSLAX25Y25*%
%LNTOP*%
%ADD23C,0.0420*%
%ADD22C,0.0320*%
%ADD21C,0.0790*%
%ADD20C,0.0394*%
%ADD19C,0.0600*%
%ADD18C,0.2000*%
%ADD17C,0.1580*%
%ADD16C,0.0700*%
%ADD15C,0.0100*%
%ADD14C,0.0800*%
%ADD13C,0.0350*%
%ADD12C,0.0001*%
G54D12*G36*
X337500Y297500D02*X347500Y287500D01*
Y220212D01*
X346630Y221633D01*
X345479Y222979D01*
X344133Y224130D01*
X342623Y225055D01*
X340987Y225732D01*
X339265Y226146D01*
X337500Y226285D01*
X335735Y226146D01*
X334013Y225732D01*
X332377Y225055D01*
X330867Y224130D01*
X329521Y222979D01*
X328370Y221633D01*
X327445Y220123D01*
X326768Y218487D01*
X326354Y216765D01*
X326215Y215000D01*
X326354Y213235D01*
X326768Y211513D01*
X327445Y209877D01*
X328370Y208367D01*
X329521Y207021D01*
X330867Y205870D01*
X332377Y204945D01*
X334013Y204268D01*
X335735Y203854D01*
X337500Y203715D01*
X339265Y203854D01*
X340987Y204268D01*
X342623Y204945D01*
X344133Y205870D01*
X345479Y207021D01*
X346630Y208367D01*
X347500Y209788D01*
Y180212D01*
X346630Y181633D01*
X345479Y182979D01*
X344133Y184130D01*
X342623Y185055D01*
X340987Y185732D01*
X339265Y186146D01*
X337500Y186285D01*
X335735Y186146D01*
X334013Y185732D01*
X332377Y185055D01*
X330867Y184130D01*
X329521Y182979D01*
X328370Y181633D01*
X327445Y180123D01*
X326768Y178487D01*
X326354Y176765D01*
X326215Y175000D01*
X326354Y173235D01*
X326768Y171513D01*
X327445Y169877D01*
X328370Y168367D01*
X329521Y167021D01*
X330867Y165870D01*
X332377Y164945D01*
X334013Y164268D01*
X335735Y163854D01*
X337500Y163715D01*
X339265Y163854D01*
X340987Y164268D01*
X342623Y164945D01*
X344133Y165870D01*
X345479Y167021D01*
X346630Y168367D01*
X347500Y169788D01*
Y167500D01*
X342500Y162500D01*
X321822D01*
Y192005D01*
X322192Y192609D01*
X322508Y193373D01*
X322701Y194176D01*
X322750Y195000D01*
X322701Y195824D01*
X322508Y196627D01*
X322192Y197391D01*
X321822Y197995D01*
Y202172D01*
X321871Y202199D01*
X321948Y202259D01*
X322015Y202331D01*
X322069Y202414D01*
X322296Y202850D01*
X322476Y203308D01*
X322612Y203781D01*
X322704Y204264D01*
X322750Y204754D01*
Y205246D01*
X322704Y205736D01*
X322612Y206219D01*
X322476Y206692D01*
X322296Y207150D01*
X322074Y207589D01*
X322019Y207672D01*
X321951Y207744D01*
X321873Y207805D01*
X321822Y207833D01*
Y297500D01*
X337500D01*
G37*
G36*
X317498D02*X321822D01*
Y207833D01*
X321786Y207853D01*
X321693Y207887D01*
X321596Y207906D01*
X321497Y207909D01*
X321399Y207897D01*
X321304Y207870D01*
X321214Y207828D01*
X321132Y207772D01*
X321059Y207705D01*
X320998Y207627D01*
X320950Y207540D01*
X320916Y207447D01*
X320898Y207350D01*
X320894Y207251D01*
X320906Y207152D01*
X320934Y207057D01*
X320977Y206968D01*
X321150Y206636D01*
X321287Y206288D01*
X321391Y205928D01*
X321461Y205560D01*
X321496Y205187D01*
Y204813D01*
X321461Y204440D01*
X321391Y204072D01*
X321287Y203712D01*
X321150Y203364D01*
X320981Y203029D01*
X320938Y202941D01*
X320911Y202847D01*
X320898Y202749D01*
X320902Y202651D01*
X320921Y202554D01*
X320954Y202462D01*
X321002Y202376D01*
X321062Y202298D01*
X321134Y202231D01*
X321216Y202176D01*
X321305Y202134D01*
X321400Y202107D01*
X321497Y202095D01*
X321596Y202099D01*
X321692Y202117D01*
X321785Y202151D01*
X321822Y202172D01*
Y197995D01*
X321760Y198095D01*
X321224Y198724D01*
X320595Y199260D01*
X319891Y199692D01*
X319132Y200007D01*
X319192Y200024D01*
X319650Y200204D01*
X320089Y200426D01*
X320172Y200481D01*
X320244Y200549D01*
X320305Y200627D01*
X320353Y200714D01*
X320387Y200807D01*
X320406Y200904D01*
X320409Y201003D01*
X320397Y201101D01*
X320370Y201196D01*
X320328Y201286D01*
X320272Y201368D01*
X320205Y201441D01*
X320127Y201502D01*
X320040Y201550D01*
X319947Y201584D01*
X319850Y201602D01*
X319751Y201606D01*
X319652Y201594D01*
X319557Y201566D01*
X319468Y201523D01*
X319136Y201350D01*
X318788Y201213D01*
X318428Y201109D01*
X318060Y201039D01*
X317687Y201004D01*
X317498D01*
Y208996D01*
X317687D01*
X318060Y208961D01*
X318428Y208891D01*
X318788Y208787D01*
X319136Y208650D01*
X319471Y208481D01*
X319559Y208438D01*
X319653Y208411D01*
X319751Y208398D01*
X319849Y208402D01*
X319946Y208421D01*
X320038Y208454D01*
X320124Y208502D01*
X320202Y208562D01*
X320269Y208634D01*
X320324Y208716D01*
X320366Y208805D01*
X320393Y208900D01*
X320405Y208997D01*
X320401Y209096D01*
X320383Y209192D01*
X320349Y209285D01*
X320301Y209371D01*
X320241Y209448D01*
X320169Y209515D01*
X320086Y209569D01*
X319650Y209796D01*
X319192Y209976D01*
X318719Y210112D01*
X318236Y210204D01*
X317746Y210250D01*
X317498D01*
Y297500D01*
G37*
G36*
X321822Y162500D02*X317498D01*
Y189695D01*
X317540Y189737D01*
X318324Y189799D01*
X319127Y189992D01*
X319891Y190308D01*
X320595Y190740D01*
X321224Y191276D01*
X321760Y191905D01*
X321822Y192005D01*
Y162500D01*
G37*
G36*
X315884Y208658D02*X316212Y208787D01*
X316572Y208891D01*
X316940Y208961D01*
X317313Y208996D01*
X317498D01*
Y201004D01*
X317313D01*
X316940Y201039D01*
X316572Y201109D01*
X316212Y201213D01*
X315884Y201342D01*
Y208658D01*
G37*
G36*
Y250203D02*X316175Y250678D01*
X316416Y251260D01*
X316563Y251872D01*
X316600Y252500D01*
X316563Y253128D01*
X316416Y253740D01*
X316175Y254322D01*
X315884Y254797D01*
Y260203D01*
X316175Y260678D01*
X316416Y261260D01*
X316563Y261872D01*
X316600Y262500D01*
X316563Y263128D01*
X316416Y263740D01*
X316175Y264322D01*
X315884Y264797D01*
Y270203D01*
X316175Y270678D01*
X316416Y271260D01*
X316563Y271872D01*
X316600Y272500D01*
X316563Y273128D01*
X316416Y273740D01*
X316175Y274322D01*
X315884Y274797D01*
Y280369D01*
X315887Y280370D01*
X315955Y280409D01*
X316016Y280458D01*
X316069Y280517D01*
X316111Y280583D01*
X316274Y280908D01*
X316403Y281248D01*
X316501Y281598D01*
X316567Y281956D01*
X316600Y282318D01*
Y282682D01*
X316567Y283044D01*
X316501Y283402D01*
X316403Y283752D01*
X316274Y284092D01*
X316115Y284419D01*
X316072Y284485D01*
X316019Y284544D01*
X315957Y284594D01*
X315888Y284633D01*
X315884Y284635D01*
Y288540D01*
X315910Y288546D01*
X316055Y288606D01*
X316190Y288688D01*
X316309Y288791D01*
X316412Y288910D01*
X316494Y289045D01*
X316554Y289190D01*
X316591Y289343D01*
X316603Y289500D01*
X316600Y289539D01*
Y295461D01*
X316603Y295500D01*
X316591Y295657D01*
X316591Y295657D01*
X316554Y295810D01*
X316494Y295955D01*
X316412Y296090D01*
X316309Y296209D01*
X316190Y296312D01*
X316055Y296394D01*
X315910Y296454D01*
X315884Y296460D01*
Y297500D01*
X317498D01*
Y210250D01*
X317254D01*
X316764Y210204D01*
X316281Y210112D01*
X315884Y209998D01*
Y250203D01*
G37*
G36*
Y296460D02*X315757Y296491D01*
X315600Y296503D01*
X315561Y296500D01*
X313178D01*
Y297500D01*
X315884D01*
Y296460D01*
G37*
G36*
Y274797D02*X315846Y274858D01*
X315437Y275337D01*
X314958Y275746D01*
X314422Y276075D01*
X313840Y276316D01*
X313228Y276463D01*
X313178Y276467D01*
Y278539D01*
X313502Y278599D01*
X313852Y278697D01*
X314192Y278826D01*
X314519Y278985D01*
X314585Y279028D01*
X314644Y279081D01*
X314694Y279143D01*
X314733Y279212D01*
X314761Y279286D01*
X314778Y279363D01*
X314781Y279442D01*
X314773Y279521D01*
X314752Y279597D01*
X314720Y279670D01*
X314677Y279736D01*
X314624Y279795D01*
X314562Y279844D01*
X314493Y279884D01*
X314419Y279912D01*
X314342Y279928D01*
X314263Y279932D01*
X314184Y279924D01*
X314107Y279903D01*
X314036Y279870D01*
X313793Y279747D01*
X313538Y279650D01*
X313276Y279577D01*
X313178Y279559D01*
Y285441D01*
X313276Y285423D01*
X313538Y285350D01*
X313793Y285253D01*
X314037Y285133D01*
X314109Y285100D01*
X314185Y285079D01*
X314263Y285071D01*
X314341Y285075D01*
X314418Y285091D01*
X314492Y285119D01*
X314560Y285158D01*
X314621Y285207D01*
X314674Y285266D01*
X314717Y285332D01*
X314749Y285404D01*
X314770Y285480D01*
X314778Y285558D01*
X314774Y285636D01*
X314758Y285713D01*
X314730Y285787D01*
X314691Y285855D01*
X314642Y285916D01*
X314583Y285969D01*
X314517Y286011D01*
X314192Y286174D01*
X313852Y286303D01*
X313502Y286401D01*
X313178Y286461D01*
Y288500D01*
X315561D01*
X315600Y288497D01*
X315757Y288509D01*
X315757Y288509D01*
X315884Y288540D01*
Y284635D01*
X315814Y284661D01*
X315737Y284678D01*
X315658Y284681D01*
X315579Y284673D01*
X315503Y284652D01*
X315430Y284620D01*
X315364Y284577D01*
X315305Y284524D01*
X315256Y284462D01*
X315216Y284393D01*
X315188Y284319D01*
X315172Y284242D01*
X315168Y284163D01*
X315176Y284084D01*
X315197Y284007D01*
X315230Y283936D01*
X315353Y283693D01*
X315450Y283438D01*
X315523Y283176D01*
X315572Y282908D01*
X315597Y282636D01*
Y282364D01*
X315572Y282092D01*
X315523Y281824D01*
X315450Y281562D01*
X315353Y281307D01*
X315233Y281063D01*
X315200Y280991D01*
X315179Y280915D01*
X315171Y280837D01*
X315175Y280759D01*
X315191Y280682D01*
X315219Y280608D01*
X315258Y280540D01*
X315307Y280479D01*
X315366Y280426D01*
X315432Y280383D01*
X315504Y280351D01*
X315580Y280330D01*
X315658Y280322D01*
X315736Y280326D01*
X315813Y280342D01*
X315884Y280369D01*
Y274797D01*
G37*
G36*
Y264797D02*X315846Y264858D01*
X315437Y265337D01*
X314958Y265746D01*
X314422Y266075D01*
X313840Y266316D01*
X313228Y266463D01*
X313178Y266467D01*
Y268533D01*
X313228Y268537D01*
X313840Y268684D01*
X314422Y268925D01*
X314958Y269254D01*
X315437Y269663D01*
X315846Y270142D01*
X315884Y270203D01*
Y264797D01*
G37*
G36*
Y254797D02*X315846Y254858D01*
X315437Y255337D01*
X314958Y255746D01*
X314422Y256075D01*
X313840Y256316D01*
X313228Y256463D01*
X313178Y256467D01*
Y258533D01*
X313228Y258537D01*
X313840Y258684D01*
X314422Y258925D01*
X314958Y259254D01*
X315437Y259663D01*
X315846Y260142D01*
X315884Y260203D01*
Y254797D01*
G37*
G36*
X313178Y248533D02*X313228Y248537D01*
X313840Y248684D01*
X314422Y248925D01*
X314958Y249254D01*
X315437Y249663D01*
X315846Y250142D01*
X315884Y250203D01*
Y209998D01*
X315808Y209976D01*
X315350Y209796D01*
X314911Y209574D01*
X314828Y209519D01*
X314756Y209451D01*
X314695Y209373D01*
X314647Y209286D01*
X314613Y209193D01*
X314594Y209096D01*
X314591Y208997D01*
X314603Y208899D01*
X314630Y208804D01*
X314672Y208714D01*
X314728Y208632D01*
X314795Y208559D01*
X314873Y208498D01*
X314960Y208450D01*
X315053Y208416D01*
X315150Y208398D01*
X315249Y208394D01*
X315348Y208406D01*
X315443Y208434D01*
X315532Y208477D01*
X315864Y208650D01*
X315884Y208658D01*
Y201342D01*
X315864Y201350D01*
X315529Y201519D01*
X315441Y201562D01*
X315347Y201589D01*
X315249Y201602D01*
X315151Y201598D01*
X315054Y201579D01*
X314962Y201546D01*
X314876Y201498D01*
X314798Y201438D01*
X314731Y201366D01*
X314676Y201284D01*
X314634Y201195D01*
X314607Y201100D01*
X314595Y201003D01*
X314599Y200904D01*
X314617Y200808D01*
X314651Y200715D01*
X314699Y200629D01*
X314759Y200552D01*
X314831Y200485D01*
X314914Y200431D01*
X315350Y200204D01*
X315808Y200024D01*
X315868Y200007D01*
X315109Y199692D01*
X314405Y199260D01*
X313776Y198724D01*
X313240Y198095D01*
X313178Y197995D01*
Y202167D01*
X313214Y202147D01*
X313307Y202113D01*
X313404Y202094D01*
X313503Y202091D01*
X313601Y202103D01*
X313696Y202130D01*
X313786Y202172D01*
X313868Y202228D01*
X313941Y202295D01*
X314002Y202373D01*
X314050Y202460D01*
X314084Y202553D01*
X314102Y202650D01*
X314106Y202749D01*
X314094Y202848D01*
X314066Y202943D01*
X314023Y203032D01*
X313850Y203364D01*
X313713Y203712D01*
X313609Y204072D01*
X313539Y204440D01*
X313504Y204813D01*
Y205187D01*
X313539Y205560D01*
X313609Y205928D01*
X313713Y206288D01*
X313850Y206636D01*
X314019Y206971D01*
X314062Y207059D01*
X314089Y207153D01*
X314102Y207251D01*
X314098Y207349D01*
X314079Y207446D01*
X314046Y207538D01*
X313998Y207624D01*
X313938Y207702D01*
X313866Y207769D01*
X313784Y207824D01*
X313695Y207866D01*
X313600Y207893D01*
X313503Y207905D01*
X313404Y207901D01*
X313308Y207883D01*
X313215Y207849D01*
X313178Y207828D01*
Y248533D01*
G37*
G36*
X317498Y162500D02*X313178D01*
Y185650D01*
X313231Y185672D01*
X313735Y185980D01*
X314183Y186364D01*
X314279Y186476D01*
X317498Y189695D01*
Y162500D01*
G37*
G36*
X309316Y270203D02*X309354Y270142D01*
X309763Y269663D01*
X310242Y269254D01*
X310778Y268925D01*
X311360Y268684D01*
X311972Y268537D01*
X312600Y268488D01*
X313178Y268533D01*
Y266467D01*
X312600Y266512D01*
X311972Y266463D01*
X311360Y266316D01*
X310778Y266075D01*
X310242Y265746D01*
X309763Y265337D01*
X309354Y264858D01*
X309316Y264797D01*
Y270203D01*
G37*
G36*
Y288540D02*X309443Y288509D01*
X309600Y288497D01*
X309639Y288500D01*
X313178D01*
Y286461D01*
X313144Y286467D01*
X312782Y286500D01*
X312418D01*
X312056Y286467D01*
X311698Y286401D01*
X311348Y286303D01*
X311008Y286174D01*
X310681Y286015D01*
X310615Y285972D01*
X310556Y285919D01*
X310506Y285857D01*
X310467Y285788D01*
X310439Y285714D01*
X310423Y285637D01*
X310419Y285558D01*
X310427Y285479D01*
X310448Y285403D01*
X310480Y285330D01*
X310523Y285264D01*
X310576Y285205D01*
X310638Y285156D01*
X310707Y285116D01*
X310781Y285088D01*
X310858Y285072D01*
X310937Y285068D01*
X311016Y285076D01*
X311093Y285097D01*
X311164Y285130D01*
X311407Y285253D01*
X311662Y285350D01*
X311924Y285423D01*
X312192Y285472D01*
X312464Y285497D01*
X312736D01*
X313008Y285472D01*
X313178Y285441D01*
Y279559D01*
X313008Y279528D01*
X312736Y279503D01*
X312464D01*
X312192Y279528D01*
X311924Y279577D01*
X311662Y279650D01*
X311407Y279747D01*
X311163Y279867D01*
X311091Y279900D01*
X311015Y279921D01*
X310937Y279929D01*
X310859Y279925D01*
X310782Y279909D01*
X310708Y279881D01*
X310640Y279842D01*
X310579Y279793D01*
X310526Y279734D01*
X310483Y279668D01*
X310451Y279596D01*
X310430Y279520D01*
X310422Y279442D01*
X310426Y279364D01*
X310442Y279287D01*
X310470Y279213D01*
X310509Y279145D01*
X310558Y279084D01*
X310617Y279031D01*
X310683Y278989D01*
X311008Y278826D01*
X311348Y278697D01*
X311698Y278599D01*
X312056Y278533D01*
X312418Y278500D01*
X312782D01*
X313144Y278533D01*
X313178Y278539D01*
Y276467D01*
X312600Y276512D01*
X311972Y276463D01*
X311360Y276316D01*
X310778Y276075D01*
X310242Y275746D01*
X309763Y275337D01*
X309354Y274858D01*
X309316Y274797D01*
Y280365D01*
X309386Y280339D01*
X309463Y280323D01*
X309542Y280319D01*
X309621Y280327D01*
X309697Y280348D01*
X309770Y280380D01*
X309836Y280423D01*
X309895Y280476D01*
X309944Y280538D01*
X309984Y280607D01*
X310012Y280681D01*
X310028Y280758D01*
X310032Y280837D01*
X310024Y280916D01*
X310003Y280993D01*
X309970Y281064D01*
X309847Y281307D01*
X309750Y281562D01*
X309677Y281824D01*
X309628Y282092D01*
X309603Y282364D01*
Y282636D01*
X309628Y282908D01*
X309677Y283176D01*
X309750Y283438D01*
X309847Y283693D01*
X309967Y283937D01*
X310000Y284009D01*
X310021Y284085D01*
X310029Y284163D01*
X310025Y284241D01*
X310009Y284318D01*
X309981Y284392D01*
X309942Y284460D01*
X309893Y284521D01*
X309834Y284574D01*
X309768Y284617D01*
X309696Y284649D01*
X309620Y284670D01*
X309542Y284678D01*
X309464Y284674D01*
X309387Y284658D01*
X309316Y284631D01*
Y288540D01*
G37*
G36*
Y297500D02*X313178D01*
Y296500D01*
X309639D01*
X309600Y296503D01*
X309443Y296491D01*
X309443Y296491D01*
X309316Y296460D01*
Y297500D01*
G37*
G36*
X313178Y256467D02*X312600Y256512D01*
X311972Y256463D01*
X311360Y256316D01*
X311201Y256250D01*
X309316D01*
Y260203D01*
X309354Y260142D01*
X309763Y259663D01*
X310242Y259254D01*
X310778Y258925D01*
X311360Y258684D01*
X311972Y258537D01*
X312600Y258488D01*
X313178Y258533D01*
Y256467D01*
G37*
G36*
X309316Y256250D02*X302647D01*
X302500Y256262D01*
X301912Y256215D01*
X301338Y256077D01*
X300792Y255852D01*
X300289Y255543D01*
X300289Y255543D01*
X299840Y255160D01*
X299744Y255048D01*
X294952Y250256D01*
X294840Y250160D01*
X294734Y250035D01*
X290354D01*
X290315Y250039D01*
X290158Y250026D01*
X290005Y249989D01*
X289860Y249929D01*
X289725Y249847D01*
X289606Y249745D01*
X289503Y249625D01*
X289421Y249491D01*
X289361Y249345D01*
X289324Y249192D01*
X289312Y249036D01*
X289315Y248996D01*
Y241004D01*
X289312Y240964D01*
X289324Y240808D01*
X289324Y240808D01*
X289361Y240655D01*
X289421Y240509D01*
X289503Y240375D01*
X289606Y240255D01*
X289725Y240153D01*
X289860Y240071D01*
X290005Y240011D01*
X290158Y239974D01*
X290315Y239961D01*
X290354Y239965D01*
X293750D01*
Y235742D01*
X293532Y235524D01*
X288433D01*
X288335Y235531D01*
X287943Y235500D01*
X287943Y235500D01*
X287560Y235409D01*
X287197Y235258D01*
X286861Y235052D01*
X286562Y234797D01*
X286307Y234498D01*
X286101Y234162D01*
X285950Y233799D01*
X285859Y233416D01*
X285828Y233024D01*
X285835Y232926D01*
Y232774D01*
X284122D01*
Y251658D01*
X284203Y251665D01*
X284394Y251712D01*
X284576Y251788D01*
X284743Y251892D01*
X284892Y252020D01*
X285019Y252170D01*
X285121Y252339D01*
X285192Y252522D01*
X285348Y253075D01*
X285449Y253640D01*
X285500Y254213D01*
Y254787D01*
X285449Y255360D01*
X285348Y255925D01*
X285198Y256480D01*
X285125Y256663D01*
X285022Y256832D01*
X284895Y256983D01*
X284745Y257111D01*
X284578Y257215D01*
X284396Y257292D01*
X284204Y257339D01*
X284122Y257346D01*
Y279158D01*
X284203Y279165D01*
X284394Y279212D01*
X284576Y279288D01*
X284743Y279392D01*
X284892Y279520D01*
X285019Y279670D01*
X285121Y279839D01*
X285192Y280022D01*
X285348Y280575D01*
X285449Y281140D01*
X285500Y281713D01*
Y282287D01*
X285449Y282860D01*
X285348Y283425D01*
X285198Y283980D01*
X285125Y284163D01*
X285022Y284332D01*
X284895Y284483D01*
X284745Y284611D01*
X284578Y284715D01*
X284396Y284792D01*
X284204Y284839D01*
X284122Y284846D01*
Y297500D01*
X309316D01*
Y296460D01*
X309290Y296454D01*
X309145Y296394D01*
X309010Y296312D01*
X308891Y296209D01*
X308788Y296090D01*
X308706Y295955D01*
X308646Y295810D01*
X308609Y295657D01*
X308597Y295500D01*
X308600Y295461D01*
Y289539D01*
X308597Y289500D01*
X308609Y289343D01*
X308609Y289343D01*
X308646Y289190D01*
X308706Y289045D01*
X308788Y288910D01*
X308891Y288791D01*
X309010Y288688D01*
X309145Y288606D01*
X309290Y288546D01*
X309316Y288540D01*
Y284631D01*
X309313Y284630D01*
X309245Y284591D01*
X309184Y284542D01*
X309131Y284483D01*
X309089Y284417D01*
X308926Y284092D01*
X308797Y283752D01*
X308699Y283402D01*
X308633Y283044D01*
X308600Y282682D01*
Y282318D01*
X308633Y281956D01*
X308699Y281598D01*
X308797Y281248D01*
X308926Y280908D01*
X309085Y280581D01*
X309128Y280515D01*
X309181Y280456D01*
X309243Y280406D01*
X309312Y280367D01*
X309316Y280365D01*
Y274797D01*
X309025Y274322D01*
X308784Y273740D01*
X308637Y273128D01*
X308588Y272500D01*
X308637Y271872D01*
X308784Y271260D01*
X309025Y270678D01*
X309316Y270203D01*
Y264797D01*
X309025Y264322D01*
X308784Y263740D01*
X308637Y263128D01*
X308588Y262500D01*
X308637Y261872D01*
X308784Y261260D01*
X309025Y260678D01*
X309316Y260203D01*
Y256250D01*
G37*
G36*
X284122Y232774D02*X278651D01*
Y248005D01*
X278713Y248000D01*
X279287D01*
X279860Y248051D01*
X280425Y248152D01*
X280980Y248302D01*
X281163Y248375D01*
X281332Y248478D01*
X281483Y248605D01*
X281611Y248755D01*
X281715Y248922D01*
X281792Y249104D01*
X281839Y249296D01*
X281855Y249493D01*
X281841Y249690D01*
X281796Y249882D01*
X281721Y250064D01*
X281619Y250233D01*
X281491Y250384D01*
X281342Y250513D01*
X281174Y250617D01*
X280992Y250693D01*
X280801Y250740D01*
X280604Y250757D01*
X280407Y250742D01*
X280216Y250693D01*
X279876Y250597D01*
X279529Y250535D01*
X279177Y250504D01*
X278823D01*
X278651Y250519D01*
Y258481D01*
X278823Y258496D01*
X279177D01*
X279529Y258465D01*
X279876Y258403D01*
X280217Y258310D01*
X280408Y258262D01*
X280604Y258247D01*
X280800Y258264D01*
X280991Y258310D01*
X281172Y258387D01*
X281340Y258490D01*
X281489Y258619D01*
X281616Y258769D01*
X281718Y258937D01*
X281792Y259119D01*
X281837Y259311D01*
X281851Y259507D01*
X281835Y259703D01*
X281788Y259894D01*
X281712Y260076D01*
X281608Y260243D01*
X281480Y260392D01*
X281330Y260519D01*
X281161Y260621D01*
X280978Y260692D01*
X280425Y260848D01*
X279860Y260949D01*
X279287Y261000D01*
X278713D01*
X278651Y260995D01*
Y275505D01*
X278713Y275500D01*
X279287D01*
X279860Y275551D01*
X280425Y275652D01*
X280980Y275802D01*
X281163Y275875D01*
X281332Y275978D01*
X281483Y276105D01*
X281611Y276255D01*
X281715Y276422D01*
X281792Y276604D01*
X281839Y276796D01*
X281855Y276993D01*
X281841Y277190D01*
X281796Y277382D01*
X281721Y277564D01*
X281619Y277733D01*
X281491Y277884D01*
X281342Y278013D01*
X281174Y278117D01*
X280992Y278193D01*
X280801Y278240D01*
X280604Y278257D01*
X280407Y278242D01*
X280216Y278193D01*
X279876Y278097D01*
X279529Y278035D01*
X279177Y278004D01*
X278823D01*
X278651Y278019D01*
Y285981D01*
X278823Y285996D01*
X279177D01*
X279529Y285965D01*
X279876Y285903D01*
X280217Y285810D01*
X280408Y285762D01*
X280604Y285747D01*
X280800Y285764D01*
X280991Y285810D01*
X281172Y285887D01*
X281340Y285990D01*
X281489Y286119D01*
X281616Y286269D01*
X281718Y286437D01*
X281792Y286619D01*
X281837Y286811D01*
X281851Y287007D01*
X281835Y287203D01*
X281788Y287394D01*
X281712Y287576D01*
X281608Y287743D01*
X281480Y287892D01*
X281330Y288019D01*
X281161Y288121D01*
X280978Y288192D01*
X280425Y288348D01*
X279860Y288449D01*
X279287Y288500D01*
X278713D01*
X278651Y288495D01*
Y297500D01*
X284122D01*
Y284846D01*
X284007Y284855D01*
X283810Y284841D01*
X283618Y284796D01*
X283436Y284721D01*
X283267Y284619D01*
X283116Y284491D01*
X282987Y284342D01*
X282883Y284174D01*
X282807Y283992D01*
X282760Y283801D01*
X282743Y283604D01*
X282758Y283407D01*
X282807Y283216D01*
X282903Y282876D01*
X282965Y282529D01*
X282996Y282177D01*
Y281823D01*
X282965Y281471D01*
X282903Y281124D01*
X282810Y280783D01*
X282762Y280592D01*
X282747Y280396D01*
X282764Y280200D01*
X282810Y280009D01*
X282887Y279828D01*
X282990Y279660D01*
X283119Y279511D01*
X283269Y279384D01*
X283437Y279282D01*
X283619Y279208D01*
X283811Y279163D01*
X284007Y279149D01*
X284122Y279158D01*
Y257346D01*
X284007Y257355D01*
X283810Y257341D01*
X283618Y257296D01*
X283436Y257221D01*
X283267Y257119D01*
X283116Y256991D01*
X282987Y256842D01*
X282883Y256674D01*
X282807Y256492D01*
X282760Y256301D01*
X282743Y256104D01*
X282758Y255907D01*
X282807Y255716D01*
X282903Y255376D01*
X282965Y255029D01*
X282996Y254677D01*
Y254323D01*
X282965Y253971D01*
X282903Y253624D01*
X282810Y253283D01*
X282762Y253092D01*
X282747Y252896D01*
X282764Y252700D01*
X282810Y252509D01*
X282887Y252328D01*
X282990Y252160D01*
X283119Y252011D01*
X283269Y251884D01*
X283437Y251782D01*
X283619Y251708D01*
X283811Y251663D01*
X284007Y251649D01*
X284122Y251658D01*
Y232774D01*
G37*
G36*
X313178Y162500D02*X278651D01*
Y166958D01*
X279416Y167724D01*
X279610Y167890D01*
X280275Y168668D01*
X280809Y169540D01*
X281201Y170485D01*
X281440Y171480D01*
X281520Y172500D01*
X281500Y172755D01*
Y212500D01*
X281440Y213520D01*
X281201Y214515D01*
X280809Y215460D01*
X280275Y216332D01*
X279610Y217110D01*
X278832Y217775D01*
X278651Y217886D01*
Y225274D01*
X285835D01*
Y225122D01*
X285828Y225024D01*
X285859Y224632D01*
X285859Y224631D01*
X285950Y224249D01*
X286101Y223885D01*
X286307Y223550D01*
X286562Y223250D01*
X286861Y222995D01*
X287197Y222789D01*
X287560Y222639D01*
X287943Y222547D01*
X288335Y222516D01*
X288433Y222524D01*
X296237D01*
X296335Y222516D01*
X296728Y222547D01*
X296728Y222547D01*
X297110Y222639D01*
X297474Y222789D01*
X297809Y222995D01*
X298109Y223250D01*
X298364Y223550D01*
X298570Y223885D01*
X298720Y224249D01*
X298812Y224631D01*
X298843Y225024D01*
X298835Y225122D01*
Y230220D01*
X300048Y231433D01*
X300160Y231528D01*
X300543Y231977D01*
X300543Y231977D01*
X300852Y232480D01*
X301077Y233026D01*
X301215Y233600D01*
X301262Y234188D01*
X301250Y234335D01*
Y239965D01*
X304646D01*
X304685Y239961D01*
X304842Y239974D01*
X304995Y240011D01*
X305140Y240071D01*
X305275Y240153D01*
X305394Y240255D01*
X305497Y240375D01*
X305579Y240509D01*
X305639Y240655D01*
X305676Y240808D01*
X305688Y240964D01*
X305685Y241004D01*
Y248750D01*
X311201D01*
X311360Y248684D01*
X311972Y248537D01*
X312600Y248488D01*
X313178Y248533D01*
Y207828D01*
X313129Y207801D01*
X313052Y207741D01*
X312985Y207669D01*
X312931Y207586D01*
X312704Y207150D01*
X312524Y206692D01*
X312388Y206219D01*
X312296Y205736D01*
X312250Y205246D01*
Y204754D01*
X312296Y204264D01*
X312388Y203781D01*
X312524Y203308D01*
X312704Y202850D01*
X312926Y202411D01*
X312981Y202328D01*
X313049Y202256D01*
X313127Y202195D01*
X313178Y202167D01*
Y197995D01*
X312808Y197391D01*
X312492Y196627D01*
X312299Y195824D01*
X312237Y195040D01*
X309970Y192774D01*
X297661D01*
X297610Y192856D01*
X296946Y193634D01*
X296168Y194298D01*
X295295Y194833D01*
X294350Y195225D01*
X293355Y195463D01*
X292335Y195544D01*
X291315Y195463D01*
X290321Y195225D01*
X289375Y194833D01*
X288503Y194298D01*
X287725Y193634D01*
X287061Y192856D01*
X286526Y191984D01*
X286134Y191038D01*
X285896Y190044D01*
X285815Y189024D01*
X285896Y188004D01*
X286134Y187009D01*
X286526Y186064D01*
X287061Y185191D01*
X287725Y184413D01*
X288503Y183749D01*
X289375Y183214D01*
X290321Y182823D01*
X291315Y182584D01*
X292335Y182504D01*
X293355Y182584D01*
X294350Y182823D01*
X295295Y183214D01*
X296168Y183749D01*
X296946Y184413D01*
X297610Y185191D01*
X297661Y185274D01*
X311377D01*
X311524Y185262D01*
X312112Y185308D01*
X312112Y185308D01*
X312686Y185446D01*
X313178Y185650D01*
Y162500D01*
G37*
G36*
X197490Y203358D02*X197890Y202890D01*
X198084Y202724D01*
X205808Y195000D01*
X198084Y187276D01*
X197890Y187110D01*
X197490Y186642D01*
Y203358D01*
G37*
G36*
X252343Y228561D02*X252497Y228740D01*
X252503Y228750D01*
X255947D01*
X258221Y226476D01*
X258317Y226364D01*
X258765Y225981D01*
X258765Y225980D01*
X259269Y225672D01*
X259814Y225446D01*
X260388Y225308D01*
X260976Y225262D01*
X261123Y225274D01*
X278651D01*
Y217886D01*
X277960Y218309D01*
X277015Y218701D01*
X276020Y218940D01*
X275000Y219020D01*
X273980Y218940D01*
X272985Y218701D01*
X272040Y218309D01*
X271168Y217775D01*
X271157Y217765D01*
X271029Y217974D01*
X270773Y218273D01*
X270474Y218529D01*
X270138Y218734D01*
X269775Y218885D01*
X269392Y218977D01*
X269000Y219008D01*
X268902Y219000D01*
X261098D01*
X261000Y219008D01*
X260608Y218977D01*
X260608Y218977D01*
X260225Y218885D01*
X259862Y218734D01*
X259526Y218529D01*
X259227Y218273D01*
X258971Y217974D01*
X258766Y217638D01*
X258615Y217275D01*
X258523Y216892D01*
X258492Y216500D01*
X258500Y216402D01*
Y208598D01*
X258492Y208500D01*
X258523Y208108D01*
X258523Y208108D01*
X258615Y207725D01*
X258766Y207362D01*
X258971Y207026D01*
X259227Y206727D01*
X259526Y206471D01*
X259862Y206266D01*
X260225Y206115D01*
X260608Y206023D01*
X261000Y205992D01*
X261098Y206000D01*
X268500D01*
Y189000D01*
X261098D01*
X261000Y189008D01*
X260608Y188977D01*
X260608Y188977D01*
X260225Y188885D01*
X259862Y188734D01*
X259526Y188529D01*
X259227Y188273D01*
X258971Y187974D01*
X258766Y187638D01*
X258615Y187275D01*
X258523Y186892D01*
X258492Y186500D01*
X258500Y186402D01*
Y178598D01*
X258492Y178500D01*
X258523Y178108D01*
X258523Y178108D01*
X258615Y177725D01*
X258766Y177362D01*
X258971Y177026D01*
X259227Y176727D01*
X259492Y176500D01*
X252343D01*
Y190992D01*
X252500Y190980D01*
X253520Y191060D01*
X254515Y191299D01*
X255460Y191691D01*
X256332Y192225D01*
X257110Y192890D01*
X257775Y193668D01*
X258309Y194540D01*
X258701Y195485D01*
X258940Y196480D01*
X259000Y197500D01*
X258940Y198520D01*
X258701Y199515D01*
X258309Y200460D01*
X257775Y201332D01*
X257110Y202110D01*
X256332Y202775D01*
X255460Y203309D01*
X254515Y203701D01*
X253520Y203940D01*
X252500Y204020D01*
X252343Y204008D01*
Y219731D01*
X252425Y219737D01*
X252616Y219784D01*
X252798Y219860D01*
X252965Y219964D01*
X253114Y220093D01*
X253241Y220243D01*
X253343Y220411D01*
X253414Y220594D01*
X253570Y221147D01*
X253671Y221713D01*
X253722Y222285D01*
Y222860D01*
X253671Y223432D01*
X253570Y223998D01*
X253420Y224552D01*
X253346Y224735D01*
X253244Y224904D01*
X253117Y225055D01*
X252967Y225184D01*
X252799Y225288D01*
X252617Y225364D01*
X252426Y225411D01*
X252343Y225418D01*
Y228561D01*
G37*
G36*
Y176500D02*X247692D01*
X247224Y176969D01*
Y193670D01*
X247225Y193668D01*
X247890Y192890D01*
X248668Y192225D01*
X249540Y191691D01*
X250485Y191299D01*
X251480Y191060D01*
X252343Y190992D01*
Y176500D01*
G37*
G36*
X247224Y226053D02*X248242Y226133D01*
X249237Y226372D01*
X250182Y226763D01*
X251054Y227298D01*
X251832Y227962D01*
X252343Y228561D01*
Y225418D01*
X252229Y225428D01*
X252032Y225413D01*
X251840Y225368D01*
X251657Y225294D01*
X251489Y225191D01*
X251338Y225064D01*
X251209Y224914D01*
X251105Y224747D01*
X251029Y224565D01*
X250981Y224373D01*
X250965Y224176D01*
X250980Y223979D01*
X251028Y223788D01*
X251125Y223449D01*
X251187Y223101D01*
X251218Y222749D01*
Y222396D01*
X251187Y222044D01*
X251125Y221696D01*
X251032Y221355D01*
X250983Y221165D01*
X250969Y220969D01*
X250985Y220773D01*
X251032Y220581D01*
X251108Y220400D01*
X251212Y220233D01*
X251341Y220084D01*
X251491Y219957D01*
X251659Y219855D01*
X251841Y219780D01*
X252033Y219735D01*
X252229Y219721D01*
X252343Y219731D01*
Y204008D01*
X251480Y203940D01*
X250485Y203701D01*
X249540Y203309D01*
X248668Y202775D01*
X247890Y202110D01*
X247225Y201332D01*
X247224Y201330D01*
Y216072D01*
X247509D01*
X248081Y216123D01*
X248647Y216224D01*
X249202Y216375D01*
X249385Y216448D01*
X249554Y216550D01*
X249704Y216678D01*
X249833Y216827D01*
X249937Y216995D01*
X250014Y217177D01*
X250061Y217369D01*
X250077Y217565D01*
X250063Y217762D01*
X250017Y217954D01*
X249943Y218137D01*
X249841Y218306D01*
X249713Y218456D01*
X249564Y218585D01*
X249396Y218689D01*
X249214Y218766D01*
X249022Y218813D01*
X248826Y218829D01*
X248629Y218815D01*
X248438Y218766D01*
X248098Y218670D01*
X247750Y218608D01*
X247398Y218576D01*
X247224D01*
Y226053D01*
G37*
G36*
X269000Y297500D02*X278651D01*
Y288495D01*
X278140Y288449D01*
X277575Y288348D01*
X277020Y288198D01*
X276837Y288125D01*
X276668Y288022D01*
X276517Y287895D01*
X276389Y287745D01*
X276285Y287578D01*
X276208Y287396D01*
X276161Y287204D01*
X276145Y287007D01*
X276159Y286810D01*
X276204Y286618D01*
X276279Y286436D01*
X276381Y286267D01*
X276509Y286116D01*
X276658Y285987D01*
X276826Y285883D01*
X277008Y285807D01*
X277199Y285760D01*
X277396Y285743D01*
X277593Y285758D01*
X277784Y285807D01*
X278124Y285903D01*
X278471Y285965D01*
X278651Y285981D01*
Y278019D01*
X278471Y278035D01*
X278124Y278097D01*
X277783Y278190D01*
X277592Y278238D01*
X277396Y278253D01*
X277200Y278236D01*
X277009Y278190D01*
X276828Y278113D01*
X276660Y278010D01*
X276511Y277881D01*
X276384Y277731D01*
X276282Y277563D01*
X276208Y277381D01*
X276163Y277189D01*
X276149Y276993D01*
X276165Y276797D01*
X276212Y276606D01*
X276288Y276424D01*
X276392Y276257D01*
X276520Y276108D01*
X276670Y275981D01*
X276839Y275879D01*
X277022Y275808D01*
X277575Y275652D01*
X278140Y275551D01*
X278651Y275505D01*
Y260995D01*
X278140Y260949D01*
X277575Y260848D01*
X277020Y260698D01*
X276837Y260625D01*
X276668Y260522D01*
X276517Y260395D01*
X276389Y260245D01*
X276285Y260078D01*
X276208Y259896D01*
X276161Y259704D01*
X276145Y259507D01*
X276159Y259310D01*
X276204Y259118D01*
X276279Y258936D01*
X276381Y258767D01*
X276509Y258616D01*
X276658Y258487D01*
X276826Y258383D01*
X277008Y258307D01*
X277199Y258260D01*
X277396Y258243D01*
X277593Y258258D01*
X277784Y258307D01*
X278124Y258403D01*
X278471Y258465D01*
X278651Y258481D01*
Y250519D01*
X278471Y250535D01*
X278124Y250597D01*
X277783Y250690D01*
X277592Y250738D01*
X277396Y250753D01*
X277200Y250736D01*
X277009Y250690D01*
X276828Y250613D01*
X276660Y250510D01*
X276511Y250381D01*
X276384Y250231D01*
X276282Y250063D01*
X276208Y249881D01*
X276163Y249689D01*
X276149Y249493D01*
X276165Y249297D01*
X276212Y249106D01*
X276288Y248924D01*
X276392Y248757D01*
X276520Y248608D01*
X276670Y248481D01*
X276839Y248379D01*
X277022Y248308D01*
X277575Y248152D01*
X278140Y248051D01*
X278651Y248005D01*
Y232774D01*
X269000D01*
Y248000D01*
X272902D01*
X273000Y247992D01*
X273392Y248023D01*
X273392Y248023D01*
X273775Y248115D01*
X274138Y248266D01*
X274474Y248471D01*
X274773Y248727D01*
X275029Y249026D01*
X275234Y249362D01*
X275385Y249725D01*
X275477Y250108D01*
X275508Y250500D01*
X275500Y250598D01*
Y258402D01*
X275508Y258500D01*
X275477Y258892D01*
X275477Y258892D01*
X275385Y259275D01*
X275234Y259638D01*
X275029Y259974D01*
X274773Y260273D01*
X274474Y260529D01*
X274138Y260734D01*
X273775Y260885D01*
X273392Y260977D01*
X273000Y261008D01*
X272902Y261000D01*
X269000D01*
Y275500D01*
X272902D01*
X273000Y275492D01*
X273392Y275523D01*
X273392Y275523D01*
X273775Y275615D01*
X274138Y275766D01*
X274474Y275971D01*
X274773Y276227D01*
X275029Y276526D01*
X275234Y276862D01*
X275385Y277225D01*
X275477Y277608D01*
X275508Y278000D01*
X275500Y278098D01*
Y285902D01*
X275508Y286000D01*
X275477Y286392D01*
X275477Y286392D01*
X275385Y286775D01*
X275234Y287138D01*
X275029Y287474D01*
X274773Y287773D01*
X274474Y288029D01*
X274138Y288234D01*
X273775Y288385D01*
X273392Y288477D01*
X273000Y288508D01*
X272902Y288500D01*
X269000D01*
Y297500D01*
G37*
G36*
X247224D02*X269000D01*
Y288500D01*
X265098D01*
X265000Y288508D01*
X264608Y288477D01*
X264608Y288477D01*
X264225Y288385D01*
X263862Y288234D01*
X263526Y288029D01*
X263227Y287773D01*
X262971Y287474D01*
X262766Y287138D01*
X262615Y286775D01*
X262523Y286392D01*
X262492Y286000D01*
X262500Y285902D01*
Y278098D01*
X262492Y278000D01*
X262523Y277608D01*
X262523Y277608D01*
X262615Y277225D01*
X262766Y276862D01*
X262971Y276526D01*
X263227Y276227D01*
X263526Y275971D01*
X263862Y275766D01*
X264225Y275615D01*
X264608Y275523D01*
X265000Y275492D01*
X265098Y275500D01*
X269000D01*
Y261000D01*
X265098D01*
X265000Y261008D01*
X264608Y260977D01*
X264608Y260977D01*
X264225Y260885D01*
X263862Y260734D01*
X263526Y260529D01*
X263227Y260273D01*
X262971Y259974D01*
X262766Y259638D01*
X262615Y259275D01*
X262523Y258892D01*
X262492Y258500D01*
X262500Y258402D01*
Y250598D01*
X262492Y250500D01*
X262523Y250108D01*
X262523Y250108D01*
X262615Y249725D01*
X262766Y249362D01*
X262971Y249026D01*
X263227Y248727D01*
X263526Y248471D01*
X263862Y248266D01*
X264225Y248115D01*
X264608Y248023D01*
X265000Y247992D01*
X265098Y248000D01*
X269000D01*
Y232774D01*
X262530D01*
X260256Y235048D01*
X260160Y235160D01*
X259711Y235543D01*
X259208Y235852D01*
X258662Y236077D01*
X258088Y236215D01*
X258088Y236215D01*
X257500Y236262D01*
X257353Y236250D01*
X252591D01*
X252497Y236405D01*
X251832Y237183D01*
X251376Y237572D01*
X251832Y237962D01*
X252497Y238740D01*
X253031Y239612D01*
X253423Y240558D01*
X253662Y241552D01*
X253722Y242572D01*
X253662Y243592D01*
X253423Y244587D01*
X253031Y245532D01*
X252497Y246405D01*
X251832Y247183D01*
X251376Y247572D01*
X251832Y247962D01*
X252497Y248740D01*
X253031Y249612D01*
X253423Y250558D01*
X253662Y251552D01*
X253722Y252572D01*
X253662Y253592D01*
X253423Y254587D01*
X253031Y255532D01*
X252497Y256405D01*
X251832Y257183D01*
X251054Y257847D01*
X250972Y257898D01*
Y268957D01*
X251002Y268987D01*
X251096Y268965D01*
X252116Y268884D01*
X253136Y268965D01*
X254131Y269203D01*
X255076Y269595D01*
X255949Y270130D01*
X256727Y270794D01*
X257391Y271572D01*
X257926Y272444D01*
X258317Y273390D01*
X258556Y274384D01*
X258616Y275404D01*
X258556Y276424D01*
X258317Y277419D01*
X257926Y278364D01*
X257391Y279237D01*
X256727Y280015D01*
X255949Y280679D01*
X255076Y281214D01*
X254131Y281605D01*
X253136Y281844D01*
X252116Y281924D01*
X251096Y281844D01*
X250102Y281605D01*
X249156Y281214D01*
X248284Y280679D01*
X247506Y280015D01*
X247224Y279684D01*
Y297500D01*
G37*
G36*
X242100Y228561D02*X242611Y227962D01*
X243389Y227298D01*
X244262Y226763D01*
X245207Y226372D01*
X246202Y226133D01*
X247222Y226052D01*
X247224Y226053D01*
Y218576D01*
X247045D01*
X246693Y218608D01*
X246345Y218670D01*
X246005Y218762D01*
X245814Y218811D01*
X245618Y218825D01*
X245422Y218809D01*
X245231Y218762D01*
X245049Y218686D01*
X244882Y218582D01*
X244733Y218454D01*
X244606Y218303D01*
X244504Y218135D01*
X244430Y217953D01*
X244385Y217761D01*
X244370Y217565D01*
X244387Y217369D01*
X244434Y217178D01*
X244510Y216997D01*
X244613Y216829D01*
X244742Y216680D01*
X244892Y216553D01*
X245060Y216451D01*
X245244Y216381D01*
X245796Y216224D01*
X246362Y216123D01*
X246934Y216072D01*
X247224D01*
Y201330D01*
X246691Y200460D01*
X246299Y199515D01*
X246060Y198520D01*
X245980Y197500D01*
X246060Y196480D01*
X246299Y195485D01*
X246691Y194540D01*
X247224Y193670D01*
Y176969D01*
X242100Y182092D01*
Y219727D01*
X242215Y219717D01*
X242411Y219732D01*
X242604Y219777D01*
X242786Y219851D01*
X242955Y219954D01*
X243106Y220081D01*
X243235Y220231D01*
X243339Y220398D01*
X243415Y220580D01*
X243462Y220772D01*
X243479Y220969D01*
X243464Y221165D01*
X243415Y221356D01*
X243319Y221696D01*
X243257Y222044D01*
X243226Y222396D01*
Y222749D01*
X243257Y223101D01*
X243319Y223449D01*
X243411Y223790D01*
X243460Y223980D01*
X243475Y224176D01*
X243458Y224372D01*
X243411Y224563D01*
X243335Y224745D01*
X243231Y224912D01*
X243103Y225061D01*
X242953Y225188D01*
X242784Y225290D01*
X242602Y225364D01*
X242411Y225409D01*
X242215Y225424D01*
X242100Y225414D01*
Y228561D01*
G37*
G36*
Y238561D02*X242611Y237962D01*
X243068Y237572D01*
X242611Y237183D01*
X242100Y236584D01*
Y238561D01*
G37*
G36*
Y248561D02*X242611Y247962D01*
X243068Y247572D01*
X242611Y247183D01*
X242100Y246584D01*
Y248561D01*
G37*
G36*
Y297500D02*X247224D01*
Y279684D01*
X246841Y279237D01*
X246307Y278364D01*
X245915Y277419D01*
X245677Y276424D01*
X245596Y275404D01*
X245677Y274384D01*
X245699Y274290D01*
X244674Y273265D01*
X244562Y273170D01*
X244179Y272721D01*
X243870Y272218D01*
X243644Y271672D01*
X243507Y271098D01*
X243507Y271098D01*
X243460Y270510D01*
X243472Y270363D01*
Y257898D01*
X243389Y257847D01*
X242611Y257183D01*
X242100Y256584D01*
Y297500D01*
G37*
G36*
X197490Y287300D02*X204600D01*
X204788Y287311D01*
X204972Y287355D01*
X205147Y287427D01*
X205308Y287526D01*
X205451Y287649D01*
X205574Y287792D01*
X205673Y287954D01*
X205745Y288128D01*
X205789Y288312D01*
X205800Y288500D01*
Y295000D01*
X205789Y295188D01*
X205745Y295372D01*
X205673Y295546D01*
X205574Y295708D01*
X205451Y295851D01*
X205308Y295974D01*
X205147Y296073D01*
X204972Y296145D01*
X204788Y296189D01*
X204600Y296200D01*
X197490D01*
Y297500D01*
X242100D01*
Y256584D01*
X241947Y256405D01*
X241412Y255532D01*
X241021Y254587D01*
X240782Y253592D01*
X240702Y252572D01*
X240782Y251552D01*
X241021Y250558D01*
X241412Y249612D01*
X241947Y248740D01*
X242100Y248561D01*
Y246584D01*
X241947Y246405D01*
X241412Y245532D01*
X241021Y244587D01*
X240782Y243592D01*
X240702Y242572D01*
X240782Y241552D01*
X241021Y240558D01*
X241412Y239612D01*
X241947Y238740D01*
X242100Y238561D01*
Y236584D01*
X241947Y236405D01*
X241412Y235532D01*
X241021Y234587D01*
X240782Y233592D01*
X240702Y232572D01*
X240782Y231552D01*
X241021Y230558D01*
X241412Y229612D01*
X241947Y228740D01*
X242100Y228561D01*
Y225414D01*
X242018Y225407D01*
X241827Y225361D01*
X241646Y225284D01*
X241479Y225181D01*
X241330Y225052D01*
X241203Y224902D01*
X241101Y224734D01*
X241030Y224550D01*
X240873Y223998D01*
X240772Y223432D01*
X240722Y222860D01*
Y222285D01*
X240772Y221713D01*
X240873Y221147D01*
X241024Y220593D01*
X241097Y220409D01*
X241200Y220241D01*
X241327Y220090D01*
X241476Y219961D01*
X241644Y219857D01*
X241826Y219781D01*
X242018Y219734D01*
X242100Y219727D01*
Y182092D01*
X237276Y186916D01*
X237110Y187110D01*
X236332Y187775D01*
X235792Y188106D01*
X235460Y188309D01*
X234515Y188701D01*
X233520Y188940D01*
X232500Y189020D01*
X232245Y189000D01*
X217979D01*
X218309Y189540D01*
X218701Y190485D01*
X218940Y191480D01*
X219020Y192500D01*
X219000Y192755D01*
Y193402D01*
X219008Y193500D01*
X219000Y193598D01*
Y197245D01*
X219020Y197500D01*
X219000Y197755D01*
Y201402D01*
X219008Y201500D01*
X218977Y201892D01*
X218977Y201892D01*
X218885Y202275D01*
X218734Y202638D01*
X218529Y202974D01*
X218273Y203273D01*
X217974Y203529D01*
X217638Y203734D01*
X217275Y203885D01*
X216892Y203977D01*
X216500Y204008D01*
X216402Y204000D01*
X215192D01*
X209192Y210000D01*
X215265Y216072D01*
X216967D01*
X217222Y216052D01*
X218242Y216133D01*
X219237Y216372D01*
X220182Y216763D01*
X221054Y217298D01*
X221832Y217962D01*
X222497Y218740D01*
X223031Y219612D01*
X223423Y220558D01*
X223662Y221552D01*
X223742Y222572D01*
X223662Y223592D01*
X223423Y224587D01*
X223031Y225532D01*
X222497Y226405D01*
X221832Y227183D01*
X221376Y227572D01*
X221832Y227962D01*
X222497Y228740D01*
X223031Y229612D01*
X223423Y230558D01*
X223662Y231552D01*
X223722Y232572D01*
X223662Y233592D01*
X223423Y234587D01*
X223031Y235532D01*
X222497Y236405D01*
X221832Y237183D01*
X221376Y237572D01*
X221832Y237962D01*
X222497Y238740D01*
X223031Y239612D01*
X223423Y240558D01*
X223662Y241552D01*
X223722Y242572D01*
X223662Y243592D01*
X223423Y244587D01*
X223031Y245532D01*
X222497Y246405D01*
X222487Y246416D01*
X222696Y246544D01*
X222995Y246799D01*
X223251Y247098D01*
X223456Y247434D01*
X223607Y247798D01*
X223699Y248180D01*
X223729Y248572D01*
X223722Y248670D01*
Y256474D01*
X223729Y256572D01*
X223699Y256965D01*
X223699Y256965D01*
X223607Y257347D01*
X223456Y257711D01*
X223251Y258046D01*
X222995Y258346D01*
X222696Y258601D01*
X222360Y258807D01*
X221997Y258957D01*
X221614Y259049D01*
X221222Y259080D01*
X221124Y259072D01*
X220972D01*
Y270152D01*
X220983Y270299D01*
X220937Y270887D01*
X220937Y270887D01*
X220799Y271461D01*
X220573Y272007D01*
X220265Y272510D01*
X219882Y272959D01*
X219770Y273054D01*
X218616Y274208D01*
Y279306D01*
X218624Y279404D01*
X218593Y279796D01*
X218593Y279797D01*
X218501Y280179D01*
X218351Y280543D01*
X218145Y280878D01*
X217890Y281178D01*
X217590Y281433D01*
X217255Y281639D01*
X216891Y281789D01*
X216509Y281881D01*
X216116Y281912D01*
X216018Y281904D01*
X208214D01*
X208116Y281912D01*
X207724Y281881D01*
X207724Y281881D01*
X207341Y281789D01*
X206978Y281639D01*
X206642Y281433D01*
X206343Y281178D01*
X206088Y280878D01*
X205882Y280543D01*
X205731Y280179D01*
X205639Y279797D01*
X205609Y279404D01*
X205616Y279306D01*
Y271502D01*
X205609Y271404D01*
X205639Y271012D01*
X205639Y271012D01*
X205731Y270629D01*
X205882Y270266D01*
X206088Y269930D01*
X206343Y269631D01*
X206642Y269376D01*
X206978Y269170D01*
X207341Y269019D01*
X207724Y268928D01*
X208116Y268897D01*
X208214Y268904D01*
X213313D01*
X213472Y268746D01*
Y259072D01*
X213320D01*
X213222Y259080D01*
X212830Y259049D01*
X212829Y259049D01*
X212447Y258957D01*
X212083Y258807D01*
X211748Y258601D01*
X211449Y258346D01*
X211193Y258046D01*
X210987Y257711D01*
X210837Y257347D01*
X210745Y256965D01*
X210714Y256572D01*
X210722Y256474D01*
Y248670D01*
X210714Y248572D01*
X210745Y248180D01*
X210745Y248180D01*
X210837Y247798D01*
X210987Y247434D01*
X211193Y247098D01*
X211449Y246799D01*
X211748Y246544D01*
X211956Y246416D01*
X211947Y246405D01*
X211412Y245532D01*
X211021Y244587D01*
X210782Y243592D01*
X210702Y242572D01*
X210782Y241552D01*
X211021Y240558D01*
X211412Y239612D01*
X211947Y238740D01*
X212611Y237962D01*
X213068Y237572D01*
X212611Y237183D01*
X211947Y236405D01*
X211412Y235532D01*
X211021Y234587D01*
X210782Y233592D01*
X210702Y232572D01*
X210782Y231552D01*
X211021Y230558D01*
X211412Y229612D01*
X211770Y229029D01*
X211552Y229012D01*
X210558Y228773D01*
X209612Y228382D01*
X208740Y227847D01*
X208740Y227847D01*
X207962Y227183D01*
X207796Y226989D01*
X198084Y217276D01*
X197890Y217110D01*
X197490Y216642D01*
Y230981D01*
X197500Y230980D01*
X198520Y231060D01*
X199515Y231299D01*
X200460Y231691D01*
X201332Y232225D01*
X202110Y232890D01*
X202775Y233668D01*
X203309Y234540D01*
X203701Y235485D01*
X203940Y236480D01*
X204000Y237500D01*
X203940Y238520D01*
X203701Y239515D01*
X203309Y240460D01*
X202775Y241332D01*
X202110Y242110D01*
X201332Y242775D01*
X200460Y243309D01*
X199515Y243701D01*
X198520Y243940D01*
X197500Y244020D01*
X197490Y244019D01*
Y245981D01*
X197500Y245980D01*
X198520Y246060D01*
X199515Y246299D01*
X200460Y246691D01*
X201332Y247225D01*
X202110Y247890D01*
X202775Y248668D01*
X203309Y249540D01*
X203701Y250485D01*
X203940Y251480D01*
X204000Y252500D01*
X203940Y253520D01*
X203701Y254515D01*
X203309Y255460D01*
X202775Y256332D01*
X202110Y257110D01*
X201332Y257775D01*
X200460Y258309D01*
X199515Y258701D01*
X198520Y258940D01*
X197500Y259020D01*
X197490Y259019D01*
Y260981D01*
X197500Y260980D01*
X198520Y261060D01*
X199515Y261299D01*
X200460Y261691D01*
X201332Y262225D01*
X202110Y262890D01*
X202775Y263668D01*
X203309Y264540D01*
X203701Y265485D01*
X203940Y266480D01*
X204000Y267500D01*
X203940Y268520D01*
X203701Y269515D01*
X203309Y270460D01*
X202775Y271332D01*
X202110Y272110D01*
X201332Y272775D01*
X200460Y273309D01*
X199515Y273701D01*
X198520Y273940D01*
X197500Y274020D01*
X197490Y274019D01*
Y287300D01*
G37*
G36*
X278651Y162500D02*X197490D01*
Y178358D01*
X197890Y177890D01*
X198668Y177225D01*
X199540Y176691D01*
X200485Y176299D01*
X201480Y176060D01*
X202500Y175980D01*
X202755Y176000D01*
X229808D01*
X240224Y165584D01*
X240390Y165390D01*
X241168Y164725D01*
X242040Y164191D01*
X242985Y163799D01*
X243741Y163618D01*
X243980Y163560D01*
X243980D01*
X245000Y163480D01*
X245255Y163500D01*
X272245D01*
X272500Y163480D01*
X273520Y163560D01*
X273520Y163560D01*
X274515Y163799D01*
X275460Y164191D01*
X276332Y164725D01*
X277110Y165390D01*
X277276Y165584D01*
X278651Y166958D01*
Y162500D01*
G37*
G36*
X197490Y296200D02*X177622D01*
Y297500D01*
X197490D01*
Y296200D01*
G37*
G36*
Y162500D02*X177622D01*
Y179658D01*
X177703Y179665D01*
X177894Y179712D01*
X178076Y179788D01*
X178243Y179892D01*
X178392Y180020D01*
X178519Y180170D01*
X178621Y180339D01*
X178692Y180522D01*
X178848Y181075D01*
X178949Y181640D01*
X179000Y182213D01*
Y182787D01*
X178949Y183360D01*
X178848Y183925D01*
X178698Y184480D01*
X178625Y184663D01*
X178522Y184832D01*
X178395Y184983D01*
X178245Y185111D01*
X178078Y185215D01*
X177896Y185292D01*
X177704Y185339D01*
X177622Y185346D01*
Y216259D01*
X177638Y216266D01*
X177974Y216471D01*
X178273Y216727D01*
X178529Y217026D01*
X178734Y217362D01*
X178885Y217725D01*
X178977Y218108D01*
X179008Y218500D01*
X179000Y218598D01*
Y226402D01*
X179008Y226500D01*
X178977Y226892D01*
X178977Y226892D01*
X178885Y227275D01*
X178734Y227638D01*
X178529Y227974D01*
X178273Y228273D01*
X177974Y228529D01*
X177638Y228734D01*
X177622Y228741D01*
Y287300D01*
X197490D01*
Y274019D01*
X196480Y273940D01*
X195485Y273701D01*
X194540Y273309D01*
X193668Y272775D01*
X192890Y272110D01*
X192225Y271332D01*
X191691Y270460D01*
X191299Y269515D01*
X191060Y268520D01*
X190980Y267500D01*
X191060Y266480D01*
X191299Y265485D01*
X191691Y264540D01*
X192225Y263668D01*
X192890Y262890D01*
X193668Y262225D01*
X194540Y261691D01*
X195485Y261299D01*
X196480Y261060D01*
X197490Y260981D01*
Y259019D01*
X196480Y258940D01*
X195485Y258701D01*
X194540Y258309D01*
X193668Y257775D01*
X192890Y257110D01*
X192225Y256332D01*
X191691Y255460D01*
X191299Y254515D01*
X191060Y253520D01*
X190980Y252500D01*
X191060Y251480D01*
X191299Y250485D01*
X191691Y249540D01*
X192225Y248668D01*
X192890Y247890D01*
X193668Y247225D01*
X194540Y246691D01*
X195485Y246299D01*
X196480Y246060D01*
X197490Y245981D01*
Y244019D01*
X196480Y243940D01*
X195485Y243701D01*
X194540Y243309D01*
X193668Y242775D01*
X192890Y242110D01*
X192225Y241332D01*
X191691Y240460D01*
X191299Y239515D01*
X191060Y238520D01*
X190980Y237500D01*
X191060Y236480D01*
X191299Y235485D01*
X191691Y234540D01*
X192225Y233668D01*
X192890Y232890D01*
X193668Y232225D01*
X194540Y231691D01*
X195485Y231299D01*
X196480Y231060D01*
X197490Y230981D01*
Y216642D01*
X197331Y216457D01*
X197295Y216415D01*
X197181Y216367D01*
X197013Y216264D01*
X196863Y216137D01*
X196736Y215987D01*
X196633Y215819D01*
X196558Y215637D01*
X196512Y215446D01*
X196500Y215250D01*
Y216500D01*
X195250D01*
X195446Y216512D01*
X195637Y216558D01*
X195819Y216633D01*
X195987Y216736D01*
X196137Y216863D01*
X196264Y217013D01*
X196367Y217181D01*
X196442Y217363D01*
X196488Y217554D01*
X196504Y217750D01*
X196488Y217946D01*
X196442Y218137D01*
X196367Y218319D01*
X196264Y218487D01*
X196137Y218637D01*
X195987Y218764D01*
X195819Y218867D01*
X195637Y218942D01*
X195446Y218988D01*
X195250Y219000D01*
X189750D01*
X189554Y218988D01*
X189363Y218942D01*
X189181Y218867D01*
X189013Y218764D01*
X188863Y218637D01*
X188736Y218487D01*
X188633Y218319D01*
X188558Y218137D01*
X188512Y217946D01*
X188496Y217750D01*
X188512Y217554D01*
X188558Y217363D01*
X188633Y217181D01*
X188736Y217013D01*
X188863Y216863D01*
X189013Y216736D01*
X189181Y216633D01*
X189363Y216558D01*
X189554Y216512D01*
X189750Y216500D01*
X188500D01*
Y215250D01*
X188488Y215446D01*
X188442Y215637D01*
X188367Y215819D01*
X188264Y215987D01*
X188137Y216137D01*
X187987Y216264D01*
X187819Y216367D01*
X187637Y216442D01*
X187446Y216488D01*
X187250Y216504D01*
X187054Y216488D01*
X186863Y216442D01*
X186681Y216367D01*
X186513Y216264D01*
X186363Y216137D01*
X186236Y215987D01*
X186133Y215819D01*
X186058Y215637D01*
X186012Y215446D01*
X186000Y215250D01*
Y209750D01*
X186012Y209554D01*
X186058Y209363D01*
X186133Y209181D01*
X186236Y209013D01*
X186363Y208863D01*
X186513Y208736D01*
X186681Y208633D01*
X186863Y208558D01*
X187054Y208512D01*
X187250Y208496D01*
X187446Y208512D01*
X187637Y208558D01*
X187819Y208633D01*
X187987Y208736D01*
X188137Y208863D01*
X188264Y209013D01*
X188367Y209181D01*
X188442Y209363D01*
X188488Y209554D01*
X188500Y209750D01*
Y208500D01*
X189750D01*
X189554Y208488D01*
X189363Y208442D01*
X189181Y208367D01*
X189013Y208264D01*
X188863Y208137D01*
X188736Y207987D01*
X188633Y207819D01*
X188558Y207637D01*
X188512Y207446D01*
X188496Y207250D01*
X188512Y207054D01*
X188558Y206863D01*
X188633Y206681D01*
X188736Y206513D01*
X188863Y206363D01*
X189013Y206236D01*
X189181Y206133D01*
X189363Y206058D01*
X189554Y206012D01*
X189750Y206000D01*
X195250D01*
X195446Y206012D01*
X195637Y206058D01*
X195819Y206133D01*
X195987Y206236D01*
X196096Y206329D01*
X196118Y206241D01*
X196299Y205485D01*
X196691Y204540D01*
X197225Y203668D01*
X197490Y203358D01*
Y186642D01*
X197295Y186415D01*
X197181Y186367D01*
X197013Y186264D01*
X196863Y186137D01*
X196736Y185987D01*
X196633Y185819D01*
X196558Y185637D01*
X196512Y185446D01*
X196500Y185250D01*
Y186500D01*
X195250D01*
X195446Y186512D01*
X195637Y186558D01*
X195819Y186633D01*
X195987Y186736D01*
X196137Y186863D01*
X196264Y187013D01*
X196367Y187181D01*
X196442Y187363D01*
X196488Y187554D01*
X196504Y187750D01*
X196488Y187946D01*
X196442Y188137D01*
X196367Y188319D01*
X196264Y188487D01*
X196137Y188637D01*
X195987Y188764D01*
X195819Y188867D01*
X195637Y188942D01*
X195446Y188988D01*
X195250Y189000D01*
X189750D01*
X189554Y188988D01*
X189363Y188942D01*
X189181Y188867D01*
X189013Y188764D01*
X188863Y188637D01*
X188736Y188487D01*
X188633Y188319D01*
X188558Y188137D01*
X188512Y187946D01*
X188496Y187750D01*
X188512Y187554D01*
X188558Y187363D01*
X188633Y187181D01*
X188736Y187013D01*
X188863Y186863D01*
X189013Y186736D01*
X189181Y186633D01*
X189363Y186558D01*
X189554Y186512D01*
X189750Y186500D01*
X188500D01*
Y185250D01*
X188488Y185446D01*
X188442Y185637D01*
X188367Y185819D01*
X188264Y185987D01*
X188137Y186137D01*
X187987Y186264D01*
X187819Y186367D01*
X187637Y186442D01*
X187446Y186488D01*
X187250Y186504D01*
X187054Y186488D01*
X186863Y186442D01*
X186681Y186367D01*
X186513Y186264D01*
X186363Y186137D01*
X186236Y185987D01*
X186133Y185819D01*
X186058Y185637D01*
X186012Y185446D01*
X186000Y185250D01*
Y179750D01*
X186012Y179554D01*
X186058Y179363D01*
X186133Y179181D01*
X186236Y179013D01*
X186363Y178863D01*
X186513Y178736D01*
X186681Y178633D01*
X186863Y178558D01*
X187054Y178512D01*
X187250Y178496D01*
X187446Y178512D01*
X187637Y178558D01*
X187819Y178633D01*
X187987Y178736D01*
X188137Y178863D01*
X188264Y179013D01*
X188367Y179181D01*
X188442Y179363D01*
X188488Y179554D01*
X188500Y179750D01*
Y178500D01*
X189750D01*
X189554Y178488D01*
X189363Y178442D01*
X189181Y178367D01*
X189013Y178264D01*
X188863Y178137D01*
X188736Y177987D01*
X188633Y177819D01*
X188558Y177637D01*
X188512Y177446D01*
X188496Y177250D01*
X188512Y177054D01*
X188558Y176863D01*
X188633Y176681D01*
X188736Y176513D01*
X188863Y176363D01*
X189013Y176236D01*
X189181Y176133D01*
X189363Y176058D01*
X189554Y176012D01*
X189750Y176000D01*
X195250D01*
X195446Y176012D01*
X195637Y176058D01*
X195819Y176133D01*
X195987Y176236D01*
X196137Y176363D01*
X196264Y176513D01*
X196367Y176681D01*
X196442Y176863D01*
X196488Y177054D01*
X196504Y177250D01*
X196488Y177446D01*
X196442Y177637D01*
X196367Y177819D01*
X196264Y177987D01*
X196137Y178137D01*
X195987Y178264D01*
X195819Y178367D01*
X195637Y178442D01*
X195446Y178488D01*
X195250Y178500D01*
X196500D01*
Y179750D01*
X196512Y179554D01*
X196558Y179363D01*
X196633Y179181D01*
X196736Y179013D01*
X196863Y178863D01*
X197013Y178736D01*
X197181Y178633D01*
X197295Y178585D01*
X197490Y178358D01*
Y162500D01*
G37*
G36*
X177622Y296200D02*X172550D01*
Y297500D01*
X177622D01*
Y296200D01*
G37*
G36*
Y228741D02*X177275Y228885D01*
X176892Y228977D01*
X176500Y229008D01*
X176402Y229000D01*
X172550D01*
Y231229D01*
X172638Y231266D01*
X172974Y231471D01*
X173273Y231727D01*
X173529Y232026D01*
X173734Y232362D01*
X173885Y232725D01*
X173977Y233108D01*
X174008Y233500D01*
X174000Y233598D01*
Y241402D01*
X174008Y241500D01*
X173977Y241892D01*
X173977Y241892D01*
X173885Y242275D01*
X173734Y242638D01*
X173529Y242974D01*
X173273Y243273D01*
X172974Y243529D01*
X172638Y243734D01*
X172550Y243771D01*
Y246229D01*
X172638Y246266D01*
X172974Y246471D01*
X173273Y246727D01*
X173529Y247026D01*
X173734Y247362D01*
X173885Y247725D01*
X173977Y248108D01*
X174008Y248500D01*
X174000Y248598D01*
Y256402D01*
X174008Y256500D01*
X173977Y256892D01*
X173977Y256892D01*
X173885Y257275D01*
X173734Y257638D01*
X173529Y257974D01*
X173273Y258273D01*
X172974Y258529D01*
X172638Y258734D01*
X172550Y258771D01*
Y287300D01*
X177622D01*
Y228741D01*
G37*
G36*
Y162500D02*X172550D01*
Y176000D01*
X172787D01*
X173360Y176051D01*
X173925Y176152D01*
X174480Y176302D01*
X174663Y176375D01*
X174832Y176478D01*
X174983Y176605D01*
X175111Y176755D01*
X175215Y176922D01*
X175292Y177104D01*
X175339Y177296D01*
X175355Y177493D01*
X175341Y177690D01*
X175296Y177882D01*
X175221Y178064D01*
X175119Y178233D01*
X174991Y178384D01*
X174842Y178513D01*
X174674Y178617D01*
X174492Y178693D01*
X174301Y178740D01*
X174104Y178757D01*
X173907Y178742D01*
X173716Y178693D01*
X173376Y178597D01*
X173029Y178535D01*
X172677Y178504D01*
X172550D01*
Y186496D01*
X172677D01*
X173029Y186465D01*
X173376Y186403D01*
X173717Y186310D01*
X173908Y186262D01*
X174104Y186247D01*
X174300Y186264D01*
X174491Y186310D01*
X174672Y186387D01*
X174840Y186490D01*
X174989Y186619D01*
X175116Y186769D01*
X175218Y186937D01*
X175292Y187119D01*
X175337Y187311D01*
X175351Y187507D01*
X175335Y187703D01*
X175288Y187894D01*
X175212Y188076D01*
X175108Y188243D01*
X174980Y188392D01*
X174830Y188519D01*
X174661Y188621D01*
X174478Y188692D01*
X173925Y188848D01*
X173360Y188949D01*
X172787Y189000D01*
X172550D01*
Y216000D01*
X176402D01*
X176500Y215992D01*
X176892Y216023D01*
X176892Y216023D01*
X177275Y216115D01*
X177622Y216259D01*
Y185346D01*
X177507Y185355D01*
X177310Y185341D01*
X177118Y185296D01*
X176936Y185221D01*
X176767Y185119D01*
X176616Y184991D01*
X176487Y184842D01*
X176383Y184674D01*
X176307Y184492D01*
X176260Y184301D01*
X176243Y184104D01*
X176258Y183907D01*
X176307Y183716D01*
X176403Y183376D01*
X176465Y183029D01*
X176496Y182677D01*
Y182323D01*
X176465Y181971D01*
X176403Y181624D01*
X176310Y181283D01*
X176262Y181092D01*
X176247Y180896D01*
X176264Y180700D01*
X176310Y180509D01*
X176387Y180328D01*
X176490Y180160D01*
X176619Y180011D01*
X176769Y179884D01*
X176937Y179782D01*
X177119Y179708D01*
X177311Y179663D01*
X177507Y179649D01*
X177622Y179658D01*
Y162500D01*
G37*
G36*
X167378Y231000D02*X171402D01*
X171500Y230992D01*
X171892Y231023D01*
X171892Y231023D01*
X172275Y231115D01*
X172550Y231229D01*
Y229000D01*
X168598D01*
X168500Y229008D01*
X168108Y228977D01*
X168108Y228977D01*
X167725Y228885D01*
X167378Y228741D01*
Y231000D01*
G37*
G36*
Y246000D02*X171402D01*
X171500Y245992D01*
X171892Y246023D01*
X171892Y246023D01*
X172275Y246115D01*
X172550Y246229D01*
Y243771D01*
X172275Y243885D01*
X171892Y243977D01*
X171500Y244008D01*
X171402Y244000D01*
X167378D01*
Y246000D01*
G37*
G36*
Y287300D02*X172550D01*
Y258771D01*
X172275Y258885D01*
X171892Y258977D01*
X171500Y259008D01*
X171402Y259000D01*
X167378D01*
Y287300D01*
G37*
G36*
Y297500D02*X172550D01*
Y296200D01*
X167378D01*
Y297500D01*
G37*
G36*
X172550Y162500D02*X167378D01*
Y179654D01*
X167493Y179645D01*
X167690Y179659D01*
X167882Y179704D01*
X168064Y179779D01*
X168233Y179881D01*
X168384Y180009D01*
X168513Y180158D01*
X168617Y180326D01*
X168693Y180508D01*
X168740Y180699D01*
X168757Y180896D01*
X168742Y181093D01*
X168693Y181284D01*
X168597Y181624D01*
X168535Y181971D01*
X168504Y182323D01*
Y182677D01*
X168535Y183029D01*
X168597Y183376D01*
X168690Y183717D01*
X168738Y183908D01*
X168753Y184104D01*
X168736Y184300D01*
X168690Y184491D01*
X168613Y184672D01*
X168510Y184840D01*
X168381Y184989D01*
X168231Y185116D01*
X168063Y185218D01*
X167881Y185292D01*
X167689Y185337D01*
X167493Y185351D01*
X167378Y185342D01*
Y216259D01*
X167725Y216115D01*
X168108Y216023D01*
X168500Y215992D01*
X168598Y216000D01*
X172550D01*
Y189000D01*
X172213D01*
X171640Y188949D01*
X171075Y188848D01*
X170520Y188698D01*
X170337Y188625D01*
X170168Y188522D01*
X170017Y188395D01*
X169889Y188245D01*
X169785Y188078D01*
X169708Y187896D01*
X169661Y187704D01*
X169645Y187507D01*
X169659Y187310D01*
X169704Y187118D01*
X169779Y186936D01*
X169881Y186767D01*
X170009Y186616D01*
X170158Y186487D01*
X170326Y186383D01*
X170508Y186307D01*
X170699Y186260D01*
X170896Y186243D01*
X171093Y186258D01*
X171284Y186307D01*
X171624Y186403D01*
X171971Y186465D01*
X172323Y186496D01*
X172550D01*
Y178504D01*
X172323D01*
X171971Y178535D01*
X171624Y178597D01*
X171283Y178690D01*
X171092Y178738D01*
X170896Y178753D01*
X170700Y178736D01*
X170509Y178690D01*
X170328Y178613D01*
X170160Y178510D01*
X170011Y178381D01*
X169884Y178231D01*
X169782Y178063D01*
X169708Y177881D01*
X169663Y177689D01*
X169649Y177493D01*
X169665Y177297D01*
X169712Y177106D01*
X169788Y176924D01*
X169892Y176757D01*
X170020Y176608D01*
X170170Y176481D01*
X170339Y176379D01*
X170522Y176308D01*
X171075Y176152D01*
X171640Y176051D01*
X172213Y176000D01*
X172550D01*
Y162500D01*
G37*
G36*
X151273Y297500D02*X167378D01*
Y296200D01*
X151273D01*
Y297500D01*
G37*
G36*
X167378Y162500D02*X151273D01*
Y182079D01*
X151281Y182079D01*
X152144Y182147D01*
X152986Y182349D01*
X153786Y182680D01*
X154524Y183132D01*
X155182Y183695D01*
X155744Y184353D01*
X156197Y185091D01*
X156528Y185891D01*
X156730Y186733D01*
X156781Y187596D01*
X156730Y188459D01*
X156528Y189301D01*
X156197Y190100D01*
X155744Y190839D01*
X155182Y191497D01*
X154524Y192059D01*
X153786Y192511D01*
X152986Y192843D01*
X152144Y193045D01*
X151281Y193113D01*
X151273Y193112D01*
Y194679D01*
X151281Y194679D01*
X152144Y194747D01*
X152986Y194949D01*
X153786Y195280D01*
X154524Y195732D01*
X155182Y196295D01*
X155744Y196953D01*
X156197Y197691D01*
X156528Y198491D01*
X156730Y199333D01*
X156781Y200196D01*
X156730Y201059D01*
X156528Y201901D01*
X156197Y202700D01*
X155744Y203439D01*
X155182Y204097D01*
X154524Y204659D01*
X153786Y205111D01*
X152986Y205443D01*
X152144Y205645D01*
X151281Y205713D01*
X151273Y205712D01*
Y263970D01*
X151363Y263863D01*
X151513Y263736D01*
X151681Y263633D01*
X151863Y263558D01*
X152054Y263512D01*
X152250Y263496D01*
X152446Y263512D01*
X152637Y263558D01*
X152819Y263633D01*
X152987Y263736D01*
X153137Y263863D01*
X153264Y264013D01*
X153367Y264181D01*
X153442Y264363D01*
X153488Y264554D01*
X153500Y264750D01*
Y263500D01*
X154750D01*
X154554Y263488D01*
X154363Y263442D01*
X154181Y263367D01*
X154013Y263264D01*
X153863Y263137D01*
X153736Y262987D01*
X153633Y262819D01*
X153558Y262637D01*
X153512Y262446D01*
X153496Y262250D01*
X153512Y262054D01*
X153558Y261863D01*
X153633Y261681D01*
X153736Y261513D01*
X153863Y261363D01*
X154013Y261236D01*
X154181Y261133D01*
X154363Y261058D01*
X154554Y261012D01*
X154750Y261000D01*
X160250D01*
X160446Y261012D01*
X160637Y261058D01*
X160819Y261133D01*
X160987Y261236D01*
X161137Y261363D01*
X161264Y261513D01*
X161367Y261681D01*
X161442Y261863D01*
X161488Y262054D01*
X161504Y262250D01*
X161488Y262446D01*
X161442Y262637D01*
X161367Y262819D01*
X161264Y262987D01*
X161137Y263137D01*
X160987Y263264D01*
X160819Y263367D01*
X160637Y263442D01*
X160446Y263488D01*
X160250Y263500D01*
X161500D01*
Y264750D01*
X161512Y264554D01*
X161558Y264363D01*
X161633Y264181D01*
X161736Y264013D01*
X161863Y263863D01*
X162013Y263736D01*
X162181Y263633D01*
X162363Y263558D01*
X162554Y263512D01*
X162750Y263496D01*
X162946Y263512D01*
X163137Y263558D01*
X163319Y263633D01*
X163487Y263736D01*
X163637Y263863D01*
X163764Y264013D01*
X163867Y264181D01*
X163942Y264363D01*
X163988Y264554D01*
X164000Y264750D01*
Y270250D01*
X163988Y270446D01*
X163942Y270637D01*
X163867Y270819D01*
X163764Y270987D01*
X163637Y271137D01*
X163487Y271264D01*
X163319Y271367D01*
X163137Y271442D01*
X162946Y271488D01*
X162750Y271504D01*
X162554Y271488D01*
X162363Y271442D01*
X162181Y271367D01*
X162013Y271264D01*
X161863Y271137D01*
X161736Y270987D01*
X161633Y270819D01*
X161558Y270637D01*
X161512Y270446D01*
X161500Y270250D01*
Y271500D01*
X160250D01*
X160446Y271512D01*
X160637Y271558D01*
X160819Y271633D01*
X160987Y271736D01*
X161137Y271863D01*
X161264Y272013D01*
X161367Y272181D01*
X161442Y272363D01*
X161488Y272554D01*
X161504Y272750D01*
X161488Y272946D01*
X161442Y273137D01*
X161367Y273319D01*
X161264Y273487D01*
X161137Y273637D01*
X160987Y273764D01*
X160819Y273867D01*
X160637Y273942D01*
X160446Y273988D01*
X160250Y274000D01*
X154750D01*
X154554Y273988D01*
X154363Y273942D01*
X154181Y273867D01*
X154013Y273764D01*
X153863Y273637D01*
X153736Y273487D01*
X153633Y273319D01*
X153558Y273137D01*
X153512Y272946D01*
X153496Y272750D01*
X153512Y272554D01*
X153558Y272363D01*
X153633Y272181D01*
X153736Y272013D01*
X153863Y271863D01*
X154013Y271736D01*
X154181Y271633D01*
X154363Y271558D01*
X154554Y271512D01*
X154750Y271500D01*
X153500D01*
Y270250D01*
X153488Y270446D01*
X153442Y270637D01*
X153367Y270819D01*
X153264Y270987D01*
X153137Y271137D01*
X152987Y271264D01*
X152819Y271367D01*
X152637Y271442D01*
X152446Y271488D01*
X152250Y271504D01*
X152054Y271488D01*
X151863Y271442D01*
X151681Y271367D01*
X151513Y271264D01*
X151363Y271137D01*
X151273Y271030D01*
Y287300D01*
X167378D01*
Y259000D01*
X163598D01*
X163500Y259008D01*
X163108Y258977D01*
X163108Y258977D01*
X162725Y258885D01*
X162362Y258734D01*
X162026Y258529D01*
X161727Y258273D01*
X161471Y257974D01*
X161266Y257638D01*
X161115Y257275D01*
X161023Y256892D01*
X160992Y256500D01*
X161000Y256402D01*
Y248598D01*
X160992Y248500D01*
X161023Y248108D01*
X161023Y248108D01*
X161115Y247725D01*
X161266Y247362D01*
X161471Y247026D01*
X161727Y246727D01*
X162026Y246471D01*
X162362Y246266D01*
X162725Y246115D01*
X163108Y246023D01*
X163500Y245992D01*
X163598Y246000D01*
X167378D01*
Y244000D01*
X163598D01*
X163500Y244008D01*
X163108Y243977D01*
X163108Y243977D01*
X162725Y243885D01*
X162362Y243734D01*
X162026Y243529D01*
X161727Y243273D01*
X161471Y242974D01*
X161266Y242638D01*
X161115Y242275D01*
X161023Y241892D01*
X160992Y241500D01*
X161000Y241402D01*
Y233598D01*
X160992Y233500D01*
X161023Y233108D01*
X161023Y233108D01*
X161115Y232725D01*
X161266Y232362D01*
X161471Y232026D01*
X161727Y231727D01*
X162026Y231471D01*
X162362Y231266D01*
X162725Y231115D01*
X163108Y231023D01*
X163500Y230992D01*
X163598Y231000D01*
X167378D01*
Y228741D01*
X167362Y228734D01*
X167026Y228529D01*
X166727Y228273D01*
X166471Y227974D01*
X166266Y227638D01*
X166115Y227275D01*
X166023Y226892D01*
X165992Y226500D01*
X166000Y226402D01*
Y218598D01*
X165992Y218500D01*
X166023Y218108D01*
X166023Y218108D01*
X166115Y217725D01*
X166266Y217362D01*
X166471Y217026D01*
X166727Y216727D01*
X167026Y216471D01*
X167362Y216266D01*
X167378Y216259D01*
Y185342D01*
X167297Y185335D01*
X167106Y185288D01*
X166924Y185212D01*
X166757Y185108D01*
X166608Y184980D01*
X166481Y184830D01*
X166379Y184661D01*
X166308Y184478D01*
X166152Y183925D01*
X166051Y183360D01*
X166000Y182787D01*
Y182213D01*
X166051Y181640D01*
X166152Y181075D01*
X166302Y180520D01*
X166375Y180337D01*
X166478Y180168D01*
X166605Y180017D01*
X166755Y179889D01*
X166922Y179785D01*
X167104Y179708D01*
X167296Y179661D01*
X167378Y179654D01*
Y162500D01*
G37*
G36*
X141273Y297500D02*X151273D01*
Y296200D01*
X141273D01*
Y297500D01*
G37*
G36*
X151273Y162500D02*X141273D01*
Y188379D01*
X141281Y188379D01*
X142144Y188447D01*
X142986Y188649D01*
X143786Y188980D01*
X144524Y189432D01*
X145182Y189995D01*
X145744Y190653D01*
X146197Y191391D01*
X146528Y192191D01*
X146730Y193033D01*
X146781Y193896D01*
X146730Y194759D01*
X146528Y195601D01*
X146197Y196400D01*
X145744Y197139D01*
X145182Y197797D01*
X144524Y198359D01*
X143786Y198811D01*
X142986Y199143D01*
X142144Y199345D01*
X141281Y199413D01*
X141273Y199412D01*
Y226000D01*
X144750D01*
X144946Y226012D01*
X145137Y226058D01*
X145319Y226133D01*
X145487Y226236D01*
X145637Y226363D01*
X145764Y226513D01*
X145867Y226681D01*
X145942Y226863D01*
X145988Y227054D01*
X146004Y227250D01*
X145988Y227446D01*
X145942Y227637D01*
X145867Y227819D01*
X145764Y227987D01*
X145637Y228137D01*
X145487Y228264D01*
X145319Y228367D01*
X145137Y228442D01*
X144946Y228488D01*
X144750Y228500D01*
X146000D01*
Y229750D01*
X146012Y229554D01*
X146058Y229363D01*
X146133Y229181D01*
X146236Y229013D01*
X146363Y228863D01*
X146513Y228736D01*
X146681Y228633D01*
X146863Y228558D01*
X147054Y228512D01*
X147250Y228496D01*
X147446Y228512D01*
X147637Y228558D01*
X147819Y228633D01*
X147987Y228736D01*
X148137Y228863D01*
X148264Y229013D01*
X148367Y229181D01*
X148442Y229363D01*
X148488Y229554D01*
X148500Y229750D01*
Y235250D01*
X148488Y235446D01*
X148442Y235637D01*
X148367Y235819D01*
X148264Y235987D01*
X148137Y236137D01*
X147987Y236264D01*
X147819Y236367D01*
X147637Y236442D01*
X147446Y236488D01*
X147250Y236504D01*
X147054Y236488D01*
X146863Y236442D01*
X146681Y236367D01*
X146513Y236264D01*
X146363Y236137D01*
X146236Y235987D01*
X146133Y235819D01*
X146058Y235637D01*
X146012Y235446D01*
X146000Y235250D01*
Y236500D01*
X144750D01*
X144946Y236512D01*
X145137Y236558D01*
X145319Y236633D01*
X145487Y236736D01*
X145637Y236863D01*
X145764Y237013D01*
X145867Y237181D01*
X145942Y237363D01*
X145988Y237554D01*
X146004Y237750D01*
X145988Y237946D01*
X145942Y238137D01*
X145867Y238319D01*
X145764Y238487D01*
X145637Y238637D01*
X145487Y238764D01*
X145319Y238867D01*
X145137Y238942D01*
X144946Y238988D01*
X144750Y239000D01*
X141273D01*
Y287300D01*
X151273D01*
Y271030D01*
X151236Y270987D01*
X151133Y270819D01*
X151058Y270637D01*
X151012Y270446D01*
X151000Y270250D01*
Y264750D01*
X151012Y264554D01*
X151058Y264363D01*
X151133Y264181D01*
X151236Y264013D01*
X151273Y263970D01*
Y205712D01*
X150418Y205645D01*
X149576Y205443D01*
X148776Y205111D01*
X148038Y204659D01*
X147380Y204097D01*
X146818Y203439D01*
X146365Y202700D01*
X146034Y201901D01*
X145832Y201059D01*
X145764Y200196D01*
X145832Y199333D01*
X146034Y198491D01*
X146365Y197691D01*
X146818Y196953D01*
X147380Y196295D01*
X148038Y195732D01*
X148776Y195280D01*
X149576Y194949D01*
X150418Y194747D01*
X151273Y194679D01*
Y193112D01*
X150418Y193045D01*
X149576Y192843D01*
X148776Y192511D01*
X148038Y192059D01*
X147380Y191497D01*
X146818Y190839D01*
X146365Y190100D01*
X146034Y189301D01*
X145832Y188459D01*
X145764Y187596D01*
X145832Y186733D01*
X146034Y185891D01*
X146365Y185091D01*
X146818Y184353D01*
X147380Y183695D01*
X148038Y183132D01*
X148776Y182680D01*
X149576Y182349D01*
X150418Y182147D01*
X151273Y182079D01*
Y162500D01*
G37*
G36*
X141273D02*X115000D01*
Y164066D01*
X116281Y163965D01*
X117835Y164087D01*
X119350Y164451D01*
X120790Y165048D01*
X122118Y165862D01*
X123303Y166874D01*
X124315Y168059D01*
X125129Y169387D01*
X125726Y170827D01*
X126089Y172342D01*
X126181Y173896D01*
X126089Y175449D01*
X125726Y176964D01*
X125129Y178404D01*
X124315Y179733D01*
X123303Y180918D01*
X122118Y181930D01*
X120790Y182744D01*
X119350Y183340D01*
X117835Y183704D01*
X116281Y183826D01*
X115000Y183725D01*
Y204066D01*
X116281Y203965D01*
X117835Y204087D01*
X119350Y204451D01*
X120790Y205048D01*
X122118Y205862D01*
X123303Y206874D01*
X124315Y208059D01*
X125129Y209387D01*
X125726Y210827D01*
X126089Y212342D01*
X126181Y213896D01*
X126089Y215449D01*
X125726Y216964D01*
X125129Y218404D01*
X124315Y219733D01*
X123303Y220918D01*
X122118Y221930D01*
X120790Y222744D01*
X119350Y223340D01*
X117835Y223704D01*
X116281Y223826D01*
X115000Y223725D01*
Y297500D01*
X141273D01*
Y296200D01*
X140500D01*
X140312Y296189D01*
X140128Y296145D01*
X139954Y296073D01*
X139792Y295974D01*
X139649Y295851D01*
X139526Y295708D01*
X139427Y295546D01*
X139355Y295372D01*
X139311Y295188D01*
X139300Y295000D01*
Y288500D01*
X139311Y288312D01*
X139355Y288128D01*
X139427Y287954D01*
X139526Y287792D01*
X139649Y287649D01*
X139792Y287526D01*
X139954Y287427D01*
X140128Y287355D01*
X140312Y287311D01*
X140500Y287300D01*
X141273D01*
Y239000D01*
X139250D01*
X139054Y238988D01*
X138863Y238942D01*
X138681Y238867D01*
X138513Y238764D01*
X138363Y238637D01*
X138236Y238487D01*
X138133Y238319D01*
X138058Y238137D01*
X138012Y237946D01*
X137996Y237750D01*
X138012Y237554D01*
X138058Y237363D01*
X138133Y237181D01*
X138236Y237013D01*
X138363Y236863D01*
X138513Y236736D01*
X138681Y236633D01*
X138863Y236558D01*
X139054Y236512D01*
X139250Y236500D01*
X138000D01*
Y235250D01*
X137988Y235446D01*
X137942Y235637D01*
X137867Y235819D01*
X137764Y235987D01*
X137637Y236137D01*
X137487Y236264D01*
X137319Y236367D01*
X137205Y236415D01*
X136610Y237110D01*
X135832Y237775D01*
X134960Y238309D01*
X134015Y238701D01*
X133020Y238940D01*
X132000Y239020D01*
X130980Y238940D01*
X129985Y238701D01*
X129040Y238309D01*
X128168Y237775D01*
X127390Y237110D01*
X127000Y236654D01*
X126610Y237110D01*
X125832Y237775D01*
X124960Y238309D01*
X124015Y238701D01*
X123020Y238940D01*
X122000Y239020D01*
X120980Y238940D01*
X119985Y238701D01*
X119040Y238309D01*
X118168Y237775D01*
X117390Y237110D01*
X116725Y236332D01*
X116191Y235460D01*
X115799Y234515D01*
X115560Y233520D01*
X115480Y232500D01*
X115560Y231480D01*
X115799Y230485D01*
X116191Y229540D01*
X116725Y228668D01*
X117390Y227890D01*
X118168Y227225D01*
X119040Y226691D01*
X119985Y226299D01*
X120980Y226060D01*
X122000Y225980D01*
X123020Y226060D01*
X124015Y226299D01*
X124960Y226691D01*
X125832Y227225D01*
X126610Y227890D01*
X127000Y228346D01*
X127390Y227890D01*
X128168Y227225D01*
X129040Y226691D01*
X129985Y226299D01*
X130980Y226060D01*
X132000Y225980D01*
X133020Y226060D01*
X134015Y226299D01*
X134960Y226691D01*
X135832Y227225D01*
X136610Y227890D01*
X137205Y228585D01*
X137319Y228633D01*
X137487Y228736D01*
X137637Y228863D01*
X137764Y229013D01*
X137867Y229181D01*
X137942Y229363D01*
X137988Y229554D01*
X138000Y229750D01*
Y228500D01*
X139250D01*
X139054Y228488D01*
X138863Y228442D01*
X138681Y228367D01*
X138513Y228264D01*
X138363Y228137D01*
X138236Y227987D01*
X138133Y227819D01*
X138058Y227637D01*
X138012Y227446D01*
X137996Y227250D01*
X138012Y227054D01*
X138058Y226863D01*
X138133Y226681D01*
X138236Y226513D01*
X138363Y226363D01*
X138513Y226236D01*
X138681Y226133D01*
X138863Y226058D01*
X139054Y226012D01*
X139250Y226000D01*
X141273D01*
Y199412D01*
X140418Y199345D01*
X139576Y199143D01*
X138776Y198811D01*
X138038Y198359D01*
X137380Y197797D01*
X136818Y197139D01*
X136365Y196400D01*
X136034Y195601D01*
X135832Y194759D01*
X135764Y193896D01*
X135832Y193033D01*
X136034Y192191D01*
X136365Y191391D01*
X136818Y190653D01*
X137380Y189995D01*
X138038Y189432D01*
X138776Y188980D01*
X139576Y188649D01*
X140418Y188447D01*
X141273Y188379D01*
Y162500D01*
G37*
G54D13*X217222Y252572D02*Y270299D01*
X212116Y275404D01*
X247222Y252572D02*Y270510D01*
X252116Y275404D01*
X312600Y252500D02*X302500D01*
X297500Y247500D01*
Y234188D01*
X292335Y229024D01*
X260976D01*
X257500Y232500D01*
X247294D01*
X247222Y232572D01*
G54D14*X217222Y222572D02*X212572D01*
X202500Y212500D01*
Y207500D01*
X212500Y197500D01*
Y192500D01*
G54D13*X292335Y189024D02*X311524D01*
X317500Y195000D01*
G54D14*X212500Y192500D02*X202500Y182500D01*
X232500D01*
X245000Y170000D01*
X272500D01*
X275000Y172500D01*
Y212500D01*
G54D15*X141000Y292700D02*X142500D01*
X141000Y290500D02*X143000D01*
X141000Y294500D02*Y290500D01*
Y294500D02*X143000D01*
X144700D02*Y290500D01*
X144200Y294500D02*X146200D01*
X146700Y294000D01*
Y293000D01*
X146200Y292500D02*X146700Y293000D01*
X144700Y292500D02*X146200D01*
X147900Y294500D02*Y290500D01*
X149900D01*
X152900D02*X154900D01*
X155400Y291000D01*
Y292200D02*Y291000D01*
X154900Y292700D02*X155400Y292200D01*
X153400Y292700D02*X154900D01*
X153400Y294500D02*Y290500D01*
X152900Y294500D02*X154900D01*
X155400Y294000D01*
Y293200D01*
X154900Y292700D02*X155400Y293200D01*
X156600Y293500D02*Y293400D01*
Y292000D02*Y290500D01*
X157600Y292000D02*Y291000D01*
Y292000D02*X158100Y292500D01*
X159100D01*
X159600Y292000D01*
Y291000D01*
X159100Y290500D02*X159600Y291000D01*
X158100Y290500D02*X159100D01*
X157600Y291000D02*X158100Y290500D01*
X160800Y292500D02*X162800D01*
X164000Y293500D02*Y290500D01*
Y293500D02*X164700Y294500D01*
X165800D01*
X166500Y293500D01*
Y290500D01*
X164000Y292500D02*X166500D01*
X168200Y292000D02*Y290500D01*
Y292000D02*X168700Y292500D01*
X169200D01*
X169700Y292000D01*
Y290500D01*
Y292000D02*X170200Y292500D01*
X170700D01*
X171200Y292000D01*
Y290500D01*
X167700Y292500D02*X168200Y292000D01*
X172900D02*Y289000D01*
X172400Y292500D02*X172900Y292000D01*
X173400Y292500D01*
X174400D01*
X174900Y292000D01*
Y291000D01*
X174400Y290500D02*X174900Y291000D01*
X173400Y290500D02*X174400D01*
X172900Y291000D02*X173400Y290500D01*
X178400Y294500D02*Y290500D01*
X177900Y294500D02*X179900D01*
X180400Y294000D01*
Y293000D01*
X179900Y292500D02*X180400Y293000D01*
X178400Y292500D02*X179900D01*
X182100Y292000D02*Y290500D01*
Y292000D02*X182600Y292500D01*
X183600D01*
X181600D02*X182100Y292000D01*
X184800D02*Y291000D01*
Y292000D02*X185300Y292500D01*
X186300D01*
X186800Y292000D01*
Y291000D01*
X186300Y290500D02*X186800Y291000D01*
X185300Y290500D02*X186300D01*
X184800Y291000D02*X185300Y290500D01*
X188500Y294500D02*Y291000D01*
X189000Y290500D01*
X188000Y293000D02*X189000D01*
X190000Y292000D02*Y291000D01*
Y292000D02*X190500Y292500D01*
X191500D01*
X192000Y292000D01*
Y291000D01*
X191500Y290500D02*X192000Y291000D01*
X190500Y290500D02*X191500D01*
X190000Y291000D02*X190500Y290500D01*
X193700Y294500D02*Y291000D01*
X194200Y290500D01*
X193200Y293000D02*X194200D01*
X195200Y292500D02*Y291000D01*
X195700Y290500D01*
X197200Y292500D02*Y289500D01*
X196700Y289000D02*X197200Y289500D01*
X195700Y289000D02*X196700D01*
X195200Y289500D02*X195700Y289000D01*
Y290500D02*X196700D01*
X197200Y291000D01*
X198900Y292000D02*Y289000D01*
X198400Y292500D02*X198900Y292000D01*
X199400Y292500D01*
X200400D01*
X200900Y292000D01*
Y291000D01*
X200400Y290500D02*X200900Y291000D01*
X199400Y290500D02*X200400D01*
X198900Y291000D02*X199400Y290500D01*
X202600D02*X204100D01*
X202100Y291000D02*X202600Y290500D01*
X202100Y292000D02*Y291000D01*
Y292000D02*X202600Y292500D01*
X203600D01*
X204100Y292000D01*
X202100Y291500D02*X204100D01*
Y292000D01*
G54D12*G36*
X213222Y256572D02*X221222D01*
Y248572D01*
X213222D01*
Y256572D01*
G37*
G54D14*X217222Y242572D03*
Y232572D03*
Y222572D03*
G54D12*G36*
X208500Y201500D02*X216500D01*
Y193500D01*
X208500D01*
Y201500D01*
G37*
G36*
X188500Y216500D02*X196500D01*
Y208500D01*
X188500D01*
Y216500D01*
G37*
G54D14*X202500Y212500D03*
G54D12*G36*
X188500Y186500D02*X196500D01*
Y178500D01*
X188500D01*
Y186500D01*
G37*
G54D14*X202500Y182500D03*
G54D12*G36*
X163500Y241500D02*X171500D01*
Y233500D01*
X163500D01*
Y241500D01*
G37*
G36*
X176500Y226500D02*Y218500D01*
X168500D01*
Y226500D01*
X176500D01*
G37*
G54D14*X172500Y182500D03*
G54D16*X151281Y187596D03*
Y200196D03*
X141281Y193896D03*
G54D17*X116281Y173896D03*
Y213896D03*
G54D12*G36*
X146000Y236500D02*Y228500D01*
X138000D01*
Y236500D01*
X146000D01*
G37*
G54D14*X132000Y232500D03*
X122000D03*
X197500Y237500D03*
G54D12*G36*
X163500Y256500D02*X171500D01*
Y248500D01*
X163500D01*
Y256500D01*
G37*
G54D14*X197500Y252500D03*
X247222Y252572D03*
Y242572D03*
Y232572D03*
Y222572D03*
G54D12*G36*
X261000Y216500D02*X269000D01*
Y208500D01*
X261000D01*
Y216500D01*
G37*
G54D14*X275000Y212500D03*
X252500Y197500D03*
G54D18*X337500Y215000D03*
G54D14*X317500Y205000D03*
Y195000D03*
G54D12*G36*
X296335Y233024D02*Y225024D01*
X288335D01*
Y233024D01*
X296335D01*
G37*
G36*
X208116Y279404D02*X216116D01*
Y271404D01*
X208116D01*
Y279404D01*
G37*
G36*
X153500Y271500D02*X161500D01*
Y263500D01*
X153500D01*
Y271500D01*
G37*
G54D14*X197500Y267500D03*
X252116Y275404D03*
G54D12*G36*
X315600Y295500D02*Y289500D01*
X309600D01*
Y295500D01*
X315600D01*
G37*
G54D19*X312600Y282500D03*
Y272500D03*
Y262500D03*
Y252500D03*
G54D12*G36*
X290315Y249036D02*Y240964D01*
X304685D01*
Y249036D01*
X290315D01*
G37*
G36*
X265000Y258500D02*X273000D01*
Y250500D01*
X265000D01*
Y258500D01*
G37*
G54D14*X279000Y254500D03*
G54D12*G36*
X265000Y286000D02*X273000D01*
Y278000D01*
X265000D01*
Y286000D01*
G37*
G54D14*X279000Y282000D03*
G54D12*G36*
X261000Y186500D02*X269000D01*
Y178500D01*
X261000D01*
Y186500D01*
G37*
G54D14*X275000Y182500D03*
G54D18*X337500Y175000D03*
G54D14*X292335Y189024D03*
G54D20*G54D13*G54D21*G54D20*G54D21*G54D22*G54D20*G54D23*G54D20*G54D21*G54D20*M02*
