M48
INCH
T67C0.042
T66C0.032
T65C0.079
T64C0.035
T63C0.039
%
T66
G05
X031750Y020500
X031750Y019500
T64
X015128Y018760
X015128Y020020
X014128Y019390
T63
X021722Y025257
X021722Y024257
X021722Y023257
X021722Y022257
X021250Y019750
X019250Y021250
X020250Y021250
X019250Y018250
X020250Y018250
X016750Y023750
X017250Y022250
X017250Y018250
X014200Y023250
X013200Y023250
X012200Y023250
X019750Y023750
X016750Y025250
X019750Y025250
X024722Y025257
X024722Y024257
X024722Y023257
X024722Y022257
X026500Y021250
X027500Y021250
X025250Y019750
X029234Y022902
X021212Y027540
X015750Y026750
X019750Y026750
X025212Y027540
X026900Y025450
X027900Y025450
X026900Y028200
X027900Y028200
X026500Y018250
X027500Y018250
X029234Y018902
T67
X031260Y029250
X031260Y028250
X031260Y027250
X031260Y026250
X031260Y025250
T65
X011628Y017390
X011628Y021390
X033750Y021500
X033750Y017500
M30
