G04 start of page 2 for group 10 layer_idx 5 *
G04 Title: (unknown), bottom_silk *
G04 Creator: pcb-rnd 2.1.0 *
G04 CreationDate: 2019-02-14 18:17:35 UTC *
G04 For:  *
G04 Format: Gerber/RS-274X *
G04 PCB-Dimensions: 500000 500000 *
G04 PCB-Coordinate-Origin: lower left *
%MOIN*%
%FSLAX25Y25*%
%LNBOTTOMSILK*%
%ADD11C,0.0070*%
G54D11*X321300Y294500D02*X322600D01*
X320600Y293800D02*X321300Y294500D01*
X320600Y291200D02*Y293800D01*
Y291200D02*X321300Y290500D01*
X322600D01*
X323800D02*Y294500D01*
X326300Y290500D02*Y294500D01*
X323800Y292500D02*X326300D01*
X327500Y291500D02*Y294500D01*
Y291500D02*X328200Y290500D01*
X329300D01*
X330000Y291500D01*
Y294500D01*
X327500Y292500D02*X330000D01*
X333200Y290500D02*X333700Y291000D01*
X331700Y290500D02*X333200D01*
X331200Y291000D02*X331700Y290500D01*
X331200Y291000D02*Y292000D01*
X331700Y292500D01*
X333200D01*
X333700Y293000D01*
Y294000D01*
X333200Y294500D02*X333700Y294000D01*
X331700Y294500D02*X333200D01*
X331200Y294000D02*X331700Y294500D01*
X336900Y290500D02*X337400Y291000D01*
X335400Y290500D02*X336900D01*
X334900Y291000D02*X335400Y290500D01*
X334900Y291000D02*Y292000D01*
X335400Y292500D01*
X336900D01*
X337400Y293000D01*
Y294000D01*
X336900Y294500D02*X337400Y294000D01*
X335400Y294500D02*X336900D01*
X334900Y294000D02*X335400Y294500D01*
X338600Y290500D02*X339600D01*
X339100D02*Y294500D01*
X338600D02*X339600D01*
X342800Y290500D02*X343300Y291000D01*
X341300Y290500D02*X342800D01*
X340800Y291000D02*X341300Y290500D01*
X340800Y291000D02*Y292000D01*
X341300Y292500D01*
X342800D01*
X343300Y293000D01*
Y294000D01*
X342800Y294500D02*X343300Y294000D01*
X341300Y294500D02*X342800D01*
X340800Y294000D02*X341300Y294500D01*
X320500Y251000D02*Y254000D01*
Y251000D02*X321000Y250500D01*
X322000D01*
X322500Y251000D01*
Y254000D01*
X322000Y254500D02*X322500Y254000D01*
X321000Y254500D02*X322000D01*
X320500Y254000D02*X321000Y254500D01*
X323700Y250500D02*Y254000D01*
X324200Y254500D01*
X325200D01*
X325700Y254000D01*
Y250500D02*Y254000D01*
X326900Y250500D02*X328900D01*
X327900D02*Y254500D01*
X330600Y250500D02*Y254500D01*
X330100Y250500D02*X332100D01*
X332600Y251000D01*
Y252000D01*
X332100Y252500D02*X332600Y252000D01*
X330600Y252500D02*X332100D01*
X333800Y250500D02*Y254000D01*
X334300Y254500D01*
X335300D01*
X335800Y254000D01*
Y250500D02*Y254000D01*
X337000Y250500D02*X339000D01*
X338000D02*Y254500D01*
X320600Y262500D02*X322600D01*
X321600Y261500D02*Y263500D01*
X323800Y261300D02*X324600Y260500D01*
Y264500D01*
X323800D02*X325300D01*
X326500Y260500D02*X328500D01*
X326500D02*Y262500D01*
X327000Y262000D01*
X328000D01*
X328500Y262500D01*
Y264000D01*
X328000Y264500D02*X328500Y264000D01*
X327000Y264500D02*X328000D01*
X326500Y264000D02*X327000Y264500D01*
X329700Y260500D02*X330700Y264500D01*
X331700Y260500D01*
X320500Y273000D02*X322500D01*
X323700Y271800D02*X324500Y271000D01*
Y275000D01*
X323700D02*X325200D01*
X326400Y271000D02*X328400D01*
X326400D02*Y273000D01*
X326900Y272500D01*
X327900D01*
X328400Y273000D01*
Y274500D01*
X327900Y275000D02*X328400Y274500D01*
X326900Y275000D02*X327900D01*
X326400Y274500D02*X326900Y275000D01*
X329600Y271000D02*X330600Y275000D01*
X331600Y271000D01*
X322600Y280500D02*X323100Y281000D01*
X321100Y280500D02*X322600D01*
X320600Y281000D02*X321100Y280500D01*
X320600Y281000D02*Y284000D01*
X321100Y284500D01*
X322600D01*
X323100Y284000D01*
Y283000D02*Y284000D01*
X322600Y282500D02*X323100Y283000D01*
X321600Y282500D02*X322600D01*
X324300Y280500D02*Y284500D01*
Y280500D02*X326800Y284500D01*
Y280500D02*Y284500D01*
X328500Y280500D02*Y284500D01*
X329800Y280500D02*X330500Y281200D01*
Y283800D01*
X329800Y284500D02*X330500Y283800D01*
X328000Y284500D02*X329800D01*
X328000Y280500D02*X329800D01*
X170500Y166000D02*X171500Y170000D01*
X172500Y166000D01*
X173700Y167800D02*X175200D01*
X173700Y170000D02*X175700D01*
X173700Y166000D02*Y170000D01*
Y166000D02*X175700D01*
X176900D02*X178900D01*
X177900D02*Y170000D01*
X180100Y167800D02*X181600D01*
X180100Y170000D02*X182100D01*
X180100Y166000D02*Y170000D01*
Y166000D02*X182100D01*
X183300D02*X185300D01*
X185800Y166500D01*
Y167500D01*
X185300Y168000D02*X185800Y167500D01*
X183800Y168000D02*X185300D01*
X183800Y166000D02*Y170000D01*
X184600Y168000D02*X185800Y170000D01*
X187000Y166000D02*X188000D01*
X187500D02*Y170000D01*
X187000D02*X188000D01*
X189200Y166000D02*Y170000D01*
Y166000D02*X191700Y170000D01*
Y166000D02*Y170000D01*
X192900Y167000D02*Y170000D01*
Y167000D02*X193600Y166000D01*
X194700D01*
X195400Y167000D01*
Y170000D01*
X192900Y168000D02*X195400D01*
X196600Y166000D02*X198600D01*
X199100Y166500D01*
Y167500D01*
X198600Y168000D02*X199100Y167500D01*
X197100Y168000D02*X198600D01*
X197100Y166000D02*Y170000D01*
X197900Y168000D02*X199100Y170000D01*
X200300Y166000D02*X201300Y168000D01*
X202300Y166000D01*
X201300Y168000D02*Y170000D01*
X205300Y166000D02*Y169500D01*
X205800Y170000D01*
X206800D01*
X207300Y169500D01*
Y166000D02*Y169500D01*
X210500Y166000D02*X211000Y166500D01*
X209000Y166000D02*X210500D01*
X208500Y166500D02*X209000Y166000D01*
X208500Y166500D02*Y167500D01*
X209000Y168000D01*
X210500D01*
X211000Y168500D01*
Y169500D01*
X210500Y170000D02*X211000Y169500D01*
X209000Y170000D02*X210500D01*
X208500Y169500D02*X209000Y170000D01*
X212200Y167800D02*X213700D01*
X212200Y170000D02*X214200D01*
X212200Y166000D02*Y170000D01*
Y166000D02*X214200D01*
X217200Y166500D02*Y169500D01*
Y166500D02*X217700Y166000D01*
X218700D01*
X219200Y166500D01*
Y169500D01*
X218700Y170000D02*X219200Y169500D01*
X217700Y170000D02*X218700D01*
X217200Y169500D02*X217700Y170000D01*
X220400Y166000D02*Y170000D01*
Y166000D02*X222900Y170000D01*
Y166000D02*Y170000D01*
X224100Y166000D02*Y170000D01*
X226100D01*
X227300Y166000D02*X228300Y168000D01*
X229300Y166000D01*
X228300Y168000D02*Y170000D01*
M02*
