G04 start of page 11 for group -1 layer_idx 268435461 *
G04 Title: (unknown), <virtual group> *
G04 Creator: pcb-rnd 2.1.0 *
G04 CreationDate: 2019-02-14 18:17:35 UTC *
G04 For:  *
G04 Format: Gerber/RS-274X *
G04 PCB-Dimensions: 500000 500000 *
G04 PCB-Coordinate-Origin: lower left *
%MOIN*%
%FSLAX25Y25*%
%LNFAB*%
%ADD62C,0.0100*%
%ADD61C,0.0075*%
%ADD60C,0.0060*%
%ADD59C,0.0080*%
G54D59*X114681Y175496D02*X117881D01*
X114681D02*Y172296D01*
X117881D01*
Y175496D02*Y172296D01*
X114681Y215496D02*X117881D01*
X114681D02*Y212296D01*
X117881D01*
Y215496D02*Y212296D01*
X335900Y216600D02*X339100D01*
X335900D02*Y213400D01*
X339100D01*
Y216600D02*Y213400D01*
X335900Y176600D02*X339100D01*
X335900D02*Y173400D01*
X339100D01*
Y176600D02*Y173400D01*
X13400Y512850D02*X16600D01*
X13400D02*Y509650D01*
X16600D01*
Y512850D02*Y509650D01*
G54D60*X135000Y513500D02*X136500Y510500D01*
X138000Y513500D01*
X136500Y510500D02*Y507500D01*
X139800Y510800D02*X142050D01*
X139800Y507500D02*X142800D01*
X139800Y513500D02*Y507500D01*
Y513500D02*X142800D01*
X147600D02*X148350Y512750D01*
X145350Y513500D02*X147600D01*
X144600Y512750D02*X145350Y513500D01*
X144600Y512750D02*Y511250D01*
X145350Y510500D01*
X147600D01*
X148350Y509750D01*
Y508250D01*
X147600Y507500D02*X148350Y508250D01*
X145350Y507500D02*X147600D01*
X144600Y508250D02*X145350Y507500D01*
X98000Y509750D02*X101000Y513500D01*
X98000Y509750D02*X101750D01*
X101000Y513500D02*Y507500D01*
X45000Y508250D02*X45750Y507500D01*
X45000Y512750D02*Y508250D01*
Y512750D02*X45750Y513500D01*
X47250D01*
X48000Y512750D01*
Y508250D01*
X47250Y507500D02*X48000Y508250D01*
X45750Y507500D02*X47250D01*
X45000Y509000D02*X48000Y512000D01*
X49800Y507500D02*X50550D01*
X52350Y508250D02*X53100Y507500D01*
X52350Y512750D02*Y508250D01*
Y512750D02*X53100Y513500D01*
X54600D01*
X55350Y512750D01*
Y508250D01*
X54600Y507500D02*X55350Y508250D01*
X53100Y507500D02*X54600D01*
X52350Y509000D02*X55350Y512000D01*
X57900Y507500D02*X60900Y513500D01*
X57150D02*X60900D01*
X63450Y507500D02*X65700Y510500D01*
Y512750D02*Y510500D01*
X64950Y513500D02*X65700Y512750D01*
X63450Y513500D02*X64950D01*
X62700Y512750D02*X63450Y513500D01*
X62700Y512750D02*Y511250D01*
X63450Y510500D01*
X65700D01*
X311800Y292500D02*G75*G03X313400Y292500I800J0D01*G01*
G75*G03X311800Y292500I-800J0D01*G01*
Y282500D02*G75*G03X313400Y282500I800J0D01*G01*
G75*G03X311800Y282500I-800J0D01*G01*
Y272500D02*G75*G03X313400Y272500I800J0D01*G01*
G75*G03X311800Y272500I-800J0D01*G01*
Y262500D02*G75*G03X313400Y262500I800J0D01*G01*
G75*G03X311800Y262500I-800J0D01*G01*
Y252500D02*G75*G03X313400Y252500I800J0D01*G01*
G75*G03X311800Y252500I-800J0D01*G01*
X14200Y526250D02*G75*G03X15800Y526250I800J0D01*G01*
G75*G03X14200Y526250I-800J0D01*G01*
X135000Y528500D02*X136500Y525500D01*
X138000Y528500D01*
X136500Y525500D02*Y522500D01*
X139800Y525800D02*X142050D01*
X139800Y522500D02*X142800D01*
X139800Y528500D02*Y522500D01*
Y528500D02*X142800D01*
X147600D02*X148350Y527750D01*
X145350Y528500D02*X147600D01*
X144600Y527750D02*X145350Y528500D01*
X144600Y527750D02*Y526250D01*
X145350Y525500D01*
X147600D01*
X148350Y524750D01*
Y523250D01*
X147600Y522500D02*X148350Y523250D01*
X145350Y522500D02*X147600D01*
X144600Y523250D02*X145350Y522500D01*
X98000Y528500D02*X101000D01*
X98000D02*Y525500D01*
X98750Y526250D01*
X100250D01*
X101000Y525500D01*
Y523250D01*
X100250Y522500D02*X101000Y523250D01*
X98750Y522500D02*X100250D01*
X98000Y523250D02*X98750Y522500D01*
X45000Y523250D02*X45750Y522500D01*
X45000Y527750D02*Y523250D01*
Y527750D02*X45750Y528500D01*
X47250D01*
X48000Y527750D01*
Y523250D01*
X47250Y522500D02*X48000Y523250D01*
X45750Y522500D02*X47250D01*
X45000Y524000D02*X48000Y527000D01*
X49800Y522500D02*X50550D01*
X52350Y523250D02*X53100Y522500D01*
X52350Y527750D02*Y523250D01*
Y527750D02*X53100Y528500D01*
X54600D01*
X55350Y527750D01*
Y523250D01*
X54600Y522500D02*X55350Y523250D01*
X53100Y522500D02*X54600D01*
X52350Y524000D02*X55350Y527000D01*
X57150Y524750D02*X60150Y528500D01*
X57150Y524750D02*X60900D01*
X60150Y528500D02*Y522500D01*
X62700Y527750D02*X63450Y528500D01*
X65700D01*
X66450Y527750D01*
Y526250D01*
X62700Y522500D02*X66450Y526250D01*
X62700Y522500D02*X66450D01*
X216022Y253772D02*X218422Y251372D01*
X216022D02*X218422Y253772D01*
X216022Y243772D02*X218422Y241372D01*
X216022D02*X218422Y243772D01*
X216022Y233772D02*X218422Y231372D01*
X216022D02*X218422Y233772D01*
X216022Y223772D02*X218422Y221372D01*
X216022D02*X218422Y223772D01*
X211300Y198700D02*X213700Y196300D01*
X211300D02*X213700Y198700D01*
X191300Y213700D02*X193700Y211300D01*
X191300D02*X193700Y213700D01*
X201300D02*X203700Y211300D01*
X201300D02*X203700Y213700D01*
X191300Y183700D02*X193700Y181300D01*
X191300D02*X193700Y183700D01*
X201300D02*X203700Y181300D01*
X201300D02*X203700Y183700D01*
X166300Y238700D02*X168700Y236300D01*
X166300D02*X168700Y238700D01*
X171300Y223700D02*X173700Y221300D01*
X171300D02*X173700Y223700D01*
X171300Y183700D02*X173700Y181300D01*
X171300D02*X173700Y183700D01*
X140800Y233700D02*X143200Y231300D01*
X140800D02*X143200Y233700D01*
X130800D02*X133200Y231300D01*
X130800D02*X133200Y233700D01*
X120800D02*X123200Y231300D01*
X120800D02*X123200Y233700D01*
X196300Y238700D02*X198700Y236300D01*
X196300D02*X198700Y238700D01*
X166300Y253700D02*X168700Y251300D01*
X166300D02*X168700Y253700D01*
X196300D02*X198700Y251300D01*
X196300D02*X198700Y253700D01*
X246022Y253772D02*X248422Y251372D01*
X246022D02*X248422Y253772D01*
X246022Y243772D02*X248422Y241372D01*
X246022D02*X248422Y243772D01*
X246022Y233772D02*X248422Y231372D01*
X246022D02*X248422Y233772D01*
X246022Y223772D02*X248422Y221372D01*
X246022D02*X248422Y223772D01*
X263800Y213700D02*X266200Y211300D01*
X263800D02*X266200Y213700D01*
X273800D02*X276200Y211300D01*
X273800D02*X276200Y213700D01*
X251300Y198700D02*X253700Y196300D01*
X251300D02*X253700Y198700D01*
X291135Y230224D02*X293535Y227824D01*
X291135D02*X293535Y230224D01*
X210916Y276604D02*X213316Y274204D01*
X210916D02*X213316Y276604D01*
X156300Y268700D02*X158700Y266300D01*
X156300D02*X158700Y268700D01*
X196300D02*X198700Y266300D01*
X196300D02*X198700Y268700D01*
X250916Y276604D02*X253316Y274204D01*
X250916D02*X253316Y276604D01*
X267800Y255700D02*X270200Y253300D01*
X267800D02*X270200Y255700D01*
X277800D02*X280200Y253300D01*
X277800D02*X280200Y255700D01*
X267800Y283200D02*X270200Y280800D01*
X267800D02*X270200Y283200D01*
X277800D02*X280200Y280800D01*
X277800D02*X280200Y283200D01*
X263800Y183700D02*X266200Y181300D01*
X263800D02*X266200Y183700D01*
X273800D02*X276200Y181300D01*
X273800D02*X276200Y183700D01*
X291135Y190224D02*X293535Y187824D01*
X291135D02*X293535Y190224D01*
X13800Y542450D02*X16200Y540050D01*
X13800D02*X16200Y542450D01*
X135000Y543500D02*X136500Y540500D01*
X138000Y543500D01*
X136500Y540500D02*Y537500D01*
X139800Y540800D02*X142050D01*
X139800Y537500D02*X142800D01*
X139800Y543500D02*Y537500D01*
Y543500D02*X142800D01*
X147600D02*X148350Y542750D01*
X145350Y543500D02*X147600D01*
X144600Y542750D02*X145350Y543500D01*
X144600Y542750D02*Y541250D01*
X145350Y540500D01*
X147600D01*
X148350Y539750D01*
Y538250D01*
X147600Y537500D02*X148350Y538250D01*
X145350Y537500D02*X147600D01*
X144600Y538250D02*X145350Y537500D01*
X98000Y542750D02*X98750Y543500D01*
X100250D01*
X101000Y542750D01*
X100250Y537500D02*X101000Y538250D01*
X98750Y537500D02*X100250D01*
X98000Y538250D02*X98750Y537500D01*
Y540800D02*X100250D01*
X101000Y542750D02*Y541550D01*
Y540050D02*Y538250D01*
Y540050D02*X100250Y540800D01*
X101000Y541550D02*X100250Y540800D01*
X103550Y537500D02*X106550Y543500D01*
X102800D02*X106550D01*
X45000Y538250D02*X45750Y537500D01*
X45000Y542750D02*Y538250D01*
Y542750D02*X45750Y543500D01*
X47250D01*
X48000Y542750D01*
Y538250D01*
X47250Y537500D02*X48000Y538250D01*
X45750Y537500D02*X47250D01*
X45000Y539000D02*X48000Y542000D01*
X49800Y537500D02*X50550D01*
X52350Y538250D02*X53100Y537500D01*
X52350Y542750D02*Y538250D01*
Y542750D02*X53100Y543500D01*
X54600D01*
X55350Y542750D01*
Y538250D01*
X54600Y537500D02*X55350Y538250D01*
X53100Y537500D02*X54600D01*
X52350Y539000D02*X55350Y542000D01*
X57150Y542750D02*X57900Y543500D01*
X59400D01*
X60150Y542750D01*
X59400Y537500D02*X60150Y538250D01*
X57900Y537500D02*X59400D01*
X57150Y538250D02*X57900Y537500D01*
Y540800D02*X59400D01*
X60150Y542750D02*Y541550D01*
Y540050D02*Y538250D01*
Y540050D02*X59400Y540800D01*
X60150Y541550D02*X59400Y540800D01*
X62700Y537500D02*X64950Y540500D01*
Y542750D02*Y540500D01*
X64200Y543500D02*X64950Y542750D01*
X62700Y543500D02*X64200D01*
X61950Y542750D02*X62700Y543500D01*
X61950Y542750D02*Y541250D01*
X62700Y540500D01*
X64950D01*
X151281Y189196D02*Y185996D01*
X149681Y187596D02*X152881D01*
X151281Y201796D02*Y198596D01*
X149681Y200196D02*X152881D01*
X141281Y195496D02*Y192296D01*
X139681Y193896D02*X142881D01*
X15000Y557850D02*Y554650D01*
X13400Y556250D02*X16600D01*
X135000Y558500D02*X136500Y555500D01*
X138000Y558500D01*
X136500Y555500D02*Y552500D01*
X139800Y555800D02*X142050D01*
X139800Y552500D02*X142800D01*
X139800Y558500D02*Y552500D01*
Y558500D02*X142800D01*
X147600D02*X148350Y557750D01*
X145350Y558500D02*X147600D01*
X144600Y557750D02*X145350Y558500D01*
X144600Y557750D02*Y556250D01*
X145350Y555500D01*
X147600D01*
X148350Y554750D01*
Y553250D01*
X147600Y552500D02*X148350Y553250D01*
X145350Y552500D02*X147600D01*
X144600Y553250D02*X145350Y552500D01*
X98000Y557750D02*X98750Y558500D01*
X100250D01*
X101000Y557750D01*
X100250Y552500D02*X101000Y553250D01*
X98750Y552500D02*X100250D01*
X98000Y553250D02*X98750Y552500D01*
Y555800D02*X100250D01*
X101000Y557750D02*Y556550D01*
Y555050D02*Y553250D01*
Y555050D02*X100250Y555800D01*
X101000Y556550D02*X100250Y555800D01*
X45000Y553250D02*X45750Y552500D01*
X45000Y557750D02*Y553250D01*
Y557750D02*X45750Y558500D01*
X47250D01*
X48000Y557750D01*
Y553250D01*
X47250Y552500D02*X48000Y553250D01*
X45750Y552500D02*X47250D01*
X45000Y554000D02*X48000Y557000D01*
X49800Y552500D02*X50550D01*
X52350Y553250D02*X53100Y552500D01*
X52350Y557750D02*Y553250D01*
Y557750D02*X53100Y558500D01*
X54600D01*
X55350Y557750D01*
Y553250D01*
X54600Y552500D02*X55350Y553250D01*
X53100Y552500D02*X54600D01*
X52350Y554000D02*X55350Y557000D01*
X57150Y557750D02*X57900Y558500D01*
X59400D01*
X60150Y557750D01*
X59400Y552500D02*X60150Y553250D01*
X57900Y552500D02*X59400D01*
X57150Y553250D02*X57900Y552500D01*
Y555800D02*X59400D01*
X60150Y557750D02*Y556550D01*
Y555050D02*Y553250D01*
Y555050D02*X59400Y555800D01*
X60150Y556550D02*X59400Y555800D01*
X61950Y558500D02*X64950D01*
X61950D02*Y555500D01*
X62700Y556250D01*
X64200D01*
X64950Y555500D01*
Y553250D01*
X64200Y552500D02*X64950Y553250D01*
X62700Y552500D02*X64200D01*
X61950Y553250D02*X62700Y552500D01*
X317500Y205000D02*Y203400D01*
Y205000D02*X318887Y205800D01*
X317500Y205000D02*X316113Y205800D01*
X317500Y195000D02*Y193400D01*
Y195000D02*X318887Y195800D01*
X317500Y195000D02*X316113Y195800D01*
X15000Y571250D02*Y569650D01*
Y571250D02*X16387Y572050D01*
X15000Y571250D02*X13613Y572050D01*
X135000Y573500D02*X136500Y570500D01*
X138000Y573500D01*
X136500Y570500D02*Y567500D01*
X139800Y570800D02*X142050D01*
X139800Y567500D02*X142800D01*
X139800Y573500D02*Y567500D01*
Y573500D02*X142800D01*
X147600D02*X148350Y572750D01*
X145350Y573500D02*X147600D01*
X144600Y572750D02*X145350Y573500D01*
X144600Y572750D02*Y571250D01*
X145350Y570500D01*
X147600D01*
X148350Y569750D01*
Y568250D01*
X147600Y567500D02*X148350Y568250D01*
X145350Y567500D02*X147600D01*
X144600Y568250D02*X145350Y567500D01*
X98000Y572750D02*X98750Y573500D01*
X101000D01*
X101750Y572750D01*
Y571250D01*
X98000Y567500D02*X101750Y571250D01*
X98000Y567500D02*X101750D01*
X45000Y568250D02*X45750Y567500D01*
X45000Y572750D02*Y568250D01*
Y572750D02*X45750Y573500D01*
X47250D01*
X48000Y572750D01*
Y568250D01*
X47250Y567500D02*X48000Y568250D01*
X45750Y567500D02*X47250D01*
X45000Y569000D02*X48000Y572000D01*
X49800Y567500D02*X50550D01*
X52350Y568250D02*X53100Y567500D01*
X52350Y572750D02*Y568250D01*
Y572750D02*X53100Y573500D01*
X54600D01*
X55350Y572750D01*
Y568250D01*
X54600Y567500D02*X55350Y568250D01*
X53100Y567500D02*X54600D01*
X52350Y569000D02*X55350Y572000D01*
X57150Y572750D02*X57900Y573500D01*
X59400D01*
X60150Y572750D01*
X59400Y567500D02*X60150Y568250D01*
X57900Y567500D02*X59400D01*
X57150Y568250D02*X57900Y567500D01*
Y570800D02*X59400D01*
X60150Y572750D02*Y571550D01*
Y570050D02*Y568250D01*
Y570050D02*X59400Y570800D01*
X60150Y571550D02*X59400Y570800D01*
X61950Y572750D02*X62700Y573500D01*
X64950D01*
X65700Y572750D01*
Y571250D01*
X61950Y567500D02*X65700Y571250D01*
X61950Y567500D02*X65700D01*
X3000Y588500D02*X3750Y587750D01*
X750Y588500D02*X3000D01*
X0Y587750D02*X750Y588500D01*
X0Y587750D02*Y586250D01*
X750Y585500D01*
X3000D01*
X3750Y584750D01*
Y583250D01*
X3000Y582500D02*X3750Y583250D01*
X750Y582500D02*X3000D01*
X0Y583250D02*X750Y582500D01*
X5550Y585500D02*Y583250D01*
X6300Y582500D01*
X8550Y585500D02*Y581000D01*
X7800Y580250D02*X8550Y581000D01*
X6300Y580250D02*X7800D01*
X5550Y581000D02*X6300Y580250D01*
Y582500D02*X7800D01*
X8550Y583250D01*
X11100Y584750D02*Y582500D01*
Y584750D02*X11850Y585500D01*
X12600D01*
X13350Y584750D01*
Y582500D01*
Y584750D02*X14100Y585500D01*
X14850D01*
X15600Y584750D01*
Y582500D01*
X10350Y585500D02*X11100Y584750D01*
X17400Y588500D02*Y582500D01*
Y583250D02*X18150Y582500D01*
X19650D01*
X20400Y583250D01*
Y584750D02*Y583250D01*
X19650Y585500D02*X20400Y584750D01*
X18150Y585500D02*X19650D01*
X17400Y584750D02*X18150Y585500D01*
X22200Y584750D02*Y583250D01*
Y584750D02*X22950Y585500D01*
X24450D01*
X25200Y584750D01*
Y583250D01*
X24450Y582500D02*X25200Y583250D01*
X22950Y582500D02*X24450D01*
X22200Y583250D02*X22950Y582500D01*
X27000Y588500D02*Y583250D01*
X27750Y582500D01*
X0Y580750D02*X29250D01*
X41750Y588500D02*Y582500D01*
X43700Y588500D02*X44750Y587450D01*
Y583550D01*
X43700Y582500D02*X44750Y583550D01*
X41000Y582500D02*X43700D01*
X41000Y588500D02*X43700D01*
G54D61*X46550Y587000D02*Y586850D01*
G54D60*Y584750D02*Y582500D01*
X50300Y585500D02*X51050Y584750D01*
X48800Y585500D02*X50300D01*
X48050Y584750D02*X48800Y585500D01*
X48050Y584750D02*Y583250D01*
X48800Y582500D01*
X51050Y585500D02*Y583250D01*
X51800Y582500D01*
X48800D02*X50300D01*
X51050Y583250D01*
X54350Y584750D02*Y582500D01*
Y584750D02*X55100Y585500D01*
X55850D01*
X56600Y584750D01*
Y582500D01*
Y584750D02*X57350Y585500D01*
X58100D01*
X58850Y584750D01*
Y582500D01*
X53600Y585500D02*X54350Y584750D01*
X60650Y582500D02*X61400D01*
X65900Y583250D02*X66650Y582500D01*
X65900Y587750D02*X66650Y588500D01*
X65900Y587750D02*Y583250D01*
X68450Y588500D02*X69950D01*
X69200D02*Y582500D01*
X68450D02*X69950D01*
X72500Y584750D02*Y582500D01*
Y584750D02*X73250Y585500D01*
X74000D01*
X74750Y584750D01*
Y582500D01*
X71750Y585500D02*X72500Y584750D01*
X77300Y585500D02*X79550D01*
X76550Y584750D02*X77300Y585500D01*
X76550Y584750D02*Y583250D01*
X77300Y582500D01*
X79550D01*
X81350Y588500D02*Y582500D01*
Y584750D02*X82100Y585500D01*
X83600D01*
X84350Y584750D01*
Y582500D01*
X86150Y588500D02*X86900Y587750D01*
Y583250D01*
X86150Y582500D02*X86900Y583250D01*
X41000Y580750D02*X88700D01*
X96050Y582500D02*X98000D01*
X95000Y583550D02*X96050Y582500D01*
X95000Y587450D02*Y583550D01*
Y587450D02*X96050Y588500D01*
X98000D01*
X99800Y584750D02*Y583250D01*
Y584750D02*X100550Y585500D01*
X102050D01*
X102800Y584750D01*
Y583250D01*
X102050Y582500D02*X102800Y583250D01*
X100550Y582500D02*X102050D01*
X99800Y583250D02*X100550Y582500D01*
X104600Y585500D02*Y583250D01*
X105350Y582500D01*
X106850D01*
X107600Y583250D01*
Y585500D02*Y583250D01*
X110150Y584750D02*Y582500D01*
Y584750D02*X110900Y585500D01*
X111650D01*
X112400Y584750D01*
Y582500D01*
X109400Y585500D02*X110150Y584750D01*
X114950Y588500D02*Y583250D01*
X115700Y582500D01*
X114200Y586250D02*X115700D01*
X95000Y580750D02*X117200D01*
X130750Y588500D02*Y582500D01*
X130000Y588500D02*X133000D01*
X133750Y587750D01*
Y586250D01*
X133000Y585500D02*X133750Y586250D01*
X130750Y585500D02*X133000D01*
X135550Y588500D02*Y583250D01*
X136300Y582500D01*
X140050Y585500D02*X140800Y584750D01*
X138550Y585500D02*X140050D01*
X137800Y584750D02*X138550Y585500D01*
X137800Y584750D02*Y583250D01*
X138550Y582500D01*
X140800Y585500D02*Y583250D01*
X141550Y582500D01*
X138550D02*X140050D01*
X140800Y583250D01*
X144100Y588500D02*Y583250D01*
X144850Y582500D01*
X143350Y586250D02*X144850D01*
X147100Y582500D02*X149350D01*
X146350Y583250D02*X147100Y582500D01*
X146350Y584750D02*Y583250D01*
Y584750D02*X147100Y585500D01*
X148600D01*
X149350Y584750D01*
X146350Y584000D02*X149350D01*
Y584750D01*
X154150Y588500D02*Y582500D01*
X153400D02*X154150Y583250D01*
X151900Y582500D02*X153400D01*
X151150Y583250D02*X151900Y582500D01*
X151150Y584750D02*Y583250D01*
Y584750D02*X151900Y585500D01*
X153400D01*
X154150Y584750D01*
X157450Y585500D02*Y584750D01*
Y583250D02*Y582500D01*
X155950Y587750D02*Y587000D01*
Y587750D02*X156700Y588500D01*
X158200D01*
X158950Y587750D01*
Y587000D01*
X157450Y585500D02*X158950Y587000D01*
X130000Y580750D02*X160750D01*
X0Y603500D02*X3000D01*
X1500D02*Y597500D01*
X4800Y603500D02*Y597500D01*
Y599750D02*X5550Y600500D01*
X7050D01*
X7800Y599750D01*
Y597500D01*
X10350D02*X12600D01*
X9600Y598250D02*X10350Y597500D01*
X9600Y599750D02*Y598250D01*
Y599750D02*X10350Y600500D01*
X11850D01*
X12600Y599750D01*
X9600Y599000D02*X12600D01*
Y599750D01*
X15150D02*Y597500D01*
Y599750D02*X15900Y600500D01*
X17400D01*
X14400D02*X15150Y599750D01*
X19950Y597500D02*X22200D01*
X19200Y598250D02*X19950Y597500D01*
X19200Y599750D02*Y598250D01*
Y599750D02*X19950Y600500D01*
X21450D01*
X22200Y599750D01*
X19200Y599000D02*X22200D01*
Y599750D01*
X28950Y600500D02*X29700Y599750D01*
X27450Y600500D02*X28950D01*
X26700Y599750D02*X27450Y600500D01*
X26700Y599750D02*Y598250D01*
X27450Y597500D01*
X29700Y600500D02*Y598250D01*
X30450Y597500D01*
X27450D02*X28950D01*
X29700Y598250D01*
X33000Y599750D02*Y597500D01*
Y599750D02*X33750Y600500D01*
X35250D01*
X32250D02*X33000Y599750D01*
X37800Y597500D02*X40050D01*
X37050Y598250D02*X37800Y597500D01*
X37050Y599750D02*Y598250D01*
Y599750D02*X37800Y600500D01*
X39300D01*
X40050Y599750D01*
X37050Y599000D02*X40050D01*
Y599750D01*
X44550Y603500D02*X47550D01*
X44550D02*Y600500D01*
X45300Y601250D01*
X46800D01*
X47550Y600500D01*
Y598250D01*
X46800Y597500D02*X47550Y598250D01*
X45300Y597500D02*X46800D01*
X44550Y598250D02*X45300Y597500D01*
X55050Y603500D02*Y597500D01*
X54300D02*X55050Y598250D01*
X52800Y597500D02*X54300D01*
X52050Y598250D02*X52800Y597500D01*
X52050Y599750D02*Y598250D01*
Y599750D02*X52800Y600500D01*
X54300D01*
X55050Y599750D01*
G54D61*X56850Y602000D02*Y601850D01*
G54D60*Y599750D02*Y597500D01*
X59100Y602750D02*Y597500D01*
Y602750D02*X59850Y603500D01*
X60600D01*
X58350Y600500D02*X59850D01*
X62850Y602750D02*Y597500D01*
Y602750D02*X63600Y603500D01*
X64350D01*
X62100Y600500D02*X63600D01*
X66600Y597500D02*X68850D01*
X65850Y598250D02*X66600Y597500D01*
X65850Y599750D02*Y598250D01*
Y599750D02*X66600Y600500D01*
X68100D01*
X68850Y599750D01*
X65850Y599000D02*X68850D01*
Y599750D01*
X71400D02*Y597500D01*
Y599750D02*X72150Y600500D01*
X73650D01*
X70650D02*X71400Y599750D01*
X76200Y597500D02*X78450D01*
X75450Y598250D02*X76200Y597500D01*
X75450Y599750D02*Y598250D01*
Y599750D02*X76200Y600500D01*
X77700D01*
X78450Y599750D01*
X75450Y599000D02*X78450D01*
Y599750D01*
X81000D02*Y597500D01*
Y599750D02*X81750Y600500D01*
X82500D01*
X83250Y599750D01*
Y597500D01*
X80250Y600500D02*X81000Y599750D01*
X85800Y603500D02*Y598250D01*
X86550Y597500D01*
X85050Y601250D02*X86550D01*
X93750Y603500D02*Y597500D01*
X93000D02*X93750Y598250D01*
X91500Y597500D02*X93000D01*
X90750Y598250D02*X91500Y597500D01*
X90750Y599750D02*Y598250D01*
Y599750D02*X91500Y600500D01*
X93000D01*
X93750Y599750D01*
X96300D02*Y597500D01*
Y599750D02*X97050Y600500D01*
X98550D01*
X95550D02*X96300Y599750D01*
G54D61*X100350Y602000D02*Y601850D01*
G54D60*Y599750D02*Y597500D01*
X101850Y603500D02*Y598250D01*
X102600Y597500D01*
X104100Y603500D02*Y598250D01*
X104850Y597500D01*
X109800D02*X112050D01*
X112800Y598250D01*
X112050Y599000D02*X112800Y598250D01*
X109800Y599000D02*X112050D01*
X109050Y599750D02*X109800Y599000D01*
X109050Y599750D02*X109800Y600500D01*
X112050D01*
X112800Y599750D01*
X109050Y598250D02*X109800Y597500D01*
G54D61*X114600Y602000D02*Y601850D01*
G54D60*Y599750D02*Y597500D01*
X116100Y600500D02*X119100D01*
X116100Y597500D02*X119100Y600500D01*
X116100Y597500D02*X119100D01*
X121650D02*X123900D01*
X120900Y598250D02*X121650Y597500D01*
X120900Y599750D02*Y598250D01*
Y599750D02*X121650Y600500D01*
X123150D01*
X123900Y599750D01*
X120900Y599000D02*X123900D01*
Y599750D01*
X126450Y597500D02*X128700D01*
X129450Y598250D01*
X128700Y599000D02*X129450Y598250D01*
X126450Y599000D02*X128700D01*
X125700Y599750D02*X126450Y599000D01*
X125700Y599750D02*X126450Y600500D01*
X128700D01*
X129450Y599750D01*
X125700Y598250D02*X126450Y597500D01*
X133950Y600500D02*Y598250D01*
X134700Y597500D01*
X136200D01*
X136950Y598250D01*
Y600500D02*Y598250D01*
X139500Y597500D02*X141750D01*
X142500Y598250D01*
X141750Y599000D02*X142500Y598250D01*
X139500Y599000D02*X141750D01*
X138750Y599750D02*X139500Y599000D01*
X138750Y599750D02*X139500Y600500D01*
X141750D01*
X142500Y599750D01*
X138750Y598250D02*X139500Y597500D01*
X145050D02*X147300D01*
X144300Y598250D02*X145050Y597500D01*
X144300Y599750D02*Y598250D01*
Y599750D02*X145050Y600500D01*
X146550D01*
X147300Y599750D01*
X144300Y599000D02*X147300D01*
Y599750D01*
X152100Y603500D02*Y597500D01*
X151350D02*X152100Y598250D01*
X149850Y597500D02*X151350D01*
X149100Y598250D02*X149850Y597500D01*
X149100Y599750D02*Y598250D01*
Y599750D02*X149850Y600500D01*
X151350D01*
X152100Y599750D01*
G54D61*X156600Y602000D02*Y601850D01*
G54D60*Y599750D02*Y597500D01*
X158850Y599750D02*Y597500D01*
Y599750D02*X159600Y600500D01*
X160350D01*
X161100Y599750D01*
Y597500D01*
X158100Y600500D02*X158850Y599750D01*
X166350Y603500D02*Y598250D01*
X167100Y597500D01*
X165600Y601250D02*X167100D01*
X168600Y603500D02*Y597500D01*
Y599750D02*X169350Y600500D01*
X170850D01*
X171600Y599750D01*
Y597500D01*
G54D61*X173400Y602000D02*Y601850D01*
G54D60*Y599750D02*Y597500D01*
X175650D02*X177900D01*
X178650Y598250D01*
X177900Y599000D02*X178650Y598250D01*
X175650Y599000D02*X177900D01*
X174900Y599750D02*X175650Y599000D01*
X174900Y599750D02*X175650Y600500D01*
X177900D01*
X178650Y599750D01*
X174900Y598250D02*X175650Y597500D01*
X183150Y603500D02*Y598250D01*
X183900Y597500D01*
X187650Y600500D02*X188400Y599750D01*
X186150Y600500D02*X187650D01*
X185400Y599750D02*X186150Y600500D01*
X185400Y599750D02*Y598250D01*
X186150Y597500D01*
X188400Y600500D02*Y598250D01*
X189150Y597500D01*
X186150D02*X187650D01*
X188400Y598250D01*
X190950Y600500D02*Y598250D01*
X191700Y597500D01*
X193950Y600500D02*Y596000D01*
X193200Y595250D02*X193950Y596000D01*
X191700Y595250D02*X193200D01*
X190950Y596000D02*X191700Y595250D01*
Y597500D02*X193200D01*
X193950Y598250D01*
X195750Y599750D02*Y598250D01*
Y599750D02*X196500Y600500D01*
X198000D01*
X198750Y599750D01*
Y598250D01*
X198000Y597500D02*X198750Y598250D01*
X196500Y597500D02*X198000D01*
X195750Y598250D02*X196500Y597500D01*
X200550Y600500D02*Y598250D01*
X201300Y597500D01*
X202800D01*
X203550Y598250D01*
Y600500D02*Y598250D01*
X206100Y603500D02*Y598250D01*
X206850Y597500D01*
X205350Y601250D02*X206850D01*
X208350Y596000D02*X209850Y597500D01*
X214350Y603500D02*X217350D01*
X214350D02*Y600500D01*
X215100Y601250D01*
X216600D01*
X217350Y600500D01*
Y598250D01*
X216600Y597500D02*X217350Y598250D01*
X215100Y597500D02*X216600D01*
X214350Y598250D02*X215100Y597500D01*
X219150Y602300D02*X220350Y603500D01*
Y597500D01*
X219150D02*X221400D01*
X225900Y603500D02*Y597500D01*
Y599750D02*X226650Y600500D01*
X228150D01*
X228900Y599750D01*
Y597500D01*
X230700Y599750D02*Y598250D01*
Y599750D02*X231450Y600500D01*
X232950D01*
X233700Y599750D01*
Y598250D01*
X232950Y597500D02*X233700Y598250D01*
X231450Y597500D02*X232950D01*
X230700Y598250D02*X231450Y597500D01*
X235500Y603500D02*Y598250D01*
X236250Y597500D01*
X238500D02*X240750D01*
X237750Y598250D02*X238500Y597500D01*
X237750Y599750D02*Y598250D01*
Y599750D02*X238500Y600500D01*
X240000D01*
X240750Y599750D01*
X237750Y599000D02*X240750D01*
Y599750D01*
X243300Y597500D02*X245550D01*
X246300Y598250D01*
X245550Y599000D02*X246300Y598250D01*
X243300Y599000D02*X245550D01*
X242550Y599750D02*X243300Y599000D01*
X242550Y599750D02*X243300Y600500D01*
X245550D01*
X246300Y599750D01*
X242550Y598250D02*X243300Y597500D01*
X251550Y603500D02*Y598250D01*
X252300Y597500D01*
X250800Y601250D02*X252300D01*
X253800Y599750D02*Y598250D01*
Y599750D02*X254550Y600500D01*
X256050D01*
X256800Y599750D01*
Y598250D01*
X256050Y597500D02*X256800Y598250D01*
X254550Y597500D02*X256050D01*
X253800Y598250D02*X254550Y597500D01*
X259350Y603500D02*Y598250D01*
X260100Y597500D01*
X258600Y601250D02*X260100D01*
X263850Y600500D02*X264600Y599750D01*
X262350Y600500D02*X263850D01*
X261600Y599750D02*X262350Y600500D01*
X261600Y599750D02*Y598250D01*
X262350Y597500D01*
X264600Y600500D02*Y598250D01*
X265350Y597500D01*
X262350D02*X263850D01*
X264600Y598250D01*
X267150Y603500D02*Y598250D01*
X267900Y597500D01*
G54D62*X88000Y302500D02*Y157500D01*
X360000Y290000D02*Y170000D01*
X347500Y302500D02*X88000D01*
Y157500D02*X347500D01*
X360000Y290000D02*G75*G03X347500Y302500I-12500J0D01*G01*
Y157500D02*G75*G03X360000Y170000I0J12500D01*G01*
G54D60*X163675Y-9500D02*X166675D01*
X167425Y-8750D01*
Y-6950D02*Y-8750D01*
X166675Y-6200D02*X167425Y-6950D01*
X164425Y-6200D02*X166675D01*
X164425Y-3500D02*Y-9500D01*
X163675Y-3500D02*X166675D01*
X167425Y-4250D01*
Y-5450D01*
X166675Y-6200D02*X167425Y-5450D01*
X169225Y-7250D02*Y-8750D01*
Y-7250D02*X169975Y-6500D01*
X171475D01*
X172225Y-7250D01*
Y-8750D01*
X171475Y-9500D02*X172225Y-8750D01*
X169975Y-9500D02*X171475D01*
X169225Y-8750D02*X169975Y-9500D01*
X176275Y-6500D02*X177025Y-7250D01*
X174775Y-6500D02*X176275D01*
X174025Y-7250D02*X174775Y-6500D01*
X174025Y-7250D02*Y-8750D01*
X174775Y-9500D01*
X177025Y-6500D02*Y-8750D01*
X177775Y-9500D01*
X174775D02*X176275D01*
X177025Y-8750D01*
X180325Y-7250D02*Y-9500D01*
Y-7250D02*X181075Y-6500D01*
X182575D01*
X179575D02*X180325Y-7250D01*
X187375Y-3500D02*Y-9500D01*
X186625D02*X187375Y-8750D01*
X185125Y-9500D02*X186625D01*
X184375Y-8750D02*X185125Y-9500D01*
X184375Y-7250D02*Y-8750D01*
Y-7250D02*X185125Y-6500D01*
X186625D01*
X187375Y-7250D01*
X191875D02*Y-8750D01*
Y-7250D02*X192625Y-6500D01*
X194125D01*
X194875Y-7250D01*
Y-8750D01*
X194125Y-9500D02*X194875Y-8750D01*
X192625Y-9500D02*X194125D01*
X191875Y-8750D02*X192625Y-9500D01*
X196675Y-6500D02*Y-8750D01*
X197425Y-9500D01*
X198925D01*
X199675Y-8750D01*
Y-6500D02*Y-8750D01*
X202225Y-3500D02*Y-8750D01*
X202975Y-9500D01*
X201475Y-5750D02*X202975D01*
X204475Y-3500D02*Y-8750D01*
X205225Y-9500D01*
G54D61*X206725Y-5000D02*Y-5150D01*
G54D60*Y-7250D02*Y-9500D01*
X208975Y-7250D02*Y-9500D01*
Y-7250D02*X209725Y-6500D01*
X210475D01*
X211225Y-7250D01*
Y-9500D01*
X208225Y-6500D02*X208975Y-7250D01*
X213775Y-9500D02*X216025D01*
X213025Y-8750D02*X213775Y-9500D01*
X213025Y-7250D02*Y-8750D01*
Y-7250D02*X213775Y-6500D01*
X215275D01*
X216025Y-7250D01*
X213025Y-8000D02*X216025D01*
Y-7250D01*
G54D61*X220525Y-5000D02*Y-5150D01*
G54D60*Y-7250D02*Y-9500D01*
X222775D02*X225025D01*
X225775Y-8750D01*
X225025Y-8000D02*X225775Y-8750D01*
X222775Y-8000D02*X225025D01*
X222025Y-7250D02*X222775Y-8000D01*
X222025Y-7250D02*X222775Y-6500D01*
X225025D01*
X225775Y-7250D01*
X222025Y-8750D02*X222775Y-9500D01*
X231025Y-3500D02*Y-8750D01*
X231775Y-9500D01*
X230275Y-5750D02*X231775D01*
X233275Y-3500D02*Y-9500D01*
Y-7250D02*X234025Y-6500D01*
X235525D01*
X236275Y-7250D01*
Y-9500D01*
X238825D02*X241075D01*
X238075Y-8750D02*X238825Y-9500D01*
X238075Y-7250D02*Y-8750D01*
Y-7250D02*X238825Y-6500D01*
X240325D01*
X241075Y-7250D01*
X238075Y-8000D02*X241075D01*
Y-7250D01*
X246325Y-6500D02*X248575D01*
X245575Y-7250D02*X246325Y-6500D01*
X245575Y-7250D02*Y-8750D01*
X246325Y-9500D01*
X248575D01*
X251125D02*X253375D01*
X250375Y-8750D02*X251125Y-9500D01*
X250375Y-7250D02*Y-8750D01*
Y-7250D02*X251125Y-6500D01*
X252625D01*
X253375Y-7250D01*
X250375Y-8000D02*X253375D01*
Y-7250D01*
X255925D02*Y-9500D01*
Y-7250D02*X256675Y-6500D01*
X257425D01*
X258175Y-7250D01*
Y-9500D01*
X255175Y-6500D02*X255925Y-7250D01*
X260725Y-3500D02*Y-8750D01*
X261475Y-9500D01*
X259975Y-5750D02*X261475D01*
X263725Y-9500D02*X265975D01*
X262975Y-8750D02*X263725Y-9500D01*
X262975Y-7250D02*Y-8750D01*
Y-7250D02*X263725Y-6500D01*
X265225D01*
X265975Y-7250D01*
X262975Y-8000D02*X265975D01*
Y-7250D01*
X268525D02*Y-9500D01*
Y-7250D02*X269275Y-6500D01*
X270775D01*
X267775D02*X268525Y-7250D01*
X272575Y-3500D02*Y-8750D01*
X273325Y-9500D01*
G54D61*X274825Y-5000D02*Y-5150D01*
G54D60*Y-7250D02*Y-9500D01*
X277075Y-7250D02*Y-9500D01*
Y-7250D02*X277825Y-6500D01*
X278575D01*
X279325Y-7250D01*
Y-9500D01*
X276325Y-6500D02*X277075Y-7250D01*
X281875Y-9500D02*X284125D01*
X281125Y-8750D02*X281875Y-9500D01*
X281125Y-7250D02*Y-8750D01*
Y-7250D02*X281875Y-6500D01*
X283375D01*
X284125Y-7250D01*
X281125Y-8000D02*X284125D01*
Y-7250D01*
X288625D02*Y-8750D01*
Y-7250D02*X289375Y-6500D01*
X290875D01*
X291625Y-7250D01*
Y-8750D01*
X290875Y-9500D02*X291625Y-8750D01*
X289375Y-9500D02*X290875D01*
X288625Y-8750D02*X289375Y-9500D01*
X294175Y-4250D02*Y-9500D01*
Y-4250D02*X294925Y-3500D01*
X295675D01*
X293425Y-6500D02*X294925D01*
X300625Y-3500D02*Y-8750D01*
X301375Y-9500D01*
X299875Y-5750D02*X301375D01*
X302875Y-3500D02*Y-9500D01*
Y-7250D02*X303625Y-6500D01*
X305125D01*
X305875Y-7250D01*
Y-9500D01*
G54D61*X307675Y-5000D02*Y-5150D01*
G54D60*Y-7250D02*Y-9500D01*
X309925D02*X312175D01*
X312925Y-8750D01*
X312175Y-8000D02*X312925Y-8750D01*
X309925Y-8000D02*X312175D01*
X309175Y-7250D02*X309925Y-8000D01*
X309175Y-7250D02*X309925Y-6500D01*
X312175D01*
X312925Y-7250D01*
X309175Y-8750D02*X309925Y-9500D01*
X318175Y-7250D02*Y-11750D01*
X317425Y-6500D02*X318175Y-7250D01*
X318925Y-6500D01*
X320425D01*
X321175Y-7250D01*
Y-8750D01*
X320425Y-9500D02*X321175Y-8750D01*
X318925Y-9500D02*X320425D01*
X318175Y-8750D02*X318925Y-9500D01*
X325225Y-6500D02*X325975Y-7250D01*
X323725Y-6500D02*X325225D01*
X322975Y-7250D02*X323725Y-6500D01*
X322975Y-7250D02*Y-8750D01*
X323725Y-9500D01*
X325975Y-6500D02*Y-8750D01*
X326725Y-9500D01*
X323725D02*X325225D01*
X325975Y-8750D01*
X329275Y-3500D02*Y-8750D01*
X330025Y-9500D01*
X328525Y-5750D02*X330025D01*
X331525Y-3500D02*Y-9500D01*
Y-7250D02*X332275Y-6500D01*
X333775D01*
X334525Y-7250D01*
Y-9500D01*
X200750Y528500D02*Y522500D01*
X202700Y528500D02*X203750Y527450D01*
Y523550D01*
X202700Y522500D02*X203750Y523550D01*
X200000Y522500D02*X202700D01*
X200000Y528500D02*X202700D01*
X207800Y525500D02*X208550Y524750D01*
X206300Y525500D02*X207800D01*
X205550Y524750D02*X206300Y525500D01*
X205550Y524750D02*Y523250D01*
X206300Y522500D01*
X208550Y525500D02*Y523250D01*
X209300Y522500D01*
X206300D02*X207800D01*
X208550Y523250D01*
X211850Y528500D02*Y523250D01*
X212600Y522500D01*
X211100Y526250D02*X212600D01*
X214850Y522500D02*X217100D01*
X214100Y523250D02*X214850Y522500D01*
X214100Y524750D02*Y523250D01*
Y524750D02*X214850Y525500D01*
X216350D01*
X217100Y524750D01*
X214100Y524000D02*X217100D01*
Y524750D01*
X218900Y526250D02*X219650D01*
X218900Y524750D02*X219650D01*
X224150Y527750D02*X224900Y528500D01*
X227150D01*
X227900Y527750D01*
Y526250D01*
X224150Y522500D02*X227900Y526250D01*
X224150Y522500D02*X227900D01*
X229700Y523250D02*X230450Y522500D01*
X229700Y527750D02*Y523250D01*
Y527750D02*X230450Y528500D01*
X231950D01*
X232700Y527750D01*
Y523250D01*
X231950Y522500D02*X232700Y523250D01*
X230450Y522500D02*X231950D01*
X229700Y524000D02*X232700Y527000D01*
X234500Y527300D02*X235700Y528500D01*
Y522500D01*
X234500D02*X236750D01*
X239300D02*X241550Y525500D01*
Y527750D02*Y525500D01*
X240800Y528500D02*X241550Y527750D01*
X239300Y528500D02*X240800D01*
X238550Y527750D02*X239300Y528500D01*
X238550Y527750D02*Y526250D01*
X239300Y525500D01*
X241550D01*
X243350D02*X246350D01*
X248150Y523250D02*X248900Y522500D01*
X248150Y527750D02*Y523250D01*
Y527750D02*X248900Y528500D01*
X250400D01*
X251150Y527750D01*
Y523250D01*
X250400Y522500D02*X251150Y523250D01*
X248900Y522500D02*X250400D01*
X248150Y524000D02*X251150Y527000D01*
X252950Y527750D02*X253700Y528500D01*
X255950D01*
X256700Y527750D01*
Y526250D01*
X252950Y522500D02*X256700Y526250D01*
X252950Y522500D02*X256700D01*
X258500Y525500D02*X261500D01*
X263300Y527300D02*X264500Y528500D01*
Y522500D01*
X263300D02*X265550D01*
X267350Y524750D02*X270350Y528500D01*
X267350Y524750D02*X271100D01*
X270350Y528500D02*Y522500D01*
X275600Y527300D02*X276800Y528500D01*
Y522500D01*
X275600D02*X277850D01*
X279650Y523250D02*X280400Y522500D01*
X279650Y524450D02*Y523250D01*
Y524450D02*X280700Y525500D01*
X281600D01*
X282650Y524450D01*
Y523250D01*
X281900Y522500D02*X282650Y523250D01*
X280400Y522500D02*X281900D01*
X279650Y526550D02*X280700Y525500D01*
X279650Y527750D02*Y526550D01*
Y527750D02*X280400Y528500D01*
X281900D01*
X282650Y527750D01*
Y526550D01*
X281600Y525500D02*X282650Y526550D01*
X284450Y526250D02*X285200D01*
X284450Y524750D02*X285200D01*
X287000Y527300D02*X288200Y528500D01*
Y522500D01*
X287000D02*X289250D01*
X291800D02*X294800Y528500D01*
X291050D02*X294800D01*
X296600Y526250D02*X297350D01*
X296600Y524750D02*X297350D01*
X299150Y527750D02*X299900Y528500D01*
X301400D01*
X302150Y527750D01*
X301400Y522500D02*X302150Y523250D01*
X299900Y522500D02*X301400D01*
X299150Y523250D02*X299900Y522500D01*
Y525800D02*X301400D01*
X302150Y527750D02*Y526550D01*
Y525050D02*Y523250D01*
Y525050D02*X301400Y525800D01*
X302150Y526550D02*X301400Y525800D01*
X303950Y528500D02*X306950D01*
X303950D02*Y525500D01*
X304700Y526250D01*
X306200D01*
X306950Y525500D01*
Y523250D01*
X306200Y522500D02*X306950Y523250D01*
X304700Y522500D02*X306200D01*
X303950Y523250D02*X304700Y522500D01*
X311450Y528500D02*Y523250D01*
X312200Y522500D01*
X313700D01*
X314450Y523250D01*
Y528500D02*Y523250D01*
X316250Y528500D02*X319250D01*
X317750D02*Y522500D01*
X322100D02*X324050D01*
X321050Y523550D02*X322100Y522500D01*
X321050Y527450D02*Y523550D01*
Y527450D02*X322100Y528500D01*
X324050D01*
X200000Y542000D02*Y537500D01*
Y542000D02*X201050Y543500D01*
X202700D01*
X203750Y542000D01*
Y537500D01*
X200000Y540500D02*X203750D01*
X205550D02*Y538250D01*
X206300Y537500D01*
X207800D01*
X208550Y538250D01*
Y540500D02*Y538250D01*
X211100Y543500D02*Y538250D01*
X211850Y537500D01*
X210350Y541250D02*X211850D01*
X213350Y543500D02*Y537500D01*
Y539750D02*X214100Y540500D01*
X215600D01*
X216350Y539750D01*
Y537500D01*
X218150Y539750D02*Y538250D01*
Y539750D02*X218900Y540500D01*
X220400D01*
X221150Y539750D01*
Y538250D01*
X220400Y537500D02*X221150Y538250D01*
X218900Y537500D02*X220400D01*
X218150Y538250D02*X218900Y537500D01*
X223700Y539750D02*Y537500D01*
Y539750D02*X224450Y540500D01*
X225950D01*
X222950D02*X223700Y539750D01*
X227750Y541250D02*X228500D01*
X227750Y539750D02*X228500D01*
X200000Y558500D02*X203000D01*
X201500D02*Y552500D01*
G54D61*X204800Y557000D02*Y556850D01*
G54D60*Y554750D02*Y552500D01*
X207050Y558500D02*Y553250D01*
X207800Y552500D01*
X206300Y556250D02*X207800D01*
X209300Y558500D02*Y553250D01*
X210050Y552500D01*
X212300D02*X214550D01*
X211550Y553250D02*X212300Y552500D01*
X211550Y554750D02*Y553250D01*
Y554750D02*X212300Y555500D01*
X213800D01*
X214550Y554750D01*
X211550Y554000D02*X214550D01*
Y554750D01*
X216350Y556250D02*X217100D01*
X216350Y554750D02*X217100D01*
X221600Y553250D02*X222350Y552500D01*
X221600Y557750D02*X222350Y558500D01*
X221600Y557750D02*Y553250D01*
X224150Y555500D02*Y553250D01*
X224900Y552500D01*
X226400D01*
X227150Y553250D01*
Y555500D02*Y553250D01*
X229700Y554750D02*Y552500D01*
Y554750D02*X230450Y555500D01*
X231200D01*
X231950Y554750D01*
Y552500D01*
X228950Y555500D02*X229700Y554750D01*
X233750Y558500D02*Y552500D01*
Y554750D02*X236000Y552500D01*
X233750Y554750D02*X235250Y556250D01*
X238550Y554750D02*Y552500D01*
Y554750D02*X239300Y555500D01*
X240050D01*
X240800Y554750D01*
Y552500D01*
X237800Y555500D02*X238550Y554750D01*
X242600D02*Y553250D01*
Y554750D02*X243350Y555500D01*
X244850D01*
X245600Y554750D01*
Y553250D01*
X244850Y552500D02*X245600Y553250D01*
X243350Y552500D02*X244850D01*
X242600Y553250D02*X243350Y552500D01*
X247400Y555500D02*Y553250D01*
X248150Y552500D01*
X248900D01*
X249650Y553250D01*
Y555500D02*Y553250D01*
X250400Y552500D01*
X251150D01*
X251900Y553250D01*
Y555500D02*Y553250D01*
X254450Y554750D02*Y552500D01*
Y554750D02*X255200Y555500D01*
X255950D01*
X256700Y554750D01*
Y552500D01*
X253700Y555500D02*X254450Y554750D01*
X258500Y558500D02*X259250Y557750D01*
Y553250D01*
X258500Y552500D02*X259250Y553250D01*
X263750Y555500D02*X266750D01*
X271250Y558500D02*Y552500D01*
Y558500D02*X274250D01*
X271250Y555800D02*X273500D01*
X278300Y555500D02*X279050Y554750D01*
X276800Y555500D02*X278300D01*
X276050Y554750D02*X276800Y555500D01*
X276050Y554750D02*Y553250D01*
X276800Y552500D01*
X279050Y555500D02*Y553250D01*
X279800Y552500D01*
X276800D02*X278300D01*
X279050Y553250D01*
X281600Y558500D02*Y552500D01*
Y553250D02*X282350Y552500D01*
X283850D01*
X284600Y553250D01*
Y554750D02*Y553250D01*
X283850Y555500D02*X284600Y554750D01*
X282350Y555500D02*X283850D01*
X281600Y554750D02*X282350Y555500D01*
X287150Y554750D02*Y552500D01*
Y554750D02*X287900Y555500D01*
X289400D01*
X286400D02*X287150Y554750D01*
G54D61*X291200Y557000D02*Y556850D01*
G54D60*Y554750D02*Y552500D01*
X293450Y555500D02*X295700D01*
X292700Y554750D02*X293450Y555500D01*
X292700Y554750D02*Y553250D01*
X293450Y552500D01*
X295700D01*
X299750Y555500D02*X300500Y554750D01*
X298250Y555500D02*X299750D01*
X297500Y554750D02*X298250Y555500D01*
X297500Y554750D02*Y553250D01*
X298250Y552500D01*
X300500Y555500D02*Y553250D01*
X301250Y552500D01*
X298250D02*X299750D01*
X300500Y553250D01*
X303800Y558500D02*Y553250D01*
X304550Y552500D01*
X303050Y556250D02*X304550D01*
G54D61*X306050Y557000D02*Y556850D01*
G54D60*Y554750D02*Y552500D01*
X307550Y554750D02*Y553250D01*
Y554750D02*X308300Y555500D01*
X309800D01*
X310550Y554750D01*
Y553250D01*
X309800Y552500D02*X310550Y553250D01*
X308300Y552500D02*X309800D01*
X307550Y553250D02*X308300Y552500D01*
X313100Y554750D02*Y552500D01*
Y554750D02*X313850Y555500D01*
X314600D01*
X315350Y554750D01*
Y552500D01*
X312350Y555500D02*X313100Y554750D01*
X320600Y558500D02*Y552500D01*
X322550Y558500D02*X323600Y557450D01*
Y553550D01*
X322550Y552500D02*X323600Y553550D01*
X319850Y552500D02*X322550D01*
X319850Y558500D02*X322550D01*
X326150Y554750D02*Y552500D01*
Y554750D02*X326900Y555500D01*
X328400D01*
X325400D02*X326150Y554750D01*
X332450Y555500D02*X333200Y554750D01*
X330950Y555500D02*X332450D01*
X330200Y554750D02*X330950Y555500D01*
X330200Y554750D02*Y553250D01*
X330950Y552500D01*
X333200Y555500D02*Y553250D01*
X333950Y552500D01*
X330950D02*X332450D01*
X333200Y553250D01*
X335750Y555500D02*Y553250D01*
X336500Y552500D01*
X337250D01*
X338000Y553250D01*
Y555500D02*Y553250D01*
X338750Y552500D01*
X339500D01*
X340250Y553250D01*
Y555500D02*Y553250D01*
G54D61*X342050Y557000D02*Y556850D01*
G54D60*Y554750D02*Y552500D01*
X344300Y554750D02*Y552500D01*
Y554750D02*X345050Y555500D01*
X345800D01*
X346550Y554750D01*
Y552500D01*
X343550Y555500D02*X344300Y554750D01*
X350600Y555500D02*X351350Y554750D01*
X349100Y555500D02*X350600D01*
X348350Y554750D02*X349100Y555500D01*
X348350Y554750D02*Y553250D01*
X349100Y552500D01*
X350600D01*
X351350Y553250D01*
X348350Y551000D02*X349100Y550250D01*
X350600D01*
X351350Y551000D01*
Y555500D02*Y551000D01*
M02*
