G04 start of page 4 for group 8 layer_idx 1 *
G04 Title: (unknown), bottom_copper *
G04 Creator: pcb-rnd 2.1.0 *
G04 CreationDate: 2019-02-14 18:17:35 UTC *
G04 For:  *
G04 Format: Gerber/RS-274X *
G04 PCB-Dimensions: 500000 500000 *
G04 PCB-Coordinate-Origin: lower left *
%MOIN*%
%FSLAX25Y25*%
%LNBOTTOM*%
%ADD35C,0.0420*%
%ADD34C,0.0320*%
%ADD33C,0.0790*%
%ADD32C,0.0394*%
%ADD31C,0.0600*%
%ADD30C,0.2000*%
%ADD29C,0.1580*%
%ADD28C,0.0700*%
%ADD27C,0.0001*%
%ADD26C,0.0450*%
%ADD25C,0.0350*%
%ADD24C,0.0800*%
G54D24*X265000Y212500D02*Y210000D01*
X252500Y197500D01*
X242500D01*
X232500Y207500D01*
Y237500D01*
G54D25*X151281Y187596D02*X156096D01*
X163000Y194500D01*
G54D24*X265000Y182500D02*Y185000D01*
X252500Y197500D01*
G54D26*X275000Y212500D02*X292500D01*
G54D24*X132000Y203177D02*X141281Y193896D01*
G54D25*X207428Y232572D02*X202500Y237500D01*
X187500D01*
X172500Y222500D01*
G54D24*X232500Y237500D02*X237500Y242500D01*
G54D25*X217222Y232572D02*X207428D01*
X217222Y242572D02*X207428D01*
X197500Y252500D01*
Y267500D01*
G54D24*X135000Y293500D02*X301500D01*
X302500Y292500D01*
G54D25*X163000Y194500D02*Y233000D01*
X167500Y237500D01*
X151281Y244781D02*X159000Y252500D01*
X167500D01*
G54D24*X122000Y232500D02*Y280500D01*
X135000Y293500D01*
G54D25*X151281Y200196D02*Y244781D01*
G54D24*X132000Y232500D02*Y203177D01*
X247149Y242500D02*X247222Y242572D01*
X268929Y248929D02*X262500Y242500D01*
G54D26*X297600Y262500D02*X290000D01*
X282500Y270000D01*
X268643D01*
X297500Y262500D02*X312600D01*
X322500Y242500D02*Y267500D01*
X292500Y212500D02*X322500Y242500D01*
Y267500D02*X317500Y272500D01*
X312600D01*
G54D24*X269000Y249000D02*Y282000D01*
X302500Y292500D02*X312600D01*
X237500Y242500D02*X262500D01*
G54D27*G36*
X213222Y256572D02*X221222D01*
Y248572D01*
X213222D01*
Y256572D01*
G37*
G54D24*X217222Y242572D03*
Y232572D03*
Y222572D03*
G54D27*G36*
X208500Y201500D02*X216500D01*
Y193500D01*
X208500D01*
Y201500D01*
G37*
G36*
X188500Y216500D02*X196500D01*
Y208500D01*
X188500D01*
Y216500D01*
G37*
G54D24*X202500Y212500D03*
G54D27*G36*
X188500Y186500D02*X196500D01*
Y178500D01*
X188500D01*
Y186500D01*
G37*
G54D24*X202500Y182500D03*
G54D27*G36*
X163500Y241500D02*X171500D01*
Y233500D01*
X163500D01*
Y241500D01*
G37*
G36*
X176500Y226500D02*Y218500D01*
X168500D01*
Y226500D01*
X176500D01*
G37*
G54D24*X172500Y182500D03*
G54D28*X151281Y187596D03*
Y200196D03*
X141281Y193896D03*
G54D29*X116281Y173896D03*
Y213896D03*
G54D27*G36*
X146000Y236500D02*Y228500D01*
X138000D01*
Y236500D01*
X146000D01*
G37*
G54D24*X132000Y232500D03*
X122000D03*
X197500Y237500D03*
G54D27*G36*
X163500Y256500D02*X171500D01*
Y248500D01*
X163500D01*
Y256500D01*
G37*
G54D24*X197500Y252500D03*
X247222Y252572D03*
Y242572D03*
Y232572D03*
Y222572D03*
G54D27*G36*
X261000Y216500D02*X269000D01*
Y208500D01*
X261000D01*
Y216500D01*
G37*
G54D24*X275000Y212500D03*
X252500Y197500D03*
G54D30*X337500Y215000D03*
G54D24*X317500Y205000D03*
Y195000D03*
G54D27*G36*
X296335Y233024D02*Y225024D01*
X288335D01*
Y233024D01*
X296335D01*
G37*
G36*
X208116Y279404D02*X216116D01*
Y271404D01*
X208116D01*
Y279404D01*
G37*
G36*
X153500Y271500D02*X161500D01*
Y263500D01*
X153500D01*
Y271500D01*
G37*
G54D24*X197500Y267500D03*
X252116Y275404D03*
G54D27*G36*
X315600Y295500D02*Y289500D01*
X309600D01*
Y295500D01*
X315600D01*
G37*
G54D31*X312600Y282500D03*
Y272500D03*
Y262500D03*
Y252500D03*
G54D27*G36*
X265000Y258500D02*X273000D01*
Y250500D01*
X265000D01*
Y258500D01*
G37*
G54D24*X279000Y254500D03*
G54D27*G36*
X265000Y286000D02*X273000D01*
Y278000D01*
X265000D01*
Y286000D01*
G37*
G54D24*X279000Y282000D03*
G54D27*G36*
X261000Y186500D02*X269000D01*
Y178500D01*
X261000D01*
Y186500D01*
G37*
G54D24*X275000Y182500D03*
G54D30*X337500Y175000D03*
G54D24*X292335Y189024D03*
G54D32*G54D25*G54D33*G54D32*G54D33*G54D34*G54D32*G54D35*G54D32*G54D33*G54D32*M02*
