M48
INCH
T15C0.043
T14C0.030
T13C0.028
T12C0.039
T11C0.020
%
T11
G05
X022550Y028850
X022550Y030400
X023450Y027200
T13
X021000Y025250
X021000Y026234
X036250Y023750
X036250Y024734
T14
X030519Y031350
X028550Y031350
X027350Y031350
X025381Y031350
T12
X017460Y025385
X017460Y026385
X025800Y028000
X031520Y029220
X023460Y024385
X024460Y024385
X026460Y024385
X027460Y024385
X033460Y024385
X033460Y025385
T15
X023485Y032685
X023485Y033685
X023485Y034685
X023485Y036685
M30
