G04 start of page 2 for group 11 layer_idx 11 *
G04 Title: (unknown), bottom_mask *
G04 Creator: pcb-rnd 2.3.0 *
G04 CreationDate: 2021-05-03 19:20:31 UTC *
G04 For:  *
G04 Format: Gerber/RS-274X *
G04 PCB-Dimensions: 500000 500000 *
G04 PCB-Coordinate-Origin: lower left *
%MOIN*%
%FSLAX25Y25*%
%LNBOTTOM_MASK_NONE_11*%
%ADD77C,0.0846*%
%ADD76C,0.0860*%
%ADD75C,0.0001*%
%ADD74C,0.0900*%
G54D74*X234850Y324500D03*
Y334500D03*
G54D75*G36*
X239300Y340050D02*Y348950D01*
X230400D01*
Y340050D01*
X239300D01*
G37*
G54D74*X234850Y364500D03*
G54D75*G36*
X230300Y248150D02*X238900D01*
Y239550D01*
X230300D01*
Y248150D01*
G37*
G54D76*X244600Y243850D03*
G54D75*G36*
X260300Y248150D02*X268900D01*
Y239550D01*
X260300D01*
Y248150D01*
G37*
G54D76*X274600Y243850D03*
G54D77*X305185Y313500D03*
G54D75*G36*
X281263Y317737D02*Y309263D01*
X289737D01*
Y317737D01*
X281263D01*
G37*
G54D77*X273500Y313500D03*
G54D75*G36*
X249578Y317737D02*Y309263D01*
X258052D01*
Y317737D01*
X249578D01*
G37*
G36*
X330300Y239550D02*Y248150D01*
X338900D01*
Y239550D01*
X330300D01*
G37*
G54D76*X334600Y253850D03*
G54D75*G36*
X205700Y248200D02*Y256800D01*
X214300D01*
Y248200D01*
X205700D01*
G37*
G36*
X170300Y249550D02*Y258150D01*
X178900D01*
Y249550D01*
X170300D01*
G37*
G54D76*X174600Y263850D03*
X210000Y262343D03*
G54D75*G36*
X356200Y258200D02*Y266800D01*
X364800D01*
Y258200D01*
X356200D01*
G37*
G54D76*X360500Y272343D03*
M02*
