G04 start of page 2 for group 18 layer_idx 17 *
G04 Title: (unknown), fab *
G04 Creator: pcb-rnd 2.3.0 *
G04 CreationDate: 2021-05-03 19:20:31 UTC *
G04 For:  *
G04 Format: Gerber/RS-274X *
G04 PCB-Dimensions: 500000 500000 *
G04 PCB-Coordinate-Origin: lower left *
%MOIN*%
%FSLAX25Y25*%
%LNTOP_DOC_FAB_18*%
%ADD84C,0.0100*%
%ADD83C,0.0075*%
%ADD82C,0.0060*%
%ADD81C,0.0080*%
G54D81*X233250Y326100D02*X236450D01*
X233250D02*Y322900D01*
X236450D01*
Y326100D02*Y322900D01*
X233250Y336100D02*X236450D01*
X233250D02*Y332900D01*
X236450D01*
Y336100D02*Y332900D01*
X233250Y346100D02*X236450D01*
X233250D02*Y342900D01*
X236450D01*
Y346100D02*Y342900D01*
X233250Y366100D02*X236450D01*
X233250D02*Y362900D01*
X236450D01*
Y366100D02*Y362900D01*
X13400Y512850D02*X16600D01*
X13400D02*Y509650D01*
X16600D01*
Y512850D02*Y509650D01*
G54D82*X135000Y513500D02*X136500Y510500D01*
X138000Y513500D01*
X136500Y510500D02*Y507500D01*
X139800Y510800D02*X142050D01*
X139800Y507500D02*X142800D01*
X139800Y513500D02*Y507500D01*
Y513500D02*X142800D01*
X147600D02*X148350Y512750D01*
X145350Y513500D02*X147600D01*
X144600Y512750D02*X145350Y513500D01*
X144600Y512750D02*Y511250D01*
X145350Y510500D01*
X147600D01*
X148350Y509750D01*
Y508250D01*
X147600Y507500D02*X148350Y508250D01*
X145350Y507500D02*X147600D01*
X144600Y508250D02*X145350Y507500D01*
X98000Y509750D02*X101000Y513500D01*
X98000Y509750D02*X101750D01*
X101000Y513500D02*Y507500D01*
X45000Y508250D02*X45750Y507500D01*
X45000Y512750D02*Y508250D01*
Y512750D02*X45750Y513500D01*
X47250D01*
X48000Y512750D01*
Y508250D01*
X47250Y507500D02*X48000Y508250D01*
X45750Y507500D02*X47250D01*
X45000Y509000D02*X48000Y512000D01*
X49800Y507500D02*X50550D01*
X52350Y508250D02*X53100Y507500D01*
X52350Y512750D02*Y508250D01*
Y512750D02*X53100Y513500D01*
X54600D01*
X55350Y512750D01*
Y508250D01*
X54600Y507500D02*X55350Y508250D01*
X53100Y507500D02*X54600D01*
X52350Y509000D02*X55350Y512000D01*
X57150Y509750D02*X60150Y513500D01*
X57150Y509750D02*X60900D01*
X60150Y513500D02*Y507500D01*
X62700Y512750D02*X63450Y513500D01*
X64950D01*
X65700Y512750D01*
X64950Y507500D02*X65700Y508250D01*
X63450Y507500D02*X64950D01*
X62700Y508250D02*X63450Y507500D01*
Y510800D02*X64950D01*
X65700Y512750D02*Y511550D01*
Y510050D02*Y508250D01*
Y510050D02*X64950Y510800D01*
X65700Y511550D02*X64950Y510800D01*
X257200Y280000D02*G75*G03X258800Y280000I800J0D01*G01*
G75*G03X257200Y280000I-800J0D01*G01*
X314400Y292200D02*G75*G03X316000Y292200I800J0D01*G01*
G75*G03X314400Y292200I-800J0D01*G01*
X233800Y243850D02*G75*G03X235400Y243850I800J0D01*G01*
G75*G03X233800Y243850I-800J0D01*G01*
X243800D02*G75*G03X245400Y243850I800J0D01*G01*
G75*G03X243800Y243850I-800J0D01*G01*
X263800D02*G75*G03X265400Y243850I800J0D01*G01*
G75*G03X263800Y243850I-800J0D01*G01*
X273800D02*G75*G03X275400Y243850I800J0D01*G01*
G75*G03X273800Y243850I-800J0D01*G01*
X333800D02*G75*G03X335400Y243850I800J0D01*G01*
G75*G03X333800Y243850I-800J0D01*G01*
Y253850D02*G75*G03X335400Y253850I800J0D01*G01*
G75*G03X333800Y253850I-800J0D01*G01*
X173800D02*G75*G03X175400Y253850I800J0D01*G01*
G75*G03X173800Y253850I-800J0D01*G01*
Y263850D02*G75*G03X175400Y263850I800J0D01*G01*
G75*G03X173800Y263850I-800J0D01*G01*
X14200Y526250D02*G75*G03X15800Y526250I800J0D01*G01*
G75*G03X14200Y526250I-800J0D01*G01*
X135000Y528500D02*X136500Y525500D01*
X138000Y528500D01*
X136500Y525500D02*Y522500D01*
X139800Y525800D02*X142050D01*
X139800Y522500D02*X142800D01*
X139800Y528500D02*Y522500D01*
Y528500D02*X142800D01*
X147600D02*X148350Y527750D01*
X145350Y528500D02*X147600D01*
X144600Y527750D02*X145350Y528500D01*
X144600Y527750D02*Y526250D01*
X145350Y525500D01*
X147600D01*
X148350Y524750D01*
Y523250D01*
X147600Y522500D02*X148350Y523250D01*
X145350Y522500D02*X147600D01*
X144600Y523250D02*X145350Y522500D01*
X98000Y527300D02*X99200Y528500D01*
Y522500D01*
X98000D02*X100250D01*
X102050Y523250D02*X102800Y522500D01*
X102050Y527750D02*Y523250D01*
Y527750D02*X102800Y528500D01*
X104300D01*
X105050Y527750D01*
Y523250D01*
X104300Y522500D02*X105050Y523250D01*
X102800Y522500D02*X104300D01*
X102050Y524000D02*X105050Y527000D01*
X45000Y523250D02*X45750Y522500D01*
X45000Y527750D02*Y523250D01*
Y527750D02*X45750Y528500D01*
X47250D01*
X48000Y527750D01*
Y523250D01*
X47250Y522500D02*X48000Y523250D01*
X45750Y522500D02*X47250D01*
X45000Y524000D02*X48000Y527000D01*
X49800Y522500D02*X50550D01*
X52350Y523250D02*X53100Y522500D01*
X52350Y527750D02*Y523250D01*
Y527750D02*X53100Y528500D01*
X54600D01*
X55350Y527750D01*
Y523250D01*
X54600Y522500D02*X55350Y523250D01*
X53100Y522500D02*X54600D01*
X52350Y524000D02*X55350Y527000D01*
X57150Y527750D02*X57900Y528500D01*
X59400D01*
X60150Y527750D01*
X59400Y522500D02*X60150Y523250D01*
X57900Y522500D02*X59400D01*
X57150Y523250D02*X57900Y522500D01*
Y525800D02*X59400D01*
X60150Y527750D02*Y526550D01*
Y525050D02*Y523250D01*
Y525050D02*X59400Y525800D01*
X60150Y526550D02*X59400Y525800D01*
X62700Y522500D02*X64950Y525500D01*
Y527750D02*Y525500D01*
X64200Y528500D02*X64950Y527750D01*
X62700Y528500D02*X64200D01*
X61950Y527750D02*X62700Y528500D01*
X61950Y527750D02*Y526250D01*
X62700Y525500D01*
X64950D01*
X303985Y314700D02*X306385Y312300D01*
X303985D02*X306385Y314700D01*
X284300D02*X286700Y312300D01*
X284300D02*X286700Y314700D01*
X272300D02*X274700Y312300D01*
X272300D02*X274700Y314700D01*
X252615D02*X255015Y312300D01*
X252615D02*X255015Y314700D01*
X13800Y542450D02*X16200Y540050D01*
X13800D02*X16200Y542450D01*
X135000Y543500D02*X136500Y540500D01*
X138000Y543500D01*
X136500Y540500D02*Y537500D01*
X139800Y540800D02*X142050D01*
X139800Y537500D02*X142800D01*
X139800Y543500D02*Y537500D01*
Y543500D02*X142800D01*
X147600D02*X148350Y542750D01*
X145350Y543500D02*X147600D01*
X144600Y542750D02*X145350Y543500D01*
X144600Y542750D02*Y541250D01*
X145350Y540500D01*
X147600D01*
X148350Y539750D01*
Y538250D01*
X147600Y537500D02*X148350Y538250D01*
X145350Y537500D02*X147600D01*
X144600Y538250D02*X145350Y537500D01*
X98000Y539750D02*X101000Y543500D01*
X98000Y539750D02*X101750D01*
X101000Y543500D02*Y537500D01*
X45000Y538250D02*X45750Y537500D01*
X45000Y542750D02*Y538250D01*
Y542750D02*X45750Y543500D01*
X47250D01*
X48000Y542750D01*
Y538250D01*
X47250Y537500D02*X48000Y538250D01*
X45750Y537500D02*X47250D01*
X45000Y539000D02*X48000Y542000D01*
X49800Y537500D02*X50550D01*
X52350Y538250D02*X53100Y537500D01*
X52350Y542750D02*Y538250D01*
Y542750D02*X53100Y543500D01*
X54600D01*
X55350Y542750D01*
Y538250D01*
X54600Y537500D02*X55350Y538250D01*
X53100Y537500D02*X54600D01*
X52350Y539000D02*X55350Y542000D01*
X57150Y542750D02*X57900Y543500D01*
X59400D01*
X60150Y542750D01*
X59400Y537500D02*X60150Y538250D01*
X57900Y537500D02*X59400D01*
X57150Y538250D02*X57900Y537500D01*
Y540800D02*X59400D01*
X60150Y542750D02*Y541550D01*
Y540050D02*Y538250D01*
Y540050D02*X59400Y540800D01*
X60150Y541550D02*X59400Y540800D01*
X61950Y538250D02*X62700Y537500D01*
X61950Y542750D02*Y538250D01*
Y542750D02*X62700Y543500D01*
X64200D01*
X64950Y542750D01*
Y538250D01*
X64200Y537500D02*X64950Y538250D01*
X62700Y537500D02*X64200D01*
X61950Y539000D02*X64950Y542000D01*
X210000Y254100D02*Y250900D01*
X208400Y252500D02*X211600D01*
X210000Y263943D02*Y260743D01*
X208400Y262343D02*X211600D01*
X360500Y264100D02*Y260900D01*
X358900Y262500D02*X362100D01*
X360500Y273943D02*Y270743D01*
X358900Y272343D02*X362100D01*
X15000Y557850D02*Y554650D01*
X13400Y556250D02*X16600D01*
X135000Y558500D02*X136500Y555500D01*
X138000Y558500D01*
X136500Y555500D02*Y552500D01*
X139800Y555800D02*X142050D01*
X139800Y552500D02*X142800D01*
X139800Y558500D02*Y552500D01*
Y558500D02*X142800D01*
X147600D02*X148350Y557750D01*
X145350Y558500D02*X147600D01*
X144600Y557750D02*X145350Y558500D01*
X144600Y557750D02*Y556250D01*
X145350Y555500D01*
X147600D01*
X148350Y554750D01*
Y553250D01*
X147600Y552500D02*X148350Y553250D01*
X145350Y552500D02*X147600D01*
X144600Y553250D02*X145350Y552500D01*
X98000Y554750D02*X101000Y558500D01*
X98000Y554750D02*X101750D01*
X101000Y558500D02*Y552500D01*
X45000Y553250D02*X45750Y552500D01*
X45000Y557750D02*Y553250D01*
Y557750D02*X45750Y558500D01*
X47250D01*
X48000Y557750D01*
Y553250D01*
X47250Y552500D02*X48000Y553250D01*
X45750Y552500D02*X47250D01*
X45000Y554000D02*X48000Y557000D01*
X49800Y552500D02*X50550D01*
X52350Y553250D02*X53100Y552500D01*
X52350Y557750D02*Y553250D01*
Y557750D02*X53100Y558500D01*
X54600D01*
X55350Y557750D01*
Y553250D01*
X54600Y552500D02*X55350Y553250D01*
X53100Y552500D02*X54600D01*
X52350Y554000D02*X55350Y557000D01*
X57150Y557750D02*X57900Y558500D01*
X60150D01*
X60900Y557750D01*
Y556250D01*
X57150Y552500D02*X60900Y556250D01*
X57150Y552500D02*X60900D01*
X62700Y553250D02*X63450Y552500D01*
X62700Y554450D02*Y553250D01*
Y554450D02*X63750Y555500D01*
X64650D01*
X65700Y554450D01*
Y553250D01*
X64950Y552500D02*X65700Y553250D01*
X63450Y552500D02*X64950D01*
X62700Y556550D02*X63750Y555500D01*
X62700Y557750D02*Y556550D01*
Y557750D02*X63450Y558500D01*
X64950D01*
X65700Y557750D01*
Y556550D01*
X64650Y555500D02*X65700Y556550D01*
X225500Y304000D02*Y302400D01*
Y304000D02*X226887Y304800D01*
X225500Y304000D02*X224113Y304800D01*
X225500Y288500D02*Y286900D01*
Y288500D02*X226887Y289300D01*
X225500Y288500D02*X224113Y289300D01*
X234500Y272000D02*Y270400D01*
Y272000D02*X235887Y272800D01*
X234500Y272000D02*X233113Y272800D01*
X15000Y571250D02*Y569650D01*
Y571250D02*X16387Y572050D01*
X15000Y571250D02*X13613Y572050D01*
X135000Y573500D02*X136500Y570500D01*
X138000Y573500D01*
X136500Y570500D02*Y567500D01*
X139800Y570800D02*X142050D01*
X139800Y567500D02*X142800D01*
X139800Y573500D02*Y567500D01*
Y573500D02*X142800D01*
X147600D02*X148350Y572750D01*
X145350Y573500D02*X147600D01*
X144600Y572750D02*X145350Y573500D01*
X144600Y572750D02*Y571250D01*
X145350Y570500D01*
X147600D01*
X148350Y569750D01*
Y568250D01*
X147600Y567500D02*X148350Y568250D01*
X145350Y567500D02*X147600D01*
X144600Y568250D02*X145350Y567500D01*
X98000Y572750D02*X98750Y573500D01*
X100250D01*
X101000Y572750D01*
X100250Y567500D02*X101000Y568250D01*
X98750Y567500D02*X100250D01*
X98000Y568250D02*X98750Y567500D01*
Y570800D02*X100250D01*
X101000Y572750D02*Y571550D01*
Y570050D02*Y568250D01*
Y570050D02*X100250Y570800D01*
X101000Y571550D02*X100250Y570800D01*
X45000Y568250D02*X45750Y567500D01*
X45000Y572750D02*Y568250D01*
Y572750D02*X45750Y573500D01*
X47250D01*
X48000Y572750D01*
Y568250D01*
X47250Y567500D02*X48000Y568250D01*
X45750Y567500D02*X47250D01*
X45000Y569000D02*X48000Y572000D01*
X49800Y567500D02*X50550D01*
X52350Y568250D02*X53100Y567500D01*
X52350Y572750D02*Y568250D01*
Y572750D02*X53100Y573500D01*
X54600D01*
X55350Y572750D01*
Y568250D01*
X54600Y567500D02*X55350Y568250D01*
X53100Y567500D02*X54600D01*
X52350Y569000D02*X55350Y572000D01*
X57150Y572750D02*X57900Y573500D01*
X60150D01*
X60900Y572750D01*
Y571250D01*
X57150Y567500D02*X60900Y571250D01*
X57150Y567500D02*X60900D01*
X62700Y568250D02*X63450Y567500D01*
X62700Y572750D02*Y568250D01*
Y572750D02*X63450Y573500D01*
X64950D01*
X65700Y572750D01*
Y568250D01*
X64950Y567500D02*X65700Y568250D01*
X63450Y567500D02*X64950D01*
X62700Y569000D02*X65700Y572000D01*
X3000Y588500D02*X3750Y587750D01*
X750Y588500D02*X3000D01*
X0Y587750D02*X750Y588500D01*
X0Y587750D02*Y586250D01*
X750Y585500D01*
X3000D01*
X3750Y584750D01*
Y583250D01*
X3000Y582500D02*X3750Y583250D01*
X750Y582500D02*X3000D01*
X0Y583250D02*X750Y582500D01*
X5550Y585500D02*Y583250D01*
X6300Y582500D01*
X8550Y585500D02*Y581000D01*
X7800Y580250D02*X8550Y581000D01*
X6300Y580250D02*X7800D01*
X5550Y581000D02*X6300Y580250D01*
Y582500D02*X7800D01*
X8550Y583250D01*
X11100Y584750D02*Y582500D01*
Y584750D02*X11850Y585500D01*
X12600D01*
X13350Y584750D01*
Y582500D01*
Y584750D02*X14100Y585500D01*
X14850D01*
X15600Y584750D01*
Y582500D01*
X10350Y585500D02*X11100Y584750D01*
X17400Y588500D02*Y582500D01*
Y583250D02*X18150Y582500D01*
X19650D01*
X20400Y583250D01*
Y584750D02*Y583250D01*
X19650Y585500D02*X20400Y584750D01*
X18150Y585500D02*X19650D01*
X17400Y584750D02*X18150Y585500D01*
X22200Y584750D02*Y583250D01*
Y584750D02*X22950Y585500D01*
X24450D01*
X25200Y584750D01*
Y583250D01*
X24450Y582500D02*X25200Y583250D01*
X22950Y582500D02*X24450D01*
X22200Y583250D02*X22950Y582500D01*
X27000Y588500D02*Y583250D01*
X27750Y582500D01*
X0Y580750D02*X29250D01*
X41750Y588500D02*Y582500D01*
X43700Y588500D02*X44750Y587450D01*
Y583550D01*
X43700Y582500D02*X44750Y583550D01*
X41000Y582500D02*X43700D01*
X41000Y588500D02*X43700D01*
G54D83*X46550Y587000D02*Y586850D01*
G54D82*Y584750D02*Y582500D01*
X50300Y585500D02*X51050Y584750D01*
X48800Y585500D02*X50300D01*
X48050Y584750D02*X48800Y585500D01*
X48050Y584750D02*Y583250D01*
X48800Y582500D01*
X51050Y585500D02*Y583250D01*
X51800Y582500D01*
X48800D02*X50300D01*
X51050Y583250D01*
X54350Y584750D02*Y582500D01*
Y584750D02*X55100Y585500D01*
X55850D01*
X56600Y584750D01*
Y582500D01*
Y584750D02*X57350Y585500D01*
X58100D01*
X58850Y584750D01*
Y582500D01*
X53600Y585500D02*X54350Y584750D01*
X60650Y582500D02*X61400D01*
X65900Y583250D02*X66650Y582500D01*
X65900Y587750D02*X66650Y588500D01*
X65900Y587750D02*Y583250D01*
X68450Y588500D02*X69950D01*
X69200D02*Y582500D01*
X68450D02*X69950D01*
X72500Y584750D02*Y582500D01*
Y584750D02*X73250Y585500D01*
X74000D01*
X74750Y584750D01*
Y582500D01*
X71750Y585500D02*X72500Y584750D01*
X77300Y585500D02*X79550D01*
X76550Y584750D02*X77300Y585500D01*
X76550Y584750D02*Y583250D01*
X77300Y582500D01*
X79550D01*
X81350Y588500D02*Y582500D01*
Y584750D02*X82100Y585500D01*
X83600D01*
X84350Y584750D01*
Y582500D01*
X86150Y588500D02*X86900Y587750D01*
Y583250D01*
X86150Y582500D02*X86900Y583250D01*
X41000Y580750D02*X88700D01*
X96050Y582500D02*X98000D01*
X95000Y583550D02*X96050Y582500D01*
X95000Y587450D02*Y583550D01*
Y587450D02*X96050Y588500D01*
X98000D01*
X99800Y584750D02*Y583250D01*
Y584750D02*X100550Y585500D01*
X102050D01*
X102800Y584750D01*
Y583250D01*
X102050Y582500D02*X102800Y583250D01*
X100550Y582500D02*X102050D01*
X99800Y583250D02*X100550Y582500D01*
X104600Y585500D02*Y583250D01*
X105350Y582500D01*
X106850D01*
X107600Y583250D01*
Y585500D02*Y583250D01*
X110150Y584750D02*Y582500D01*
Y584750D02*X110900Y585500D01*
X111650D01*
X112400Y584750D01*
Y582500D01*
X109400Y585500D02*X110150Y584750D01*
X114950Y588500D02*Y583250D01*
X115700Y582500D01*
X114200Y586250D02*X115700D01*
X95000Y580750D02*X117200D01*
X130750Y588500D02*Y582500D01*
X130000Y588500D02*X133000D01*
X133750Y587750D01*
Y586250D01*
X133000Y585500D02*X133750Y586250D01*
X130750Y585500D02*X133000D01*
X135550Y588500D02*Y583250D01*
X136300Y582500D01*
X140050Y585500D02*X140800Y584750D01*
X138550Y585500D02*X140050D01*
X137800Y584750D02*X138550Y585500D01*
X137800Y584750D02*Y583250D01*
X138550Y582500D01*
X140800Y585500D02*Y583250D01*
X141550Y582500D01*
X138550D02*X140050D01*
X140800Y583250D01*
X144100Y588500D02*Y583250D01*
X144850Y582500D01*
X143350Y586250D02*X144850D01*
X147100Y582500D02*X149350D01*
X146350Y583250D02*X147100Y582500D01*
X146350Y584750D02*Y583250D01*
Y584750D02*X147100Y585500D01*
X148600D01*
X149350Y584750D01*
X146350Y584000D02*X149350D01*
Y584750D01*
X154150Y588500D02*Y582500D01*
X153400D02*X154150Y583250D01*
X151900Y582500D02*X153400D01*
X151150Y583250D02*X151900Y582500D01*
X151150Y584750D02*Y583250D01*
Y584750D02*X151900Y585500D01*
X153400D01*
X154150Y584750D01*
X157450Y585500D02*Y584750D01*
Y583250D02*Y582500D01*
X155950Y587750D02*Y587000D01*
Y587750D02*X156700Y588500D01*
X158200D01*
X158950Y587750D01*
Y587000D01*
X157450Y585500D02*X158950Y587000D01*
X130000Y580750D02*X160750D01*
X0Y603500D02*X3000D01*
X1500D02*Y597500D01*
X4800Y603500D02*Y597500D01*
Y599750D02*X5550Y600500D01*
X7050D01*
X7800Y599750D01*
Y597500D01*
X10350D02*X12600D01*
X9600Y598250D02*X10350Y597500D01*
X9600Y599750D02*Y598250D01*
Y599750D02*X10350Y600500D01*
X11850D01*
X12600Y599750D01*
X9600Y599000D02*X12600D01*
Y599750D01*
X15150D02*Y597500D01*
Y599750D02*X15900Y600500D01*
X17400D01*
X14400D02*X15150Y599750D01*
X19950Y597500D02*X22200D01*
X19200Y598250D02*X19950Y597500D01*
X19200Y599750D02*Y598250D01*
Y599750D02*X19950Y600500D01*
X21450D01*
X22200Y599750D01*
X19200Y599000D02*X22200D01*
Y599750D01*
X28950Y600500D02*X29700Y599750D01*
X27450Y600500D02*X28950D01*
X26700Y599750D02*X27450Y600500D01*
X26700Y599750D02*Y598250D01*
X27450Y597500D01*
X29700Y600500D02*Y598250D01*
X30450Y597500D01*
X27450D02*X28950D01*
X29700Y598250D01*
X33000Y599750D02*Y597500D01*
Y599750D02*X33750Y600500D01*
X35250D01*
X32250D02*X33000Y599750D01*
X37800Y597500D02*X40050D01*
X37050Y598250D02*X37800Y597500D01*
X37050Y599750D02*Y598250D01*
Y599750D02*X37800Y600500D01*
X39300D01*
X40050Y599750D01*
X37050Y599000D02*X40050D01*
Y599750D01*
X44550Y603500D02*X47550D01*
X44550D02*Y600500D01*
X45300Y601250D01*
X46800D01*
X47550Y600500D01*
Y598250D01*
X46800Y597500D02*X47550Y598250D01*
X45300Y597500D02*X46800D01*
X44550Y598250D02*X45300Y597500D01*
X55050Y603500D02*Y597500D01*
X54300D02*X55050Y598250D01*
X52800Y597500D02*X54300D01*
X52050Y598250D02*X52800Y597500D01*
X52050Y599750D02*Y598250D01*
Y599750D02*X52800Y600500D01*
X54300D01*
X55050Y599750D01*
G54D83*X56850Y602000D02*Y601850D01*
G54D82*Y599750D02*Y597500D01*
X59100Y602750D02*Y597500D01*
Y602750D02*X59850Y603500D01*
X60600D01*
X58350Y600500D02*X59850D01*
X62850Y602750D02*Y597500D01*
Y602750D02*X63600Y603500D01*
X64350D01*
X62100Y600500D02*X63600D01*
X66600Y597500D02*X68850D01*
X65850Y598250D02*X66600Y597500D01*
X65850Y599750D02*Y598250D01*
Y599750D02*X66600Y600500D01*
X68100D01*
X68850Y599750D01*
X65850Y599000D02*X68850D01*
Y599750D01*
X71400D02*Y597500D01*
Y599750D02*X72150Y600500D01*
X73650D01*
X70650D02*X71400Y599750D01*
X76200Y597500D02*X78450D01*
X75450Y598250D02*X76200Y597500D01*
X75450Y599750D02*Y598250D01*
Y599750D02*X76200Y600500D01*
X77700D01*
X78450Y599750D01*
X75450Y599000D02*X78450D01*
Y599750D01*
X81000D02*Y597500D01*
Y599750D02*X81750Y600500D01*
X82500D01*
X83250Y599750D01*
Y597500D01*
X80250Y600500D02*X81000Y599750D01*
X85800Y603500D02*Y598250D01*
X86550Y597500D01*
X85050Y601250D02*X86550D01*
X93750Y603500D02*Y597500D01*
X93000D02*X93750Y598250D01*
X91500Y597500D02*X93000D01*
X90750Y598250D02*X91500Y597500D01*
X90750Y599750D02*Y598250D01*
Y599750D02*X91500Y600500D01*
X93000D01*
X93750Y599750D01*
X96300D02*Y597500D01*
Y599750D02*X97050Y600500D01*
X98550D01*
X95550D02*X96300Y599750D01*
G54D83*X100350Y602000D02*Y601850D01*
G54D82*Y599750D02*Y597500D01*
X101850Y603500D02*Y598250D01*
X102600Y597500D01*
X104100Y603500D02*Y598250D01*
X104850Y597500D01*
X109800D02*X112050D01*
X112800Y598250D01*
X112050Y599000D02*X112800Y598250D01*
X109800Y599000D02*X112050D01*
X109050Y599750D02*X109800Y599000D01*
X109050Y599750D02*X109800Y600500D01*
X112050D01*
X112800Y599750D01*
X109050Y598250D02*X109800Y597500D01*
G54D83*X114600Y602000D02*Y601850D01*
G54D82*Y599750D02*Y597500D01*
X116100Y600500D02*X119100D01*
X116100Y597500D02*X119100Y600500D01*
X116100Y597500D02*X119100D01*
X121650D02*X123900D01*
X120900Y598250D02*X121650Y597500D01*
X120900Y599750D02*Y598250D01*
Y599750D02*X121650Y600500D01*
X123150D01*
X123900Y599750D01*
X120900Y599000D02*X123900D01*
Y599750D01*
X126450Y597500D02*X128700D01*
X129450Y598250D01*
X128700Y599000D02*X129450Y598250D01*
X126450Y599000D02*X128700D01*
X125700Y599750D02*X126450Y599000D01*
X125700Y599750D02*X126450Y600500D01*
X128700D01*
X129450Y599750D01*
X125700Y598250D02*X126450Y597500D01*
X133950Y600500D02*Y598250D01*
X134700Y597500D01*
X136200D01*
X136950Y598250D01*
Y600500D02*Y598250D01*
X139500Y597500D02*X141750D01*
X142500Y598250D01*
X141750Y599000D02*X142500Y598250D01*
X139500Y599000D02*X141750D01*
X138750Y599750D02*X139500Y599000D01*
X138750Y599750D02*X139500Y600500D01*
X141750D01*
X142500Y599750D01*
X138750Y598250D02*X139500Y597500D01*
X145050D02*X147300D01*
X144300Y598250D02*X145050Y597500D01*
X144300Y599750D02*Y598250D01*
Y599750D02*X145050Y600500D01*
X146550D01*
X147300Y599750D01*
X144300Y599000D02*X147300D01*
Y599750D01*
X152100Y603500D02*Y597500D01*
X151350D02*X152100Y598250D01*
X149850Y597500D02*X151350D01*
X149100Y598250D02*X149850Y597500D01*
X149100Y599750D02*Y598250D01*
Y599750D02*X149850Y600500D01*
X151350D01*
X152100Y599750D01*
G54D83*X156600Y602000D02*Y601850D01*
G54D82*Y599750D02*Y597500D01*
X158850Y599750D02*Y597500D01*
Y599750D02*X159600Y600500D01*
X160350D01*
X161100Y599750D01*
Y597500D01*
X158100Y600500D02*X158850Y599750D01*
X166350Y603500D02*Y598250D01*
X167100Y597500D01*
X165600Y601250D02*X167100D01*
X168600Y603500D02*Y597500D01*
Y599750D02*X169350Y600500D01*
X170850D01*
X171600Y599750D01*
Y597500D01*
G54D83*X173400Y602000D02*Y601850D01*
G54D82*Y599750D02*Y597500D01*
X175650D02*X177900D01*
X178650Y598250D01*
X177900Y599000D02*X178650Y598250D01*
X175650Y599000D02*X177900D01*
X174900Y599750D02*X175650Y599000D01*
X174900Y599750D02*X175650Y600500D01*
X177900D01*
X178650Y599750D01*
X174900Y598250D02*X175650Y597500D01*
X183150Y603500D02*Y598250D01*
X183900Y597500D01*
X187650Y600500D02*X188400Y599750D01*
X186150Y600500D02*X187650D01*
X185400Y599750D02*X186150Y600500D01*
X185400Y599750D02*Y598250D01*
X186150Y597500D01*
X188400Y600500D02*Y598250D01*
X189150Y597500D01*
X186150D02*X187650D01*
X188400Y598250D01*
X190950Y600500D02*Y598250D01*
X191700Y597500D01*
X193950Y600500D02*Y596000D01*
X193200Y595250D02*X193950Y596000D01*
X191700Y595250D02*X193200D01*
X190950Y596000D02*X191700Y595250D01*
Y597500D02*X193200D01*
X193950Y598250D01*
X195750Y599750D02*Y598250D01*
Y599750D02*X196500Y600500D01*
X198000D01*
X198750Y599750D01*
Y598250D01*
X198000Y597500D02*X198750Y598250D01*
X196500Y597500D02*X198000D01*
X195750Y598250D02*X196500Y597500D01*
X200550Y600500D02*Y598250D01*
X201300Y597500D01*
X202800D01*
X203550Y598250D01*
Y600500D02*Y598250D01*
X206100Y603500D02*Y598250D01*
X206850Y597500D01*
X205350Y601250D02*X206850D01*
X208350Y596000D02*X209850Y597500D01*
X214350Y602750D02*X215100Y603500D01*
X217350D01*
X218100Y602750D01*
Y601250D01*
X214350Y597500D02*X218100Y601250D01*
X214350Y597500D02*X218100D01*
X219900Y603500D02*X222900D01*
X219900D02*Y600500D01*
X220650Y601250D01*
X222150D01*
X222900Y600500D01*
Y598250D01*
X222150Y597500D02*X222900Y598250D01*
X220650Y597500D02*X222150D01*
X219900Y598250D02*X220650Y597500D01*
X227400Y603500D02*Y597500D01*
Y599750D02*X228150Y600500D01*
X229650D01*
X230400Y599750D01*
Y597500D01*
X232200Y599750D02*Y598250D01*
Y599750D02*X232950Y600500D01*
X234450D01*
X235200Y599750D01*
Y598250D01*
X234450Y597500D02*X235200Y598250D01*
X232950Y597500D02*X234450D01*
X232200Y598250D02*X232950Y597500D01*
X237000Y603500D02*Y598250D01*
X237750Y597500D01*
X240000D02*X242250D01*
X239250Y598250D02*X240000Y597500D01*
X239250Y599750D02*Y598250D01*
Y599750D02*X240000Y600500D01*
X241500D01*
X242250Y599750D01*
X239250Y599000D02*X242250D01*
Y599750D01*
X244800Y597500D02*X247050D01*
X247800Y598250D01*
X247050Y599000D02*X247800Y598250D01*
X244800Y599000D02*X247050D01*
X244050Y599750D02*X244800Y599000D01*
X244050Y599750D02*X244800Y600500D01*
X247050D01*
X247800Y599750D01*
X244050Y598250D02*X244800Y597500D01*
X253050Y603500D02*Y598250D01*
X253800Y597500D01*
X252300Y601250D02*X253800D01*
X255300Y599750D02*Y598250D01*
Y599750D02*X256050Y600500D01*
X257550D01*
X258300Y599750D01*
Y598250D01*
X257550Y597500D02*X258300Y598250D01*
X256050Y597500D02*X257550D01*
X255300Y598250D02*X256050Y597500D01*
X260850Y603500D02*Y598250D01*
X261600Y597500D01*
X260100Y601250D02*X261600D01*
X265350Y600500D02*X266100Y599750D01*
X263850Y600500D02*X265350D01*
X263100Y599750D02*X263850Y600500D01*
X263100Y599750D02*Y598250D01*
X263850Y597500D01*
X266100Y600500D02*Y598250D01*
X266850Y597500D01*
X263850D02*X265350D01*
X266100Y598250D01*
X268650Y603500D02*Y598250D01*
X269400Y597500D01*
G54D84*X312600Y230350D02*X175600D01*
X159100Y246850D01*
Y371350D01*
X167600Y379850D01*
X304100D02*X312600Y371350D01*
Y315850D01*
X318100Y310350D01*
X365100D01*
X377600Y297850D01*
Y241850D01*
X357100Y221350D01*
X321600D01*
X312600Y230350D01*
X167600Y379850D02*X304100D01*
G54D82*X163675Y-9500D02*X166675D01*
X167425Y-8750D01*
Y-6950D02*Y-8750D01*
X166675Y-6200D02*X167425Y-6950D01*
X164425Y-6200D02*X166675D01*
X164425Y-3500D02*Y-9500D01*
X163675Y-3500D02*X166675D01*
X167425Y-4250D01*
Y-5450D01*
X166675Y-6200D02*X167425Y-5450D01*
X169225Y-7250D02*Y-8750D01*
Y-7250D02*X169975Y-6500D01*
X171475D01*
X172225Y-7250D01*
Y-8750D01*
X171475Y-9500D02*X172225Y-8750D01*
X169975Y-9500D02*X171475D01*
X169225Y-8750D02*X169975Y-9500D01*
X176275Y-6500D02*X177025Y-7250D01*
X174775Y-6500D02*X176275D01*
X174025Y-7250D02*X174775Y-6500D01*
X174025Y-7250D02*Y-8750D01*
X174775Y-9500D01*
X177025Y-6500D02*Y-8750D01*
X177775Y-9500D01*
X174775D02*X176275D01*
X177025Y-8750D01*
X180325Y-7250D02*Y-9500D01*
Y-7250D02*X181075Y-6500D01*
X182575D01*
X179575D02*X180325Y-7250D01*
X187375Y-3500D02*Y-9500D01*
X186625D02*X187375Y-8750D01*
X185125Y-9500D02*X186625D01*
X184375Y-8750D02*X185125Y-9500D01*
X184375Y-7250D02*Y-8750D01*
Y-7250D02*X185125Y-6500D01*
X186625D01*
X187375Y-7250D01*
X191875D02*Y-8750D01*
Y-7250D02*X192625Y-6500D01*
X194125D01*
X194875Y-7250D01*
Y-8750D01*
X194125Y-9500D02*X194875Y-8750D01*
X192625Y-9500D02*X194125D01*
X191875Y-8750D02*X192625Y-9500D01*
X196675Y-6500D02*Y-8750D01*
X197425Y-9500D01*
X198925D01*
X199675Y-8750D01*
Y-6500D02*Y-8750D01*
X202225Y-3500D02*Y-8750D01*
X202975Y-9500D01*
X201475Y-5750D02*X202975D01*
X204475Y-3500D02*Y-8750D01*
X205225Y-9500D01*
G54D83*X206725Y-5000D02*Y-5150D01*
G54D82*Y-7250D02*Y-9500D01*
X208975Y-7250D02*Y-9500D01*
Y-7250D02*X209725Y-6500D01*
X210475D01*
X211225Y-7250D01*
Y-9500D01*
X208225Y-6500D02*X208975Y-7250D01*
X213775Y-9500D02*X216025D01*
X213025Y-8750D02*X213775Y-9500D01*
X213025Y-7250D02*Y-8750D01*
Y-7250D02*X213775Y-6500D01*
X215275D01*
X216025Y-7250D01*
X213025Y-8000D02*X216025D01*
Y-7250D01*
G54D83*X220525Y-5000D02*Y-5150D01*
G54D82*Y-7250D02*Y-9500D01*
X222775D02*X225025D01*
X225775Y-8750D01*
X225025Y-8000D02*X225775Y-8750D01*
X222775Y-8000D02*X225025D01*
X222025Y-7250D02*X222775Y-8000D01*
X222025Y-7250D02*X222775Y-6500D01*
X225025D01*
X225775Y-7250D01*
X222025Y-8750D02*X222775Y-9500D01*
X231025Y-3500D02*Y-8750D01*
X231775Y-9500D01*
X230275Y-5750D02*X231775D01*
X233275Y-3500D02*Y-9500D01*
Y-7250D02*X234025Y-6500D01*
X235525D01*
X236275Y-7250D01*
Y-9500D01*
X238825D02*X241075D01*
X238075Y-8750D02*X238825Y-9500D01*
X238075Y-7250D02*Y-8750D01*
Y-7250D02*X238825Y-6500D01*
X240325D01*
X241075Y-7250D01*
X238075Y-8000D02*X241075D01*
Y-7250D01*
X246325Y-6500D02*X248575D01*
X245575Y-7250D02*X246325Y-6500D01*
X245575Y-7250D02*Y-8750D01*
X246325Y-9500D01*
X248575D01*
X251125D02*X253375D01*
X250375Y-8750D02*X251125Y-9500D01*
X250375Y-7250D02*Y-8750D01*
Y-7250D02*X251125Y-6500D01*
X252625D01*
X253375Y-7250D01*
X250375Y-8000D02*X253375D01*
Y-7250D01*
X255925D02*Y-9500D01*
Y-7250D02*X256675Y-6500D01*
X257425D01*
X258175Y-7250D01*
Y-9500D01*
X255175Y-6500D02*X255925Y-7250D01*
X260725Y-3500D02*Y-8750D01*
X261475Y-9500D01*
X259975Y-5750D02*X261475D01*
X263725Y-9500D02*X265975D01*
X262975Y-8750D02*X263725Y-9500D01*
X262975Y-7250D02*Y-8750D01*
Y-7250D02*X263725Y-6500D01*
X265225D01*
X265975Y-7250D01*
X262975Y-8000D02*X265975D01*
Y-7250D01*
X268525D02*Y-9500D01*
Y-7250D02*X269275Y-6500D01*
X270775D01*
X267775D02*X268525Y-7250D01*
X272575Y-3500D02*Y-8750D01*
X273325Y-9500D01*
G54D83*X274825Y-5000D02*Y-5150D01*
G54D82*Y-7250D02*Y-9500D01*
X277075Y-7250D02*Y-9500D01*
Y-7250D02*X277825Y-6500D01*
X278575D01*
X279325Y-7250D01*
Y-9500D01*
X276325Y-6500D02*X277075Y-7250D01*
X281875Y-9500D02*X284125D01*
X281125Y-8750D02*X281875Y-9500D01*
X281125Y-7250D02*Y-8750D01*
Y-7250D02*X281875Y-6500D01*
X283375D01*
X284125Y-7250D01*
X281125Y-8000D02*X284125D01*
Y-7250D01*
X288625D02*Y-8750D01*
Y-7250D02*X289375Y-6500D01*
X290875D01*
X291625Y-7250D01*
Y-8750D01*
X290875Y-9500D02*X291625Y-8750D01*
X289375Y-9500D02*X290875D01*
X288625Y-8750D02*X289375Y-9500D01*
X294175Y-4250D02*Y-9500D01*
Y-4250D02*X294925Y-3500D01*
X295675D01*
X293425Y-6500D02*X294925D01*
X300625Y-3500D02*Y-8750D01*
X301375Y-9500D01*
X299875Y-5750D02*X301375D01*
X302875Y-3500D02*Y-9500D01*
Y-7250D02*X303625Y-6500D01*
X305125D01*
X305875Y-7250D01*
Y-9500D01*
G54D83*X307675Y-5000D02*Y-5150D01*
G54D82*Y-7250D02*Y-9500D01*
X309925D02*X312175D01*
X312925Y-8750D01*
X312175Y-8000D02*X312925Y-8750D01*
X309925Y-8000D02*X312175D01*
X309175Y-7250D02*X309925Y-8000D01*
X309175Y-7250D02*X309925Y-6500D01*
X312175D01*
X312925Y-7250D01*
X309175Y-8750D02*X309925Y-9500D01*
X318175Y-7250D02*Y-11750D01*
X317425Y-6500D02*X318175Y-7250D01*
X318925Y-6500D01*
X320425D01*
X321175Y-7250D01*
Y-8750D01*
X320425Y-9500D02*X321175Y-8750D01*
X318925Y-9500D02*X320425D01*
X318175Y-8750D02*X318925Y-9500D01*
X325225Y-6500D02*X325975Y-7250D01*
X323725Y-6500D02*X325225D01*
X322975Y-7250D02*X323725Y-6500D01*
X322975Y-7250D02*Y-8750D01*
X323725Y-9500D01*
X325975Y-6500D02*Y-8750D01*
X326725Y-9500D01*
X323725D02*X325225D01*
X325975Y-8750D01*
X329275Y-3500D02*Y-8750D01*
X330025Y-9500D01*
X328525Y-5750D02*X330025D01*
X331525Y-3500D02*Y-9500D01*
Y-7250D02*X332275Y-6500D01*
X333775D01*
X334525Y-7250D01*
Y-9500D01*
X200750Y528500D02*Y522500D01*
X202700Y528500D02*X203750Y527450D01*
Y523550D01*
X202700Y522500D02*X203750Y523550D01*
X200000Y522500D02*X202700D01*
X200000Y528500D02*X202700D01*
X207800Y525500D02*X208550Y524750D01*
X206300Y525500D02*X207800D01*
X205550Y524750D02*X206300Y525500D01*
X205550Y524750D02*Y523250D01*
X206300Y522500D01*
X208550Y525500D02*Y523250D01*
X209300Y522500D01*
X206300D02*X207800D01*
X208550Y523250D01*
X211850Y528500D02*Y523250D01*
X212600Y522500D01*
X211100Y526250D02*X212600D01*
X214850Y522500D02*X217100D01*
X214100Y523250D02*X214850Y522500D01*
X214100Y524750D02*Y523250D01*
Y524750D02*X214850Y525500D01*
X216350D01*
X217100Y524750D01*
X214100Y524000D02*X217100D01*
Y524750D01*
X218900Y526250D02*X219650D01*
X218900Y524750D02*X219650D01*
X224150Y527750D02*X224900Y528500D01*
X227150D01*
X227900Y527750D01*
Y526250D01*
X224150Y522500D02*X227900Y526250D01*
X224150Y522500D02*X227900D01*
X229700Y523250D02*X230450Y522500D01*
X229700Y527750D02*Y523250D01*
Y527750D02*X230450Y528500D01*
X231950D01*
X232700Y527750D01*
Y523250D01*
X231950Y522500D02*X232700Y523250D01*
X230450Y522500D02*X231950D01*
X229700Y524000D02*X232700Y527000D01*
X234500Y527750D02*X235250Y528500D01*
X237500D01*
X238250Y527750D01*
Y526250D01*
X234500Y522500D02*X238250Y526250D01*
X234500Y522500D02*X238250D01*
X240050Y527300D02*X241250Y528500D01*
Y522500D01*
X240050D02*X242300D01*
X244100Y525500D02*X247100D01*
X248900Y523250D02*X249650Y522500D01*
X248900Y527750D02*Y523250D01*
Y527750D02*X249650Y528500D01*
X251150D01*
X251900Y527750D01*
Y523250D01*
X251150Y522500D02*X251900Y523250D01*
X249650Y522500D02*X251150D01*
X248900Y524000D02*X251900Y527000D01*
X253700Y528500D02*X256700D01*
X253700D02*Y525500D01*
X254450Y526250D01*
X255950D01*
X256700Y525500D01*
Y523250D01*
X255950Y522500D02*X256700Y523250D01*
X254450Y522500D02*X255950D01*
X253700Y523250D02*X254450Y522500D01*
X258500Y525500D02*X261500D01*
X263300Y523250D02*X264050Y522500D01*
X263300Y527750D02*Y523250D01*
Y527750D02*X264050Y528500D01*
X265550D01*
X266300Y527750D01*
Y523250D01*
X265550Y522500D02*X266300Y523250D01*
X264050Y522500D02*X265550D01*
X263300Y524000D02*X266300Y527000D01*
X268100Y527750D02*X268850Y528500D01*
X270350D01*
X271100Y527750D01*
X270350Y522500D02*X271100Y523250D01*
X268850Y522500D02*X270350D01*
X268100Y523250D02*X268850Y522500D01*
Y525800D02*X270350D01*
X271100Y527750D02*Y526550D01*
Y525050D02*Y523250D01*
Y525050D02*X270350Y525800D01*
X271100Y526550D02*X270350Y525800D01*
X275600Y527300D02*X276800Y528500D01*
Y522500D01*
X275600D02*X277850D01*
X280400D02*X282650Y525500D01*
Y527750D02*Y525500D01*
X281900Y528500D02*X282650Y527750D01*
X280400Y528500D02*X281900D01*
X279650Y527750D02*X280400Y528500D01*
X279650Y527750D02*Y526250D01*
X280400Y525500D01*
X282650D01*
X284450Y526250D02*X285200D01*
X284450Y524750D02*X285200D01*
X287000Y527750D02*X287750Y528500D01*
X290000D01*
X290750Y527750D01*
Y526250D01*
X287000Y522500D02*X290750Y526250D01*
X287000Y522500D02*X290750D01*
X292550Y523250D02*X293300Y522500D01*
X292550Y527750D02*Y523250D01*
Y527750D02*X293300Y528500D01*
X294800D01*
X295550Y527750D01*
Y523250D01*
X294800Y522500D02*X295550Y523250D01*
X293300Y522500D02*X294800D01*
X292550Y524000D02*X295550Y527000D01*
X297350Y526250D02*X298100D01*
X297350Y524750D02*X298100D01*
X299900Y527750D02*X300650Y528500D01*
X302150D01*
X302900Y527750D01*
X302150Y522500D02*X302900Y523250D01*
X300650Y522500D02*X302150D01*
X299900Y523250D02*X300650Y522500D01*
Y525800D02*X302150D01*
X302900Y527750D02*Y526550D01*
Y525050D02*Y523250D01*
Y525050D02*X302150Y525800D01*
X302900Y526550D02*X302150Y525800D01*
X304700Y527300D02*X305900Y528500D01*
Y522500D01*
X304700D02*X306950D01*
X311450Y528500D02*Y523250D01*
X312200Y522500D01*
X313700D01*
X314450Y523250D01*
Y528500D02*Y523250D01*
X316250Y528500D02*X319250D01*
X317750D02*Y522500D01*
X322100D02*X324050D01*
X321050Y523550D02*X322100Y522500D01*
X321050Y527450D02*Y523550D01*
Y527450D02*X322100Y528500D01*
X324050D01*
X200000Y542000D02*Y537500D01*
Y542000D02*X201050Y543500D01*
X202700D01*
X203750Y542000D01*
Y537500D01*
X200000Y540500D02*X203750D01*
X205550D02*Y538250D01*
X206300Y537500D01*
X207800D01*
X208550Y538250D01*
Y540500D02*Y538250D01*
X211100Y543500D02*Y538250D01*
X211850Y537500D01*
X210350Y541250D02*X211850D01*
X213350Y543500D02*Y537500D01*
Y539750D02*X214100Y540500D01*
X215600D01*
X216350Y539750D01*
Y537500D01*
X218150Y539750D02*Y538250D01*
Y539750D02*X218900Y540500D01*
X220400D01*
X221150Y539750D01*
Y538250D01*
X220400Y537500D02*X221150Y538250D01*
X218900Y537500D02*X220400D01*
X218150Y538250D02*X218900Y537500D01*
X223700Y539750D02*Y537500D01*
Y539750D02*X224450Y540500D01*
X225950D01*
X222950D02*X223700Y539750D01*
X227750Y541250D02*X228500D01*
X227750Y539750D02*X228500D01*
X200000Y558500D02*X203000D01*
X201500D02*Y552500D01*
G54D83*X204800Y557000D02*Y556850D01*
G54D82*Y554750D02*Y552500D01*
X207050Y558500D02*Y553250D01*
X207800Y552500D01*
X206300Y556250D02*X207800D01*
X209300Y558500D02*Y553250D01*
X210050Y552500D01*
X212300D02*X214550D01*
X211550Y553250D02*X212300Y552500D01*
X211550Y554750D02*Y553250D01*
Y554750D02*X212300Y555500D01*
X213800D01*
X214550Y554750D01*
X211550Y554000D02*X214550D01*
Y554750D01*
X216350Y556250D02*X217100D01*
X216350Y554750D02*X217100D01*
X221600Y553250D02*X222350Y552500D01*
X221600Y557750D02*X222350Y558500D01*
X221600Y557750D02*Y553250D01*
X224150Y555500D02*Y553250D01*
X224900Y552500D01*
X226400D01*
X227150Y553250D01*
Y555500D02*Y553250D01*
X229700Y554750D02*Y552500D01*
Y554750D02*X230450Y555500D01*
X231200D01*
X231950Y554750D01*
Y552500D01*
X228950Y555500D02*X229700Y554750D01*
X233750Y558500D02*Y552500D01*
Y554750D02*X236000Y552500D01*
X233750Y554750D02*X235250Y556250D01*
X238550Y554750D02*Y552500D01*
Y554750D02*X239300Y555500D01*
X240050D01*
X240800Y554750D01*
Y552500D01*
X237800Y555500D02*X238550Y554750D01*
X242600D02*Y553250D01*
Y554750D02*X243350Y555500D01*
X244850D01*
X245600Y554750D01*
Y553250D01*
X244850Y552500D02*X245600Y553250D01*
X243350Y552500D02*X244850D01*
X242600Y553250D02*X243350Y552500D01*
X247400Y555500D02*Y553250D01*
X248150Y552500D01*
X248900D01*
X249650Y553250D01*
Y555500D02*Y553250D01*
X250400Y552500D01*
X251150D01*
X251900Y553250D01*
Y555500D02*Y553250D01*
X254450Y554750D02*Y552500D01*
Y554750D02*X255200Y555500D01*
X255950D01*
X256700Y554750D01*
Y552500D01*
X253700Y555500D02*X254450Y554750D01*
X258500Y558500D02*X259250Y557750D01*
Y553250D01*
X258500Y552500D02*X259250Y553250D01*
X263750Y555500D02*X266750D01*
X271250Y558500D02*Y552500D01*
Y558500D02*X274250D01*
X271250Y555800D02*X273500D01*
X278300Y555500D02*X279050Y554750D01*
X276800Y555500D02*X278300D01*
X276050Y554750D02*X276800Y555500D01*
X276050Y554750D02*Y553250D01*
X276800Y552500D01*
X279050Y555500D02*Y553250D01*
X279800Y552500D01*
X276800D02*X278300D01*
X279050Y553250D01*
X281600Y558500D02*Y552500D01*
Y553250D02*X282350Y552500D01*
X283850D01*
X284600Y553250D01*
Y554750D02*Y553250D01*
X283850Y555500D02*X284600Y554750D01*
X282350Y555500D02*X283850D01*
X281600Y554750D02*X282350Y555500D01*
X287150Y554750D02*Y552500D01*
Y554750D02*X287900Y555500D01*
X289400D01*
X286400D02*X287150Y554750D01*
G54D83*X291200Y557000D02*Y556850D01*
G54D82*Y554750D02*Y552500D01*
X293450Y555500D02*X295700D01*
X292700Y554750D02*X293450Y555500D01*
X292700Y554750D02*Y553250D01*
X293450Y552500D01*
X295700D01*
X299750Y555500D02*X300500Y554750D01*
X298250Y555500D02*X299750D01*
X297500Y554750D02*X298250Y555500D01*
X297500Y554750D02*Y553250D01*
X298250Y552500D01*
X300500Y555500D02*Y553250D01*
X301250Y552500D01*
X298250D02*X299750D01*
X300500Y553250D01*
X303800Y558500D02*Y553250D01*
X304550Y552500D01*
X303050Y556250D02*X304550D01*
G54D83*X306050Y557000D02*Y556850D01*
G54D82*Y554750D02*Y552500D01*
X307550Y554750D02*Y553250D01*
Y554750D02*X308300Y555500D01*
X309800D01*
X310550Y554750D01*
Y553250D01*
X309800Y552500D02*X310550Y553250D01*
X308300Y552500D02*X309800D01*
X307550Y553250D02*X308300Y552500D01*
X313100Y554750D02*Y552500D01*
Y554750D02*X313850Y555500D01*
X314600D01*
X315350Y554750D01*
Y552500D01*
X312350Y555500D02*X313100Y554750D01*
X320600Y558500D02*Y552500D01*
X322550Y558500D02*X323600Y557450D01*
Y553550D01*
X322550Y552500D02*X323600Y553550D01*
X319850Y552500D02*X322550D01*
X319850Y558500D02*X322550D01*
X326150Y554750D02*Y552500D01*
Y554750D02*X326900Y555500D01*
X328400D01*
X325400D02*X326150Y554750D01*
X332450Y555500D02*X333200Y554750D01*
X330950Y555500D02*X332450D01*
X330200Y554750D02*X330950Y555500D01*
X330200Y554750D02*Y553250D01*
X330950Y552500D01*
X333200Y555500D02*Y553250D01*
X333950Y552500D01*
X330950D02*X332450D01*
X333200Y553250D01*
X335750Y555500D02*Y553250D01*
X336500Y552500D01*
X337250D01*
X338000Y553250D01*
Y555500D02*Y553250D01*
X338750Y552500D01*
X339500D01*
X340250Y553250D01*
Y555500D02*Y553250D01*
G54D83*X342050Y557000D02*Y556850D01*
G54D82*Y554750D02*Y552500D01*
X344300Y554750D02*Y552500D01*
Y554750D02*X345050Y555500D01*
X345800D01*
X346550Y554750D01*
Y552500D01*
X343550Y555500D02*X344300Y554750D01*
X350600Y555500D02*X351350Y554750D01*
X349100Y555500D02*X350600D01*
X348350Y554750D02*X349100Y555500D01*
X348350Y554750D02*Y553250D01*
X349100Y552500D01*
X350600D01*
X351350Y553250D01*
X348350Y551000D02*X349100Y550250D01*
X350600D01*
X351350Y551000D01*
Y555500D02*Y551000D01*
M02*
