G04 start of page 2 for group 3 layer_idx 0 *
G04 Title: (unknown), top_copper *
G04 Creator: pcb-rnd 2.3.0 *
G04 CreationDate: 2021-05-03 19:20:29 UTC *
G04 For:  *
G04 Format: Gerber/RS-274X *
G04 PCB-Dimensions: 500000 500000 *
G04 PCB-Coordinate-Origin: lower left *
%MOIN*%
%FSLAX25Y25*%
%LNTOP_COPPER_NONE_3*%
%ADD24C,0.0276*%
%ADD23C,0.0295*%
%ADD22C,0.0394*%
%ADD21C,0.0430*%
%ADD20C,0.0689*%
%ADD19C,0.0787*%
%ADD18C,0.0866*%
%ADD17C,0.0001*%
%ADD16C,0.0850*%
%ADD15C,0.0500*%
%ADD14C,0.0100*%
%ADD13C,0.0400*%
%ADD12C,0.0800*%
%ADD11C,0.0200*%
G54D11*X282500Y280000D02*X281000Y281500D01*
Y287143D01*
X281157Y287300D01*
X273000Y269000D02*X281000D01*
X282500Y270500D01*
Y280000D01*
G54D12*X258000Y257500D02*Y250450D01*
X264600Y243850D01*
G54D11*X273000Y259000D02*X258500D01*
X258000Y259500D01*
X298000Y264000D02*X289500D01*
X288000Y265500D01*
G54D12*X274600Y243850D02*X264600D01*
G54D11*X273000Y264000D02*X264810D01*
X258000Y270810D01*
G54D12*Y272500D02*Y280000D01*
G54D11*X288000Y265500D02*Y287057D01*
G54D13*X253815Y313500D02*X254000D01*
X275000Y292500D01*
X276000D01*
X281000Y287500D01*
X241500Y296500D02*X258000Y280000D01*
G54D11*X288000Y287057D02*X288243Y287300D01*
G54D13*Y296558D01*
X305185Y313500D01*
G54D12*X315200Y292200D02*Y282800D01*
G54D13*X305188Y313625D02*X305249Y313564D01*
X273500Y313500D02*X285500D01*
X273500D02*X264500Y322500D01*
X247500D01*
X234850Y344500D02*X296125D01*
X305188Y335438D01*
Y313625D01*
G54D11*X228500Y334500D02*X225500Y331500D01*
G54D13*X216043Y296500D02*X233957D01*
X234000Y309000D02*X247500Y322500D01*
G54D11*X225500Y331500D02*Y304000D01*
X228500Y334500D02*X234850D01*
G54D13*X241043Y296500D02*X241500D01*
X234000D02*Y309000D01*
G54D11*X225500Y288500D02*Y281000D01*
G54D13*X208957Y296500D02*Y283000D01*
X216043Y296500D02*Y283000D01*
G54D12*X210000Y262343D02*X242157D01*
G54D13*X174600Y253850D02*X184850D01*
X188500Y257500D01*
Y276043D01*
G54D11*X298000Y269000D02*X314805D01*
G54D12*X242157Y262343D02*X245500Y259000D01*
X258000D01*
G54D11*X225500Y281000D02*X234500Y272000D01*
G54D13*X208957Y282957D02*X195457D01*
X188500Y276000D01*
G54D11*X314805Y269000D02*X315200Y269395D01*
G54D13*X326605D01*
X334500Y261500D01*
G54D12*X334600Y253850D02*Y243850D01*
X334650D01*
G54D13*X334500Y261500D02*Y253600D01*
X334600Y253500D01*
G54D12*Y253850D02*X351850D01*
X360500Y262500D01*
G54D14*X171500Y308500D02*X175500D01*
X171500Y308000D02*Y310000D01*
X172000Y310500D01*
X173000D01*
X173500Y310000D02*X173000Y310500D01*
X173500Y308500D02*Y310000D01*
X174000Y311700D02*X175000D01*
X174000D02*X173500Y312200D01*
Y313200D01*
X174000Y313700D01*
X175000D01*
X175500Y313200D02*X175000Y313700D01*
X175500Y312200D02*Y313200D01*
X175000Y311700D02*X175500Y312200D01*
X173500Y314900D02*X175000D01*
X175500Y315400D01*
Y315900D01*
X175000Y316400D01*
X173500D02*X175000D01*
X175500Y316900D01*
Y317400D01*
X175000Y317900D01*
X173500D02*X175000D01*
X175500Y319600D02*Y321100D01*
X175000Y319100D02*X175500Y319600D01*
X174000Y319100D02*X175000D01*
X174000D02*X173500Y319600D01*
Y320600D01*
X174000Y321100D01*
X174500Y319100D02*Y321100D01*
X174000D01*
Y322800D02*X175500D01*
X174000D02*X173500Y323300D01*
Y324300D01*
Y322300D02*X174000Y322800D01*
X171500Y327300D02*X175500D01*
Y329300D01*
X172500Y330500D02*X172600D01*
X174000D02*X175500D01*
X174000Y332000D02*X175500D01*
X174000D02*X173500Y332500D01*
Y333000D01*
X174000Y333500D01*
X175500D01*
X173500Y331500D02*X174000Y332000D01*
X175500Y335200D02*Y336700D01*
X175000Y334700D02*X175500Y335200D01*
X174000Y334700D02*X175000D01*
X174000D02*X173500Y335200D01*
Y336200D01*
X174000Y336700D01*
X174500Y334700D02*Y336700D01*
X174000D01*
X171500Y339700D02*X175500D01*
X171500D02*Y341700D01*
X173300Y339700D02*Y341200D01*
X172500Y342900D02*X172600D01*
X174000D02*X175500D01*
X171500Y343900D02*X175000D01*
X175500Y344400D01*
X171500Y345900D02*X175000D01*
X175500Y346400D01*
X173000Y345400D02*Y346400D01*
X175500Y347900D02*Y349400D01*
X175000Y347400D02*X175500Y347900D01*
X174000Y347400D02*X175000D01*
X174000D02*X173500Y347900D01*
Y348900D01*
X174000Y349400D01*
X174500Y347400D02*Y349400D01*
X174000D01*
Y351100D02*X175500D01*
X174000D02*X173500Y351600D01*
Y352600D01*
Y350600D02*X174000Y351100D01*
X178000Y308000D02*X182000D01*
X178000D02*Y310000D01*
X179800Y308000D02*Y309500D01*
X180500Y311200D02*X181500D01*
X180500D02*X180000Y311700D01*
Y312700D01*
X180500Y313200D01*
X181500D01*
X182000Y312700D02*X181500Y313200D01*
X182000Y311700D02*Y312700D01*
X181500Y311200D02*X182000Y311700D01*
X180500Y314900D02*X182000D01*
X180500D02*X180000Y315400D01*
Y316400D01*
Y314400D02*X180500Y314900D01*
X178000Y319900D02*X181500D01*
X182000Y320400D01*
X179500Y319400D02*Y320400D01*
X178000Y321400D02*X182000D01*
X180500D02*X180000Y321900D01*
Y322900D01*
X180500Y323400D01*
X182000D01*
Y325100D02*Y326600D01*
X181500Y324600D02*X182000Y325100D01*
X180500Y324600D02*X181500D01*
X180500D02*X180000Y325100D01*
Y326100D01*
X180500Y326600D01*
X181000Y324600D02*Y326600D01*
X180500D01*
X178000Y329600D02*X179000D01*
X178000Y330600D02*X179000D01*
X178000Y331800D02*X182000D01*
X178000D02*Y333800D01*
X179800Y331800D02*Y333300D01*
X180000Y336500D02*X180500Y337000D01*
X180000Y335500D02*Y336500D01*
X180500Y335000D02*X180000Y335500D01*
X180500Y335000D02*X181500D01*
X182000Y335500D01*
X180000Y337000D02*X181500D01*
X182000Y337500D01*
Y335500D02*Y336500D01*
X181500Y337000D01*
X180500Y339200D02*X182000D01*
X180500D02*X180000Y339700D01*
Y340200D01*
X180500Y340700D01*
X182000D01*
X180000Y338700D02*X180500Y339200D01*
X180000Y342400D02*Y343900D01*
X180500Y341900D02*X180000Y342400D01*
X180500Y341900D02*X181500D01*
X182000Y342400D01*
Y343900D01*
X180000Y345100D02*X181500D01*
X182000Y345600D01*
X180000Y347100D02*X183000D01*
X183500Y346600D02*X183000Y347100D01*
X183500Y345600D02*Y346600D01*
X183000Y345100D02*X183500Y345600D01*
X182000D02*Y346600D01*
X181500Y347100D01*
X178000Y348300D02*X179000D01*
X178000Y349300D02*X179000D01*
X182000Y352300D02*Y354300D01*
X181500Y354800D01*
X180300D02*X181500D01*
X179800Y354300D02*X180300Y354800D01*
X179800Y352800D02*Y354300D01*
X178000Y352800D02*X182000D01*
X178000Y352300D02*Y354300D01*
X178500Y354800D01*
X179300D01*
X179800Y354300D02*X179300Y354800D01*
X179000Y356000D02*X179100D01*
X180500D02*X182000D01*
X180500Y357000D02*X181500D01*
X180500D02*X180000Y357500D01*
Y358500D01*
X180500Y359000D01*
X181500D01*
X182000Y358500D02*X181500Y359000D01*
X182000Y357500D02*Y358500D01*
X181500Y357000D02*X182000Y357500D01*
X179000Y360200D02*X182000D01*
X179000D02*X178000Y360900D01*
Y362000D01*
X179000Y362700D01*
X182000D01*
X180000Y360200D02*Y362700D01*
X180500Y364400D02*X182000D01*
X180500D02*X180000Y364900D01*
Y365400D01*
X180500Y365900D01*
X182000D01*
X180500D02*X180000Y366400D01*
Y366900D01*
X180500Y367400D01*
X182000D01*
X180000Y363900D02*X180500Y364400D01*
Y369100D02*X183500D01*
X180000Y368600D02*X180500Y369100D01*
X180000Y369600D01*
Y370600D01*
X180500Y371100D01*
X181500D01*
X182000Y370600D02*X181500Y371100D01*
X182000Y369600D02*Y370600D01*
X181500Y369100D02*X182000Y369600D01*
X192000Y308000D02*X191500Y308500D01*
Y310000D01*
X192000Y310500D01*
X193000D01*
X195500Y308000D02*X193000Y310500D01*
X195500Y308000D02*Y310500D01*
X195000Y311700D02*X195500Y312200D01*
X192000Y311700D02*X195000D01*
X192000D02*X191500Y312200D01*
Y313200D01*
X192000Y313700D01*
X195000D01*
X195500Y313200D02*X195000Y313700D01*
X195500Y312200D02*Y313200D01*
X194500Y311700D02*X192500Y313700D01*
X192000Y314900D02*X191500Y315400D01*
Y316900D01*
X192000Y317400D01*
X193000D01*
X195500Y314900D02*X193000Y317400D01*
X195500Y314900D02*Y317400D01*
X192300Y318600D02*X191500Y319400D01*
X195500D01*
Y318600D02*Y320100D01*
Y321300D02*Y321800D01*
X195000Y323000D02*X195500Y323500D01*
X192000Y323000D02*X195000D01*
X192000D02*X191500Y323500D01*
Y324500D01*
X192000Y325000D01*
X195000D01*
X195500Y324500D02*X195000Y325000D01*
X195500Y323500D02*Y324500D01*
X194500Y323000D02*X192500Y325000D01*
X194000Y326200D02*X191500Y328200D01*
X194000Y326200D02*Y328700D01*
X191500Y328200D02*X195500D01*
Y329900D02*Y330400D01*
X192000Y331600D02*X191500Y332100D01*
Y333600D01*
X192000Y334100D01*
X193000D01*
X195500Y331600D02*X193000Y334100D01*
X195500Y331600D02*Y334100D01*
X195000Y335300D02*X195500Y335800D01*
X194200Y335300D02*X195000D01*
X194200D02*X193500Y336000D01*
Y336600D01*
X194200Y337300D01*
X195000D01*
X195500Y336800D02*X195000Y337300D01*
X195500Y335800D02*Y336800D01*
X192800Y335300D02*X193500Y336000D01*
X192000Y335300D02*X192800D01*
X192000D02*X191500Y335800D01*
Y336800D01*
X192000Y337300D01*
X192800D01*
X193500Y336600D02*X192800Y337300D01*
X188500Y308000D02*Y310000D01*
X188000Y310500D01*
X186800D02*X188000D01*
X186300Y310000D02*X186800Y310500D01*
X186300Y308500D02*Y310000D01*
X184500Y308500D02*X188500D01*
X184500Y308000D02*Y310000D01*
X185000Y310500D01*
X185800D01*
X186300Y310000D02*X185800Y310500D01*
X186500Y311700D02*X188000D01*
X188500Y312200D01*
X186500Y313700D02*X189500D01*
X190000Y313200D02*X189500Y313700D01*
X190000Y312200D02*Y313200D01*
X189500Y311700D02*X190000Y312200D01*
X188500D02*Y313200D01*
X188000Y313700D01*
X186300Y316700D02*Y318200D01*
X188500Y316700D02*Y318700D01*
X184500Y316700D02*X188500D01*
X184500D02*Y318700D01*
X186500Y319900D02*X188500Y320900D01*
X186500Y321900D02*X188500Y320900D01*
X186500Y324600D02*X187000Y325100D01*
X186500Y323600D02*Y324600D01*
X187000Y323100D02*X186500Y323600D01*
X187000Y323100D02*X188000D01*
X188500Y323600D01*
X186500Y325100D02*X188000D01*
X188500Y325600D01*
Y323600D02*Y324600D01*
X188000Y325100D01*
X187000Y327300D02*X188500D01*
X187000D02*X186500Y327800D01*
Y328300D01*
X187000Y328800D01*
X188500D01*
X186500Y326800D02*X187000Y327300D01*
X184500Y331800D02*X188500D01*
X184500D02*Y333800D01*
X186300Y331800D02*Y333300D01*
X187000Y335000D02*X188000D01*
X187000D02*X186500Y335500D01*
Y336500D01*
X187000Y337000D01*
X188000D01*
X188500Y336500D02*X188000Y337000D01*
X188500Y335500D02*Y336500D01*
X188000Y335000D02*X188500Y335500D01*
Y338700D02*Y340200D01*
X188000Y340700D01*
X187500Y340200D02*X188000Y340700D01*
X187500Y338700D02*Y340200D01*
X187000Y338200D02*X187500Y338700D01*
X187000Y338200D02*X186500Y338700D01*
Y340200D01*
X187000Y340700D01*
X188000Y338200D02*X188500Y338700D01*
Y342400D02*Y343900D01*
X188000Y344400D01*
X187500Y343900D02*X188000Y344400D01*
X187500Y342400D02*Y343900D01*
X187000Y341900D02*X187500Y342400D01*
X187000Y341900D02*X186500Y342400D01*
Y343900D01*
X187000Y344400D01*
X188000Y341900D02*X188500Y342400D01*
G54D15*X225500Y304000D03*
G54D16*X234850Y324500D03*
Y334500D03*
G54D17*G36*
X239000Y340350D02*Y348650D01*
X230700D01*
Y340350D01*
X239000D01*
G37*
G54D15*X225500Y288500D03*
X234500Y272000D03*
G54D17*G36*
X236516Y299452D02*X231398D01*
Y293548D01*
X236516D01*
Y299452D01*
G37*
G54D16*X234850Y364500D03*
G54D17*G36*
X230600Y247850D02*X238600D01*
Y239850D01*
X230600D01*
Y247850D01*
G37*
G54D12*X244600Y243850D03*
G54D18*X258000Y280000D03*
G54D17*G36*
X254260Y273369D02*Y268251D01*
X261740D01*
Y273369D01*
X254260D01*
G37*
G36*
X271000Y275000D02*X279500D01*
Y273000D01*
X271000D01*
Y275000D01*
G37*
G36*
X254260Y261559D02*Y256441D01*
X261740D01*
Y261559D01*
X254260D01*
G37*
G36*
X271000Y270000D02*X279500D01*
Y268000D01*
X271000D01*
Y270000D01*
G37*
G36*
Y265000D02*X279500D01*
Y263000D01*
X271000D01*
Y265000D01*
G37*
G36*
Y260000D02*X279500D01*
Y258000D01*
X271000D01*
Y260000D01*
G37*
G36*
X260600Y247850D02*X268600D01*
Y239850D01*
X260600D01*
Y247850D01*
G37*
G54D12*X274600Y243850D03*
G54D18*X315200Y292200D03*
G54D17*G36*
X283716Y290252D02*X278598D01*
Y284348D01*
X283716D01*
Y290252D01*
G37*
G36*
X290802D02*X285684D01*
Y284348D01*
X290802D01*
Y290252D01*
G37*
G36*
X311460Y283764D02*Y278646D01*
X318940D01*
Y283764D01*
X311460D01*
G37*
G36*
X300000Y273000D02*X291500D01*
Y275000D01*
X300000D01*
Y273000D01*
G37*
G54D19*X305185Y313500D03*
G54D17*G36*
X281563Y317437D02*Y309563D01*
X289437D01*
Y317437D01*
X281563D01*
G37*
G54D19*X273500Y313500D03*
G54D17*G36*
X249878Y317437D02*Y309563D01*
X257752D01*
Y317437D01*
X249878D01*
G37*
G36*
X300000Y268000D02*X291500D01*
Y270000D01*
X300000D01*
Y268000D01*
G37*
G36*
X311460Y271954D02*Y266836D01*
X318940D01*
Y271954D01*
X311460D01*
G37*
G36*
X300000Y263000D02*X291500D01*
Y265000D01*
X300000D01*
Y263000D01*
G37*
G36*
Y258000D02*X291500D01*
Y260000D01*
X300000D01*
Y258000D01*
G37*
G36*
X330600Y239850D02*Y247850D01*
X338600D01*
Y239850D01*
X330600D01*
G37*
G54D12*X334600Y253850D03*
G54D17*G36*
X206555Y249055D02*Y255945D01*
X213445D01*
Y249055D01*
X206555D01*
G37*
G36*
X170600Y249850D02*Y257850D01*
X178600D01*
Y249850D01*
X170600D01*
G37*
G54D12*X174600Y263850D03*
G54D20*X210000Y262343D03*
G54D17*G36*
X357055Y259055D02*Y265945D01*
X363945D01*
Y259055D01*
X357055D01*
G37*
G54D20*X360500Y272343D03*
G54D17*G36*
X211516Y299452D02*X206398D01*
Y293548D01*
X211516D01*
Y299452D01*
G37*
G36*
Y285952D02*X206398D01*
Y280048D01*
X211516D01*
Y285952D01*
G37*
G36*
X218602D02*X213484D01*
Y280048D01*
X218602D01*
Y285952D01*
G37*
G36*
Y299452D02*X213484D01*
Y293548D01*
X218602D01*
Y299452D01*
G37*
G36*
X243602D02*X238484D01*
Y293548D01*
X243602D01*
Y299452D01*
G37*
G54D11*G54D21*G54D11*G54D21*G54D22*G54D23*G54D22*G54D24*G54D22*G54D24*M02*
