M48
INCH
T15C0.028
T14C0.030
T13C0.039
T12C0.043
T11C0.020
%
T11
G05
X022550Y030400
X022550Y028850
X023450Y027200
T15
X021000Y025250
X021000Y026234
X036050Y026250
X036050Y027234
T14
X030519Y031350
X028550Y031350
X027350Y031350
X025381Y031350
T13
X023460Y024385
X024460Y024385
X025800Y028000
X026460Y024385
X027460Y024385
X031520Y029220
X033460Y024385
X033460Y025385
X017460Y025385
X017460Y026385
T12
X023485Y032450
X023485Y033450
X023485Y034450
X023485Y036450
M30
