G04 start of page 2 for group 17 layer_idx 16 *
G04 Title: (unknown), bot_assy *
G04 Creator: pcb-rnd 2.3.0 *
G04 CreationDate: 2021-05-03 19:20:31 UTC *
G04 For:  *
G04 Format: Gerber/RS-274X *
G04 PCB-Dimensions: 500000 500000 *
G04 PCB-Coordinate-Origin: lower left *
%MOIN*%
%FSLAX25Y25*%
%LNBOTTOM_DOC_ASSY_17*%
%ADD80C,0.0100*%
G54D80*X158600Y226350D02*X198600D01*
X169600Y268850D02*X179600D01*
Y248850D01*
X169600D01*
Y268850D01*
X198600Y226350D02*Y186350D01*
X158600D01*
Y226350D01*
X159232Y158515D02*X100177D01*
Y85681D02*X159232D01*
Y158515D01*
X95850Y324600D02*X154450D01*
Y382100D02*X95850D01*
X193100Y379800D02*Y377800D01*
X217100Y377700D02*Y379700D01*
X193100D01*
X195100Y377800D02*Y344500D01*
X215100D01*
Y377800D01*
X203100Y344500D02*X202850Y344250D01*
X195300Y401800D02*Y379800D01*
Y401800D02*X214900D01*
Y379800D01*
X130695Y264427D02*X133350Y284000D01*
X193100Y377700D02*X217100D01*
X202850Y344250D02*Y324500D01*
X207350Y344500D02*Y324500D01*
X150505Y264427D02*X147850Y284000D01*
X154450Y324600D02*Y382100D01*
X102695Y264427D02*X105350Y284000D01*
X95850Y382100D02*Y324600D01*
X100177Y158515D02*Y85681D01*
X122505Y264427D02*X119850Y284000D01*
X239600Y298850D02*Y288850D01*
X259350D01*
X259600Y289100D01*
Y288850D02*Y298850D01*
X239600D01*
X329600Y288850D02*Y278850D01*
X259600Y289100D02*Y288850D01*
X252600Y379800D02*Y377800D01*
X254800Y401800D02*Y379800D01*
Y401800D02*X274400D01*
Y379800D01*
X254600Y377800D02*Y344500D01*
X274600D01*
Y377800D01*
X262600Y344500D02*X262350Y344250D01*
Y324500D01*
X266850Y344500D02*Y324500D01*
X252600Y377800D02*X276600D01*
Y379800D01*
X252600D01*
X349600Y288850D02*X329600D01*
Y278850D02*X349600D01*
Y288850D01*
X317850Y322600D02*X376350D01*
X259600Y248850D02*X279600D01*
X259600Y238850D02*Y248850D01*
X229600D02*X249600D01*
Y238850D01*
X229600D01*
Y248850D01*
X329600Y238850D02*X339600D01*
X279600Y248850D02*Y238850D01*
X259600D01*
X339600D02*Y258850D01*
X376350Y322600D02*Y382100D01*
X317850D01*
X339600Y258850D02*X329600D01*
X302773Y221023D02*Y192677D01*
X274427D01*
Y221023D01*
X302773D01*
X302773Y221022D01*
X329600Y258850D02*Y238850D01*
X317850Y382100D02*Y322600D01*
X130695Y264427D02*G75*G03X150495Y264427I9900J0D01*G01*
G75*G03X130695Y264501I-9900J0D01*G01*
X133350Y284000D02*G75*G03X147750Y284000I7200J0D01*G01*
G75*G03X133350Y284000I-7200J0D01*G01*
X102695Y264427D02*G75*G03X122495Y264427I9900J0D01*G01*
G75*G03X102695Y264501I-9900J0D01*G01*
X105350Y284000D02*G75*G03X119750Y284000I7200J0D01*G01*
G75*G03X105350Y284000I-7200J0D01*G01*
X207350Y324500D02*G75*G02X202850Y324500I-2250J0D01*G01*
X266850D02*G75*G02X262350Y324500I-2250J0D01*G01*
M02*
