G04 start of page 2 for group 3 layer_idx 0 *
G04 Title: (unknown), top_copper *
G04 Creator: pcb-rnd 2.3.0 *
G04 CreationDate: 2021-04-05 19:42:04 UTC *
G04 For:  *
G04 Format: Gerber/RS-274X *
G04 PCB-Dimensions: 500000 500000 *
G04 PCB-Coordinate-Origin: lower left *
%MOIN*%
%FSLAX25Y25*%
%LNTOP_COPPER_NONE_3*%
%ADD24C,0.0430*%
%ADD23C,0.0295*%
%ADD22C,0.0276*%
%ADD21C,0.0394*%
%ADD20C,0.0850*%
%ADD19C,0.0787*%
%ADD18C,0.0866*%
%ADD17C,0.0689*%
%ADD16C,0.0001*%
%ADD15C,0.0500*%
%ADD14C,0.0100*%
%ADD13C,0.0400*%
%ADD12C,0.0800*%
%ADD11C,0.0200*%
G54D11*X282500Y280000D02*X281000Y281500D01*
Y287143D01*
X281157Y287300D01*
G54D12*X315200Y292200D02*Y282800D01*
G54D11*X273000Y269000D02*X281000D01*
X282500Y270500D01*
Y280000D01*
G54D12*X258000Y257500D02*Y250450D01*
X264600Y243850D01*
G54D11*X273000Y259000D02*X258500D01*
X258000Y259500D01*
X298000Y264000D02*X289500D01*
X288000Y265500D01*
G54D12*X274600Y243850D02*X264600D01*
G54D11*X273000Y264000D02*X264810D01*
X258000Y270810D01*
G54D12*Y272500D02*Y280000D01*
G54D11*X234450Y244000D02*X234600Y243850D01*
X225500Y281000D02*X234500Y272000D01*
X288000Y265500D02*Y287057D01*
G54D13*X253815Y313500D02*X254000D01*
X241500Y296500D02*X258000Y280000D01*
G54D11*X225500Y288500D02*Y281000D01*
G54D13*X188500Y276043D02*X208957Y296500D01*
X254000Y313500D02*X275000Y292500D01*
X276000D01*
X281000Y287500D01*
G54D11*X288000Y287057D02*X288243Y287300D01*
G54D13*Y296558D01*
X305185Y313500D01*
X234850Y346850D02*X271835D01*
G54D11*X234850Y336850D02*X227850D01*
X225500Y334500D01*
G54D13*X271835Y346850D02*X305185Y313500D01*
X273500D02*X285500D01*
X273500D02*X264500Y322500D01*
X247500D01*
G54D11*X225500Y334500D02*Y304000D01*
G54D13*X216043Y296500D02*X233957D01*
X241043D02*X241500D01*
X234000D02*Y309000D01*
X247500Y322500D01*
G54D12*X210000Y262343D02*X242157D01*
G54D13*X174600Y253850D02*X184850D01*
X188500Y257500D01*
Y276043D01*
G54D11*X298000Y269000D02*X314805D01*
G54D12*X242157Y262343D02*X245500Y259000D01*
X258000D01*
G54D11*X314805Y269000D02*X315200Y269395D01*
G54D12*X334600Y253850D02*Y243850D01*
G54D13*X315200Y269395D02*X326605D01*
X334500Y261500D01*
Y253600D01*
X334600Y253500D01*
G54D12*Y243850D02*X334650D01*
X341000Y237500D01*
X362500D01*
G54D14*X171000Y305500D02*X175000D01*
X171000Y305000D02*Y307000D01*
X171500Y307500D01*
X172500D01*
X173000Y307000D02*X172500Y307500D01*
X173000Y305500D02*Y307000D01*
X173500Y308700D02*X174500D01*
X173500D02*X173000Y309200D01*
Y310200D01*
X173500Y310700D01*
X174500D01*
X175000Y310200D02*X174500Y310700D01*
X175000Y309200D02*Y310200D01*
X174500Y308700D02*X175000Y309200D01*
X173000Y311900D02*X174500D01*
X175000Y312400D01*
Y312900D01*
X174500Y313400D01*
X173000D02*X174500D01*
X175000Y313900D01*
Y314400D01*
X174500Y314900D01*
X173000D02*X174500D01*
X175000Y316600D02*Y318100D01*
X174500Y316100D02*X175000Y316600D01*
X173500Y316100D02*X174500D01*
X173500D02*X173000Y316600D01*
Y317600D01*
X173500Y318100D01*
X174000Y316100D02*Y318100D01*
X173500D01*
Y319800D02*X175000D01*
X173500D02*X173000Y320300D01*
Y321300D01*
Y319300D02*X173500Y319800D01*
X171000Y324300D02*X175000D01*
Y326300D01*
X172000Y327500D02*X172100D01*
X173500D02*X175000D01*
X173500Y329000D02*X175000D01*
X173500D02*X173000Y329500D01*
Y330000D01*
X173500Y330500D01*
X175000D01*
X173000Y328500D02*X173500Y329000D01*
X175000Y332200D02*Y333700D01*
X174500Y331700D02*X175000Y332200D01*
X173500Y331700D02*X174500D01*
X173500D02*X173000Y332200D01*
Y333200D01*
X173500Y333700D01*
X174000Y331700D02*Y333700D01*
X173500D01*
X171000Y336700D02*X175000D01*
X171000D02*Y338700D01*
X172800Y336700D02*Y338200D01*
X172000Y339900D02*X172100D01*
X173500D02*X175000D01*
X171000Y340900D02*X174500D01*
X175000Y341400D01*
X171000Y342900D02*X174500D01*
X175000Y343400D01*
X172500Y342400D02*Y343400D01*
X175000Y344900D02*Y346400D01*
X174500Y344400D02*X175000Y344900D01*
X173500Y344400D02*X174500D01*
X173500D02*X173000Y344900D01*
Y345900D01*
X173500Y346400D01*
X174000Y344400D02*Y346400D01*
X173500D01*
Y348100D02*X175000D01*
X173500D02*X173000Y348600D01*
Y349600D01*
Y347600D02*X173500Y348100D01*
X177500Y305000D02*X181500D01*
X177500D02*Y307000D01*
X179300Y305000D02*Y306500D01*
X180000Y308200D02*X181000D01*
X180000D02*X179500Y308700D01*
Y309700D01*
X180000Y310200D01*
X181000D01*
X181500Y309700D02*X181000Y310200D01*
X181500Y308700D02*Y309700D01*
X181000Y308200D02*X181500Y308700D01*
X180000Y311900D02*X181500D01*
X180000D02*X179500Y312400D01*
Y313400D01*
Y311400D02*X180000Y311900D01*
X177500Y316900D02*X181000D01*
X181500Y317400D01*
X179000Y316400D02*Y317400D01*
X177500Y318400D02*X181500D01*
X180000D02*X179500Y318900D01*
Y319900D01*
X180000Y320400D01*
X181500D01*
Y322100D02*Y323600D01*
X181000Y321600D02*X181500Y322100D01*
X180000Y321600D02*X181000D01*
X180000D02*X179500Y322100D01*
Y323100D01*
X180000Y323600D01*
X180500Y321600D02*Y323600D01*
X180000D01*
X177500Y326600D02*X178500D01*
X177500Y327600D02*X178500D01*
X177500Y328800D02*X181500D01*
X177500D02*Y330800D01*
X179300Y328800D02*Y330300D01*
X179500Y333500D02*X180000Y334000D01*
X179500Y332500D02*Y333500D01*
X180000Y332000D02*X179500Y332500D01*
X180000Y332000D02*X181000D01*
X181500Y332500D01*
X179500Y334000D02*X181000D01*
X181500Y334500D01*
Y332500D02*Y333500D01*
X181000Y334000D01*
X180000Y336200D02*X181500D01*
X180000D02*X179500Y336700D01*
Y337200D01*
X180000Y337700D01*
X181500D01*
X179500Y335700D02*X180000Y336200D01*
X179500Y339400D02*Y340900D01*
X180000Y338900D02*X179500Y339400D01*
X180000Y338900D02*X181000D01*
X181500Y339400D01*
Y340900D01*
X179500Y342100D02*X181000D01*
X181500Y342600D01*
X179500Y344100D02*X182500D01*
X183000Y343600D02*X182500Y344100D01*
X183000Y342600D02*Y343600D01*
X182500Y342100D02*X183000Y342600D01*
X181500D02*Y343600D01*
X181000Y344100D01*
X177500Y345300D02*X178500D01*
X177500Y346300D02*X178500D01*
X181500Y349300D02*Y351300D01*
X181000Y351800D01*
X179800D02*X181000D01*
X179300Y351300D02*X179800Y351800D01*
X179300Y349800D02*Y351300D01*
X177500Y349800D02*X181500D01*
X177500Y349300D02*Y351300D01*
X178000Y351800D01*
X178800D01*
X179300Y351300D02*X178800Y351800D01*
X178500Y353000D02*X178600D01*
X180000D02*X181500D01*
X180000Y354000D02*X181000D01*
X180000D02*X179500Y354500D01*
Y355500D01*
X180000Y356000D01*
X181000D01*
X181500Y355500D02*X181000Y356000D01*
X181500Y354500D02*Y355500D01*
X181000Y354000D02*X181500Y354500D01*
X178500Y357200D02*X181500D01*
X178500D02*X177500Y357900D01*
Y359000D01*
X178500Y359700D01*
X181500D01*
X179500Y357200D02*Y359700D01*
X180000Y361400D02*X181500D01*
X180000D02*X179500Y361900D01*
Y362400D01*
X180000Y362900D01*
X181500D01*
X180000D02*X179500Y363400D01*
Y363900D01*
X180000Y364400D01*
X181500D01*
X179500Y360900D02*X180000Y361400D01*
Y366100D02*X183000D01*
X179500Y365600D02*X180000Y366100D01*
X179500Y366600D01*
Y367600D01*
X180000Y368100D01*
X181000D01*
X181500Y367600D02*X181000Y368100D01*
X181500Y366600D02*Y367600D01*
X181000Y366100D02*X181500Y366600D01*
X191500Y305000D02*X191000Y305500D01*
Y307000D01*
X191500Y307500D01*
X192500D01*
X195000Y305000D02*X192500Y307500D01*
X195000Y305000D02*Y307500D01*
X194500Y308700D02*X195000Y309200D01*
X191500Y308700D02*X194500D01*
X191500D02*X191000Y309200D01*
Y310200D01*
X191500Y310700D01*
X194500D01*
X195000Y310200D02*X194500Y310700D01*
X195000Y309200D02*Y310200D01*
X194000Y308700D02*X192000Y310700D01*
X191500Y311900D02*X191000Y312400D01*
Y313900D01*
X191500Y314400D01*
X192500D01*
X195000Y311900D02*X192500Y314400D01*
X195000Y311900D02*Y314400D01*
X191800Y315600D02*X191000Y316400D01*
X195000D01*
Y315600D02*Y317100D01*
Y318300D02*Y318800D01*
X194500Y320000D02*X195000Y320500D01*
X191500Y320000D02*X194500D01*
X191500D02*X191000Y320500D01*
Y321500D01*
X191500Y322000D01*
X194500D01*
X195000Y321500D02*X194500Y322000D01*
X195000Y320500D02*Y321500D01*
X194000Y320000D02*X192000Y322000D01*
X193500Y323200D02*X191000Y325200D01*
X193500Y323200D02*Y325700D01*
X191000Y325200D02*X195000D01*
Y326900D02*Y327400D01*
X194500Y328600D02*X195000Y329100D01*
X191500Y328600D02*X194500D01*
X191500D02*X191000Y329100D01*
Y330100D01*
X191500Y330600D01*
X194500D01*
X195000Y330100D02*X194500Y330600D01*
X195000Y329100D02*Y330100D01*
X194000Y328600D02*X192000Y330600D01*
X191000Y331800D02*Y333800D01*
Y331800D02*X193000D01*
X192500Y332300D01*
Y333300D01*
X193000Y333800D01*
X194500D01*
X195000Y333300D02*X194500Y333800D01*
X195000Y332300D02*Y333300D01*
X194500Y331800D02*X195000Y332300D01*
X188000Y305000D02*Y307000D01*
X187500Y307500D01*
X186300D02*X187500D01*
X185800Y307000D02*X186300Y307500D01*
X185800Y305500D02*Y307000D01*
X184000Y305500D02*X188000D01*
X184000Y305000D02*Y307000D01*
X184500Y307500D01*
X185300D01*
X185800Y307000D02*X185300Y307500D01*
X186000Y308700D02*X187500D01*
X188000Y309200D01*
X186000Y310700D02*X189000D01*
X189500Y310200D02*X189000Y310700D01*
X189500Y309200D02*Y310200D01*
X189000Y308700D02*X189500Y309200D01*
X188000D02*Y310200D01*
X187500Y310700D01*
X185800Y313700D02*Y315200D01*
X188000Y313700D02*Y315700D01*
X184000Y313700D02*X188000D01*
X184000D02*Y315700D01*
X186000Y316900D02*X188000Y317900D01*
X186000Y318900D02*X188000Y317900D01*
X186000Y321600D02*X186500Y322100D01*
X186000Y320600D02*Y321600D01*
X186500Y320100D02*X186000Y320600D01*
X186500Y320100D02*X187500D01*
X188000Y320600D01*
X186000Y322100D02*X187500D01*
X188000Y322600D01*
Y320600D02*Y321600D01*
X187500Y322100D01*
X186500Y324300D02*X188000D01*
X186500D02*X186000Y324800D01*
Y325300D01*
X186500Y325800D01*
X188000D01*
X186000Y323800D02*X186500Y324300D01*
X184000Y328800D02*X188000D01*
X184000D02*Y330800D01*
X185800Y328800D02*Y330300D01*
X186500Y332000D02*X187500D01*
X186500D02*X186000Y332500D01*
Y333500D01*
X186500Y334000D01*
X187500D01*
X188000Y333500D02*X187500Y334000D01*
X188000Y332500D02*Y333500D01*
X187500Y332000D02*X188000Y332500D01*
Y335700D02*Y337200D01*
X187500Y337700D01*
X187000Y337200D02*X187500Y337700D01*
X187000Y335700D02*Y337200D01*
X186500Y335200D02*X187000Y335700D01*
X186500Y335200D02*X186000Y335700D01*
Y337200D01*
X186500Y337700D01*
X187500Y335200D02*X188000Y335700D01*
Y339400D02*Y340900D01*
X187500Y341400D01*
X187000Y340900D02*X187500Y341400D01*
X187000Y339400D02*Y340900D01*
X186500Y338900D02*X187000Y339400D01*
X186500Y338900D02*X186000Y339400D01*
Y340900D01*
X186500Y341400D01*
X187500Y338900D02*X188000Y339400D01*
G54D15*X225500Y288500D03*
G54D16*G36*
X170600Y249850D02*Y257850D01*
X178600D01*
Y249850D01*
X170600D01*
G37*
G54D12*X174600Y263850D03*
G54D15*X225500Y304000D03*
G54D16*G36*
X211516Y299452D02*X206398D01*
Y293548D01*
X211516D01*
Y299452D01*
G37*
G36*
X218602D02*X213484D01*
Y293548D01*
X218602D01*
Y299452D01*
G37*
G36*
X236516D02*X231398D01*
Y293548D01*
X236516D01*
Y299452D01*
G37*
G54D15*X234500Y272000D03*
G54D16*G36*
X206555Y249055D02*Y255945D01*
X213445D01*
Y249055D01*
X206555D01*
G37*
G54D17*X210000Y262343D03*
G54D16*G36*
X243602Y299452D02*X238484D01*
Y293548D01*
X243602D01*
Y299452D01*
G37*
G54D18*X258000Y280000D03*
G54D16*G36*
X283716Y290252D02*X278598D01*
Y284348D01*
X283716D01*
Y290252D01*
G37*
G36*
X271000Y275000D02*X279500D01*
Y273000D01*
X271000D01*
Y275000D01*
G37*
G54D18*X315200Y292200D03*
G54D16*G36*
X290802Y290252D02*X285684D01*
Y284348D01*
X290802D01*
Y290252D01*
G37*
G36*
X300000Y273000D02*X291500D01*
Y275000D01*
X300000D01*
Y273000D01*
G37*
G36*
Y268000D02*X291500D01*
Y270000D01*
X300000D01*
Y268000D01*
G37*
G36*
X311460Y283764D02*Y278646D01*
X318940D01*
Y283764D01*
X311460D01*
G37*
G36*
X300000Y263000D02*X291500D01*
Y265000D01*
X300000D01*
Y263000D01*
G37*
G36*
X311460Y271954D02*Y266836D01*
X318940D01*
Y271954D01*
X311460D01*
G37*
G54D19*X305185Y313500D03*
G54D16*G36*
X281563Y317437D02*Y309563D01*
X289437D01*
Y317437D01*
X281563D01*
G37*
G54D19*X273500Y313500D03*
G54D16*G36*
X249878Y317437D02*Y309563D01*
X257752D01*
Y317437D01*
X249878D01*
G37*
G36*
X230600Y247850D02*X238600D01*
Y239850D01*
X230600D01*
Y247850D01*
G37*
G54D20*X234850Y326850D03*
Y336850D03*
G54D16*G36*
X239000Y342700D02*Y351000D01*
X230700D01*
Y342700D01*
X239000D01*
G37*
G54D20*X234850Y366850D03*
G54D12*X244600Y243850D03*
G54D16*G36*
X260600Y247850D02*X268600D01*
Y239850D01*
X260600D01*
Y247850D01*
G37*
G36*
X254260Y261559D02*Y256441D01*
X261740D01*
Y261559D01*
X254260D01*
G37*
G36*
Y273369D02*Y268251D01*
X261740D01*
Y273369D01*
X254260D01*
G37*
G36*
X271000Y270000D02*X279500D01*
Y268000D01*
X271000D01*
Y270000D01*
G37*
G36*
Y265000D02*X279500D01*
Y263000D01*
X271000D01*
Y265000D01*
G37*
G36*
Y260000D02*X279500D01*
Y258000D01*
X271000D01*
Y260000D01*
G37*
G54D12*X274600Y243850D03*
G54D16*G36*
X330600Y239850D02*Y247850D01*
X338600D01*
Y239850D01*
X330600D01*
G37*
G54D12*X334600Y253850D03*
G54D16*G36*
X300000Y258000D02*X291500D01*
Y260000D01*
X300000D01*
Y258000D01*
G37*
G36*
X359055Y234055D02*Y240945D01*
X365945D01*
Y234055D01*
X359055D01*
G37*
G54D17*X362500Y247343D03*
G54D11*G54D21*G54D11*G54D22*G54D21*G54D23*G54D21*G54D24*G54D21*G54D22*M02*
