G04 start of page 2 for group 1 layer_idx 8 *
G04 Title: (unknown), top_silk *
G04 Creator: pcb-rnd 2.3.0 *
G04 CreationDate: 2021-05-03 19:20:30 UTC *
G04 For:  *
G04 Format: Gerber/RS-274X *
G04 PCB-Dimensions: 500000 500000 *
G04 PCB-Coordinate-Origin: lower left *
%MOIN*%
%FSLAX25Y25*%
%LNTOP_SILK_NONE_1*%
%ADD67C,0.0070*%
%ADD66C,0.0250*%
%ADD65C,0.0394*%
%ADD64C,0.0217*%
%ADD63C,0.0100*%
%ADD62C,0.0080*%
%ADD61C,0.0001*%
G54D61*G36*
X197500Y307500D02*Y345000D01*
X209500D01*
Y307500D01*
X197500D01*
G37*
G54D62*X254260Y262543D02*Y267267D01*
X261740Y262543D02*Y267267D01*
G54D63*X269500Y276500D02*Y256500D01*
G54D62*X284307Y290055D02*X285093D01*
X284307Y284545D02*X285093D01*
G54D63*X301500Y256500D02*X269500D01*
X301500D02*Y276500D01*
X269500D02*X283000D01*
X288000D02*X301500D01*
X281169Y327673D02*X309516D01*
X281169Y299327D02*Y327673D01*
G54D64*X291406Y313500D02*X293374D01*
X297311Y316650D02*Y310350D01*
X293374Y316650D02*Y310350D01*
G54D62*X311460Y272938D02*Y277662D01*
G54D63*X309516Y327673D02*Y299327D01*
X281169D01*
G54D64*X297311Y313500D02*X299280D01*
G54D63*X249484Y327673D02*X277831D01*
Y299327D01*
X249484D01*
Y327673D01*
G54D64*X259720Y313500D02*X261689D01*
X265626D02*X267594D01*
X265626Y316650D02*Y310350D01*
X261689Y316650D02*Y310350D01*
G54D62*X318940Y272938D02*Y277662D01*
G54D63*X360500Y281823D02*Y285823D01*
G54D65*X354594Y264321D02*Y258820D01*
X352626Y264321D02*Y260577D01*
X350657Y264321D02*Y263961D01*
G54D63*X360500Y249020D02*Y253020D01*
X358500Y251020D02*X362500D01*
G54D65*X366406Y264321D02*Y258820D01*
X368374Y264321D02*Y260577D01*
X370343Y264321D02*Y263961D01*
G54D63*X210000Y271823D02*Y275823D01*
G54D62*X212107Y299255D02*X212893D01*
X212107Y293745D02*X212893D01*
X212107Y285755D02*X212893D01*
X212107Y280245D02*X212893D01*
X237107Y299255D02*X237893D01*
X237107Y293745D02*X237893D01*
G54D66*X234850Y344500D02*Y324500D01*
G54D63*X224850Y344500D02*X244850D01*
Y377800D02*Y344500D01*
X225050Y401800D02*X244650D01*
X225050D02*Y379800D01*
Y401800D02*X244650Y397900D01*
Y400900D02*X239850Y401800D01*
X225050Y380800D02*X229850Y379800D01*
X225050Y389800D02*X244650Y385900D01*
X225050Y386800D02*X244650Y382900D01*
X225050Y383800D02*X244650Y379900D01*
X222850Y379800D02*Y377800D01*
X225050Y398800D02*X244650Y394900D01*
X225050Y395800D02*X244650Y391900D01*
X225050Y392800D02*X244650Y388900D01*
X222850Y379800D02*X246850D01*
X244650Y401800D02*Y379800D01*
X246850D02*Y377800D01*
X222850D02*X246850D01*
X229850Y418200D02*Y401800D01*
X239850D02*Y418101D01*
X239849Y418102D01*
X224850Y377800D02*Y344500D01*
G54D65*X215906Y254321D02*Y248820D01*
X204094Y254321D02*Y248820D01*
X202126Y254321D02*Y250577D01*
G54D63*X210000Y239020D02*Y243020D01*
X208000Y241020D02*X212000D01*
G54D65*X217874Y254321D02*Y250577D01*
X219843Y254321D02*Y253961D01*
X200157Y254321D02*Y253961D01*
G54D63*X283000Y276500D02*G75*G03X288000Y276500I2500J0D01*G01*
X210000Y245020D02*G75*G03X210000Y269823I0J12402D01*G01*
G75*G03X210000Y245020I0J-12402D01*G01*
X360500Y255020D02*G75*G03X360500Y279823I0J12402D01*G01*
G75*G03X360500Y255020I0J-12402D01*G01*
X239849Y418102D02*G75*G03X229851Y418298I-4999J98D01*G01*
X229851Y418298D02*G75*G03X229850Y418200I4999J-98D01*G01*
G54D67*X252850Y260455D02*Y261755D01*
X252150Y259755D02*X252850Y260455D01*
X249550Y259755D02*X252150D01*
X249550D02*X248850Y260455D01*
Y261755D01*
X249650Y262955D02*X248850Y263755D01*
X252850D01*
Y262955D02*Y264455D01*
X248850Y265655D02*Y267655D01*
Y265655D02*X250850D01*
X250350Y266155D01*
Y267155D01*
X250850Y267655D01*
X252350D01*
X252850Y267155D02*X252350Y267655D01*
X252850Y266155D02*Y267155D01*
X252350Y265655D02*X252850Y266155D01*
X249650Y268855D02*X248850Y269655D01*
X252850D01*
Y268855D02*Y270355D01*
X196000Y252153D02*Y253453D01*
X195300Y251453D02*X196000Y252153D01*
X192700Y251453D02*X195300D01*
X192700D02*X192000Y252153D01*
Y253453D01*
X192800Y254653D02*X192000Y255453D01*
X196000D01*
Y254653D02*Y256153D01*
X192000Y257353D02*Y259353D01*
Y257353D02*X194000D01*
X193500Y257853D01*
Y258853D01*
X194000Y259353D01*
X195500D01*
X196000Y258853D02*X195500Y259353D01*
X196000Y257853D02*Y258853D01*
X195500Y257353D02*X196000Y257853D01*
X192500Y260553D02*X192000Y261053D01*
Y262553D01*
X192500Y263053D01*
X193500D01*
X196000Y260553D02*X193500Y263053D01*
X196000Y260553D02*Y263053D01*
X206250Y305300D02*X208250D01*
X208750Y304800D01*
Y303800D01*
X208250Y303300D02*X208750Y303800D01*
X206750Y303300D02*X208250D01*
X206750Y305300D02*Y301300D01*
X207550Y303300D02*X208750Y301300D01*
X209950Y304500D02*X210750Y305300D01*
Y301300D01*
X209950D02*X211450D01*
X212650Y301800D02*X213150Y301300D01*
X212650Y304800D02*Y301800D01*
Y304800D02*X213150Y305300D01*
X214150D01*
X214650Y304800D01*
Y301800D01*
X214150Y301300D02*X214650Y301800D01*
X213150Y301300D02*X214150D01*
X212650Y302300D02*X214650Y304300D01*
X215850Y301800D02*X216350Y301300D01*
X215850Y304800D02*Y301800D01*
Y304800D02*X216350Y305300D01*
X217350D01*
X217850Y304800D01*
Y301800D01*
X217350Y301300D02*X217850Y301800D01*
X216350Y301300D02*X217350D01*
X215850Y302300D02*X217850Y304300D01*
X231850Y305150D02*X233850D01*
X234350Y304650D01*
Y303650D01*
X233850Y303150D02*X234350Y303650D01*
X232350Y303150D02*X233850D01*
X232350Y305150D02*Y301150D01*
X233150Y303150D02*X234350Y301150D01*
X235550Y304350D02*X236350Y305150D01*
Y301150D01*
X235550D02*X237050D01*
X238250Y301650D02*X238750Y301150D01*
X238250Y304650D02*Y301650D01*
Y304650D02*X238750Y305150D01*
X239750D01*
X240250Y304650D01*
Y301650D01*
X239750Y301150D02*X240250Y301650D01*
X238750Y301150D02*X239750D01*
X238250Y302150D02*X240250Y304150D01*
X241450Y304350D02*X242250Y305150D01*
Y301150D01*
X241450D02*X242950D01*
X206767Y291674D02*X208767D01*
X209267Y291174D01*
Y290174D01*
X208767Y289674D02*X209267Y290174D01*
X207267Y289674D02*X208767D01*
X207267Y291674D02*Y287674D01*
X208067Y289674D02*X209267Y287674D01*
X210467Y290874D02*X211267Y291674D01*
Y287674D01*
X210467D02*X211967D01*
X213167Y288174D02*X213667Y287674D01*
X213167Y291174D02*Y288174D01*
Y291174D02*X213667Y291674D01*
X214667D01*
X215167Y291174D01*
Y288174D01*
X214667Y287674D02*X215167Y288174D01*
X213667Y287674D02*X214667D01*
X213167Y288674D02*X215167Y290674D01*
X216367Y291174D02*X216867Y291674D01*
X217867D01*
X218367Y291174D01*
X217867Y287674D02*X218367Y288174D01*
X216867Y287674D02*X217867D01*
X216367Y288174D02*X216867Y287674D01*
Y289874D02*X217867D01*
X218367Y291174D02*Y290374D01*
Y289374D02*Y288174D01*
Y289374D02*X217867Y289874D01*
X218367Y290374D02*X217867Y289874D01*
X278550Y295450D02*X280550D01*
X281050Y294950D01*
Y293950D01*
X280550Y293450D02*X281050Y293950D01*
X279050Y293450D02*X280550D01*
X279050Y295450D02*Y291450D01*
X279850Y293450D02*X281050Y291450D01*
X282250Y294650D02*X283050Y295450D01*
Y291450D01*
X282250D02*X283750D01*
X284950Y291950D02*X285450Y291450D01*
X284950Y294950D02*Y291950D01*
Y294950D02*X285450Y295450D01*
X286450D01*
X286950Y294950D01*
Y291950D01*
X286450Y291450D02*X286950Y291950D01*
X285450Y291450D02*X286450D01*
X284950Y292450D02*X286950Y294450D01*
X288150Y294950D02*X288650Y295450D01*
X290150D01*
X290650Y294950D01*
Y293950D01*
X288150Y291450D02*X290650Y293950D01*
X288150Y291450D02*X290650D01*
X280000Y282500D02*Y279000D01*
X280500Y278500D01*
X281500D01*
X282000Y279000D01*
Y282500D02*Y279000D01*
X283200Y281700D02*X284000Y282500D01*
Y278500D01*
X283200D02*X284700D01*
X285900Y279000D02*X286400Y278500D01*
X285900Y282000D02*Y279000D01*
Y282000D02*X286400Y282500D01*
X287400D01*
X287900Y282000D01*
Y279000D01*
X287400Y278500D02*X287900Y279000D01*
X286400Y278500D02*X287400D01*
X285900Y279500D02*X287900Y281500D01*
X289100Y281700D02*X289900Y282500D01*
Y278500D01*
X289100D02*X290600D01*
X310084Y270192D02*Y271492D01*
X309384Y269492D02*X310084Y270192D01*
X306784Y269492D02*X309384D01*
X306784D02*X306084Y270192D01*
Y271492D01*
X306884Y272692D02*X306084Y273492D01*
X310084D01*
Y272692D02*Y274192D01*
X306084Y275392D02*Y277392D01*
Y275392D02*X308084D01*
X307584Y275892D01*
Y276892D01*
X308084Y277392D01*
X309584D01*
X310084Y276892D02*X309584Y277392D01*
X310084Y275892D02*Y276892D01*
X309584Y275392D02*X310084Y275892D01*
X309584Y278592D02*X310084Y279092D01*
X306584Y278592D02*X309584D01*
X306584D02*X306084Y279092D01*
Y280092D01*
X306584Y280592D01*
X309584D01*
X310084Y280092D02*X309584Y280592D01*
X310084Y279092D02*Y280092D01*
X309084Y278592D02*X307084Y280592D01*
X290787Y329760D02*X292087D01*
X290087Y330460D02*X290787Y329760D01*
X290087Y333060D02*Y330460D01*
Y333060D02*X290787Y333760D01*
X292087D01*
X293287Y332960D02*X294087Y333760D01*
Y329760D01*
X293287D02*X294787D01*
X295987Y330260D02*X296487Y329760D01*
X295987Y333260D02*Y330260D01*
Y333260D02*X296487Y333760D01*
X297487D01*
X297987Y333260D01*
Y330260D01*
X297487Y329760D02*X297987Y330260D01*
X296487Y329760D02*X297487D01*
X295987Y330760D02*X297987Y332760D01*
X299187Y332960D02*X299987Y333760D01*
Y329760D01*
X299187D02*X300687D01*
X258102D02*X259402D01*
X257402Y330460D02*X258102Y329760D01*
X257402Y333060D02*Y330460D01*
Y333060D02*X258102Y333760D01*
X259402D01*
X260602Y332960D02*X261402Y333760D01*
Y329760D01*
X260602D02*X262102D01*
X263302Y330260D02*X263802Y329760D01*
X263302Y333260D02*Y330260D01*
Y333260D02*X263802Y333760D01*
X264802D01*
X265302Y333260D01*
Y330260D01*
X264802Y329760D02*X265302Y330260D01*
X263802Y329760D02*X264802D01*
X263302Y330760D02*X265302Y332760D01*
X266502Y333260D02*X267002Y333760D01*
X268502D01*
X269002Y333260D01*
Y332260D01*
X266502Y329760D02*X269002Y332260D01*
X266502Y329760D02*X269002D01*
X346000Y262153D02*Y263453D01*
X345300Y261453D02*X346000Y262153D01*
X342700Y261453D02*X345300D01*
X342700D02*X342000Y262153D01*
Y263453D01*
X342800Y264653D02*X342000Y265453D01*
X346000D01*
Y264653D02*Y266153D01*
X342000Y267353D02*Y269353D01*
Y267353D02*X344000D01*
X343500Y267853D01*
Y268853D01*
X344000Y269353D01*
X345500D01*
X346000Y268853D02*X345500Y269353D01*
X346000Y267853D02*Y268853D01*
X345500Y267353D02*X346000Y267853D01*
X342500Y270553D02*X342000Y271053D01*
Y272053D01*
X342500Y272553D01*
X346000Y272053D02*X345500Y272553D01*
X346000Y271053D02*Y272053D01*
X345500Y270553D02*X346000Y271053D01*
X343800D02*Y272053D01*
X342500Y272553D02*X343300D01*
X344300D02*X345500D01*
X344300D02*X343800Y272053D01*
X343300Y272553D02*X343800Y272053D01*
X219750Y342600D02*X220250Y342100D01*
X218250Y342600D02*X219750D01*
X217750Y342100D02*X218250Y342600D01*
X217750Y342100D02*Y341100D01*
X218250Y340600D01*
X219750D01*
X220250Y340100D01*
Y339100D01*
X219750Y338600D02*X220250Y339100D01*
X218250Y338600D02*X219750D01*
X217750Y339100D02*X218250Y338600D01*
X221450Y341800D02*X222250Y342600D01*
Y338600D01*
X221450D02*X222950D01*
X224150Y339100D02*X224650Y338600D01*
X224150Y342100D02*Y339100D01*
Y342100D02*X224650Y342600D01*
X225650D01*
X226150Y342100D01*
Y339100D01*
X225650Y338600D02*X226150Y339100D01*
X224650Y338600D02*X225650D01*
X224150Y339600D02*X226150Y341600D01*
X227350Y341800D02*X228150Y342600D01*
Y338600D01*
X227350D02*X228850D01*
M02*
