G04 start of page 2 for group 2 layer_idx 10 *
G04 Title: (unknown), top_mask *
G04 Creator: pcb-rnd 2.3.0 *
G04 CreationDate: 2021-04-05 19:42:04 UTC *
G04 For:  *
G04 Format: Gerber/RS-274X *
G04 PCB-Dimensions: 500000 500000 *
G04 PCB-Coordinate-Origin: lower left *
%MOIN*%
%FSLAX25Y25*%
%LNTOP_MASK_NONE_2*%
%ADD71C,0.0900*%
%ADD70C,0.0846*%
%ADD69C,0.0860*%
%ADD68C,0.0001*%
G54D68*G36*
X170300Y249550D02*Y258150D01*
X178900D01*
Y249550D01*
X170300D01*
G37*
G54D69*X174600Y263850D03*
G54D68*G36*
X211816Y299752D02*X206098D01*
Y293248D01*
X211816D01*
Y299752D01*
G37*
G36*
X218902D02*X213184D01*
Y293248D01*
X218902D01*
Y299752D01*
G37*
G36*
X236816D02*X231098D01*
Y293248D01*
X236816D01*
Y299752D01*
G37*
G36*
X205700Y248200D02*Y256800D01*
X214300D01*
Y248200D01*
X205700D01*
G37*
G54D69*X210000Y262343D03*
G54D68*G36*
X243902Y299752D02*X238184D01*
Y293248D01*
X243902D01*
Y299752D01*
G37*
G36*
X284016Y290552D02*X278298D01*
Y284048D01*
X284016D01*
Y290552D01*
G37*
G36*
X270500Y275500D02*X280000D01*
Y272500D01*
X270500D01*
Y275500D01*
G37*
G36*
X291102Y290552D02*X285384D01*
Y284048D01*
X291102D01*
Y290552D01*
G37*
G36*
X300500Y272500D02*X291000D01*
Y275500D01*
X300500D01*
Y272500D01*
G37*
G36*
Y267500D02*X291000D01*
Y270500D01*
X300500D01*
Y267500D01*
G37*
G36*
X311160Y284064D02*Y278346D01*
X319240D01*
Y284064D01*
X311160D01*
G37*
G36*
X300500Y262500D02*X291000D01*
Y265500D01*
X300500D01*
Y262500D01*
G37*
G36*
X311160Y272254D02*Y266536D01*
X319240D01*
Y272254D01*
X311160D01*
G37*
G54D70*X305185Y313500D03*
G54D68*G36*
X281263Y317737D02*Y309263D01*
X289737D01*
Y317737D01*
X281263D01*
G37*
G54D70*X273500Y313500D03*
G54D68*G36*
X249578Y317737D02*Y309263D01*
X258052D01*
Y317737D01*
X249578D01*
G37*
G36*
X230300Y248150D02*X238900D01*
Y239550D01*
X230300D01*
Y248150D01*
G37*
G54D71*X234850Y326850D03*
Y336850D03*
G54D68*G36*
X239300Y342400D02*Y351300D01*
X230400D01*
Y342400D01*
X239300D01*
G37*
G54D71*X234850Y366850D03*
G54D69*X244600Y243850D03*
G54D68*G36*
X260300Y248150D02*X268900D01*
Y239550D01*
X260300D01*
Y248150D01*
G37*
G36*
X253960Y261859D02*Y256141D01*
X262040D01*
Y261859D01*
X253960D01*
G37*
G36*
Y273669D02*Y267951D01*
X262040D01*
Y273669D01*
X253960D01*
G37*
G36*
X270500Y270500D02*X280000D01*
Y267500D01*
X270500D01*
Y270500D01*
G37*
G36*
Y265500D02*X280000D01*
Y262500D01*
X270500D01*
Y265500D01*
G37*
G36*
Y260500D02*X280000D01*
Y257500D01*
X270500D01*
Y260500D01*
G37*
G54D69*X274600Y243850D03*
G54D68*G36*
X330300Y239550D02*Y248150D01*
X338900D01*
Y239550D01*
X330300D01*
G37*
G54D69*X334600Y253850D03*
G54D68*G36*
X300500Y257500D02*X291000D01*
Y260500D01*
X300500D01*
Y257500D01*
G37*
G36*
X358200Y233200D02*Y241800D01*
X366800D01*
Y233200D01*
X358200D01*
G37*
G54D69*X362500Y247343D03*
M02*
