G04 start of page 2 for group 0 layer_idx 9 *
G04 Title: (unknown), top_paste *
G04 Creator: pcb-rnd 2.3.0 *
G04 CreationDate: 2021-04-05 19:42:05 UTC *
G04 For:  *
G04 Format: Gerber/RS-274X *
G04 PCB-Dimensions: 500000 500000 *
G04 PCB-Coordinate-Origin: lower left *
%MOIN*%
%FSLAX25Y25*%
%LNTOP_PASTE_NONE_0*%
%ADD76C,0.0001*%
G54D76*G36*
X211516Y299452D02*X206398D01*
Y293548D01*
X211516D01*
Y299452D01*
G37*
G36*
X218602D02*X213484D01*
Y293548D01*
X218602D01*
Y299452D01*
G37*
G36*
X236516D02*X231398D01*
Y293548D01*
X236516D01*
Y299452D01*
G37*
G36*
X243602D02*X238484D01*
Y293548D01*
X243602D01*
Y299452D01*
G37*
G36*
X283716Y290252D02*X278598D01*
Y284348D01*
X283716D01*
Y290252D01*
G37*
G36*
X271000Y275000D02*X279500D01*
Y273000D01*
X271000D01*
Y275000D01*
G37*
G36*
X290802Y290252D02*X285684D01*
Y284348D01*
X290802D01*
Y290252D01*
G37*
G36*
X300000Y273000D02*X291500D01*
Y275000D01*
X300000D01*
Y273000D01*
G37*
G36*
Y268000D02*X291500D01*
Y270000D01*
X300000D01*
Y268000D01*
G37*
G36*
X311460Y283764D02*Y278646D01*
X318940D01*
Y283764D01*
X311460D01*
G37*
G36*
X300000Y263000D02*X291500D01*
Y265000D01*
X300000D01*
Y263000D01*
G37*
G36*
X311460Y271954D02*Y266836D01*
X318940D01*
Y271954D01*
X311460D01*
G37*
G36*
X254260Y261559D02*Y256441D01*
X261740D01*
Y261559D01*
X254260D01*
G37*
G36*
Y273369D02*Y268251D01*
X261740D01*
Y273369D01*
X254260D01*
G37*
G36*
X271000Y270000D02*X279500D01*
Y268000D01*
X271000D01*
Y270000D01*
G37*
G36*
Y265000D02*X279500D01*
Y263000D01*
X271000D01*
Y265000D01*
G37*
G36*
Y260000D02*X279500D01*
Y258000D01*
X271000D01*
Y260000D01*
G37*
G36*
X300000Y258000D02*X291500D01*
Y260000D01*
X300000D01*
Y258000D01*
G37*
M02*
